<?xml version="1.0" encoding="utf-8"?>
<!-- Generator: Adobe Illustrator 16.0.4, SVG Export Plug-In . SVG Version: 6.00 Build 0)  -->
<!DOCTYPE svg PUBLIC "-//W3C//DTD SVG 1.1//EN" "http://www.w3.org/Graphics/SVG/1.1/DTD/svg11.dtd">
<svg version="1.1" id="Layer_1" xmlns="http://www.w3.org/2000/svg" xmlns:xlink="http://www.w3.org/1999/xlink" x="0px" y="0px"
	 width="10.314px" height="22.922px" viewBox="0 0 10.314 22.922" enable-background="new 0 0 10.314 22.922" xml:space="preserve">
<g id="dollar_sign">
	<g>
		<path d="M6.073,20.055v2.867H3.781v-2.637c-1.719-0.115-2.865-0.459-3.782-0.918v-3.322c0.688,0.344,2.063,1.26,3.782,1.26
			c1.49,0,2.407-0.916,2.407-2.293c0-1.26-0.804-1.947-2.521-2.748C1.605,11.345,0.23,9.855,0.23,7.45
			c0-2.636,1.719-4.699,4.24-5.272V0h2.179v2.292C7.793,2.407,8.941,2.75,9.742,3.209v2.75C9.169,5.616,7.908,4.813,6.418,4.813
			c-1.26,0-2.292,0.802-2.292,2.177s0.917,2.062,2.522,2.751c2.405,1.146,3.667,2.75,3.667,5.042
			C10.315,17.535,8.481,19.598,6.073,20.055z"/>
	</g>
</g>
</svg>
