<?xml version="1.0" encoding="utf-8"?>
<!-- Generator: Adobe Illustrator 19.2.1, SVG Export Plug-In . SVG Version: 6.00 Build 0)  -->
<svg version="1.1" xmlns="http://www.w3.org/2000/svg" xmlns:xlink="http://www.w3.org/1999/xlink" x="0px" y="0px"
	 viewBox="0 0 183.6 189.7" style="enable-background:new 0 0 183.6 189.7;" xml:space="preserve">
<style type="text/css">
	.st0{display:none;}
	.st1{display:inline;}
	.st2{fill:#FFB000;}
	.st3{fill:#1B0E0B;}
	.st4{fill:#D1D3D4;stroke:#FFFFFF;stroke-width:2;stroke-linejoin:round;stroke-miterlimit:10;}
	.st5{fill:#CCCCCC;stroke:#FFFFFF;stroke-width:2;stroke-linejoin:round;stroke-miterlimit:10;}
	.st6{fill:#808285;stroke:#FFFFFF;stroke-width:2;stroke-linejoin:round;stroke-miterlimit:10;}
	.st7{fill:#939598;stroke:#FFFFFF;stroke-width:2;stroke-linejoin:round;stroke-miterlimit:10;}
	.st8{fill:#808285;}
	.st9{fill:#242424;}
	.st10{display:inline;fill:none;stroke:#02470E;stroke-width:0.5;stroke-miterlimit:10;}
	.st11{display:inline;fill:none;stroke:#CEFF00;stroke-width:5.000000e-02;stroke-miterlimit:10;}
	.st12{display:inline;fill:#024444;}
	.st13{display:inline;fill:#00FFBC;stroke:#0858F9;stroke-width:0.8581;stroke-miterlimit:10;}
	.st14{display:inline;fill:none;stroke:#08F914;stroke-width:0.8581;stroke-miterlimit:10;}
	.st15{display:inline;fill:#A7A9AC;}
	.st16{display:inline;fill:#6D6E71;}
	.st17{display:inline;fill:#58595B;}
	.st18{display:inline;fill:#00A6F9;stroke:#FC0606;stroke-width:0.8581;stroke-miterlimit:10;}
	.st19{display:inline;fill:#CCCCCC;}
	.st20{display:inline;fill:#D1D3D4;}
	.st21{fill:#6D6E71;}
	.st22{display:inline;fill:#FFFFD4;}
	.st23{display:inline;opacity:0.6;fill:#DB2E00;}
	.st24{fill:none;}
	.st25{fill:#A7A9AC;}
	.st26{fill:#58595B;}
	.st27{fill:#CCCCCC;}
	.st28{fill:#939598;}
</style>
<g id="Layer_1" class="st0">
	<g class="st1">
		<path class="st2" d="M268.8-2c-18.8,0-37.3,8.5-37.3,8.5v44.9c0,0,0.9,13.7,8.7,19.9c7.8,6.1,28.7,15.3,28.7,15.3
			s21.6-9.6,28.3-15.3c6.7-5.8,8.7-16.7,8.7-19.9c0-3.2,0-44.9,0-44.9S290-2,268.8-2z"/>
		<path class="st3" d="M301.9,7.4c0,0-40.8-6.9-66.9,17.9v26.1c0,0,0,8.2,4.1,13.6s29.3,17.9,29.3,17.9S294,71.3,298,64.9
			c4-6.3,4-13.6,4-13.6V7.4z"/>
	</g>
	<g id="ojnXlp_1_" class="st1">
		
			<image style="overflow:visible;" width="191" height="196" id="ojnXlp" xlink:href="82E0DFF344217519.jpg"  transform="matrix(1 0 0 1 -3.2888 -1.9701)">
		</image>
	</g>
	<g class="st1">
		<polygon class="st4" points="-218.8,29.8 -215.3,82.8 -150.5,98.1 -150.5,41.4 		"/>
		<polygon class="st4" points="-212.1,133.3 -215.3,82.8 -150.5,98.1 -150.5,150.2 		"/>
		<polygon class="st4" points="-75.8,57 -77.4,116.2 -150.5,98.1 -150.5,41.4 		"/>
		<polygon class="st5" points="-78.7,169.7 -150.5,150.2 -150.5,98.1 -77.4,116.2 		"/>
		<polygon class="st6" points="-32.5,17.7 -53.2,35.7 -54.5,94.1 -34.7,74.1 		"/>
		<polygon class="st6" points="-54.5,141.4 -36.8,120 -34.7,74.1 -54.5,94.1 		"/>
		<polygon class="st6" points="-78.7,169.7 -54.5,141.4 -54.5,93.3 -77.4,116.2 		"/>
		<polygon class="st6" points="-75.8,57 -53.2,35.7 -54.5,94.1 -77.4,116.2 		"/>
		<polygon class="st7" points="-162.9,-0.8 -188.4,12.9 -124.2,23.9 -100,7.8 		"/>
		<polygon class="st7" points="-150.5,42.4 -124.2,23.9 -53.2,35.7 -75.8,57 		"/>
		<polygon class="st7" points="-218.8,29.8 -188.4,12.9 -124.2,23.9 -150.5,42.4 		"/>
		<polygon class="st7" points="-100,7.8 -32.5,17.7 -53.2,35.7 -124.2,23.9 		"/>
		<g>
			<path class="st8" d="M-185.8,50.7c-6.1-1.2-12.1,0.2-12.1,0.2l0,14.4c0,0,0.3,4.5,2.8,7c2.5,2.5,9.3,6.8,9.3,6.8s7-1.6,9.2-3.1
				s2.8-4.8,2.8-5.8c0-1,0-14.4,0-14.4S-178.9,52.1-185.8,50.7z"/>
			<path class="st9" d="M-175.1,55.9c0,0-13.2-4.9-21.6,1.3l0,8.4c0,0,0,2.6,1.3,4.6c1.3,2,9.5,7.7,9.5,7.7s8.3-2,9.5-3.8
				s1.3-4.1,1.3-4.1L-175.1,55.9z"/>
		</g>
		<g>
			<path class="st8" d="M-113.9,65.2C-120,64-126,65.5-126,65.5l0,14.4c0,0,0.3,4.5,2.8,7s9.3,6.8,9.3,6.8s7-1.6,9.2-3.1
				c2.2-1.4,2.8-4.8,2.8-5.8c0-1,0-14.4,0-14.4S-107,66.6-113.9,65.2z"/>
			<path class="st9" d="M-103.2,70.4c0,0-13.2-4.9-21.6,1.3l0,8.4c0,0,0,2.6,1.3,4.6s9.5,7.7,9.5,7.7s8.3-2,9.5-3.8s1.3-4.1,1.3-4.1
				L-103.2,70.4z"/>
		</g>
		<g>
			<path class="st8" d="M-185.8,101.8c-6.1-1.2-12.1,0.2-12.1,0.2l0,14.4c0,0,0.3,4.5,2.8,7s9.3,6.8,9.3,6.8s7-1.6,9.2-3.1
				s2.8-4.8,2.8-5.8c0-1,0-14.4,0-14.4S-178.9,103.2-185.8,101.8z"/>
			<path class="st9" d="M-175.1,107.1c0,0-13.2-4.9-21.6,1.3l0,8.4c0,0,0,2.6,1.3,4.6c1.3,2,9.5,7.7,9.5,7.7s8.3-2,9.5-3.8
				s1.3-4.1,1.3-4.1L-175.1,107.1z"/>
		</g>
		<g>
			<path class="st8" d="M-113.9,119.8c-6.1-1.2-12.1,0.2-12.1,0.2l0,14.4c0,0,0.3,4.5,2.8,7c2.5,2.5,9.3,6.8,9.3,6.8s7-1.6,9.2-3.1
				c2.2-1.4,2.8-4.8,2.8-5.8c0-1,0-14.4,0-14.4S-107,121.2-113.9,119.8z"/>
			<path class="st9" d="M-103.2,125c0,0-13.2-4.9-21.6,1.3l0,8.4c0,0,0,2.6,1.3,4.6c1.3,2,9.5,7.7,9.5,7.7s8.3-2,9.5-3.8
				s1.3-4.1,1.3-4.1L-103.2,125z"/>
		</g>
	</g>
	<polygon class="st1" points="54.8,-213.9 -1.1,-183.2 5.5,-79.8 138.9,-43.2 180.9,-93.1 185.2,-195.3 	"/>
	<line class="st10" x1="307.4" y1="79.9" x2="232.6" y2="171.1"/>
	<line class="st11" x1="288.9" y1="149" x2="213.8" y2="239.9"/>
	<polygon class="st12" points="153.4,270.9 159.4,263.7 -94.3,198 -101.5,204.2 	"/>
	<polygon class="st13" points="347,157.4 214.2,122.1 214.2,125.1 221.4,127 221.4,139.5 214.2,137.6 214.2,140.6 347,176.1 
		347,172.9 338.6,170.6 338.5,158.3 347,160.6 	"/>
	<polygon class="st13" points="274.2,153.6 228.5,141.6 228.5,128.9 274.2,141.1 	"/>
	<polygon class="st13" points="330.7,168.5 281.5,155.5 281.5,143.1 330.7,156.4 	"/>
	<line class="st14" x1="225.6" y1="2" x2="225.6" y2="205.8"/>
	<polygon class="st1" points="-88.3,279.8 -82.1,272.3 -82.1,269.3 -90.4,267.1 -90.2,266.9 -79.8,269.7 -73.8,262.4 -73.8,259.4 
		-82.7,257.1 -82.2,256.7 -71.5,259.6 -65.6,252.5 -65.6,249.5 -74.3,247.2 -74.2,246.9 -63.5,249.8 -57.5,242.7 -57.5,240 
		-66.3,237.4 -66.2,237.1 -55.4,240 -49.4,232.8 -49.4,229.9 -58,227.7 -58.1,227.2 -47.3,230.1 -47.2,227.2 -175.6,190.6 
		-221,244.4 	"/>
	<polygon class="st15" points="-88.2,276.6 -82.1,269.3 -213.8,235.1 -221,241.4 	"/>
	<polygon class="st16" points="-82.1,269.3 -82.1,272.4 -88.2,279.8 -88.2,276.6 	"/>
	<polygon class="st15" points="-79.7,266.7 -73.8,259.4 -204.9,225.4 -212.2,229.6 -103.7,259.4 -103.7,260 	"/>
	<polygon class="st16" points="-73.8,259.4 -73.8,262.4 -79.8,269.7 -79.8,266.7 	"/>
	<polygon class="st15" points="-71.5,256.7 -65.6,249.4 -196.3,215.5 -203.5,221.7 	"/>
	<polygon class="st15" points="-63.5,246.9 -57.5,239.7 -187.2,206 -194.4,212.2 	"/>
	<polygon class="st15" points="-55.4,237.1 -49.4,229.8 -178.4,196.3 -185.6,202.5 	"/>
	<polygon class="st15" points="-47.2,227.2 -41.3,219.9 -170.2,186.4 -177.4,192.6 	"/>
	<polygon class="st17" points="-96.6,274.4 -52.1,221.7 -52.1,216.5 -96.6,262.1 	"/>
	<polygon class="st17" points="-153.7,259.2 -109.2,206.6 -109.2,201.3 -153.7,246.9 	"/>
	<polygon class="st17" points="-206.7,245.2 -162.1,192.7 -162.1,187.5 -206.7,232.7 	"/>
	<polygon class="st15" points="-88.2,261.1 -81.5,253.9 -213.8,219.5 -221,225.9 	"/>
	<polygon class="st16" points="-82.2,253.9 -82.2,256.9 -88.2,264.3 -88.2,261.1 	"/>
	<path class="st18" d="M-103.9,259"/>
	<path class="st18" d="M-96.6,261"/>
	<path class="st18" d="M-96.6,273.3"/>
	<path class="st18" d="M-104.5,271.2"/>
	<polygon class="st19" points="-88.2,261.1 -221,225.9 -221,228.9 -213.8,230.8 -213.8,243.3 -221,241.4 -221,244.4 -88.2,279.8 
		-88.2,276.6 -96.6,274.4 -96.6,262.1 -88.2,264.3 	"/>
	<polygon class="st19" points="-160.9,257.3 -206.7,245.2 -206.7,232.7 -160.9,244.9 	"/>
	<polygon class="st19" points="-104.5,272.3 -153.7,259.2 -153.7,246.8 -104.5,260.1 	"/>
	<path class="st20" d="M204.6,252.2L71.8,217v3l7.2,1.9v12.5l-7.2-1.9v3l132.8,35.5v-3.2l-8.4-2.2l0-12.3l8.5,2.3V252.2z
		 M131.9,248.4l-45.7-12v-12.6l45.7,12.2V248.4z M188.3,263.3l-49.2-13v-12.4l49.2,13.3V263.3z"/>
	<g class="st1">
		<g>
			<polygon class="st21" points="-65.6,249.4 -65.5,252.5 -71.5,259.6 -71.5,256.7 			"/>
		</g>
		<g>
			<polygon class="st21" points="-57.5,239.7 -57.5,242.7 -63.5,249.8 -63.5,246.9 			"/>
		</g>
		<g>
			<polygon class="st21" points="-49.4,229.8 -49.4,232.8 -55.4,240 -55.4,237.1 			"/>
		</g>
		<g>
			<polygon class="st21" points="-41.3,219.9 -41.3,222.9 -47.3,230.1 -47.3,227.2 			"/>
		</g>
	</g>
	<line class="st11" x1="260.6" y1="74.9" x2="185.5" y2="165.8"/>
</g>
<g id="Layer_6" class="st0">
	<rect x="-22.4" y="-17.2" class="st22" width="219" height="201.4"/>
</g>
<g id="Layer_4" class="st0">
	<polygon class="st23" points="258.6,171.2 266.2,171.2 266.2,168.4 258.5,168.4 	"/>
</g>
<g id="Pallet">
</g>
<g id="Layer_5" class="st0">
	<polygon class="st1" points="20.8,132.3 21.2,131.8 19.8,131.5 26.1,126 29.4,122.1 28.9,122 31.1,120.2 46,102.5 45.9,102.4 
		46.4,102 47.8,100.4 48.2,100.5 53.1,96.2 60.4,98.1 61.2,97.3 61.2,98.3 113.4,111.9 114.1,111.1 114.1,112.1 170.7,126.8 
		171.2,126.3 171.2,126.9 174.3,127.7 180.9,119.9 185.2,17.7 54.8,-0.9 -1.1,29.8 5.5,132.9 9.6,129.3 	"/>
</g>
<g id="Layer_3">
	<g>
		<polygon class="st24" points="4.4,151.8 2.4,151.2 4.4,151.8 		"/>
		<polygon points="158.2,147.5 157.8,147.4 157.8,147.4 		"/>
		<polygon points="25.3,144.8 22.4,148.2 62.4,158.6 62.4,154.7 		"/>
		<polygon points="149.5,169.2 141.2,167.1 141.2,167.1 		"/>
		<polygon points="165.8,149.8 165.8,149.8 165.8,152.5 		"/>
		<polygon points="143.6,176.5 135.2,174.1 133.1,176.7 143.6,179.5 143.6,176.5 		"/>
		<polygon points="165.6,149.8 165.6,149.8 159.9,156.7 		"/>
		<polygon points="151.8,154.6 149.8,156.9 159.9,159.6 159.9,156.7 		"/>
		<polygon points="141.3,179.1 132.9,176.9 132.9,176.9 		"/>
		<polygon points="160.1,144.8 158,147.2 168,149.8 168,146.9 173.8,139.7 173.8,139.7 168,146.9 		"/>
		<polygon points="176.1,137 168.4,134.9 166.4,137.3 176.1,139.9 176.1,137 		"/>
		<polygon points="4.4,151.8 9.6,153.1 9.6,153.1 4.4,151.8 		"/>
		<polygon points="118.8,182.1 118.8,182.1 74.3,170.3 		"/>
		<polygon points="69.6,156.7 69.7,156.7 69.6,156.6 		"/>
		<polygon points="78.2,159 75.6,162 118.8,173.3 118.8,170 		"/>
		<polygon points="143.6,164.3 141.6,166.6 151.9,169.4 151.8,166.5 		"/>
		<polygon points="135.2,186.4 126.7,184.2 126.7,184.2 		"/>
		<polygon class="st25" points="9.6,145.6 9.6,144.9 2.4,151.2 4.4,151.8 		"/>
		<polygon class="st25" points="126.7,184.2 126.7,184.2 135.2,186.4 141.3,179.1 132.9,176.9 		"/>
		<polygon class="st25" points="16.6,155 62.4,167.1 62.4,158.6 22.4,148.2 		"/>
		<polygon class="st25" points="75.6,162 69.6,169 69.6,168.8 69.6,169.1 74.3,170.3 118.8,182.1 118.8,173.3 		"/>
		<polygon class="st25" points="4.4,151.8 9.6,153.1 9.6,145.6 		"/>
		<polygon class="st21" points="135.2,189.7 141.3,182.2 141.3,182.1 135.2,189.5 		"/>
		<polygon class="st21" points="135.2,189.5 141.3,182.1 141.3,179.1 135.2,186.4 		"/>
		<polygon class="st25" points="138.9,169.8 138.9,169.8 138.9,169.8 135.2,174.1 143.6,176.5 149.5,169.2 141.2,167.1 		"/>
		<polygon class="st25" points="138.9,169.8 138.9,169.8 138.9,169.8 		"/>
		<polygon class="st21" points="143.6,176.5 143.6,176.5 143.6,179.5 149.5,172.2 149.5,169.2 143.6,176.5 		"/>
		<polygon class="st21" points="143.6,176.5 149.5,169.2 143.6,176.5 		"/>
		<polygon class="st25" points="157.7,159.3 157.7,159.3 157.8,159.2 149.6,157.1 149.6,157.1 		"/>
		<polygon class="st25" points="151.8,166.5 157.7,159.3 157.7,159.3 149.6,157.1 143.6,164.3 		"/>
		<polygon class="st21" points="157.7,162.3 151.9,169.4 157.8,162.3 157.8,159.2 157.7,159.3 		"/>
		<polygon class="st21" points="157.7,159.3 151.8,166.5 151.9,169.4 157.7,162.3 		"/>
		<polygon class="st25" points="165.8,149.5 158.2,147.5 165.6,149.8 		"/>
		<polygon class="st25" points="151.8,154.6 159.9,156.7 165.6,149.8 158.2,147.5 157.8,147.4 		"/>
		<polygon class="st21" points="165.8,149.5 165.6,149.8 165.8,149.8 		"/>
		<polygon class="st21" points="159.9,159.6 165.8,152.5 165.8,149.8 165.6,149.8 159.9,156.7 		"/>
		<polygon class="st25" points="173.8,139.7 173.9,139.6 166.1,137.6 166,137.7 		"/>
		<polygon class="st25" points="160.1,144.8 168,146.9 173.8,139.7 166,137.7 		"/>
		<polygon class="st21" points="173.9,142.6 173.9,139.6 173.8,139.7 173.9,139.7 		"/>
		<polygon class="st21" points="168,149.8 173.9,142.6 173.9,139.7 173.8,139.7 168,146.9 		"/>
		<polygon class="st25" points="174.3,127.7 168.5,134.8 176.1,137 182,129.7 182,129.7 182,129.7 		"/>
		<polygon class="st25" points="176.1,137 176.1,137 168.5,134.8 168.4,134.9 		"/>
		<polygon class="st21" points="176.1,139.9 182,132.7 182,129.7 176.1,137 		"/>
		<polygon class="st21" points="176.1,137 176.1,137 176.1,139.9 176.1,137 		"/>
		<polygon class="st21" points="176.1,137 176.1,137 182,129.7 182,129.7 		"/>
		<polygon class="st21" points="176.1,137 176.1,137 176.1,137 		"/>
		<polygon class="st26" points="132.9,176.9 132.9,176.9 133.1,176.7 133.1,176.7 		"/>
		<polygon class="st26" points="151.7,154.6 149.8,156.9 149.8,156.9 151.8,154.6 		"/>
		<ellipse transform="matrix(0.9299 -0.3678 0.3678 0.9299 -51.5523 63.6507)" class="st26" cx="141.2" cy="167.1" rx="0" ry="0"/>
		<polygon class="st26" points="135.2,174.1 135.2,174.2 126.7,171.9 126.7,175.3 132.9,176.9 132.9,176.9 132.9,176.9 133.1,176.7 
			133.1,176.7 135.2,174.1 		"/>
		<polygon class="st26" points="132.9,176.9 126.7,175.3 126.7,184.2 		"/>
		<polygon class="st26" points="135.2,174.1 135.2,174.1 138.9,169.8 138.7,169.7 		"/>
		<polygon class="st26" points="141.2,167.1 141.2,167.1 138.9,169.8 		"/>
		<polygon class="st26" points="69.7,156.7 69.6,156.7 69.6,160.5 75.6,162 78.2,159 		"/>
		<polygon class="st26" points="69.6,168.8 69.6,169 75.6,162 69.6,160.5 		"/>
		<polygon class="st26" points="25.3,144.8 16.6,142.5 16.6,146.7 22.4,148.2 		"/>
		<polygon class="st26" points="16.6,146.7 16.6,155 22.4,148.2 		"/>
		<polygon class="st25" points="16.6,136.2 5.5,133.2 5.5,132.9 2.4,135.7 12.7,138.5 		"/>
		<polygon class="st25" points="17.3,136.4 16.6,136.2 12.7,138.5 15.1,139.1 		"/>
		<polygon class="st25" points="80.3,156.4 129.2,169.3 130.9,167.6 82.2,154.2 		"/>
		<polygon class="st25" points="17.3,136.4 15.1,139.1 19,140.1 21.5,137.6 		"/>
		<polygon class="st25" points="74.2,152 29.6,139.8 27.4,142.4 72.1,154.2 		"/>
		<polygon class="st25" points="130.9,167.6 129.2,169.3 135.2,170.9 136.6,169.1 		"/>
		<polygon class="st25" points="74.2,152 72.1,154.2 80.3,156.4 82.2,154.2 		"/>
		<polygon class="st25" points="29.6,139.8 21.5,137.6 19,140.1 27.4,142.4 		"/>
		<polygon class="st21" points="135.2,174.2 135.2,174.1 135.2,174.1 		"/>
		<polygon class="st21" points="136.8,169.2 135.2,170.9 135.2,174.1 135.2,174.1 138.7,169.7 		"/>
		<polygon class="st21" points="135.2,170.9 136.8,169.2 136.6,169.1 		"/>
		<polygon class="st27" points="135.1,189.6 2.4,154.2 135.2,189.7 135.2,189.5 		"/>
		<polygon class="st27" points="14.2,140.2 11.2,139.4 12.7,138.5 2.4,135.7 2.4,138.7 9.6,140.6 9.6,144.9 10.1,145 		"/>
		<polygon class="st27" points="2.4,151.2 2.4,154.2 4.4,151.8 		"/>
		<polygon class="st27" points="16.6,142.5 17.9,141.2 14.2,140.2 10.1,145 16.6,146.7 		"/>
		<polygon class="st27" points="119.6,169.2 79,158 78.2,159 118.8,170 118.8,173.3 126.7,175.3 126.7,171.9 126.8,171.8 
			119.6,169.8 		"/>
		<polygon class="st27" points="69.6,156.7 69.6,156.6 69.7,156.7 70.6,155.7 26.4,143.5 25.3,144.8 62.4,154.7 62.4,158.6 
			69.6,160.5 69.6,156.7 		"/>
		<polygon class="st27" points="135.2,189.5 135.2,186.4 126.7,184.2 126.7,184.2 126.7,184.2 126.7,184.2 126.7,184.2 118.8,182.1 
			118.8,182.1 74.3,170.3 9.6,153.1 9.6,153.1 4.4,151.8 2.4,154.2 135.1,189.6 		"/>
		<polygon class="st27" points="10.1,145 9.6,144.9 9.6,145.6 		"/>
		<polygon class="st27" points="126.7,184.2 126.7,184.2 126.7,184.2 		"/>
		<polygon class="st27" points="118.8,173.3 118.8,182.1 126.7,184.2 126.7,175.3 		"/>
		<polygon class="st27" points="69.6,168.8 69.6,160.5 62.4,158.6 62.4,167.1 16.6,155 16.6,146.7 10.1,145 9.6,145.6 9.6,153.1 
			74.3,170.3 69.6,169.1 		"/>
		<polygon class="st27" points="12.7,138.5 11.2,139.4 14.2,140.2 15.1,139.1 		"/>
		<polygon class="st27" points="19,140.1 15.1,139.1 14.2,140.2 17.9,141.2 		"/>
		<polygon class="st27" points="80.3,156.4 79,158 119.6,169.2 119.6,169.8 126.8,171.8 129.2,169.3 		"/>
		<polygon class="st27" points="27.4,142.4 26.4,143.5 70.6,155.7 72.1,154.2 		"/>
		<polygon class="st27" points="126.8,171.8 126.7,171.9 126.7,175.3 126.7,175.3 126.7,171.9 135.2,174.2 135.2,174.1 		"/>
		<polygon class="st27" points="126.7,184.2 126.7,184.2 126.7,184.2 		"/>
		<polygon class="st27" points="126.7,184.2 126.7,184.2 126.7,184.2 126.7,175.3 126.7,175.3 		"/>
		<polygon class="st27" points="126.8,171.8 135.2,174.1 135.2,170.9 129.2,169.3 		"/>
		<polygon class="st27" points="69.7,156.7 78.2,159 79,158 70.6,155.7 		"/>
		<polygon class="st27" points="69.6,156.7 69.6,156.7 69.6,160.5 69.6,160.5 		"/>
		<polygon class="st27" points="69.6,160.5 69.6,168.8 69.6,160.5 		"/>
		<polygon class="st27" points="70.6,155.7 79,158 80.3,156.4 72.1,154.2 		"/>
		<polygon class="st27" points="26.4,143.5 17.9,141.2 16.6,142.5 25.3,144.8 		"/>
		<polygon class="st27" points="27.4,142.4 19,140.1 17.9,141.2 26.4,143.5 		"/>
		<g>
			<path class="st27" d="M3.8,81.4l61.8,14.5c0.3,0.1,0.7-0.2,0.7-0.5l-0.1-52c0-0.3-0.2-0.5-0.5-0.5L0.6,31.1C0.3,31,0,31.3,0,31.7
				l3.3,49.2C3.4,81.1,3.5,81.3,3.8,81.4z"/>
		</g>
		<g>
			<path class="st27" d="M6.6,130L3.5,84.8c0-0.4,0.3-0.7,0.7-0.6l61.6,14.5c0.2,0.1,0.4,0.3,0.4,0.5l0.1,46.8
				c0,0.4-0.3,0.6-0.7,0.5L7,130.5C6.8,130.5,6.6,130.3,6.6,130z"/>
		</g>
		<g>
			<path class="st27" d="M139.4,58.2l-1.6,54.9c0,0.3-0.3,0.6-0.7,0.5L69.7,97.2c-0.2-0.1-0.4-0.3-0.4-0.5V44.2
				c0-0.3,0.3-0.6,0.7-0.5l69,14C139.2,57.7,139.4,57.9,139.4,58.2z"/>
		</g>
		<g>
			<path class="st27" d="M135.7,165.3l-66-17.8c-0.2-0.1-0.4-0.3-0.4-0.5l-0.1-46.4c0-0.4,0.3-0.6,0.7-0.5l67.3,17
				c0.2,0.1,0.4,0.3,0.4,0.5l-1.2,47.2C136.4,165.1,136.1,165.4,135.7,165.3z"/>
		</g>
		<g>
			<path class="st8" d="M182.7,21.6l-17.3,15c-0.1,0.1-0.2,0.2-0.2,0.4l-1.3,54.3c0,0.5,0.6,0.8,0.9,0.4l16.5-16.8
				c0.1-0.1,0.2-0.2,0.2-0.4l2.1-52.6C183.6,21.5,183,21.3,182.7,21.6z"/>
		</g>
		<g>
			<path class="st8" d="M141.6,162.7l19.5-23.6c0.1-0.1,0.1-0.2,0.1-0.4l-0.1-38.8c0-0.5-0.6-0.7-0.9-0.4L142,117
				c-0.1,0.1-0.2,0.2-0.2,0.4l-1.2,44.9C140.6,162.8,141.2,163.1,141.6,162.7z"/>
		</g>
		<g>
			<path class="st8" d="M165.1,134.6l14.6-17.7c0.1-0.1,0.1-0.2,0.1-0.3l2-36.6c0-0.5-0.6-0.8-0.9-0.4l-16.6,16.6
				c-0.1,0.1-0.2,0.2-0.2,0.4l0,37.7C164.1,134.8,164.8,135,165.1,134.6z"/>
			<path class="st8" d="M161.4,40.2l-18.4,17c-0.1,0.1-0.2,0.2-0.2,0.4l-1.5,54.8c0,0.5,0.6,0.8,0.9,0.4l18.6-17.8
				c0.1-0.1,0.2-0.2,0.2-0.4l1.2-54C162.4,40.2,161.8,39.9,161.4,40.2z"/>
		</g>
		<g>
			<path class="st28" d="M53,0.1L32,11.3c-0.5,0.2-0.4,0.9,0.2,1l59.5,10.3c0.1,0,0.3,0,0.4-0.1L112,9c0.4-0.3,0.3-0.9-0.2-1L53.4,0
				C53.3,0,53.1,0,53,0.1z"/>
		</g>
		<g>
			<g>
				<polygon class="st24" points="69.6,41.8 141.6,55.9 162.3,36.3 93.7,24.9 				"/>
				<g>
					<path class="st28" d="M72,41l69.2,13.5c0.2,0,0.4,0,0.5-0.1l18.6-17.5c0.3-0.3,0.2-0.9-0.3-0.9L94,24.9c-0.1,0-0.3,0-0.4,0.1
						L71.8,40C71.4,40.3,71.6,40.9,72,41z"/>
				</g>
			</g>
		</g>
		<g>
			<path class="st28" d="M2.7,27.2l25.3-13.7c0.1-0.1,0.2-0.1,0.4-0.1L88.8,24c0.5,0.1,0.6,0.7,0.2,1L67.5,40.1
				c-0.1,0.1-0.3,0.1-0.4,0.1l-64.3-12C2.3,28.2,2.2,27.5,2.7,27.2z"/>
		</g>
		<g>
			<path class="st28" d="M97.5,23.5l65.3,10.7c0.2,0,0.3,0,0.4-0.1l17.6-15.3c0.4-0.3,0.2-0.9-0.3-1l-62.5-9c-0.1,0-0.3,0-0.4,0.1
				L97.3,22.5C96.9,22.8,97,23.4,97.5,23.5z"/>
		</g>
		<g>
			<path class="st8" d="M31.9,48.7c-6.1-1.2-12.1,0.2-12.1,0.2l0,14.4c0,0,0.3,4.5,2.8,7s9.3,6.8,9.3,6.8s7-1.6,9.2-3.1
				c2.2-1.4,2.8-4.8,2.8-5.8s0-14.4,0-14.4S38.8,50.1,31.9,48.7z"/>
			<path class="st9" d="M42.6,53.9c0,0-13.2-4.9-21.6,1.3l0,8.4c0,0,0,2.6,1.3,4.6s9.5,7.7,9.5,7.7s8.3-2,9.5-3.8s1.3-4.1,1.3-4.1
				L42.6,53.9z"/>
		</g>
		<g>
			<path class="st8" d="M103.8,63.2c-6.1-1.2-12.1,0.2-12.1,0.2l0,14.4c0,0,0.3,4.5,2.8,7s9.3,6.8,9.3,6.8s7-1.6,9.2-3.1
				s2.8-4.8,2.8-5.8c0-1,0-14.4,0-14.4S110.7,64.6,103.8,63.2z"/>
			<path class="st9" d="M114.5,68.4c0,0-13.2-4.9-21.6,1.3l0,8.4c0,0,0,2.6,1.3,4.6s9.5,7.7,9.5,7.7s8.3-2,9.5-3.8s1.3-4.1,1.3-4.1
				L114.5,68.4z"/>
		</g>
		<g>
			<path class="st8" d="M31.9,99.8c-6.1-1.2-12.1,0.2-12.1,0.2l0,14.4c0,0,0.3,4.5,2.8,7s9.3,6.8,9.3,6.8s7-1.6,9.2-3.1
				c2.2-1.4,2.8-4.8,2.8-5.8c0-1,0-14.4,0-14.4S38.8,101.2,31.9,99.8z"/>
			<path class="st9" d="M42.6,105c0,0-13.2-4.9-21.6,1.3l0,8.4c0,0,0,2.6,1.3,4.6c1.3,2,9.5,7.7,9.5,7.7s8.3-2,9.5-3.8
				s1.3-4.1,1.3-4.1L42.6,105z"/>
		</g>
		<g>
			<path class="st8" d="M103.8,117.7c-6.1-1.2-12.1,0.2-12.1,0.2l0,14.4c0,0,0.3,4.5,2.8,7c2.5,2.5,9.3,6.8,9.3,6.8s7-1.6,9.2-3.1
				c2.2-1.4,2.8-4.8,2.8-5.8c0-1,0-14.4,0-14.4S110.7,119.2,103.8,117.7z"/>
			<path class="st9" d="M114.5,123c0,0-13.2-4.9-21.6,1.3l0,8.4c0,0,0,2.6,1.3,4.6c1.3,2,9.5,7.7,9.5,7.7s8.3-2,9.5-3.8
				s1.3-4.1,1.3-4.1L114.5,123z"/>
		</g>
	</g>
</g>
<g id="Layer_7" class="st0">
</g>
</svg>
