<?xml version="1.0" encoding="utf-8"?>
<!-- Generator: Adobe Illustrator 18.1.0, SVG Export Plug-In . SVG Version: 6.00 Build 0)  -->
<svg version="1.1" id="Layer_2" xmlns="http://www.w3.org/2000/svg" xmlns:xlink="http://www.w3.org/1999/xlink" x="0px" y="0px"
	 viewBox="84 -64 72 85" enable-background="new 84 -64 72 85" xml:space="preserve">
<path display="none" fill="#FFB500" d="M690.6,786.7V827h7.3v-16.8h1c0.5,0.8,10.9,16.8,10.9,16.8h8.8c0,0-11-16.2-12.1-17.7
	c5.3-1.3,8.9-5.1,8.9-10.7c0-5.7-3.5-11.8-13.4-11.8L690.6,786.7L690.6,786.7z M701.2,792.6c6.2,0,7,3,7,5.7c0,3.8-1.6,6.3-9.4,6.3
	h-0.9v-12H701.2z"/>
<path display="none" fill="#FFB500" d="M729.6,807c0,15-12.2,27.2-27.3,27.2c-15,0-27.3-12.2-27.3-27.2c0-15,12.2-27.3,27.3-27.3
	C717.4,779.6,729.6,791.9,729.6,807 M702.3,773.8c-18.2,0-33.1,15-33.1,33.2c0,18.2,14.9,33.1,33.1,33.1c18.4,0,33.2-14.8,33.2-33.1
	C735.4,788.7,720.6,773.8,702.3,773.8"/>
<g>
	<path fill="#FFB500" d="M142.8,16.2v3.6h0.7c0,0,0-1.4,0-1.5c0,0,0.1,0,0.1,0c0,0.1,1,1.5,1,1.5h0.8c0,0-1-1.5-1.1-1.6
		c0.5-0.1,0.8-0.5,0.8-1c0-0.5-0.3-1.1-1.2-1.1H142.8z M143.8,16.7c0.6,0,0.6,0.3,0.6,0.5c0,0.3-0.1,0.6-0.9,0.6c0,0,0,0-0.1,0
		c0-0.1,0-0.9,0-1.1C143.6,16.7,143.8,16.7,143.8,16.7z M146.3,18c0,1.4-1.1,2.5-2.5,2.5c-1.4,0-2.5-1.1-2.5-2.5
		c0-1.4,1.1-2.5,2.5-2.5C145.2,15.5,146.3,16.6,146.3,18z M143.9,15c-1.7,0-3,1.4-3,3c0,1.7,1.3,3,3,3c1.7,0,3-1.3,3-3
		C146.9,16.4,145.5,15,143.9,15z M120,21c-2.2-1-20.3-8.9-26.1-13.6C87.6,2.2,84.3-5.2,84.3-14v-42c9.9-5.3,21.9-7.9,35.7-7.9
		c13.8,0,25.8,2.7,35.7,7.9v42c0,8.8-3.3,16.2-9.6,21.4C140.4,12.1,122.1,20.1,120,21z"/>
	<path fill="#351C15" d="M87.6-14c0,7.8,2.9,14.4,8.4,18.9c4.9,4,19.8,10.7,24,12.6c4.2-1.8,19.1-8.5,24-12.6
		c5.5-4.6,8.4-10.9,8.4-18.9v-41.2c-20.8-1.9-45.4-0.7-64.9,17.1V-14z M90.7-16.5v-19.5H97v19.8c0,1.8,0.4,4.4,3.3,4.4
		c1.3,0,2.3-0.3,2.9-0.8v-23.4h6.2v27c-2.4,1.6-5.6,2.5-9.4,2.5C93.9-6.6,90.7-10,90.7-16.5z M118.8,6h-6.2v-40.5
		c2.3-1.5,5-2.2,8.4-2.2c7.4,0,11.5,5.6,11.5,14.7c0,9.1-4,15.3-10.9,15.3c-1.3,0-2.2-0.2-2.8-0.4V6z M118.8-31.2
		c0.5-0.3,1.4-0.4,2.2-0.4c3.6,0,5.1,2.9,5.1,9.8c0,6.8-1.7,10.1-5.3,10.1c-0.8,0-1.6-0.2-2-0.4V-31.2z M133.8-28.6
		c0-5,4.2-8,8.3-8.1c3.4-0.1,5.7,1.2,6.8,2v5.4c-1.3-1.3-3.4-2.5-5.6-2.6c-1.8,0-3.6,0.8-3.7,3c-0.1,2.3,1.8,3.2,4.1,4.5
		c5.2,3.1,6.2,5.8,6.1,9.4c-0.1,4-2.9,8.3-9,8.3c-2.5,0-4.9-0.8-6.8-1.9v-5.7c1.6,1.4,4,2.5,5.9,2.5c2.3,0,3.8-1.3,3.7-3.5
		c0-1.9-1.1-3-3.9-4.6C134.8-22.8,133.8-25.3,133.8-28.6z"/>
</g>
</svg>
