<?xml version="1.0" encoding="utf-8"?>
<!-- Generator: Adobe Illustrator 16.0.4, SVG Export Plug-In . SVG Version: 6.00 Build 0)  -->
<!DOCTYPE svg PUBLIC "-//W3C//DTD SVG 1.1//EN" "http://www.w3.org/Graphics/SVG/1.1/DTD/svg11.dtd">
<svg version="1.1" id="Layer_1" xmlns="http://www.w3.org/2000/svg" xmlns:xlink="http://www.w3.org/1999/xlink" x="0px" y="0px"
	 width="73.478px" height="87.129px" viewBox="0 0 73.478 87.129" enable-background="new 0 0 73.478 87.129" xml:space="preserve">
<g>
	<defs>
		<rect id="SVGID_1_" x="-14.272" y="-13.996" width="102" height="115"/>
	</defs>
	<clipPath id="SVGID_2_">
		<use xlink:href="#SVGID_1_"  overflow="visible"/>
	</clipPath>
	<path clip-path="url(#SVGID_2_)" fill="#1E0000" d="M36.728-0.122c-14.406,0-26.283,2.74-36.75,8.288v42.832
		c0,9.149,3.442,16.808,9.954,22.146c5.872,4.812,24.665,13.058,26.796,13.984c2.131-0.927,20.924-9.172,26.796-13.984
		c6.512-5.339,9.954-12.997,9.954-22.146V8.167C63.011,2.618,51.134-0.122,36.728-0.122"/>
</g>
<g>
	<defs>
		<path id="SVGID_3_" d="M0.728,8.618v42.38c0,8.916,3.347,16.375,9.68,21.565c5.793,4.749,24.205,12.829,26.32,13.748
			c2.114-0.919,20.527-8.999,26.32-13.748c6.333-5.19,9.68-12.649,9.68-21.565V8.618c-10.001-5.303-22.113-7.989-36-7.989
			C22.841,0.629,10.73,3.315,0.728,8.618"/>
	</defs>
	<clipPath id="SVGID_4_">
		<use xlink:href="#SVGID_3_"  overflow="visible"/>
	</clipPath>
	
		<radialGradient id="SVGID_5_" cx="-14.272" cy="101.0039" r="1" gradientTransform="matrix(0 119.6079 59.804 0 -6028.7109 1722.4822)" gradientUnits="userSpaceOnUse">
		<stop  offset="0" style="stop-color:#FFDC00"/>
		<stop  offset="0.35" style="stop-color:#FFBE00"/>
		<stop  offset="1" style="stop-color:#C86E14"/>
	</radialGradient>
	<rect x="0.728" y="0.629" clip-path="url(#SVGID_4_)" fill="url(#SVGID_5_)" width="72" height="85.683"/>
</g>
<g>
	<defs>
		<rect id="SVGID_6_" x="-14.272" y="-13.996" width="102" height="115"/>
	</defs>
	<clipPath id="SVGID_7_">
		<use xlink:href="#SVGID_6_"  overflow="visible"/>
	</clipPath>
	<path clip-path="url(#SVGID_7_)" fill="#C86E14" d="M59.708,81.447v3.677h0.664v-1.535h0.095c0.05,0.075,0.999,1.535,0.999,1.535
		h0.804c0,0-1.008-1.475-1.107-1.62c0.486-0.114,0.814-0.467,0.814-0.977c0-0.522-0.322-1.08-1.225-1.08H59.708z M60.675,81.984
		c0.563,0,0.638,0.276,0.638,0.516c0,0.347-0.148,0.577-0.859,0.577h-0.082v-1.093H60.675z M63.272,83.296
		c0,1.368-1.114,2.484-2.493,2.484c-1.372,0-2.488-1.116-2.488-2.484c0-1.372,1.116-2.495,2.488-2.495
		C62.158,80.801,63.272,81.924,63.272,83.296 M60.777,80.268c-1.665,0-3.019,1.363-3.019,3.028s1.354,3.019,3.019,3.019
		c1.675,0,3.026-1.354,3.026-3.019S62.452,80.268,60.777,80.268"/>
</g>
<g>
	<defs>
		<path id="SVGID_8_" d="M35.49,33.65v19.244c0.448,0.167,1.183,0.378,2.032,0.378c3.606,0,5.326-3.308,5.326-10.155
			c0-7.017-1.505-9.918-5.14-9.918C36.859,33.199,35.998,33.399,35.49,33.65 M19.757,52.396V28.789h6.252v27.172
			c-2.392,1.625-5.603,2.515-9.436,2.515c-6.198,0-9.34-3.362-9.34-10V28.789h6.26v19.966c0,1.777,0.429,4.407,3.301,4.407
			C18.066,53.162,19.076,52.865,19.757,52.396 M29.223,30.383c2.272-1.466,5.027-2.228,8.443-2.228
			c7.476,0,11.584,5.672,11.584,14.803c0,9.148-3.989,15.411-10.942,15.411c-1.285,0-2.193-0.172-2.818-0.356v13.188h-6.267V30.383z
			 M60.684,49.824c-0.047-1.968-1.158-3.034-3.912-4.652c-5.165-3.031-6.093-5.523-6.102-8.855
			c-0.027-5.061,4.282-8.042,8.403-8.162c3.439-0.105,5.771,1.187,6.872,2.034v5.447c-1.305-1.34-3.422-2.554-5.61-2.574
			c-1.774-0.016-3.622,0.765-3.684,2.993c-0.062,2.278,1.782,3.179,4.12,4.548c5.231,3.076,6.243,5.84,6.123,9.494
			c-0.119,4.004-2.881,8.379-9.068,8.379c-2.476,0-4.924-0.773-6.885-1.944v-5.767c1.598,1.425,3.989,2.534,5.987,2.548
			c0.008,0,0.017,0,0.025,0C59.237,53.312,60.737,52,60.684,49.824 M4.036,26.758V51c0,7.896,2.92,14.489,8.468,19.009
			c4.898,3.992,19.973,10.813,24.224,12.69c4.196-1.849,19.233-8.585,24.217-12.69C66.529,65.41,69.42,58.97,69.42,51V9.51
			c-4.446-0.414-9.064-0.686-13.77-0.686C38.203,8.824,19.499,12.574,4.036,26.758"/>
	</defs>
	<clipPath id="SVGID_9_">
		<use xlink:href="#SVGID_8_"  overflow="visible"/>
	</clipPath>
	
		<radialGradient id="SVGID_10_" cx="-14.272" cy="101.0039" r="1" gradientTransform="matrix(0 118.6833 59.3417 0 -5981.9795 1709.3488)" gradientUnits="userSpaceOnUse">
		<stop  offset="0" style="stop-color:#4B3333"/>
		<stop  offset="0.35" style="stop-color:#351A1A"/>
		<stop  offset="0.85" style="stop-color:#1E0000"/>
		<stop  offset="1" style="stop-color:#1E0000"/>
	</radialGradient>
	<rect x="4.036" y="8.824" clip-path="url(#SVGID_9_)" fill="url(#SVGID_10_)" width="65.384" height="73.875"/>
</g>
<g>
	<defs>
		<path id="SVGID_11_" d="M4.036,51c0,7.896,2.92,14.489,8.468,19.009c4.898,3.992,19.973,10.813,24.224,12.69v-0.492
			c-3.529-1.562-18.982-8.505-23.941-12.546C7.357,65.235,4.486,58.782,4.486,51H4.036z"/>
	</defs>
	<clipPath id="SVGID_12_">
		<use xlink:href="#SVGID_11_"  overflow="visible"/>
	</clipPath>
	
		<linearGradient id="SVGID_13_" gradientUnits="userSpaceOnUse" x1="-14.2729" y1="100.9219" x2="-13.2729" y2="100.9219" gradientTransform="matrix(-32.756 -31.6321 -31.6321 32.756 2761.6411 -3674.5881)">
		<stop  offset="0" style="stop-color:#E49F15"/>
		<stop  offset="0.0237" style="stop-color:#E39C15"/>
		<stop  offset="0.1784" style="stop-color:#DC9116"/>
		<stop  offset="0.3958" style="stop-color:#D88A17"/>
		<stop  offset="1" style="stop-color:#D78817"/>
	</linearGradient>
	<polygon clip-path="url(#SVGID_12_)" fill="url(#SVGID_13_)" points="20.953,99.035 -11.804,67.402 19.812,34.664 52.568,66.296 	
		"/>
</g>
<g>
	<defs>
		<path id="SVGID_14_" d="M68.97,51c0,7.841-2.796,14.12-8.312,18.662c-4.796,3.95-19.294,10.499-23.931,12.545v0.492
			c4.196-1.849,19.233-8.585,24.217-12.69C66.529,65.41,69.42,58.97,69.42,51H68.97z"/>
	</defs>
	<clipPath id="SVGID_15_">
		<use xlink:href="#SVGID_14_"  overflow="visible"/>
	</clipPath>
	
		<linearGradient id="SVGID_16_" gradientUnits="userSpaceOnUse" x1="-14.272" y1="101.0859" x2="-13.272" y2="101.0859" gradientTransform="matrix(32.756 -31.6321 -31.6321 -32.756 3701.7432 2942.4087)">
		<stop  offset="0" style="stop-color:#FFC20E"/>
		<stop  offset="1" style="stop-color:#D89016"/>
	</linearGradient>
	<polygon clip-path="url(#SVGID_15_)" fill="url(#SVGID_16_)" points="20.888,66.296 53.644,34.664 85.26,67.402 52.503,99.035 	"/>
</g>
<g>
	<defs>
		<path id="SVGID_17_" d="M4.036,26.758l0.45,0.198C17.535,15.059,34.273,9.274,55.651,9.274c4.173,0,8.535,0.212,13.319,0.646
			l0.45-0.41c-4.446-0.414-9.064-0.686-13.77-0.686C38.203,8.824,19.499,12.574,4.036,26.758"/>
	</defs>
	<clipPath id="SVGID_18_">
		<use xlink:href="#SVGID_17_"  overflow="visible"/>
	</clipPath>
	
		<linearGradient id="SVGID_19_" gradientUnits="userSpaceOnUse" x1="-14.272" y1="100.9688" x2="-13.272" y2="100.9688" gradientTransform="matrix(63.6689 -22.1719 -22.1719 -63.6689 3152.1973 6141.1885)">
		<stop  offset="0" style="stop-color:#E49F15"/>
		<stop  offset="0.975" style="stop-color:#8F4A02"/>
		<stop  offset="1" style="stop-color:#8F4A02"/>
	</linearGradient>
	<polygon clip-path="url(#SVGID_18_)" fill="url(#SVGID_19_)" points="-1.595,10.785 62.348,-11.482 75.051,24.995 11.107,47.263 	
		"/>
</g>
<g>
	<defs>
		<path id="SVGID_20_" d="M42.398,43.117c0,5.535-1.091,9.706-4.876,9.706v0.449c3.606,0,5.326-3.308,5.326-10.155H42.398z"/>
	</defs>
	<clipPath id="SVGID_21_">
		<use xlink:href="#SVGID_20_"  overflow="visible"/>
	</clipPath>
	
		<linearGradient id="SVGID_22_" gradientUnits="userSpaceOnUse" x1="-14.2715" y1="101.0938" x2="-13.2715" y2="101.0938" gradientTransform="matrix(5.1513 -10.2422 -10.2422 -5.1513 1146.5502 427.9014)">
		<stop  offset="0" style="stop-color:#FFC20E"/>
		<stop  offset="0.05" style="stop-color:#FFC20E"/>
		<stop  offset="0.95" style="stop-color:#BF7312"/>
		<stop  offset="1" style="stop-color:#BF7312"/>
	</linearGradient>
	<polygon clip-path="url(#SVGID_21_)" fill="url(#SVGID_22_)" points="33.446,51.222 38.597,40.979 46.924,45.167 41.773,55.41 	"/>
</g>
<g>
	<defs>
		<path id="SVGID_23_" d="M35.49,52.894c0.448,0.167,1.183,0.378,2.032,0.378v-0.449c-0.616,0-1.168-0.121-1.582-0.25L35.49,52.894z
			"/>
	</defs>
	<clipPath id="SVGID_24_">
		<use xlink:href="#SVGID_23_"  overflow="visible"/>
	</clipPath>
	
		<linearGradient id="SVGID_25_" gradientUnits="userSpaceOnUse" x1="-14.272" y1="101.0078" x2="-13.272" y2="101.0078" gradientTransform="matrix(-2.0485 -0.2515 -0.2515 2.0485 33.7191 -157.4525)">
		<stop  offset="0" style="stop-color:#FFC20E"/>
		<stop  offset="0.05" style="stop-color:#FFC20E"/>
		<stop  offset="0.95" style="stop-color:#F0AF13"/>
		<stop  offset="1" style="stop-color:#F0AF13"/>
	</linearGradient>
	<polygon clip-path="url(#SVGID_24_)" fill="url(#SVGID_25_)" points="37.492,53.518 35.405,53.262 35.52,52.326 37.607,52.582 	"/>
</g>
<g>
	<defs>
		<path id="SVGID_26_" d="M35.49,33.65l0.45,0.297c0.436-0.161,1.086-0.298,1.769-0.298v-0.45
			C36.859,33.199,35.998,33.399,35.49,33.65"/>
	</defs>
	<clipPath id="SVGID_27_">
		<use xlink:href="#SVGID_26_"  overflow="visible"/>
	</clipPath>
	
		<linearGradient id="SVGID_28_" gradientUnits="userSpaceOnUse" x1="-14.272" y1="101.0215" x2="-13.272" y2="101.0215" gradientTransform="matrix(2.1861 -0.5735 -0.5735 -2.1861 124.6788 246.5071)">
		<stop  offset="0" style="stop-color:#A65E0C"/>
		<stop  offset="0.05" style="stop-color:#A65E0C"/>
		<stop  offset="0.95" style="stop-color:#8F4A02"/>
		<stop  offset="1" style="stop-color:#8F4A02"/>
	</linearGradient>
	<polygon clip-path="url(#SVGID_27_)" fill="url(#SVGID_28_)" points="35.307,33.247 37.565,32.654 37.892,33.899 35.633,34.491 	
		"/>
</g>
<g>
	<defs>
		<path id="SVGID_29_" d="M37.708,33.649c3.692,0,4.689,3.451,4.689,9.468h0.45c0-7.017-1.505-9.918-5.14-9.918V33.649z"/>
	</defs>
	<clipPath id="SVGID_30_">
		<use xlink:href="#SVGID_29_"  overflow="visible"/>
	</clipPath>
	
		<linearGradient id="SVGID_31_" gradientUnits="userSpaceOnUse" x1="-14.272" y1="101.0947" x2="-13.272" y2="101.0947" gradientTransform="matrix(-5.0541 -9.9622 -9.9622 5.0541 977.7979 -609.9872)">
		<stop  offset="0" style="stop-color:#BF7312"/>
		<stop  offset="0.05" style="stop-color:#BF7312"/>
		<stop  offset="0.95" style="stop-color:#8F4A02"/>
		<stop  offset="1" style="stop-color:#8F4A02"/>
	</linearGradient>
	<polygon clip-path="url(#SVGID_30_)" fill="url(#SVGID_31_)" points="38.76,45.19 33.707,35.229 41.795,31.125 46.85,41.087 	"/>
</g>
<g>
	<defs>
		<path id="SVGID_32_" d="M50.22,36.319l0.45-0.002c-0.027-5.061,4.282-8.042,8.403-8.162l-0.014-0.45
			C54.506,27.838,50.193,31.17,50.22,36.319"/>
	</defs>
	<clipPath id="SVGID_33_">
		<use xlink:href="#SVGID_32_"  overflow="visible"/>
	</clipPath>
	
		<linearGradient id="SVGID_34_" gradientUnits="userSpaceOnUse" x1="-14.2725" y1="101.0859" x2="-13.2725" y2="101.0859" gradientTransform="matrix(-9.1516 8.2691 8.2691 9.1516 -907.2786 -779.1984)">
		<stop  offset="0" style="stop-color:#FFC20E"/>
		<stop  offset="0.05" style="stop-color:#FFC20E"/>
		<stop  offset="0.95" style="stop-color:#D89016"/>
		<stop  offset="1" style="stop-color:#D89016"/>
	</linearGradient>
	<polygon clip-path="url(#SVGID_33_)" fill="url(#SVGID_34_)" points="63.359,32.447 54.185,40.737 45.908,31.577 55.083,23.287 	
		"/>
</g>
<g>
	<defs>
		<path id="SVGID_35_" d="M56.652,36.055l0.45,0.011c0.016-0.602,0.294-2.555,3.172-2.555l0.062-0.449c-0.019,0-0.036,0-0.055,0
			C58.524,33.062,56.712,33.85,56.652,36.055"/>
	</defs>
	<clipPath id="SVGID_36_">
		<use xlink:href="#SVGID_35_"  overflow="visible"/>
	</clipPath>
	
		<linearGradient id="SVGID_37_" gradientUnits="userSpaceOnUse" x1="-14.272" y1="100.9297" x2="-13.272" y2="100.9297" gradientTransform="matrix(3.5799 -3.112 -3.112 -3.5799 421.8893 353.0232)">
		<stop  offset="0" style="stop-color:#D78817"/>
		<stop  offset="0.05" style="stop-color:#D78817"/>
		<stop  offset="0.95" style="stop-color:#8F4A02"/>
		<stop  offset="1" style="stop-color:#8F4A02"/>
	</linearGradient>
	<polygon clip-path="url(#SVGID_36_)" fill="url(#SVGID_37_)" points="55.165,34.355 58.75,31.238 61.823,34.773 58.237,37.89 	"/>
</g>
<g>
	<defs>
		<path id="SVGID_38_" d="M60.274,33.511c2.589,0,4.802,1.684,6.122,3.232l-0.45-1.107c-1.305-1.34-3.422-2.554-5.61-2.574
			L60.274,33.511z"/>
	</defs>
	<clipPath id="SVGID_39_">
		<use xlink:href="#SVGID_38_"  overflow="visible"/>
	</clipPath>
	
		<linearGradient id="SVGID_40_" gradientUnits="userSpaceOnUse" x1="-14.272" y1="101.0586" x2="-13.272" y2="101.0586" gradientTransform="matrix(-6.2761 -3.2672 -3.2672 6.2761 307.0954 -644.34)">
		<stop  offset="0" style="stop-color:#BF7312"/>
		<stop  offset="0.95" style="stop-color:#8F4A02"/>
		<stop  offset="1" style="stop-color:#8F4A02"/>
	</linearGradient>
	<polygon clip-path="url(#SVGID_39_)" fill="url(#SVGID_40_)" points="65.09,39.25 58.766,35.958 61.58,30.555 67.904,33.847 	"/>
</g>
<g>
	<defs>
		<path id="SVGID_41_" d="M59.06,27.705l0.014,0.45c3.439-0.105,5.771,1.187,6.872,2.034l0.45-0.221
			c-0.944-0.765-3.345-2.269-6.94-2.269C59.326,27.699,59.193,27.701,59.06,27.705"/>
	</defs>
	<clipPath id="SVGID_42_">
		<use xlink:href="#SVGID_41_"  overflow="visible"/>
	</clipPath>
	
		<linearGradient id="SVGID_43_" gradientUnits="userSpaceOnUse" x1="-14.2725" y1="100.9785" x2="-13.2725" y2="100.9785" gradientTransform="matrix(7.3046 2.3593 2.3593 -7.3046 -74.9464 799.0266)">
		<stop  offset="0" style="stop-color:#FFC20E"/>
		<stop  offset="0.05" style="stop-color:#FFC20E"/>
		<stop  offset="0.95" style="stop-color:#E49F15"/>
		<stop  offset="1" style="stop-color:#E49F15"/>
	</linearGradient>
	<polygon clip-path="url(#SVGID_42_)" fill="url(#SVGID_43_)" points="59.753,25.553 67.125,27.934 65.703,32.334 58.332,29.954 	
		"/>
</g>
<g>
	<defs>
		<path id="SVGID_44_" d="M57.827,58.476v0.45c5.677,0,9.367-3.781,9.519-8.813l-0.45-0.016
			C66.776,54.101,64.014,58.476,57.827,58.476"/>
	</defs>
	<clipPath id="SVGID_45_">
		<use xlink:href="#SVGID_44_"  overflow="visible"/>
	</clipPath>
	
		<linearGradient id="SVGID_46_" gradientUnits="userSpaceOnUse" x1="-14.2729" y1="100.915" x2="-13.272" y2="100.915" gradientTransform="matrix(-9.2651 9.0731 9.0731 9.2651 -980.6272 -755.5228)">
		<stop  offset="0" style="stop-color:#D78817"/>
		<stop  offset="0.05" style="stop-color:#D78817"/>
		<stop  offset="0.95" style="stop-color:#8F4A02"/>
		<stop  offset="1" style="stop-color:#8F4A02"/>
	</linearGradient>
	<polygon clip-path="url(#SVGID_45_)" fill="url(#SVGID_46_)" points="71.758,54.604 62.487,63.684 53.414,54.419 62.686,45.339 	
		"/>
</g>
<g>
	<defs>
		<path id="SVGID_47_" d="M50.492,56.787c2.241,1.337,4.646,2.139,7.335,2.139v-0.45c-2.476,0-4.924-0.773-6.885-1.944
			L50.492,56.787z"/>
	</defs>
	<clipPath id="SVGID_48_">
		<use xlink:href="#SVGID_47_"  overflow="visible"/>
	</clipPath>
	
		<linearGradient id="SVGID_49_" gradientUnits="userSpaceOnUse" x1="-14.272" y1="101.0273" x2="-13.272" y2="101.0273" gradientTransform="matrix(7.3411 2.1189 2.1189 -7.3411 -58.7744 828.5645)">
		<stop  offset="0" style="stop-color:#BF7312"/>
		<stop  offset="0.95" style="stop-color:#8F4A02"/>
		<stop  offset="1" style="stop-color:#8F4A02"/>
	</linearGradient>
	<polygon clip-path="url(#SVGID_48_)" fill="url(#SVGID_49_)" points="51.056,54.576 58.465,56.715 57.263,60.88 49.854,58.742 	"/>
</g>
<g>
	<defs>
		<path id="SVGID_50_" d="M50.942,50.765c1.598,1.425,3.989,2.534,5.987,2.548l0.003-0.449c-2.229-0.017-4.806-1.451-6.44-3.103
			L50.942,50.765z"/>
	</defs>
	<clipPath id="SVGID_51_">
		<use xlink:href="#SVGID_50_"  overflow="visible"/>
	</clipPath>
	
		<linearGradient id="SVGID_52_" gradientUnits="userSpaceOnUse" x1="-14.2729" y1="100.957" x2="-13.2725" y2="100.957" gradientTransform="matrix(-6.6044 -3.2069 -3.2069 6.6044 286.5153 -659.3912)">
		<stop  offset="0" style="stop-color:#FFC20E"/>
		<stop  offset="0.05" style="stop-color:#FFC20E"/>
		<stop  offset="1" style="stop-color:#F0AF13"/>
	</linearGradient>
	<polygon clip-path="url(#SVGID_51_)" fill="url(#SVGID_52_)" points="55.704,55.844 49.096,52.635 51.721,47.23 58.328,50.438 	"/>
</g>
<g>
	<defs>
		<path id="SVGID_53_" d="M60.234,49.835c0.049,1.998-1.348,3.042-3.302,3.028l-0.003,0.449c2.297,0.011,3.809-1.305,3.755-3.488
			L60.234,49.835z"/>
	</defs>
	<clipPath id="SVGID_54_">
		<use xlink:href="#SVGID_53_"  overflow="visible"/>
	</clipPath>
	
		<linearGradient id="SVGID_55_" gradientUnits="userSpaceOnUse" x1="-14.2729" y1="101.085" x2="-13.2729" y2="101.085" gradientTransform="matrix(3.7734 -3.4698 -3.4698 -3.7734 461.5334 385.2318)">
		<stop  offset="0" style="stop-color:#FFC20E"/>
		<stop  offset="0.05" style="stop-color:#FFC20E"/>
		<stop  offset="0.95" style="stop-color:#D89016"/>
		<stop  offset="1" style="stop-color:#D89016"/>
	</linearGradient>
	<polygon clip-path="url(#SVGID_54_)" fill="url(#SVGID_55_)" points="55.186,51.427 58.993,47.926 62.481,51.72 58.674,55.221 	"/>
</g>
<g>
	<defs>
		<path id="SVGID_56_" d="M50.22,36.319c0.01,3.509,1.048,6.145,6.324,9.24c2.822,1.659,3.65,2.618,3.689,4.276l0.45-0.011
			c-0.047-1.968-1.158-3.034-3.912-4.652c-5.165-3.031-6.093-5.523-6.102-8.855L50.22,36.319z"/>
	</defs>
	<clipPath id="SVGID_57_">
		<use xlink:href="#SVGID_56_"  overflow="visible"/>
	</clipPath>
	
		<linearGradient id="SVGID_58_" gradientUnits="userSpaceOnUse" x1="-14.2725" y1="101.0361" x2="-13.2715" y2="101.0361" gradientTransform="matrix(9.7366 14.0091 14.0091 -9.7366 -1225.8806 1219.7539)">
		<stop  offset="0" style="stop-color:#D89016"/>
		<stop  offset="0.4" style="stop-color:#BF7312"/>
		<stop  offset="0.6" style="stop-color:#BF7312"/>
		<stop  offset="1" style="stop-color:#D89016"/>
	</linearGradient>
	<polygon clip-path="url(#SVGID_57_)" fill="url(#SVGID_58_)" points="57.276,31.413 67.019,45.432 53.628,54.738 43.885,40.72 	"/>
</g>
<g>
	<defs>
		<path id="SVGID_59_" d="M60.772,40.603c5.231,3.076,6.243,5.84,6.123,9.494l0.45,0.016c0.123-3.734-0.896-6.693-6.346-9.897
			c-2.213-1.342-3.953-2.073-3.897-4.149l-0.45-0.011C56.59,38.333,58.434,39.234,60.772,40.603"/>
	</defs>
	<clipPath id="SVGID_60_">
		<use xlink:href="#SVGID_59_"  overflow="visible"/>
	</clipPath>
	
		<linearGradient id="SVGID_61_" gradientUnits="userSpaceOnUse" x1="-14.272" y1="100.9619" x2="-13.272" y2="100.9619" gradientTransform="matrix(10.4298 14.2506 14.2506 -10.4298 -1233.1074 1292.3448)">
		<stop  offset="0" style="stop-color:#D78817"/>
		<stop  offset="0.4" style="stop-color:#E49F15"/>
		<stop  offset="0.6" style="stop-color:#E49F15"/>
		<stop  offset="1" style="stop-color:#D78817"/>
	</linearGradient>
	<polygon clip-path="url(#SVGID_60_)" fill="url(#SVGID_61_)" points="63.673,30.871 74.167,45.209 60.384,55.296 49.89,40.958 	"/>
</g>
<g>
	<defs>
		<rect id="SVGID_62_" x="-14.272" y="-13.996" width="102" height="115"/>
	</defs>
	<clipPath id="SVGID_63_">
		<use xlink:href="#SVGID_62_"  overflow="visible"/>
	</clipPath>
	<polygon clip-path="url(#SVGID_63_)" fill="#8F4A02" points="35.49,71.201 29.224,71.201 28.773,71.651 35.939,71.651 	"/>
</g>
<g>
	<defs>
		<path id="SVGID_64_" d="M35.94,58.591c0.707,0.151,1.501,0.229,2.368,0.229v-0.45c-1.285,0-2.193-0.172-2.818-0.356L35.94,58.591z
			"/>
	</defs>
	<clipPath id="SVGID_65_">
		<use xlink:href="#SVGID_64_"  overflow="visible"/>
	</clipPath>
	
		<linearGradient id="SVGID_66_" gradientUnits="userSpaceOnUse" x1="-14.272" y1="101.0156" x2="-13.2715" y2="101.0156" gradientTransform="matrix(2.8741 0.4449 0.4449 -2.8741 31.5355 354.8784)">
		<stop  offset="0" style="stop-color:#A65E0C"/>
		<stop  offset="0.05" style="stop-color:#A65E0C"/>
		<stop  offset="0.95" style="stop-color:#8F4A02"/>
		<stop  offset="1" style="stop-color:#8F4A02"/>
	</linearGradient>
	<polygon clip-path="url(#SVGID_65_)" fill="url(#SVGID_66_)" points="35.556,57.587 38.43,58.032 38.242,59.245 35.368,58.8 	"/>
</g>
<g>
	<defs>
		<path id="SVGID_67_" d="M49.25,42.958c0,9.148-3.989,15.411-10.942,15.411v0.45c8.071,0,11.392-7.71,11.392-15.861H49.25z"/>
	</defs>
	<clipPath id="SVGID_68_">
		<use xlink:href="#SVGID_67_"  overflow="visible"/>
	</clipPath>
	
		<linearGradient id="SVGID_69_" gradientUnits="userSpaceOnUse" x1="-14.272" y1="100.9033" x2="-13.272" y2="100.9033" gradientTransform="matrix(-11.368 15.8787 15.8787 11.368 -1714.7738 -877.5121)">
		<stop  offset="0" style="stop-color:#A65E0C"/>
		<stop  offset="0.05" style="stop-color:#A65E0C"/>
		<stop  offset="0.95" style="stop-color:#8F4A02"/>
		<stop  offset="1" style="stop-color:#8F4A02"/>
	</linearGradient>
	<polygon clip-path="url(#SVGID_68_)" fill="url(#SVGID_69_)" points="57.208,48.333 45.839,64.211 30.801,53.444 42.168,37.566 	
		"/>
</g>
<g>
	<defs>
		<path id="SVGID_70_" d="M28.773,30.137l0.45,0.246c2.272-1.466,5.027-2.228,8.443-2.228v-0.45
			C34.195,27.705,31.175,28.5,28.773,30.137"/>
	</defs>
	<clipPath id="SVGID_71_">
		<use xlink:href="#SVGID_70_"  overflow="visible"/>
	</clipPath>
	
		<linearGradient id="SVGID_72_" gradientUnits="userSpaceOnUse" x1="-14.2725" y1="101.0332" x2="-13.2725" y2="101.0332" gradientTransform="matrix(-8.9245 2.308 2.308 8.9245 -322.8441 -840.8393)">
		<stop  offset="0" style="stop-color:#FFC20E"/>
		<stop  offset="0.05" style="stop-color:#FFC20E"/>
		<stop  offset="0.95" style="stop-color:#F0AF13"/>
		<stop  offset="1" style="stop-color:#F0AF13"/>
	</linearGradient>
	<polygon clip-path="url(#SVGID_71_)" fill="url(#SVGID_72_)" points="38.315,30.215 29.331,32.539 28.124,27.873 37.109,25.549 	
		"/>
</g>
<g>
	<defs>
		<path id="SVGID_73_" d="M37.667,28.155c7.476,0,11.584,5.672,11.584,14.803H49.7c0-8.078-3.38-15.253-12.033-15.253V28.155z"/>
	</defs>
	<clipPath id="SVGID_74_">
		<use xlink:href="#SVGID_73_"  overflow="visible"/>
	</clipPath>
	
		<linearGradient id="SVGID_75_" gradientUnits="userSpaceOnUse" x1="-14.271" y1="100.8984" x2="-13.271" y2="100.8984" gradientTransform="matrix(11.9878 15.2886 15.2886 -11.9878 -1333.8105 1455.4263)">
		<stop  offset="0" style="stop-color:#FFC20E"/>
		<stop  offset="0.05" style="stop-color:#FFC20E"/>
		<stop  offset="0.95" style="stop-color:#A65E0C"/>
		<stop  offset="1" style="stop-color:#A65E0C"/>
	</linearGradient>
	<polygon clip-path="url(#SVGID_74_)" fill="url(#SVGID_75_)" points="45.119,21.862 57.106,37.15 42.248,48.801 30.26,33.512 	"/>
</g>
<g>
	<defs>
		<rect id="SVGID_76_" x="-14.272" y="-13.996" width="102" height="115"/>
	</defs>
	<clipPath id="SVGID_77_">
		<use xlink:href="#SVGID_76_"  overflow="visible"/>
	</clipPath>
	<path clip-path="url(#SVGID_77_)" fill="#FFC20E" d="M13.494,28.789H7.232l-0.45-0.45h7.161L13.494,28.789z M26.01,28.789h-6.252
		l-0.45-0.45h7.152L26.01,28.789z"/>
	<path clip-path="url(#SVGID_77_)" fill="#D78817" d="M4.037,50.999V26.757l0.45,0.198v24.043H4.037z M66.396,36.743v-6.776
		l-0.449,0.222v5.446L66.396,36.743z M13.943,48.755V28.339l-0.45,0.45v19.965H13.943z"/>
	<path clip-path="url(#SVGID_77_)" fill="#D89016" d="M68.97,50.999V9.92l0.449-0.411v41.49H68.97z M50.492,49.761v7.025l0.45-0.255
		v-5.767L50.492,49.761z M19.757,52.396V28.79l-0.45-0.451v23.81L19.757,52.396z M7.233,48.477V28.79l-0.45-0.451v20.138H7.233z"/>
</g>
<g>
	<defs>
		<path id="SVGID_78_" d="M6.783,48.476c0,6.63,3.108,10.45,9.79,10.45v-0.45c-6.198,0-9.34-3.362-9.34-10H6.783z"/>
	</defs>
	<clipPath id="SVGID_79_">
		<use xlink:href="#SVGID_78_"  overflow="visible"/>
	</clipPath>
	
		<linearGradient id="SVGID_80_" gradientUnits="userSpaceOnUse" x1="-14.2725" y1="101.1152" x2="-13.272" y2="101.1152" gradientTransform="matrix(9.7472 10.4893 10.4893 -9.7472 -914.71 1183.7532)">
		<stop  offset="0" style="stop-color:#D89016"/>
		<stop  offset="0.05" style="stop-color:#D89016"/>
		<stop  offset="0.95" style="stop-color:#8F4A02"/>
		<stop  offset="1" style="stop-color:#8F4A02"/>
	</linearGradient>
	<polygon clip-path="url(#SVGID_79_)" fill="url(#SVGID_80_)" points="12.037,43.594 21.784,54.084 11.319,63.808 1.572,53.318 	"/>
</g>
<g>
	<defs>
		<path id="SVGID_81_" d="M16.573,58.476v0.45c3.999,0,7.232-0.924,9.886-2.727l-0.45-0.238
			C23.617,57.586,20.406,58.476,16.573,58.476"/>
	</defs>
	<clipPath id="SVGID_82_">
		<use xlink:href="#SVGID_81_"  overflow="visible"/>
	</clipPath>
	
		<linearGradient id="SVGID_83_" gradientUnits="userSpaceOnUse" x1="-14.272" y1="100.9766" x2="-13.272" y2="100.9766" gradientTransform="matrix(-9.9281 2.5676 2.5676 9.9281 -374.4999 -909.6817)">
		<stop  offset="0" style="stop-color:#A65E0C"/>
		<stop  offset="0.05" style="stop-color:#A65E0C"/>
		<stop  offset="0.95" style="stop-color:#8F4A02"/>
		<stop  offset="1" style="stop-color:#8F4A02"/>
	</linearGradient>
	<polygon clip-path="url(#SVGID_82_)" fill="url(#SVGID_83_)" points="27.178,58.74 17.193,61.322 15.854,56.146 25.839,53.564 	"/>
</g>
<g>
	<defs>
		<path id="SVGID_84_" d="M16.794,52.712v0.45c1.272,0,2.282-0.297,2.963-0.766l-0.45-0.249
			C18.671,52.513,17.79,52.712,16.794,52.712"/>
	</defs>
	<clipPath id="SVGID_85_">
		<use xlink:href="#SVGID_84_"  overflow="visible"/>
	</clipPath>
	
		<linearGradient id="SVGID_86_" gradientUnits="userSpaceOnUse" x1="-14.2729" y1="101.0117" x2="-13.2729" y2="101.0117" gradientTransform="matrix(2.9715 -0.7299 -0.7299 -2.9715 132.8971 342.7679)">
		<stop  offset="0" style="stop-color:#FFC20E"/>
		<stop  offset="0.05" style="stop-color:#FFC20E"/>
		<stop  offset="0.95" style="stop-color:#F0AF13"/>
		<stop  offset="1" style="stop-color:#F0AF13"/>
	</linearGradient>
	<polygon clip-path="url(#SVGID_85_)" fill="url(#SVGID_86_)" points="16.559,52.206 19.588,51.462 19.992,53.104 16.962,53.849 	
		"/>
</g>
<g>
	<defs>
		<path id="SVGID_87_" d="M13.493,48.755c0,1.777,0.429,4.407,3.301,4.407v-0.45c-2.208,0-2.851-1.779-2.851-3.957H13.493z"/>
	</defs>
	<clipPath id="SVGID_88_">
		<use xlink:href="#SVGID_87_"  overflow="visible"/>
	</clipPath>
	
		<linearGradient id="SVGID_89_" gradientUnits="userSpaceOnUse" x1="-14.272" y1="100.916" x2="-13.272" y2="100.916" gradientTransform="matrix(-3.2518 -4.443 -4.443 3.2518 418.735 -338.394)">
		<stop  offset="0" style="stop-color:#FFC20E"/>
		<stop  offset="0.05" style="stop-color:#FFC20E"/>
		<stop  offset="0.95" style="stop-color:#D78817"/>
		<stop  offset="1" style="stop-color:#D78817"/>
	</linearGradient>
	<polygon clip-path="url(#SVGID_88_)" fill="url(#SVGID_89_)" points="14.645,54.735 11.393,50.292 15.643,47.182 18.895,51.625 	
		"/>
</g>
<g>
	<defs>
		<rect id="SVGID_90_" x="-14.272" y="-13.996" width="102" height="115"/>
	</defs>
	<clipPath id="SVGID_91_">
		<use xlink:href="#SVGID_90_"  overflow="visible"/>
	</clipPath>
	<polygon clip-path="url(#SVGID_91_)" fill="#D78817" points="28.773,30.137 28.773,71.651 29.224,71.201 29.224,30.382 	"/>
	<path clip-path="url(#SVGID_91_)" fill="#BF7312" d="M35.939,52.572V33.946l-0.45-0.297v19.244L35.939,52.572z M35.939,58.591
		v13.061l-0.45-0.45V58.013L35.939,58.591z"/>
	<polygon clip-path="url(#SVGID_91_)" fill="#BF7312" points="26.459,56.199 26.459,28.339 26.01,28.789 26.01,55.961 	"/>
</g>
</svg>
