<?xml version="1.0" standalone="no"?>
<!DOCTYPE svg PUBLIC "-//W3C//DTD SVG 1.1//EN" "http://www.w3.org/Graphics/SVG/1.1/DTD/svg11.dtd" >
<svg xmlns="http://www.w3.org/2000/svg">
<metadata>
Created by FontPrep 20130207 at Mon May 18 12:43:13 2015
 By Nathan Crenshaw
Copyright (c) United Parcel Services, Inc, 2002. All rights reserved.
</metadata>
<defs>
<font id="ad8664319fd29f88d5e0dd8cc01aef7b" horiz-adv-x='1024' >
  <font-face 
    font-family="UPSSans-BoldCondItalic"
    font-weight="700"
    font-style="italic"
    font-stretch="normal"
    units-per-em="2048"
    panose-1="2 11 8 6 2 0 0 2 0 4"
    ascent="1638"
    descent="-410"
    x-height="1047"
    cap-height="1479"
    bbox="-354 -858.597 2171.29 2087"
    underline-thickness="102"
    underline-position="-153"
    slope="-12"
    unicode-range="U+0009-FB02"
  />
<missing-glyph horiz-adv-x="512" 
 />
    <glyph glyph-name=".notdef" horiz-adv-x="512" 
 />
    <glyph glyph-name=".notdef" horiz-adv-x="512" 
 />
    <glyph glyph-name=".null" horiz-adv-x="0" 
 />
    <glyph glyph-name="nonmarkingreturn" horiz-adv-x="681" 
 />
    <glyph glyph-name="HT" unicode="&#x9;" horiz-adv-x="512" 
 />
    <glyph glyph-name="LF" unicode="&#xa;" horiz-adv-x="512" 
 />
    <glyph glyph-name="CR" unicode="&#xd;" horiz-adv-x="512" 
 />
    <glyph glyph-name="space" unicode=" " horiz-adv-x="512" 
 />
    <glyph glyph-name="exclam" unicode="!" horiz-adv-x="636" 
d="M159 -20q-69 0 -105 52t-19 128q15 76 73 128t126 52t106 -52q36 -52 20 -128t-74 -128t-127 -52zM645 1479l-266 -975h-215l143 975h338z" />
    <glyph glyph-name="quotedbl" unicode="&#x22;" horiz-adv-x="833" 
d="M404 1523q79 0 112 -63l-174 -573h-145l73 573q55 63 134 63zM764 1523q80 0 110 -63l-174 -573h-147l74 573q57 63 137 63z" />
    <glyph glyph-name="numbersign" unicode="#" horiz-adv-x="1099" 
d="M707 922h-183l-121 -328h181zM1083 1075l-32 -153h-185l-121 -328h160l-33 -154h-184l-162 -440h-159l161 440h-180l-164 -440h-159l161 438h-159l34 156h183l118 326h-157l35 155h182l145 404h160l-145 -404h182l145 404h162l-149 -404h161z" />
    <glyph glyph-name="dollar" unicode="$" horiz-adv-x="1099" 
d="M356 256q78 0 136 49q57 49 72 126t-15 125q-31 48 -119 95q-225 121 -170 379q35 158 142 273q108 115 253 145l41 186h156l-39 -180q127 -11 203 -74l-45 -219l-23 17q-64 45 -107 60t-104 15t-116 -47t-71 -123t16 -124q34 -48 116 -95q125 -74 169 -171t12 -247
q-31 -150 -141 -264q-110 -115 -251 -147l-49 -225h-162l45 213q-168 8 -254 75l55 262q133 -104 250 -104z" />
    <glyph glyph-name="percent" unicode="%" horiz-adv-x="1658" 
d="M386 682q58 0 102 102t90 367q33 213 -48 213q-59 0 -98 -92t-72 -253q-32 -161 -32 -249t58 -88zM1282 815q-100 0 -172 -342q-33 -133 -33 -236q1 -103 59 -103t96 88q38 89 73 251q77 342 -23 342zM351 528q-83 0 -132 44q-113 101 -45 440q106 487 385 487
q109 0 159 -78t44 -186q-6 -107 -26 -209q-19 -102 -48 -181t-74 -154q-44 -75 -112 -119t-151 -44zM1346 1450l-910 -1499l-112 59l909 1497zM899 297q8 165 72 336q118 317 340 317q106 0 157 -78t45 -186q-13 -226 -73 -389q-118 -317 -338 -317q-219 0 -203 317z" />
    <glyph glyph-name="ampersand" unicode="&#x26;" horiz-adv-x="1269" 
d="M678 727q-125 0 -221 -85t-125 -214q-51 -242 176 -242q94 0 135 19l111 522h-76zM475 -20q-266 0 -383 110t-72 316q32 156 136 254t241 149l2 6q-190 94 -143 318q35 166 166 266t309 100t277 -61l-50 -230q-100 70 -194 70t-152 -47t-77 -131t27 -130t132 -46h551
l-43 -197h-164l-139 -661q-158 -86 -424 -86z" />
    <glyph glyph-name="quotesingle" unicode="'" horiz-adv-x="477" 
d="M407 1523q82 0 111 -63l-174 -573h-145l71 573q55 63 137 63z" />
    <glyph glyph-name="parenleft" unicode="(" horiz-adv-x="751" 
d="M877 1552q-393 -462 -500 -968t88 -967l-150 -84q-184 281 -240 535t2 521t220 516t465 531z" />
    <glyph glyph-name="parenright" unicode=")" horiz-adv-x="751" 
d="M377 1636q184 -282 240 -534t-2 -519t-220 -517t-465 -533l-118 84q395 457 502 968t-91 967z" />
    <glyph glyph-name="asterisk" unicode="*" horiz-adv-x="768" 
d="M819 1200l-235 -80l94 -200l-143 -101l-91 211l-174 -211l-104 101l180 200l-196 80l81 158l191 -90l53 256h148l-54 -256l234 90z" />
    <glyph glyph-name="plus" unicode="+" horiz-adv-x="1058" 
d="M903 723l-43 -205h-282l-70 -323h-184l69 323h-284l43 205h284l68 321h184l-67 -321h282z" />
    <glyph glyph-name="comma" unicode="," horiz-adv-x="577" 
d="M268 338q55 0 80 -26t21 -68l-420 -590h-168l297 590q76 94 190 94z" />
    <glyph glyph-name="hyphen" unicode="-" horiz-adv-x="673" 
d="M571 707l-49 -236h-481l49 236h481z" />
    <glyph glyph-name="hyphen" unicode="&#xad;" horiz-adv-x="673" 
d="M571 707l-49 -236h-481l49 236h481z" />
    <glyph glyph-name="period" unicode="." horiz-adv-x="559" 
d="M118 -20q-67 0 -103 53t-19 127q16 74 74 127t124 53q67 0 103 -53t21 -127t-74 -127t-126 -53z" />
    <glyph glyph-name="slash" unicode="/" horiz-adv-x="1093" 
d="M1241 1540l-1298 -2013l-154 94l1296 2013z" />
    <glyph glyph-name="zero" unicode="0" horiz-adv-x="1099" 
d="M668 1294q-182 0 -297 -555q-94 -459 0 -534q25 -20 61 -21q104 0 175 150t111 338t51 277q28 226 -18 301q-28 44 -83 44zM713 1499q129 0 209 -71q134 -119 119 -429q-8 -256 -110 -519q-195 -503 -542 -500q-347 0 -327 499q10 256 110 519q117 310 303 430
q109 71 238 71z" />
    <glyph glyph-name="one" unicode="1" horiz-adv-x="1099" 
d="M938 1479l-313 -1479h-287l256 1208l-311 -151l45 211l411 211h199z" />
    <glyph glyph-name="two" unicode="2" horiz-adv-x="1099" 
d="M510 1266q-125 0 -234 -66l52 242q134 57 284 57t234 -40t116 -100q74 -139 35 -269q-41 -193 -278 -451l-344 -375h461l-56 -264h-780l39 180l463 533q180 207 202 315t-23 173q-46 65 -171 65z" />
    <glyph glyph-name="three" unicode="3" horiz-adv-x="1099" 
d="M310 -20q-208 0 -312 45l53 254q104 -61 262 -62q106 0 192 66q85 66 103 153q18 86 -2 134q-48 115 -303 108l43 196q319 23 361 220q18 82 -28 130q-45 48 -157 48t-239 -58l49 234q134 51 320 51t281 -101t60 -265q-25 -117 -105 -194t-171 -116v-4q242 -98 184 -368
q-45 -207 -214 -339t-377 -132z" />
    <glyph glyph-name="four" unicode="4" horiz-adv-x="1099" 
d="M719 1188q-68 -113 -154 -230l-334 -454h336l101 467zM1053 1479l-207 -975h100l-41 -195h-100l-66 -309h-278l65 309h-530l41 195l717 975h299z" />
    <glyph glyph-name="five" unicode="5" horiz-adv-x="1099" 
d="M506 911q238 1 338 -121t56 -325t-215 -344t-382 -141t-305 59l53 254q113 -76 268 -76q100 0 186 72q85 73 107 183t-48 172q-71 62 -197 63h-213l235 772h668l-56 -265h-460l-92 -303h57z" />
    <glyph glyph-name="six" unicode="6" horiz-adv-x="1099" 
d="M498 719q-57 0 -121 -25q-27 -66 -49 -172q-72 -346 114 -346q90 0 149 80q58 80 83 199q57 264 -176 264zM397 -20q-119 0 -199 46t-113 124q-73 177 -17 395q47 223 164 409q118 186 260 297q283 222 507 248l-49 -227q-317 -96 -483 -379q57 23 137 22q178 0 282 -116
q103 -117 57 -339t-193 -350q-147 -130 -353 -130z" />
    <glyph glyph-name="seven" unicode="7" horiz-adv-x="1099" 
d="M1116 1479l-37 -181l-170 -280q-375 -618 -551 -1018h-313l737 1214h-561l55 265h840z" />
    <glyph glyph-name="eight" unicode="8" horiz-adv-x="1099" 
d="M285 383q-15 -82 25 -141q40 -60 119 -60t143 58t80 140q17 83 -6 141q-24 58 -120 132q-127 -72 -176 -130t-65 -140zM678 1315q-74 0 -130 -53q-56 -54 -72 -130t6 -124q24 -48 108 -121q111 69 156 119t61 125t-20 129q-35 54 -109 55zM712 1499q178 1 274 -105
t61 -270q-23 -106 -94 -186t-205 -160q118 -94 160 -187t18 -214q-37 -176 -187 -287q-149 -110 -347 -110t-303 106t-66 289q27 125 108 213q82 88 238 178q-98 82 -136 165q-37 83 -14 191q35 164 175 270t318 107z" />
    <glyph glyph-name="nine" unicode="9" horiz-adv-x="1099" 
d="M772 956q37 134 11 240t-121 106q-174 1 -236 -278q-29 -129 17 -197t161 -67q55 0 119 24q26 66 49 172zM496 563q-178 0 -282 117q-103 117 -57 338t194 351t354 130q119 0 199 -46t113 -124q73 -177 17 -395q-39 -182 -125 -340t-189 -263t-220 -185
q-219 -149 -398 -166l48 227q317 96 485 379q-61 -23 -139 -23z" />
    <glyph glyph-name="colon" unicode=":" horiz-adv-x="559" 
d="M118 -20q-67 0 -103 53t-19 127q16 74 74 127t124 53q67 0 103 -53t21 -127t-74 -127t-126 -53zM333 989q67 0 103 -53t22 -127q-16 -74 -76 -127t-127 -53t-103 53t-19 127t75 127t125 53z" />
    <glyph glyph-name="semicolon" unicode=";" horiz-adv-x="577" 
d="M266 340q57 0 82 -26t21 -70l-420 -590h-168l297 590q78 96 188 96zM286 629q-67 0 -104 53t-20 127q14 74 74 127t128 53q66 0 102 -53t21 -127q-16 -74 -75 -127t-126 -53z" />
    <glyph glyph-name="semicolon" unicode="&#x37e;" horiz-adv-x="577" 
d="M266 340q57 0 82 -26t21 -70l-420 -590h-168l297 590q78 96 188 96zM286 629q-67 0 -104 53t-20 127q14 74 74 127t128 53q66 0 102 -53t21 -127q-16 -74 -75 -127t-126 -53z" />
    <glyph glyph-name="less" unicode="&#x3c;" horiz-adv-x="1058" 
d="M977 1067l-47 -223l-570 -219l476 -222l-48 -221l-677 348l41 189z" />
    <glyph glyph-name="equal" unicode="=" horiz-adv-x="1058" 
d="M858 510l-43 -205h-752l43 205h752zM948 936l-43 -205h-751l43 205h751z" />
    <glyph glyph-name="greater" unicode="&#x3e;" horiz-adv-x="1058" 
d="M903 719l-41 -189l-825 -348l47 221l569 222l-475 219l47 223z" />
    <glyph glyph-name="question" unicode="?" horiz-adv-x="847" 
d="M231 -20q-65 0 -103 53t-22 127q14 74 74 127t127 53t103 -53t21 -127t-75 -127t-125 -53zM426 1284q-88 0 -233 -65l47 221q139 59 312 59t265 -92q92 -93 60 -237t-135 -235t-210 -128l-86 -303h-210l53 395q242 51 280 223q14 68 -20 115q-35 47 -123 47z" />
    <glyph glyph-name="at" unicode="@" horiz-adv-x="1619" 
d="M864 958q-70 0 -144 -76t-118 -170q-102 -211 -53 -309q27 -51 86 -51q109 0 205 142t120 250t-1 161t-95 53zM553 199q-123 0 -166 98q-43 97 -14 231q65 302 287 485q116 95 238 95t167 -125l37 88h160l-166 -407q-68 -168 -79 -218t-8 -70q3 -22 27 -22q70 0 151 96
t137 223q170 382 33 569q-91 124 -280 124q-293 0 -546 -252t-322 -579q-59 -276 63 -433q123 -156 371 -155q199 0 353 75t313 222l55 -115q-170 -160 -348 -241t-406 -81q-317 0 -470 194t-81 538q55 256 215 476t386 352t467 132t361 -160t64 -428q-32 -151 -114 -311
t-212 -282t-265 -121q-66 1 -95 35t-28 108q-133 -141 -285 -141z" />
    <glyph glyph-name="A" unicode="A" horiz-adv-x="1185" 
d="M694 565l-22 455l4 170h-4q-23 -72 -68 -170l-211 -455h301zM1018 0h-295l-18 367h-406l-174 -367h-268l745 1479h297z" />
    <glyph glyph-name="B" unicode="B" horiz-adv-x="1144" 
d="M479 684h-78l-106 -498h135q232 0 283 236q29 134 -23 198t-211 64zM526 858q135 0 206 53q70 53 95 170q49 223 -163 224h-132l-94 -447h88zM391 0h-418l314 1479h418q215 1 327 -105t76 -268q-29 -131 -118 -216t-189 -112l-2 -4q98 -29 164 -127q65 -98 37 -225
t-89 -209q-106 -143 -325 -193q-92 -20 -195 -20z" />
    <glyph glyph-name="C" unicode="C" horiz-adv-x="1052" 
d="M626 231q126 0 220 64l-55 -252q-133 -63 -291 -63t-255 61t-137 165q-89 230 -16 533q74 346 272 553t453 207q166 0 270 -63l-49 -236q-20 29 -80 47t-122 19q-178 0 -287 -129t-164 -389q-23 -131 -19 -246t70 -193q64 -78 190 -78z" />
    <glyph glyph-name="D" unicode="D" horiz-adv-x="1202" 
d="M410 211q154 1 254 121t161 407q113 528 -190 529h-107l-225 -1057h107zM354 0h-381l314 1479h364q311 0 423 -204t38 -544q-74 -339 -262 -535t-496 -196z" />
    <glyph glyph-name="E" unicode="E" horiz-adv-x="905" 
d="M979 1479l-49 -236h-408l-80 -375h361l-49 -229h-361l-86 -403h408l-49 -236h-693l314 1479h692z" />
    <glyph glyph-name="F" unicode="F" horiz-adv-x="897" 
d="M979 1479l-49 -236h-408l-80 -375h361l-49 -229h-361l-135 -639h-285l314 1479h692z" />
    <glyph glyph-name="G" unicode="G" horiz-adv-x="1130" 
d="M535 213q43 0 106 18l129 609h264l-164 -777q-145 -84 -368 -83q-283 0 -384 200q-100 200 -26 558q74 356 274 558t465 203q166 0 283 -61l-51 -246q-78 47 -133 60t-113 14q-324 0 -434 -525q-51 -266 -9 -397t161 -131z" />
    <glyph glyph-name="H" unicode="H" horiz-adv-x="1210" 
d="M1239 1479l-313 -1479h-287l137 641h-381l-137 -641h-285l314 1479h284l-129 -613h381l129 613h287z" />
    <glyph glyph-name="I" unicode="I" horiz-adv-x="550" 
d="M575 1479l-313 -1479h-285l314 1479h284z" />
    <glyph glyph-name="J" unicode="J" horiz-adv-x="550" 
d="M575 1479l-294 -1391q-53 -254 -210 -387t-380 -145l49 229q86 16 157 90t95 193l299 1411h284z" />
    <glyph glyph-name="K" unicode="K" horiz-adv-x="1114" 
d="M1221 1479l-523 -682l234 -797h-336l-178 733h-4l-156 -733h-285l314 1479h284l-141 -670h4l479 670h308z" />
    <glyph glyph-name="L" unicode="L" horiz-adv-x="835" 
d="M662 233l-50 -233h-639l314 1479h284l-264 -1246h355z" />
    <glyph glyph-name="M" unicode="M" horiz-adv-x="1624" 
d="M1655 1479l-314 -1479h-268l221 1040l-532 -1040h-209l-90 1040l-221 -1040h-269l314 1479h358l88 -1112l561 1112h361z" />
    <glyph glyph-name="N" unicode="N" horiz-adv-x="1273" 
d="M1303 1479l-314 -1479h-239l-269 829l-37 158h-4q-10 -82 -26 -164l-174 -823h-267l314 1479h276l248 -760l39 -141h2q8 70 25 147l159 754h267z" />
    <glyph glyph-name="O" unicode="O" horiz-adv-x="1222" 
d="M727 1282q-227 0 -341 -529t116 -530q231 1 344 530t-119 529zM774 1499q135 0 225 -60q90 -59 127 -163q82 -229 9 -537q-74 -340 -247 -550t-437 -209q-135 0 -226 59q-90 59 -127 163q-82 229 -6 537q72 336 245 548t437 212z" />
    <glyph glyph-name="P" unicode="P" horiz-adv-x="1101" 
d="M530 772q98 0 173 60t103 196q28 135 -16 203t-147 67h-108l-113 -526h108zM524 588h-141l-125 -588h-285l314 1479h426q229 0 325 -118t51 -325q-45 -208 -191 -328t-374 -120z" />
    <glyph glyph-name="Q" unicode="Q" horiz-adv-x="1222" 
d="M727 1282q-227 0 -341 -529t116 -530q231 1 344 530t-119 529zM774 1499q135 0 225 -60q90 -61 127 -163q82 -227 9 -537q-55 -260 -172 -449t-291 -265q51 -33 219 -33l-45 -211q-406 12 -510 211q-129 28 -200 136t-76 264t32 347q72 338 245 549t437 211z" />
    <glyph glyph-name="R" unicode="R" horiz-adv-x="1132" 
d="M551 829q105 1 169 53t93 185t-14 185t-148 53h-119l-100 -476h119zM748 1479q205 0 294 -113t50 -297q-29 -135 -118 -231t-218 -138l174 -700h-309l-152 645h-76l-137 -645h-283l314 1479h461z" />
    <glyph glyph-name="S" unicode="S" horiz-adv-x="1001" 
d="M696 1274q-186 0 -223 -174q-13 -56 9 -100t55 -66t94 -55q164 -85 207 -189t12 -244q-43 -206 -193 -336t-362 -130q-121 0 -191 18t-135 59l60 277q135 -111 276 -111q102 0 166 53q63 52 79 130t-30 128q-47 50 -155 103q-254 127 -195 407q39 188 183 322t347 133
q62 0 88 -4q27 -4 53 -7t58 -20q32 -16 51 -23t27 -15l-51 -242q-106 86 -230 86z" />
    <glyph glyph-name="T" unicode="T" horiz-adv-x="944" 
d="M1036 1479l-49 -236h-262l-264 -1243h-287l264 1243h-264l49 236h813z" />
    <glyph glyph-name="U" unicode="U" horiz-adv-x="1175" 
d="M1204 1479l-221 -1041q-43 -209 -198 -334q-155 -124 -357 -124t-303 124q-102 124 -59 334l221 1041h284l-221 -1047q-20 -100 20 -154t120 -54t140 54q62 54 85 158l221 1043h268z" />
    <glyph glyph-name="V" unicode="V" horiz-adv-x="1105" 
d="M1241 1479l-715 -1479h-260l-86 1479h301l15 -924l-7 -172h3q33 96 65 172l404 924h280z" />
    <glyph glyph-name="W" unicode="W" horiz-adv-x="1587" 
d="M1704 1479l-612 -1479h-265l11 807l8 149h-6q-18 -72 -52 -149l-335 -807h-265l13 1479h297l-52 -893l-16 -160h4q27 80 60 160l364 893h213l-16 -893l-13 -160h2q27 82 56 160l332 893h272z" />
    <glyph glyph-name="X" unicode="X" horiz-adv-x="1069" 
d="M1180 1479l-484 -701l201 -778h-326l-96 494h-4l-317 -494h-299l520 754l-174 725h313l86 -457h4l297 457h279z" />
    <glyph glyph-name="Y" unicode="Y" horiz-adv-x="1032" 
d="M1174 1479l-543 -875l-129 -604h-287l129 604l-174 875h305l88 -578h4l330 578h277z" />
    <glyph glyph-name="Z" unicode="Z" horiz-adv-x="919" 
d="M999 1479l-690 -1243h432l-49 -236h-811l688 1243h-381l50 236h761z" />
    <glyph glyph-name="bracketleft" unicode="[" horiz-adv-x="694" 
d="M803 1608l-39 -181h-236l-358 -1685h236l-39 -182h-490l436 2048h490z" />
    <glyph glyph-name="backslash" unicode="\" horiz-adv-x="1095" 
d="M836 -379l-197 -96l-442 2013l196 96z" />
    <glyph glyph-name="bracketright" unicode="]" horiz-adv-x="694" 
d="M754 1608l-437 -2048h-489l39 182h235l359 1685h-236l39 181h490z" />
    <glyph glyph-name="asciicircum" unicode="^" horiz-adv-x="1148" 
d="M1077 1137l-141 -123l-221 372l-383 -372l-88 123l387 432q61 67 137 67t106 -67z" />
    <glyph glyph-name="underscore" unicode="_" horiz-adv-x="1058" 
d="M858 -258l-41 -195h-1079l41 195h1079z" />
    <glyph glyph-name="grave" unicode="`" 
d="M506 1159h-156l-176 287q29 51 123 52t147 -44z" />
    <glyph glyph-name="a" unicode="a" horiz-adv-x="970" 
d="M557 539q-141 -15 -219 -61t-100 -154q-39 -176 135 -177q57 0 106 23zM452 879q-91 0 -249 -64l41 199q176 55 309 55q369 0 289 -383l-133 -627q-150 -79 -369 -79t-306 84t-52 247q27 129 121 212q95 83 210 117t277 50l10 49q16 78 -20 109q-37 31 -128 31z" />
    <glyph glyph-name="b" unicode="b" horiz-adv-x="1026" 
d="M629 532q39 154 16 253t-123 100q-57 0 -102 -21l-148 -686q27 -16 82 -16q195 -1 275 370zM296 -20q-234 0 -321 77l301 1422h273l-96 -459q82 39 184 39q168 0 242 -138q73 -139 24 -368q-57 -277 -215 -425t-392 -148z" />
    <glyph glyph-name="c" unicode="c" horiz-adv-x="864" 
d="M624 864q-96 0 -186 -91t-123 -245t21 -244t154 -91q98 0 157 40l-45 -210q-80 -43 -221 -43q-209 0 -303 145t-40 401t214 400t360 143q115 0 205 -41l-43 -197q-54 33 -150 33z" />
    <glyph glyph-name="d" unicode="d" horiz-adv-x="1026" 
d="M434 172q57 0 86 14l148 688q-31 12 -74 13q-209 0 -283 -359q-78 -356 123 -356zM1067 1479l-301 -1422q-146 -77 -370 -77t-320 139t-42 392t202 399t333 147q78 0 133 -19l93 441h272z" />
    <glyph glyph-name="e" unicode="e" horiz-adv-x="1001" 
d="M544 891q-76 1 -130 -63q-53 -64 -95 -222h320q29 137 5 211t-100 74zM474 186q128 0 298 72l-47 -215q-166 -63 -328 -63q-225 0 -319 147t-41 397t208 398t355 147q200 0 264 -176q66 -176 -6 -438h-565q-23 -111 15 -190t166 -79z" />
    <glyph glyph-name="f" unicode="f" horiz-adv-x="638" 
d="M756 1522l-41 -191q-145 6 -178 -151l-27 -133h145l-43 -197h-145l-180 -850h-271l181 850h-105l43 197h105l22 106q42 197 174 295t320 74z" />
    <glyph glyph-name="g" unicode="g" horiz-adv-x="1028" 
d="M453 514q82 0 133 51t69 135q39 186 -125 187q-162 -1 -200 -187t123 -186zM352 201h144q166 0 238 -89t42 -238q-31 -149 -169 -247t-345 -98t-308 73t-73 199q8 39 41 111h242q-29 -33 -40 -90t42 -86t142 -29t150 44q60 43 73 109t-16 88q-30 22 -112 21h-129
q-112 0 -184 50t-48 163t140 209q-137 98 -92 309q35 168 157 268t322 101q76 0 158 -22h313l-34 -160h-115q23 -90 4 -187q-33 -160 -154 -264t-327 -104l-84 2q-45 -33 -52 -67q-6 -34 16 -50t58 -16z" />
    <glyph glyph-name="h" unicode="h" horiz-adv-x="1036" 
d="M539 872q-70 0 -123 -26l-180 -846h-273l313 1479h273l-98 -469q109 49 213 49q168 1 228 -91t28 -235l-156 -733h-270l153 727q29 145 -108 145z" />
    <glyph glyph-name="i" unicode="i" 
d="M465 1047l-223 -1047h-275l223 1047h275zM356 1186q-62 0 -95 48q-34 48 -19 116q14 68 68 116t116 50q62 0 95 -49q34 -49 20 -117q-15 -68 -69 -116t-116 -48z" />
    <glyph glyph-name="j" unicode="j" 
d="M465 1047l-201 -936q-53 -249 -205 -397t-344 -158l43 204q88 29 142 98q53 69 86 218l207 971h272zM358 1186q-62 0 -95 48q-34 48 -19 116q14 68 68 116t116 50q62 0 94 -49q33 -49 19 -117q-13 -68 -67 -116t-116 -48z" />
    <glyph glyph-name="k" unicode="k" horiz-adv-x="1001" 
d="M1006 1047l-396 -469l211 -578h-309l-158 528h-2l-112 -528h-273l314 1479h272l-188 -895h2l364 463h275z" />
    <glyph glyph-name="l" unicode="l" 
d="M555 1479l-313 -1479h-275l314 1479h274z" />
    <glyph glyph-name="m" unicode="m" horiz-adv-x="1566" 
d="M1066 879q-74 0 -124 -52l-176 -827h-272l157 741q12 63 -18 101q-31 37 -95 37t-120 -19l-182 -860h-273l211 991q174 78 385 78t289 -104q131 104 334 104q162 -1 232 -95t38 -237l-158 -737h-272l158 737q12 61 -14 101t-100 41z" />
    <glyph glyph-name="n" unicode="n" horiz-adv-x="1036" 
d="M574 1069q224 0 301 -90q78 -90 45 -244l-156 -735h-272l155 733q31 145 -110 146q-63 0 -119 -21l-182 -858h-273l211 989q176 80 400 80z" />
    <glyph glyph-name="o" unicode="o" horiz-adv-x="997" 
d="M528 870q-146 0 -222 -346q-74 -346 72 -346t222 346q74 346 -72 346zM845 918q76 -152 24 -394t-192 -394t-339 -150q-199 0 -276 152q-76 152 -24 392q52 242 192 394t339 152t276 -152z" />
    <glyph glyph-name="p" unicode="p" horiz-adv-x="1026" 
d="M344 170q209 0 285 360q81 361 -121 361q-49 0 -88 -17l-148 -694q41 -10 72 -10zM369 -10q-86 0 -133 18l-97 -448h-270l305 1431q152 78 371 78t314 -138t41 -392q-54 -253 -200 -401t-331 -148z" />
    <glyph glyph-name="q" unicode="q" horiz-adv-x="1026" 
d="M586 895q-199 0 -277 -375q-76 -348 113 -348q59 0 100 21l146 684q-29 18 -82 18zM309 -12q-170 0 -249 138q-78 138 -26 383t205 403t387 157q234 0 339 -78l-306 -1431h-272l100 467q-82 -39 -178 -39z" />
    <glyph glyph-name="r" unicode="r" horiz-adv-x="665" 
d="M563 1071q68 0 129 -12l-88 -197q-102 25 -186 -8l-182 -854h-273l209 987q199 84 391 84z" />
    <glyph glyph-name="s" unicode="s" horiz-adv-x="774" 
d="M489 872q-51 0 -86 -30t-45 -78q-18 -90 94 -148t144 -131q32 -72 12 -172q-32 -141 -150 -237t-280 -96q-102 0 -231 53l51 235q72 -80 188 -80q51 0 89 32q37 32 49 84t-8 85t-78 62q-111 53 -141 126t-11 166q31 137 138 232q108 94 247 94t229 -59l-47 -222
q-80 84 -164 84z" />
    <glyph glyph-name="t" unicode="t" horiz-adv-x="659" 
d="M410 182q27 0 63 11l-39 -185q-53 -29 -141 -28q-139 0 -193 86q-53 86 -24 215l121 569h-105l43 197h105l47 223l280 80l-63 -303h147l-43 -197h-147l-117 -547q-25 -121 66 -121z" />
    <glyph glyph-name="u" unicode="u" horiz-adv-x="1024" 
d="M975 1047l-209 -984q-172 -83 -392 -83t-298 88t-39 276l149 703h273l-154 -723q-29 -139 98 -140q72 0 119 27l178 836h275z" />
    <glyph glyph-name="v" unicode="v" horiz-adv-x="966" 
d="M985 1047l-522 -1047h-264l-80 1047h289l6 -603l-13 -159h5q20 78 57 159l266 603h256z" />
    <glyph glyph-name="w" unicode="w" horiz-adv-x="1456" 
d="M385 444q0 -79 -16 -151h4q14 61 55 151l272 603h224l8 -603q0 -76 -10 -129l-2 -22h4q18 76 51 153l248 601h241l-483 -1047h-252l-12 567q0 85 8 125l2 21h-2q-20 -76 -51 -146l-260 -567h-250l-37 1047h272z" />
    <glyph glyph-name="x" unicode="x" horiz-adv-x="929" 
d="M944 1047l-373 -486l181 -561h-301l-80 338h-4l-224 -338h-276l409 541l-155 506h287l71 -304h2l211 304h252z" />
    <glyph glyph-name="y" unicode="y" horiz-adv-x="970" 
d="M987 1047l-747 -1487h-289l252 440l-82 1047h289l2 -605q0 -83 -15 -143l-4 -23h4q23 78 62 166l272 605h256z" />
    <glyph glyph-name="z" unicode="z" horiz-adv-x="798" 
d="M782 1047l-487 -850h311l-41 -197h-665l501 850h-288l43 197h626z" />
    <glyph glyph-name="braceleft" unicode="{" horiz-adv-x="763" 
d="M860 1608l-35 -160q-100 0 -153 -44t-76 -142l-72 -334q-43 -207 -227 -246q0 -2 -2 -4q78 -16 113 -80t10 -172l-72 -336q-20 -98 14 -142t138 -44l-35 -160q-183 0 -287 74q-58 42 -74 112t0 179l62 290q41 193 -117 201l35 164q160 4 201 190l61 289q78 365 516 365z
" />
    <glyph glyph-name="bar" unicode="|" horiz-adv-x="477" 
d="M537 1608l-437 -2048h-223l436 2048h224z" />
    <glyph glyph-name="braceright" unicode="}" horiz-adv-x="763" 
d="M696 764l-34 -164q-164 -8 -205 -201l-62 -290q-78 -365 -514 -365l35 160q100 0 153 44q52 44 74 142l72 336q47 217 229 252q0 4 2 4q-168 39 -124 246l71 334q20 98 -14 142q-35 44 -135 44l35 160q178 0 284 -74q59 -41 75 -112t-1 -179l-62 -289q-41 -186 121 -190z
" />
    <glyph glyph-name="asciitilde" unicode="~" horiz-adv-x="1148" 
d="M993 672q-80 -147 -254 -168q-84 -10 -190 62t-176 63q-117 -12 -201 -152l-39 199q104 164 252 178q84 8 188 -64t170 -63q125 12 209 145z" />
    <glyph glyph-name="nbspace" unicode="&#xa0;" horiz-adv-x="512" 
 />
    <glyph glyph-name="exclamdown" unicode="&#xa1;" horiz-adv-x="636" 
d="M385 543l-145 -975h-338l268 975h215zM390 1067q68 0 104 -52t21 -128t-75 -128t-128 -52t-104 52t-20 128q14 76 74 128t128 52z" />
    <glyph glyph-name="cent" unicode="&#xa2;" horiz-adv-x="1099" 
d="M620 416q100 0 154 41l-43 -211q-80 -43 -221 -43l-43 -203h-156l49 227q-133 49 -184 185t-9 338q43 202 153 334t260 180l45 215h155l-39 -189q117 0 203 -41l-43 -196q-51 33 -147 33t-187 -91q-90 -89 -123 -243q-32 -154 22 -245t154 -91z" />
    <glyph glyph-name="sterling" unicode="&#xa3;" horiz-adv-x="1099" 
d="M825 1274q-205 0 -258 -254q-16 -80 -14 -162h258l-41 -190h-233q0 -156 -73 -293q-40 -76 -69 -111h488l-56 -264h-864q258 254 309 504q16 80 17 164h-189l41 190h140q0 141 20 238q33 162 168 282t342 121q207 0 301 -82l-49 -229q-100 86 -238 86z" />
    <glyph glyph-name="currency" unicode="&#xa4;" horiz-adv-x="1099" 
d="M528 535q78 0 142 57q63 57 73 139q12 82 -35 140q-48 59 -126 59t-142 -58t-73 -141q-9 -82 37 -139t124 -57zM516 328q-112 0 -199 59l-155 -137l-137 135l155 137q-95 214 60 420l-129 152l145 120l117 -139q105 61 215 61t205 -61l157 139l135 -135l-155 -137
q98 -214 -60 -420l129 -149l-145 -123l-117 137q-109 -59 -221 -59z" />
    <glyph glyph-name="yen" unicode="&#xa5;" horiz-adv-x="1099" 
d="M1200 1479l-346 -543h176l-29 -135h-231l-86 -137h289l-29 -136h-301l-113 -528h-274l113 528h-301l28 136h291l-29 137h-233l29 135h176l-115 543h295l82 -592h4l342 592h262z" />
    <glyph glyph-name="brokenbar" unicode="&#xa6;" horiz-adv-x="477" 
d="M274 377l-174 -817h-223l174 817h223zM537 1608l-175 -817h-223l174 817h224z" />
    <glyph glyph-name="section" unicode="&#xa7;" horiz-adv-x="1058" 
d="M510 317q122 77 145 183t-47 188l-139 166q-125 -76 -147 -184t51 -193zM246 -379q-164 0 -264 82l49 234q117 -109 217 -109q57 0 101 31t54 80q16 76 -45 147l-163 188q-74 84 -94 166q-19 82 5 187q45 207 275 342q-72 106 -45 231t134 212q108 87 266 87t247 -78
l-45 -209q-60 60 -107 77t-98 17q-51 1 -91 -30t-50 -78t2 -82t57 -88l146 -170q69 -82 91 -158t1 -174q-41 -190 -281 -336q84 -117 56 -255t-142 -226q-112 -88 -276 -88z" />
    <glyph glyph-name="dieresis" unicode="&#xa8;" 
d="M225 1423q51 0 82 -37t21 -88t-56 -87q-46 -35 -99 -35q-52 0 -81 36t-18 86q10 51 55 88t96 37zM586 1423q54 0 82 -37q30 -37 20 -88t-56 -87q-46 -35 -100 -35t-82 36t-18 86q10 51 55 88t99 37z" />
    <glyph glyph-name="copyright" unicode="&#xa9;" horiz-adv-x="1521" 
d="M886 1028q-179 0 -241 -285q-25 -115 4 -199t113 -83q84 0 143 41l-33 -156q-86 -39 -176 -39q-162 0 -215 121q-53 120 -12 314t155 312t259 117q96 1 157 -38l-32 -152q-31 47 -122 47zM898 1376q-224 0 -424 -189t-254 -449t65 -447q119 -189 343 -189t423 188
t253 448q54 258 -64 448t-342 190zM601 -20q-271 0 -421 224t-84 534t312 536t517 225q271 1 421 -225t84 -536t-312 -534t-517 -224z" />
    <glyph glyph-name="ordfeminine" unicode="&#xaa;" horiz-adv-x="716" 
d="M526 1145q-96 -12 -147 -43t-68 -105q-25 -109 95 -108q45 0 69 12zM386 768q-300 0 -255 223q29 131 136 186q108 54 280 70l6 29q20 90 -88 90q-94 0 -189 -43l31 137q117 39 221 39q258 0 203 -258l-90 -420q-101 -53 -255 -53z" />
    <glyph glyph-name="guillemotleft" unicode="&#xab;" horiz-adv-x="1026" 
d="M563 965l-299 -383l137 -383l-178 -101l-174 484l381 485zM965 965l-299 -383l137 -383l-180 -101l-172 484l378 485z" />
    <glyph glyph-name="logicalnot" unicode="&#xac;" horiz-adv-x="1058" 
d="M924 817l-109 -512h-192l65 307h-559l43 205h752z" />
    <glyph glyph-name="registered" unicode="&#xae;" horiz-adv-x="1521" 
d="M813 1051h-61l-54 -254h62q110 0 137 129q15 70 -7 98t-77 27zM868 1161q116 -1 168 -65t29 -170q-35 -158 -186 -211l98 -396h-186l-84 363h-33l-78 -363h-170l178 842h264zM898 1376q-224 0 -424 -189t-254 -449t65 -447q119 -189 343 -189t423 188t253 448
q54 258 -64 448t-342 190zM601 -20q-271 0 -421 224t-84 534t312 536t517 225q271 1 421 -225t84 -536t-312 -534t-517 -224z" />
    <glyph glyph-name="macron" unicode="&#xaf;" 
d="M856 1386l-35 -165h-602l35 165h602z" />
    <glyph glyph-name="macron" unicode="&#x2c9;" 
d="M856 1386l-35 -165h-602l35 165h602z" />
    <glyph glyph-name="degree" unicode="&#xb0;" horiz-adv-x="784" 
d="M450 1004q64 0 120 51t71 123t-19 122t-99 50t-122 -50t-72 -122t21 -123t100 -51zM419 854q-120 0 -187 95q-68 95 -38 229t136 227q106 94 227 94t185 -94t34 -227q-29 -132 -133 -228t-224 -96z" />
    <glyph glyph-name="plusminus" unicode="&#xb1;" horiz-adv-x="1058" 
d="M807 268l-41 -188h-752l41 188h752zM934 870l-39 -186h-283l-65 -307h-185l66 307h-285l39 186h285l65 306h185l-66 -306h283z" />
    <glyph glyph-name="twosuperior" unicode="&#xb2;" horiz-adv-x="727" 
d="M514 1499q129 0 179 -75t30 -179q-27 -117 -156 -252l-190 -198h260l-37 -183h-465l29 140l248 290q84 98 100 177q25 115 -100 114q-49 0 -119 -30l35 165q57 31 186 31z" />
    <glyph glyph-name="threesuperior" unicode="&#xb3;" horiz-adv-x="727" 
d="M300 600q-126 0 -189 29l39 178q57 -39 147 -39q123 0 147 113q16 73 -28 101t-131 26l24 122q178 18 199 123q10 41 -14 65t-86 24t-129 -33l34 161q80 29 191 29q111 -1 169 -59q59 -58 37 -164t-145 -172q125 -61 92 -221q-27 -127 -129 -205t-228 -78z" />
    <glyph glyph-name="acute" unicode="&#xb4;" 
d="M649 1446l-299 -287h-157l188 295q74 45 167 44t101 -52z" />
    <glyph glyph-name="mu" unicode="&#xb5;" horiz-adv-x="1036" 
d="M408 166q72 0 127 29l182 852h270l-209 -984q-154 -80 -336 -79q-113 0 -200 49l-101 -473h-272l317 1487h273l-180 -848q57 -33 129 -33z" />
    <glyph glyph-name="mu" unicode="&#x3bc;" horiz-adv-x="1036" 
d="M408 166q72 0 127 29l182 852h270l-209 -984q-154 -80 -336 -79q-113 0 -200 49l-101 -473h-272l317 1487h273l-180 -848q57 -33 129 -33z" />
    <glyph glyph-name="paragraph" unicode="&#xb6;" horiz-adv-x="1058" 
d="M1135 1479l-29 -142h-62l-362 -1708h-174l362 1708h-194l-363 -1708h-176l221 1049q-140 27 -204 130t-31 259q43 209 191 310t352 102h469z" />
    <glyph glyph-name="periodcentered" unicode="&#xb7;" horiz-adv-x="559" 
d="M290 786q68 0 104 -53t21 -127t-75 -127t-128 -53q-66 0 -102 53t-20 127t74 127t126 53z" />
    <glyph glyph-name="periodcentered" unicode="&#x2219;" horiz-adv-x="559" 
d="M290 786q68 0 104 -53t21 -127t-75 -127t-128 -53q-66 0 -102 53t-20 127t74 127t126 53z" />
    <glyph glyph-name="cedilla" unicode="&#xb8;" 
d="M465 -254q-20 -104 -170 -147t-383 -19l72 101q120 -14 202 5t93 58q8 37 -38 48t-169 3l65 88q199 18 273 -17q73 -36 55 -120z" />
    <glyph glyph-name="onesuperior" unicode="&#xb9;" horiz-adv-x="727" 
d="M682 1479l-184 -875h-199l145 690l-194 -94l31 148l258 131h143z" />
    <glyph glyph-name="ordmasculine" unicode="&#xba;" horiz-adv-x="716" 
d="M494 1366q-102 0 -150 -226t53 -227q99 0 143 207q18 88 22 134q7 112 -68 112zM367 768q-139 0 -196 102q-56 102 -22 264t134 264q100 101 239 101q138 0 194 -101t22 -263q-34 -163 -133 -265t-238 -102z" />
    <glyph glyph-name="guillemotright" unicode="&#xbb;" horiz-adv-x="1026" 
d="M510 582l-377 -484l-133 101l297 383l-135 383l178 102zM911 582l-374 -484l-134 101l295 383l-133 383l178 102z" />
    <glyph glyph-name="onequarter" unicode="&#xbc;" horiz-adv-x="1587" 
d="M1210 668q-43 -68 -88 -129l-182 -246h188zM635 1479l-184 -875h-199l145 690l-194 -94l30 148l256 131h146zM1319 1444l-916 -1499l-137 71l914 1497zM1444 874l-125 -581h57l-26 -125h-58l-35 -168h-190l35 168h-305l28 131l428 575h191z" />
    <glyph glyph-name="onehalf" unicode="&#xbd;" horiz-adv-x="1587" 
d="M635 1479l-184 -875h-199l145 690l-194 -94l30 148l256 131h146zM1290 1444l-915 -1499l-135 71l911 1497zM1130 721q-55 0 -120 -31l34 166q57 31 186 31q130 0 180 -75t30 -179q-27 -117 -156 -252l-190 -199h260l-39 -182h-465l29 139l249 291q86 100 103 176
q25 115 -101 115z" />
    <glyph glyph-name="threequarters" unicode="&#xbe;" horiz-adv-x="1587" 
d="M1219 668q-41 -70 -86 -129l-183 -246h187zM300 600q-126 0 -189 29l39 178q57 -39 147 -39q123 0 147 113q16 73 -28 101t-131 26l24 122q178 18 199 123q10 41 -14 65t-86 24t-129 -33l34 161q80 29 191 29q111 -1 169 -59q59 -58 37 -164t-145 -172q125 -61 92 -221
q-27 -127 -129 -205t-228 -78zM1452 874l-125 -581h59l-26 -125h-60l-34 -168h-191l35 168h-305l29 131l428 575h190zM1376 1444l-915 -1499l-135 71l909 1497z" />
    <glyph glyph-name="questiondown" unicode="&#xbf;" horiz-adv-x="847" 
d="M250 -444q-195 0 -287 92t-57 252q27 129 131 220t211 128l84 303h211l-54 -395q-109 -23 -185 -80q-76 -56 -91 -134q-17 -78 17 -124t124 -48q90 0 234 66l-47 -221q-143 -59 -291 -59zM550 1075q68 0 104 -53t21 -127t-75 -127t-128 -53t-104 53t-20 127t76 127
t126 53z" />
    <glyph glyph-name="Agrave" unicode="&#xc0;" horiz-adv-x="1185" 
d="M694 565l-22 455l4 170h-4q-23 -72 -68 -170l-211 -455h301zM1018 0h-295l-18 367h-406l-174 -367h-268l745 1479h297zM856 1565h-156l-178 284q31 51 125 53t148 -44z" />
    <glyph glyph-name="Aacute" unicode="&#xc1;" horiz-adv-x="1185" 
d="M694 565l-22 455l4 170h-4q-23 -72 -68 -170l-211 -455h301zM1018 0h-295l-18 367h-406l-174 -367h-268l745 1479h297zM1120 1849l-297 -284h-159l190 293q72 46 165 44t101 -53z" />
    <glyph glyph-name="Acircumflex" unicode="&#xc2;" horiz-adv-x="1185" 
d="M694 565l-22 455l4 170h-4q-23 -72 -68 -170l-211 -455h301zM1018 0h-295l-18 367h-406l-174 -367h-268l745 1479h297zM836 1880q48 0 73 -39l148 -217l-96 -78l-164 156l-232 -156l-59 78l239 217q43 39 91 39z" />
    <glyph glyph-name="Atilde" unicode="&#xc3;" horiz-adv-x="1185" 
d="M694 565l-22 455l4 170h-4q-23 -72 -68 -170l-211 -455h301zM1018 0h-295l-18 367h-406l-174 -367h-268l745 1479h297zM899 1579q-51 0 -121 42t-116 42t-110 -43t-85 -82l37 180q88 102 180 103q55 0 122 -42t117 -42t111 43t84 84l-37 -181q-94 -104 -182 -104z" />
    <glyph glyph-name="Adieresis" unicode="&#xc4;" horiz-adv-x="1185" 
d="M694 565l-22 455l4 170h-4q-23 -72 -68 -170l-211 -455h301zM1018 0h-295l-18 367h-406l-174 -367h-268l745 1479h297zM590 1573q-51 0 -81 36t-20 87q11 51 57 88t97 37t81 -37t19 -88q-10 -51 -56 -87t-97 -36zM950 1573q-52 0 -81 36q-28 36 -17 87q10 51 54 88t96 37
t82 -37t20 -88t-56 -87t-98 -36z" />
    <glyph glyph-name="Aring" unicode="&#xc5;" horiz-adv-x="1185" 
d="M694 565l-22 455l4 170h-4q-23 -72 -68 -170l-211 -455h301zM822 1817q-32 0 -58 -25q-26 -26 -35 -60q-8 -34 8 -59t48 -25t60 26q28 24 36 59q9 35 -9 59t-50 25zM1018 0h-295l-18 367h-406l-174 -367h-268l745 1479h297zM842 1913q68 0 108 -53t24 -127
q-14 -74 -78 -127q-64 -54 -132 -54t-108 54t-23 127q13 74 77 127t132 53z" />
    <glyph glyph-name="AE" unicode="&#xc6;" horiz-adv-x="1474" 
d="M752 1184h-4q-29 -68 -68 -140l-264 -479h297l20 479q0 65 15 119zM977 1243v-375h336l-49 -229h-291l2 -403h340l-49 -236h-588l12 367h-385l-207 -365h-270l870 1477h742l-49 -236h-414z" />
    <glyph glyph-name="Ccedilla" unicode="&#xc7;" horiz-adv-x="1052" 
d="M612 -254q-20 -104 -170 -147t-383 -19l72 101q119 -14 202 5t92 57t-37 49t-173 3l68 88q199 19 273 -17t56 -120zM626 231q126 0 220 64l-55 -252q-133 -63 -291 -63t-255 61t-137 165q-89 230 -16 533q74 346 272 553t453 207q166 0 270 -63l-49 -236q-20 29 -80 47
t-122 19q-178 0 -287 -129t-164 -389q-23 -131 -19 -246t70 -193q64 -78 190 -78z" />
    <glyph glyph-name="Egrave" unicode="&#xc8;" horiz-adv-x="905" 
d="M979 1479l-49 -236h-408l-80 -375h361l-49 -229h-361l-86 -403h408l-49 -236h-693l314 1479h692zM774 1565h-158l-176 284q29 51 123 53t150 -44z" />
    <glyph glyph-name="Eacute" unicode="&#xc9;" horiz-adv-x="905" 
d="M979 1479l-49 -236h-408l-80 -375h361l-49 -229h-361l-86 -403h408l-49 -236h-693l314 1479h692zM981 1849l-299 -284h-158l191 293q72 46 165 44t101 -53z" />
    <glyph glyph-name="Ecircumflex" unicode="&#xca;" horiz-adv-x="905" 
d="M979 1479l-49 -236h-408l-80 -375h361l-49 -229h-361l-86 -403h408l-49 -236h-693l314 1479h692zM714 1880q46 0 72 -39l150 -217l-98 -78l-160 156l-234 -156l-61 78l240 217q45 39 91 39z" />
    <glyph glyph-name="Edieresis" unicode="&#xcb;" horiz-adv-x="905" 
d="M979 1479l-49 -236h-408l-80 -375h361l-49 -229h-361l-86 -403h408l-49 -236h-693l314 1479h692zM468 1573q-52 0 -81 36t-18 87q10 51 55 88t97 37t81 -37t19 -88q-9 -51 -55 -87t-98 -36zM826 1573q-52 0 -81 36t-18 87q10 51 55 88q46 37 98 37t82 -37t21 -88
q-10 -51 -57 -87q-48 -36 -100 -36z" />
    <glyph glyph-name="Igrave" unicode="&#xcc;" horiz-adv-x="550" 
d="M575 1479l-313 -1479h-285l314 1479h284zM588 1565h-156l-176 284q29 51 123 53t147 -44z" />
    <glyph glyph-name="Iacute" unicode="&#xcd;" horiz-adv-x="550" 
d="M575 1479l-313 -1479h-285l314 1479h284zM782 1849l-299 -284h-157l190 293q72 46 165 44t101 -53z" />
    <glyph glyph-name="Icircumflex" unicode="&#xce;" horiz-adv-x="550" 
d="M575 1479l-313 -1479h-285l314 1479h284zM517 1878q50 0 75 -37l147 -217l-94 -78l-164 156l-231 -156l-60 78l238 217q39 37 89 37z" />
    <glyph glyph-name="Idieresis" unicode="&#xcf;" horiz-adv-x="550" 
d="M575 1479l-313 -1479h-285l314 1479h284zM272 1573q-52 0 -81 36q-30 36 -19 87q10 51 56 88t98 37t80 -37q30 -37 20 -88t-56 -87t-98 -36zM632 1573q-52 0 -81 36t-19 87t56 88t97 37t81 -37t20 -88t-56 -87t-98 -36z" />
    <glyph glyph-name="Eth" unicode="&#xd0;" horiz-adv-x="1230" 
d="M442 211q154 -1 254 121t162 409q113 526 -190 527h-105l-82 -377h164l-41 -201h-164l-102 -479h104zM387 0h-381l148 690h-99l41 201h99l124 588h367q311 0 423 -204t38 -543q-74 -340 -263 -536t-497 -196z" />
    <glyph glyph-name="Ntilde" unicode="&#xd1;" horiz-adv-x="1273" 
d="M1303 1479l-314 -1479h-239l-269 829l-37 158h-4q-10 -82 -26 -164l-174 -823h-267l314 1479h276l248 -760l39 -141h2q8 70 25 147l159 754h267zM946 1579q-53 0 -123 42q-69 42 -115 42t-110 -43t-84 -82l37 180q88 102 180 103q55 0 122 -42t117 -42t111 43t84 84
l-37 -181q-94 -104 -182 -104z" />
    <glyph glyph-name="Ograve" unicode="&#xd2;" horiz-adv-x="1222" 
d="M727 1282q-227 0 -341 -529t116 -530q231 1 344 530t-119 529zM774 1499q135 0 225 -60q90 -59 127 -163q82 -229 9 -537q-74 -340 -247 -550t-437 -209q-135 0 -226 59q-90 59 -127 163q-82 229 -6 537q72 336 245 548t437 212zM915 1565h-159l-174 284q29 51 123 53
t145 -44z" />
    <glyph glyph-name="Oacute" unicode="&#xd3;" horiz-adv-x="1222" 
d="M727 1282q-227 0 -341 -529t116 -530q231 1 344 530t-119 529zM774 1499q135 0 225 -60q90 -59 127 -163q82 -229 9 -537q-74 -340 -247 -550t-437 -209q-135 0 -226 59q-90 59 -127 163q-82 229 -6 537q72 336 245 548t437 212zM1112 1849l-299 -284h-158l191 293
q72 46 164 44t102 -53z" />
    <glyph glyph-name="Ocircumflex" unicode="&#xd4;" horiz-adv-x="1222" 
d="M727 1282q-227 0 -341 -529t116 -530q231 1 344 530t-119 529zM774 1499q135 0 225 -60q90 -59 127 -163q82 -229 9 -537q-74 -340 -247 -550t-437 -209q-135 0 -226 59q-90 59 -127 163q-82 229 -6 537q72 336 245 548t437 212zM856 1880q47 0 74 -39l147 -217l-98 -78
l-160 156l-233 -156l-60 78l240 217q43 39 90 39z" />
    <glyph glyph-name="Otilde" unicode="&#xd5;" horiz-adv-x="1222" 
d="M727 1282q-227 0 -341 -529t116 -530q231 1 344 530t-119 529zM774 1499q135 0 225 -60q90 -59 127 -163q82 -229 9 -537q-74 -340 -247 -550t-437 -209q-135 0 -226 59q-90 59 -127 163q-82 229 -6 537q72 336 245 548t437 212zM926 1579q-51 0 -122 42t-118 42
t-109 -43t-85 -82l36 180q92 102 183 103q53 0 121 -42t117 -42q51 0 111 43t85 84l-37 -181q-94 -104 -182 -104z" />
    <glyph glyph-name="Odieresis" unicode="&#xd6;" horiz-adv-x="1222" 
d="M727 1282q-227 0 -341 -529t116 -530q231 1 344 530t-119 529zM774 1499q135 0 225 -60q90 -59 127 -163q82 -229 9 -537q-74 -340 -247 -550t-437 -209q-135 0 -226 59q-90 59 -127 163q-82 229 -6 537q72 336 245 548t437 212zM610 1573q-52 0 -82 35q-29 35 -18 88
q10 53 55 89t97 36t82 -37t20 -88t-56 -87t-98 -36zM969 1573q-53 0 -82 36t-19 87t56 88t98 37q54 0 82 -37t18 -88t-55 -87t-98 -36z" />
    <glyph glyph-name="multiply" unicode="&#xd7;" horiz-adv-x="1058" 
d="M954 928l-327 -307l198 -308l-155 -137l-193 305l-325 -303l-95 135l324 308l-195 307l156 137l195 -305l323 305z" />
    <glyph glyph-name="Oslash" unicode="&#xd8;" horiz-adv-x="1222" 
d="M502 223q231 0 344 529q35 163 35 282l-525 -676q31 -135 146 -135zM727 1282q-227 0 -342 -530q-31 -145 -39 -258l524 669q-37 119 -143 119zM774 1499q180 0 279 -102l121 155l67 -57l-137 -174q111 -207 34 -565t-250 -567q-173 -210 -437 -209q-193 0 -297 120
l-134 -172l-67 58l153 198q-90 203 -16 547t247 556t437 212z" />
    <glyph glyph-name="Ugrave" unicode="&#xd9;" horiz-adv-x="1175" 
d="M1204 1479l-221 -1041q-43 -209 -198 -334q-155 -124 -357 -124t-303 124q-102 124 -59 334l221 1041h284l-221 -1047q-20 -100 20 -154t120 -54t140 54q62 54 85 158l221 1043h268zM915 1565h-157l-176 284q29 51 123 53t147 -44z" />
    <glyph glyph-name="Uacute" unicode="&#xda;" horiz-adv-x="1175" 
d="M1204 1479l-221 -1041q-43 -209 -198 -334q-155 -124 -357 -124t-303 124q-102 124 -59 334l221 1041h284l-221 -1047q-20 -100 20 -154t120 -54t140 54q62 54 85 158l221 1043h268zM1100 1849l-301 -284h-156l188 293q73 46 167 44t102 -53z" />
    <glyph glyph-name="Ucircumflex" unicode="&#xdb;" horiz-adv-x="1175" 
d="M1204 1479l-221 -1041q-43 -209 -198 -334q-155 -124 -357 -124t-303 124q-102 124 -59 334l221 1041h284l-221 -1047q-20 -100 20 -154t120 -54t140 54q62 54 85 158l221 1043h268zM843 1880q46 0 72 -39l150 -217l-98 -78l-160 156l-234 -156l-61 78l240 217
q45 39 91 39z" />
    <glyph glyph-name="Udieresis" unicode="&#xdc;" horiz-adv-x="1175" 
d="M1204 1479l-221 -1041q-43 -209 -198 -334q-155 -124 -357 -124t-303 124q-102 124 -59 334l221 1041h284l-221 -1047q-20 -100 20 -154t120 -54t140 54q62 54 85 158l221 1043h268zM599 1573q-52 0 -81 36t-18 87q10 51 55 88t97 37t81 -37t19 -88t-56 -87t-97 -36z
M958 1573q-52 0 -80 36t-18 87t55 88t97 37t82 -37t20 -88t-57 -87t-99 -36z" />
    <glyph glyph-name="Yacute" unicode="&#xdd;" horiz-adv-x="1032" 
d="M1174 1479l-543 -875l-129 -604h-287l129 604l-174 875h305l88 -578h4l330 578h277zM1049 1849l-297 -284h-160l190 293q72 46 166 44t101 -53z" />
    <glyph glyph-name="Thorn" unicode="&#xde;" horiz-adv-x="1107" 
d="M473 504q98 0 173 60t104 196q30 135 -16 203t-148 67h-109l-112 -526h108zM467 319h-141l-68 -319h-285l314 1479h284l-55 -269h141q229 0 324 -117q94 -118 50 -325t-190 -328t-374 -121z" />
    <glyph glyph-name="germandbls" unicode="&#xdf;" horiz-adv-x="1081" 
d="M518 -20q-90 0 -184 49l49 235q57 -63 133 -63q45 1 85 33t50 85q18 84 -61 156q-104 94 -70 254t193 227q16 33 32 103q55 264 -81 264q-141 0 -213 -334l-211 -989h-275l205 965q51 245 191 403t336 158t276 -130t39 -327q-20 -100 -58 -174q-152 -31 -176 -150
q-10 -45 3 -79t65 -84q52 -52 72 -114q18 -62 0 -157q-31 -151 -145 -241t-255 -90z" />
    <glyph glyph-name="agrave" unicode="&#xe0;" horiz-adv-x="970" 
d="M557 539q-141 -15 -219 -61t-100 -154q-39 -176 135 -177q57 0 106 23zM452 879q-91 0 -249 -64l41 199q176 55 309 55q369 0 289 -383l-133 -627q-150 -79 -369 -79t-306 84t-52 247q27 129 121 212q95 83 210 117t277 50l10 49q16 78 -20 109q-37 31 -128 31zM721 1161
h-158l-178 287q31 51 124 52t146 -44z" />
    <glyph glyph-name="aacute" unicode="&#xe1;" horiz-adv-x="970" 
d="M557 539q-141 -15 -219 -61t-100 -154q-39 -176 135 -177q57 0 106 23zM452 879q-91 0 -249 -64l41 199q176 55 309 55q369 0 289 -383l-133 -627q-150 -79 -369 -79t-306 84t-52 247q27 129 121 212q95 83 210 117t277 50l10 49q16 78 -20 109q-37 31 -128 31zM948 1448
l-297 -287h-157l188 295q72 45 165 44t101 -52z" />
    <glyph glyph-name="acircumflex" unicode="&#xe2;" horiz-adv-x="970" 
d="M557 539q-141 -15 -219 -61t-100 -154q-39 -176 135 -177q57 0 106 23zM452 879q-91 0 -249 -64l41 199q176 55 309 55q369 0 289 -383l-133 -627q-150 -79 -369 -79t-306 84t-52 247q27 129 121 212q95 83 210 117t277 50l10 49q16 78 -20 109q-37 31 -128 31zM651 1477
q51 0 76 -37l150 -217l-97 -80l-164 155l-229 -155l-63 80l237 217q39 37 90 37z" />
    <glyph glyph-name="atilde" unicode="&#xe3;" horiz-adv-x="970" 
d="M557 539q-141 -15 -219 -61t-100 -154q-39 -176 135 -177q57 0 106 23zM452 879q-91 0 -249 -64l41 199q176 55 309 55q369 0 289 -383l-133 -627q-150 -79 -369 -79t-306 84t-52 247q27 129 121 212q95 83 210 117t277 50l10 49q16 78 -20 109q-37 31 -128 31zM717 1178
q-53 0 -124 42t-117 42t-108 -43t-85 -82l39 180q88 102 180 102q53 0 122 -42q68 -42 118 -42t110 43t84 84l-39 -180q-84 -104 -180 -104z" />
    <glyph glyph-name="adieresis" unicode="&#xe4;" horiz-adv-x="970" 
d="M557 539q-141 -15 -219 -61t-100 -154q-39 -176 135 -177q57 0 106 23zM452 879q-91 0 -249 -64l41 199q176 55 309 55q369 0 289 -383l-133 -627q-150 -79 -369 -79t-306 84t-52 247q27 129 121 212q95 83 210 117t277 50l10 49q16 78 -20 109q-37 31 -128 31zM548 1390
q29 -37 19 -89t-56 -88q-46 -35 -97 -35t-81 36t-20 86q11 50 57 88t97 38t81 -36zM928 1300q-10 -51 -56 -87q-46 -35 -99 -35q-52 0 -81 36t-18 86q10 50 55 88t97 38t82 -38q30 -37 20 -88z" />
    <glyph glyph-name="aring" unicode="&#xe5;" horiz-adv-x="970" 
d="M557 539q-141 -15 -219 -61t-100 -154q-39 -176 135 -177q57 0 106 23zM606 1247q34 1 60 25t34 59t-8 60t-49 25t-59 -26q-26 -24 -35 -59q-8 -35 8 -59t49 -25zM452 879q-91 0 -249 -64l41 199q176 55 309 55q369 0 289 -383l-133 -627q-150 -79 -369 -79t-306 84
t-52 247q27 129 121 212q95 83 210 117t277 50l10 49q16 78 -20 109q-37 31 -128 31zM665 1511q69 0 109 -53t24 -127q-14 -74 -78 -127t-133 -53t-108 53t-24 127q17 74 79 127t131 53z" />
    <glyph glyph-name="ae" unicode="&#xe6;" horiz-adv-x="1474" 
d="M545 537q-135 -13 -215 -63t-103 -155q-35 -170 103 -169q61 0 105 38t59 107zM1018 889q-78 1 -130 -63t-97 -222h321q59 285 -94 285zM950 188q127 0 293 70l-45 -213q-166 -65 -345 -65t-251 155q-113 -156 -321 -155q-178 0 -255 85t-41 255t191 257q156 85 404 113
l10 47q31 141 -137 142q-45 0 -124 -22t-128 -44l43 201q145 55 301 55q182 0 223 -145q127 145 301 145q201 0 269 -172t-7 -444h-565q-23 -109 17 -187t167 -78z" />
    <glyph glyph-name="ccedilla" unicode="&#xe7;" horiz-adv-x="864" 
d="M483 -254q-20 -104 -170 -147t-385 -19l74 101q121 -14 204 5t92 57t-38 49t-172 3l68 88q199 19 272 -17t55 -120zM624 864q-96 0 -186 -91t-123 -245t21 -244t154 -91q98 0 157 40l-45 -210q-80 -43 -221 -43q-209 0 -303 145t-40 401t214 400t360 143q115 0 205 -41
l-43 -197q-54 33 -150 33z" />
    <glyph glyph-name="egrave" unicode="&#xe8;" horiz-adv-x="1001" 
d="M544 891q-76 1 -130 -63q-53 -64 -95 -222h320q29 137 5 211t-100 74zM474 186q128 0 298 72l-47 -215q-166 -63 -328 -63q-225 0 -319 147t-41 397t208 398t355 147q200 0 264 -176q66 -176 -6 -438h-565q-23 -111 15 -190t166 -79zM717 1161h-158l-178 287
q31 51 124 52t146 -44z" />
    <glyph glyph-name="eacute" unicode="&#xe9;" horiz-adv-x="1001" 
d="M544 891q-76 1 -130 -63q-53 -64 -95 -222h320q29 137 5 211t-100 74zM474 186q128 0 298 72l-47 -215q-166 -63 -328 -63q-225 0 -319 147t-41 397t208 398t355 147q200 0 264 -176q66 -176 -6 -438h-565q-23 -111 15 -190t166 -79zM954 1448l-297 -287h-157l186 295
q74 45 167 44t101 -52z" />
    <glyph glyph-name="ecircumflex" unicode="&#xea;" horiz-adv-x="1001" 
d="M544 891q-76 1 -130 -63q-53 -64 -95 -222h320q29 137 5 211t-100 74zM474 186q128 0 298 72l-47 -215q-166 -63 -328 -63q-225 0 -319 147t-41 397t208 398t355 147q200 0 264 -176q66 -176 -6 -438h-565q-23 -111 15 -190t166 -79zM664 1477q48 0 73 -37l150 -217
l-94 -80l-164 155l-232 -155l-63 80l239 217q43 37 91 37z" />
    <glyph glyph-name="edieresis" unicode="&#xeb;" horiz-adv-x="1001" 
d="M544 891q-76 1 -130 -63q-53 -64 -95 -222h320q29 137 5 211t-100 74zM474 186q128 0 298 72l-47 -215q-166 -63 -328 -63q-225 0 -319 147t-41 397t208 398t355 147q200 0 264 -176q66 -176 -6 -438h-565q-23 -111 15 -190t166 -79zM578 1300q-10 -51 -56 -87
q-46 -35 -98 -35q-51 0 -80 36t-18 86q10 50 55 88t96 38t81 -38q30 -37 20 -88zM936 1300q-10 -51 -56 -87q-46 -35 -98 -35t-80 36q-29 36 -18 86q10 50 55 88t97 38t80 -38q30 -37 20 -88z" />
    <glyph glyph-name="igrave" unicode="&#xec;" 
d="M465 1047l-223 -1047h-275l223 1047h275zM481 1159h-157l-177 287q31 51 124 52t149 -44z" />
    <glyph glyph-name="iacute" unicode="&#xed;" 
d="M465 1047l-223 -1047h-275l223 1047h275zM674 1446l-301 -287h-156l191 295q72 45 165 44t101 -52z" />
    <glyph glyph-name="icircumflex" unicode="&#xee;" 
d="M465 1047l-223 -1047h-275l223 1047h275zM418 1475q49 0 74 -37l147 -217l-96 -80l-162 155l-234 -155l-57 80l236 217q43 37 92 37z" />
    <glyph glyph-name="idieresis" unicode="&#xef;" 
d="M465 1047l-223 -1047h-275l223 1047h275zM225 1423q51 0 82 -37t21 -88t-56 -87q-46 -35 -99 -35q-52 0 -81 36t-18 86q10 51 55 88t96 37zM586 1423q54 0 82 -37t18 -88t-55 -87q-45 -35 -99 -35t-82 36t-18 86q10 51 55 88t99 37z" />
    <glyph glyph-name="eth" unicode="&#xf0;" horiz-adv-x="1009" 
d="M629 866q-39 14 -74 15q-92 0 -149 -85q-58 -84 -96 -256t-22 -262t101 -92q145 0 217 346q41 195 23 334zM543 1059q55 0 84 -10q-18 109 -49 200l-172 -57q-12 66 -48 113l166 55q-37 70 -63 104l250 84q41 -61 61 -102l152 51q33 -64 49 -113l-154 -51
q145 -389 58 -801q-53 -252 -193 -402t-338 -150q-200 0 -280 148t-31 384t188 392q139 155 320 155z" />
    <glyph glyph-name="ntilde" unicode="&#xf1;" horiz-adv-x="1036" 
d="M574 1069q224 0 301 -90q78 -90 45 -244l-156 -735h-272l155 733q31 145 -110 146q-63 0 -119 -21l-182 -858h-273l211 989q176 80 400 80zM743 1178q-51 0 -121 42t-118 42q-46 0 -108 -43t-85 -82l39 180q88 102 180 102q53 0 121 -42t118 -42q51 0 111 44t83 83
l-39 -180q-84 -104 -181 -104z" />
    <glyph glyph-name="ograve" unicode="&#xf2;" horiz-adv-x="997" 
d="M381 186q84 0 135 91t86 251q74 348 -74 349q-145 1 -220 -345t73 -346zM569 1067q199 -1 275 -151t25 -392q-52 -242 -192 -394t-339 -150q-199 0 -276 152q-76 152 -24 392q52 242 192 392t339 151zM702 1159h-157l-176 287q31 51 124 52t148 -44z" />
    <glyph glyph-name="oacute" unicode="&#xf3;" horiz-adv-x="997" 
d="M381 186q84 0 135 91t86 251q74 348 -74 349q-145 1 -220 -345t73 -346zM569 1067q199 -1 275 -151t25 -392q-52 -242 -192 -394t-339 -150q-199 0 -276 152q-76 152 -24 392q52 242 192 392t339 151zM940 1446l-301 -287h-156l189 295q74 45 166 44t102 -52z" />
    <glyph glyph-name="ocircumflex" unicode="&#xf4;" horiz-adv-x="997" 
d="M381 186q84 0 135 91t86 251q74 348 -74 349q-145 1 -220 -345t73 -346zM569 1067q199 -1 275 -151t25 -392q-52 -242 -192 -394t-339 -150q-199 0 -276 152q-76 152 -24 392q52 242 192 392t339 151zM653 1475q51 0 76 -37l150 -217l-97 -80l-164 155l-231 -155l-61 80
l237 217q39 37 90 37z" />
    <glyph glyph-name="otilde" unicode="&#xf5;" horiz-adv-x="997" 
d="M381 186q84 0 135 91t86 251q74 348 -74 349q-145 1 -220 -345t73 -346zM569 1067q199 -1 275 -151t25 -392q-52 -242 -192 -394t-339 -150q-199 0 -276 152q-76 152 -24 392q52 242 192 392t339 151zM725 1176q-53 0 -123 42t-116 42t-108 -43q-64 -43 -85 -82l37 180
q88 102 180 102q55 0 122 -42q66 -42 116 -42t112 43t86 84l-39 -180q-94 -104 -182 -104z" />
    <glyph glyph-name="odieresis" unicode="&#xf6;" horiz-adv-x="997" 
d="M381 186q84 0 135 91t86 251q74 348 -74 349q-145 1 -220 -345t73 -346zM569 1067q199 -1 275 -151t25 -392q-52 -242 -192 -394t-339 -150q-199 0 -276 152q-76 152 -24 392q52 242 192 392t339 151zM464 1423q52 0 82 -37t19 -88q-10 -51 -56 -87q-46 -35 -98 -35
t-81 36t-19 86q9 51 55 88t98 37zM824 1423q52 0 82 -37t20 -88t-56 -87q-46 -35 -99 -35q-52 0 -82 36t-19 86q10 51 56 88t98 37z" />
    <glyph glyph-name="divide" unicode="&#xf7;" horiz-adv-x="1058" 
d="M407 154q-50 0 -77 40t-15 95q11 55 55 94t94 39t76 -39t15 -94q-12 -55 -55 -95t-93 -40zM897 696l-33 -153h-751l32 153h752zM548 819q-50 0 -77 39t-14 94q10 54 54 94t94 40t76 -39q25 -40 14 -95t-54 -94t-93 -39z" />
    <glyph glyph-name="oslash" unicode="&#xf8;" horiz-adv-x="997" 
d="M379 172q154 0 225 352q29 136 27 193l-344 -471q20 -74 92 -74zM528 879q-154 0 -227 -355q-20 -98 -25 -180l345 469q-23 66 -93 66zM928 1120l-115 -157q119 -131 55 -439q-53 -244 -192 -394t-338 -150q-121 0 -205 61l-110 -154l-54 39l119 164q-114 148 -56 412
t198 416t337 151q123 0 199 -59l108 149z" />
    <glyph glyph-name="ugrave" unicode="&#xf9;" horiz-adv-x="1024" 
d="M975 1047l-209 -984q-172 -83 -392 -83t-298 88t-39 276l149 703h273l-154 -723q-29 -139 98 -140q72 0 119 27l178 836h275zM733 1159h-158l-176 287q29 51 123 52t148 -44z" />
    <glyph glyph-name="uacute" unicode="&#xfa;" horiz-adv-x="1024" 
d="M975 1047l-209 -984q-172 -83 -392 -83t-298 88t-39 276l149 703h273l-154 -723q-29 -139 98 -140q72 0 119 27l178 836h275zM954 1446l-299 -287h-157l188 295q74 45 167 44t101 -52z" />
    <glyph glyph-name="ucircumflex" unicode="&#xfb;" horiz-adv-x="1024" 
d="M975 1047l-209 -984q-172 -83 -392 -83t-298 88t-39 276l149 703h273l-154 -723q-29 -139 98 -140q72 0 119 27l178 836h275zM669 1475q50 0 74 -37l150 -217l-96 -80l-162 155l-234 -155l-59 80l238 217q39 37 89 37z" />
    <glyph glyph-name="udieresis" unicode="&#xfc;" horiz-adv-x="1024" 
d="M975 1047l-209 -984q-172 -83 -392 -83t-298 88t-39 276l149 703h273l-154 -723q-29 -139 98 -140q72 0 119 27l178 836h275zM478 1423q52 0 82 -37t20 -88t-56 -87q-46 -35 -99 -35q-52 0 -81 36t-18 86q10 51 55 88t97 37zM838 1423q52 0 82 -37q28 -37 18 -88t-55 -87
q-45 -35 -97 -35t-82 36q-28 36 -18 86q10 51 55 88t97 37z" />
    <glyph glyph-name="yacute" unicode="&#xfd;" horiz-adv-x="970" 
d="M987 1047l-747 -1487h-289l252 440l-82 1047h289l2 -605q0 -83 -15 -143l-4 -23h4q23 78 62 166l272 605h256zM936 1446l-301 -287h-156l191 295q72 45 165 44t101 -52z" />
    <glyph glyph-name="thorn" unicode="&#xfe;" horiz-adv-x="1026" 
d="M342 168q209 0 288 360t-122 361q-49 0 -88 -17l-148 -692q33 -12 70 -12zM369 -12q-86 0 -133 18l-97 -446h-270l407 1919h271l-86 -414q53 4 88 4q215 1 310 -139t41 -394t-200 -401t-331 -147z" />
    <glyph glyph-name="ydieresis" unicode="&#xff;" horiz-adv-x="970" 
d="M987 1047l-747 -1487h-289l252 440l-82 1047h289l2 -605q0 -83 -15 -143l-4 -23h4q23 78 62 166l272 605h256zM469 1423q51 0 81 -37t19 -88q-10 -51 -56 -87q-46 -35 -97 -35t-81 36t-20 86q11 51 57 88t97 37zM828 1423q52 0 81 -37t19 -88t-56 -87q-46 -35 -97 -35
q-52 0 -81 36t-18 86q10 51 55 88t97 37z" />
    <glyph glyph-name="Amacron" unicode="&#x100;" horiz-adv-x="1185" 
d="M694 565l-22 455l4 170h-4q-23 -72 -68 -170l-211 -455h301zM1018 0h-295l-18 367h-406l-174 -367h-268l745 1479h297zM1104 1804l-35 -166h-602l35 166h602z" />
    <glyph glyph-name="amacron" unicode="&#x101;" horiz-adv-x="970" 
d="M557 539q-141 -15 -219 -61t-100 -154q-39 -176 135 -177q57 0 106 23zM452 879q-91 0 -249 -64l41 199q176 55 309 55q369 0 289 -383l-133 -627q-150 -79 -369 -79t-306 84t-52 247q27 129 121 212q95 83 210 117t277 50l10 49q16 78 -20 109q-37 31 -128 31zM926 1386
l-35 -165h-602l35 165h602z" />
    <glyph glyph-name="Abreve" unicode="&#x102;" horiz-adv-x="1185" 
d="M694 565l-22 455l4 170h-4q-23 -72 -68 -170l-211 -455h301zM1018 0h-295l-18 367h-406l-174 -367h-268l745 1479h297zM760 1573q-96 0 -151 50q-54 50 -58 115t4 126l102 28q2 -156 136 -155q125 0 206 155l88 -28q-23 -109 -107 -200t-220 -91z" />
    <glyph glyph-name="abreve" unicode="&#x103;" horiz-adv-x="970" 
d="M557 539q-141 -15 -219 -61t-100 -154q-39 -176 135 -177q57 0 106 23zM452 879q-91 0 -249 -64l41 199q176 55 309 55q369 0 289 -383l-133 -627q-150 -79 -369 -79t-306 84t-52 247q27 129 121 212q95 83 210 117t277 50l10 49q16 78 -20 109q-37 31 -128 31zM555 1155
q-96 0 -151 50q-54 50 -58 115t4 126l103 29q2 -156 135 -156q125 0 207 156l88 -29q-23 -109 -107 -200t-221 -91z" />
    <glyph glyph-name="Aogonek" unicode="&#x104;" horiz-adv-x="1185" 
d="M694 565l-22 455l4 170h-4q-23 -72 -68 -170l-211 -455h301zM788 -210q0 -93 185 -19l12 -93q-96 -49 -185 -62t-148 18q-58 32 -58 108q0 127 244 258h-115l-18 367h-406l-174 -367h-268l745 1479h297l119 -1479h-21q-209 -117 -209 -210z" />
    <glyph glyph-name="aogonek" unicode="&#x105;" horiz-adv-x="970" 
d="M557 539q-141 -15 -219 -61t-100 -154q-39 -176 135 -177q57 0 106 23zM238 -258q0 131 194 242q-23 -4 -108 -4q-203 0 -290 84t-52 247q27 129 121 212q95 83 210 117t277 50l10 49q16 78 -20 109q-37 31 -128 31t-249 -64l41 199q176 55 309 55q369 0 289 -383
l-133 -627q-276 -143 -277 -268q0 -94 184 -20l13 -93q-95 -49 -185 -62q-90 -14 -148 18t-58 108z" />
    <glyph glyph-name="Cacute" unicode="&#x106;" horiz-adv-x="1052" 
d="M626 231q126 0 220 64l-55 -252q-133 -63 -291 -63t-255 61t-137 165q-89 230 -16 533q74 346 272 553t453 207q166 0 270 -63l-49 -236q-20 29 -80 47t-122 19q-178 0 -287 -129t-164 -389q-23 -131 -19 -246t70 -193q64 -78 190 -78zM1087 1864l-299 -287h-157l188 295
q74 45 167 44t101 -52z" />
    <glyph glyph-name="cacute" unicode="&#x107;" horiz-adv-x="864" 
d="M624 864q-96 0 -186 -91t-123 -245t21 -244t154 -91q98 0 157 40l-45 -210q-80 -43 -221 -43q-209 0 -303 145t-40 401t214 400t360 143q115 0 205 -41l-43 -197q-54 33 -150 33zM915 1446l-299 -287h-157l188 295q74 45 167 44t101 -52z" />
    <glyph glyph-name="Ccircumflex" unicode="&#x108;" horiz-adv-x="1052" 
d="M626 231q126 0 220 64l-55 -252q-133 -63 -291 -63t-255 61t-137 165q-89 230 -16 533q74 346 272 553t453 207q166 0 270 -63l-49 -236q-20 29 -80 47t-122 19q-178 0 -287 -129t-164 -389q-23 -131 -19 -246t70 -193q64 -78 190 -78zM890 1892q48 0 73 -37l147 -217
l-96 -79l-162 155l-234 -155l-57 79l238 217q43 37 91 37z" />
    <glyph glyph-name="ccircumflex" unicode="&#x109;" horiz-adv-x="864" 
d="M624 864q-96 0 -186 -91t-123 -245t21 -244t154 -91q98 0 157 40l-45 -210q-80 -43 -221 -43q-209 0 -303 145t-40 401t214 400t360 143q115 0 205 -41l-43 -197q-54 33 -150 33zM652 1475q48 0 73 -37l147 -217l-96 -80l-162 155l-233 -155l-57 80l237 217q43 37 91 37z
" />
    <glyph glyph-name="Cdot" unicode="&#x10a;" horiz-adv-x="1052" 
d="M626 231q126 0 220 64l-55 -252q-133 -63 -291 -63t-255 61t-137 165q-89 230 -16 533q74 346 272 553t453 207q166 0 270 -63l-49 -236q-20 29 -80 47t-122 19q-178 0 -287 -129t-164 -389q-23 -131 -19 -246t70 -193q64 -78 190 -78zM834 1628q-55 0 -88 44
q-32 44 -18 106t64 105q50 44 105 44t85 -44t17 -106q-14 -61 -62 -105t-103 -44z" />
    <glyph glyph-name="cdot" unicode="&#x10b;" horiz-adv-x="864" 
d="M624 864q-96 0 -186 -91t-123 -245t21 -244t154 -91q98 0 157 40l-45 -210q-80 -43 -221 -43q-209 0 -303 145t-40 401t214 400t360 143q115 0 205 -41l-43 -197q-54 33 -150 33zM680 1509q56 0 86 -44t16 -106q-14 -61 -62 -105t-104 -44t-87 44t-17 106t63 105
q49 44 105 44z" />
    <glyph glyph-name="Ccaron" unicode="&#x10c;" horiz-adv-x="1052" 
d="M626 231q126 0 220 64l-55 -252q-133 -63 -291 -63t-255 61t-137 165q-89 230 -16 533q74 346 272 553t453 207q166 0 270 -63l-49 -236q-20 29 -80 47t-122 19q-178 0 -287 -129t-164 -389q-23 -131 -19 -246t70 -193q64 -78 190 -78zM820 1565q-52 0 -79 39l-145 217
l88 75l172 -159l236 159l61 -75l-240 -217q-41 -39 -93 -39z" />
    <glyph glyph-name="ccaron" unicode="&#x10d;" horiz-adv-x="864" 
d="M624 864q-96 0 -186 -91t-123 -245t21 -244t154 -91q98 0 157 40l-45 -210q-80 -43 -221 -43q-209 0 -303 145t-40 401t214 400t360 143q115 0 205 -41l-43 -197q-54 33 -150 33zM607 1147q-52 0 -79 39l-145 217l88 76l172 -160l236 160l61 -76l-240 -217
q-41 -39 -93 -39z" />
    <glyph glyph-name="Dcaron" unicode="&#x10e;" horiz-adv-x="1202" 
d="M410 211q154 1 254 121t161 407q113 528 -190 529h-107l-225 -1057h107zM354 0h-381l314 1479h364q311 0 423 -204t38 -544q-74 -339 -262 -535t-496 -196zM685 1565q-52 0 -79 39l-145 217l88 75l172 -159l235 159l62 -75l-240 -217q-41 -39 -93 -39z" />
    <glyph glyph-name="dcaron" unicode="&#x10f;" horiz-adv-x="1026" 
d="M434 172q57 0 86 14l148 688q-31 12 -74 13q-209 0 -283 -359q-78 -356 123 -356zM1067 1479l-301 -1422q-146 -77 -370 -77t-320 139t-42 392t202 399t333 147q78 0 133 -19l93 441h272zM1412 1485q19 -53 8 -132t-63 -152t-108 -116h-192q139 164 153 263
q18 125 -82 213h230q35 -23 54 -76z" />
    <glyph glyph-name="Dcroat" unicode="&#x110;" horiz-adv-x="1230" 
d="M442 211q154 -1 254 121t162 409q113 526 -190 527h-105l-82 -377h164l-41 -201h-164l-102 -479h104zM387 0h-381l148 690h-99l41 201h99l124 588h367q311 0 423 -204t38 -543q-74 -340 -263 -536t-497 -196z" />
    <glyph glyph-name="dmacron" unicode="&#x111;" horiz-adv-x="1026" 
d="M434 172q57 0 86 14l148 688q-31 12 -74 13q-209 0 -283 -359q-78 -356 123 -356zM1165 1339l-39 -182h-127l-233 -1100q-146 -77 -370 -77t-320 139t-42 392t202 399t333 147q78 0 133 -19l25 119h-235l38 182h236l29 140h272l-29 -140h127z" />
    <glyph glyph-name="Emacron" unicode="&#x112;" horiz-adv-x="905" 
d="M979 1479l-49 -236h-408l-80 -375h361l-49 -229h-361l-86 -403h408l-49 -236h-693l314 1479h692zM1001 1804l-34 -166h-602l34 166h602z" />
    <glyph glyph-name="emacron" unicode="&#x113;" horiz-adv-x="1001" 
d="M544 891q-76 1 -130 -63q-53 -64 -95 -222h320q29 137 5 211t-100 74zM474 186q128 0 298 72l-47 -215q-166 -63 -328 -63q-225 0 -319 147t-41 397t208 398t355 147q200 0 264 -176q66 -176 -6 -438h-565q-23 -111 15 -190t166 -79zM946 1386l-35 -165h-602l35 165h602z
" />
    <glyph glyph-name="Ebreve" unicode="&#x114;" horiz-adv-x="905" 
d="M979 1479l-49 -236h-408l-80 -375h361l-49 -229h-361l-86 -403h408l-49 -236h-693l314 1479h692zM631 1573q-96 0 -151 50q-54 50 -58 115t4 126l102 28q2 -156 136 -155q125 0 206 155l88 -28q-22 -109 -106 -200t-221 -91z" />
    <glyph glyph-name="ebreve" unicode="&#x115;" horiz-adv-x="1001" 
d="M544 891q-76 1 -130 -63q-53 -64 -95 -222h320q29 137 5 211t-100 74zM474 186q128 0 298 72l-47 -215q-166 -63 -328 -63q-225 0 -319 147t-41 397t208 398t355 147q200 0 264 -176q66 -176 -6 -438h-565q-23 -111 15 -190t166 -79zM596 1155q-96 0 -151 50
q-54 50 -58 115t4 126l103 29q2 -156 135 -156q125 0 207 156l88 -29q-23 -109 -107 -200t-221 -91z" />
    <glyph glyph-name="Edot" unicode="&#x116;" horiz-adv-x="905" 
d="M979 1479l-49 -236h-408l-80 -375h361l-49 -229h-361l-86 -403h408l-49 -236h-693l314 1479h692zM643 1628q-55 0 -87 44t-18 106t64 105q48 44 104 44t86 -44t17 -106q-15 -61 -63 -105t-103 -44z" />
    <glyph glyph-name="edot" unicode="&#x117;" horiz-adv-x="1001" 
d="M544 891q-76 1 -130 -63q-53 -64 -95 -222h320q29 137 5 211t-100 74zM474 186q128 0 298 72l-47 -215q-166 -63 -328 -63q-225 0 -319 147t-41 397t208 398t355 147q200 0 264 -176q66 -176 -6 -438h-565q-23 -111 15 -190t166 -79zM672 1509q56 0 86 -44t16 -106
q-14 -61 -62 -105t-104 -44t-87 44t-17 106t63 105q49 44 105 44z" />
    <glyph glyph-name="Eogonek" unicode="&#x118;" horiz-adv-x="905" 
d="M401 -209q0 -94 185 -20l12 -93q-96 -49 -185 -62t-148 18q-58 32 -58 108q0 127 244 258h-478l314 1479h692l-49 -236h-408l-80 -375h361l-49 -229h-361l-86 -403h408l-49 -236h-56q-209 -115 -209 -209z" />
    <glyph glyph-name="eogonek" unicode="&#x119;" horiz-adv-x="1001" 
d="M544 891q-76 1 -130 -63q-53 -64 -95 -222h320q29 137 5 211t-100 74zM474 186q128 0 298 72l-47 -215q-117 -45 -185 -123t-69 -129q0 -94 184 -20l15 -93q-96 -49 -186 -62q-90 -14 -148 18q-59 32 -60 108q0 119 195 242q-16 -4 -74 -4q-225 0 -319 147t-41 397
t208 398t355 147q200 0 264 -176q66 -176 -6 -438h-565q-23 -111 15 -190t166 -79z" />
    <glyph glyph-name="Ecaron" unicode="&#x11a;" horiz-adv-x="905" 
d="M979 1479l-49 -236h-408l-80 -375h361l-49 -229h-361l-86 -403h408l-49 -236h-693l314 1479h692zM630 1565q-52 0 -79 39l-145 217l88 75l172 -159l235 159l62 -75l-240 -217q-41 -39 -93 -39z" />
    <glyph glyph-name="ecaron" unicode="&#x11b;" horiz-adv-x="1001" 
d="M544 891q-76 1 -130 -63q-53 -64 -95 -222h320q29 137 5 211t-100 74zM474 186q128 0 298 72l-47 -215q-166 -63 -328 -63q-225 0 -319 147t-41 397t208 398t355 147q200 0 264 -176q66 -176 -6 -438h-565q-23 -111 15 -190t166 -79zM595 1147q-52 0 -79 39l-145 217
l88 76l172 -160l235 160l62 -76l-240 -217q-41 -39 -93 -39z" />
    <glyph glyph-name="Gcircumflex" unicode="&#x11c;" horiz-adv-x="1130" 
d="M535 213q43 0 106 18l129 609h264l-164 -777q-145 -84 -368 -83q-283 0 -384 200q-100 200 -26 558q74 356 274 558t465 203q166 0 283 -61l-51 -246q-78 47 -133 60t-113 14q-324 0 -434 -525q-51 -266 -9 -397t161 -131zM902 1892q48 0 73 -37l147 -217l-96 -79
l-162 155l-233 -155l-58 79l238 217q43 37 91 37z" />
    <glyph glyph-name="gcircumflex" unicode="&#x11d;" horiz-adv-x="1028" 
d="M453 514q82 0 133 51t69 135q39 186 -125 187q-162 -1 -200 -187t123 -186zM352 201h144q166 0 238 -89t42 -238q-31 -149 -169 -247t-345 -98t-308 73t-73 199q8 39 41 111h242q-29 -33 -40 -90t42 -86t142 -29t150 44q60 43 73 109t-16 88q-30 22 -112 21h-129
q-112 0 -184 50t-48 163t140 209q-137 98 -92 309q35 168 157 268t322 101q76 0 158 -22h313l-34 -160h-115q23 -90 4 -187q-33 -160 -154 -264t-327 -104l-84 2q-45 -33 -52 -67q-6 -34 16 -50t58 -16zM644 1475q48 0 73 -37l147 -217l-96 -80l-162 155l-233 -155l-58 80
l238 217q43 37 91 37z" />
    <glyph glyph-name="Gbreve" unicode="&#x11e;" horiz-adv-x="1130" 
d="M535 213q43 0 106 18l129 609h264l-164 -777q-145 -84 -368 -83q-283 0 -384 200q-100 200 -26 558q74 356 274 558t465 203q166 0 283 -61l-51 -246q-78 47 -133 60t-113 14q-324 0 -434 -525q-51 -266 -9 -397t161 -131zM834 1573q-96 0 -151 50q-54 50 -58 115t4 126
l102 28q2 -156 135 -155q125 0 207 155l88 -28q-23 -109 -107 -200t-220 -91z" />
    <glyph glyph-name="gbreve" unicode="&#x11f;" horiz-adv-x="1028" 
d="M453 514q82 0 133 51t69 135q39 186 -125 187q-162 -1 -200 -187t123 -186zM352 201h144q166 0 238 -89t42 -238q-31 -149 -169 -247t-345 -98t-308 73t-73 199q8 39 41 111h242q-29 -33 -40 -90t42 -86t142 -29t150 44q60 43 73 109t-16 88q-30 22 -112 21h-129
q-112 0 -184 50t-48 163t140 209q-137 98 -92 309q35 168 157 268t322 101q76 0 158 -22h313l-34 -160h-115q23 -90 4 -187q-33 -160 -154 -264t-327 -104l-84 2q-45 -33 -52 -67q-6 -34 16 -50t58 -16zM596 1155q-96 0 -151 50q-54 50 -58 115t4 126l103 29
q2 -156 135 -156q125 0 207 156l88 -29q-23 -109 -107 -200t-221 -91z" />
    <glyph glyph-name="Gdot" unicode="&#x120;" horiz-adv-x="1130" 
d="M535 213q43 0 106 18l129 609h264l-164 -777q-145 -84 -368 -83q-283 0 -384 200q-100 200 -26 558q74 356 274 558t465 203q166 0 283 -61l-51 -246q-78 47 -133 60t-113 14q-324 0 -434 -525q-51 -266 -9 -397t161 -131zM888 1927q56 0 86 -44t17 -106
q-14 -61 -62 -105q-47 -44 -103 -44t-88 44t-18 106t64 105q48 44 104 44z" />
    <glyph glyph-name="gdot" unicode="&#x121;" horiz-adv-x="1028" 
d="M453 514q82 0 133 51t69 135q39 186 -125 187q-162 -1 -200 -187t123 -186zM352 201h144q166 0 238 -89t42 -238q-31 -149 -169 -247t-345 -98t-308 73t-73 199q8 39 41 111h242q-29 -33 -40 -90t42 -86t142 -29t150 44q60 43 73 109t-16 88q-30 22 -112 21h-129
q-112 0 -184 50t-48 163t140 209q-137 98 -92 309q35 168 157 268t322 101q76 0 158 -22h313l-34 -160h-115q23 -90 4 -187q-33 -160 -154 -264t-327 -104l-84 2q-45 -33 -52 -67q-6 -34 16 -50t58 -16zM588 1210q-55 0 -87 44t-18 106q13 62 63 105q50 44 105 44t86 -44
t17 -106q-14 -61 -62 -105t-104 -44z" />
    <glyph glyph-name="Gcommaaccent" unicode="&#x122;" horiz-adv-x="1130" 
d="M567 -92q96 -86 81 -200t-126 -186t-246 -87l-28 121q76 10 130 52t66 113q10 86 -90 187h213zM535 213q43 0 106 18l129 609h264l-164 -777q-145 -84 -368 -83q-283 0 -384 200q-100 200 -26 558q74 356 274 558t465 203q166 0 283 -61l-51 -246q-78 47 -133 60t-113 14
q-324 0 -434 -525q-51 -266 -9 -397t161 -131z" />
    <glyph glyph-name="gcommaaccent" unicode="&#x123;" horiz-adv-x="1028" 
d="M453 514q82 0 133 51t69 135q39 186 -125 187q-162 -1 -200 -187t123 -186zM352 201h144q166 0 238 -89t42 -238q-31 -149 -169 -247t-345 -98t-308 73t-73 199q8 39 41 111h242q-29 -33 -40 -90t42 -86t142 -29t150 44q60 43 73 109t-16 88q-30 22 -112 21h-129
q-112 0 -184 50t-48 163t140 209q-137 98 -92 309q35 168 157 268t322 101q76 0 158 -22h313l-34 -160h-115q23 -90 4 -187q-33 -160 -154 -264t-327 -104l-84 2q-45 -33 -52 -67q-6 -34 16 -50t58 -16zM825 1513q-174 -29 -194 -167q-12 -84 88 -185h-213q-37 31 -64 83
t-18 114q16 118 127 190t248 86z" />
    <glyph glyph-name="Hcircumflex" unicode="&#x124;" horiz-adv-x="1210" 
d="M1239 1479l-313 -1479h-287l137 641h-381l-137 -641h-285l314 1479h284l-129 -613h381l129 613h287zM842 1892q49 0 71 -37l148 -217l-96 -79l-162 155l-234 -155l-57 79l238 217q43 37 92 37z" />
    <glyph glyph-name="hcircumflex" unicode="&#x125;" horiz-adv-x="1036" 
d="M539 872q-70 0 -123 -26l-180 -846h-273l313 1479h273l-98 -469q109 49 213 49q168 1 228 -91t28 -235l-156 -733h-270l153 727q29 145 -108 145zM722 1892q48 0 73 -37l147 -217l-96 -79l-162 155l-233 -155l-58 79l238 217q43 37 91 37z" />
    <glyph glyph-name="Hbar" unicode="&#x126;" horiz-adv-x="1210" 
d="M854 1008h-381l-31 -142h381zM1294 1208l-43 -200h-112l-213 -1008h-287l137 641h-381l-137 -641h-285l213 1008h-112l43 200h112l58 271h284l-57 -271h381l57 271h287l-57 -271h112z" />
    <glyph glyph-name="hbar" unicode="&#x127;" horiz-adv-x="1036" 
d="M539 872q-70 0 -123 -26l-180 -846h-273l246 1157h-129l39 182h129l28 140h273l-29 -140h234l-39 -182h-234l-30 -147q109 49 213 49q168 1 228 -91t28 -235l-156 -733h-270l153 727q29 145 -108 145z" />
    <glyph glyph-name="Itilde" unicode="&#x128;" horiz-adv-x="550" 
d="M575 1479l-313 -1479h-285l314 1479h284zM340 1673q-48 0 -108 -42t-87 -83l39 181q88 102 183 102q53 0 121 -42t117 -42t109 43t85 84l-39 -180q-84 -104 -178 -105q-51 0 -123 42t-119 42z" />
    <glyph glyph-name="itilde" unicode="&#x129;" 
d="M465 1047l-223 -1047h-275l223 1047h275zM242 1255q-46 0 -108 -42q-60 -42 -87 -83l39 181q88 102 182 102q53 0 121 -42t118 -42t109 43t84 84l-38 -180q-84 -104 -179 -105q-51 0 -123 42t-118 42z" />
    <glyph glyph-name="Imacron" unicode="&#x12a;" horiz-adv-x="550" 
d="M575 1479l-313 -1479h-285l314 1479h284zM793 1804l-35 -166h-602l34 166h603z" />
    <glyph glyph-name="imacron" unicode="&#x12b;" 
d="M465 1047l-223 -1047h-275l223 1047h275zM692 1386l-35 -165h-602l35 165h602z" />
    <glyph glyph-name="Ibreve" unicode="&#x12c;" horiz-adv-x="550" 
d="M575 1479l-313 -1479h-285l314 1479h284zM461 1573q-96 0 -151 50q-54 50 -58 115t4 126l102 28q2 -156 136 -155q125 0 206 155l88 -28q-22 -109 -106 -200t-221 -91z" />
    <glyph glyph-name="ibreve" unicode="&#x12d;" 
d="M465 1047l-223 -1047h-275l223 1047h275zM348 1155q-96 0 -150 50t-59 115q-4 65 4 126l103 29q2 -156 135 -156q125 0 207 156l88 -29q-23 -109 -107 -200t-221 -91z" />
    <glyph glyph-name="Iogonek" unicode="&#x12e;" horiz-adv-x="550" 
d="M53 -209q0 -94 185 -20l12 -93q-96 -49 -185 -62t-148 18q-58 32 -58 108q0 127 241 258h-123l314 1479h284l-313 -1479q-209 -115 -209 -209z" />
    <glyph glyph-name="iogonek" unicode="&#x12f;" 
d="M33 -209q0 -94 184 -20l12 -93q-96 -49 -185 -62q-89 -14 -147 18t-59 108q0 127 242 258h-113l223 1047h275q-152 -702 -223 -1047q-209 -115 -209 -209zM356 1186q-62 0 -95 48q-34 48 -19 116q14 68 68 116t116 50q62 0 95 -49q34 -49 20 -117q-15 -68 -69 -116
t-116 -48z" />
    <glyph glyph-name="Idot" unicode="&#x130;" horiz-adv-x="550" 
d="M575 1479l-313 -1479h-285l314 1479h284zM536 1927q56 0 86 -44t17 -106q-14 -61 -62 -105q-47 -44 -103 -44t-88 44t-18 106t64 105q48 44 104 44z" />
    <glyph glyph-name="dotlessi" unicode="&#x131;" 
d="M465 1047l-223 -1047h-275l223 1047h275z" />
    <glyph glyph-name="IJ" unicode="&#x132;" horiz-adv-x="1101" 
d="M575 1479l-313 -1479h-285l314 1479h284zM1126 1479l-295 -1391q-53 -254 -209 -387t-380 -145l49 229q87 16 157 90t95 193l299 1411h284z" />
    <glyph glyph-name="ij" unicode="&#x133;" horiz-adv-x="1040" 
d="M465 1047l-223 -1047h-275l223 1047h275zM985 1047l-201 -936q-53 -250 -204 -398q-152 -147 -344 -157l43 204q88 29 141 98t86 218l207 971h272zM356 1186q-62 0 -95 48q-34 48 -19 116q14 68 68 116t116 50q62 0 95 -49q34 -49 20 -117q-15 -68 -69 -116t-116 -48z
M879 1186q-61 0 -96 48q-34 48 -19 116q14 68 68 116t116 50q61 0 94 -49t19 -117q-13 -68 -67 -116t-115 -48z" />
    <glyph glyph-name="Jcircumflex" unicode="&#x134;" horiz-adv-x="550" 
d="M575 1479l-294 -1391q-53 -254 -210 -387t-380 -145l49 229q86 16 157 90t95 193l299 1411h284zM512 1892q49 0 72 -37l147 -217l-96 -79l-162 155l-233 -155l-58 79l238 217q43 37 92 37z" />
    <glyph glyph-name="jcircumflex" unicode="&#x135;" 
d="M465 1047l-201 -936q-53 -249 -205 -397t-344 -158l43 204q88 29 142 98q53 69 86 218l207 971h272zM415 1475q50 0 72 -37l150 -217l-96 -80l-162 155l-234 -155l-59 80l236 217q43 37 93 37z" />
    <glyph glyph-name="Kcommaaccent" unicode="&#x136;" horiz-adv-x="1114" 
d="M526 -92q96 -86 81 -200t-126 -186t-245 -87l-29 121q76 10 130 52t66 113q10 86 -90 187h213zM1221 1479l-523 -682l234 -797h-336l-178 733h-4l-156 -733h-285l314 1479h284l-141 -670h4l479 670h308z" />
    <glyph glyph-name="kcommaaccent" unicode="&#x137;" horiz-adv-x="1001" 
d="M485 -92q96 -86 81 -200t-126 -186t-245 -87l-29 121q76 10 130 52t66 113q10 86 -90 187h213zM1006 1047l-396 -469l211 -578h-309l-158 528h-2l-112 -528h-273l314 1479h272l-188 -895h2l364 463h275z" />
    <glyph glyph-name="kgreenlantic" unicode="&#x138;" horiz-adv-x="1001" 
d="M1006 1047l-396 -469l211 -578h-309l-158 528h-2l-112 -528h-273l221 1047h275l-98 -463h2l364 463h275z" />
    <glyph glyph-name="Lacute" unicode="&#x139;" horiz-adv-x="835" 
d="M662 233l-50 -233h-639l314 1479h284l-264 -1246h355zM772 1864l-299 -287h-158l189 295q74 45 167 44t101 -52z" />
    <glyph glyph-name="lacute" unicode="&#x13a;" 
d="M555 1479l-313 -1479h-275l314 1479h274zM752 1864l-299 -287h-158l188 295q73 45 167 44t102 -52z" />
    <glyph glyph-name="Lcommaaccent" unicode="&#x13b;" horiz-adv-x="835" 
d="M383 -92q96 -86 81 -200t-126 -186t-246 -87l-29 121q76 10 131 52q54 42 66 113q10 86 -90 187h213zM662 233l-50 -233h-639l314 1479h284l-264 -1246h355z" />
    <glyph glyph-name="lcommaaccent" unicode="&#x13c;" 
d="M178 -92q96 -86 81 -200t-126 -186t-246 -87l-28 121q76 10 130 52t66 113q10 86 -90 187h213zM555 1479l-313 -1479h-275l314 1479h274z" />
    <glyph glyph-name="Lcaron" unicode="&#x13d;" horiz-adv-x="835" 
d="M662 233l-50 -233h-639l314 1479h284l-264 -1246h355zM939 1485q19 -53 8 -132t-63 -152t-108 -116h-192q139 164 153 263q18 125 -82 213h230q35 -23 54 -76z" />
    <glyph glyph-name="lcaron" unicode="&#x13e;" 
d="M555 1479l-313 -1479h-275l314 1479h274zM898 1485q19 -53 8 -132t-63 -152t-108 -116h-192q139 164 153 263q18 125 -82 213h230q35 -23 54 -76z" />
    <glyph glyph-name="Ldot" unicode="&#x13f;" horiz-adv-x="835" 
d="M662 233l-50 -233h-639l314 1479h284l-264 -1246h355zM600 596q-55 0 -87 44t-17 105q14 61 63 105t105 45q56 0 86 -44q30 -45 16 -107t-62 -105t-104 -43z" />
    <glyph glyph-name="ldot" unicode="&#x140;" 
d="M555 1479l-313 -1479h-275l314 1479h274zM580 596q-55 0 -87 44t-18 105q13 61 63 105t105 45q55 0 86 -44q30 -45 16 -107t-62 -105t-103 -43z" />
    <glyph glyph-name="Lslash" unicode="&#x141;" horiz-adv-x="862" 
d="M686 233l-49 -233h-639l145 684l-112 -53l41 188l110 51l129 609h287l-96 -461l164 72l-39 -187l-166 -74l-127 -596h352z" />
    <glyph glyph-name="lslash" unicode="&#x142;" horiz-adv-x="616" 
d="M639 1049l-41 -187l-141 -69l-168 -793h-273l136 635l-127 -64l41 187l124 61l140 660h272l-104 -500z" />
    <glyph glyph-name="Nacute" unicode="&#x143;" horiz-adv-x="1273" 
d="M1303 1479l-314 -1479h-239l-269 829l-37 158h-4q-10 -82 -26 -164l-174 -823h-267l314 1479h276l248 -760l39 -141h2q8 70 25 147l159 754h267zM1112 1864l-299 -287h-158l189 295q74 45 167 44t101 -52z" />
    <glyph glyph-name="nacute" unicode="&#x144;" horiz-adv-x="1036" 
d="M574 1069q224 0 301 -90q78 -90 45 -244l-156 -735h-272l155 733q31 145 -110 146q-63 0 -119 -21l-182 -858h-273l211 989q176 80 400 80zM895 1446l-299 -287h-158l189 295q74 45 167 44t101 -52z" />
    <glyph glyph-name="Ncommaaccent" unicode="&#x145;" horiz-adv-x="1273" 
d="M588 -92q96 -86 81 -200t-126 -186t-246 -87l-29 121q76 10 130 52t67 113q10 86 -90 187h213zM1303 1479l-314 -1479h-239l-269 829l-37 158h-4q-10 -82 -26 -164l-174 -823h-267l314 1479h276l248 -760l39 -141h2q8 70 25 147l159 754h267z" />
    <glyph glyph-name="ncommaaccent" unicode="&#x146;" horiz-adv-x="1036" 
d="M465 -92q96 -86 81 -200t-126 -186t-246 -87l-29 121q76 10 130 52t67 113q10 86 -90 187h213zM574 1069q224 0 301 -90q78 -90 45 -244l-156 -735h-272l155 733q31 145 -110 146q-63 0 -119 -21l-182 -858h-273l211 989q176 80 400 80z" />
    <glyph glyph-name="Ncaron" unicode="&#x147;" horiz-adv-x="1273" 
d="M1303 1479l-314 -1479h-239l-269 829l-37 158h-4q-10 -82 -26 -164l-174 -823h-267l314 1479h276l248 -760l39 -141h2q8 70 25 147l159 754h267zM804 1565q-52 0 -79 39l-145 217l88 75l172 -159l235 159l62 -75l-240 -217q-41 -39 -93 -39z" />
    <glyph glyph-name="ncaron" unicode="&#x148;" horiz-adv-x="1036" 
d="M574 1069q224 0 301 -90q78 -90 45 -244l-156 -735h-272l155 733q31 145 -110 146q-63 0 -119 -21l-182 -858h-273l211 989q176 80 400 80zM570 1147q-52 0 -78 39l-146 217l88 76l172 -160l236 160l61 -76l-239 -217q-42 -39 -94 -39z" />
    <glyph glyph-name="napostrophe" unicode="&#x149;" horiz-adv-x="1036" 
d="M574 1069q224 0 301 -90q78 -90 45 -244l-156 -735h-272l155 733q31 145 -110 146q-63 0 -119 -21l-182 -858h-273l211 989q176 80 400 80zM554 1505q19 -53 8 -132t-63 -151t-108 -116h-194q143 166 155 262q18 125 -82 213h230q35 -23 54 -76z" />
    <glyph glyph-name="Eng" unicode="&#x14a;" horiz-adv-x="1273" 
d="M1303 1479l-314 -1479q-51 -242 -163 -337t-363 -103l43 207q123 8 169 55t75 176l-269 831l-37 158h-4q-8 -82 -26 -164l-174 -823h-267l314 1479h276l248 -760l39 -141h2q8 70 25 147l159 754h267z" />
    <glyph glyph-name="eng" unicode="&#x14b;" horiz-adv-x="1036" 
d="M574 1069q224 0 301 -90q78 -90 45 -244l-156 -735q-54 -258 -160 -345t-366 -95l43 207q111 10 145 50t66 181l155 735q31 145 -110 146q-63 0 -119 -21l-182 -858h-273l211 989q176 80 400 80z" />
    <glyph glyph-name="Omacron" unicode="&#x14c;" horiz-adv-x="1222" 
d="M727 1282q-227 0 -341 -529t116 -530q231 1 344 530t-119 529zM774 1499q135 0 225 -60q90 -59 127 -163q82 -229 9 -537q-74 -340 -247 -550t-437 -209q-135 0 -226 59q-90 59 -127 163q-82 229 -6 537q72 336 245 548t437 212zM1135 1804l-35 -166h-602l34 166h603z
" />
    <glyph glyph-name="omacron" unicode="&#x14d;" horiz-adv-x="997" 
d="M528 870q-146 0 -222 -346q-74 -346 72 -346t222 346q74 346 -72 346zM845 918q76 -152 24 -394t-192 -394t-339 -150q-199 0 -276 152q-76 152 -24 392q52 242 192 394t339 152t276 -152zM932 1386l-35 -165h-602l35 165h602z" />
    <glyph glyph-name="Obreve" unicode="&#x14e;" horiz-adv-x="1222" 
d="M727 1282q-227 0 -341 -529t116 -530q231 1 344 530t-119 529zM774 1499q135 0 225 -60q90 -59 127 -163q82 -229 9 -537q-74 -340 -247 -550t-437 -209q-135 0 -226 59q-90 59 -127 163q-82 229 -6 537q72 336 245 548t437 212zM791 1573q-96 0 -151 50q-54 50 -58 115
t4 126l102 28q2 -156 135 -155q125 0 207 155l88 -28q-22 -109 -106 -200t-221 -91z" />
    <glyph glyph-name="obreve" unicode="&#x14f;" horiz-adv-x="997" 
d="M528 870q-146 0 -222 -346q-74 -346 72 -346t222 346q74 346 -72 346zM845 918q76 -152 24 -394t-192 -394t-339 -150q-199 0 -276 152q-76 152 -24 392q52 242 192 394t339 152t276 -152zM569 1155q-96 0 -150 50t-59 115q-4 65 5 126l102 29q2 -156 135 -156
q125 0 207 156l88 -29q-23 -109 -107 -200t-221 -91z" />
    <glyph glyph-name="Ohungarumlaut" unicode="&#x150;" horiz-adv-x="1222" 
d="M727 1282q-227 0 -341 -529t116 -530q231 1 344 530t-119 529zM774 1499q135 0 225 -60q90 -59 127 -163q82 -229 9 -537q-74 -340 -247 -550t-437 -209q-135 0 -226 59q-90 59 -127 163q-82 229 -6 537q72 336 245 548t437 212zM848 1888q68 0 63 -47l-272 -264h-102
l186 262q57 49 125 49zM1114 1888q68 0 68 -47l-277 -264h-98l186 262q53 49 121 49z" />
    <glyph glyph-name="ohungarumlaut" unicode="&#x151;" horiz-adv-x="997" 
d="M528 870q-146 0 -222 -346q-74 -346 72 -346t222 346q74 346 -72 346zM845 918q76 -152 24 -394t-192 -394t-339 -150q-199 0 -276 152q-76 152 -24 392q52 242 192 394t339 152t276 -152zM660 1470q68 0 63 -47l-272 -264h-103l187 262q57 49 125 49zM926 1470
q68 0 67 -47l-276 -264h-99l187 262q53 49 121 49z" />
    <glyph glyph-name="OE" unicode="&#x152;" horiz-adv-x="1529" 
d="M754 1280q-258 0 -371 -534t143 -533q88 0 125 10l221 1043q-39 14 -118 14zM487 -20q-276 0 -373 202q-98 202 -22 558q76 357 258 558t459 201q80 0 156 -20h643l-49 -236h-406l-80 -375h357l-50 -229h-356l-86 -403h405l-49 -236h-645q-66 -20 -162 -20z" />
    <glyph glyph-name="oe" unicode="&#x153;" horiz-adv-x="1527" 
d="M373 176q151 0 223 346q37 131 27 241t-101 109q-150 0 -222 -348t73 -348zM1069 891q-78 1 -132 -63t-97 -222h323q59 285 -94 285zM999 186q131 0 295 70l-47 -213q-168 -63 -338 -63q-213 0 -262 178q-131 -178 -321 -178t-267 150q-75 150 -23 394q52 242 192 394
t326 152t249 -165q59 78 143 121t172 43q180 1 261 -151t5 -463h-571q-23 -111 16 -190t170 -79z" />
    <glyph glyph-name="Racute" unicode="&#x154;" horiz-adv-x="1132" 
d="M551 829q105 1 169 53t93 185t-14 185t-148 53h-119l-100 -476h119zM748 1479q205 0 294 -113t50 -297q-29 -135 -118 -231t-218 -138l174 -700h-309l-152 645h-76l-137 -645h-283l314 1479h461zM1006 1864l-299 -287h-158l188 295q73 45 167 44t102 -52z" />
    <glyph glyph-name="racute" unicode="&#x155;" horiz-adv-x="665" 
d="M563 1071q68 0 129 -12l-88 -197q-102 25 -186 -8l-182 -854h-273l209 987q199 84 391 84zM752 1446l-299 -287h-158l188 295q73 45 167 44t102 -52z" />
    <glyph glyph-name="Rcommaaccent" unicode="&#x156;" horiz-adv-x="1132" 
d="M551 829q105 1 169 53t93 185t-14 185t-148 53h-119l-100 -476h119zM526 -92q96 -86 81 -200t-126 -186t-245 -87l-29 121q76 10 130 52t66 113q10 86 -90 187h213zM748 1479q205 0 294 -113t50 -297q-29 -135 -118 -231t-218 -138l174 -700h-309l-152 645h-76l-137 -645
h-283l314 1479h461z" />
    <glyph glyph-name="rcommaaccent" unicode="&#x157;" horiz-adv-x="665" 
d="M219 -92q96 -86 81 -200t-126 -186t-246 -87l-28 121q76 10 130 52t66 113q10 86 -90 187h213zM563 1071q68 0 129 -12l-88 -197q-102 25 -186 -8l-182 -854h-273l209 987q199 84 391 84z" />
    <glyph glyph-name="Rcaron" unicode="&#x158;" horiz-adv-x="1132" 
d="M551 829q105 1 169 53t93 185t-14 185t-148 53h-119l-100 -476h119zM748 1479q205 0 294 -113t50 -297q-29 -135 -118 -231t-218 -138l174 -700h-309l-152 645h-76l-137 -645h-283l314 1479h461zM677 1565q-52 0 -79 39l-145 217l88 75l172 -159l235 159l62 -75
l-240 -217q-41 -39 -93 -39z" />
    <glyph glyph-name="rcaron" unicode="&#x159;" horiz-adv-x="665" 
d="M563 1071q68 0 129 -12l-88 -197q-102 25 -186 -8l-182 -854h-273l209 987q199 84 391 84zM444 1147q-52 0 -79 39l-146 217l88 76l172 -160l236 160l61 -76l-239 -217q-41 -39 -93 -39z" />
    <glyph glyph-name="Sacute" unicode="&#x15a;" horiz-adv-x="1001" 
d="M696 1274q-186 0 -223 -174q-13 -56 9 -100t55 -66t94 -55q164 -85 207 -189t12 -244q-43 -206 -193 -336t-362 -130q-121 0 -191 18t-135 59l60 277q135 -111 276 -111q102 0 166 53q63 52 79 130t-30 128q-47 50 -155 103q-254 127 -195 407q39 188 183 322t347 133
q62 0 88 -4q27 -4 53 -7t58 -20q32 -16 51 -23t27 -15l-51 -242q-106 86 -230 86zM965 1864l-299 -287h-158l188 295q74 45 168 44t101 -52z" />
    <glyph glyph-name="sacute" unicode="&#x15b;" horiz-adv-x="774" 
d="M489 872q-51 0 -86 -30t-45 -78q-18 -90 94 -148t144 -131q32 -72 12 -172q-32 -141 -150 -237t-280 -96q-102 0 -231 53l51 235q72 -80 188 -80q51 0 89 32q37 32 49 84t-8 85t-78 62q-111 53 -141 126t-11 166q31 137 138 232q108 94 247 94t229 -59l-47 -222
q-80 84 -164 84zM788 1446l-299 -287h-157l188 295q74 45 167 44t101 -52z" />
    <glyph glyph-name="Scircumflex" unicode="&#x15c;" horiz-adv-x="1001" 
d="M696 1274q-186 0 -223 -174q-13 -56 9 -100t55 -66t94 -55q164 -85 207 -189t12 -244q-43 -206 -193 -336t-362 -130q-121 0 -191 18t-135 59l60 277q135 -111 276 -111q102 0 166 53q63 52 79 130t-30 128q-47 50 -155 103q-254 127 -195 407q39 188 183 322t347 133
q62 0 88 -4q27 -4 53 -7t58 -20q32 -16 51 -23t27 -15l-51 -242q-106 86 -230 86zM767 1892q48 0 73 -37l147 -217l-96 -79l-162 155l-233 -155l-58 79l238 217q43 37 91 37z" />
    <glyph glyph-name="scircumflex" unicode="&#x15d;" horiz-adv-x="774" 
d="M489 872q-51 0 -86 -30t-45 -78q-18 -90 94 -148t144 -131q32 -72 12 -172q-32 -141 -150 -237t-280 -96q-102 0 -231 53l51 235q72 -80 188 -80q51 0 89 32q37 32 49 84t-8 85t-78 62q-111 53 -141 126t-11 166q31 137 138 232q108 94 247 94t229 -59l-47 -222
q-80 84 -164 84zM554 1475q48 0 73 -37l147 -217l-96 -80l-162 155l-233 -155l-58 80l238 217q43 37 91 37z" />
    <glyph glyph-name="Scedilla" unicode="&#x15e;" horiz-adv-x="1001" 
d="M594 -254q-20 -104 -170 -147t-383 -19l72 101q121 -14 203 5t92 58q8 37 -38 48t-169 3l65 88q199 18 273 -17q73 -36 55 -120zM696 1274q-186 0 -223 -174q-13 -56 9 -100t55 -66t94 -55q164 -85 207 -189t12 -244q-43 -206 -193 -336t-362 -130q-121 0 -191 18
t-135 59l60 277q135 -111 276 -111q102 0 166 53q63 52 79 130t-30 128q-47 50 -155 103q-254 127 -195 407q39 188 183 322t347 133q62 0 88 -4q27 -4 53 -7t58 -20q32 -16 51 -23t27 -15l-51 -242q-106 86 -230 86z" />
    <glyph glyph-name="scedilla" unicode="&#x15f;" horiz-adv-x="774" 
d="M479 -254q-20 -104 -170 -147t-383 -19l72 101q121 -14 203 5t91 57t-37 49t-169 3l66 88q199 19 272 -17t55 -120zM489 872q-51 0 -86 -30t-45 -78q-18 -90 94 -148t144 -131q32 -72 12 -172q-32 -141 -150 -237t-280 -96q-102 0 -231 53l51 235q72 -80 188 -80
q51 0 89 32q37 32 49 84t-8 85t-78 62q-111 53 -141 126t-11 166q31 137 138 232q108 94 247 94t229 -59l-47 -222q-80 84 -164 84z" />
    <glyph glyph-name="Scaron" unicode="&#x160;" horiz-adv-x="1001" 
d="M696 1274q-186 0 -223 -174q-13 -56 9 -100t55 -66t94 -55q164 -85 207 -189t12 -244q-43 -206 -193 -336t-362 -130q-121 0 -191 18t-135 59l60 277q135 -111 276 -111q102 0 166 53q63 52 79 130t-30 128q-47 50 -155 103q-254 127 -195 407q39 188 183 322t347 133
q62 0 88 -4q27 -4 53 -7t58 -20q32 -16 51 -23t27 -15l-51 -242q-106 86 -230 86zM690 1550q-49 0 -76 39l-149 217l92 76l170 -158l234 158l61 -76l-238 -217q-45 -39 -94 -39z" />
    <glyph glyph-name="scaron" unicode="&#x161;" horiz-adv-x="774" 
d="M489 872q-51 0 -86 -30t-45 -78q-18 -90 94 -148t144 -131q32 -72 12 -172q-32 -141 -150 -237t-280 -96q-102 0 -231 53l51 235q72 -80 188 -80q51 0 89 32q37 32 49 84t-8 85t-78 62q-111 53 -141 126t-11 166q31 137 138 232q108 94 247 94t229 -59l-47 -222
q-80 84 -164 84zM480 1149q-52 0 -79 39l-145 217l90 76l170 -160l236 160l61 -76l-240 -217q-41 -39 -93 -39z" />
    <glyph glyph-name="Tcedilla" unicode="&#x162;" horiz-adv-x="944" 
d="M403 -92q96 -86 81 -200t-126 -186t-245 -87l-29 121q76 10 130 52t67 113q10 86 -91 187h213zM1036 1479l-49 -236h-262l-264 -1243h-287l264 1243h-264l49 236h813z" />
    <glyph glyph-name="tcedilla" unicode="&#x163;" horiz-adv-x="659" 
d="M322 -92q95 -86 80 -200t-126 -186t-245 -87l-29 121q76 10 130 52t67 113q10 86 -90 187h213zM410 182q27 0 63 11l-39 -185q-53 -29 -141 -28q-139 0 -193 86q-53 86 -24 215l121 569h-105l43 197h105l47 223l280 80l-63 -303h147l-43 -197h-147l-117 -547
q-25 -121 66 -121z" />
    <glyph glyph-name="Tcaron" unicode="&#x164;" horiz-adv-x="944" 
d="M1036 1479l-49 -236h-262l-264 -1243h-287l264 1243h-264l49 236h813zM620 1565q-52 0 -79 39l-146 217l88 75l172 -159l236 159l61 -75l-239 -217q-41 -39 -93 -39z" />
    <glyph glyph-name="tcaron" unicode="&#x165;" horiz-adv-x="659" 
d="M410 182q27 0 63 11l-39 -185q-53 -29 -141 -28q-139 0 -193 86q-53 86 -24 215l121 569h-105l43 197h105l47 223l280 80l-63 -303h147l-43 -197h-147l-117 -547q-25 -121 66 -121zM1023 1485q19 -53 8 -132t-63 -152t-108 -116h-192q139 164 153 263q18 125 -82 213h230
q35 -23 54 -76z" />
    <glyph glyph-name="Tbar" unicode="&#x166;" horiz-adv-x="944" 
d="M1036 1479l-49 -236h-262l-96 -452h188l-43 -201h-188l-125 -590h-287l125 590h-188l43 201h188l96 452h-264l49 236h813z" />
    <glyph glyph-name="tbar" unicode="&#x167;" horiz-adv-x="659" 
d="M410 182q27 0 63 11l-39 -185q-53 -29 -141 -28q-139 0 -193 86q-53 86 -24 215l45 215h-107l39 182h107l37 172h-105l43 197h105l47 223l280 80l-63 -303h147l-43 -197h-147l-37 -172h127l-39 -182h-127l-41 -193q-25 -121 66 -121z" />
    <glyph glyph-name="Utilde" unicode="&#x168;" horiz-adv-x="1175" 
d="M1204 1479l-221 -1041q-43 -209 -198 -334q-155 -124 -357 -124t-303 124q-102 124 -59 334l221 1041h284l-221 -1047q-20 -100 20 -154t120 -54t140 54q62 54 85 158l221 1043h268zM653 1673q-47 0 -107 -42t-87 -83l39 181q88 102 182 102q53 0 121 -42q67 -42 117 -42
t110 43t84 84l-39 -180q-84 -104 -178 -105q-51 0 -123 42t-119 42z" />
    <glyph glyph-name="utilde" unicode="&#x169;" horiz-adv-x="1024" 
d="M975 1047l-209 -984q-172 -83 -392 -83t-298 88t-39 276l149 703h273l-154 -723q-29 -139 98 -140q72 0 119 27l178 836h275zM504 1255q-48 0 -108 -42t-87 -83l39 181q88 102 182 102q53 0 121 -42t118 -42q49 0 109 43t85 84l-39 -180q-84 -104 -179 -105
q-51 0 -123 42t-118 42z" />
    <glyph glyph-name="Umacron" unicode="&#x16a;" horiz-adv-x="1175" 
d="M1204 1479l-221 -1041q-43 -209 -198 -334q-155 -124 -357 -124t-303 124q-102 124 -59 334l221 1041h284l-221 -1047q-20 -100 20 -154t120 -54t140 54q62 54 85 158l221 1043h268zM1090 1804l-35 -166h-602l34 166h603z" />
    <glyph glyph-name="umacron" unicode="&#x16b;" horiz-adv-x="1024" 
d="M975 1047l-209 -984q-172 -83 -392 -83t-298 88t-39 276l149 703h273l-154 -723q-29 -139 98 -140q72 0 119 27l178 836h275zM954 1386l-34 -165h-603l35 165h602z" />
    <glyph glyph-name="Ubreve" unicode="&#x16c;" horiz-adv-x="1175" 
d="M1204 1479l-221 -1041q-43 -209 -198 -334q-155 -124 -357 -124t-303 124q-102 124 -59 334l221 1041h284l-221 -1047q-20 -100 20 -154t120 -54t140 54q62 54 85 158l221 1043h268zM760 1573q-96 0 -151 50q-54 50 -58 115t4 126l102 28q2 -156 136 -155q125 0 206 155
l88 -28q-23 -109 -107 -200t-220 -91z" />
    <glyph glyph-name="ubreve" unicode="&#x16d;" horiz-adv-x="1024" 
d="M975 1047l-209 -984q-172 -83 -392 -83t-298 88t-39 276l149 703h273l-154 -723q-29 -139 98 -140q72 0 119 27l178 836h275zM580 1155q-96 0 -151 50q-54 50 -58 115t4 126l102 29q2 -156 135 -156q125 0 207 156l88 -29q-23 -109 -107 -200t-220 -91z" />
    <glyph glyph-name="Uring" unicode="&#x16e;" horiz-adv-x="1175" 
d="M815 1831q-33 0 -59 -25q-26 -26 -35 -60q-8 -34 8 -58t49 -25q34 1 60 25t34 59t-8 59t-49 25zM1204 1479l-221 -1041q-43 -209 -198 -334q-155 -124 -357 -124t-303 124q-102 124 -59 334l221 1041h284l-221 -1047q-20 -100 20 -154t120 -54t140 54q62 54 85 158
l221 1043h268zM758 1567q-68 0 -108 53t-25 127q14 74 77 127q62 53 132 53t108 -53t25 -127t-77 -127t-132 -53z" />
    <glyph glyph-name="uring" unicode="&#x16f;" horiz-adv-x="1024" 
d="M612 1245q33 1 60 25t35 59q7 35 -9 60t-49 25t-59 -26q-26 -24 -35 -59q-8 -35 8 -59t49 -25zM975 1047l-209 -984q-172 -83 -392 -83t-298 88t-39 276l149 703h273l-154 -723q-29 -139 98 -140q72 0 119 27l178 836h275zM592 1149q-68 0 -108 53t-25 127q13 74 77 127
t133 53t107 -53t25 -127t-77 -127t-132 -53z" />
    <glyph glyph-name="Uhungarumlaut" unicode="&#x170;" horiz-adv-x="1175" 
d="M1204 1479l-221 -1041q-43 -209 -198 -334q-155 -124 -357 -124t-303 124q-102 124 -59 334l221 1041h284l-221 -1047q-20 -100 20 -154t120 -54t140 54q62 54 85 158l221 1043h268zM823 1888q68 0 64 -47l-273 -264h-102l186 262q57 49 125 49zM1090 1888q68 0 67 -47
l-276 -264h-99l187 262q53 49 121 49z" />
    <glyph glyph-name="uhungarumlaut" unicode="&#x171;" horiz-adv-x="1024" 
d="M975 1047l-209 -984q-172 -83 -392 -83t-298 88t-39 276l149 703h273l-154 -723q-29 -139 98 -140q72 0 119 27l178 836h275zM668 1470q68 0 63 -47l-272 -264h-103l187 262q57 49 125 49zM934 1470q68 0 67 -47l-276 -264h-98l186 262q53 49 121 49z" />
    <glyph glyph-name="Uogonek" unicode="&#x172;" horiz-adv-x="1175" 
d="M502 -209q0 -94 184 -20l12 -93q-96 -49 -185 -62q-89 -14 -147 18t-59 108q0 106 191 244q-27 -6 -70 -6q-201 0 -303 124t-59 334l221 1041h284l-221 -1047q-20 -100 20 -154t120 -54t140 54q62 54 85 158l221 1043h268l-221 -1041q-45 -205 -170 -307
q-211 -176 -261 -234t-50 -106z" />
    <glyph glyph-name="uogonek" unicode="&#x173;" horiz-adv-x="1024" 
d="M297 -258q0 123 190 244q-74 -6 -133 -6q-200 0 -278 88t-39 276l149 703h273l-154 -723q-29 -139 98 -140q72 0 119 27l178 836h275l-209 -984q-141 -61 -208 -140t-66 -132q0 -94 184 -20l12 -93q-96 -49 -185 -62t-148 18q-58 32 -58 108z" />
    <glyph glyph-name="Wcircumflex" unicode="&#x174;" horiz-adv-x="1587" 
d="M1704 1479l-612 -1479h-265l11 807l8 149h-6q-18 -72 -52 -149l-335 -807h-265l13 1479h297l-52 -893l-16 -160h4q27 80 60 160l364 893h213l-16 -893l-13 -160h2q27 82 56 160l332 893h272zM1040 1892q49 0 74 -37l148 -217l-97 -79l-161 155l-234 -155l-57 79l237 217
q41 37 90 37z" />
    <glyph glyph-name="wcircumflex" unicode="&#x175;" horiz-adv-x="1456" 
d="M385 444q0 -79 -16 -151h4q14 61 55 151l272 603h224l8 -603q0 -76 -10 -129l-2 -22h4q18 76 51 153l248 601h241l-483 -1047h-252l-12 567q0 85 8 125l2 21h-2q-20 -76 -51 -146l-260 -567h-250l-37 1047h272zM895 1475q49 0 72 -37l147 -217l-96 -80l-162 155
l-233 -155l-58 80l238 217q43 37 92 37z" />
    <glyph glyph-name="Ycircumflex" unicode="&#x176;" horiz-adv-x="1032" 
d="M1174 1479l-543 -875l-129 -604h-287l129 604l-174 875h305l88 -578h4l330 578h277zM763 1892q48 0 73 -37l147 -217l-96 -79l-162 155l-233 -155l-58 79l238 217q43 37 91 37z" />
    <glyph glyph-name="ycircumflex" unicode="&#x177;" horiz-adv-x="970" 
d="M987 1047l-747 -1487h-289l252 440l-82 1047h289l2 -605q0 -83 -15 -143l-4 -23h4q23 78 62 166l272 605h256zM657 1475q49 0 74 -37l148 -217l-97 -80l-161 155l-234 -155l-57 80l237 217q41 37 90 37z" />
    <glyph glyph-name="Ydieresis" unicode="&#x178;" horiz-adv-x="1032" 
d="M1174 1479l-543 -875l-129 -604h-287l129 604l-174 875h305l88 -578h4l330 578h277zM526 1573q-54 0 -81 36q-28 36 -17 87q10 51 54 88t98 37t82 -37q30 -37 20 -88t-56 -87t-100 -36zM888 1573q-52 0 -82 36t-20 87t56 88t99 37t81 -37t18 -88t-55 -87t-97 -36z" />
    <glyph glyph-name="Zacute" unicode="&#x179;" horiz-adv-x="919" 
d="M999 1479l-690 -1243h432l-49 -236h-811l688 1243h-381l50 236h761zM928 1864l-299 -287h-158l188 295q73 45 167 44t102 -52z" />
    <glyph glyph-name="zacute" unicode="&#x17a;" horiz-adv-x="798" 
d="M782 1047l-487 -850h311l-41 -197h-665l501 850h-288l43 197h626zM813 1446l-299 -287h-158l189 295q74 45 167 44t101 -52z" />
    <glyph glyph-name="Zdot" unicode="&#x17b;" horiz-adv-x="919" 
d="M999 1479l-690 -1243h432l-49 -236h-811l688 1243h-381l50 236h761zM633 1628q-55 0 -87 44t-18 106t64 105q50 44 104 44q55 0 86 -44t17 -106q-15 -61 -63 -105t-103 -44z" />
    <glyph glyph-name="zdot" unicode="&#x17c;" horiz-adv-x="798" 
d="M782 1047l-487 -850h311l-41 -197h-665l501 850h-288l43 197h626zM498 1210q-55 0 -87 44t-18 106q13 62 63 105q50 44 105 44t86 -44t17 -106q-14 -61 -62 -105t-104 -44z" />
    <glyph glyph-name="Zcaron" unicode="&#x17d;" horiz-adv-x="919" 
d="M999 1479l-690 -1243h432l-49 -236h-811l688 1243h-381l50 236h761zM635 1550q-49 0 -76 39l-151 217l94 76l170 -158l233 158l64 -76l-244 -217q-41 -39 -90 -39z" />
    <glyph glyph-name="zcaron" unicode="&#x17e;" horiz-adv-x="798" 
d="M782 1047l-487 -850h311l-41 -197h-665l501 850h-288l43 197h626zM484 1147q-48 0 -74 39l-148 217l90 76l170 -160l236 160l61 -76l-241 -217q-46 -39 -94 -39z" />
    <glyph glyph-name="longs" unicode="&#x17f;" horiz-adv-x="610" 
d="M756 1522l-41 -191q-143 6 -178 -151l-250 -1180h-271l181 850h-105l43 197h105l22 106q42 197 174 295t320 74z" />
    <glyph glyph-name="florin" unicode="&#x192;" horiz-adv-x="1136" 
d="M1051 1280q-113 0 -195 -213l-68 -172h197l-43 -205h-235l-265 -682q-76 -196 -202 -318t-283 -122q-109 0 -178 45l82 221q39 -31 99 -31q60 -1 109 57q48 58 105 203l244 627h-195l43 205h232l71 182q81 209 183 315t280 107q111 0 193 -39l-74 -203q-49 23 -100 23z
" />
    <glyph glyph-name="gacute" unicode="&#x1f5;" horiz-adv-x="1028" 
d="M453 514q82 0 133 51t69 135q39 186 -125 187q-162 -1 -200 -187t123 -186zM352 201h144q166 0 238 -89t42 -238q-31 -149 -169 -247t-345 -98t-308 73t-73 199q8 39 41 111h242q-29 -33 -40 -90t42 -86t142 -29t150 44q60 43 73 109t-16 88q-30 22 -112 21h-129
q-112 0 -184 50t-48 163t140 209q-137 98 -92 309q35 168 157 268t322 101q76 0 158 -22h313l-34 -160h-115q23 -90 4 -187q-33 -160 -154 -264t-327 -104l-84 2q-45 -33 -52 -67q-6 -34 16 -50t58 -16zM895 1446l-299 -287h-158l189 295q74 45 167 44t101 -52z" />
    <glyph glyph-name="Aringacute" unicode="&#x1fa;" horiz-adv-x="1185" 
d="M694 565l-22 455l4 170h-4q-23 -72 -68 -170l-211 -455h301zM801 1726q-27 0 -49 -18t-26 -44q-5 -26 8 -44t40 -18q28 0 50 18t27 44t-9 44t-41 18zM1018 0h-295l-18 367h-406l-174 -367h-268l735 1458h309zM752 1487q-74 0 -115 52t-27 126q16 74 80 126t137 52
q74 0 115 -52t25 -126q-17 -74 -79 -126t-136 -52zM1108 2087l-219 -219h-176l182 219h213z" />
    <glyph glyph-name="aringacute" unicode="&#x1fb;" horiz-adv-x="970" 
d="M557 539q-141 -15 -219 -61t-100 -154q-39 -176 137 -177q59 0 104 23zM592 1225q26 0 48 18t28 44t-8 44q-14 19 -42 19q-26 0 -48 -18t-26 -45q-4 -26 8 -44q13 -18 40 -18zM453 879q-92 0 -250 -64l43 199q176 55 307 55q371 0 291 -383l-133 -627q-150 -79 -370 -79
t-306 84t-51 247q27 129 120 212q94 83 209 117t277 50l10 49q16 78 -19 109q-36 31 -128 31zM570 1110q-74 0 -116 52q-40 52 -26 125t78 126t138 53q76 0 116 -52t24 -126t-78 -126t-136 -52zM930 1726l-219 -219h-176l180 219h215z" />
    <glyph glyph-name="AEacute" unicode="&#x1fc;" horiz-adv-x="1474" 
d="M752 1184h-4q-29 -68 -68 -140l-264 -479h297l20 479q0 65 15 119zM977 1243v-375h336l-49 -229h-291l2 -403h340l-49 -236h-588l12 367h-385l-207 -365h-270l870 1477h742l-49 -236h-414zM1376 1864l-299 -287h-157l188 295q74 45 167 44t101 -52z" />
    <glyph glyph-name="aeacute" unicode="&#x1fd;" horiz-adv-x="1474" 
d="M545 537q-135 -13 -215 -63t-103 -155q-35 -170 103 -169q61 0 105 38t59 107zM1018 889q-78 1 -130 -63t-97 -222h321q59 285 -94 285zM950 188q127 0 293 70l-45 -213q-166 -65 -345 -65t-251 155q-113 -156 -321 -155q-178 0 -255 85t-41 255t191 257q156 85 404 113
l10 47q31 141 -137 142q-45 0 -124 -22t-128 -44l43 201q145 55 301 55q182 0 223 -145q127 145 301 145q201 0 269 -172t-7 -444h-565q-23 -109 17 -187t167 -78zM1194 1446l-299 -287h-158l189 295q74 45 167 44t101 -52z" />
    <glyph glyph-name="Oslashacute" unicode="&#x1fe;" horiz-adv-x="1222" 
d="M502 223q231 0 344 529q35 163 35 282l-525 -676q31 -135 146 -135zM727 1282q-227 0 -342 -530q-31 -145 -39 -258l524 669q-37 119 -143 119zM774 1499q180 0 279 -102l121 155l67 -57l-137 -174q111 -207 34 -565t-250 -567q-173 -210 -437 -209q-193 0 -297 120
l-134 -172l-67 58l153 198q-90 203 -16 547t247 556t437 212zM1120 1864l-299 -287h-157l188 295q74 45 167 44t101 -52z" />
    <glyph glyph-name="oslashacute" unicode="&#x1ff;" horiz-adv-x="997" 
d="M379 172q154 0 225 352q29 136 27 193l-344 -471q20 -74 92 -74zM528 879q-154 0 -227 -355q-20 -98 -25 -180l345 469q-23 66 -93 66zM928 1120l-115 -157q119 -131 55 -439q-53 -244 -192 -394t-338 -150q-121 0 -205 61l-110 -154l-54 39l119 164q-114 148 -56 412
t198 416t337 151q123 0 199 -59l108 149zM940 1446l-299 -287h-158l189 295q74 45 167 44t101 -52z" />
    <glyph glyph-name="Scommaaccent" unicode="&#x218;" horiz-adv-x="1001" 
d="M444 -92q96 -86 81 -200t-126 -186t-245 -87l-29 121q76 10 130 52t67 113q10 86 -91 187h213zM696 1274q-186 0 -223 -174q-13 -56 9 -100t55 -66t94 -55q164 -85 207 -189t12 -244q-43 -206 -193 -336t-362 -130q-121 0 -191 18t-135 59l60 277q135 -111 276 -111
q102 0 166 53q63 52 79 130t-30 128q-47 50 -155 103q-254 127 -195 407q39 188 183 322t347 133q62 0 88 -4q27 -4 53 -7t58 -20q32 -16 51 -23t27 -15l-51 -242q-106 86 -230 86z" />
    <glyph glyph-name="scommaaccent" unicode="&#x219;" horiz-adv-x="774" 
d="M322 -92q95 -86 80 -200t-126 -186t-245 -87l-29 121q76 10 130 52t67 113q10 86 -90 187h213zM489 872q-51 0 -86 -30t-45 -78q-18 -90 94 -148t144 -131q32 -72 12 -172q-32 -141 -150 -237t-280 -96q-102 0 -231 53l51 235q72 -80 188 -80q51 0 89 32q37 32 49 84
t-8 85t-78 62q-111 53 -141 126t-11 166q31 137 138 232q108 94 247 94t229 -59l-47 -222q-80 84 -164 84z" />
    <glyph glyph-name="uni021A" unicode="&#x21a;" horiz-adv-x="944" 
d="M403 -92q96 -86 81 -200t-126 -186t-245 -87l-29 121q76 10 130 52t67 113q10 86 -91 187h213zM1036 1479l-49 -236h-262l-264 -1243h-287l264 1243h-264l49 236h813z" />
    <glyph glyph-name="uni021B" unicode="&#x21b;" horiz-adv-x="659" 
d="M322 -92q95 -86 80 -200t-126 -186t-245 -87l-29 121q76 10 130 52t67 113q10 86 -90 187h213zM410 182q27 0 63 11l-39 -185q-53 -29 -141 -28q-139 0 -193 86q-53 86 -24 215l121 569h-105l43 197h105l47 223l280 80l-63 -303h147l-43 -197h-147l-117 -547
q-25 -121 66 -121z" />
    <glyph glyph-name="circumflex" unicode="&#x2c6;" 
d="M574 1475q48 0 73 -37l148 -217l-97 -80l-161 155l-234 -155l-57 80l237 217q43 37 91 37z" />
    <glyph glyph-name="caron" unicode="&#x2c7;" 
d="M505 1147q-52 0 -79 39l-145 217l88 76l172 -160l235 160l62 -76l-240 -217q-41 -39 -93 -39z" />
    <glyph glyph-name="breve" unicode="&#x2d8;" 
d="M506 1155q-96 0 -151 50q-54 50 -58 115t4 126l102 29q2 -156 136 -156q125 0 206 156l89 -29q-23 -109 -107 -200t-221 -91z" />
    <glyph glyph-name="dotaccent" unicode="&#x2d9;" 
d="M582 1509q56 0 86 -44t16 -106q-14 -61 -62 -105t-104 -44t-87 44t-17 106t63 105q49 44 105 44z" />
    <glyph glyph-name="ring" unicode="&#x2da;" 
d="M524 1245q34 1 60 25t34 59t-8 60t-49 25t-59 -26q-26 -24 -35 -59q-8 -35 8 -59t49 -25zM504 1149q-68 0 -108 53t-25 127q13 74 77 127t133 53t107 -53t25 -127t-77 -127t-132 -53z" />
    <glyph glyph-name="ogonek" unicode="&#x2db;" 
d="M299 -208q0 -95 184 -21l13 -93q-96 -49 -186 -62q-90 -14 -147 18q-58 32 -59 108q0 133 267 270h159q-231 -125 -231 -220z" />
    <glyph glyph-name="tilde" unicode="&#x2dc;" 
d="M400 1255q-46 0 -108 -42q-60 -42 -87 -83l39 181q88 102 182 102q53 0 121 -42q67 -42 117 -42t110 43t84 84l-39 -180q-84 -104 -178 -105q-51 0 -123 42t-118 42z" />
    <glyph glyph-name="hungarumlaut" unicode="&#x2dd;" 
d="M548 1470q68 0 64 -47l-272 -264h-102l186 262q56 49 124 49zM815 1470q68 0 68 -47l-277 -264h-98l186 262q53 49 121 49z" />
    <glyph glyph-name="gravecmb" unicode="&#x300;" 
d="M424 1577h-156l-176 287q29 51 123 52t147 -44z" />
    <glyph glyph-name="acutecmb" unicode="&#x301;" 
d="M567 1864l-299 -287h-157l188 295q74 45 167 44t101 -52z" />
    <glyph glyph-name="circumflexcmb" unicode="&#x302;" 
d="M492 1892q48 0 73 -37l148 -217l-97 -79l-161 155l-234 -155l-57 79l237 217q43 37 91 37z" />
    <glyph glyph-name="tildecmb" unicode="&#x303;" 
d="M318 1673q-46 0 -108 -42q-60 -42 -87 -83l39 181q88 102 182 102q53 0 121 -42t118 -42t109 43t84 84l-39 -180q-84 -104 -178 -105q-51 0 -123 42t-118 42z" />
    <glyph glyph-name="macroncmb" unicode="&#x304;" 
d="M774 1804l-35 -166h-602l35 166h602z" />
    <glyph glyph-name="brevecmb" unicode="&#x306;" 
d="M424 1573q-96 0 -151 50q-54 50 -58 115t4 126l103 28q2 -156 135 -155q125 0 207 155l88 -28q-23 -109 -107 -200t-221 -91z" />
    <glyph glyph-name="dotaccentcmb" unicode="&#x307;" 
d="M500 1927q56 0 86 -44t16 -106q-14 -61 -62 -105t-104 -44t-87 44t-17 106t63 105q49 44 105 44z" />
    <glyph glyph-name="dieresiscmb" unicode="&#x308;" 
d="M255 1593q-52 0 -81 36t-18 87q10 51 55 88t96 37t82 -37t21 -88t-56 -87t-99 -36zM614 1593q-54 0 -82 36q-29 36 -18 87q10 51 55 88t99 37t82 -37q30 -37 20 -88t-56 -87t-100 -36z" />
    <glyph glyph-name="ringcmb" unicode="&#x309;" 
d="M479 1831q-33 0 -59 -25q-26 -26 -35 -60q-8 -34 8 -58t49 -25q33 1 60 25t35 59q7 35 -9 59t-49 25zM422 1567q-68 0 -108 53t-25 127q13 74 77 127t133 53t107 -53t25 -127t-77 -127t-132 -53z" />
    <glyph glyph-name="hungarumlautcmb" unicode="&#x30b;" 
d="M466 1888q68 0 64 -47l-272 -264h-102l186 262q56 49 124 49zM733 1888q68 0 68 -47l-277 -264h-98l186 262q53 49 121 49z" />
    <glyph glyph-name="caroncmb" unicode="&#x30c;" 
d="M423 1565q-52 0 -79 39l-145 217l88 75l172 -159l235 159l62 -75l-240 -217q-41 -39 -93 -39z" />
    <glyph glyph-name="cedillacmb" unicode="&#x327;" 
d="M465 -254q-20 -104 -170 -147t-383 -19l72 101q120 -14 202 5t93 58q8 37 -38 48t-169 3l65 88q199 18 273 -17q73 -36 55 -120z" />
    <glyph glyph-name="ogonekcmb" unicode="&#x328;" 
d="M299 -208q0 -95 184 -21l13 -93q-96 -49 -186 -62q-90 -14 -147 18q-58 32 -59 108q0 133 267 270h159q-231 -125 -231 -220z" />
    <glyph glyph-name="soliduslongoverlaycmb" unicode="&#x338;" horiz-adv-x="512" 
 />
    <glyph glyph-name="Delta" unicode="&#x394;" horiz-adv-x="1140" 
d="M674 236l-23 786l2 143h-4q-47 -111 -61 -143l-365 -786h451zM973 0h-1116l723 1479h294z" />
    <glyph glyph-name="Delta" unicode="&#x2206;" horiz-adv-x="1140" 
d="M674 236l-23 786l2 143h-4q-47 -111 -61 -143l-365 -786h451zM973 0h-1116l723 1479h294z" />
    <glyph glyph-name="Omega" unicode="&#x3a9;" horiz-adv-x="1290" 
d="M762 1282q-116 0 -200 -126q-83 -126 -130 -345q-109 -510 4 -811h-512l47 223h217q-45 111 -60 267t17 337q63 297 237 485t429 187q168 0 269 -90q101 -89 121 -239t-15 -343q-35 -161 -121 -327t-178 -277h215l-47 -223h-512q238 301 346 811q49 207 19 339t-146 132z
" />
    <glyph glyph-name="Omega" unicode="&#x2126;" horiz-adv-x="1290" 
d="M762 1282q-116 0 -200 -126q-83 -126 -130 -345q-109 -510 4 -811h-512l47 223h217q-45 111 -60 267t17 337q63 297 237 485t429 187q168 0 269 -90q101 -89 121 -239t-15 -343q-35 -161 -121 -327t-178 -277h215l-47 -223h-512q238 301 346 811q49 207 19 339t-146 132z
" />
    <glyph glyph-name="pi" unicode="&#x3c0;" horiz-adv-x="1210" 
d="M1198 1047l-41 -189h-117l-110 -524q-20 -54 -4 -100t90 -39l-41 -195q-111 -12 -183 4t-105 47q-32 31 -42 84t-6 89t14 89l115 545h-256l-182 -858h-273l183 858h-119l41 189h1036z" />
    <glyph glyph-name="Wgrave" unicode="&#x1e80;" horiz-adv-x="1587" 
d="M1704 1479l-612 -1479h-265l11 807l8 149h-6q-18 -72 -52 -149l-335 -807h-265l13 1479h297l-52 -893l-16 -160h4q27 80 60 160l364 893h213l-16 -893l-13 -160h2q27 82 56 160l332 893h272zM1079 1577h-155l-176 287q28 51 122 52t148 -44z" />
    <glyph glyph-name="wgrave" unicode="&#x1e81;" horiz-adv-x="1456" 
d="M385 444q0 -79 -16 -151h4q14 61 55 151l272 603h224l8 -603q0 -76 -10 -129l-2 -22h4q18 76 51 153l248 601h241l-483 -1047h-252l-12 567q0 85 8 125l2 21h-2q-20 -76 -51 -146l-260 -567h-250l-37 1047h272zM950 1159h-155l-177 287q29 51 123 52t148 -44z" />
    <glyph glyph-name="Wacute" unicode="&#x1e82;" horiz-adv-x="1587" 
d="M1704 1479l-612 -1479h-265l11 807l8 149h-6q-18 -72 -52 -149l-335 -807h-265l13 1479h297l-52 -893l-16 -160h4q27 80 60 160l364 893h213l-16 -893l-13 -160h2q27 82 56 160l332 893h272zM1284 1864l-299 -287h-158l189 295q74 45 167 44t101 -52z" />
    <glyph glyph-name="wacute" unicode="&#x1e83;" horiz-adv-x="1456" 
d="M385 444q0 -79 -16 -151h4q14 61 55 151l272 603h224l8 -603q0 -76 -10 -129l-2 -22h4q18 76 51 153l248 601h241l-483 -1047h-252l-12 567q0 85 8 125l2 21h-2q-20 -76 -51 -146l-260 -567h-250l-37 1047h272zM1135 1446l-299 -287h-158l188 295q74 45 168 44t101 -52z
" />
    <glyph glyph-name="Wdieresis" unicode="&#x1e84;" horiz-adv-x="1587" 
d="M1704 1479l-612 -1479h-265l11 807l8 149h-6q-18 -72 -52 -149l-335 -807h-265l13 1479h297l-52 -893l-16 -160h4q27 80 60 160l364 893h213l-16 -893l-13 -160h2q27 82 56 160l332 893h272zM804 1593q-52 0 -81 36t-18 87q10 51 55 88t96 37q52 0 82 -37t20 -88t-56 -87
t-98 -36zM1164 1593q-54 0 -83 36t-18 87q10 51 55 88q44 37 98 37t84 -37t19 -88q-10 -51 -56 -87q-45 -36 -99 -36z" />
    <glyph glyph-name="wdieresis" unicode="&#x1e85;" horiz-adv-x="1456" 
d="M385 444q0 -79 -16 -151h4q14 61 55 151l272 603h224l8 -603q0 -76 -10 -129l-2 -22h4q18 76 51 153l248 601h241l-483 -1047h-252l-12 567q0 85 8 125l2 21h-2q-20 -76 -51 -146l-260 -567h-250l-37 1047h272zM692 1423q51 0 82 -37t21 -88q-11 -51 -57 -87
q-46 -35 -98 -35t-81 36t-18 86q10 51 55 88t96 37zM1052 1423q54 0 84 -37t19 -88q-10 -51 -56 -87q-45 -35 -99 -35t-82 36t-19 86q10 51 55 88q44 37 98 37z" />
    <glyph glyph-name="Ygrave" unicode="&#x1ef2;" horiz-adv-x="1032" 
d="M1174 1479l-543 -875l-129 -604h-287l129 604l-174 875h305l88 -578h4l330 578h277zM776 1577h-155l-177 287q29 51 123 52t148 -44z" />
    <glyph glyph-name="ygrave" unicode="&#x1ef3;" horiz-adv-x="970" 
d="M987 1047l-747 -1487h-289l252 440l-82 1047h289l2 -605q0 -83 -15 -143l-4 -23h4q23 78 62 166l272 605h256zM662 1159h-156l-176 287q29 51 123 52t147 -44z" />
    <glyph glyph-name="endash" unicode="&#x2013;" horiz-adv-x="792" 
d="M774 682l-41 -188h-776l41 188h776z" />
    <glyph glyph-name="emdash" unicode="&#x2014;" horiz-adv-x="1568" 
d="M1546 668l-33 -160h-1552l33 160h1552z" />
    <glyph glyph-name="quoteleft" unicode="&#x2018;" horiz-adv-x="587" 
d="M242 924q-96 0 -88 94l411 590h146l-291 -590q-74 -94 -178 -94z" />
    <glyph glyph-name="quoteright" unicode="&#x2019;" horiz-adv-x="587" 
d="M578 1622q92 0 88 -94l-410 -592h-150l291 592q78 94 181 94z" />
    <glyph glyph-name="quotesinglbase" unicode="&#x201a;" horiz-adv-x="587" 
d="M305 338q94 0 86 -94l-407 -590h-150l289 590q78 94 182 94z" />
    <glyph glyph-name="quotedblleft" unicode="&#x201c;" horiz-adv-x="989" 
d="M242 924q-96 0 -88 94l411 590h146l-291 -590q-74 -94 -178 -94zM647 924q-100 0 -96 94l414 590h147l-293 -590q-72 -94 -172 -94z" />
    <glyph glyph-name="quotedblright" unicode="&#x201d;" horiz-adv-x="989" 
d="M578 1622q92 0 88 -94l-410 -592h-150l291 592q78 94 181 94zM972 1622q95 0 95 -94l-414 -592h-147l293 592q78 94 173 94z" />
    <glyph glyph-name="quotedblbase" unicode="&#x201e;" horiz-adv-x="989" 
d="M305 338q94 0 86 -94l-407 -590h-150l289 590q78 94 182 94zM705 338q92 0 88 -94l-412 -590h-148l291 590q78 94 181 94z" />
    <glyph glyph-name="dagger" unicode="&#x2020;" horiz-adv-x="1132" 
d="M1133 1116l-68 -319l-356 24l-244 -1261h-299l293 1261l-363 -24l68 319l352 -24l86 516h299l-135 -516z" />
    <glyph glyph-name="daggerdbl" unicode="&#x2021;" horiz-adv-x="1132" 
d="M1130 1112l-53 -258l-362 16l-113 -530l369 14l-56 -256l-360 17l-98 -555h-281l137 555l-366 -17l55 256l358 -14l113 530l-364 -16l53 258l360 -16l90 512h281l-129 -512z" />
    <glyph glyph-name="bullet" unicode="&#x2022;" horiz-adv-x="741" 
d="M313 465q-109 0 -167 85t-33 206q27 121 121 206q95 85 204 85q110 0 168 -85t32 -206t-121 -206t-204 -85z" />
    <glyph glyph-name="ellipsis" unicode="&#x2026;" horiz-adv-x="1734" 
d="M136 -20q-68 0 -104 53t-20 127t74 127t126 53t104 -53t20 -127t-74 -127t-126 -53zM709 -20q-66 0 -104 53t-21 127q14 74 74 127t126 53t102 -53t22 -127q-15 -74 -74 -127t-125 -53zM1281 -20q-67 0 -103 53t-21 127q17 74 75 127t125 53t103 -53t21 -127
q-17 -74 -75 -127t-125 -53z" />
    <glyph glyph-name="perthousand" unicode="&#x2030;" horiz-adv-x="2318" 
d="M386 682q58 0 102 102t90 367q33 213 -48 213q-59 0 -98 -92t-72 -253q-32 -161 -32 -249t58 -88zM1282 815q-100 0 -172 -342q-33 -133 -33 -236q1 -103 59 -103t97 89q39 90 74 250q75 342 -25 342zM1997 708q-1 104 -59 105q-58 0 -97 -91t-72 -251q-72 -338 25 -338
q59 0 98 90t72 248q33 133 33 237zM351 528q-83 0 -132 44q-113 101 -45 440q106 487 385 487q109 0 159 -78t44 -186q-6 -107 -26 -209q-19 -102 -48 -181t-74 -154q-44 -75 -112 -119t-151 -44zM1346 1450l-910 -1499l-112 59l909 1497zM1311 950q273 0 176 -485
q-36 -178 -121 -322q-45 -75 -113 -119q-69 -44 -151 -44t-131 44t-61 120q-37 221 63 489q118 317 338 317zM1968 950q275 0 178 -487q-28 -123 -68 -223t-124 -180t-193 -80q-218 0 -202 315q14 273 145 491q45 76 114 120t150 44z" />
    <glyph glyph-name="guilsinglleft" unicode="&#x2039;" horiz-adv-x="624" 
d="M563 965l-299 -383l137 -383l-180 -101l-172 484l381 485z" />
    <glyph glyph-name="guilsinglright" unicode="&#x203a;" horiz-adv-x="624" 
d="M510 582l-377 -484l-133 101l295 383l-133 383l178 102z" />
    <glyph glyph-name="fraction" unicode="&#x2044;" horiz-adv-x="354" 
d="M696 1444l-913 -1499l-137 71l913 1497z" />
    <glyph glyph-name="fraction" unicode="&#x2215;" horiz-adv-x="354" 
d="M696 1444l-913 -1499l-137 71l913 1497z" />
    <glyph glyph-name="franc" unicode="&#x20a3;" horiz-adv-x="1099" 
d="M1122 1479l-49 -236h-407l-80 -375h360l-49 -229h-360l-43 -203h225l-43 -200h-225l-50 -236h-284l49 236h-178l43 200h178l221 1043h692z" />
    <glyph glyph-name="Euro" unicode="&#x20ac;" horiz-adv-x="1099" 
d="M477 530q4 -299 210 -299q110 0 196 64l-56 -252q-121 -63 -266 -63q-203 0 -291 150t-67 400h-158l66 144h108q2 31 12 65q4 31 17 72h-131l65 143h113q94 252 253 398t343 147q143 0 233 -63l-49 -236q-49 66 -174 66q-231 0 -340 -312h342l-65 -143h-322
q-25 -105 -29 -137h297l-65 -144h-242z" />
    <glyph glyph-name="afii61289" unicode="&#x2113;" horiz-adv-x="880" 
d="M401 -23q-151 -1 -219 89t-51 237l4 21q-19 -14 -44 -30q-25 -17 -36 -26l-57 125q113 74 174 127l94 486q44 229 140 339q96 109 219 109q237 -1 237 -262q0 -199 -149 -387q-74 -92 -139 -157t-160 -148l-17 -86q-41 -207 99 -207q81 0 194 106l94 -123
q-131 -213 -383 -213zM676 1167q0 80 -43 80q-72 1 -129 -280l-41 -211q213 244 213 411z" />
    <glyph glyph-name="trademark" unicode="&#x2122;" horiz-adv-x="1456" 
d="M713 1479l-23 -115h-170l-125 -586h-135l125 586h-172l23 115h477zM1421 1479l-55 -701h-133l55 533l-256 -533h-123l-32 531l-166 -531h-133l239 701h172l23 -527l235 527h174z" />
    <glyph glyph-name="estimated" unicode="&#x212e;" horiz-adv-x="1673" 
d="M1323 696v377q0 25 -20 45q-195 195 -465 195t-465 -201q-20 -20 -21 -47v-369q0 -10 10 -10h951q10 0 10 10zM1602 647h-1240q-10 0 -10 -8v-375q0 -20 19 -43q190 -203 478 -203t482 228h113q-106 -125 -266 -197t-340 -72q-317 0 -542 202q-224 202 -224 487
q0 284 224 486t542 202t540 -202q223 -202 224 -486v-19z" />
    <glyph glyph-name="partialdiff" unicode="&#x2202;" horiz-adv-x="1099" 
d="M725 731q-153 51 -271 -51t-158 -293t79 -190q111 -1 207 155t143 379zM772 228q-82 -114 -205 -182t-279 -66q-156 0 -229 103q-74 103 -36 277q61 293 281 448t437 93q10 156 -74 253q-85 97 -204 134l127 211q202 -42 334 -237q132 -194 72 -500q-61 -307 -224 -534z
" />
    <glyph glyph-name="product" unicode="&#x220f;" horiz-adv-x="1521" 
d="M782 766q117 0 148 135q29 147 -88 148h-56l-59 -283h55zM776 651h-74l-71 -332h-170l180 842h244q131 1 185 -67t28 -187q-25 -119 -108 -187t-214 -69zM898 1376q-224 0 -424 -189t-254 -449t65 -447q119 -189 343 -189t423 188t253 448q54 258 -64 448t-342 190z
M601 -20q-271 0 -421 224t-84 534t312 536t517 225q271 1 421 -225t84 -536t-312 -534t-517 -224z" />
    <glyph glyph-name="summation" unicode="&#x2211;" horiz-adv-x="1099" 
d="M1133 1479l-46 -219h-473l191 -687l-506 -759h502l-56 -254h-901l664 995l-256 924h881z" />
    <glyph glyph-name="minus" unicode="&#x2212;" horiz-adv-x="1058" 
d="M903 723l-43 -205h-751l43 205h751z" />
    <glyph glyph-name="radical" unicode="&#x221a;" horiz-adv-x="1058" 
d="M1210 1608l-678 -1608h-256l-65 834h-148l39 186h359l12 -643l4 2l484 1229h249z" />
    <glyph glyph-name="infinity" unicode="&#x221e;" horiz-adv-x="1576" 
d="M452 793q-62 1 -115 -47q-51 -48 -67 -116t18 -115q34 -48 96 -48t116 36t141 128q-49 90 -88 126t-101 36zM1149 805q-63 0 -115 -34t-139 -130q47 -92 86 -127t103 -35t114 45t64 115q16 70 -17 118t-96 48zM1036 260q-108 0 -178 50t-125 163q-113 -117 -197 -165
t-190 -48q-150 0 -220 106t-34 268q35 162 150 272t264 110q102 0 166 -50t131 -169q111 117 193 168t196 51q147 0 217 -110t35 -269q-35 -161 -149 -269t-259 -108z" />
    <glyph glyph-name="integral" unicode="&#x222b;" horiz-adv-x="1099" 
d="M1087 1606l-45 -205q-170 10 -204 -160l-273 -1278q-45 -207 -195 -317t-350 -84l43 205q172 -10 207 157l273 1278q45 207 195 318t349 86z" />
    <glyph glyph-name="approxequal" unicode="&#x2248;" horiz-adv-x="1058" 
d="M586 244q-60 0 -150 59t-153 59q-121 0 -228 -94l43 207q100 88 226 88q66 0 156 -59t149 -60q128 1 237 101l-45 -203q-102 -98 -235 -98zM678 674q-62 0 -152 59t-153 60q-121 0 -226 -93l43 205q96 88 226 88q66 0 156 -59t149 -60q131 1 235 101l-43 -203
q-102 -98 -235 -98z" />
    <glyph glyph-name="notequal" unicode="&#x2260;" horiz-adv-x="1058" 
d="M944 913l-41 -186h-246l-153 -211h356l-41 -188h-448l-172 -238l-99 70l121 168h-153l41 188h245l156 211h-358l41 186h450l162 228l100 -68l-114 -160h153z" />
    <glyph glyph-name="lessequal" unicode="&#x2264;" horiz-adv-x="1058" 
d="M809 283l-37 -174h-752l37 174h752zM993 1147l-41 -191l-561 -186l483 -186l-40 -191l-689 297l33 160z" />
    <glyph glyph-name="greaterequal" unicode="&#x2265;" horiz-adv-x="1058" 
d="M809 283l-37 -174h-752l37 174h752zM930 850l-33 -160l-815 -297l41 191l561 186l-483 186l41 191z" />
    <glyph glyph-name="lozenge" unicode="&#x25ca;" horiz-adv-x="1185" 
d="M877 723l-199 469l-369 -436l203 -469zM1104 739l-672 -759l-348 759l672 760z" />
    <glyph glyph-name="apple" unicode="&#xf000;" horiz-adv-x="1601" 
d="M1079 -53q-43 1 -111 29t-136 28t-149 -31t-110 -30q-92 1 -186 113t-153 272q-58 160 -58 299q0 199 106 323t277 125q63 0 147 -31q84 -30 114 -30q28 0 115 33t155 32q190 0 296 -145q-90 -68 -128 -134t-38 -159q0 -94 55 -175q54 -81 150 -122q-78 -188 -169 -292
t-177 -105zM1094 1415q8 -143 -86 -249t-220 -105q2 147 84 242q83 94 222 112z" />
    <glyph glyph-name="dotlessj" unicode="&#xf6be;" 
d="M465 1047l-201 -936q-53 -249 -205 -397t-344 -158l43 204q88 29 142 98q53 69 86 218l207 971h272z" />
    <glyph glyph-name="dotlessj" unicode="&#xfb0f;" 
d="M465 1047l-201 -936q-53 -249 -205 -397t-344 -158l43 204q88 29 142 98q53 69 86 218l207 971h272z" />
    <glyph glyph-name="commaaccent" unicode="&#xf6c3;" 
d="M260 -92q96 -86 81 -200t-126 -186t-246 -87l-28 121q76 10 130 52t66 113q10 86 -90 187h213z" />
    <glyph glyph-name="fi" unicode="&#xfb01;" horiz-adv-x="1107" 
d="M741 1522l-41 -191q-145 6 -178 -151l-26 -133h145l-43 -197h-145l-181 -850h-272l180 850h-102l43 197h102l23 106q41 197 174 295t321 74zM1053 1047l-224 -1047h-272l223 1047h273zM946 1186q-60 0 -95 48q-34 48 -20 116q15 68 69 116t114 50q60 0 96 -49
q34 -49 20 -117t-69 -116t-115 -48z" />
    <glyph glyph-name="fl" unicode="&#xfb02;" horiz-adv-x="1107" 
d="M741 1522l-41 -191q-145 6 -178 -151l-26 -133h145l-43 -197h-145l-181 -850h-272l180 850h-102l43 197h102l23 106q41 197 174 295t321 74zM1143 1479l-314 -1479h-272l313 1479h273z" />
    <glyph glyph-name="Gcedilla" horiz-adv-x="1130" 
d="M731 -254q-20 -104 -170 -147t-383 -19l72 101q121 -14 203 5t91 57t-37 49t-169 3l65 88q199 18 273 -17q73 -36 55 -120zM535 213q43 0 106 18l129 609h264l-164 -777q-145 -84 -368 -83q-283 0 -384 200q-100 200 -26 558q74 356 274 558t465 203q166 0 283 -61
l-51 -246q-78 47 -133 60t-113 14q-324 0 -434 -525q-51 -266 -9 -397t161 -131z" />
    <glyph glyph-name="gcedilla" horiz-adv-x="1028" 
d="M453 514q82 0 133 51t69 135q39 186 -125 187q-162 -1 -200 -187t123 -186zM485 -684q-20 -104 -170 -147t-383 -19l72 100q121 -14 203 6t91 57q9 38 -37 49t-169 3l66 88q199 19 272 -17t55 -120zM352 201h144q166 0 238 -89t42 -238q-31 -149 -169 -247t-345 -98
t-308 73t-73 199q8 39 41 111h242q-29 -33 -40 -90t42 -86t142 -29t150 44q60 43 73 109t-16 88q-30 22 -112 21h-129q-112 0 -184 50t-48 163t140 209q-137 98 -92 309q35 168 157 268t322 101q76 0 158 -22h313l-34 -160h-115q23 -90 4 -187q-33 -160 -154 -264t-327 -104
l-84 2q-45 -33 -52 -67q-6 -34 16 -50t58 -16z" />
    <glyph glyph-name="Kcedilla" horiz-adv-x="1114" 
d="M342 -254q-20 -104 -170 -147t-383 -19l72 101q121 -14 203 5t92 58q8 37 -38 48t-169 3l65 88q199 18 273 -17q73 -36 55 -120zM1221 1479l-523 -682l234 -797h-336l-178 733h-4l-156 -733h-285l314 1479h284l-141 -670h4l479 670h308z" />
    <glyph glyph-name="kcedilla" horiz-adv-x="1001" 
d="M342 -254q-20 -104 -170 -147t-383 -19l72 101q121 -14 203 5t92 58q8 37 -38 48t-169 3l65 88q199 18 273 -17q73 -36 55 -120zM1006 1047l-396 -469l211 -578h-309l-158 528h-2l-112 -528h-273l314 1479h272l-188 -895h2l364 463h275z" />
    <glyph glyph-name="Lcedilla" horiz-adv-x="835" 
d="M506 -254q-20 -104 -170 -147t-383 -19l72 101q121 -14 203 5t90 57q9 38 -36 49q-46 11 -169 3l65 88q199 18 273 -17q73 -36 55 -120zM662 233l-50 -233h-639l314 1479h284l-264 -1246h355z" />
    <glyph glyph-name="lcedilla" 
d="M322 -254q-20 -104 -170 -147t-383 -19l71 101q121 -14 203 5t91 57t-37 49t-169 3l66 88q198 19 272 -17t56 -120zM555 1479l-313 -1479h-275l314 1479h274z" />
    <glyph glyph-name="Ncedilla" horiz-adv-x="1273" 
d="M362 -254q-20 -104 -170 -147t-382 -19l71 101q121 -14 203 5t91 57t-37 49t-169 3l66 88q199 19 272 -17t55 -120zM1303 1479l-314 -1479h-239l-269 829l-37 158h-4q-10 -82 -26 -164l-174 -823h-267l314 1479h276l248 -760l39 -141h2q8 70 25 147l159 754h267z" />
    <glyph glyph-name="ncedilla" horiz-adv-x="1036" 
d="M362 -254q-20 -104 -170 -147t-382 -19l71 101q121 -14 203 5t91 57t-37 49t-169 3l66 88q199 19 272 -17t55 -120zM574 1069q224 0 301 -90q78 -90 45 -244l-156 -735h-272l155 733q31 145 -110 146q-63 0 -119 -21l-182 -858h-273l211 989q176 80 400 80z" />
    <glyph glyph-name="Rcedilla" horiz-adv-x="1132" 
d="M551 829q105 1 169 53t93 185t-14 185t-148 53h-119l-100 -476h119zM362 -254q-20 -104 -170 -147t-382 -19l71 101q121 -14 203 5t91 57t-37 49t-169 3l66 88q199 19 272 -17t55 -120zM748 1479q205 0 294 -113t50 -297q-29 -135 -118 -231t-218 -138l174 -700h-309
l-152 645h-76l-137 -645h-283l314 1479h461z" />
    <glyph glyph-name="rcedilla" horiz-adv-x="665" 
d="M362 -254q-20 -104 -170 -147t-382 -19l71 101q121 -14 203 5t91 57t-37 49t-169 3l66 88q199 19 272 -17t55 -120zM563 1071q68 0 129 -12l-88 -197q-102 25 -186 -8l-182 -854h-273l209 987q199 84 391 84z" />
    <glyph glyph-name="Omegagreek" horiz-adv-x="512" 
 />
    </font>
</defs>
</svg>
