<?xml version="1.0" standalone="no"?>
<!DOCTYPE svg PUBLIC "-//W3C//DTD SVG 1.1//EN" "http://www.w3.org/Graphics/SVG/1.1/DTD/svg11.dtd" >
<svg xmlns="http://www.w3.org/2000/svg">
<metadata>
Created by FontPrep 20130207 at Mon May 18 12:43:26 2015
 By Nathan Crenshaw
Copyright (c) United Parcel Services, Inc, 2002. All rights reserved.
</metadata>
<defs>
<font id="61bc99508df0252c1c89308e07bc7888" horiz-adv-x='1024' >
  <font-face 
    font-family="UPSSans-MediumItalic"
    font-weight="500"
    font-style="italic"
    font-stretch="normal"
    units-per-em="2048"
    panose-1="2 11 6 3 2 0 0 9 0 4"
    ascent="1638"
    descent="-410"
    x-height="1047"
    cap-height="1479"
    bbox="-391 -849.683 2326.31 2087"
    underline-thickness="102"
    underline-position="-153"
    slope="-12"
    unicode-range="U+0009-FB02"
  />
<missing-glyph horiz-adv-x="557" 
 />
    <glyph glyph-name=".notdef" horiz-adv-x="557" 
 />
    <glyph glyph-name=".notdef" horiz-adv-x="557" 
 />
    <glyph glyph-name=".null" horiz-adv-x="0" 
 />
    <glyph glyph-name="nonmarkingreturn" horiz-adv-x="681" 
 />
    <glyph glyph-name="HT" unicode="&#x9;" horiz-adv-x="557" 
 />
    <glyph glyph-name="LF" unicode="&#xa;" horiz-adv-x="557" 
 />
    <glyph glyph-name="CR" unicode="&#xd;" horiz-adv-x="557" 
 />
    <glyph glyph-name="space" unicode=" " horiz-adv-x="557" 
 />
    <glyph glyph-name="exclam" unicode="!" horiz-adv-x="645" 
d="M226 276q62 0 95 -43t20 -105t-65 -105t-113 -43q-62 0 -98 44t-22 105q13 61 67 104t116 43zM627 1479l-265 -1000h-188l158 1000h295z" />
    <glyph glyph-name="quotedbl" unicode="&#x22;" horiz-adv-x="845" 
d="M406 1523q72 0 106 -53l-166 -542h-129l70 542q47 53 119 53zM772 1523q72 0 102 -53l-165 -542h-129l69 542q51 53 123 53z" />
    <glyph glyph-name="numbersign" unicode="#" horiz-adv-x="1163" 
d="M766 938h-223l-140 -358h222zM1151 1061l-27 -123h-217l-141 -358h197l-27 -125h-217l-174 -455h-142l175 455h-220l-178 -455h-141l176 453h-192l26 127h215l139 356h-194l27 125h215l161 418h142l-162 -418h221l160 418h143l-162 -418h197z" />
    <glyph glyph-name="dollar" unicode="$" horiz-adv-x="1163" 
d="M786 1294q-110 0 -179 -57t-89 -149t23 -145q43 -52 145 -99q150 -72 200 -170t19 -245t-149 -259t-277 -141l-47 -219h-145l45 210q-186 6 -279 76l43 203q139 -96 259 -96t195 61q75 60 95 154t-19 150q-40 56 -151 104q-264 115 -207 377q33 151 149 265t271 138
l39 182h141l-39 -178q140 -8 226 -74l-37 -176q-122 88 -232 88z" />
    <glyph glyph-name="percent" unicode="%" horiz-adv-x="1771" 
d="M324 775q0 -120 84 -120q55 1 98 61t64 130q73 243 76 423q2 122 -83 122q-113 0 -176 -233q-63 -232 -63 -383zM1217 102q55 0 98 62t63 128q20 68 45 177q80 369 -52 369t-208 -369q-30 -142 -30 -255q0 -112 84 -112zM588 1499q229 0 213 -316q-15 -239 -114 -431
q-113 -220 -306 -220q-293 0 -193 482q39 179 124 321q46 76 117 120t159 44zM1442 1456l-998 -1497l-106 51l997 1497zM1190 -20q-293 0 -193 483q104 483 398 483q86 0 138 -43q85 -70 77 -272q-17 -269 -148 -490q-46 -77 -116 -119t-156 -42z" />
    <glyph glyph-name="ampersand" unicode="&#x26;" horiz-adv-x="1355" 
d="M778 745q-202 0 -324 -93t-151 -228t31 -207t196 -72q134 0 195 27l121 573h-68zM768 1499q182 0 291 -61l-39 -185q-117 70 -227 70q-223 0 -267 -195q-22 -104 36 -161t167 -58h592l-35 -164h-194l-144 -682q-162 -83 -433 -83t-399 110t-85 313q63 297 438 408l2 4
q-115 41 -166 128t-26 206q33 156 170 253t319 97z" />
    <glyph glyph-name="quotesingle" unicode="'" horiz-adv-x="485" 
d="M410 1523q76 0 104 -53l-168 -542h-127l68 542q47 53 123 53z" />
    <glyph glyph-name="parenleft" unicode="(" horiz-adv-x="780" 
d="M899 1565q-432 -463 -542 -978t126 -982l-133 -70q-193 283 -253 534t-3 517q55 266 222 516t481 532z" />
    <glyph glyph-name="parenright" unicode=")" horiz-adv-x="780" 
d="M369 1634q191 -284 251 -534t4 -515t-224 -516t-478 -534l-104 70q434 473 541 983t-126 977z" />
    <glyph glyph-name="asterisk" unicode="*" horiz-adv-x="778" 
d="M838 1237l-250 -78l102 -194l-125 -82l-104 204l-180 -204l-101 82l185 194l-211 78l75 129l205 -86l51 244h138l-52 -244l246 86z" />
    <glyph glyph-name="plus" unicode="+" horiz-adv-x="1118" 
d="M958 707l-34 -166h-324l-72 -340h-166l72 340h-319l35 166h319l72 337h166l-72 -337h323z" />
    <glyph glyph-name="comma" unicode="," horiz-adv-x="579" 
d="M252 277q96 0 92 -74l-414 -549h-147l299 549q74 74 170 74z" />
    <glyph glyph-name="hyphen" unicode="-" horiz-adv-x="716" 
d="M598 684l-41 -190h-500l41 190h500z" />
    <glyph glyph-name="hyphen" unicode="&#xad;" horiz-adv-x="716" 
d="M598 684l-41 -190h-500l41 190h500z" />
    <glyph glyph-name="period" unicode="." horiz-adv-x="557" 
d="M117 -20q-61 0 -97 44q-35 44 -22 105q14 61 68 104t114 43q61 0 96 -43t22 -104q-12 -61 -66 -105t-115 -44z" />
    <glyph glyph-name="slash" unicode="/" horiz-adv-x="1173" 
d="M1325 1556l-1401 -2025l-139 76l1397 2025z" />
    <glyph glyph-name="zero" unicode="0" horiz-adv-x="1163" 
d="M707 1333q-231 0 -357 -594t106 -594t359 594q123 594 -108 594zM745 1499q365 0 349 -500q-8 -256 -110 -519q-119 -308 -313 -430q-114 -70 -250 -70t-219 70q-143 121 -130 429q9 263 109 520q121 311 314 429q114 71 250 71z" />
    <glyph glyph-name="one" unicode="1" horiz-adv-x="1163" 
d="M958 1479l-313 -1479h-252l269 1257l-347 -151l37 172l434 201h172z" />
    <glyph glyph-name="two" unicode="2" horiz-adv-x="1163" 
d="M555 1315q-140 0 -266 -64l41 191q141 57 353 57q213 -1 305 -121q212 -276 -228 -721l-449 -450h566l-43 -207h-834l33 152l536 573q195 209 222 340q25 111 -35 181t-201 69z" />
    <glyph glyph-name="three" unicode="3" horiz-adv-x="1163" 
d="M333 -20q-220 0 -333 47l43 202q106 -63 263 -63t259 76t129 198q36 170 -97 224q-107 43 -265 41l35 161q175 10 285 76t131 169t-34 156q-56 52 -161 52q-164 0 -291 -59l39 188q154 51 340 51t291 -96q104 -96 69 -256q-27 -125 -124 -206t-199 -120v-4
q293 -90 231 -379q-43 -202 -217 -330t-394 -128z" />
    <glyph glyph-name="four" unicode="4" horiz-adv-x="1163" 
d="M807 1243q-102 -143 -166 -225l-422 -537h422l115 539zM1096 1479l-211 -998h114l-34 -159h-115l-68 -322h-243l67 322h-600l35 159l793 998h262z" />
    <glyph glyph-name="five" unicode="5" horiz-adv-x="1163" 
d="M526 901q248 0 357 -123t65 -325q-44 -201 -217 -337q-174 -136 -393 -136t-330 57l41 199q117 -70 289 -70q119 0 224 78t133 208t-51 203q-79 74 -241 74h-229l232 750h708l-43 -207h-528l-113 -371h96z" />
    <glyph glyph-name="six" unicode="6" horiz-adv-x="1163" 
d="M530 745q-88 0 -168 -32q-33 -78 -57 -189q-41 -160 -2 -272t159 -113q120 0 194 88t100 219q66 299 -226 299zM616 903q201 0 312 -117q112 -117 66 -332q-46 -214 -196 -344t-378 -130t-312 154t-30 409q39 184 130 343t200 263q110 104 234 182q225 141 413 168
l-41 -184q-381 -113 -578 -443q86 31 180 31z" />
    <glyph glyph-name="seven" unicode="7" horiz-adv-x="1163" 
d="M1176 1479l-31 -152l-199 -309q-180 -281 -348 -572t-242 -446h-288l827 1272h-657l43 207h895z" />
    <glyph glyph-name="eight" unicode="8" horiz-adv-x="1163" 
d="M454 143q102 0 183 63q80 63 100 159q21 97 -13 163t-159 152q-164 -84 -225 -151q-62 -67 -82 -161t37 -160q57 -65 159 -65zM616 864q137 72 194 132t75 146q18 87 -29 147q-47 61 -140 61t-165 -60t-91 -147q-19 -88 13 -145q33 -56 143 -134zM744 1499
q183 0 284 -102t68 -260q-25 -113 -103 -195t-235 -164q141 -100 193 -195t26 -218q-37 -170 -193 -278q-156 -107 -360 -107t-319 102q-114 102 -76 280q27 125 117 218q91 92 276 188q-123 86 -166 169t-18 198q33 158 178 261t328 103z" />
    <glyph glyph-name="nine" unicode="9" horiz-adv-x="1163" 
d="M631 733q88 0 168 33q32 77 57 188q41 160 3 273t-159 113q-120 0 -194 -89q-74 -88 -100 -219q-63 -299 225 -299zM547 575q-201 0 -313 117t-62 346q41 201 192 331t379 130t311 -154q82 -155 29 -409q-39 -184 -130 -343t-199 -263t-232 -182q-224 -140 -413 -168
l38 184q383 113 580 442q-88 -31 -180 -31z" />
    <glyph glyph-name="colon" unicode=":" horiz-adv-x="557" 
d="M117 -20q-61 0 -97 44q-35 44 -22 105q14 61 68 104t114 43q61 0 96 -43t22 -104q-12 -61 -66 -105t-115 -44zM254 623q-62 0 -97 43q-36 43 -22 104q11 62 65 106t115 44t97 -44q34 -45 21 -106t-65 -104t-114 -43z" />
    <glyph glyph-name="semicolon" unicode=";" horiz-adv-x="579" 
d="M251 277q97 0 93 -76l-414 -547h-147l299 547q72 76 169 76zM283 623q-61 0 -98 43q-36 43 -21 104q12 62 65 106t115 44t96 -44q35 -44 22 -106q-14 -61 -66 -104t-113 -43z" />
    <glyph glyph-name="semicolon" unicode="&#x37e;" horiz-adv-x="579" 
d="M251 277q97 0 93 -76l-414 -547h-147l299 547q72 76 169 76zM283 623q-61 0 -98 43q-36 43 -21 104q12 62 65 106t115 44t96 -44q35 -44 22 -106q-14 -61 -66 -104t-113 -43z" />
    <glyph glyph-name="less" unicode="&#x3c;" horiz-adv-x="1118" 
d="M1032 1053l-37 -181l-663 -243l559 -246l-39 -178l-735 346l33 156z" />
    <glyph glyph-name="equal" unicode="=" horiz-adv-x="1118" 
d="M918 508l-35 -164h-809l35 164h809zM1001 903l-34 -166h-809l35 166h808z" />
    <glyph glyph-name="greater" unicode="&#x3e;" horiz-adv-x="1118" 
d="M958 707l-32 -156l-883 -346l39 178l659 246l-555 243l37 181z" />
    <glyph glyph-name="question" unicode="?" horiz-adv-x="888" 
d="M250 -20q-62 0 -97 44q-34 44 -22 105q15 61 67 104t114 43t97 -43t22 -104t-66 -105t-115 -44zM466 1323q-108 0 -255 -68l39 183q142 61 322 61t276 -93t61 -253q-27 -129 -141 -221t-227 -127l-92 -326h-187l53 402q119 25 213 89t114 154q20 88 -24 144t-152 55z" />
    <glyph glyph-name="at" unicode="@" horiz-adv-x="1779" 
d="M704 332q80 0 165 80q156 147 206 352q23 92 -11 150t-106 59q-128 -1 -236 -149t-138 -289q-18 -90 11 -147q29 -56 109 -56zM1075 199q-73 0 -103 38t-28 123q-147 -160 -328 -159q-131 0 -178 96q-47 95 -19 227q27 132 103 258t200 222t262 96t185 -150l48 113h151
l-166 -385q-78 -178 -91 -238t-6 -84q7 -25 42 -24q78 0 169 99t158 233t89 245q47 221 -59 351t-327 129q-221 0 -431 -124t-351 -320t-188 -415q-61 -292 82 -452t430 -160q221 0 392 75t347 224l53 -92q-187 -160 -379 -241t-440 -81q-350 0 -523 194t-101 538
q55 256 226 478t418 354t513 132t400 -159t79 -427q-33 -149 -118 -309t-224 -282t-287 -123z" />
    <glyph glyph-name="A" unicode="A" horiz-adv-x="1247" 
d="M723 1167q0 43 2 62v20h-4q-23 -66 -76 -170l-252 -495h375l-41 495q-4 45 -4 88zM1081 0h-260l-41 426h-469l-221 -426h-235l802 1479h248z" />
    <glyph glyph-name="B" unicode="B" horiz-adv-x="1214" 
d="M446 160q302 0 357 250q31 150 -45 220t-283 68h-90l-113 -538h174zM688 1325h-168l-102 -477h96q186 0 278 59q90 60 117 184t-35 179t-186 55zM416 0h-426l313 1479h418q237 1 355 -99t86 -250t-134 -238q-102 -87 -217 -110v-4q121 -29 200 -123q79 -93 47 -245
t-132 -245t-226 -129t-284 -36z" />
    <glyph glyph-name="C" unicode="C" horiz-adv-x="1150" 
d="M872 1313q-200 0 -328 -153t-186 -419q-26 -151 -18 -275t82 -205t222 -81t284 80l-43 -201q-145 -80 -357 -79q-147 0 -249 60q-103 60 -149 162q-103 228 -28 535q72 334 276 548t480 214q191 0 316 -84l-41 -192q-41 41 -115 65t-146 25z" />
    <glyph glyph-name="D" unicode="D" horiz-adv-x="1286" 
d="M434 172q172 0 304 142t191 427q60 285 -15 425t-238 141h-156l-241 -1135h155zM391 0h-401l313 1479h387q326 0 449 -197t49 -542q-74 -344 -274 -542t-523 -198z" />
    <glyph glyph-name="E" unicode="E" horiz-adv-x="962" 
d="M1030 1479l-39 -185h-473l-94 -444h424l-39 -182h-424l-102 -484h473l-39 -184h-727l313 1479h727z" />
    <glyph glyph-name="F" unicode="F" horiz-adv-x="950" 
d="M1030 1479l-39 -185h-473l-94 -444h422l-39 -182h-422l-141 -668h-254l313 1479h727z" />
    <glyph glyph-name="G" unicode="G" horiz-adv-x="1247" 
d="M887 1315q-195 -1 -331 -145t-196 -426t9 -432q68 -151 227 -150q90 0 160 26l133 629h239l-159 -754q-162 -84 -402 -83q-293 0 -417 200t-48 558q76 360 295 560t498 201q184 0 311 -82l-41 -196q-121 94 -278 94z" />
    <glyph glyph-name="H" unicode="H" horiz-adv-x="1296" 
d="M1309 1479l-314 -1479h-254l144 670h-498l-143 -670h-254l313 1479h254l-133 -631h498l133 631h254z" />
    <glyph glyph-name="I" unicode="I" horiz-adv-x="555" 
d="M561 1479l-313 -1479h-254l313 1479h254z" />
    <glyph glyph-name="J" unicode="J" horiz-adv-x="555" 
d="M561 1479l-297 -1403q-49 -236 -213 -368t-383 -152l39 182q104 23 188 106q83 84 111 217l301 1418h254z" />
    <glyph glyph-name="K" unicode="K" horiz-adv-x="1153" 
d="M1253 1479l-608 -686l320 -793h-293l-266 748h-5l-159 -748h-252l313 1479h252l-143 -678h4l569 678h268z" />
    <glyph glyph-name="L" unicode="L" horiz-adv-x="888" 
d="M705 184l-39 -184h-676l313 1479h254l-274 -1295h422z" />
    <glyph glyph-name="M" unicode="M" horiz-adv-x="1691" 
d="M1706 1479l-313 -1479h-240l248 1165l-625 -1165h-178l-129 1165l-248 -1165h-231l313 1479h322l129 -1180l628 1180h324z" />
    <glyph glyph-name="N" unicode="N" horiz-adv-x="1359" 
d="M1372 1479l-313 -1479h-217l-342 958l-49 164h-5q-8 -84 -26 -170l-203 -952h-227l313 1479h254l322 -904l47 -145h4q6 68 24 152l191 897h227z" />
    <glyph glyph-name="O" unicode="O" horiz-adv-x="1312" 
d="M539 172q294 0 417 574t-174 575q-301 -1 -424 -575t181 -574zM821 1499q145 0 241 -60q96 -61 138 -163q88 -221 14 -537q-72 -340 -252 -550t-464 -209q-145 0 -244 59q-98 59 -138 161q-89 228 -14 539q72 338 253 549t466 211z" />
    <glyph glyph-name="P" unicode="P" horiz-adv-x="1159" 
d="M672 1321h-150l-121 -565h150q283 -1 344 278q59 287 -223 287zM545 596h-176l-127 -596h-252l313 1479h428q251 0 353 -121t61 -320q-41 -198 -197 -320t-403 -122z" />
    <glyph glyph-name="Q" unicode="Q" horiz-adv-x="1312" 
d="M539 172q294 0 417 574t-174 575q-301 -1 -424 -575t181 -574zM498 -20q-145 0 -244 59q-98 59 -138 161q-89 228 -14 539q72 338 253 549t466 211q145 0 241 -60q96 -61 138 -163q88 -221 14 -537q-111 -512 -419 -684q90 -41 276 -32l-35 -164q-334 -4 -506 121h-32z
" />
    <glyph glyph-name="R" unicode="R" horiz-adv-x="1193" 
d="M678 1325h-154l-110 -520h106q170 -1 259 61t118 201t-25 199t-194 59zM758 1479q232 0 330 -116q98 -117 64 -279t-143 -267q-110 -104 -272 -133l260 -684h-284l-234 651h-98l-139 -651h-252l313 1479h455z" />
    <glyph glyph-name="S" unicode="S" horiz-adv-x="1040" 
d="M726 1321q-118 0 -192 -58q-74 -57 -96 -155t29 -150t168 -105q117 -52 181 -127q64 -76 69 -146q4 -70 -8 -148q-43 -199 -200 -326q-157 -126 -374 -126t-344 79l47 222q142 -107 282 -107t221 67t100 160t-30 151q-50 58 -176 112q-287 125 -227 401q37 180 186 307
q150 127 338 127t320 -72l-41 -196q-135 90 -253 90z" />
    <glyph glyph-name="T" unicode="T" horiz-adv-x="950" 
d="M1055 1479l-39 -185h-295l-275 -1294h-251l274 1294h-297l39 185h844z" />
    <glyph glyph-name="U" unicode="U" horiz-adv-x="1261" 
d="M522 174q102 0 187 69q84 69 108 187l221 1049h236l-221 -1047q-43 -201 -204 -327q-161 -125 -377 -125t-325 126t-65 326l221 1047h254l-223 -1051q-26 -118 30 -186t158 -68z" />
    <glyph glyph-name="V" unicode="V" horiz-adv-x="1146" 
d="M1284 1479l-749 -1479h-228l-129 1479h271l47 -992l-2 -178h2q39 96 77 178l465 992h246z" />
    <glyph glyph-name="W" unicode="W" horiz-adv-x="1708" 
d="M1821 1479l-647 -1479h-232l-14 930l4 153h-4q-23 -72 -60 -153l-409 -930h-232l-22 1479h262l-27 -990l-12 -161h4q27 80 64 161l432 990h190l12 -990l-8 -161h4q27 84 58 161l397 990h240z" />
    <glyph glyph-name="X" unicode="X" horiz-adv-x="1116" 
d="M1219 1479l-517 -699l238 -780h-289l-137 555h-4l-387 -555h-262l559 756l-207 723h276l121 -512h4l361 512h244z" />
    <glyph glyph-name="Y" unicode="Y" horiz-adv-x="1075" 
d="M1221 1479l-580 -848l-133 -631h-254l133 631l-219 848h272l133 -625h5l399 625h244z" />
    <glyph glyph-name="Z" unicode="Z" horiz-adv-x="958" 
d="M1036 1479l-778 -1295h516l-39 -184h-852l783 1294h-467l39 185h798z" />
    <glyph glyph-name="bracketleft" unicode="[" horiz-adv-x="727" 
d="M823 1608l-30 -144h-271l-375 -1759h273l-31 -145h-493l436 2048h491z" />
    <glyph glyph-name="backslash" unicode="\" horiz-adv-x="1179" 
d="M915 -391l-176 -80l-540 2025l178 80z" />
    <glyph glyph-name="bracketright" unicode="]" horiz-adv-x="727" 
d="M768 1608l-436 -2048h-494l31 145h270l375 1759h-270l30 144h494z" />
    <glyph glyph-name="asciicircum" unicode="^" horiz-adv-x="1220" 
d="M801 1636q70 0 104 -59l228 -414l-117 -94l-254 375l-414 -375l-76 94l402 414q57 59 127 59z" />
    <glyph glyph-name="underscore" unicode="_" horiz-adv-x="1118" 
d="M926 -272l-33 -156h-1159l33 156h1159z" />
    <glyph glyph-name="grave" unicode="`" 
d="M479 1163h-139l-188 283q24 43 108 44t139 -38z" />
    <glyph glyph-name="a" unicode="a" horiz-adv-x="1024" 
d="M627 557q-187 -23 -285 -75t-125 -173q-41 -193 174 -192q92 0 148 28zM482 913q-114 0 -265 -63l35 164q193 55 317 55q177 0 267 -86t49 -276l-137 -650q-162 -77 -388 -77t-315 82q-90 82 -57 239q40 196 235 285q167 76 430 100l13 53q22 96 -24 135t-160 39z" />
    <glyph glyph-name="b" unicode="b" horiz-adv-x="1085" 
d="M551 918q-76 0 -143 -29l-156 -737q41 -23 110 -23q261 0 349 408q41 157 3 269t-163 112zM645 1063q186 0 273 -139q85 -140 32 -390t-219 -403q-166 -151 -403 -151t-338 77l301 1422h241l-96 -457q92 41 209 41z" />
    <glyph glyph-name="c" unicode="c" horiz-adv-x="950" 
d="M656 903q-126 0 -225 -101q-99 -102 -136 -272t22 -273t183 -103t219 55l-39 -176q-102 -53 -295 -53t-291 146t-45 400t217 398t369 145q162 0 254 -55l-35 -164q-72 53 -198 53z" />
    <glyph glyph-name="d" unicode="d" horiz-adv-x="1085" 
d="M748 903q-53 16 -103 17q-141 0 -229 -109t-127 -289t3 -283t173 -104q82 0 123 23zM1110 1479l-301 -1422q-156 -77 -386 -77t-331 141q-100 141 -46 394t212 400t365 148q82 0 153 -21l92 437h242z" />
    <glyph glyph-name="e" unicode="e" horiz-adv-x="1060" 
d="M584 922q-94 0 -172 -81t-117 -237h422q31 154 -4 236t-129 82zM494 150q144 0 311 67l-37 -168q-150 -70 -338 -69q-233 0 -335 143q-101 143 -47 400t215 401t364 145q203 0 277 -162t7 -436h-639q-26 -137 26 -229t196 -92z" />
    <glyph glyph-name="f" unicode="f" horiz-adv-x="641" 
d="M768 1524l-33 -154q-178 0 -215 -182l-28 -141h176l-35 -156h-176l-189 -891h-241l188 891h-121l35 156h121l24 118q37 179 169 277t325 82z" />
    <glyph glyph-name="g" unicode="g" horiz-adv-x="1077" 
d="M565 924q-103 0 -165 -58t-82 -157q-20 -97 16 -155q37 -58 141 -58q201 0 248 213q45 215 -158 215zM377 199h155q170 0 247 -86t50 -215q-35 -162 -176 -258t-356 -96t-325 75q-110 76 -83 201q12 55 48 112h219q-29 -33 -44 -101q-14 -68 50 -106t172 -38t182 53
q72 53 89 131q17 77 -19 107t-133 30h-150q-196 0 -237 91q-18 40 -7 98q20 98 158 200q-164 88 -117 312q35 164 161 262t335 98q84 0 170 -22h326l-29 -129h-141q47 -74 17 -220t-155 -246q-125 -101 -340 -102q-20 0 -53 2h-33q-68 -37 -82 -96q-6 -35 24 -46t77 -11z
" />
    <glyph glyph-name="h" unicode="h" horiz-adv-x="1095" 
d="M575 909q-92 0 -172 -39l-184 -870h-242l314 1479h241l-100 -475q129 55 246 55q184 1 250 -91t37 -227l-158 -741h-242l156 733q37 176 -146 176z" />
    <glyph glyph-name="i" unicode="i" horiz-adv-x="526" 
d="M453 1047l-224 -1047h-243l223 1047h244zM367 1223q-55 0 -87 39t-20 95t60 96t104 40t88 -40t20 -96t-61 -95t-104 -39z" />
    <glyph glyph-name="j" unicode="j" horiz-adv-x="526" 
d="M455 1047l-203 -955q-51 -238 -204 -381t-343 -155l35 161q100 31 166 112t98 241l209 977h242zM370 1223q-56 0 -88 39t-20 95t60 96t105 40q56 0 88 -40t20 -96q-13 -56 -61 -95t-104 -39z" />
    <glyph glyph-name="k" unicode="k" horiz-adv-x="1021" 
d="M1032 1047l-465 -478l285 -569h-274l-238 535h-2l-113 -535h-239l313 1479h240l-191 -906h2l436 474h246z" />
    <glyph glyph-name="l" unicode="l" horiz-adv-x="526" 
d="M543 1479l-314 -1479h-243l313 1479h244z" />
    <glyph glyph-name="m" unicode="m" horiz-adv-x="1679" 
d="M573 911q-90 0 -165 -26l-189 -885l-242 -2l211 993q188 78 412 78t305 -115q143 115 338 115t267 -93t44 -228l-159 -748h-244l158 741q33 170 -143 170q-96 0 -181 -71l-178 -840h-242l158 745q16 78 -22 122t-128 44z" />
    <glyph glyph-name="n" unicode="n" horiz-adv-x="1091" 
d="M573 911q-90 0 -165 -26l-189 -885h-242l211 989q184 80 417 80q233 -1 312 -91t48 -233l-158 -745h-244l158 739q37 172 -148 172z" />
    <glyph glyph-name="o" unicode="o" horiz-adv-x="1058" 
d="M567 911q-197 0 -279 -387t114 -387t280 387q82 387 -115 387zM923 524q-53 -244 -195 -394t-357 -150t-295 150t-28 394t196 395t358 151q213 0 293 -152q80 -150 28 -394z" />
    <glyph glyph-name="p" unicode="p" horiz-adv-x="1085" 
d="M709 530q94 390 -174 392q-68 0 -125 -23l-158 -747q55 -18 106 -19q267 0 351 397zM373 -14q-90 0 -154 18l-94 -444h-242l305 1433q156 76 384 76t330 -140t49 -393q-54 -254 -212 -402t-366 -148z" />
    <glyph glyph-name="q" unicode="q" horiz-adv-x="1085" 
d="M635 924q-258 0 -346 -408q-80 -381 162 -381q78 0 139 31l155 733q-35 25 -110 25zM354 -16q-188 0 -275 140t-35 387t213 403t403 155q242 0 348 -78l-306 -1431h-241l100 465q-88 -41 -207 -41z" />
    <glyph glyph-name="r" unicode="r" horiz-adv-x="681" 
d="M610 1071q15 0 105 -8l-82 -166q-127 33 -225 -14l-189 -883h-242l209 987q193 84 424 84z" />
    <glyph glyph-name="s" unicode="s" horiz-adv-x="821" 
d="M209 -20q-155 0 -258 63l41 184q33 -31 92 -55q145 -58 245 19q54 43 68 105t-14 99q-29 37 -104 70q-127 53 -163 127t-16 170q27 129 139 218t259 89t247 -57l-36 -172q-82 70 -199 69q-70 0 -116 -38t-58 -97t18 -96t101 -68q131 -59 170 -134t16 -177
q-29 -133 -153 -226t-279 -93z" />
    <glyph glyph-name="t" unicode="t" horiz-adv-x="663" 
d="M664 1047l-35 -156h-178l-129 -610q-27 -137 88 -138q23 0 67 9l-33 -150q-68 -23 -135 -22q-143 0 -197 82t-30 202l133 627h-121l35 156h121l49 237l250 68l-64 -305h179z" />
    <glyph glyph-name="u" unicode="u" horiz-adv-x="1083" 
d="M383 -20q-408 0 -334 354l152 713h241l-153 -723q-15 -80 17 -129t125 -49t161 34l184 867h242l-209 -981q-176 -86 -426 -86z" />
    <glyph glyph-name="v" unicode="v" horiz-adv-x="1026" 
d="M1036 1047l-559 -1047h-229l-119 1047h256l39 -668l-4 -148h4q18 70 57 148l328 668h227z" />
    <glyph glyph-name="w" unicode="w" horiz-adv-x="1587" 
d="M399 383q0 -101 -10 -141h4q16 57 58 141l325 664h203l37 -664q3 -53 -6 -141h4q18 72 51 143l303 662h217l-520 -1047h-217l-45 649q-5 73 8 137h-2q-20 -70 -55 -137l-324 -649h-217l-74 1047h246z" />
    <glyph glyph-name="x" unicode="x" horiz-adv-x="972" 
d="M975 1047l-400 -488l209 -559h-266l-112 379h-5l-278 -379h-248l442 541l-182 506h254l103 -338h4l254 338h225z" />
    <glyph glyph-name="y" unicode="y" horiz-adv-x="1028" 
d="M1038 1047l-802 -1487h-259l275 440l-123 1047h258l35 -670q4 -73 -8 -133l-2 -21h4q20 72 61 154l334 670h227z" />
    <glyph glyph-name="z" unicode="z" horiz-adv-x="845" 
d="M823 1047l-573 -891h395l-33 -156h-710l583 891h-360l35 156h663z" />
    <glyph glyph-name="braceleft" unicode="{" horiz-adv-x="794" 
d="M879 1608l-29 -129q-111 0 -173 -47t-85 -152l-76 -354q-45 -209 -233 -246q0 -2 -2 -4q174 -37 129 -252l-76 -356q-20 -102 21 -150q42 -47 155 -47l-29 -131q-195 0 -298 79t-64 261l65 305q27 121 -6 172t-112 55l26 133q84 3 137 53t78 167l66 305q74 338 506 338z
" />
    <glyph glyph-name="bar" unicode="|" horiz-adv-x="489" 
d="M530 1608l-436 -2048h-198l436 2048h198z" />
    <glyph glyph-name="braceright" unicode="}" horiz-adv-x="794" 
d="M707 745l-27 -133q-86 -4 -139 -55t-80 -172l-66 -305q-72 -340 -504 -340l29 131q111 0 174 47t84 150l76 356q45 215 233 252l2 4q-174 37 -129 246l76 354q45 199 -176 199l29 129q195 0 297 -79t63 -259l-65 -305q-45 -214 123 -220z" />
    <glyph glyph-name="asciitilde" unicode="~" horiz-adv-x="1220" 
d="M1047 670q-82 -145 -263 -166q-86 -10 -200 62t-193 63q-119 -12 -207 -146l-43 154q102 158 256 172q94 10 206 -63t185 -64q129 16 207 141z" />
    <glyph glyph-name="nbspace" unicode="&#xa0;" horiz-adv-x="557" 
 />
    <glyph glyph-name="exclamdown" unicode="&#xa1;" horiz-adv-x="645" 
d="M381 569l-160 -1001h-293l265 1001h188zM331 770q-62 0 -99 43q-36 43 -22 105t68 106q54 43 116 43t95 -43t20 -105q-13 -61 -65 -105t-113 -44z" />
    <glyph glyph-name="cent" unicode="&#xa2;" horiz-adv-x="1163" 
d="M788 1124q-126 0 -226 -100t-136 -270q-38 -170 22 -274t183 -103q123 0 219 55l-37 -176q-106 -53 -260 -53l-43 -203h-143l47 217q-150 39 -216 179t-19 354q46 214 170 349q124 136 288 175l43 205h143l-39 -189q144 -2 236 -53l-35 -164q-71 51 -197 51z" />
    <glyph glyph-name="sterling" unicode="&#xa3;" horiz-adv-x="1163" 
d="M862 1317q-248 0 -307 -277q-23 -102 -12 -200h288l-32 -152h-264q5 -180 -89 -345q-51 -91 -88 -132h582l-45 -211h-920q270 250 328 506q16 74 12 182h-209l33 152h166q-8 166 12 262q35 164 181 280t348 117q204 0 319 -72l-39 -188q-123 78 -264 78z" />
    <glyph glyph-name="currency" unicode="&#xa4;" horiz-adv-x="1163" 
d="M640 993q-106 0 -198 -77q-92 -78 -114 -186t36 -184q60 -76 166 -75q106 0 198 77q92 76 114 184t-38 184q-58 76 -164 77zM512 309q-127 0 -217 74l-180 -150l-111 115l184 156q-20 35 -33 98t1 131q29 125 129 236l-131 166l133 96l114 -150q129 74 252 74t221 -74
l181 150l110 -115l-186 -155q55 -121 31 -234t-125 -231l131 -166l-133 -97l-117 148q-127 -72 -254 -72z" />
    <glyph glyph-name="yen" unicode="&#xa5;" horiz-adv-x="1163" 
d="M1255 1479l-368 -537h205l-25 -113h-258l-109 -155h334l-24 -115h-344l-119 -559h-240l119 559h-348l24 115h336q-15 58 -30 117l-11 38h-262l25 113h209l-146 537h260l129 -639h4l408 639h231z" />
    <glyph glyph-name="brokenbar" unicode="&#xa6;" horiz-adv-x="489" 
d="M268 373l-174 -813h-198l174 813h198zM530 1608l-174 -813h-198l174 813h198z" />
    <glyph glyph-name="section" unicode="&#xa7;" horiz-adv-x="1118" 
d="M723 496q33 126 -61 225l-154 160q-168 -94 -195 -220t72 -227l147 -149q168 92 191 211zM784 1346q-84 0 -133 -36t-61 -92t4 -97q16 -42 76 -103l147 -158q84 -90 110 -164t5 -172q-39 -190 -309 -340q106 -119 77 -256q-30 -137 -146 -222t-286 -85t-270 78l61 172
q98 -86 213 -86q72 0 127 37t70 98q26 84 -61 174l-181 185q-83 85 -107 167t1 181q43 203 305 346q-88 111 -61 236t137 207t270 83q160 0 252 -74l-55 -155q-101 76 -185 76z" />
    <glyph glyph-name="dieresis" unicode="&#xa8;" 
d="M199 1403q47 0 75 -31t18 -76q-9 -46 -50 -76t-89 -30t-76 31t-19 75q10 44 52 76q42 31 89 31zM520 1190q-49 0 -76 31q-26 31 -16 75t50 76q40 31 88 31t76 -31t19 -76q-9 -46 -51 -76t-90 -30z" />
    <glyph glyph-name="copyright" unicode="&#xa9;" horiz-adv-x="1665" 
d="M810 432q97 0 183 51l-26 -127q-90 -49 -207 -49q-164 0 -224 121t-20 310q40 190 158 312q117 122 274 121q104 0 182 -49l-26 -125q-61 57 -160 57q-98 0 -170 -83q-72 -85 -102 -223t6 -227q35 -89 132 -89zM973 1393q-256 0 -477 -194q-220 -194 -278 -462t81 -461
q139 -192 396 -192t479 192q221 193 278 461t-83 462t-396 194zM672 -20q-299 0 -465 223t-99 535t327 537q261 224 560 224q299 -1 465 -225t100 -536q-67 -312 -328 -535t-560 -223z" />
    <glyph glyph-name="ordfeminine" unicode="&#xaa;" horiz-adv-x="749" 
d="M578 1161q-129 -14 -196 -48q-67 -35 -82 -107q-14 -72 18 -100t98 -28t104 17zM403 780q-159 0 -225 56t-43 157q29 131 147 185t312 69l8 35q12 59 -16 84q-29 25 -112 25t-185 -43l22 110q102 41 232 41q270 1 219 -239l-92 -429q-109 -51 -267 -51z" />
    <glyph glyph-name="guillemotleft" unicode="&#xab;" horiz-adv-x="1087" 
d="M598 987l-332 -383l170 -383l-153 -82l-207 465l405 465zM1010 987l-332 -383l170 -383l-154 -82l-207 465l406 465z" />
    <glyph glyph-name="logicalnot" unicode="&#xac;" horiz-adv-x="1118" 
d="M975 784l-103 -481h-172l68 315h-637l35 166h809z" />
    <glyph glyph-name="registered" unicode="&#xae;" horiz-adv-x="1665" 
d="M881 1063h-80l-60 -281h54q92 0 141 33t64 109q16 76 -14 108t-105 31zM930 1161q133 -1 188 -67t37 -159q-19 -93 -79 -153t-150 -77l149 -386h-178l-131 365h-45l-78 -365h-154l179 842h262zM973 1393q-256 0 -477 -194q-220 -194 -278 -462t81 -461q139 -192 396 -192
t479 192q221 193 278 461t-83 462t-396 194zM672 -20q-299 0 -465 223t-99 535t327 537q261 224 560 224q299 -1 465 -225t100 -536q-67 -312 -328 -535t-560 -223z" />
    <glyph glyph-name="macron" unicode="&#xaf;" 
d="M686 1362l-29 -137h-624l28 137h625z" />
    <glyph glyph-name="macron" unicode="&#x2c9;" 
d="M686 1362l-29 -137h-624l28 137h625z" />
    <glyph glyph-name="degree" unicode="&#xb0;" horiz-adv-x="854" 
d="M564 1376q-80 0 -148 -56t-84 -135t28 -135t122 -56q79 0 148 56t85 135t-28 135t-123 56zM592 1499q131 0 204 -92t45 -223t-141 -223q-114 -93 -244 -93t-203 92t-44 224q27 131 139 223q113 92 244 92z" />
    <glyph glyph-name="plusminus" unicode="&#xb1;" horiz-adv-x="1118" 
d="M860 238l-33 -154h-809l33 154h809zM987 840l-33 -154h-323l-70 -330h-166l70 330h-320l33 154h320l69 327h166l-69 -327h323z" />
    <glyph glyph-name="twosuperior" unicode="&#xb2;" horiz-adv-x="770" 
d="M449 1364q-66 0 -148 -37l29 137q70 35 202 35t191 -72q60 -73 37 -179t-164 -244l-240 -236h310l-33 -147h-496l23 106l301 322q96 102 112 184q27 131 -124 131z" />
    <glyph glyph-name="threesuperior" unicode="&#xb3;" horiz-adv-x="770" 
d="M322 608q-130 0 -203 33l28 143q63 -39 153 -39q173 0 200 136q18 85 -38 117t-153 30l21 102q203 18 229 138q19 102 -121 102q-72 0 -147 -35l26 131q84 33 201 33q117 -1 179 -57q63 -56 39 -164t-165 -172q152 -59 117 -223q-27 -123 -132 -199q-104 -76 -234 -76z
" />
    <glyph glyph-name="acute" unicode="&#xb4;" 
d="M633 1446l-309 -283h-138l203 289q70 39 153 38t91 -44z" />
    <glyph glyph-name="mu" unicode="&#xb5;" horiz-adv-x="1091" 
d="M426 131q98 0 170 33l188 883h242l-211 -986q-160 -80 -364 -79q-127 0 -224 55l-102 -477h-242l318 1487h241l-186 -875q72 -41 170 -41z" />
    <glyph glyph-name="mu" unicode="&#x3bc;" horiz-adv-x="1091" 
d="M426 131q98 0 170 33l188 883h242l-211 -986q-160 -80 -364 -79q-127 0 -224 55l-102 -477h-242l318 1487h241l-186 -875q72 -41 170 -41z" />
    <glyph glyph-name="paragraph" unicode="&#xb6;" horiz-adv-x="1118" 
d="M1194 1479l-25 -117h-67l-367 -1733h-162l367 1733h-244l-366 -1733h-164l227 1078q-157 23 -229 123t-39 253q43 201 199 298t366 98h504z" />
    <glyph glyph-name="periodcentered" unicode="&#xb7;" horiz-adv-x="557" 
d="M286 776q62 0 96 -44t22 -105q-13 -61 -66 -105q-52 -44 -114 -45q-62 0 -97 44q-35 43 -22 105t67 106q52 44 114 44z" />
    <glyph glyph-name="periodcentered" unicode="&#x2219;" horiz-adv-x="557" 
d="M286 776q62 0 96 -44t22 -105q-13 -61 -66 -105q-52 -44 -114 -45q-62 0 -97 44q-35 43 -22 105t67 106q52 44 114 44z" />
    <glyph glyph-name="cedilla" unicode="&#xb8;" 
d="M305 -254q-20 -98 -175 -139t-409 -19l68 86q137 -12 237 8t107 61q8 42 -46 55t-193 3l63 78q207 16 286 -19q78 -36 62 -114z" />
    <glyph glyph-name="onesuperior" unicode="&#xb9;" horiz-adv-x="770" 
d="M700 1479l-182 -865h-176l152 711l-232 -100l27 121l286 133h125z" />
    <glyph glyph-name="ordmasculine" unicode="&#xba;" horiz-adv-x="749" 
d="M518 1393q-139 0 -191 -248t84 -248t185 244q29 100 13 176q-15 76 -91 76zM540 1499q151 0 208 -99t22 -260t-134 -261q-99 -101 -250 -101t-210 100t-24 261q33 160 135 260t253 100z" />
    <glyph glyph-name="guillemotright" unicode="&#xbb;" horiz-adv-x="1087" 
d="M549 604l-408 -465l-118 82l333 383l-172 383l156 82zM958 604l-405 -465l-117 82l332 383l-170 383l154 82z" />
    <glyph glyph-name="onequarter" unicode="&#xbc;" horiz-adv-x="1689" 
d="M1311 690q-41 -59 -86 -117l-232 -288h230l59 286zM647 1479l-182 -865h-176l151 711l-231 -100l27 121l286 133h125zM1409 1452l-1001 -1495l-127 59l1001 1495zM1513 866l-122 -581h67l-24 -107h-68l-37 -178h-168l37 178h-342l25 109l467 579h165z" />
    <glyph glyph-name="onehalf" unicode="&#xbd;" horiz-adv-x="1689" 
d="M647 1479l-182 -865h-176l151 711l-231 -100l27 121l286 133h125zM1378 1452l-1003 -1495l-127 59l1001 1495zM1210 743q-66 0 -147 -36l29 135q74 37 204 37t190 -72q59 -71 35 -183t-161 -243l-242 -234h309l-30 -147h-496l23 106l299 322q100 109 114 184
q31 131 -127 131z" />
    <glyph glyph-name="threequarters" unicode="&#xbe;" horiz-adv-x="1689" 
d="M1321 690q-41 -59 -86 -117l-231 -288h229l59 286zM322 608q-130 0 -203 33l28 143q63 -39 153 -39q173 0 200 136q18 85 -38 117t-153 30l21 102q203 18 229 138q19 102 -121 102q-72 0 -147 -35l26 131q84 33 201 33q117 -1 179 -57q63 -56 39 -164t-165 -172
q152 -59 117 -223q-27 -123 -132 -199q-104 -76 -234 -76zM1524 866l-123 -581h67l-24 -107h-68l-37 -178h-168l37 178h-342l25 109l467 579h166zM1473 1452l-1002 -1495l-127 59l1002 1495z" />
    <glyph glyph-name="questiondown" unicode="&#xbf;" horiz-adv-x="888" 
d="M244 -446q-178 0 -275 93q-96 93 -64 237t144 237q113 92 227 127l93 325h186l-55 -401q-119 -26 -213 -90q-93 -64 -113 -154t23 -145t147 -55t260 67l-39 -180q-143 -61 -321 -61zM504 774q-61 0 -97 44t-23 106q14 62 68 105q54 44 115 44t95 -44t21 -105
q-13 -62 -65 -106t-114 -44z" />
    <glyph glyph-name="Agrave" unicode="&#xc0;" horiz-adv-x="1247" 
d="M723 1167q0 43 2 62v20h-4q-23 -66 -76 -170l-252 -495h375l-41 495q-4 45 -4 88zM1081 0h-260l-41 426h-469l-221 -426h-235l802 1479h248zM881 1575h-140l-188 280q25 45 110 45t136 -38z" />
    <glyph glyph-name="Aacute" unicode="&#xc1;" horiz-adv-x="1247" 
d="M723 1167q0 43 2 62v20h-4q-23 -66 -76 -170l-252 -495h375l-41 495q-4 45 -4 88zM1081 0h-260l-41 426h-469l-221 -426h-235l802 1479h248zM1153 1855l-309 -280h-139l204 287q70 38 153 38t91 -45z" />
    <glyph glyph-name="Acircumflex" unicode="&#xc2;" horiz-adv-x="1247" 
d="M723 1167q0 43 2 62v20h-4q-23 -66 -76 -170l-252 -495h375l-41 495q-4 45 -4 88zM1081 0h-260l-41 426h-469l-221 -426h-235l802 1479h248zM866 1872q45 0 74 -35l162 -213l-84 -59l-182 157l-256 -157l-54 59l254 213q41 35 86 35z" />
    <glyph glyph-name="Atilde" unicode="&#xc3;" horiz-adv-x="1247" 
d="M723 1167q0 43 2 62v20h-4q-23 -66 -76 -170l-252 -495h375l-41 495q-4 45 -4 88zM1081 0h-260l-41 426h-469l-221 -426h-235l802 1479h248zM685 1677q-53 0 -113 -41t-83 -77l33 153q84 96 187 96q61 0 132 -41t125 -41t112 40t85 79l-33 -153q-86 -96 -186 -97
q-57 0 -132 41t-127 41z" />
    <glyph glyph-name="Adieresis" unicode="&#xc4;" horiz-adv-x="1247" 
d="M723 1167q0 43 2 62v20h-4q-23 -66 -76 -170l-252 -495h375l-41 495q-4 45 -4 88zM1081 0h-260l-41 426h-469l-221 -426h-235l802 1479h248zM624 1595q-48 0 -76 31t-18 76t50 76q40 30 89 30q47 0 75 -30t19 -76q-9 -45 -50 -76t-89 -31zM991 1595q-47 0 -75 32t-18 76
t50 75q41 30 88 30t76 -30t20 -76q-10 -45 -52 -76t-89 -31z" />
    <glyph glyph-name="Aring" unicode="&#xc5;" horiz-adv-x="1247" 
d="M723 1167q0 43 2 62v20h-4q-23 -66 -76 -170l-252 -495h375l-41 495q-4 45 -4 88zM857 1829q-38 0 -71 -27q-33 -28 -41 -64t14 -63q21 -27 59 -27t69 26t40 64t-11 64t-59 27zM1081 0h-260l-41 426h-469l-221 -426h-235l802 1479h248zM801 1567q-72 0 -112 50t-25 122
q14 72 76 123t134 51t112 -51t25 -123t-77 -122t-133 -50z" />
    <glyph glyph-name="AE" unicode="&#xc6;" horiz-adv-x="1593" 
d="M813 1251h-4q-27 -63 -70 -135l-317 -530h377l4 530zM1544 1479l-39 -185h-497l16 -444h393l-39 -182h-354l18 -484h381l-39 -184h-596l-2 426h-460l-258 -424h-238l930 1477h784z" />
    <glyph glyph-name="Ccedilla" unicode="&#xc7;" horiz-adv-x="1150" 
d="M674 -254q-20 -98 -176 -139t-410 -19l70 86q135 -12 234 8q100 20 108 61q8 42 -46 55t-194 3l64 78q384 33 350 -133zM872 1313q-200 0 -328 -153t-186 -419q-26 -151 -18 -275t82 -205t222 -81t284 80l-43 -201q-145 -80 -357 -79q-147 0 -249 60q-103 60 -149 162
q-103 228 -28 535q72 334 276 548t480 214q191 0 316 -84l-41 -192q-41 41 -115 65t-146 25z" />
    <glyph glyph-name="Egrave" unicode="&#xc8;" horiz-adv-x="962" 
d="M1030 1479l-39 -185h-473l-94 -444h424l-39 -182h-424l-102 -484h473l-39 -184h-727l313 1479h727zM801 1575h-139l-189 280q27 45 111 45t137 -38z" />
    <glyph glyph-name="Eacute" unicode="&#xc9;" horiz-adv-x="962" 
d="M1030 1479l-39 -185h-473l-94 -444h424l-39 -182h-424l-102 -484h473l-39 -184h-727l313 1479h727zM1020 1855l-311 -280h-140l203 287q72 38 156 38t92 -45z" />
    <glyph glyph-name="Ecircumflex" unicode="&#xca;" horiz-adv-x="962" 
d="M1030 1479l-39 -185h-473l-94 -444h424l-39 -182h-424l-102 -484h473l-39 -184h-727l313 1479h727zM742 1872q46 0 75 -35l162 -213l-84 -59l-182 157l-254 -157l-58 59l254 213q41 35 87 35z" />
    <glyph glyph-name="Edieresis" unicode="&#xcb;" horiz-adv-x="962" 
d="M1030 1479l-39 -185h-473l-94 -444h424l-39 -182h-424l-102 -484h473l-39 -184h-727l313 1479h727zM501 1595q-48 0 -76 31t-17 76q8 45 50 76q42 30 89 30t76 -30q28 -31 19 -76t-51 -76t-90 -31zM869 1595q-47 0 -75 31t-18 76q8 45 50 76q42 30 89 30t75 -30t19 -76
q-9 -45 -51 -76t-89 -31z" />
    <glyph glyph-name="Igrave" unicode="&#xcc;" horiz-adv-x="555" 
d="M561 1479l-313 -1479h-254l313 1479h254zM365 1901q84 0 139 -39l80 -287h-138l-190 283q25 43 109 43z" />
    <glyph glyph-name="Iacute" unicode="&#xcd;" horiz-adv-x="555" 
d="M561 1479l-313 -1479h-254l313 1479h254zM690 1901q82 0 90 -43l-309 -283h-137l203 287q71 39 153 39z" />
    <glyph glyph-name="Icircumflex" unicode="&#xce;" horiz-adv-x="555" 
d="M561 1479l-313 -1479h-254l313 1479h254zM517 1872q44 0 73 -35l164 -211l-82 -61l-185 159l-254 -159l-55 61l254 211q41 35 85 35z" />
    <glyph glyph-name="Idieresis" unicode="&#xcf;" horiz-adv-x="555" 
d="M561 1479l-313 -1479h-254l313 1479h254zM276 1597q-48 0 -76 30t-20 75t50 76q42 30 89 30t75 -30t20 -75q-8 -44 -49 -75t-89 -31zM644 1597q-48 0 -76 30t-19 75q8 45 50 76q42 30 89 30t75 -30q27 -31 19 -75t-49 -75t-89 -31z" />
    <glyph glyph-name="Eth" unicode="&#xd0;" horiz-adv-x="1327" 
d="M479 172q173 0 305 142t191 429t-16 425t-238 139h-156l-92 -435h215l-33 -153h-215l-116 -547h155zM436 0h-401l153 719h-120l32 153h121l127 607h387q326 0 449 -197t49 -542q-74 -344 -274 -542t-523 -198z" />
    <glyph glyph-name="Ntilde" unicode="&#xd1;" horiz-adv-x="1359" 
d="M1372 1479l-313 -1479h-217l-342 958l-49 164h-5q-8 -84 -26 -170l-203 -952h-227l313 1479h254l322 -904l47 -145h4q6 68 24 152l191 897h227zM742 1677q-52 0 -112 -41t-83 -77l33 153q84 96 186 96q61 0 132 -41t125 -41q55 0 113 40t85 79l-33 -153q-86 -96 -187 -97
q-57 0 -132 41t-127 41z" />
    <glyph glyph-name="Ograve" unicode="&#xd2;" horiz-adv-x="1312" 
d="M539 172q294 0 417 574t-174 575q-301 -1 -424 -575t181 -574zM821 1499q145 0 241 -60q96 -61 138 -163q88 -221 14 -537q-72 -340 -252 -550t-464 -209q-145 0 -244 59q-98 59 -138 161q-89 228 -14 539q72 338 253 549t466 211zM952 1575h-139l-186 280q25 45 109 45
t136 -38z" />
    <glyph glyph-name="Oacute" unicode="&#xd3;" horiz-adv-x="1312" 
d="M539 172q294 0 417 574t-174 575q-301 -1 -424 -575t181 -574zM821 1499q145 0 241 -60q96 -61 138 -163q88 -221 14 -537q-72 -340 -252 -550t-464 -209q-145 0 -244 59q-98 59 -138 161q-89 228 -14 539q72 338 253 549t466 211zM1157 1855l-309 -280h-139l202 287
q72 38 155 38t91 -45z" />
    <glyph glyph-name="Ocircumflex" unicode="&#xd4;" horiz-adv-x="1312" 
d="M539 172q294 0 417 574t-174 575q-301 -1 -424 -575t181 -574zM821 1499q145 0 241 -60q96 -61 138 -163q88 -221 14 -537q-72 -340 -252 -550t-464 -209q-145 0 -244 59q-98 59 -138 161q-89 228 -14 539q72 338 253 549t466 211zM899 1872q45 0 74 -35l164 -213
l-84 -59l-185 157l-254 -157l-55 59l254 213q41 35 86 35z" />
    <glyph glyph-name="Otilde" unicode="&#xd5;" horiz-adv-x="1312" 
d="M539 172q294 0 417 574t-174 575q-301 -1 -424 -575t181 -574zM821 1499q145 0 241 -60q96 -61 138 -163q88 -221 14 -537q-72 -340 -252 -550t-464 -209q-145 0 -244 59q-98 59 -138 161q-89 228 -14 539q72 338 253 549t466 211zM720 1677q-52 0 -112 -41t-84 -77
l33 153q84 96 186 96q61 0 133 -41t124 -41q54 0 112 40t86 79l-33 -153q-86 -96 -186 -97q-57 0 -132 41t-127 41z" />
    <glyph glyph-name="Odieresis" unicode="&#xd6;" horiz-adv-x="1312" 
d="M539 172q294 0 417 574t-174 575q-301 -1 -424 -575t181 -574zM821 1499q145 0 241 -60q96 -61 138 -163q88 -221 14 -537q-72 -340 -252 -550t-464 -209q-145 0 -244 59q-98 59 -138 161q-89 228 -14 539q72 338 253 549t466 211zM655 1595q-49 0 -77 31t-17 76
q8 45 50 76q42 30 90 30t76 -30t19 -76q-8 -45 -50 -76t-91 -31zM1025 1595q-48 0 -76 31t-17 76q8 45 49 76q41 30 89 30t76 -30q27 -31 17 -76t-50 -76t-88 -31z" />
    <glyph glyph-name="multiply" unicode="&#xd7;" horiz-adv-x="1118" 
d="M1020 954l-375 -331l236 -332l-136 -111l-233 328l-371 -326l-88 109l373 332l-233 331l137 111l231 -328l371 328z" />
    <glyph glyph-name="Oslash" unicode="&#xd8;" horiz-adv-x="1312" 
d="M539 172q295 0 417 573q43 209 31 338l-645 -766q43 -145 197 -145zM782 1321q-301 0 -424 -576q-41 -195 -32 -317l643 760q-47 133 -187 133zM821 1499q203 0 312 -119l139 166l67 -49l-157 -186q112 -197 36 -555t-256 -567q-180 -210 -464 -209q-221 0 -328 133
l-147 -174l-68 49l166 198q-95 199 -21 545t255 557t466 211z" />
    <glyph glyph-name="Ugrave" unicode="&#xd9;" horiz-adv-x="1261" 
d="M522 174q102 0 187 69q84 69 108 187l221 1049h236l-221 -1047q-43 -201 -204 -327q-161 -125 -377 -125t-325 126t-65 326l221 1047h254l-223 -1051q-26 -118 30 -186t158 -68zM956 1575h-139l-188 280q27 45 111 45t137 -38z" />
    <glyph glyph-name="Uacute" unicode="&#xda;" horiz-adv-x="1261" 
d="M522 174q102 0 187 69q84 69 108 187l221 1049h236l-221 -1047q-43 -201 -204 -327q-161 -125 -377 -125t-325 126t-65 326l221 1047h254l-223 -1051q-26 -118 30 -186t158 -68zM1143 1855l-312 -280h-139l203 287q72 38 156 38t92 -45z" />
    <glyph glyph-name="Ucircumflex" unicode="&#xdb;" horiz-adv-x="1261" 
d="M522 174q102 0 187 69q84 69 108 187l221 1049h236l-221 -1047q-43 -201 -204 -327q-161 -125 -377 -125t-325 126t-65 326l221 1047h254l-223 -1051q-26 -118 30 -186t158 -68zM882 1872q46 0 74 -35l162 -213l-84 -59l-182 157l-254 -157l-57 59l254 213q41 35 87 35z
" />
    <glyph glyph-name="Udieresis" unicode="&#xdc;" horiz-adv-x="1261" 
d="M522 174q102 0 187 69q84 69 108 187l221 1049h236l-221 -1047q-43 -201 -204 -327q-161 -125 -377 -125t-325 126t-65 326l221 1047h254l-223 -1051q-26 -118 30 -186t158 -68zM642 1595q-48 0 -76 31t-17 76q8 45 50 76q42 30 89 30t76 -30q28 -31 19 -76t-51 -76
t-90 -31zM1012 1595q-47 0 -75 31t-17 76q8 45 49 76q41 30 88 30t76 -30q28 -31 19 -76t-51 -76t-89 -31z" />
    <glyph glyph-name="Yacute" unicode="&#xdd;" horiz-adv-x="1075" 
d="M1221 1479l-580 -848l-133 -631h-254l133 631l-219 848h272l133 -625h5l399 625h244zM1069 1855l-309 -280h-139l204 287q70 38 153 38t91 -45z" />
    <glyph glyph-name="Thorn" unicode="&#xde;" horiz-adv-x="1167" 
d="M614 1049h-149l-121 -566h150q285 0 344 279q59 287 -224 287zM674 1206q248 0 351 -120t61 -320q-42 -199 -196 -321t-403 -121h-176l-69 -324h-252l313 1479h252l-57 -273h176z" />
    <glyph glyph-name="germandbls" unicode="&#xdf;" horiz-adv-x="1136" 
d="M547 -20q-96 0 -189 43l39 184q59 -53 137 -53t129 43q52 43 65 104t-6 98t-77 82q-129 98 -96 248q39 178 237 240q23 49 37 116q63 281 -116 281q-190 0 -269 -362l-213 -1004h-243l211 989q49 229 187 383t345 154t289 -125t41 -311q-20 -94 -64 -179
q-188 -29 -217 -163q-10 -49 7 -86t79 -84q139 -109 103 -277q-31 -141 -150 -231t-266 -90z" />
    <glyph glyph-name="agrave" unicode="&#xe0;" horiz-adv-x="1024" 
d="M627 557q-187 -23 -285 -75t-125 -173q-41 -193 174 -192q92 0 148 28zM482 913q-114 0 -265 -63l35 164q193 55 317 55q177 0 267 -86t49 -276l-137 -650q-162 -77 -388 -77t-315 82q-90 82 -57 239q40 196 235 285q167 76 430 100l13 53q22 96 -24 135t-160 39z
M737 1165h-139l-190 283q26 43 110 44t137 -38z" />
    <glyph glyph-name="aacute" unicode="&#xe1;" horiz-adv-x="1024" 
d="M627 557q-187 -23 -285 -75t-125 -173q-41 -193 174 -192q92 0 148 28zM482 913q-114 0 -265 -63l35 164q193 55 317 55q177 0 267 -86t49 -276l-137 -650q-162 -77 -388 -77t-315 82q-90 82 -57 239q40 196 235 285q167 76 430 100l13 53q22 96 -24 135t-160 39z
M969 1448l-307 -283h-140l203 289q70 39 153 38t91 -44z" />
    <glyph glyph-name="acircumflex" unicode="&#xe2;" horiz-adv-x="1024" 
d="M627 557q-187 -23 -285 -75t-125 -173q-41 -193 174 -192q92 0 148 28zM482 913q-114 0 -265 -63l35 164q193 55 317 55q177 0 267 -86t49 -276l-137 -650q-162 -77 -388 -77t-315 82q-90 82 -57 239q40 196 235 285q167 76 430 100l13 53q22 96 -24 135t-160 39z
M907 1219l-82 -64l-184 158l-252 -158l-59 64l254 211q41 32 88 32t71 -32z" />
    <glyph glyph-name="atilde" unicode="&#xe3;" horiz-adv-x="1024" 
d="M627 557q-187 -23 -285 -75t-125 -173q-41 -193 174 -192q92 0 148 28zM482 913q-114 0 -265 -63l35 164q193 55 317 55q177 0 267 -86t49 -276l-137 -650q-162 -77 -388 -77t-315 82q-90 82 -57 239q40 196 235 285q167 76 430 100l13 53q22 96 -24 135t-160 39z
M748 1186q-58 0 -132 41t-126 41t-112 -41q-62 -41 -85 -78l33 154q90 96 186 96q61 0 133 -41t126 -41q53 0 113 40t83 79l-33 -154q-86 -96 -186 -96z" />
    <glyph glyph-name="adieresis" unicode="&#xe4;" horiz-adv-x="1024" 
d="M627 557q-187 -23 -285 -75t-125 -173q-41 -193 174 -192q92 0 148 28zM482 913q-114 0 -265 -63l35 164q193 55 317 55q177 0 267 -86t49 -276l-137 -650q-162 -77 -388 -77t-315 82q-90 82 -57 239q40 196 235 285q167 76 430 100l13 53q22 96 -24 135t-160 39z
M437 1192q-48 0 -76 31q-27 31 -19 75t50 76q42 31 90 31t76 -31t19 -76q-9 -46 -51 -76t-89 -30zM850 1405q48 0 76 -31t19 -76q-9 -46 -50 -76t-89 -30t-75 31t-19 75t50 76q41 31 88 31z" />
    <glyph glyph-name="aring" unicode="&#xe5;" horiz-adv-x="1024" 
d="M627 557q-187 -23 -285 -75t-125 -173q-41 -193 174 -192q92 0 148 28zM630 1241q38 1 70 27t39 63q8 37 -12 64t-58 27t-70 -28q-32 -26 -40 -63t12 -63q21 -26 59 -27zM482 913q-114 0 -265 -63l35 164q193 55 317 55q177 0 267 -86t49 -276l-137 -650
q-162 -77 -388 -77t-315 82q-90 82 -57 239q40 196 235 285q167 76 430 100l13 53q22 96 -24 135t-160 39zM612 1157q-72 0 -112 51t-23 123q13 72 75 122t134 50t112 -50t23 -122t-77 -123t-132 -51z" />
    <glyph glyph-name="ae" unicode="&#xe6;" horiz-adv-x="1595" 
d="M348 117q82 0 140 46t75 126l58 266q-185 -23 -285 -76t-124 -161t16 -155q38 -46 120 -46zM1116 920q-92 0 -170 -80t-117 -236h422q31 152 -6 234t-129 82zM1028 150q146 0 311 67l-36 -168q-166 -70 -345 -69q-211 0 -294 174q-123 -174 -349 -174q-193 0 -277 82
t-50 237q39 182 209 271t452 116l13 53q41 174 -175 174q-123 0 -272 -65l35 164q150 57 313 57q219 0 256 -166q53 68 147 117t191 49q205 -1 281 -161t8 -439h-639q-27 -131 24 -225t197 -94z" />
    <glyph glyph-name="ccedilla" unicode="&#xe7;" horiz-adv-x="950" 
d="M535 -254q-21 -98 -177 -139t-409 -19l67 86q138 -12 238 8t108 61q8 42 -46 55t-195 3l63 78q385 33 351 -133zM656 903q-126 0 -225 -101q-99 -102 -136 -272t22 -273t183 -103t219 55l-39 -176q-102 -53 -295 -53t-291 146t-45 400t217 398t369 145q162 0 254 -55
l-35 -164q-72 53 -198 53z" />
    <glyph glyph-name="egrave" unicode="&#xe8;" horiz-adv-x="1060" 
d="M584 922q-94 0 -172 -81t-117 -237h422q31 154 -4 236t-129 82zM494 150q144 0 311 67l-37 -168q-150 -70 -338 -69q-233 0 -335 143q-101 143 -47 400t215 401t364 145q203 0 277 -162t7 -436h-639q-26 -137 26 -229t196 -92zM741 1165h-141l-188 283q26 43 110 44
t137 -38z" />
    <glyph glyph-name="eacute" unicode="&#xe9;" horiz-adv-x="1060" 
d="M584 922q-94 0 -172 -81t-117 -237h422q31 154 -4 236t-129 82zM494 150q144 0 311 67l-37 -168q-150 -70 -338 -69q-233 0 -335 143q-101 143 -47 400t215 401t364 145q203 0 277 -162t7 -436h-639q-26 -137 26 -229t196 -92zM981 1448l-309 -283h-137l200 289
q72 39 155 38t91 -44z" />
    <glyph glyph-name="ecircumflex" unicode="&#xea;" horiz-adv-x="1060" 
d="M584 922q-94 0 -172 -81t-117 -237h422q31 154 -4 236t-129 82zM494 150q144 0 311 67l-37 -168q-150 -70 -338 -69q-233 0 -335 143q-101 143 -47 400t215 401t364 145q203 0 277 -162t7 -436h-639q-26 -137 26 -229t196 -92zM928 1219l-82 -64l-184 158l-254 -158
l-58 64l254 211q41 32 88 32t72 -32z" />
    <glyph glyph-name="edieresis" unicode="&#xeb;" horiz-adv-x="1060" 
d="M584 922q-94 0 -172 -81t-117 -237h422q31 154 -4 236t-129 82zM494 150q144 0 311 67l-37 -168q-150 -70 -338 -69q-233 0 -335 143q-101 143 -47 400t215 401t364 145q203 0 277 -162t7 -436h-639q-26 -137 26 -229t196 -92zM500 1405q48 0 76 -31t19 -76
q-9 -46 -50 -76t-89 -30t-76 31t-20 75t50 76q42 31 90 31zM823 1192q-47 0 -75 31t-19 75q8 44 50 76q42 31 89 31t75 -31t19 -76q-8 -46 -50 -76t-89 -30z" />
    <glyph glyph-name="igrave" unicode="&#xec;" horiz-adv-x="526" 
d="M453 1047l-224 -1047h-243l223 1047h244zM481 1163h-139l-190 283q26 43 110 44t139 -38z" />
    <glyph glyph-name="iacute" unicode="&#xed;" horiz-adv-x="526" 
d="M453 1047l-224 -1047h-243l223 1047h244zM676 1446l-309 -283h-140l203 289q72 39 155 38t91 -44z" />
    <glyph glyph-name="icircumflex" unicode="&#xee;" horiz-adv-x="526" 
d="M453 1047l-224 -1047h-243l223 1047h244zM417 1460q48 0 72 -33l164 -210l-80 -64l-186 158l-252 -158l-59 64l254 210q39 33 87 33z" />
    <glyph glyph-name="idieresis" unicode="&#xef;" horiz-adv-x="526" 
d="M453 1047l-224 -1047h-243l223 1047h244zM221 1403q47 0 75 -31t20 -76q-9 -46 -51 -76t-90 -30t-76 31q-29 31 -19 75t52 76q42 31 89 31zM590 1403q46 0 74 -31t19 -76q-9 -46 -50 -76t-89 -30t-76 31t-18 75t51 76q42 31 89 31z" />
    <glyph glyph-name="eth" unicode="&#xf0;" horiz-adv-x="1060" 
d="M594 915q-121 0 -194 -100t-113 -293q-80 -381 123 -381q186 0 268 387q47 219 18 371q-41 16 -102 16zM375 -20q-209 0 -295 146t-35 384t193 395q142 158 344 158q66 0 108 -14q-20 109 -67 231l-189 -55q-14 57 -43 90l184 55q-33 63 -69 111l215 65q39 -45 70 -106
l163 47q37 -59 45 -90l-165 -49q174 -414 86 -822q-52 -250 -194 -398t-351 -148z" />
    <glyph glyph-name="ntilde" unicode="&#xf1;" horiz-adv-x="1091" 
d="M573 911q-90 0 -165 -26l-189 -885h-242l211 989q184 80 417 80q233 -1 312 -91t48 -233l-158 -745h-244l158 739q37 172 -148 172zM778 1186q-57 0 -131 41t-126 41t-113 -41t-82 -78l32 154q80 96 187 96q61 0 133 -41t126 -41t113 41t82 80l-32 -154q-88 -98 -189 -98
z" />
    <glyph glyph-name="ograve" unicode="&#xf2;" horiz-adv-x="1058" 
d="M406 141q194 0 277 386t-116 386t-278 -387q-84 -385 117 -385zM923 524q-53 -244 -195 -394t-357 -150t-295 150t-28 394t196 394t357 150q214 0 294 -150t28 -394zM509 1491q85 0 138 -39l80 -289h-137l-191 283q25 45 110 45z" />
    <glyph glyph-name="oacute" unicode="&#xf3;" horiz-adv-x="1058" 
d="M406 141q194 0 277 386t-116 386t-278 -387q-84 -385 117 -385zM923 524q-53 -244 -195 -394t-357 -150t-295 150t-28 394t196 394t357 150q214 0 294 -150t28 -394zM878 1491q83 0 91 -45l-307 -283h-140l203 289q70 39 153 39z" />
    <glyph glyph-name="ocircumflex" unicode="&#xf4;" horiz-adv-x="1058" 
d="M406 141q194 0 277 386t-116 386t-278 -387q-84 -385 117 -385zM923 524q-53 -244 -195 -394t-357 -150t-295 150t-28 394t196 394t357 150q214 0 294 -150t28 -394zM686 1462q47 0 72 -35l164 -210l-82 -64l-187 160l-252 -160l-59 64l256 210q41 35 88 35z" />
    <glyph glyph-name="otilde" unicode="&#xf5;" horiz-adv-x="1058" 
d="M406 141q194 0 277 386t-116 386t-278 -387q-84 -385 117 -385zM923 524q-53 -244 -195 -394t-357 -150t-295 150t-28 394t196 394t357 150q214 0 294 -150t28 -394zM764 1186q-57 0 -131 41t-126 41q-51 0 -113 -41t-85 -78l33 154q90 96 186 96q62 0 134 -41t126 -41
t112 40q60 40 83 79l-33 -154q-86 -96 -186 -96z" />
    <glyph glyph-name="odieresis" unicode="&#xf6;" horiz-adv-x="1058" 
d="M406 141q194 0 277 386t-116 386t-278 -387q-84 -385 117 -385zM923 524q-53 -244 -195 -394t-357 -150t-295 150t-28 394t196 394t357 150q214 0 294 -150t28 -394zM441 1192q-47 0 -75 31t-19 75t51 74q42 31 89 31t76 -31t20 -76q-9 -44 -51 -74t-91 -30zM856 1403
q48 0 76 -31t19 -76q-9 -44 -51 -74t-90 -30t-76 31t-18 75t51 74q42 31 89 31z" />
    <glyph glyph-name="divide" unicode="&#xf7;" horiz-adv-x="1118" 
d="M440 176q-48 0 -74 35t-16 84q8 49 50 83t92 34t76 -34t16 -83t-52 -84t-92 -35zM954 688l-26 -131h-809l26 131h809zM631 1069q49 0 75 -34t17 -83q-10 -49 -51 -84q-41 -34 -90 -34t-76 34t-17 84q9 49 51 83t91 34z" />
    <glyph glyph-name="oslash" unicode="&#xf8;" horiz-adv-x="1058" 
d="M414 135q102 -1 167 105t99 274t29 246l-430 -545q33 -80 135 -80zM690 840q-33 76 -121 75q-122 0 -186 -114t-95 -264q-32 -150 -26 -240zM991 1116l-125 -158q119 -135 56 -434q-54 -244 -196 -394t-355 -150q-141 0 -226 67l-118 -151l-54 34l129 162
q-117 147 -55 432q51 244 195 395t358 150q139 0 221 -65l119 149z" />
    <glyph glyph-name="ugrave" unicode="&#xf9;" horiz-adv-x="1083" 
d="M383 -20q-408 0 -334 354l152 713h241l-153 -723q-15 -80 17 -129t125 -49t161 34l184 867h242l-209 -981q-176 -86 -426 -86zM760 1163h-137l-191 283q25 43 110 44t138 -38z" />
    <glyph glyph-name="uacute" unicode="&#xfa;" horiz-adv-x="1083" 
d="M383 -20q-408 0 -334 354l152 713h241l-153 -723q-15 -80 17 -129t125 -49t161 34l184 867h242l-209 -981q-176 -86 -426 -86zM983 1446l-309 -283h-137l202 289q70 39 153 38t91 -44z" />
    <glyph glyph-name="ucircumflex" unicode="&#xfb;" horiz-adv-x="1083" 
d="M383 -20q-408 0 -334 354l152 713h241l-153 -723q-15 -80 17 -129t125 -49t161 34l184 867h242l-209 -981q-176 -86 -426 -86zM697 1460q48 0 73 -33l164 -210l-82 -64l-186 158l-252 -158l-58 64l254 210q39 33 87 33z" />
    <glyph glyph-name="udieresis" unicode="&#xfc;" horiz-adv-x="1083" 
d="M383 -20q-408 0 -334 354l152 713h241l-153 -723q-15 -80 17 -129t125 -49t161 34l184 867h242l-209 -981q-176 -86 -426 -86zM455 1190q-49 0 -77 31t-19 75t51 76q42 31 91 31q47 0 75 -31t19 -76q-9 -46 -50 -76t-90 -30zM822 1190q-48 0 -76 31t-18 75t51 76
q42 31 89 31t75 -31t19 -76q-8 -46 -50 -76t-90 -30z" />
    <glyph glyph-name="yacute" unicode="&#xfd;" horiz-adv-x="1028" 
d="M1038 1047l-802 -1487h-259l275 440l-123 1047h258l35 -670q4 -73 -8 -133l-2 -21h4q20 72 61 154l334 670h227zM963 1446l-310 -283h-137l203 289q70 39 153 38t91 -44z" />
    <glyph glyph-name="thorn" unicode="&#xfe;" horiz-adv-x="1085" 
d="M709 530q94 388 -177 390q-70 0 -122 -23l-158 -745q55 -18 106 -19q136 1 224 105t127 292zM571 1069q229 0 331 -141t49 -393q-54 -252 -213 -402t-367 -149q-92 0 -152 18l-94 -442h-242l408 1919h239l-88 -420q55 10 129 10z" />
    <glyph glyph-name="ydieresis" unicode="&#xff;" horiz-adv-x="1028" 
d="M1038 1047l-802 -1487h-259l275 440l-123 1047h258l35 -670q4 -73 -8 -133l-2 -21h4q20 72 61 154l334 670h227zM441 1190q-47 0 -75 31t-19 75t51 76q42 31 89 31t76 -31t20 -76q-9 -46 -51 -76t-91 -30zM856 1403q46 0 74 -31t19 -76q-9 -46 -50 -76t-89 -30t-75 31
t-17 75t50 76q41 31 88 31z" />
    <glyph glyph-name="Amacron" unicode="&#x100;" horiz-adv-x="1247" 
d="M723 1167q0 43 2 62v20h-4q-23 -66 -76 -170l-252 -495h375l-41 495q-4 45 -4 88zM1081 0h-260l-41 426h-469l-221 -426h-235l802 1479h248zM1149 1780l-29 -138h-624l28 138h625z" />
    <glyph glyph-name="amacron" unicode="&#x101;" horiz-adv-x="1024" 
d="M627 557q-187 -23 -285 -75t-125 -173q-41 -193 174 -192q92 0 148 28zM482 913q-114 0 -265 -63l35 164q193 55 317 55q177 0 267 -86t49 -276l-137 -650q-162 -77 -388 -77t-315 82q-90 82 -57 239q40 196 235 285q167 76 430 100l13 53q22 96 -24 135t-160 39z
M961 1362l-29 -137h-625l29 137h625z" />
    <glyph glyph-name="Abreve" unicode="&#x102;" horiz-adv-x="1247" 
d="M723 1167q0 43 2 62v20h-4q-23 -66 -76 -170l-252 -495h375l-41 495q-4 45 -4 88zM1081 0h-260l-41 426h-469l-221 -426h-235l802 1479h248zM792 1579q-142 0 -193 85q-50 85 -30 183l90 25q6 -158 158 -158t234 158l77 -25q-20 -98 -107 -183t-229 -85z" />
    <glyph glyph-name="abreve" unicode="&#x103;" horiz-adv-x="1024" 
d="M627 557q-187 -23 -285 -75t-125 -173q-41 -193 174 -192q92 0 148 28zM482 913q-114 0 -265 -63l35 164q193 55 317 55q177 0 267 -86t49 -276l-137 -650q-162 -77 -388 -77t-315 82q-90 82 -57 239q40 196 235 285q167 76 430 100l13 53q22 96 -24 135t-160 39z
M606 1161q-142 0 -193 85q-50 85 -30 184l90 24q6 -158 158 -158t233 158l78 -24q-20 -98 -107 -184t-229 -85z" />
    <glyph glyph-name="Aogonek" unicode="&#x104;" horiz-adv-x="1247" 
d="M723 1167q0 43 2 62v20h-4q-23 -66 -76 -170l-252 -495h375l-41 495q-4 45 -4 88zM823 -211q0 -58 96 -52q52 3 125 27l11 -79q-156 -70 -282 -55t-126 118q0 131 234 252h-60l-41 426h-469l-221 -426h-235l802 1479h248l176 -1479h-49q-209 -109 -209 -211z" />
    <glyph glyph-name="aogonek" unicode="&#x105;" horiz-adv-x="1024" 
d="M627 557q-187 -23 -285 -75t-125 -173q-41 -193 174 -192q92 0 148 28zM430 -211q0 -58 95 -52q52 3 126 27l11 -79q-156 -70 -282 -55t-126 118q0 121 205 236q-70 -4 -111 -4q-213 0 -303 82t-57 239q40 196 235 285q167 76 430 100l13 53q22 96 -24 135t-160 39
t-265 -63l35 164q193 55 317 55q177 0 267 -86t49 -276l-137 -650q-138 -53 -228 -128t-90 -140z" />
    <glyph glyph-name="Cacute" unicode="&#x106;" horiz-adv-x="1150" 
d="M872 1313q-200 0 -328 -153t-186 -419q-26 -151 -18 -275t82 -205t222 -81t284 80l-43 -201q-145 -80 -357 -79q-147 0 -249 60q-103 60 -149 162q-103 228 -28 535q72 334 276 548t480 214q191 0 316 -84l-41 -192q-41 41 -115 65t-146 25zM1133 1864l-310 -283h-137
l203 289q70 39 153 38t91 -44z" />
    <glyph glyph-name="cacute" unicode="&#x107;" horiz-adv-x="950" 
d="M656 903q-126 0 -225 -101q-99 -102 -136 -272t22 -273t183 -103t219 55l-39 -176q-102 -53 -295 -53t-291 146t-45 400t217 398t369 145q162 0 254 -55l-35 -164q-72 53 -198 53zM940 1446l-309 -283h-137l202 289q70 39 153 38t91 -44z" />
    <glyph glyph-name="Ccircumflex" unicode="&#x108;" horiz-adv-x="1150" 
d="M872 1313q-200 0 -328 -153t-186 -419q-26 -151 -18 -275t82 -205t222 -81t284 80l-43 -201q-145 -80 -357 -79q-147 0 -249 60q-103 60 -149 162q-103 228 -28 535q72 334 276 548t480 214q191 0 316 -84l-41 -192q-41 41 -115 65t-146 25zM914 1878q48 0 73 -33
l164 -211l-82 -63l-186 158l-252 -158l-56 63l252 211q39 33 87 33z" />
    <glyph glyph-name="ccircumflex" unicode="&#x109;" horiz-adv-x="950" 
d="M656 903q-126 0 -225 -101q-99 -102 -136 -272t22 -273t183 -103t219 55l-39 -176q-102 -53 -295 -53t-291 146t-45 400t217 398t369 145q162 0 254 -55l-35 -164q-72 53 -198 53zM677 1460q48 0 73 -33l163 -210l-82 -64l-186 158l-252 -158l-55 64l252 210q39 33 87 33
z" />
    <glyph glyph-name="Cdot" unicode="&#x10a;" horiz-adv-x="1150" 
d="M872 1313q-200 0 -328 -153t-186 -419q-26 -151 -18 -275t82 -205t222 -81t284 80l-43 -201q-145 -80 -357 -79q-147 0 -249 60q-103 60 -149 162q-103 228 -28 535q72 334 276 548t480 214q191 0 316 -84l-41 -192q-41 41 -115 65t-146 25zM868 1651q-52 0 -81 37
q-27 37 -17 89t54 88t96 36t80 -36t18 -88t-54 -89t-96 -37z" />
    <glyph glyph-name="cdot" unicode="&#x10b;" horiz-adv-x="950" 
d="M656 903q-126 0 -225 -101q-99 -102 -136 -272t22 -273t183 -103t219 55l-39 -176q-102 -53 -295 -53t-291 146t-45 400t217 398t369 145q162 0 254 -55l-35 -164q-72 53 -198 53zM650 1233q-52 0 -80 37t-18 89t55 88q44 36 95 36t80 -36t19 -88q-11 -52 -55 -89
t-96 -37z" />
    <glyph glyph-name="Ccaron" unicode="&#x10c;" horiz-adv-x="1150" 
d="M872 1313q-200 0 -328 -153t-186 -419q-26 -151 -18 -275t82 -205t222 -81t284 80l-43 -201q-145 -80 -357 -79q-147 0 -249 60q-103 60 -149 162q-103 228 -28 535q72 334 276 548t480 214q191 0 316 -84l-41 -192q-41 41 -115 65t-146 25zM830 1575q-48 0 -74 35
l-164 211l80 61l188 -162l258 162l56 -61l-254 -211q-42 -35 -90 -35z" />
    <glyph glyph-name="ccaron" unicode="&#x10d;" horiz-adv-x="950" 
d="M656 903q-126 0 -225 -101q-99 -102 -136 -272t22 -273t183 -103t219 55l-39 -176q-102 -53 -295 -53t-291 146t-45 400t217 398t369 145q162 0 254 -55l-35 -164q-72 53 -198 53zM618 1157q-48 0 -75 35l-164 211l80 61l188 -161l258 161l56 -61l-254 -211
q-41 -35 -89 -35z" />
    <glyph glyph-name="Dcaron" unicode="&#x10e;" horiz-adv-x="1286" 
d="M434 172q172 0 304 142t191 427q60 285 -15 425t-238 141h-156l-241 -1135h155zM391 0h-401l313 1479h387q326 0 449 -197t49 -542q-74 -344 -274 -542t-523 -198zM716 1575q-48 0 -75 35l-164 211l80 61l188 -162l259 162l55 -61l-254 -211q-41 -35 -89 -35z" />
    <glyph glyph-name="dcaron" unicode="&#x10f;" horiz-adv-x="1085" 
d="M748 903q-53 16 -103 17q-141 0 -229 -109t-127 -289t3 -283t173 -104q82 0 123 23zM1110 1479l-301 -1422q-156 -77 -386 -77t-331 141q-100 141 -46 394t212 400t365 148q82 0 153 -21l92 437h242zM1440 1360q-18 -139 -154 -248h-164q128 145 142 245t-76 179h194
q30 -20 48 -68t10 -108z" />
    <glyph glyph-name="Dcroat" unicode="&#x110;" horiz-adv-x="1327" 
d="M479 172q173 0 305 142t191 429t-16 425t-238 139h-156l-92 -435h215l-33 -153h-215l-116 -547h155zM436 0h-401l153 719h-120l32 153h121l127 607h387q326 0 449 -197t49 -542q-74 -344 -274 -542t-523 -198z" />
    <glyph glyph-name="dmacron" unicode="&#x111;" horiz-adv-x="1085" 
d="M748 903q-53 16 -103 17q-141 0 -229 -109t-127 -289t3 -283t173 -104q82 0 123 23zM1239 1327l-33 -156h-162l-235 -1114q-156 -77 -386 -77t-331 141q-100 141 -46 394t212 400t365 148q82 0 153 -21l27 129h-305l32 156h306l32 152h242l-33 -152h162z" />
    <glyph glyph-name="Emacron" unicode="&#x112;" horiz-adv-x="962" 
d="M1030 1479l-39 -185h-473l-94 -444h424l-39 -182h-424l-102 -484h473l-39 -184h-727l313 1479h727zM1016 1780l-29 -138h-625l29 138h625z" />
    <glyph glyph-name="emacron" unicode="&#x113;" horiz-adv-x="1060" 
d="M584 922q-94 0 -172 -81t-117 -237h422q31 154 -4 236t-129 82zM494 150q144 0 311 67l-37 -168q-150 -70 -338 -69q-233 0 -335 143q-101 143 -47 400t215 401t364 145q203 0 277 -162t7 -436h-639q-26 -137 26 -229t196 -92zM1001 1362l-28 -137h-625l29 137h624z" />
    <glyph glyph-name="Ebreve" unicode="&#x114;" horiz-adv-x="962" 
d="M1030 1479l-39 -185h-473l-94 -444h424l-39 -182h-424l-102 -484h473l-39 -184h-727l313 1479h727zM661 1579q-142 0 -193 85q-50 85 -30 183l90 25q6 -158 158 -158t234 158l77 -25q-20 -98 -107 -183t-229 -85z" />
    <glyph glyph-name="ebreve" unicode="&#x115;" horiz-adv-x="1060" 
d="M584 922q-94 0 -172 -81t-117 -237h422q31 154 -4 236t-129 82zM494 150q144 0 311 67l-37 -168q-150 -70 -338 -69q-233 0 -335 143q-101 143 -47 400t215 401t364 145q203 0 277 -162t7 -436h-639q-26 -137 26 -229t196 -92zM626 1161q-142 0 -193 85q-50 85 -30 184
l91 24q6 -158 158 -158t233 158l78 -24q-19 -98 -107 -184t-230 -85z" />
    <glyph glyph-name="Edot" unicode="&#x116;" horiz-adv-x="962" 
d="M1030 1479l-39 -185h-473l-94 -444h424l-39 -182h-424l-102 -484h473l-39 -184h-727l313 1479h727zM677 1651q-52 0 -80 37q-27 37 -17 89t54 88t95 36t79 -36t19 -88q-10 -52 -54 -89t-96 -37z" />
    <glyph glyph-name="edot" unicode="&#x117;" horiz-adv-x="1060" 
d="M584 922q-94 0 -172 -81t-117 -237h422q31 154 -4 236t-129 82zM494 150q144 0 311 67l-37 -168q-150 -70 -338 -69q-233 0 -335 143q-101 143 -47 400t215 401t364 145q203 0 277 -162t7 -436h-639q-26 -137 26 -229t196 -92zM642 1233q-52 0 -80 37t-18 89t55 88
q44 36 95 36t80 -36t19 -88q-11 -52 -55 -89t-96 -37z" />
    <glyph glyph-name="Eogonek" unicode="&#x118;" horiz-adv-x="962" 
d="M438 -211q0 -58 96 -52q52 3 125 27l11 -79q-156 -70 -282 -55t-126 118q0 131 234 252h-506l313 1479h727l-39 -185h-473l-94 -444h424l-39 -182h-424l-102 -484h473l-39 -184h-70q-209 -109 -209 -211z" />
    <glyph glyph-name="eogonek" unicode="&#x119;" horiz-adv-x="1060" 
d="M584 922q-94 0 -172 -81t-117 -237h422q31 154 -4 236t-129 82zM479 -211q0 -58 95 -52q52 3 126 27l11 -79q-156 -70 -282 -55t-126 118q0 119 201 234q-23 -2 -74 -2q-233 0 -335 143q-101 143 -47 400t215 401t364 145q203 0 277 -162t7 -436h-639q-26 -137 26 -229
t196 -92t311 67l-37 -168q-98 -37 -194 -112q-95 -76 -95 -148z" />
    <glyph glyph-name="Ecaron" unicode="&#x11a;" horiz-adv-x="962" 
d="M1030 1479l-39 -185h-473l-94 -444h424l-39 -182h-424l-102 -484h473l-39 -184h-727l313 1479h727zM660 1575q-48 0 -74 35l-164 211l80 61l188 -162l258 162l56 -61l-254 -211q-42 -35 -90 -35z" />
    <glyph glyph-name="ecaron" unicode="&#x11b;" horiz-adv-x="1060" 
d="M584 922q-94 0 -172 -81t-117 -237h422q31 154 -4 236t-129 82zM494 150q144 0 311 67l-37 -168q-150 -70 -338 -69q-233 0 -335 143q-101 143 -47 400t215 401t364 145q203 0 277 -162t7 -436h-639q-26 -137 26 -229t196 -92zM626 1157q-48 0 -75 35l-164 211l80 61
l188 -161l258 161l56 -61l-254 -211q-41 -35 -89 -35z" />
    <glyph glyph-name="Gcircumflex" unicode="&#x11c;" horiz-adv-x="1247" 
d="M887 1315q-195 -1 -331 -145t-196 -426t9 -432q68 -151 227 -150q90 0 160 26l133 629h239l-159 -754q-162 -84 -402 -83q-293 0 -417 200t-48 558q76 360 295 560t498 201q184 0 311 -82l-41 -196q-121 94 -278 94zM927 1878q48 0 72 -33l164 -211l-82 -63l-186 158
l-252 -158l-55 63l252 211q39 33 87 33z" />
    <glyph glyph-name="gcircumflex" unicode="&#x11d;" horiz-adv-x="1077" 
d="M565 924q-103 0 -165 -58t-82 -157q-20 -97 16 -155q37 -58 141 -58q201 0 248 213q45 215 -158 215zM377 199h155q170 0 247 -86t50 -215q-35 -162 -176 -258t-356 -96t-325 75q-110 76 -83 201q12 55 48 112h219q-29 -33 -44 -101q-14 -68 50 -106t172 -38t182 53
q72 53 89 131q17 77 -19 107t-133 30h-150q-196 0 -237 91q-18 40 -7 98q20 98 158 200q-164 88 -117 312q35 164 161 262t335 98q84 0 170 -22h326l-29 -129h-141q47 -74 17 -220t-155 -246q-125 -101 -340 -102q-20 0 -53 2h-33q-68 -37 -82 -96q-6 -35 24 -46t77 -11z
M648 1460q48 0 73 -33l164 -210l-82 -64l-187 158l-251 -158l-56 64l252 210q39 33 87 33z" />
    <glyph glyph-name="Gbreve" unicode="&#x11e;" horiz-adv-x="1247" 
d="M887 1315q-195 -1 -331 -145t-196 -426t9 -432q68 -151 227 -150q90 0 160 26l133 629h239l-159 -754q-162 -84 -402 -83q-293 0 -417 200t-48 558q76 360 295 560t498 201q184 0 311 -82l-41 -196q-121 94 -278 94zM864 1579q-142 0 -193 85q-50 85 -30 183l90 25
q6 -158 158 -158t233 158l78 -25q-20 -98 -107 -183t-229 -85z" />
    <glyph glyph-name="gbreve" unicode="&#x11f;" horiz-adv-x="1077" 
d="M565 924q-103 0 -165 -58t-82 -157q-20 -97 16 -155q37 -58 141 -58q201 0 248 213q45 215 -158 215zM377 199h155q170 0 247 -86t50 -215q-35 -162 -176 -258t-356 -96t-325 75q-110 76 -83 201q12 55 48 112h219q-29 -33 -44 -101q-14 -68 50 -106t172 -38t182 53
q72 53 89 131q17 77 -19 107t-133 30h-150q-196 0 -237 91q-18 40 -7 98q20 98 158 200q-164 88 -117 312q35 164 161 262t335 98q84 0 170 -22h326l-29 -129h-141q47 -74 17 -220t-155 -246q-125 -101 -340 -102q-20 0 -53 2h-33q-68 -37 -82 -96q-6 -35 24 -46t77 -11z
M606 1161q-142 0 -193 85q-50 85 -30 184l90 24q6 -158 158 -158t233 158l78 -24q-20 -98 -107 -184t-229 -85z" />
    <glyph glyph-name="Gdot" unicode="&#x120;" horiz-adv-x="1247" 
d="M887 1315q-195 -1 -331 -145t-196 -426t9 -432q68 -151 227 -150q90 0 160 26l133 629h239l-159 -754q-162 -84 -402 -83q-293 0 -417 200t-48 558q76 360 295 560t498 201q184 0 311 -82l-41 -196q-121 94 -278 94zM880 1651q-52 0 -80 37t-18 89t54 88t96 36t80 -36
t18 -88t-54 -89t-96 -37z" />
    <glyph glyph-name="gdot" unicode="&#x121;" horiz-adv-x="1077" 
d="M565 924q-103 0 -165 -58t-82 -157q-20 -97 16 -155q37 -58 141 -58q201 0 248 213q45 215 -158 215zM377 199h155q170 0 247 -86t50 -215q-35 -162 -176 -258t-356 -96t-325 75q-110 76 -83 201q12 55 48 112h219q-29 -33 -44 -101q-14 -68 50 -106t172 -38t182 53
q72 53 89 131q17 77 -19 107t-133 30h-150q-196 0 -237 91q-18 40 -7 98q20 98 158 200q-164 88 -117 312q35 164 161 262t335 98q84 0 170 -22h326l-29 -129h-141q47 -74 17 -220t-155 -246q-125 -101 -340 -102q-20 0 -53 2h-33q-68 -37 -82 -96q-6 -35 24 -46t77 -11z
M601 1233q-52 0 -80 37q-27 37 -17 89t54 88t95 36t80 -36t19 -88t-54 -89t-97 -37z" />
    <glyph glyph-name="Gcommaaccent" unicode="&#x122;" horiz-adv-x="1247" 
d="M688 -272q-14 -104 -114 -166t-232 -74l-29 100q180 25 201 150q12 82 -98 164h205q35 -25 55 -72t12 -102zM887 1315q-195 -1 -331 -145t-196 -426t9 -432q68 -151 227 -150q90 0 160 26l133 629h239l-159 -754q-162 -84 -402 -83q-293 0 -417 200t-48 558
q76 360 295 560t498 201q184 0 311 -82l-41 -196q-121 94 -278 94z" />
    <glyph glyph-name="gcommaaccent" unicode="&#x123;" horiz-adv-x="1077" 
d="M565 924q-103 0 -165 -58t-82 -157q-20 -97 16 -155q37 -58 141 -58q201 0 248 213q45 215 -158 215zM377 199h155q170 0 247 -86t50 -215q-35 -162 -176 -258t-356 -96t-325 75q-110 76 -83 201q12 55 48 112h219q-29 -33 -44 -101q-14 -68 50 -106t172 -38t182 53
q72 53 89 131q17 77 -19 107t-133 30h-150q-196 0 -237 91q-18 40 -7 98q20 98 158 200q-164 88 -117 312q35 164 161 262t335 98q84 0 170 -22h326l-29 -129h-141q47 -74 17 -220t-155 -246q-125 -101 -340 -102q-20 0 -53 2h-33q-68 -37 -82 -96q-6 -35 24 -46t77 -11z
M831 1481q-78 -8 -134 -46t-65 -108t97 -160h-203q-84 59 -70 169t114 172q99 62 233 73z" />
    <glyph glyph-name="Hcircumflex" unicode="&#x124;" horiz-adv-x="1296" 
d="M1309 1479l-314 -1479h-254l144 670h-498l-143 -670h-254l313 1479h254l-133 -631h498l133 631h254zM883 1878q47 0 73 -33l164 -211l-82 -63l-186 158l-252 -158l-55 63l252 211q39 33 86 33z" />
    <glyph glyph-name="hcircumflex" unicode="&#x125;" horiz-adv-x="1095" 
d="M575 909q-92 0 -172 -39l-184 -870h-242l314 1479h241l-100 -475q129 55 246 55q184 1 250 -91t37 -227l-158 -741h-242l156 733q37 176 -146 176zM726 1878q48 0 73 -33l164 -211l-82 -63l-187 158l-252 -158l-55 63l252 211q39 33 87 33z" />
    <glyph glyph-name="Hbar" unicode="&#x126;" horiz-adv-x="1296" 
d="M954 1008h-497l-33 -160h498zM1362 1161l-33 -153h-121l-213 -1008h-254l144 670h-498l-143 -670h-254l213 1008h-121l33 153h121l67 318h254l-68 -318h498l68 318h254l-68 -318h121z" />
    <glyph glyph-name="hbar" unicode="&#x127;" horiz-adv-x="1095" 
d="M575 909q-92 0 -172 -39l-184 -870h-242l252 1188h-166l29 139h166l33 152h241l-32 -152h307l-29 -139h-307l-39 -184q129 55 246 55q184 1 250 -91t37 -227l-158 -741h-242l156 733q37 176 -146 176z" />
    <glyph glyph-name="Itilde" unicode="&#x128;" horiz-adv-x="555" 
d="M561 1479l-313 -1479h-254l313 1479h254zM594 1602q-57 0 -132 40t-127 41q-53 0 -113 -41t-83 -77l33 153q90 96 186 97q61 0 132 -41t125 -41q55 -1 115 39t83 79l-33 -153q-86 -96 -186 -96z" />
    <glyph glyph-name="itilde" unicode="&#x129;" horiz-adv-x="526" 
d="M453 1047l-224 -1047h-243l223 1047h244zM502 1184q-57 0 -132 41t-127 41q-53 0 -113 -41t-83 -78l33 153q90 96 186 97q61 0 132 -41t125 -41q55 0 115 40t83 79l-33 -154q-86 -96 -186 -96z" />
    <glyph glyph-name="Imacron" unicode="&#x12a;" horiz-adv-x="555" 
d="M561 1479l-313 -1479h-254l313 1479h254zM805 1780l-29 -138h-624l28 138h625z" />
    <glyph glyph-name="imacron" unicode="&#x12b;" horiz-adv-x="526" 
d="M453 1047l-224 -1047h-243l223 1047h244zM692 1362l-28 -137h-625l29 137h624z" />
    <glyph glyph-name="Ibreve" unicode="&#x12c;" horiz-adv-x="555" 
d="M561 1479l-313 -1479h-254l313 1479h254zM450 1579q-142 0 -193 85q-50 85 -30 183l90 25q6 -158 158 -158t234 158l77 -25q-20 -98 -107 -183t-229 -85z" />
    <glyph glyph-name="ibreve" unicode="&#x12d;" horiz-adv-x="526" 
d="M453 1047l-224 -1047h-243l223 1047h244zM358 1161q-142 0 -193 85q-50 85 -30 184l90 24q6 -158 158 -158t233 158l78 -24q-20 -98 -107 -184t-229 -85z" />
    <glyph glyph-name="Iogonek" unicode="&#x12e;" horiz-adv-x="555" 
d="M39 -211q0 -57 95 -52q52 3 126 27l8 -79q-154 -70 -280 -55t-125 118q0 131 233 252h-102l313 1479h254l-313 -1479q-209 -109 -209 -211z" />
    <glyph glyph-name="iogonek" unicode="&#x12f;" horiz-adv-x="526" 
d="M20 -211q0 -58 96 -52q52 3 126 27l8 -79q-154 -70 -280 -55t-126 118q0 131 234 252h-92l223 1047h244l-224 -1047q-209 -109 -209 -211zM367 1223q-55 0 -87 39t-20 95t60 96t104 40t88 -40t20 -96t-61 -95t-104 -39z" />
    <glyph glyph-name="Idot" unicode="&#x130;" horiz-adv-x="555" 
d="M561 1479l-313 -1479h-254l313 1479h254zM466 1651q-52 0 -80 37t-18 89t55 88q44 36 95 36q52 0 80 -36t18 -88t-54 -89t-96 -37z" />
    <glyph glyph-name="dotlessi" unicode="&#x131;" horiz-adv-x="526" 
d="M453 1047l-224 -1047h-243l223 1047h244z" />
    <glyph glyph-name="IJ" unicode="&#x132;" horiz-adv-x="1110" 
d="M561 1479l-313 -1479h-254l313 1479h254zM1116 1479l-297 -1403q-49 -236 -213 -368t-383 -152l39 182q104 23 188 106q83 84 111 217l301 1418h254z" />
    <glyph glyph-name="ij" unicode="&#x133;" horiz-adv-x="1052" 
d="M453 1047l-224 -1047h-243l223 1047h244zM981 1047l-203 -955q-51 -238 -204 -381t-343 -155l35 161q100 31 166 112t98 241l209 977h242zM367 1223q-55 0 -87 39t-20 95t60 96t104 40t88 -40t20 -96t-61 -95t-104 -39zM896 1223q-56 0 -88 39t-20 95t60 96t105 40
q56 0 88 -40t20 -96q-13 -56 -61 -95t-104 -39z" />
    <glyph glyph-name="Jcircumflex" unicode="&#x134;" horiz-adv-x="555" 
d="M561 1479l-297 -1403q-49 -236 -213 -368t-383 -152l39 182q104 23 188 106q83 84 111 217l301 1418h254zM513 1878q48 0 73 -33l164 -211l-82 -63l-187 158l-252 -158l-55 63l252 211q39 33 87 33z" />
    <glyph glyph-name="jcircumflex" unicode="&#x135;" horiz-adv-x="526" 
d="M455 1047l-203 -955q-51 -238 -204 -381t-343 -155l35 161q100 31 166 112t98 241l209 977h242zM417 1460q48 0 72 -33l164 -210l-80 -64l-186 158l-252 -158l-59 64l254 210q39 33 87 33z" />
    <glyph glyph-name="Kcommaaccent" unicode="&#x136;" horiz-adv-x="1153" 
d="M586 -272q-14 -104 -114 -166t-232 -74l-29 100q180 25 201 150q12 82 -99 164h205q36 -25 56 -72t12 -102zM1253 1479l-608 -686l320 -793h-293l-266 748h-5l-159 -748h-252l313 1479h252l-143 -678h4l569 678h268z" />
    <glyph glyph-name="kcommaaccent" unicode="&#x137;" horiz-adv-x="1021" 
d="M545 -272q-13 -104 -113 -166t-233 -74l-29 100q180 25 201 150q12 82 -99 164h205q35 -25 55 -72t13 -102zM1032 1047l-465 -478l285 -569h-274l-238 535h-2l-113 -535h-239l313 1479h240l-191 -906h2l436 474h246z" />
    <glyph glyph-name="kgreenlantic" unicode="&#x138;" horiz-adv-x="1021" 
d="M1032 1047l-465 -478l285 -569h-274l-238 535h-2l-113 -535h-239l221 1047h239l-98 -474h2l436 474h246z" />
    <glyph glyph-name="Lacute" unicode="&#x139;" horiz-adv-x="888" 
d="M705 184l-39 -184h-676l313 1479h254l-274 -1295h422zM797 1864l-310 -283h-137l203 289q70 39 153 38t91 -44z" />
    <glyph glyph-name="lacute" unicode="&#x13a;" horiz-adv-x="526" 
d="M543 1479l-314 -1479h-243l313 1479h244zM776 1864l-309 -283h-137l202 289q70 39 153 38t91 -44z" />
    <glyph glyph-name="Lcommaaccent" unicode="&#x13b;" horiz-adv-x="888" 
d="M463 -272q-13 -104 -113 -166t-233 -74l-29 100q180 25 201 150q12 82 -99 164h205q35 -25 55 -72t13 -102zM705 184l-39 -184h-676l313 1479h254l-274 -1295h422z" />
    <glyph glyph-name="lcommaaccent" unicode="&#x13c;" horiz-adv-x="526" 
d="M258 -272q-14 -104 -114 -166t-232 -74l-29 100q180 25 201 150q12 82 -98 164h204q36 -25 56 -72t12 -102zM543 1479l-314 -1479h-243l313 1479h244z" />
    <glyph glyph-name="Lcaron" unicode="&#x13d;" horiz-adv-x="888" 
d="M705 184l-39 -184h-676l313 1479h254l-274 -1295h422zM938 1360q-20 -141 -154 -248h-163q127 145 140 244t-77 180h197q31 -20 48 -68t9 -108z" />
    <glyph glyph-name="lcaron" unicode="&#x13e;" horiz-adv-x="526" 
d="M543 1479l-314 -1479h-243l313 1479h244zM870 1360q-18 -139 -153 -248h-164q127 145 141 245t-76 179h195q31 -20 48 -68t9 -108z" />
    <glyph glyph-name="Ldot" unicode="&#x13f;" horiz-adv-x="888" 
d="M705 184l-39 -184h-676l313 1479h254l-274 -1295h422zM593 618q-52 0 -80 37q-27 37 -17 89t54 88t95 36t80 -35q28 -37 18 -89t-54 -89t-96 -37z" />
    <glyph glyph-name="ldot" unicode="&#x140;" horiz-adv-x="526" 
d="M543 1479l-314 -1479h-243l313 1479h244zM572 618q-52 0 -80 37t-17 89q10 52 54 88q43 36 95 36t81 -35q28 -37 18 -89t-54 -89q-45 -37 -97 -37z" />
    <glyph glyph-name="Lslash" unicode="&#x141;" horiz-adv-x="913" 
d="M733 184l-39 -184h-676l158 739l-133 -59l31 145l133 60l125 594h254l-101 -473l174 73l-30 -143l-174 -76l-144 -676h422z" />
    <glyph glyph-name="lslash" unicode="&#x142;" horiz-adv-x="632" 
d="M649 1042l-31 -147l-161 -74l-174 -821h-246l147 694l-147 -69l31 147l147 66l135 641h246l-107 -510z" />
    <glyph glyph-name="Nacute" unicode="&#x143;" horiz-adv-x="1359" 
d="M1372 1479l-313 -1479h-217l-342 958l-49 164h-5q-8 -84 -26 -170l-203 -952h-227l313 1479h254l322 -904l47 -145h4q6 68 24 152l191 897h227zM1157 1864l-309 -283h-137l202 289q70 39 153 38t91 -44z" />
    <glyph glyph-name="nacute" unicode="&#x144;" horiz-adv-x="1091" 
d="M573 911q-90 0 -165 -26l-189 -885h-242l211 989q184 80 417 80q233 -1 312 -91t48 -233l-158 -745h-244l158 739q37 172 -148 172zM920 1446l-310 -283h-137l203 289q70 39 153 38t91 -44z" />
    <glyph glyph-name="Ncommaaccent" unicode="&#x145;" horiz-adv-x="1359" 
d="M668 -272q-14 -104 -114 -166t-232 -74l-29 100q180 25 201 150q12 82 -99 164h205q36 -25 56 -72t12 -102zM1372 1479l-313 -1479h-217l-342 958l-49 164h-5q-8 -84 -26 -170l-203 -952h-227l313 1479h254l322 -904l47 -145h4q6 68 24 152l191 897h227z" />
    <glyph glyph-name="ncommaaccent" unicode="&#x146;" horiz-adv-x="1091" 
d="M524 -272q-14 -104 -113 -166t-233 -74l-28 100q180 25 200 150q12 82 -98 164h205q35 -25 55 -72t12 -102zM573 911q-90 0 -165 -26l-189 -885h-242l211 989q184 80 417 80q233 -1 312 -91t48 -233l-158 -745h-244l158 739q37 172 -148 172z" />
    <glyph glyph-name="Ncaron" unicode="&#x147;" horiz-adv-x="1359" 
d="M1372 1479l-313 -1479h-217l-342 958l-49 164h-5q-8 -84 -26 -170l-203 -952h-227l313 1479h254l322 -904l47 -145h4q6 68 24 152l191 897h227zM855 1575q-48 0 -75 35l-164 211l80 61l189 -162l258 162l55 -61l-254 -211q-41 -35 -89 -35z" />
    <glyph glyph-name="ncaron" unicode="&#x148;" horiz-adv-x="1091" 
d="M573 911q-90 0 -165 -26l-189 -885h-242l211 989q184 80 417 80q233 -1 312 -91t48 -233l-158 -745h-244l158 739q37 172 -148 172zM618 1157q-48 0 -75 35l-164 211l80 61l188 -161l258 161l56 -61l-254 -211q-41 -35 -89 -35z" />
    <glyph glyph-name="napostrophe" unicode="&#x149;" horiz-adv-x="1091" 
d="M573 911q-90 0 -165 -26l-189 -885h-242l211 989q184 80 417 80q233 -1 312 -91t48 -233l-158 -745h-244l158 739q37 172 -148 172zM522 1360q-18 -139 -153 -248h-164q127 145 141 245t-76 179h195q31 -20 48 -68t9 -108z" />
    <glyph glyph-name="Eng" unicode="&#x14a;" horiz-adv-x="1359" 
d="M1372 1479l-311 -1467q-53 -248 -183 -352t-389 -121l41 187q143 22 211 76t101 198l-342 958l-49 164h-5q-8 -84 -26 -170l-203 -952h-227l313 1479h254l322 -904l47 -145h4q8 68 24 152l191 897h227z" />
    <glyph glyph-name="eng" unicode="&#x14b;" horiz-adv-x="1091" 
d="M573 911q-90 0 -165 -26l-189 -885h-242l211 989q184 80 417 80q233 -1 312 -91t48 -233l-158 -745q-25 -112 -57 -188q-75 -175 -263 -237q-102 -34 -254 -40l39 184q152 15 205 71t86 210l158 739q37 172 -148 172z" />
    <glyph glyph-name="Omacron" unicode="&#x14c;" horiz-adv-x="1312" 
d="M539 172q294 0 417 574t-174 575q-301 -1 -424 -575t181 -574zM821 1499q145 0 241 -60q96 -61 138 -163q88 -221 14 -537q-72 -340 -252 -550t-464 -209q-145 0 -244 59q-98 59 -138 161q-89 228 -14 539q72 338 253 549t466 211zM1190 1780l-29 -138h-624l28 138h625z
" />
    <glyph glyph-name="omacron" unicode="&#x14d;" horiz-adv-x="1058" 
d="M567 911q-197 0 -279 -387t114 -387t280 387q82 387 -115 387zM923 524q-53 -244 -195 -394t-357 -150t-295 150t-28 394t196 395t358 151q213 0 293 -152q80 -150 28 -394zM981 1362l-29 -137h-624l28 137h625z" />
    <glyph glyph-name="Obreve" unicode="&#x14e;" horiz-adv-x="1312" 
d="M539 172q294 0 417 574t-174 575q-301 -1 -424 -575t181 -574zM821 1499q145 0 241 -60q96 -61 138 -163q88 -221 14 -537q-72 -340 -252 -550t-464 -209q-145 0 -244 59q-98 59 -138 161q-89 228 -14 539q72 338 253 549t466 211zM835 1579q-142 0 -193 85
q-50 85 -30 183l90 25q6 -158 158 -158t234 158l77 -25q-20 -98 -107 -183t-229 -85z" />
    <glyph glyph-name="obreve" unicode="&#x14f;" horiz-adv-x="1058" 
d="M567 911q-197 0 -279 -387t114 -387t280 387q82 387 -115 387zM923 524q-53 -244 -195 -394t-357 -150t-295 150t-28 394t196 395t358 151q213 0 293 -152q80 -150 28 -394zM606 1161q-142 0 -193 85q-50 85 -30 184l90 24q6 -158 158 -158t233 158l78 -24
q-20 -98 -107 -184t-229 -85z" />
    <glyph glyph-name="Ohungarumlaut" unicode="&#x150;" horiz-adv-x="1312" 
d="M539 172q294 0 417 574t-174 575q-301 -1 -424 -575t181 -574zM821 1499q145 0 241 -60q96 -61 138 -163q88 -221 14 -537q-72 -340 -252 -550t-464 -209q-145 0 -244 59q-98 59 -138 161q-89 228 -14 539q72 338 253 549t466 211zM950 1884q64 0 60 -41l-299 -264h-97
l213 262q59 43 123 43zM1230 1884q64 0 64 -41l-301 -264h-96l215 262q54 43 118 43z" />
    <glyph glyph-name="ohungarumlaut" unicode="&#x151;" horiz-adv-x="1058" 
d="M567 911q-197 0 -279 -387t114 -387t280 387q82 387 -115 387zM923 524q-53 -244 -195 -394t-357 -150t-295 150t-28 394t196 395t358 151q213 0 293 -152q80 -150 28 -394zM720 1466q64 0 60 -41l-299 -264h-96l213 262q58 43 122 43zM1002 1466q64 0 63 -41l-301 -264
h-96l215 262q55 43 119 43z" />
    <glyph glyph-name="OE" unicode="&#x152;" horiz-adv-x="1654" 
d="M812 1319q-90 0 -172 -51q-81 -50 -135 -140q-101 -168 -148 -384q-47 -215 -15 -390q16 -88 76 -138t156 -50q97 0 151 14l238 1123q-61 16 -151 16zM541 -20q-297 0 -405 206t-33 554q75 349 269 554t490 205q80 0 172 -20h690l-38 -185h-474l-94 -444h424l-39 -182
h-424l-102 -484h473l-39 -184h-690q-74 -20 -180 -20z" />
    <glyph glyph-name="oe" unicode="&#x153;" horiz-adv-x="1665" 
d="M400 137q200 0 280 385q61 278 -18 357q-35 33 -97 32q-203 0 -282 -387q-83 -387 117 -387zM1185 922q-93 0 -172 -81t-118 -237h424q33 152 -4 235t-130 83zM1100 150q150 0 307 67l-37 -168q-166 -70 -344 -69q-248 0 -305 208q-137 -208 -351 -208t-294 150t-28 394
t196 395t349 151q204 0 269 -191q150 190 354 190q204 -1 288 -153t12 -445h-644q-30 -137 24 -229t204 -92z" />
    <glyph glyph-name="Racute" unicode="&#x154;" horiz-adv-x="1193" 
d="M678 1325h-154l-110 -520h106q170 -1 259 61t118 201t-25 199t-194 59zM758 1479q232 0 330 -116q98 -117 64 -279t-143 -267q-110 -104 -272 -133l260 -684h-284l-234 651h-98l-139 -651h-252l313 1479h455zM1030 1864l-309 -283h-137l202 289q70 39 153 38t91 -44z" />
    <glyph glyph-name="racute" unicode="&#x155;" horiz-adv-x="681" 
d="M610 1071q15 0 105 -8l-82 -166q-127 33 -225 -14l-189 -883h-242l209 987q193 84 424 84zM776 1446l-309 -283h-137l202 289q70 39 153 38t91 -44z" />
    <glyph glyph-name="Rcommaaccent" unicode="&#x156;" horiz-adv-x="1193" 
d="M678 1325h-154l-110 -520h106q170 -1 259 61t118 201t-25 199t-194 59zM606 -272q-14 -104 -113 -166t-233 -74l-29 100q180 25 201 150q12 82 -98 164h205q35 -25 55 -72t12 -102zM758 1479q232 0 330 -116q98 -117 64 -279t-143 -267q-110 -104 -272 -133l260 -684
h-284l-234 651h-98l-139 -651h-252l313 1479h455z" />
    <glyph glyph-name="rcommaaccent" unicode="&#x157;" horiz-adv-x="681" 
d="M299 -272q-13 -104 -113 -166t-233 -74l-29 100q180 25 201 150q12 82 -98 164h204q35 -25 55 -72t13 -102zM610 1071q15 0 105 -8l-82 -166q-127 33 -225 -14l-189 -883h-242l209 987q193 84 424 84z" />
    <glyph glyph-name="Rcaron" unicode="&#x158;" horiz-adv-x="1193" 
d="M678 1325h-154l-110 -520h106q170 -1 259 61t118 201t-25 199t-194 59zM758 1479q232 0 330 -116q98 -117 64 -279t-143 -267q-110 -104 -272 -133l260 -684h-284l-234 651h-98l-139 -651h-252l313 1479h455zM687 1575q-48 0 -75 35l-163 211l79 61l189 -162l258 162
l55 -61l-254 -211q-41 -35 -89 -35z" />
    <glyph glyph-name="rcaron" unicode="&#x159;" horiz-adv-x="681" 
d="M610 1071q15 0 105 -8l-82 -166q-127 33 -225 -14l-189 -883h-242l209 987q193 84 424 84zM454 1157q-48 0 -75 35l-164 211l80 61l188 -161l258 161l56 -61l-254 -211q-41 -35 -89 -35z" />
    <glyph glyph-name="Sacute" unicode="&#x15a;" horiz-adv-x="1040" 
d="M726 1321q-118 0 -192 -58q-74 -57 -96 -155t29 -150t168 -105q117 -52 181 -127q64 -76 69 -146q4 -70 -8 -148q-43 -199 -200 -326q-157 -126 -374 -126t-344 79l47 222q142 -107 282 -107t221 67t100 160t-30 151q-50 58 -176 112q-287 125 -227 401q37 180 186 307
q150 127 338 127t320 -72l-41 -196q-135 90 -253 90zM1010 1864l-310 -283h-137l203 289q70 39 153 38t91 -44z" />
    <glyph glyph-name="sacute" unicode="&#x15b;" horiz-adv-x="821" 
d="M209 -20q-155 0 -258 63l41 184q33 -31 92 -55q145 -58 245 19q54 43 68 105t-14 99q-29 37 -104 70q-127 53 -163 127t-16 170q27 129 139 218t259 89t247 -57l-36 -172q-82 70 -199 69q-70 0 -116 -38t-58 -97t18 -96t101 -68q131 -59 170 -134t16 -177
q-29 -133 -153 -226t-279 -93zM813 1446l-309 -283h-137l202 289q70 39 153 38t91 -44z" />
    <glyph glyph-name="Scircumflex" unicode="&#x15c;" horiz-adv-x="1040" 
d="M726 1321q-118 0 -192 -58q-74 -57 -96 -155t29 -150t168 -105q117 -52 181 -127q64 -76 69 -146q4 -70 -8 -148q-43 -199 -200 -326q-157 -126 -374 -126t-344 79l47 222q142 -107 282 -107t221 67t100 160t-30 151q-50 58 -176 112q-287 125 -227 401q37 180 186 307
q150 127 338 127t320 -72l-41 -196q-135 90 -253 90zM771 1878q48 0 73 -33l164 -211l-82 -63l-187 158l-252 -158l-55 63l252 211q39 33 87 33z" />
    <glyph glyph-name="scircumflex" unicode="&#x15d;" horiz-adv-x="821" 
d="M209 -20q-155 0 -258 63l41 184q33 -31 92 -55q145 -58 245 19q54 43 68 105t-14 99q-29 37 -104 70q-127 53 -163 127t-16 170q27 129 139 218t259 89t247 -57l-36 -172q-82 70 -199 69q-70 0 -116 -38t-58 -97t18 -96t101 -68q131 -59 170 -134t16 -177
q-29 -133 -153 -226t-279 -93zM558 1460q48 0 73 -33l164 -210l-82 -64l-187 158l-252 -158l-55 64l252 210q39 33 87 33z" />
    <glyph glyph-name="Scedilla" unicode="&#x15e;" horiz-adv-x="1040" 
d="M578 -254q-20 -98 -176 -139t-408 -19l67 86q137 -12 237 8t108 61q8 42 -46 55t-194 3l63 78q207 17 286 -19t63 -114zM726 1321q-118 0 -192 -58q-74 -57 -96 -155t29 -150t168 -105q117 -52 181 -127q64 -76 69 -146q4 -70 -8 -148q-43 -199 -200 -326
q-157 -126 -374 -126t-344 79l47 222q142 -107 282 -107t221 67t100 160t-30 151q-50 58 -176 112q-287 125 -227 401q37 180 186 307q150 127 338 127t320 -72l-41 -196q-135 90 -253 90z" />
    <glyph glyph-name="scedilla" unicode="&#x15f;" horiz-adv-x="821" 
d="M483 -254q-20 -98 -175 -139t-408 -19l67 86q137 -12 237 8t107 61q8 42 -46 55t-193 3l63 78q207 16 286 -19q78 -36 62 -114zM209 -20q-155 0 -258 63l41 184q33 -31 92 -55q145 -58 245 19q54 43 68 105t-14 99q-29 37 -104 70q-127 53 -163 127t-16 170
q27 129 139 218t259 89t247 -57l-36 -172q-82 70 -199 69q-70 0 -116 -38t-58 -97t18 -96t101 -68q131 -59 170 -134t16 -177q-29 -133 -153 -226t-279 -93z" />
    <glyph glyph-name="Scaron" unicode="&#x160;" horiz-adv-x="1040" 
d="M726 1321q-118 0 -192 -58q-74 -57 -96 -155t29 -150t168 -105q117 -52 181 -127q64 -76 69 -146q4 -70 -8 -148q-43 -199 -200 -326q-157 -126 -374 -126t-344 79l47 222q142 -107 282 -107t221 67t100 160t-30 151q-50 58 -176 112q-287 125 -227 401q37 180 186 307
q150 127 338 127t320 -72l-41 -196q-135 90 -253 90zM707 1567q-49 0 -74 35l-164 210l80 62l190 -160l254 160l58 -62l-254 -210q-41 -35 -90 -35z" />
    <glyph glyph-name="scaron" unicode="&#x161;" horiz-adv-x="821" 
d="M209 -20q-155 0 -258 63l41 184q33 -31 92 -55q145 -58 245 19q54 43 68 105t-14 99q-29 37 -104 70q-127 53 -163 127t-16 170q27 129 139 218t259 89t247 -57l-36 -172q-82 70 -199 69q-70 0 -116 -38t-58 -97t18 -96t101 -68q131 -59 170 -134t16 -177
q-29 -133 -153 -226t-279 -93zM502 1159q-47 0 -74 35l-166 211l82 61l188 -161l256 161l58 -61l-254 -211q-43 -35 -90 -35z" />
    <glyph glyph-name="Tcedilla" unicode="&#x162;" horiz-adv-x="950" 
d="M483 -272q-14 -104 -113 -166t-233 -74l-28 100q180 25 200 150q12 82 -98 164h205q35 -25 55 -72t12 -102zM1055 1479l-39 -185h-295l-275 -1294h-251l274 1294h-297l39 185h844z" />
    <glyph glyph-name="tcedilla" unicode="&#x163;" horiz-adv-x="663" 
d="M381 -272q-13 -104 -113 -166t-233 -74l-29 100q180 25 201 150q12 82 -98 164h204q35 -25 55 -72t13 -102zM664 1047l-35 -156h-178l-129 -610q-27 -137 88 -138q23 0 67 9l-33 -150q-68 -23 -135 -22q-143 0 -197 82t-30 202l133 627h-121l35 156h121l49 237l250 68
l-64 -305h179z" />
    <glyph glyph-name="Tcaron" unicode="&#x164;" horiz-adv-x="950" 
d="M1055 1479l-39 -185h-295l-275 -1294h-251l274 1294h-297l39 185h844zM630 1575q-48 0 -75 35l-164 211l80 61l188 -162l259 162l55 -61l-254 -211q-41 -35 -89 -35z" />
    <glyph glyph-name="tcaron" unicode="&#x165;" horiz-adv-x="663" 
d="M664 1047l-35 -156h-178l-129 -610q-27 -137 88 -138q23 0 67 9l-33 -150q-68 -23 -135 -22q-143 0 -197 82t-30 202l133 627h-121l35 156h121l49 237l250 68l-64 -305h179zM969 1360q-18 -139 -154 -248h-164q127 145 141 245t-75 179h194q31 -20 49 -68t9 -108z" />
    <glyph glyph-name="Tbar" unicode="&#x166;" horiz-adv-x="950" 
d="M1055 1479l-39 -185h-295l-107 -503h207l-33 -154h-206l-136 -637h-251l135 637h-217l32 154h217l107 503h-297l39 185h844z" />
    <glyph glyph-name="tbar" unicode="&#x167;" horiz-adv-x="663" 
d="M664 1047l-35 -156h-178l-45 -213h157l-33 -156h-157l-51 -241q-27 -137 88 -138q23 0 67 9l-33 -150q-68 -23 -135 -22q-143 0 -197 82t-30 202l55 258h-121l33 156h121l45 213h-121l35 156h121l49 237l250 68l-64 -305h179z" />
    <glyph glyph-name="Utilde" unicode="&#x168;" horiz-adv-x="1261" 
d="M522 174q102 0 187 69q84 69 108 187l221 1049h236l-221 -1047q-43 -201 -204 -327q-161 -125 -377 -125t-325 126t-65 326l221 1047h254l-223 -1051q-26 -118 30 -186t158 -68zM934 1602q-57 0 -132 40t-127 41q-53 0 -113 -41t-83 -77l33 153q90 96 186 97
q61 0 132 -41t125 -41q55 -1 115 39t83 79l-33 -153q-86 -96 -186 -96z" />
    <glyph glyph-name="utilde" unicode="&#x169;" horiz-adv-x="1083" 
d="M383 -20q-408 0 -334 354l152 713h241l-153 -723q-15 -80 17 -129t125 -49t161 34l184 867h242l-209 -981q-176 -86 -426 -86zM778 1184q-57 0 -132 41t-127 41t-112 -41t-83 -78l32 153q90 96 187 97q61 0 132 -41t125 -41t114 40t83 79l-32 -154q-86 -96 -187 -96z" />
    <glyph glyph-name="Umacron" unicode="&#x16a;" horiz-adv-x="1261" 
d="M522 174q102 0 187 69q84 69 108 187l221 1049h236l-221 -1047q-43 -201 -204 -327q-161 -125 -377 -125t-325 126t-65 326l221 1047h254l-223 -1051q-26 -118 30 -186t158 -68zM1145 1780l-29 -138h-624l28 138h625z" />
    <glyph glyph-name="umacron" unicode="&#x16b;" horiz-adv-x="1083" 
d="M383 -20q-408 0 -334 354l152 713h241l-153 -723q-15 -80 17 -129t125 -49t161 34l184 867h242l-209 -981q-176 -86 -426 -86zM969 1362l-29 -137h-625l29 137h625z" />
    <glyph glyph-name="Ubreve" unicode="&#x16c;" horiz-adv-x="1261" 
d="M522 174q102 0 187 69q84 69 108 187l221 1049h236l-221 -1047q-43 -201 -204 -327q-161 -125 -377 -125t-325 126t-65 326l221 1047h254l-223 -1051q-26 -118 30 -186t158 -68zM796 1579q-142 0 -193 85q-50 85 -30 183l91 25q6 -158 158 -158t233 158l78 -25
q-19 -98 -107 -183t-230 -85z" />
    <glyph glyph-name="ubreve" unicode="&#x16d;" horiz-adv-x="1083" 
d="M383 -20q-408 0 -334 354l152 713h241l-153 -723q-15 -80 17 -129t125 -49t161 34l184 867h242l-209 -981q-176 -86 -426 -86zM620 1161q-142 0 -193 85q-50 85 -30 184l90 24q6 -158 158 -158t234 158l77 -24q-20 -98 -107 -184t-229 -85z" />
    <glyph glyph-name="Uring" unicode="&#x16e;" horiz-adv-x="1261" 
d="M866 1837q-38 0 -70 -27q-32 -28 -40 -64t14 -63t58 -27q38 0 69 28q31 26 39 63t-12 63t-58 27zM522 174q102 0 187 69q84 69 108 187l221 1049h236l-221 -1047q-43 -201 -204 -327q-161 -125 -377 -125t-325 126t-65 326l221 1047h254l-223 -1051q-26 -118 30 -186
t158 -68zM809 1573q-72 0 -112 51t-23 123q14 72 76 122t133 50t111 -50t24 -122t-76 -123t-133 -51z" />
    <glyph glyph-name="uring" unicode="&#x16f;" horiz-adv-x="1083" 
d="M652 1239q38 1 69 27t39 63t-12 64t-58 27t-70 -28q-32 -26 -40 -63t14 -63q20 -26 58 -27zM383 -20q-408 0 -334 354l152 713h241l-153 -723q-15 -80 17 -129t125 -49t161 34l184 867h242l-209 -981q-176 -86 -426 -86zM633 1155q-72 0 -112 51t-23 123q14 72 75 122
t133 50t112 -50t24 -122t-76 -123t-133 -51z" />
    <glyph glyph-name="Uhungarumlaut" unicode="&#x170;" horiz-adv-x="1261" 
d="M522 174q102 0 187 69q84 69 108 187l221 1049h236l-221 -1047q-43 -201 -204 -327q-161 -125 -377 -125t-325 126t-65 326l221 1047h254l-223 -1051q-26 -118 30 -186t158 -68zM884 1884q64 0 60 -41l-299 -264h-96l213 262q58 43 122 43zM1166 1884q64 0 63 -41
l-301 -264h-97l216 262q55 43 119 43z" />
    <glyph glyph-name="uhungarumlaut" unicode="&#x171;" horiz-adv-x="1083" 
d="M383 -20q-408 0 -334 354l152 713h241l-153 -723q-15 -80 17 -129t125 -49t161 34l184 867h242l-209 -981q-176 -86 -426 -86zM708 1466q64 0 60 -41l-299 -264h-96l213 262q58 43 122 43zM989 1466q64 0 64 -41l-301 -264h-97l215 262q55 43 119 43z" />
    <glyph glyph-name="Uogonek" unicode="&#x172;" horiz-adv-x="1261" 
d="M518 -211q0 -58 95 -52q52 3 126 27l9 -79q-152 -70 -279 -55t-127 118q0 129 217 238q-35 -6 -88 -6q-215 0 -324 126t-65 326l221 1047h254l-223 -1051q-26 -118 30 -186t158 -68t187 69q84 69 108 187l221 1049h236l-221 -1047q-27 -129 -100 -221q-73 -93 -209 -191
t-181 -142t-45 -89z" />
    <glyph glyph-name="uogonek" unicode="&#x173;" horiz-adv-x="1083" 
d="M502 -211q0 -57 95 -52q52 3 126 27l8 -79q-157 -72 -281 -56t-124 119q0 123 217 244q-61 -12 -160 -12q-408 0 -334 354l152 713h241l-153 -723q-15 -80 17 -129t125 -49t161 34l184 867h242l-209 -981q-307 -162 -307 -277z" />
    <glyph glyph-name="Wcircumflex" unicode="&#x174;" horiz-adv-x="1708" 
d="M1821 1479l-647 -1479h-232l-14 930l4 153h-4q-23 -72 -60 -153l-409 -930h-232l-22 1479h262l-27 -990l-12 -161h4q27 80 64 161l432 990h190l12 -990l-8 -161h4q27 84 58 161l397 990h240zM1090 1878q47 0 73 -33l164 -211l-82 -63l-186 158l-252 -158l-55 63l252 211
q39 33 86 33z" />
    <glyph glyph-name="wcircumflex" unicode="&#x175;" horiz-adv-x="1587" 
d="M399 383q0 -101 -10 -141h4q16 57 58 141l325 664h203l37 -664q3 -53 -6 -141h4q18 72 51 143l303 662h217l-520 -1047h-217l-45 649q-5 73 8 137h-2q-20 -70 -55 -137l-324 -649h-217l-74 1047h246zM943 1460q48 0 73 -33l164 -210l-82 -64l-187 158l-252 -158l-55 64
l252 210q39 33 87 33z" />
    <glyph glyph-name="Ycircumflex" unicode="&#x176;" horiz-adv-x="1075" 
d="M1221 1479l-580 -848l-133 -631h-254l133 631l-219 848h272l133 -625h5l399 625h244zM777 1878q48 0 73 -33l164 -211l-82 -63l-187 158l-251 -158l-56 63l252 211q39 33 87 33z" />
    <glyph glyph-name="ycircumflex" unicode="&#x177;" horiz-adv-x="1028" 
d="M1038 1047l-802 -1487h-259l275 440l-123 1047h258l35 -670q4 -73 -8 -133l-2 -21h4q20 72 61 154l334 670h227zM669 1460q48 0 72 -33l164 -210l-82 -64l-186 158l-252 -158l-55 64l252 210q39 33 87 33z" />
    <glyph glyph-name="Ydieresis" unicode="&#x178;" horiz-adv-x="1075" 
d="M1221 1479l-580 -848l-133 -631h-254l133 631l-219 848h272l133 -625h5l399 625h244zM548 1595q-48 0 -76 31t-17 76q8 45 50 76q42 30 89 30t75 -30q27 -31 18 -76t-50 -76t-89 -31zM917 1595q-48 0 -76 31t-18 76q8 45 50 76q41 30 89 30t76 -30t18 -76q-9 -45 -50 -76
t-89 -31z" />
    <glyph glyph-name="Zacute" unicode="&#x179;" horiz-adv-x="958" 
d="M1036 1479l-778 -1295h516l-39 -184h-852l783 1294h-467l39 185h798zM952 1864l-309 -283h-137l203 289q71 39 153 38t90 -44z" />
    <glyph glyph-name="zacute" unicode="&#x17a;" horiz-adv-x="845" 
d="M823 1047l-573 -891h395l-33 -156h-710l583 891h-360l35 156h663zM817 1446l-309 -283h-137l202 289q70 39 153 38t91 -44z" />
    <glyph glyph-name="Zdot" unicode="&#x17b;" horiz-adv-x="958" 
d="M1036 1479l-778 -1295h516l-39 -184h-852l783 1294h-467l39 185h798zM646 1651q-52 0 -80 37t-18 89t55 88q44 36 95 36t80 -36t19 -88q-11 -52 -55 -89t-96 -37z" />
    <glyph glyph-name="zdot" unicode="&#x17c;" horiz-adv-x="845" 
d="M823 1047l-573 -891h395l-33 -156h-710l583 891h-360l35 156h663zM511 1233q-52 0 -80 37q-27 37 -17 89t54 88t95 36t80 -36t19 -88t-54 -89t-97 -37z" />
    <glyph glyph-name="Zcaron" unicode="&#x17d;" horiz-adv-x="958" 
d="M1036 1479l-778 -1295h516l-39 -184h-852l783 1294h-467l39 185h798zM654 1567q-48 0 -74 35l-164 210l80 62l192 -160l254 160l55 -62l-254 -210q-41 -35 -89 -35z" />
    <glyph glyph-name="zcaron" unicode="&#x17e;" horiz-adv-x="845" 
d="M823 1047l-573 -891h395l-33 -156h-710l583 891h-360l35 156h663zM510 1157q-47 0 -74 35l-166 211l82 61l191 -161l256 161l55 -61l-254 -211q-43 -35 -90 -35z" />
    <glyph glyph-name="longs" unicode="&#x17f;" horiz-adv-x="614" 
d="M768 1524l-33 -154q-178 0 -215 -182l-28 -141h176l-35 -156h-176l-189 -891h-241l188 891h-121l35 156h121l24 118q37 179 169 277t325 82z" />
    <glyph glyph-name="florin" unicode="&#x192;" horiz-adv-x="1198" 
d="M1118 1327q-98 0 -152 -82q-55 -82 -96 -180l-75 -176h223l-33 -158h-254l-293 -721q-78 -192 -205 -320t-294 -128q-88 0 -166 35l69 174q41 -23 92 -23q84 0 145 72q60 72 128 239l272 672h-219l33 158h252l78 186q88 211 190 317t287 107q100 0 182 -33l-63 -159
q-51 20 -101 20z" />
    <glyph glyph-name="gacute" unicode="&#x1f5;" horiz-adv-x="1077" 
d="M565 924q-103 0 -165 -58t-82 -157q-20 -97 16 -155q37 -58 141 -58q201 0 248 213q45 215 -158 215zM377 199h155q170 0 247 -86t50 -215q-35 -162 -176 -258t-356 -96t-325 75q-110 76 -83 201q12 55 48 112h219q-29 -33 -44 -101q-14 -68 50 -106t172 -38t182 53
q72 53 89 131q17 77 -19 107t-133 30h-150q-196 0 -237 91q-18 40 -7 98q20 98 158 200q-164 88 -117 312q35 164 161 262t335 98q84 0 170 -22h326l-29 -129h-141q47 -74 17 -220t-155 -246q-125 -101 -340 -102q-20 0 -53 2h-33q-68 -37 -82 -96q-6 -35 24 -46t77 -11z
M961 1446l-310 -283h-137l203 289q70 39 153 38t91 -44z" />
    <glyph glyph-name="Aringacute" unicode="&#x1fa;" horiz-adv-x="1247" 
d="M723 1167q0 43 2 62v20h-4q-23 -66 -76 -170l-252 -495h375l-41 495q-4 45 -4 88zM806 1593q34 -1 62 23t37 58q8 34 -10 59t-52 25t-64 -24t-38 -58q-9 -34 11 -58t54 -25zM1081 0h-260l-41 426h-469l-221 -426h-235l802 1479h248zM859 1841q69 0 107 -48t23 -117
q-15 -68 -73 -116t-127 -48t-107 48t-22 116q14 68 72 117q58 48 127 48zM1122 2087l-219 -219h-137l182 219h174z" />
    <glyph glyph-name="aringacute" unicode="&#x1fb;" horiz-adv-x="1024" 
d="M625 557q-185 -23 -283 -75t-125 -173q-41 -193 174 -192q92 0 148 28zM654 1358q-36 0 -64 -24t-37 -58q-8 -34 11 -58t53 -24t63 24t37 57q8 35 -10 59q-17 24 -53 24zM480 913q-112 0 -263 -63l35 164q193 55 317 55q177 0 267 -86t49 -276l-137 -650
q-162 -77 -388 -77t-315 82q-90 82 -57 239q40 197 233 285q166 76 432 100l11 53q20 96 -26 135t-158 39zM601 1110q-69 0 -107 48t-23 117t73 117t127 48t107 -48t23 -117t-73 -117t-127 -48zM958 1714l-237 -235h-121l184 235h174z" />
    <glyph glyph-name="AEacute" unicode="&#x1fc;" horiz-adv-x="1593" 
d="M813 1251h-4q-27 -63 -70 -135l-317 -530h377l4 530zM1544 1479l-39 -185h-497l16 -444h393l-39 -182h-354l18 -484h381l-39 -184h-596l-2 426h-460l-258 -424h-238l930 1477h784zM1442 1864l-309 -283h-138l203 289q70 39 153 38t91 -44z" />
    <glyph glyph-name="aeacute" unicode="&#x1fd;" horiz-adv-x="1595" 
d="M348 117q82 0 140 46t75 126l58 266q-185 -23 -285 -76t-124 -161t16 -155q38 -46 120 -46zM1116 920q-92 0 -170 -80t-117 -236h422q31 152 -6 234t-129 82zM1028 150q146 0 311 67l-36 -168q-166 -70 -345 -69q-211 0 -294 174q-123 -174 -349 -174q-193 0 -277 82
t-50 237q39 182 209 271t452 116l13 53q41 174 -175 174q-123 0 -272 -65l35 164q150 57 313 57q219 0 256 -166q53 68 147 117t191 49q205 -1 281 -161t8 -439h-639q-27 -131 24 -225t197 -94zM1219 1446l-310 -283h-137l203 289q70 39 153 38t91 -44z" />
    <glyph glyph-name="Oslashacute" unicode="&#x1fe;" horiz-adv-x="1312" 
d="M539 172q295 0 417 573q43 209 31 338l-645 -766q43 -145 197 -145zM782 1321q-301 0 -424 -576q-41 -195 -32 -317l643 760q-47 133 -187 133zM821 1499q203 0 312 -119l139 166l67 -49l-157 -186q112 -197 36 -555t-256 -567q-180 -210 -464 -209q-221 0 -328 133
l-147 -174l-68 49l166 198q-95 199 -21 545t255 557t466 211zM1161 1864l-309 -283h-139l202 289q70 39 154 38t92 -44z" />
    <glyph glyph-name="oslashacute" unicode="&#x1ff;" horiz-adv-x="1058" 
d="M414 135q102 -1 167 105t99 274t29 246l-430 -545q33 -80 135 -80zM690 840q-33 76 -121 75q-122 0 -186 -114t-95 -264q-32 -150 -26 -240zM991 1116l-125 -158q119 -135 56 -434q-54 -244 -196 -394t-355 -150q-141 0 -226 67l-118 -151l-54 34l129 162
q-117 147 -55 432q51 244 195 395t358 150q139 0 221 -65l119 149zM969 1446l-310 -283h-137l203 289q70 39 153 38t91 -44z" />
    <glyph glyph-name="Scommaaccent" unicode="&#x218;" horiz-adv-x="1040" 
d="M524 -272q-14 -104 -113 -166t-233 -74l-28 100q180 25 200 150q12 82 -98 164h205q35 -25 55 -72t12 -102zM726 1321q-118 0 -192 -58q-74 -57 -96 -155t29 -150t168 -105q117 -52 181 -127q64 -76 69 -146q4 -70 -8 -148q-43 -199 -200 -326q-157 -126 -374 -126
t-344 79l47 222q142 -107 282 -107t221 67t100 160t-30 151q-50 58 -176 112q-287 125 -227 401q37 180 186 307q150 127 338 127t320 -72l-41 -196q-135 90 -253 90z" />
    <glyph glyph-name="scommaaccent" unicode="&#x219;" horiz-adv-x="821" 
d="M401 -272q-14 -104 -113 -166t-233 -74l-28 100q180 25 200 150q12 82 -98 164h205q35 -25 55 -72t12 -102zM209 -20q-155 0 -258 63l41 184q33 -31 92 -55q145 -58 245 19q54 43 68 105t-14 99q-29 37 -104 70q-127 53 -163 127t-16 170q27 129 139 218t259 89t247 -57
l-36 -172q-82 70 -199 69q-70 0 -116 -38t-58 -97t18 -96t101 -68q131 -59 170 -134t16 -177q-29 -133 -153 -226t-279 -93z" />
    <glyph glyph-name="uni021A" unicode="&#x21a;" horiz-adv-x="950" 
d="M483 -272q-14 -104 -113 -166t-233 -74l-28 100q180 25 200 150q12 82 -98 164h205q35 -25 55 -72t12 -102zM1055 1479l-39 -185h-295l-275 -1294h-251l274 1294h-297l39 185h844z" />
    <glyph glyph-name="uni021B" unicode="&#x21b;" horiz-adv-x="663" 
d="M381 -272q-13 -104 -113 -166t-233 -74l-29 100q180 25 201 150q12 82 -98 164h204q35 -25 55 -72t13 -102zM664 1047l-35 -156h-178l-129 -610q-27 -137 88 -138q23 0 67 9l-33 -150q-68 -23 -135 -22q-143 0 -197 82t-30 202l133 627h-121l35 156h121l49 237l250 68
l-64 -305h179z" />
    <glyph glyph-name="circumflex" unicode="&#x2c6;" 
d="M394 1460q48 0 73 -33l164 -210l-82 -64l-187 158l-251 -158l-56 64l252 210q39 33 87 33z" />
    <glyph glyph-name="caron" unicode="&#x2c7;" 
d="M331 1157q-48 0 -75 35l-164 211l80 61l188 -161l258 161l56 -61l-254 -211q-41 -35 -89 -35z" />
    <glyph glyph-name="breve" unicode="&#x2d8;" 
d="M331 1161q-142 0 -193 85q-50 85 -29 184l90 24q5 -158 157 -158t234 158l78 -24q-20 -98 -108 -184t-229 -85z" />
    <glyph glyph-name="dotaccent" unicode="&#x2d9;" 
d="M347 1233q-52 0 -80 37q-27 37 -17 89t54 88t95 36t80 -36t19 -88t-54 -89t-97 -37z" />
    <glyph glyph-name="ring" unicode="&#x2da;" 
d="M350 1239q38 1 68 27q31 26 39 63q7 37 -13 64t-58 27t-70 -28q-32 -26 -40 -63t14 -63t60 -27zM330 1155q-72 0 -112 51t-23 123q14 72 75 122t133 50t112 -50t24 -122q-17 -72 -77 -123t-132 -51z" />
    <glyph glyph-name="ogonek" unicode="&#x2db;" 
d="M-72 -252q0 72 72 142t184 122h154q-233 -113 -234 -223q0 -58 96 -52q52 3 126 27l8 -79q-154 -70 -280 -55t-126 118z" />
    <glyph glyph-name="tilde" unicode="&#x2dc;" 
d="M475 1184q-57 0 -132 41t-127 41t-112 -41t-84 -78l33 153q90 96 187 97q61 0 132 -41q70 -41 124 -41t114 40t84 79l-32 -154q-86 -96 -187 -96z" />
    <glyph glyph-name="hungarumlaut" unicode="&#x2dd;" 
d="M384 1466q64 0 60 -41l-299 -264h-96l213 262q58 43 122 43zM666 1466q64 0 63 -41l-301 -264h-96l215 262q55 43 119 43z" />
    <glyph glyph-name="gravecmb" unicode="&#x300;" 
d="M561 1581h-139l-189 283q25 43 109 44t139 -38z" />
    <glyph glyph-name="acutecmb" unicode="&#x301;" 
d="M715 1864l-309 -283h-138l203 289q70 39 153 38t91 -44z" />
    <glyph glyph-name="circumflexcmb" unicode="&#x302;" 
d="M476 1878q48 0 73 -33l164 -211l-82 -63l-187 158l-251 -158l-56 63l252 211q39 33 87 33z" />
    <glyph glyph-name="tildecmb" unicode="&#x303;" 
d="M557 1602q-57 0 -132 40t-127 41q-52 0 -112 -41t-84 -77l33 153q90 96 187 97q61 0 132 -41q70 -41 124 -41q54 -1 114 39t84 79l-33 -153q-86 -96 -186 -96z" />
    <glyph glyph-name="macroncmb" unicode="&#x304;" 
d="M768 1780l-29 -138h-624l28 138h625z" />
    <glyph glyph-name="brevecmb" unicode="&#x306;" 
d="M413 1579q-142 0 -193 85q-50 85 -30 183l91 25q5 -158 157 -158t234 158l78 -25q-20 -98 -108 -183t-229 -85z" />
    <glyph glyph-name="dotaccentcmb" unicode="&#x307;" 
d="M429 1651q-52 0 -80 37q-27 37 -17 89t54 88t95 36t80 -36t19 -88t-54 -89t-97 -37z" />
    <glyph glyph-name="dieresiscmb" unicode="&#x308;" 
d="M280 1821q48 0 76 -31t18 -76q-9 -45 -50 -76q-42 -30 -90 -30t-76 30t-17 76q8 45 50 76q41 31 89 31zM648 1821q48 0 76 -31t18 -76q-9 -45 -50 -76q-41 -30 -90 -30t-76 30t-16 76q10 45 50 76t88 31z" />
    <glyph glyph-name="ringcmb" unicode="&#x309;" 
d="M468 1837q-38 0 -70 -27q-32 -28 -40 -64t14 -63t60 -27t68 28q31 26 39 63q7 37 -13 63t-58 27zM412 1573q-72 0 -112 51t-24 123q14 72 76 122t133 50q72 0 112 -50t24 -122q-17 -72 -77 -123t-132 -51z" />
    <glyph glyph-name="hungarumlautcmb" unicode="&#x30b;" 
d="M466 1884q64 0 60 -41l-299 -264h-96l213 262q58 43 122 43zM748 1884q64 0 63 -41l-301 -264h-96l215 262q55 43 119 43z" />
    <glyph glyph-name="caroncmb" unicode="&#x30c;" 
d="M413 1575q-48 0 -75 35l-164 211l80 61l188 -162l258 162l56 -61l-254 -211q-41 -35 -89 -35z" />
    <glyph glyph-name="cedillacmb" unicode="&#x327;" 
d="M305 -254q-20 -98 -175 -139t-409 -19l68 86q137 -12 237 8t107 61q8 42 -46 55t-193 3l63 78q207 16 286 -19q78 -36 62 -114z" />
    <glyph glyph-name="ogonekcmb" unicode="&#x328;" 
d="M-72 -252q0 72 72 142t184 122h154q-233 -113 -234 -223q0 -58 96 -52q52 3 126 27l8 -79q-154 -70 -280 -55t-126 118z" />
    <glyph glyph-name="soliduslongoverlaycmb" unicode="&#x338;" horiz-adv-x="565" 
 />
    <glyph glyph-name="Delta" unicode="&#x394;" horiz-adv-x="1212" 
d="M772 184l-61 895l-4 150h-5q-47 -100 -71 -150l-451 -895h592zM1040 0h-1179l778 1479h250z" />
    <glyph glyph-name="Delta" unicode="&#x2206;" horiz-adv-x="1212" 
d="M772 184l-61 895l-4 150h-5q-47 -100 -71 -150l-451 -895h592zM1040 0h-1179l778 1479h250z" />
    <glyph glyph-name="Omega" unicode="&#x3a9;" horiz-adv-x="1372" 
d="M811 1321q-156 0 -258 -145q-103 -145 -153 -384t-32 -447t95 -345h-533l37 176h256q-63 113 -87 282t9 351q63 301 249 496t456 195q268 0 372 -196q104 -194 38 -495q-36 -164 -136 -340t-211 -293h254l-37 -176h-532q137 137 244 347q106 210 157 452q27 145 26 262
t-55 189t-159 71z" />
    <glyph glyph-name="Omega" unicode="&#x2126;" horiz-adv-x="1372" 
d="M811 1321q-156 0 -258 -145q-103 -145 -153 -384t-32 -447t95 -345h-533l37 176h256q-63 113 -87 282t9 351q63 301 249 496t456 195q268 0 372 -196q104 -194 38 -495q-36 -164 -136 -340t-211 -293h254l-37 -176h-532q137 137 244 347q106 210 157 452q27 145 26 262
t-55 189t-159 71z" />
    <glyph glyph-name="pi" unicode="&#x3c0;" horiz-adv-x="1300" 
d="M1272 1047l-33 -154h-137l-123 -571q-8 -43 -10 -81q-3 -38 25 -62t87 -21l-32 -158q-55 -2 -101 -4t-80 10t-60 20t-41 30t-28 39t-17 60q-5 43 -2 70t6 44t7 40l125 584h-340l-190 -893h-242l190 893h-139l33 154h1102z" />
    <glyph glyph-name="Wgrave" unicode="&#x1e80;" horiz-adv-x="1708" 
d="M1821 1479l-647 -1479h-232l-14 930l4 153h-4q-23 -72 -60 -153l-409 -930h-232l-22 1479h262l-27 -990l-12 -161h4q27 80 64 161l432 990h190l12 -990l-8 -161h4q27 84 58 161l397 990h240zM1114 1581h-139l-189 283q25 43 109 44t139 -38z" />
    <glyph glyph-name="wgrave" unicode="&#x1e81;" horiz-adv-x="1587" 
d="M399 383q0 -101 -10 -141h4q16 57 58 141l325 664h203l37 -664q3 -53 -6 -141h4q18 72 51 143l303 662h217l-520 -1047h-217l-45 649q-5 73 8 137h-2q-20 -70 -55 -137l-324 -649h-217l-74 1047h246zM985 1163h-139l-189 283q25 43 109 44t139 -38z" />
    <glyph glyph-name="Wacute" unicode="&#x1e82;" horiz-adv-x="1708" 
d="M1821 1479l-647 -1479h-232l-14 930l4 153h-4q-23 -72 -60 -153l-409 -930h-232l-22 1479h262l-27 -990l-12 -161h4q27 80 64 161l432 990h190l12 -990l-8 -161h4q27 84 58 161l397 990h240zM1329 1864l-309 -283h-137l202 289q70 39 153 38t91 -44z" />
    <glyph glyph-name="wacute" unicode="&#x1e83;" horiz-adv-x="1587" 
d="M399 383q0 -101 -10 -141h4q16 57 58 141l325 664h203l37 -664q3 -53 -6 -141h4q18 72 51 143l303 662h217l-520 -1047h-217l-45 649q-5 73 8 137h-2q-20 -70 -55 -137l-324 -649h-217l-74 1047h246zM1221 1446l-310 -283h-137l203 289q70 39 153 38t91 -44z" />
    <glyph glyph-name="Wdieresis" unicode="&#x1e84;" horiz-adv-x="1708" 
d="M1821 1479l-647 -1479h-232l-14 930l4 153h-4q-23 -72 -60 -153l-409 -930h-232l-22 1479h262l-27 -990l-12 -161h4q27 80 64 161l432 990h190l12 -990l-8 -161h4q27 84 58 161l397 990h240zM895 1821q47 0 75 -31t18 -76q-9 -45 -50 -76q-41 -30 -89 -30t-76 30t-17 76
q8 45 50 76t89 31zM1263 1821q47 0 75 -31t19 -76t-50 -76q-41 -30 -90 -30t-76 30t-17 76q10 45 50 76t89 31z" />
    <glyph glyph-name="wdieresis" unicode="&#x1e85;" horiz-adv-x="1587" 
d="M399 383q0 -101 -10 -141h4q16 57 58 141l325 664h203l37 -664q3 -53 -6 -141h4q18 72 51 143l303 662h217l-520 -1047h-217l-45 649q-5 73 8 137h-2q-20 -70 -55 -137l-324 -649h-217l-74 1047h246zM748 1403q48 0 76 -31t19 -76q-9 -46 -51 -76t-90 -30t-76 31
q-26 31 -17 75t50 76q41 31 89 31zM1069 1190q-49 0 -76 31t-17 75t51 76q40 31 89 31q48 0 76 -31t19 -76q-9 -46 -51 -76t-91 -30z" />
    <glyph glyph-name="Ygrave" unicode="&#x1ef2;" horiz-adv-x="1075" 
d="M1221 1479l-580 -848l-133 -631h-254l133 631l-219 848h272l133 -625h5l399 625h244zM791 1581h-140l-188 283q25 43 109 44t139 -38z" />
    <glyph glyph-name="ygrave" unicode="&#x1ef3;" horiz-adv-x="1028" 
d="M1038 1047l-802 -1487h-259l275 440l-123 1047h258l35 -670q4 -73 -8 -133l-2 -21h4q20 72 61 154l334 670h227zM696 1163h-139l-188 283q25 43 109 44t138 -38z" />
    <glyph glyph-name="endash" unicode="&#x2013;" horiz-adv-x="839" 
d="M829 686l-32 -156h-840l33 156h839z" />
    <glyph glyph-name="emdash" unicode="&#x2014;" horiz-adv-x="1679" 
d="M1667 674l-29 -133h-1679l29 133h1679z" />
    <glyph glyph-name="quoteleft" unicode="&#x2018;" horiz-adv-x="587" 
d="M256 987q-88 0 -84 72l401 549h129l-290 -549q-68 -72 -156 -72z" />
    <glyph glyph-name="quoteright" unicode="&#x2019;" horiz-adv-x="587" 
d="M572 1622q84 0 87 -74l-401 -549h-129l289 549q70 74 154 74z" />
    <glyph glyph-name="quotesinglbase" unicode="&#x201a;" horiz-adv-x="587" 
d="M287 277q86 0 86 -74l-402 -549h-129l289 549q70 74 156 74z" />
    <glyph glyph-name="quotedblleft" unicode="&#x201c;" horiz-adv-x="989" 
d="M256 987q-88 0 -84 72l401 549h129l-290 -549q-68 -72 -156 -72zM657 987q-88 0 -84 72l402 549h129l-291 -549q-68 -72 -156 -72z" />
    <glyph glyph-name="quotedblright" unicode="&#x201d;" horiz-adv-x="989" 
d="M572 1622q84 0 87 -74l-401 -549h-129l289 549q70 74 154 74zM972 1622q85 0 89 -74l-404 -549h-127l291 549q66 74 151 74z" />
    <glyph glyph-name="quotedblbase" unicode="&#x201e;" horiz-adv-x="989" 
d="M287 277q86 0 86 -74l-402 -549h-129l289 549q70 74 156 74zM688 277q86 0 86 -74l-403 -549h-127l291 549q67 74 153 74z" />
    <glyph glyph-name="dagger" unicode="&#x2020;" horiz-adv-x="1185" 
d="M1176 1114l-54 -248l-391 21l-260 -1327h-258l305 1327l-397 -21l53 248l389 -20l84 514h260l-131 -514z" />
    <glyph glyph-name="daggerdbl" unicode="&#x2021;" horiz-adv-x="1185" 
d="M1174 1112l-44 -207l-395 15l-63 -316l-68 -307l400 14l-43 -207l-398 15l-98 -559h-246l137 559l-397 -15l43 207l393 -14l60 305l71 318l-397 -15l43 207l393 -16l90 512h246l-129 -512z" />
    <glyph glyph-name="bullet" unicode="&#x2022;" horiz-adv-x="733" 
d="M320 512q-100 0 -156 72q-55 72 -35 172q19 100 107 171t188 71t156 -71t34 -171t-108 -172t-186 -72z" />
    <glyph glyph-name="ellipsis" unicode="&#x2026;" horiz-adv-x="1810" 
d="M142 -20q-62 0 -97 44t-22 105q14 61 67 104q52 43 114 43t97 -43t22 -104t-67 -105q-52 -44 -114 -44zM746 -20q-62 0 -97 44t-22 105q14 61 67 104q52 43 114 43t97 -43t22 -104t-67 -105q-52 -44 -114 -44zM1348 -20q-61 0 -96 44q-34 44 -21 105q14 61 66 104
q51 43 113 43t97 -43t22 -104t-67 -105t-114 -44z" />
    <glyph glyph-name="perthousand" unicode="&#x2030;" horiz-adv-x="2488" 
d="M324 775q0 -120 84 -120q55 1 98 61t64 130q73 243 76 423q2 122 -83 122q-113 0 -176 -233q-63 -232 -63 -383zM1217 102q111 0 175 235q139 501 -20 501q-133 0 -209 -369q-30 -142 -30 -255q0 -112 84 -112zM2087 836q-87 0 -137 -122q-39 -90 -74 -247
q-35 -127 -30 -246t87 -119t131 121q43 100 72 244q84 369 -49 369zM588 1499q229 0 213 -316q-15 -239 -114 -431q-113 -220 -306 -220q-293 0 -193 482q39 179 124 321q46 76 117 120t159 44zM1442 1456l-998 -1497l-106 51l997 1497zM1190 -20q-86 0 -138 43t-66 119
q-27 140 13 321q104 483 396 483q86 0 137 -43q84 -71 76 -271q-18 -275 -146 -491q-46 -77 -116 -119t-156 -42zM2109 946q290 0 193 -483q-36 -181 -124 -322q-46 -73 -117 -117t-156 -44q-293 0 -193 483q36 178 124 320q46 75 117 119t156 44z" />
    <glyph glyph-name="guilsinglleft" unicode="&#x2039;" horiz-adv-x="673" 
d="M598 987l-332 -383l170 -383l-155 -82l-205 465l405 465z" />
    <glyph glyph-name="guilsinglright" unicode="&#x203a;" horiz-adv-x="673" 
d="M547 604l-408 -465l-116 82l331 383l-170 383l154 82z" />
    <glyph glyph-name="fraction" unicode="&#x2044;" horiz-adv-x="350" 
d="M739 1452l-1003 -1495l-127 59l1001 1495z" />
    <glyph glyph-name="fraction" unicode="&#x2215;" horiz-adv-x="350" 
d="M739 1452l-1003 -1495l-127 59l1001 1495z" />
    <glyph glyph-name="franc" unicode="&#x20a3;" horiz-adv-x="1163" 
d="M1153 1479l-39 -185h-473l-94 -444h422l-39 -182h-422l-51 -246h264l-37 -172h-264l-53 -250h-254l53 250h-217l37 172h217l223 1057h727z" />
    <glyph glyph-name="Euro" unicode="&#x20ac;" horiz-adv-x="1163" 
d="M922 1313q-260 0 -398 -361h437l-60 -127h-416q-8 -27 -15 -61t-12 -54q-5 -22 -7 -32h387l-60 -127h-338q-6 -166 52 -268q58 -103 188 -103q131 0 252 72l-43 -201q-137 -72 -307 -71q-211 0 -308 156q-96 157 -75 415h-164l59 127h119q7 53 35 147h-142l62 127h121
q94 248 259 398t361 149q160 0 273 -76l-41 -192q-31 33 -95 57t-124 25z" />
    <glyph glyph-name="afii61289" unicode="&#x2113;" horiz-adv-x="1048" 
d="M688 1458q131 0 197 -73q65 -73 65 -189t-47 -226t-135 -209t-167 -169t-185 -152l-4 -28q-16 -115 24 -170t117 -56q127 0 272 168l97 -112q-168 -264 -441 -265q-147 0 -225 84t-80 226v16q-86 -55 -108 -67l-50 133q182 119 185 120l90 494q43 239 153 357t242 118z
M762 1178q0 111 -76 110q-113 0 -162 -266l-67 -350q305 274 305 506z" />
    <glyph glyph-name="trademark" unicode="&#x2122;" horiz-adv-x="1568" 
d="M750 1479l-23 -107h-180l-129 -604h-135l129 604h-181l23 107h496zM1524 1479l-152 -711h-129l107 502l-271 -502h-96l-55 502l-107 -502h-125l152 711h166l57 -535l285 535h168z" />
    <glyph glyph-name="estimated" unicode="&#x212e;" horiz-adv-x="1673" 
d="M1323 696v377q0 25 -20 45q-195 195 -465 195t-465 -201q-20 -20 -21 -47v-369q0 -10 10 -10h951q10 0 10 10zM1602 647h-1240q-10 0 -10 -8v-375q0 -20 19 -43q190 -203 478 -203t482 228h113q-106 -125 -266 -197t-340 -72q-317 0 -542 202q-224 202 -224 487
q0 284 224 486t542 202t540 -202q223 -202 224 -486v-19z" />
    <glyph glyph-name="partialdiff" unicode="&#x2202;" horiz-adv-x="1163" 
d="M381 152q147 0 262 168t168 419q-201 66 -355 -45t-196 -315q-49 -227 121 -227zM1047 721q-59 -283 -231 -500q-87 -111 -216 -177t-295 -64q-166 0 -245 104t-42 270q58 283 302 444t505 85q12 173 -86 289t-237 159l110 168q211 -54 353 -239q143 -186 82 -539z" />
    <glyph glyph-name="product" unicode="&#x220f;" horiz-adv-x="1665" 
d="M913 1061h-77l-66 -305h78q153 -1 186 149q33 156 -121 156zM844 655h-94l-72 -336h-152l181 842h245q141 -1 200 -69t34 -183t-113 -185t-229 -69zM973 1393q-256 0 -477 -194q-220 -194 -278 -462t81 -461q139 -192 396 -192t479 192q221 193 278 461t-83 462t-396 194
zM672 -20q-299 0 -465 223t-99 535t327 537q261 224 560 224q299 -1 465 -225t100 -536q-67 -312 -328 -535t-560 -223z" />
    <glyph glyph-name="summation" unicode="&#x2211;" horiz-adv-x="1163" 
d="M1190 1479l-37 -176h-563l248 -707l-590 -832h600l-45 -204h-950l720 1013l-313 906h930z" />
    <glyph glyph-name="minus" unicode="&#x2212;" horiz-adv-x="1118" 
d="M958 705l-34 -164h-809l35 164h808z" />
    <glyph glyph-name="radical" unicode="&#x221a;" horiz-adv-x="1118" 
d="M1262 1608l-709 -1608h-225l-88 879l-164 2l30 141h355l35 -723h4l542 1309h220z" />
    <glyph glyph-name="infinity" unicode="&#x221e;" horiz-adv-x="1738" 
d="M496 823q-78 0 -145 -55t-83 -134t27 -135q43 -57 123 -57t147 42t176 149q-68 104 -117 147q-50 43 -128 43zM1278 831q-80 -1 -143 -39t-174 -151q61 -106 110 -148t130 -42t147 53t82 134t-28 137t-124 56zM543 997q113 0 185 -53t149 -180q133 129 223 181t213 52
q157 0 233 -103t43 -257t-153 -257q-120 -104 -256 -104q-138 0 -214 54t-145 178q-129 -127 -221 -179t-211 -53q-159 0 -235 102t-43 257q33 156 153 259q121 103 279 103z" />
    <glyph glyph-name="integral" unicode="&#x222b;" horiz-adv-x="1161" 
d="M1116 1606l-35 -162q-203 8 -243 -184l-283 -1323q-39 -187 -185 -289t-345 -86l32 162q88 -4 157 40t89 142l283 1323q41 185 185 289t345 88z" />
    <glyph glyph-name="approxequal" unicode="&#x2248;" horiz-adv-x="1118" 
d="M303 401q-129 0 -237 -92l34 164q102 90 236 90q70 0 170 -63t164 -64q137 1 254 101l-35 -162q-104 -100 -252 -101q-68 0 -166 64t-168 63zM723 674q-68 0 -167 63t-169 64q-129 0 -235 -90l34 163q100 88 236 89q70 -1 170 -63t164 -62q143 0 252 100l-35 -164
q-109 -100 -250 -100z" />
    <glyph glyph-name="notequal" unicode="&#x2260;" horiz-adv-x="1118" 
d="M997 887l-32 -152h-269l-180 -223h402l-33 -154h-488l-188 -237l-92 59l141 178h-182l33 154h270l178 223h-401l32 152h490l180 227l92 -57l-137 -170h184z" />
    <glyph glyph-name="lessequal" unicode="&#x2264;" horiz-adv-x="1118" 
d="M868 279l-30 -146h-809l30 146h809zM1051 1133l-35 -158l-656 -209l568 -209l-35 -158l-746 299l31 136z" />
    <glyph glyph-name="greaterequal" unicode="&#x2265;" horiz-adv-x="1118" 
d="M868 276l-30 -143h-809l30 146zM987 834l-31 -136l-872 -299l35 158l651 209l-563 209l35 158z" />
    <glyph glyph-name="lozenge" unicode="&#x25ca;" horiz-adv-x="1302" 
d="M1006 723l-261 524l-444 -491l258 -525zM1214 739l-722 -759l-398 759l721 760z" />
    <glyph glyph-name="apple" unicode="&#xf000;" horiz-adv-x="1601" 
d="M1079 -53q-43 1 -111 29t-136 28t-149 -31t-110 -30q-92 1 -186 113t-153 272q-58 160 -58 299q0 199 106 323t277 125q63 0 147 -31q84 -30 114 -30q28 0 115 33t155 32q190 0 296 -145q-90 -68 -128 -134t-38 -159q0 -94 55 -175q54 -81 150 -122q-78 -188 -169 -292
t-177 -105zM1094 1415q8 -143 -86 -249t-220 -105q2 147 84 242q83 94 222 112z" />
    <glyph glyph-name="dotlessj" unicode="&#xf6be;" horiz-adv-x="526" 
d="M455 1047l-203 -955q-51 -238 -204 -381t-343 -155l35 161q100 31 166 112t98 241l209 977h242z" />
    <glyph glyph-name="dotlessj" unicode="&#xfb0f;" horiz-adv-x="526" 
d="M455 1047l-203 -955q-51 -238 -204 -381t-343 -155l35 161q100 31 166 112t98 241l209 977h242z" />
    <glyph glyph-name="commaaccent" unicode="&#xf6c3;" 
d="M381 -272q-13 -104 -113 -166t-233 -74l-29 100q180 25 201 150q12 82 -98 164h204q35 -25 55 -72t13 -102z" />
    <glyph glyph-name="fi" unicode="&#xfb01;" horiz-adv-x="1134" 
d="M760 1524l-33 -154q-178 0 -215 -182l-29 -141h176l-34 -156h-176l-189 -891h-242l189 891h-121l35 156h121l24 118q37 179 169 277t325 82zM1059 1047l-223 -1047h-242l223 1047h242zM975 1223q-55 0 -87 39t-20 95t60 96t104 40q55 0 87 -40t20 -96q-13 -56 -61 -95
t-103 -39z" />
    <glyph glyph-name="fl" unicode="&#xfb02;" horiz-adv-x="1134" 
d="M760 1524l-33 -154q-178 0 -215 -182l-29 -141h176l-34 -156h-176l-189 -891h-242l189 891h-121l35 156h121l24 118q37 179 169 277t325 82zM1149 1479l-313 -1479h-242l313 1479h242z" />
    <glyph glyph-name="Gcedilla" horiz-adv-x="1247" 
d="M797 -254q-20 -98 -175 -139t-409 -19l68 86q137 -12 236 8t107 61q8 42 -45 55q-54 13 -194 3l64 78q207 17 285 -19t63 -114zM887 1315q-195 -1 -331 -145t-196 -426t9 -432q68 -151 227 -150q90 0 160 26l133 629h239l-159 -754q-162 -84 -402 -83q-293 0 -417 200
t-48 558q76 360 295 560t498 201q184 0 311 -82l-41 -196q-121 94 -278 94z" />
    <glyph glyph-name="gcedilla" horiz-adv-x="1077" 
d="M565 924q-103 0 -165 -58t-82 -157q-20 -97 16 -155q37 -58 141 -58q201 0 248 213q45 215 -158 215zM571 -684q-20 -98 -175 -139t-408 -19l67 86q137 -12 237 7t107 61q8 42 -46 56q-54 13 -193 3l63 78q207 16 286 -19q78 -36 62 -114zM377 199h155q170 0 247 -86
t50 -215q-35 -162 -176 -258t-356 -96t-325 75q-110 76 -83 201q12 55 48 112h219q-29 -33 -44 -101q-14 -68 50 -106t172 -38t182 53q72 53 89 131q17 77 -19 107t-133 30h-150q-196 0 -237 91q-18 40 -7 98q20 98 158 200q-164 88 -117 312q35 164 161 262t335 98
q84 0 170 -22h326l-29 -129h-141q47 -74 17 -220t-155 -246q-125 -101 -340 -102q-20 0 -53 2h-33q-68 -37 -82 -96q-6 -35 24 -46t77 -11z" />
    <glyph glyph-name="Kcedilla" horiz-adv-x="1153" 
d="M346 -254q-20 -98 -175 -139t-409 -19l68 86q136 -12 236 8t108 61q8 42 -46 55t-194 3l64 78q207 16 286 -19q78 -36 62 -114zM1253 1479l-608 -686l320 -793h-293l-266 748h-5l-159 -748h-252l313 1479h252l-143 -678h4l569 678h268z" />
    <glyph glyph-name="kcedilla" horiz-adv-x="1021" 
d="M346 -254q-20 -98 -175 -139t-409 -19l68 86q136 -12 236 8t108 61q8 42 -46 55t-194 3l64 78q207 16 286 -19q78 -36 62 -114zM1032 1047l-465 -478l285 -569h-274l-238 535h-2l-113 -535h-239l313 1479h240l-191 -906h2l436 474h246z" />
    <glyph glyph-name="Lcedilla" horiz-adv-x="888" 
d="M510 -254q-20 -98 -175 -139t-409 -19l68 86q137 -12 236 8q100 20 108 61q8 42 -46 55t-194 3l64 78q208 17 286 -19t62 -114zM705 184l-39 -184h-676l313 1479h254l-274 -1295h422z" />
    <glyph glyph-name="lcedilla" horiz-adv-x="526" 
d="M326 -254q-20 -98 -175 -139t-409 -19l68 86q137 -12 236 8q100 20 108 61q8 42 -46 55t-194 3l63 78q207 17 286 -19t63 -114zM543 1479l-314 -1479h-243l313 1479h244z" />
    <glyph glyph-name="Ncedilla" horiz-adv-x="1359" 
d="M346 -254q-20 -98 -175 -139t-409 -19l68 86q136 -12 236 8t108 61q8 42 -46 55t-194 3l64 78q207 16 286 -19q78 -36 62 -114zM1372 1479l-313 -1479h-217l-342 958l-49 164h-5q-8 -84 -26 -170l-203 -952h-227l313 1479h254l322 -904l47 -145h4q6 68 24 152l191 897
h227z" />
    <glyph glyph-name="ncedilla" horiz-adv-x="1091" 
d="M346 -254q-20 -98 -175 -139t-409 -19l68 86q136 -12 236 8t108 61q8 42 -46 55t-194 3l64 78q207 16 286 -19q78 -36 62 -114zM573 911q-90 0 -165 -26l-189 -885h-242l211 989q184 80 417 80q233 -1 312 -91t48 -233l-158 -745h-244l158 739q37 172 -148 172z" />
    <glyph glyph-name="Rcedilla" horiz-adv-x="1193" 
d="M678 1325h-154l-110 -520h106q170 -1 259 61t118 201t-25 199t-194 59zM346 -254q-20 -98 -175 -139t-409 -19l68 86q136 -12 236 8t108 61q8 42 -46 55t-194 3l64 78q207 16 286 -19q78 -36 62 -114zM758 1479q232 0 330 -116q98 -117 64 -279t-143 -267
q-110 -104 -272 -133l260 -684h-284l-234 651h-98l-139 -651h-252l313 1479h455z" />
    <glyph glyph-name="rcedilla" horiz-adv-x="681" 
d="M346 -254q-20 -98 -175 -139t-409 -19l68 86q136 -12 236 8t108 61q8 42 -46 55t-194 3l64 78q207 16 286 -19q78 -36 62 -114zM610 1071q15 0 105 -8l-82 -166q-127 33 -225 -14l-189 -883h-242l209 987q193 84 424 84z" />
    <glyph glyph-name="Omegagreek" horiz-adv-x="565" 
 />
    </font>
</defs>
</svg>
