<?xml version="1.0" standalone="no"?>
<!DOCTYPE svg PUBLIC "-//W3C//DTD SVG 1.1//EN" "http://www.w3.org/Graphics/SVG/1.1/DTD/svg11.dtd" >
<svg xmlns="http://www.w3.org/2000/svg">
<metadata>
Created by FontPrep 20130207 at Mon May 18 12:43:11 2015
 By Nathan Crenshaw
Copyright (c) United Parcel Services, Inc, 2002. All rights reserved.
</metadata>
<defs>
<font id="d3e7b7fc46d8faaf59c25d303032500b" horiz-adv-x='1024' >
  <font-face 
    font-family="UPSSans-Bold"
    font-weight="700"
    font-stretch="normal"
    units-per-em="2048"
    panose-1="2 11 8 3 6 0 0 2 0 4"
    ascent="1638"
    descent="-410"
    x-height="1047"
    cap-height="1479"
    bbox="-233 -858.597 2433 2087"
    underline-thickness="102"
    underline-position="-153"
    unicode-range="U+0009-FB02"
  />
<missing-glyph horiz-adv-x="548" 
 />
    <glyph glyph-name=".notdef" horiz-adv-x="548" 
 />
    <glyph glyph-name=".notdef" horiz-adv-x="548" 
 />
    <glyph glyph-name=".null" horiz-adv-x="0" 
 />
    <glyph glyph-name="nonmarkingreturn" horiz-adv-x="681" 
 />
    <glyph glyph-name="HT" unicode="&#x9;" horiz-adv-x="548" 
 />
    <glyph glyph-name="LF" unicode="&#xa;" horiz-adv-x="548" 
 />
    <glyph glyph-name="CR" unicode="&#xd;" horiz-adv-x="548" 
 />
    <glyph glyph-name="space" unicode=" " horiz-adv-x="548" 
 />
    <glyph glyph-name="exclam" unicode="!" horiz-adv-x="688" 
d="M524 160q0 -76 -52 -128t-128 -52t-128 52t-52 128t52 128t128 52t128 -52t52 -128zM530 1479l-65 -975h-240l-67 975h372z" />
    <glyph glyph-name="quotedbl" unicode="&#x22;" horiz-adv-x="905" 
d="M254 1523q88 0 137 -63l-57 -573h-162l-55 573q49 63 137 63zM651 1523q88 0 137 -63l-57 -573h-164l-55 573q51 63 139 63z" />
    <glyph glyph-name="numbersign" unicode="#" horiz-adv-x="1200" 
d="M729 922h-203l-57 -328h201zM1110 922h-205l-57 -328h178v-154h-205l-73 -440h-179l76 440h-201l-77 -440h-177l76 438h-176v156h203l57 326h-176v155h203l69 404h177l-70 -404h203l67 404h178l-69 -404h178v-153z" />
    <glyph glyph-name="dollar" unicode="$" horiz-adv-x="1200" 
d="M1018 446q0 -150 -95 -264q-95 -115 -247 -147v-225h-178v213q-193 8 -301 75v262q9 -10 29 -20t39 -20t31 -16q12 -5 34 -14q20 -10 62 -22t117 -12t127 49t52 126t-47 125t-156 95q-276 121 -276 379q0 158 93 273t247 145v186h172v-180q143 -10 244 -74v-219
q-157 92 -253 92t-146 -47t-50 -123t48 -124q48 -49 178 -109t202 -157q74 -97 74 -247z" />
    <glyph glyph-name="percent" unicode="%" horiz-adv-x="1818" 
d="M537 1021q0 161 -22 252t-86 91t-86 -91q-21 -91 -21 -252t22 -250t86 -89t85 89q22 89 22 250zM1390 815q-64 0 -86 -91t-22 -252t22 -250t86 -89t85 88q20 88 21 250t-20 253q-22 91 -86 91zM682 1335q59 -136 59 -323t-59 -321q-34 -75 -98 -119t-156 -44
q-244 0 -298 317q-13 77 -13 168q0 186 58 322q32 76 96 120q65 44 157 44t157 -44t97 -120zM1315 1450l-658 -1499l-137 59l658 1497zM1702 465q0 -90 -13 -168q-53 -317 -298 -317q-92 0 -157 44q-66 44 -98 120q-57 133 -58 319t59 323q71 164 254 164q93 0 157 -44
q154 -105 154 -441z" />
    <glyph glyph-name="ampersand" unicode="&#x26;" horiz-adv-x="1388" 
d="M829 727h-84q-141 0 -228 -85t-87 -214q0 -242 254 -242q102 1 145 19v522zM1327 727h-184v-661q-152 -86 -448 -86q-297 0 -451 110t-154 316q0 156 90 254t232 149v6q-233 94 -234 318q0 166 123 266t321 100t320 -61v-230q-134 70 -236 70t-155 -47t-53 -131t60 -130
t157 -46h612v-197z" />
    <glyph glyph-name="quotesingle" unicode="'" horiz-adv-x="509" 
d="M256 1523q90 0 137 -63l-57 -573h-162l-57 573q49 63 139 63z" />
    <glyph glyph-name="parenleft" unicode="(" horiz-adv-x="815" 
d="M444 584q0 -510 326 -967l-149 -84q-270 283 -391 533q-120 250 -119 520q0 270 119 519q120 249 391 531l149 -84q-326 -458 -326 -968z" />
    <glyph glyph-name="parenright" unicode=")" horiz-adv-x="815" 
d="M705 586q0 -270 -120 -520t-390 -533l-150 84q328 459 328 968t-328 967l150 84q270 -284 390 -532t120 -518z" />
    <glyph glyph-name="asterisk" unicode="*" horiz-adv-x="833" 
d="M332 1524h164v-256l237 90l55 -158l-241 -80l151 -200l-135 -101l-151 211l-144 -211l-137 101l152 200l-238 80l55 158l232 -90v256z" />
    <glyph glyph-name="plus" unicode="+" horiz-adv-x="1155" 
d="M993 518h-313v-323h-205v323h-313v205h313v321h205v-321h313v-205z" />
    <glyph glyph-name="comma" unicode="," horiz-adv-x="620" 
d="M378 338q122 0 136 -94l-326 -590h-186l191 590q63 94 185 94z" />
    <glyph glyph-name="hyphen" unicode="-" horiz-adv-x="729" 
d="M631 471h-533v236h533v-236z" />
    <glyph glyph-name="hyphen" unicode="&#xad;" horiz-adv-x="729" 
d="M631 471h-533v236h533v-236z" />
    <glyph glyph-name="period" unicode="." horiz-adv-x="600" 
d="M479 160q0 -74 -53 -127t-127 -53t-127 53t-53 127t53 127t127 53t127 -53t53 -127z" />
    <glyph glyph-name="slash" unicode="/" horiz-adv-x="1191" 
d="M1176 1540l-965 -2013l-195 94l965 2013z" />
    <glyph glyph-name="zero" unicode="0" horiz-adv-x="1200" 
d="M801 739q0 407 -99 511q-41 44 -102 44q-121 0 -164 -172q-35 -147 -36 -325q-3 -464 98 -569q41 -44 102 -44q121 0 161 164q40 163 40 391zM600 -20q-115 0 -206 48t-146 124q-150 208 -152 585t152 590q55 76 146 124t206 48t206 -48t146 -124q154 -213 154 -587
q0 -375 -154 -588q-55 -76 -146 -124t-206 -48z" />
    <glyph glyph-name="one" unicode="1" horiz-adv-x="1200" 
d="M856 0h-317v1208l-314 -151v211l410 211h221v-1479z" />
    <glyph glyph-name="two" unicode="2" horiz-adv-x="1200" 
d="M1028 0h-864v180l387 533q149 207 149 315t-65 173q-66 65 -182 65q-162 0 -267 -66v242q135 57 302 57q302 0 421 -141q103 -122 103 -268q0 -188 -203 -451l-293 -375h512v-264z" />
    <glyph glyph-name="three" unicode="3" horiz-adv-x="1200" 
d="M1055 451q0 -207 -156 -339t-385 -132t-358 45v254q127 -61 303 -62q119 0 197 66t79 170q0 233 -395 225v196q348 23 348 220q0 82 -61 130t-185 48t-252 -58v234q133 51 339 51t336 -101t130 -265q1 -115 -69 -193t-162 -117v-4q133 -45 212 -129t79 -239z" />
    <glyph glyph-name="four" unicode="4" horiz-adv-x="1200" 
d="M674 504v467l6 217q-47 -113 -115 -230l-262 -454h371zM1094 309h-111v-309h-309v309h-588v195l565 975h332v-975h111v-195z" />
    <glyph glyph-name="five" unicode="5" horiz-adv-x="1200" 
d="M508 911q264 -1 404 -121t139 -324q0 -204 -156 -345t-391 -141t-350 59v254q137 -76 311 -76q111 0 189 72q78 73 77 183q0 110 -93 172t-235 63h-235l80 772h739v-265h-510l-33 -303h64z" />
    <glyph glyph-name="six" unicode="6" horiz-adv-x="1200" 
d="M803 455q0 264 -258 264q-63 0 -127 -25q-14 -66 -14 -195t48 -226q50 -97 155 -97t151 80q45 80 45 199zM1100 460q0 -222 -132 -350q-132 -130 -374 -130t-364 160t-121 405q0 182 58 340t147 263t201 184q212 150 403 167v-227q-330 -98 -449 -379q61 23 147 22
q196 -1 340 -117t144 -338z" />
    <glyph glyph-name="seven" unicode="7" horiz-adv-x="1200" 
d="M121 1214v265h932v-181l-121 -280q-119 -276 -225 -568t-148 -450h-346l532 1214h-624z" />
    <glyph glyph-name="eight" unicode="8" horiz-adv-x="1200" 
d="M387 384q-1 -81 61 -141q62 -61 149 -61t143 58t57 140q0 83 -40 141t-163 132q-125 -72 -166 -130t-41 -139zM793 1131q1 75 -53 129t-135 55q-81 0 -132 -53q-51 -54 -51 -130t38 -124t148 -121q106 69 146 119t39 125zM1100 377q0 -176 -139 -287q-139 -110 -357 -110
t-361 106q-142 106 -143 289q0 125 70 213t223 178q-131 82 -190 165t-60 191q0 164 130 270t327 107q197 0 327 -105t130 -270q1 -108 -59 -188t-191 -158q153 -94 223 -187t70 -214z" />
    <glyph glyph-name="nine" unicode="9" horiz-adv-x="1200" 
d="M795 978q1 130 -49 227t-155 97t-151 -79q-46 -80 -45 -199q0 -264 258 -264q63 0 127 24q15 64 15 194zM1090 934q0 -182 -58 -340t-148 -263q-89 -105 -201 -185q-210 -149 -402 -166v227q330 98 448 379q-61 -23 -147 -23q-197 0 -340 117q-144 117 -144 338t132 351
t374 130q242 1 364 -159t122 -406z" />
    <glyph glyph-name="colon" unicode=":" horiz-adv-x="600" 
d="M479 160q0 -74 -53 -127t-127 -53t-127 53t-53 127t53 127t127 53t127 -53t53 -127zM479 809q0 -74 -53 -127t-127 -53t-127 53t-53 127t53 127t127 53t127 -53t53 -127z" />
    <glyph glyph-name="semicolon" unicode=";" horiz-adv-x="620" 
d="M378 340q122 0 136 -96l-326 -590h-186l191 590q63 96 185 96zM512 809q0 -74 -53 -127t-127 -53t-127 53t-53 127t53 127t127 53t127 -53t53 -127z" />
    <glyph glyph-name="semicolon" unicode="&#x37e;" horiz-adv-x="620" 
d="M378 340q122 0 136 -96l-326 -590h-186l191 590q63 96 185 96zM512 809q0 -74 -53 -127t-127 -53t-127 53t-53 127t53 127t127 53t127 -53t53 -127z" />
    <glyph glyph-name="less" unicode="&#x3c;" horiz-adv-x="1155" 
d="M993 182l-831 348v189l831 348v-223l-579 -219l579 -222v-221z" />
    <glyph glyph-name="equal" unicode="=" horiz-adv-x="1155" 
d="M993 305h-831v205h831v-205zM993 731h-831v205h831v-205z" />
    <glyph glyph-name="greater" unicode="&#x3e;" horiz-adv-x="1155" 
d="M993 530l-831 -348v221l579 222l-579 219v223l831 -348v-189z" />
    <glyph glyph-name="question" unicode="?" horiz-adv-x="921" 
d="M604 160q0 -74 -53 -127t-127 -53t-127 53t-53 127t53 127t127 53t127 -53t53 -127zM860 1155q0 -129 -93 -220t-204 -128l-22 -303h-234l-35 395q115 23 187 80q71 57 71 134t-49 124t-147 47t-244 -65v221q138 59 330 59t316 -92t124 -252z" />
    <glyph glyph-name="at" unicode="@" horiz-adv-x="1777" 
d="M896 958q-78 0 -142 -76t-90 -170q-26 -93 -27 -175q0 -81 40 -133t105 -52q121 0 195 142t76 272q2 86 -39 139t-118 53zM729 199q-135 0 -206 98q-71 97 -71 231t51 262q50 128 155 223q104 95 240 95t214 -125l21 88h178l-90 -407q-35 -162 -35 -216t8 -74
q8 -19 35 -20q113 0 195 188t81 382q0 194 -130 318t-339 124q-164 0 -308 -71q-283 -140 -402 -452q-57 -151 -58 -308q0 -277 173 -433t450 -155q219 0 372 75t296 222l88 -115q-156 -160 -333 -241t-427 -81q-352 0 -569 194q-216 194 -216 538q0 256 125 476t344 352
t487 132t440 -160q171 -160 171 -410t-122 -479q-58 -110 -154 -182t-209 -71q-74 1 -114 35t-58 108q-113 -141 -283 -141z" />
    <glyph glyph-name="A" unicode="A" horiz-adv-x="1294" 
d="M799 565l-131 455q-12 41 -21 84q-8 43 -12 63l-2 23h-4q-6 -72 -35 -170l-129 -455h334zM1290 0h-325l-107 367h-450l-105 -367h-299l479 1479h328z" />
    <glyph glyph-name="B" unicode="B" horiz-adv-x="1251" 
d="M852 422q0 134 -73 198t-247 64h-83v-498h149q254 0 254 236zM825 1081q0 223 -233 224h-143v-447h96q152 0 216 53t64 170zM1174 422q0 -127 -50 -209q-87 -144 -314 -193q-97 -20 -212 -20h-465v1479h465q238 1 385 -105t147 -268q0 -133 -80 -217t-184 -111v-4
q116 -29 212 -127t96 -225z" />
    <glyph glyph-name="C" unicode="C" horiz-adv-x="1146" 
d="M719 -20q-335 0 -488 227q-141 208 -141 543t170 542t455 207q182 0 317 -63v-236q-30 29 -100 47t-139 19q-199 0 -290 -129t-91 -407t160 -420q89 -79 230 -79t230 64v-252q-141 -63 -313 -63z" />
    <glyph glyph-name="D" unicode="D" horiz-adv-x="1314" 
d="M903 739q0 528 -336 529h-116v-1057h116q172 1 254 121t82 407zM1225 732q0 -340 -164 -536t-506 -196h-422v1479h406q346 0 516 -204t170 -543z" />
    <glyph glyph-name="E" unicode="E" horiz-adv-x="985" 
d="M901 0h-768v1479h768v-236h-450v-375h397v-229h-397v-403h450v-236z" />
    <glyph glyph-name="F" unicode="F" horiz-adv-x="976" 
d="M901 1243h-450v-375h397v-229h-397v-639h-318v1479h768v-236z" />
    <glyph glyph-name="G" unicode="G" horiz-adv-x="1232" 
d="M90 738q0 356 173 558t468 203q184 0 328 -61v-246q-147 74 -287 74q-360 0 -360 -525q0 -256 81 -392t212 -136q41 0 114 18v609h293v-777q-139 -84 -389 -83q-311 0 -472 200q-161 202 -161 558z" />
    <glyph glyph-name="H" unicode="H" horiz-adv-x="1323" 
d="M1190 0h-318v641h-421v-641h-318v1479h318v-613h421v613h318v-1479z" />
    <glyph glyph-name="I" unicode="I" horiz-adv-x="591" 
d="M455 0h-318v1479h318v-1479z" />
    <glyph glyph-name="J" unicode="J" horiz-adv-x="591" 
d="M455 88q1 -254 -143 -387t-388 -145v229q92 16 153 89q60 73 60 194v1411h318v-1391z" />
    <glyph glyph-name="K" unicode="K" horiz-adv-x="1216" 
d="M451 733v-733h-318v1479h318v-670h4l374 670h340l-419 -682l446 -797h-373l-368 733h-4z" />
    <glyph glyph-name="L" unicode="L" horiz-adv-x="907" 
d="M842 0h-709v1479h318v-1246h391v-233z" />
    <glyph glyph-name="M" unicode="M" horiz-adv-x="1781" 
d="M1651 0h-299v1040l-344 -1040h-232l-344 1040v-1040h-299v1479h397l361 -1112l360 1112h400v-1479z" />
    <glyph glyph-name="N" unicode="N" horiz-adv-x="1392" 
d="M1260 0h-267l-491 829q-47 82 -68 136l-10 22h-4q8 -82 8 -164v-823h-295v1479h307l453 -760l76 -141h4q-8 70 -8 147v754h295v-1479z" />
    <glyph glyph-name="O" unicode="O" horiz-adv-x="1335" 
d="M924 753q0 529 -256 529t-256 -529t256 -530q256 1 256 530zM1245 739q0 -219 -56 -385q-55 -166 -189 -270t-332 -104t-332 104q-133 104 -190 270q-56 166 -56 385q0 336 142 548t436 212t435 -212q142 -212 142 -548z" />
    <glyph glyph-name="P" unicode="P" horiz-adv-x="1202" 
d="M569 772q109 0 177 60t69 196q0 135 -65 203q-66 68 -181 67h-118v-526h118zM1126 1035q0 -207 -134 -327t-386 -120h-155v-588h-318v1479h473q252 0 386 -119t134 -325z" />
    <glyph glyph-name="Q" unicode="Q" horiz-adv-x="1335" 
d="M924 753q0 529 -256 529t-256 -529t256 -530q256 1 256 530zM1245 739q0 -260 -85 -449t-259 -265q66 -33 252 -33v-211q-455 12 -614 211q-223 41 -336 245t-113 522t142 529t436 211t435 -211q142 -211 142 -549z" />
    <glyph glyph-name="R" unicode="R" horiz-adv-x="1234" 
d="M578 829q119 1 176 53t57 185t-58 185t-175 53h-129v-476h129zM449 645v-645h-316v1479h512q225 0 351 -113t126 -297q0 -135 -76 -231t-210 -138l358 -700h-344l-320 645h-81z" />
    <glyph glyph-name="S" unicode="S" horiz-adv-x="1089" 
d="M999 446q0 -206 -134 -336t-361 -130t-389 77v277q178 -111 336 -111q113 1 170 55t57 130t-64 126t-196 103q-311 127 -312 407q0 188 127 322t353 133q82 0 152 -13q70 -14 90 -22q19 -8 81 -34v-242q-141 86 -255 86q-226 0 -226 -174q0 -89 68 -136q50 -37 159 -85
q201 -86 273 -190t71 -243z" />
    <glyph glyph-name="T" unicode="T" horiz-adv-x="1028" 
d="M965 1243h-291v-1243h-318v1243h-293v236h902v-236z" />
    <glyph glyph-name="U" unicode="U" horiz-adv-x="1284" 
d="M1151 438q0 -209 -142 -334q-141 -124 -365 -124t-368 124q-143 125 -143 334v1041h318v-1047q0 -100 57 -154t145 -54q87 0 143 54t56 158v1043h299v-1041z" />
    <glyph glyph-name="V" unicode="V" horiz-adv-x="1208" 
d="M1192 1479l-444 -1479h-289l-445 1479h336l232 -924l32 -172h2q14 96 33 172l232 924h311z" />
    <glyph glyph-name="W" unicode="W" horiz-adv-x="1740" 
d="M1704 1479l-330 -1479h-293l-180 807l-24 149h-7q-6 -72 -24 -149l-180 -807h-295l-332 1479h328l153 -893l21 -160h4q8 80 26 160l195 893h238l190 -893l25 -160h4q6 82 20 160l160 893h301z" />
    <glyph glyph-name="X" unicode="X" horiz-adv-x="1167" 
d="M1157 0h-360l-224 494h-4l-235 -494h-332l399 754l-362 725h346l203 -457h4l223 457h309l-372 -701z" />
    <glyph glyph-name="Y" unicode="Y" horiz-adv-x="1126" 
d="M719 0h-318v604l-397 875h338l231 -578h5l231 578h307l-397 -875v-604z" />
    <glyph glyph-name="Z" unicode="Z" horiz-adv-x="999" 
d="M932 0h-901l471 1243h-424v236h846l-471 -1243h479v-236z" />
    <glyph glyph-name="bracketleft" unicode="[" horiz-adv-x="749" 
d="M674 -440h-543v2048h543v-181h-262v-1685h262v-182z" />
    <glyph glyph-name="backslash" unicode="\" horiz-adv-x="1196" 
d="M1180 -379l-197 -96l-967 2013l197 96z" />
    <glyph glyph-name="bracketright" unicode="]" horiz-adv-x="749" 
d="M618 -440h-542v182h262v1685h-262v181h542v-2048z" />
    <glyph glyph-name="asciicircum" unicode="^" horiz-adv-x="1255" 
d="M1090 1137l-127 -123l-334 372l-336 -372l-127 123l328 432q51 67 133 67t135 -67z" />
    <glyph glyph-name="underscore" unicode="_" horiz-adv-x="1155" 
d="M1176 -453h-1196v195h1196v-195z" />
    <glyph glyph-name="grave" unicode="`" 
d="M453 1159h-174l-265 287q20 51 124 52t175 -44z" />
    <glyph glyph-name="a" unicode="a" horiz-adv-x="1056" 
d="M350 324q0 -176 193 -177q65 0 110 23v369q-155 -15 -229 -61t-74 -154zM653 739q0 78 -47 109t-144 31t-267 -64v199q4 0 23 7q130 48 306 48q412 0 412 -383v-627q-150 -80 -410 -79q-457 0 -456 331q0 197 176 281q157 75 407 98v49z" />
    <glyph glyph-name="b" unicode="b" horiz-adv-x="1118" 
d="M735 532q0 168 -45 260t-158 93q-61 0 -108 -21v-686q37 -16 92 -16q219 -1 219 370zM1036 553q0 -277 -139 -425t-397 -148t-379 77v1422h303v-459q82 39 194 39q186 0 303 -138q115 -139 115 -368z" />
    <glyph glyph-name="c" unicode="c" horiz-adv-x="937" 
d="M590 -20q-229 0 -369 145q-139 145 -139 401t143 400t365 143q131 0 235 -41v-197q-70 33 -159 33q-121 0 -199 -91t-78 -245t81 -244q80 -90 190 -91q110 0 165 40v-210q-80 -43 -235 -43z" />
    <glyph glyph-name="d" unicode="d" horiz-adv-x="1118" 
d="M383 530q0 -358 221 -358q63 0 92 14v688q-37 12 -84 13q-229 1 -229 -357zM82 510q0 254 128 400t335 147q86 0 151 -19v441h301v-1422q-143 -77 -391 -77t-386 138t-138 392z" />
    <glyph glyph-name="e" unicode="e" horiz-adv-x="1091" 
d="M729 606q0 137 -44 211t-128 74t-129 -65t-55 -220h356zM381 455q0 -111 61 -190t203 -79t311 72v-215q-166 -63 -348 -63q-252 0 -389 147t-137 397t135 398t356 147q221 0 333 -171t102 -443h-627z" />
    <glyph glyph-name="f" unicode="f" horiz-adv-x="690" 
d="M643 850h-162v-850h-301v850h-114v197h114v106q0 197 124 295t339 74v-191q-80 4 -121 -31t-41 -120v-133h162v-197z" />
    <glyph glyph-name="g" unicode="g" horiz-adv-x="1122" 
d="M723 700q0 186 -180 187q-181 -1 -181 -187t183 -186q90 0 134 51t44 135zM408 266q0 -66 98 -65h160q182 0 284 -89t103 -221q0 -166 -129 -264t-359 -98q-231 0 -359 73t-128 199q0 43 20 111h267q-23 -37 -23 -92t67 -84t165 -29t155 44q57 43 57 109t-38 88
q-39 22 -132 21h-143q-121 0 -213 50t-92 164t104 208q-174 98 -174 309q0 168 111 268t334 101q84 0 178 -22h348v-160h-127q47 -84 47 -187q-1 -160 -109 -264t-335 -104l-94 2q-43 -31 -43 -68z" />
    <glyph glyph-name="h" unicode="h" horiz-adv-x="1130" 
d="M1010 0h-301v727q0 145 -156 145q-76 0 -129 -26v-846h-303v1479h303v-469q111 49 225 49q185 0 273 -91t88 -235v-733z" />
    <glyph glyph-name="i" unicode="i" 
d="M430 0h-303v1047h303v-1047zM444 1350q0 -68 -49 -116t-117 -48t-116 48q-49 48 -49 116t49 116t117 50q69 0 117 -49t48 -117z" />
    <glyph glyph-name="j" unicode="j" 
d="M432 111q0 -249 -134 -397t-345 -158v204q90 29 133 98t43 218v971h303v-936zM446 1350q0 -68 -49 -116t-117 -48t-116 48q-49 48 -49 116t49 116t117 50q69 0 117 -49t48 -117z" />
    <glyph glyph-name="k" unicode="k" horiz-adv-x="1089" 
d="M428 528v-528h-301v1479h301v-895h4l295 463h303l-328 -469l373 -578h-344l-299 528h-4z" />
    <glyph glyph-name="l" unicode="l" 
d="M430 0h-303v1479h303v-1479z" />
    <glyph glyph-name="m" unicode="m" horiz-adv-x="1718" 
d="M1597 0h-303v737q0 61 -38 101t-118 41q-80 0 -126 -52v-827h-303v741q0 63 -42 101t-115 37q-73 0 -128 -19v-860h-303v991q179 78 411 78t345 -104q121 104 323 104t299 -94q98 -94 98 -238v-737z" />
    <glyph glyph-name="n" unicode="n" horiz-adv-x="1130" 
d="M1010 0h-303v733q0 145 -156 146q-70 0 -127 -21v-858h-303v989q176 80 425 80q248 0 356 -90t108 -244v-735z" />
    <glyph glyph-name="o" unicode="o" horiz-adv-x="1085" 
d="M705 524q0 346 -162 346q-92 0 -127 -93t-35 -253q0 -346 162 -346t162 346zM1004 524q0 -242 -120 -394t-341 -150q-221 0 -341 152t-120 392q0 242 120 394t340 152t341 -152t121 -394z" />
    <glyph glyph-name="p" unicode="p" horiz-adv-x="1118" 
d="M735 530q0 180 -51 270t-168 91q-51 0 -94 -17v-694q51 -10 82 -10q231 0 231 360zM1036 539q0 -253 -128 -401t-335 -148q-92 0 -151 18v-448h-301v1431q153 78 395 78t381 -138t139 -392z" />
    <glyph glyph-name="q" unicode="q" horiz-adv-x="1118" 
d="M602 895q-219 1 -219 -361t207 -362q65 1 106 21v684q-33 18 -94 18zM997 -440h-301v467q-78 -39 -188 -39q-188 0 -307 138t-119 383t131 403t391 157q260 0 393 -78v-1431z" />
    <glyph glyph-name="r" unicode="r" horiz-adv-x="718" 
d="M424 0h-303v987q203 84 416 84q71 0 145 -12l-51 -197q-123 27 -207 -8v-854z" />
    <glyph glyph-name="s" unicode="s" horiz-adv-x="839" 
d="M762 313q0 -141 -109 -237t-288 -96q-121 0 -267 53v235q102 -80 226 -80q57 0 93 32t36 83t-30 85t-104 63q-236 92 -235 292q0 137 97 231t253 95q156 0 266 -59v-222q-106 84 -200 84q-55 0 -87 -30t-32 -78q0 -88 138 -148q139 -60 191 -131q52 -72 52 -172z" />
    <glyph glyph-name="t" unicode="t" horiz-adv-x="712" 
d="M180 281v569h-114v197h114v223l293 80v-303h166v-197h-166v-547q0 -121 100 -121q29 0 70 11v-185q-57 -29 -149 -28q-156 0 -235 86t-79 215z" />
    <glyph glyph-name="u" unicode="u" horiz-adv-x="1116" 
d="M121 1047h303v-723q0 -64 35 -102t111 -38t122 27v836h303v-984q-163 -83 -411 -83t-356 88t-107 276v703z" />
    <glyph glyph-name="v" unicode="v" horiz-adv-x="1052" 
d="M1008 1047l-332 -1047h-293l-336 1047h320l149 -603q12 -52 23 -137l2 -22h4q6 78 26 159l152 603h285z" />
    <glyph glyph-name="w" unicode="w" horiz-adv-x="1595" 
d="M504 293h4q0 61 24 151l160 603h248l152 -603q13 -52 20 -129l2 -22h4q4 76 21 153l133 601h266l-287 -1047h-278l-150 567q-20 78 -20 125l-2 21h-2q-4 -76 -23 -146l-155 -567h-275l-289 1047h301l127 -603q10 -50 19 -133v-18z" />
    <glyph glyph-name="x" unicode="x" horiz-adv-x="1011" 
d="M995 0h-333l-166 338h-4l-170 -338h-308l328 541l-293 506h318l151 -304h4l162 304h279l-299 -486z" />
    <glyph glyph-name="y" unicode="y" horiz-adv-x="1056" 
d="M1010 1047l-478 -1487h-319l176 440l-340 1047h320l145 -605q18 -88 18 -143l3 -23h4q6 78 28 166l160 605h283z" />
    <glyph glyph-name="z" unicode="z" horiz-adv-x="866" 
d="M791 0h-738l355 850h-320v197h694l-336 -850h345v-197z" />
    <glyph glyph-name="braceleft" unicode="{" horiz-adv-x="829" 
d="M737 -256q-485 0 -485 365v290q0 193 -178 201v164q178 4 178 190v289q0 365 485 365v-160q-113 0 -162 -44t-49 -142v-334q0 -207 -194 -246v-4q88 -16 141 -80t53 -172v-336q0 -98 49 -142t162 -44v-160z" />
    <glyph glyph-name="bar" unicode="|" horiz-adv-x="509" 
d="M379 -440h-248v2048h248v-2048z" />
    <glyph glyph-name="braceright" unicode="}" horiz-adv-x="829" 
d="M575 109q0 -365 -483 -365v160q111 0 161 44t50 142v336q0 217 195 252q-2 4 0 4q-195 39 -195 246v334q0 98 -50 142t-161 44v160q483 0 483 -365v-289q0 -186 181 -190v-164q-84 -4 -132 -48t-49 -153v-290z" />
    <glyph glyph-name="asciitilde" unicode="~" horiz-adv-x="1255" 
d="M1104 672q-51 -145 -240 -168q-90 -10 -225 62t-211 63q-129 -12 -188 -152l-88 199q76 162 235 178q94 8 226 -64t204 -63q139 14 195 145z" />
    <glyph glyph-name="nbspace" unicode="&#xa0;" horiz-adv-x="548" 
 />
    <glyph glyph-name="exclamdown" unicode="&#xa1;" horiz-adv-x="688" 
d="M530 -432h-372l65 975h240zM524 887q0 -76 -52 -128t-128 -52t-128 52t-52 128t52 128t128 52t128 -52t52 -128z" />
    <glyph glyph-name="cent" unicode="&#xa2;" horiz-adv-x="1200" 
d="M680 203v-203h-172v227q-158 49 -247 185t-89 338t91 334t245 180v215h172v-189q131 0 235 -41v-196q-70 33 -159 32q-121 0 -199 -90q-78 -89 -78 -243t81 -245q80 -91 190 -91t165 41v-211q-80 -43 -235 -43z" />
    <glyph glyph-name="sterling" unicode="&#xa3;" horiz-adv-x="1200" 
d="M1081 0h-960q227 256 227 504q0 74 -22 164h-209v190h155q-35 135 -34 238q0 162 120 282t348 121q230 0 357 -82v-229q-137 86 -285 86q-227 0 -227 -254q0 -86 22 -162h287v-190h-258q12 -58 12 -138t-26 -156t-47 -110h540v-264z" />
    <glyph glyph-name="currency" unicode="&#xa4;" horiz-adv-x="1200" 
d="M819 731q0 87 -63 151q-64 64 -152 64t-150 -63t-62 -151t62 -151t151 -63t151 62t63 151zM601 1157q118 0 224 -63l146 145l141 -141l-145 -146q63 -104 63 -220t-63 -222l145 -143l-141 -142l-146 144q-102 -61 -222 -61t-220 61l-143 -144l-142 142l144 143
q-62 100 -62 223t62 221l-144 144l142 141l143 -145q100 63 218 63z" />
    <glyph glyph-name="yen" unicode="&#xa5;" horiz-adv-x="1200" 
d="M1085 936v-135h-256l-65 -137h321v-136h-333v-528h-303v528h-336v136h323l-65 137h-258v135h196l-254 543h326l229 -592h4l240 592h291l-254 -543h194z" />
    <glyph glyph-name="brokenbar" unicode="&#xa6;" horiz-adv-x="509" 
d="M379 -440h-248v817h248v-817zM379 791h-248v817h248v-817z" />
    <glyph glyph-name="section" unicode="&#xa7;" horiz-adv-x="1155" 
d="M774 499q0 103 -98 189l-195 166q-119 -76 -119 -184t101 -193l190 -160q121 79 121 182zM1024 526q0 -193 -231 -336q123 -115 123 -254t-105 -227q-103 -88 -287 -88t-311 82v234q156 -109 266 -109q63 0 105 31q41 31 41 80q0 78 -84 147l-226 188q-100 84 -141 164
t-41 189q0 205 223 342q-102 106 -102 231t97 212t272 87t295 -78v-209q-14 15 -34 25q-20 11 -39 23t-53 24t-65 17q-31 6 -73 6t-80 -31q-36 -31 -36 -78t22 -83t83 -87l201 -170q98 -84 139 -159t41 -173z" />
    <glyph glyph-name="dieresis" unicode="&#xa8;" 
d="M219 1298q0 -51 -42 -87q-42 -35 -99 -35t-98 36t-41 86q0 51 41 88t98 37t99 -37t42 -88zM618 1298q0 -51 -42 -87q-42 -35 -100 -35t-99 36t-41 86q0 51 41 88t99 37t100 -37t42 -88z" />
    <glyph glyph-name="copyright" unicode="&#xa9;" horiz-adv-x="1642" 
d="M852 307q-178 0 -265 121q-87 120 -87 314t97 312t259 117q104 0 182 -38l2 -148q-53 43 -141 43q-207 0 -207 -285q0 -115 51 -199t143 -83q92 0 154 39l-2 -154q-86 -39 -186 -39zM1421 738q0 258 -175 448t-424 190t-425 -189t-176 -449t176 -447q176 -189 425 -189
t424 188t175 448zM1548 739q0 -311 -214 -535t-513 -224t-513 224t-214 535t214 535t513 225q299 -1 513 -225t214 -535z" />
    <glyph glyph-name="ordfeminine" unicode="&#xaa;" horiz-adv-x="776" 
d="M477 901v244q-102 -12 -153 -43t-52 -105q0 -109 131 -108q49 0 74 12zM397 768q-324 0 -323 223q0 137 124 194q98 46 279 62v29q1 90 -111 90t-206 -43v137q127 39 235 39q287 0 287 -258v-420q-106 -53 -285 -53z" />
    <glyph glyph-name="guillemotleft" unicode="&#xab;" horiz-adv-x="1120" 
d="M559 199l-172 -101l-305 484l305 485l172 -102l-240 -383zM1006 199l-175 -101l-305 484l305 485l175 -102l-242 -383z" />
    <glyph glyph-name="logicalnot" unicode="&#xac;" horiz-adv-x="1155" 
d="M993 305h-213v307h-618v205h831v-512z" />
    <glyph glyph-name="registered" unicode="&#xae;" horiz-adv-x="1642" 
d="M803 797q63 -1 94 27t31 100t-31 100t-94 27h-66v-254h66zM737 682v-363h-188v842h293q128 -1 200 -65t72 -170q0 -158 -158 -211l205 -396h-209l-178 363h-37zM1421 738q0 258 -175 448t-424 190t-425 -189t-176 -449t176 -447q176 -189 425 -189t424 188t175 448z
M1548 739q0 -311 -214 -535t-513 -224t-513 224t-214 535t214 535t513 225q299 -1 513 -225t214 -535z" />
    <glyph glyph-name="macron" unicode="&#xaf;" 
d="M612 1221h-667v165h667v-165z" />
    <glyph glyph-name="macron" unicode="&#x2c9;" 
d="M612 1221h-667v165h667v-165z" />
    <glyph glyph-name="degree" unicode="&#xb0;" horiz-adv-x="849" 
d="M598 1178q0 72 -50 122t-122 50t-123 -50t-51 -122t51 -123t123 -51t122 51t50 123zM748 1178q0 -132 -94 -228t-228 -96q-133 0 -228 95q-96 95 -96 229t96 227q96 94 228 94q134 0 228 -94t94 -227z" />
    <glyph glyph-name="plusminus" unicode="&#xb1;" horiz-adv-x="1155" 
d="M993 80h-831v188h831v-188zM993 684h-313v-307h-205v307h-313v186h313v306h205v-306h313v-186z" />
    <glyph glyph-name="twosuperior" unicode="&#xb2;" horiz-adv-x="786" 
d="M684 612h-516v140l207 290q72 102 71 177q0 115 -139 114q-57 0 -127 -30v165q58 31 200 31t217 -75q75 -74 75 -182t-115 -249l-162 -198h289v-183z" />
    <glyph glyph-name="threesuperior" unicode="&#xb3;" horiz-adv-x="786" 
d="M684 883q0 -127 -94 -205t-234 -78t-217 29v178q72 -39 172 -39q139 0 140 113q0 131 -209 127v122q190 18 190 123q0 88 -121 88q-80 0 -147 -32v161q80 29 204 29t202 -58q79 -58 79 -165t-121 -172q156 -63 156 -221z" />
    <glyph glyph-name="acute" unicode="&#xb4;" 
d="M543 1446l-264 -287h-175l140 295q70 45 174 44t125 -52z" />
    <glyph glyph-name="mu" unicode="&#xb5;" horiz-adv-x="1130" 
d="M424 -440h-303v1487h303v-848q74 -33 154 -33t131 29v852h301v-984q-150 -80 -353 -79q-125 0 -233 49v-473z" />
    <glyph glyph-name="mu" unicode="&#x3bc;" horiz-adv-x="1130" 
d="M424 -440h-303v1487h303v-848q74 -33 154 -33t131 29v852h301v-984q-150 -80 -353 -79q-125 0 -233 49v-473z" />
    <glyph glyph-name="paragraph" unicode="&#xb6;" horiz-adv-x="1155" 
d="M1075 1337h-69v-1708h-195v1708h-213v-1708h-197v1049q-162 27 -258 130t-96 259q0 209 141 310t365 102h522v-142z" />
    <glyph glyph-name="periodcentered" unicode="&#xb7;" horiz-adv-x="600" 
d="M479 606q0 -74 -53 -127t-127 -53t-127 53t-53 127t53 127t127 53t127 -53t53 -127z" />
    <glyph glyph-name="periodcentered" unicode="&#x2219;" horiz-adv-x="600" 
d="M479 606q0 -74 -53 -127t-127 -53t-127 53t-53 127t53 127t127 53t127 -53t53 -127z" />
    <glyph glyph-name="cedilla" unicode="&#xb8;" 
d="M565 -254q1 -104 -153 -147t-420 -19l55 101q137 -14 225 5t88 57t-54 49t-189 3l53 88q215 19 305 -17t90 -120z" />
    <glyph glyph-name="onesuperior" unicode="&#xb9;" horiz-adv-x="786" 
d="M571 604h-219v690l-194 -94v148l254 131h159v-875z" />
    <glyph glyph-name="ordmasculine" unicode="&#xba;" horiz-adv-x="776" 
d="M500 1140q0 108 -24 167t-88 59t-88 -59t-24 -168t25 -167t88 -58t87 58q24 60 24 168zM715 1135q0 -163 -85 -265t-241 -102t-242 102t-86 264t86 264q86 101 241 101t241 -101t86 -263z" />
    <glyph glyph-name="guillemotright" unicode="&#xbb;" horiz-adv-x="1120" 
d="M594 582l-305 -484l-174 101l241 383l-241 383l174 102zM1038 582l-303 -484l-174 101l240 383l-240 383l174 102z" />
    <glyph glyph-name="onequarter" unicode="&#xbc;" horiz-adv-x="1740" 
d="M1346 293v244l2 131q-33 -68 -68 -129l-143 -246h209zM518 604h-219v690l-195 -94v148l254 131h160v-875zM1284 1444l-659 -1499l-170 71l659 1497zM1622 168h-66v-168h-210v168h-338v131l338 575h210v-581h66v-125z" />
    <glyph glyph-name="onehalf" unicode="&#xbd;" horiz-adv-x="1740" 
d="M518 604h-219v690l-195 -94v148l254 131h160v-875zM1253 1444l-659 -1499l-170 71l659 1497zM1622 0h-516v139l207 291q72 102 71 176q0 115 -139 115q-57 0 -127 -31v166q58 31 200 31t217 -75q75 -74 75 -182t-115 -249l-162 -199h289v-182z" />
    <glyph glyph-name="threequarters" unicode="&#xbe;" horiz-adv-x="1740" 
d="M1356 293v244l2 131q-33 -68 -68 -129l-143 -246h209zM684 883q0 -127 -94 -205t-234 -78t-217 29v178q72 -39 172 -39q139 0 140 113q0 131 -209 127v122q190 18 190 123q0 88 -121 88q-80 0 -147 -32v161q80 29 204 29t202 -58q79 -58 79 -165t-121 -172
q156 -63 156 -221zM1348 1444l-660 -1499l-170 71l660 1497zM1632 168h-65v-168h-211v168h-338v131l338 575h211v-581h65v-125z" />
    <glyph glyph-name="questiondown" unicode="&#xbf;" horiz-adv-x="921" 
d="M522 -444q-192 0 -316 92t-124 252q0 129 93 220t204 128l22 303h234l35 -395q-115 -23 -187 -80q-71 -56 -71 -134t49 -124t147 -47q98 0 244 65v-221q-138 -59 -330 -59zM698 895q0 -74 -53 -127t-127 -53t-127 53t-53 127t53 127t127 53t127 -53t53 -127z" />
    <glyph glyph-name="Agrave" unicode="&#xc0;" horiz-adv-x="1294" 
d="M799 565l-131 455q-12 41 -21 84q-8 43 -12 63l-2 23h-4q-6 -72 -35 -170l-129 -455h334zM1290 0h-325l-107 367h-450l-105 -367h-299l479 1479h328zM745 1565h-174l-264 284q21 51 125 53t174 -44z" />
    <glyph glyph-name="Aacute" unicode="&#xc1;" horiz-adv-x="1294" 
d="M799 565l-131 455q-12 41 -21 84q-8 43 -12 63l-2 23h-4q-6 -72 -35 -170l-129 -455h334zM1290 0h-325l-107 367h-450l-105 -367h-299l479 1479h328zM969 1849l-262 -284h-177l142 293q68 46 172 44t125 -53z" />
    <glyph glyph-name="Acircumflex" unicode="&#xc2;" horiz-adv-x="1294" 
d="M799 565l-131 455q-12 41 -21 84q-8 43 -12 63l-2 23h-4q-6 -72 -35 -170l-129 -455h334zM1290 0h-325l-107 367h-450l-105 -367h-299l479 1479h328zM646 1880q52 0 91 -39l213 -217l-86 -78l-219 156l-219 -156l-86 78l215 217q39 39 91 39z" />
    <glyph glyph-name="Atilde" unicode="&#xc3;" horiz-adv-x="1294" 
d="M799 565l-131 455q-12 41 -21 84q-8 43 -12 63l-2 23h-4q-6 -72 -35 -170l-129 -455h334zM1290 0h-325l-107 367h-450l-105 -367h-299l479 1479h328zM788 1579q-57 0 -145 42t-140 42q-53 0 -111 -43t-75 -82v180q74 102 177 103q59 0 144 -42t140 -42t113 43
q57 43 74 84v-181q-74 -104 -177 -104z" />
    <glyph glyph-name="Adieresis" unicode="&#xc4;" horiz-adv-x="1294" 
d="M799 565l-131 455q-12 41 -21 84q-8 43 -12 63l-2 23h-4q-6 -72 -35 -170l-129 -455h334zM1290 0h-325l-107 367h-450l-105 -367h-299l479 1479h328zM588 1696q0 -51 -42 -87t-100 -36t-98 36q-41 36 -41 87t41 88t98 37q58 0 100 -37t42 -88zM987 1696q0 -51 -42 -87
t-99 -36t-98 36t-41 87t41 88t98 37t99 -37t42 -88z" />
    <glyph glyph-name="Aring" unicode="&#xc5;" horiz-adv-x="1294" 
d="M799 565l-131 455q-12 41 -21 84q-8 43 -12 63l-2 23h-4q-6 -72 -35 -170l-129 -455h334zM731 1733q1 35 -25 59t-61 25q-35 0 -59 -25q-24 -26 -25 -60q0 -34 25 -59q26 -25 60 -25t60 25q25 25 25 60zM1290 0h-325l-107 367h-450l-105 -367h-299l479 1479h328z
M827 1733q0 -76 -53 -128q-53 -53 -128 -53t-128 52t-53 129q0 76 53 128t128 52t128 -52t53 -128z" />
    <glyph glyph-name="AE" unicode="&#xc6;" horiz-adv-x="1615" 
d="M819 565l-88 479l-14 140h-4q-14 -68 -41 -140l-180 -479h327zM1567 0h-652l-73 367h-428l-144 -365h-299l619 1477h821v-236h-459l90 -375h373v-229h-323l98 -403h377v-236z" />
    <glyph glyph-name="Ccedilla" unicode="&#xc7;" horiz-adv-x="1146" 
d="M901 -254q0 -104 -155 -147t-418 -19l55 101q135 -14 224 5t89 57t-54 49t-191 3l53 88q397 35 397 -137zM719 -20q-335 0 -488 227q-141 208 -141 543t170 542t455 207q182 0 317 -63v-236q-30 29 -100 47t-139 19q-199 0 -290 -129t-91 -407t160 -420q89 -79 230 -79
t230 64v-252q-141 -63 -313 -63z" />
    <glyph glyph-name="Egrave" unicode="&#xc8;" horiz-adv-x="985" 
d="M901 0h-768v1479h768v-236h-450v-375h397v-229h-397v-403h450v-236zM653 1565h-174l-264 284q21 51 125 53t174 -44z" />
    <glyph glyph-name="Eacute" unicode="&#xc9;" horiz-adv-x="985" 
d="M901 0h-768v1479h768v-236h-450v-375h397v-229h-397v-403h450v-236zM815 1849l-264 -284h-174l139 293q70 46 174 44t125 -53z" />
    <glyph glyph-name="Ecircumflex" unicode="&#xca;" horiz-adv-x="985" 
d="M901 0h-768v1479h768v-236h-450v-375h397v-229h-397v-403h450v-236zM511 1880q52 0 91 -39l215 -217l-88 -78l-217 156l-219 -156l-88 78l215 217q39 39 91 39z" />
    <glyph glyph-name="Edieresis" unicode="&#xcb;" horiz-adv-x="985" 
d="M901 0h-768v1479h768v-236h-450v-375h397v-229h-397v-403h450v-236zM453 1696q0 -51 -42 -87q-41 -36 -99 -36t-99 36t-41 87t41 88t98 37t99 -37t43 -88zM852 1696q0 -51 -42 -87t-100 -36t-100 36q-41 36 -41 87t41 88q42 37 100 37t100 -37t42 -88z" />
    <glyph glyph-name="Igrave" unicode="&#xcc;" horiz-adv-x="591" 
d="M455 0h-318v1479h318v-1479zM449 1565h-175l-264 284q20 51 124 53t175 -44z" />
    <glyph glyph-name="Iacute" unicode="&#xcd;" horiz-adv-x="591" 
d="M455 0h-318v1479h318v-1479zM596 1849l-264 -284h-174l139 293q71 46 175 44t124 -53z" />
    <glyph glyph-name="Icircumflex" unicode="&#xce;" horiz-adv-x="591" 
d="M455 0h-318v1479h318v-1479zM295 1878q53 0 90 -37l215 -217l-86 -78l-219 156l-219 -156l-86 78l215 217q37 37 90 37z" />
    <glyph glyph-name="Idieresis" unicode="&#xcf;" horiz-adv-x="591" 
d="M455 0h-318v1479h318v-1479zM236 1696q0 -51 -42 -87t-100 -36t-98 36q-41 36 -41 87t41 88t98 37q58 0 100 -37t42 -88zM635 1696q0 -51 -42 -87t-99 -36t-99 36q-41 36 -41 87t41 88t99 37t99 -37q42 -37 42 -88z" />
    <glyph glyph-name="Eth" unicode="&#xd0;" horiz-adv-x="1345" 
d="M940 741q0 526 -336 527h-117v-377h183v-201h-183v-479h117q170 -1 253 121t83 409zM575 1479q347 0 517 -204t170 -543q0 -340 -164 -536t-506 -196h-422v690h-109v201h109v588h405z" />
    <glyph glyph-name="Ntilde" unicode="&#xd1;" horiz-adv-x="1392" 
d="M1260 0h-267l-491 829q-47 82 -68 136l-10 22h-4q8 -82 8 -164v-823h-295v1479h307l453 -760l76 -141h4q-8 70 -8 147v754h295v-1479zM840 1579q-58 0 -146 42t-140 42t-110 -43t-75 -82v180q74 102 176 103q59 0 144 -42t140 -42t113 43q57 43 74 84v-181
q-74 -104 -176 -104z" />
    <glyph glyph-name="Ograve" unicode="&#xd2;" horiz-adv-x="1335" 
d="M924 753q0 529 -256 529t-256 -529t256 -530q256 1 256 530zM1245 739q0 -219 -56 -385q-55 -166 -189 -270t-332 -104t-332 104q-133 104 -190 270q-56 166 -56 385q0 336 142 548t436 212t435 -212q142 -212 142 -548zM809 1565h-176l-262 284q21 51 125 53t172 -44z
" />
    <glyph glyph-name="Oacute" unicode="&#xd3;" horiz-adv-x="1335" 
d="M924 753q0 529 -256 529t-256 -529t256 -530q256 1 256 530zM1245 739q0 -219 -56 -385q-55 -166 -189 -270t-332 -104t-332 104q-133 104 -190 270q-56 166 -56 385q0 336 142 548t436 212t435 -212q142 -212 142 -548zM961 1849l-265 -284h-174l140 293q70 46 173 44
t126 -53z" />
    <glyph glyph-name="Ocircumflex" unicode="&#xd4;" horiz-adv-x="1335" 
d="M924 753q0 529 -256 529t-256 -529t256 -530q256 1 256 530zM1245 739q0 -219 -56 -385q-55 -166 -189 -270t-332 -104t-332 104q-133 104 -190 270q-56 166 -56 385q0 336 142 548t436 212t435 -212q142 -212 142 -548zM669 1880q52 0 91 -39l215 -217l-88 -78l-217 156
l-219 -156l-89 78l216 217q39 39 91 39z" />
    <glyph glyph-name="Otilde" unicode="&#xd5;" horiz-adv-x="1335" 
d="M924 753q0 529 -256 529t-256 -529t256 -530q256 1 256 530zM1245 739q0 -219 -56 -385q-55 -166 -189 -270t-332 -104t-332 104q-133 104 -190 270q-56 166 -56 385q0 336 142 548t436 212t435 -212q142 -212 142 -548zM817 1579q-57 0 -145 42t-140 42t-110 -43
t-76 -82v180q74 102 176 103q58 0 144 -42t141 -42t113 43q57 43 73 84v-181q-74 -104 -176 -104z" />
    <glyph glyph-name="Odieresis" unicode="&#xd6;" horiz-adv-x="1335" 
d="M924 753q0 529 -256 529t-256 -529t256 -530q256 1 256 530zM1245 739q0 -219 -56 -385q-55 -166 -189 -270t-332 -104t-332 104q-133 104 -190 270q-56 166 -56 385q0 336 142 548t436 212t435 -212q142 -212 142 -548zM610 1696q0 -51 -42 -87t-100 -36t-99 36t-41 87
t41 88t99 37t100 -37t42 -88zM1008 1696q0 -51 -41 -87t-99 -36t-100 36q-41 36 -41 87t41 88t99 37q57 0 99 -37t42 -88z" />
    <glyph glyph-name="multiply" unicode="&#xd7;" horiz-adv-x="1155" 
d="M1004 313l-140 -137l-286 305l-287 -303l-137 135l286 308l-288 307l139 137l287 -305l286 305l137 -137l-288 -307z" />
    <glyph glyph-name="Oslash" unicode="&#xd8;" horiz-adv-x="1335" 
d="M924 752q0 170 -27 282l-424 -676q63 -135 195 -135q256 1 256 529zM668 1282q-256 0 -256 -530q0 -156 20 -258l420 669q-63 119 -184 119zM1245 739q0 -219 -56 -385q-55 -166 -189 -270t-340 -104t-349 120l-108 -172l-90 58l125 198q-148 201 -148 546t142 557
t436 212q197 0 331 -102l99 155l90 -57l-111 -174q168 -203 168 -582z" />
    <glyph glyph-name="Ugrave" unicode="&#xd9;" horiz-adv-x="1284" 
d="M1151 438q0 -209 -142 -334q-141 -124 -365 -124t-368 124q-143 125 -143 334v1041h318v-1047q0 -100 57 -154t145 -54q87 0 143 54t56 158v1043h299v-1041zM809 1565h-174l-264 284q21 51 125 53t174 -44z" />
    <glyph glyph-name="Uacute" unicode="&#xda;" horiz-adv-x="1284" 
d="M1151 438q0 -209 -142 -334q-141 -124 -365 -124t-368 124q-143 125 -143 334v1041h318v-1047q0 -100 57 -154t145 -54q87 0 143 54t56 158v1043h299v-1041zM946 1849l-264 -284h-174l139 293q71 46 175 44t124 -53z" />
    <glyph glyph-name="Ucircumflex" unicode="&#xdb;" horiz-adv-x="1284" 
d="M1151 438q0 -209 -142 -334q-141 -124 -365 -124t-368 124q-143 125 -143 334v1041h318v-1047q0 -100 57 -154t145 -54q87 0 143 54t56 158v1043h299v-1041zM654 1880q52 0 91 -39l216 -217l-89 -78l-217 156l-219 -156l-88 78l215 217q39 39 91 39z" />
    <glyph glyph-name="Udieresis" unicode="&#xdc;" horiz-adv-x="1284" 
d="M1151 438q0 -209 -142 -334q-141 -124 -365 -124t-368 124q-143 125 -143 334v1041h318v-1047q0 -100 57 -154t145 -54q87 0 143 54t56 158v1043h299v-1041zM598 1696q0 -51 -42 -87t-99 -36t-99 36q-41 36 -41 87t41 88q40 37 98 37t100 -37t42 -88zM997 1696
q0 -51 -42 -87t-99 -36t-98 36t-41 87t41 88t98 37t99 -37t42 -88z" />
    <glyph glyph-name="Yacute" unicode="&#xdd;" horiz-adv-x="1126" 
d="M719 0h-318v604l-397 875h338l231 -578h5l231 578h307l-397 -875v-604zM891 1849l-262 -284h-176l141 293q68 46 172 44t125 -53z" />
    <glyph glyph-name="Thorn" unicode="&#xde;" horiz-adv-x="1210" 
d="M569 504q109 0 177 60t69 196q0 135 -65 203q-66 68 -181 67h-118v-526h118zM606 1210q252 0 386 -118t134 -325q0 -206 -134 -327t-386 -121h-155v-319h-318v1479h318v-269h155z" />
    <glyph glyph-name="germandbls" unicode="&#xdf;" horiz-adv-x="1179" 
d="M743 -20q-104 0 -217 49v235q76 -63 162 -63q51 1 86 33t35 85q0 86 -104 156q-137 94 -137 254t161 227q12 39 12 103q0 264 -153 264q-160 0 -160 -334v-989h-303v965q0 249 117 405t335 156q217 0 337 -130t120 -327q0 -104 -24 -174q-160 -31 -160 -150q0 -45 22 -79
t94 -84q142 -103 142 -263q0 -159 -106 -249t-259 -90z" />
    <glyph glyph-name="agrave" unicode="&#xe0;" horiz-adv-x="1056" 
d="M350 324q0 -176 193 -177q65 0 110 23v369q-155 -15 -229 -61t-74 -154zM653 739q0 78 -47 109t-144 31t-267 -64v199q4 0 23 7q130 48 306 48q412 0 412 -383v-627q-150 -80 -410 -79q-457 0 -456 331q0 197 176 281q157 75 407 98v49zM688 1161h-176l-262 287
q20 51 124 52t173 -44z" />
    <glyph glyph-name="aacute" unicode="&#xe1;" horiz-adv-x="1056" 
d="M350 324q0 -176 193 -177q65 0 110 23v369q-155 -15 -229 -61t-74 -154zM653 739q0 78 -47 109t-144 31t-267 -64v199q4 0 23 7q130 48 306 48q412 0 412 -383v-627q-150 -80 -410 -79q-457 0 -456 331q0 197 176 281q157 75 407 98v49zM874 1448l-264 -287h-174l139 295
q70 45 173 44t126 -52z" />
    <glyph glyph-name="acircumflex" unicode="&#xe2;" horiz-adv-x="1056" 
d="M350 324q0 -176 193 -177q65 0 110 23v369q-155 -15 -229 -61t-74 -154zM653 739q0 78 -47 109t-144 31t-267 -64v199q4 0 23 7q130 48 306 48q412 0 412 -383v-627q-150 -80 -410 -79q-457 0 -456 331q0 197 176 281q157 75 407 98v49zM540 1477q54 0 91 -37l215 -217
l-88 -80l-217 155l-219 -155l-89 80l216 217q37 37 91 37z" />
    <glyph glyph-name="atilde" unicode="&#xe3;" horiz-adv-x="1056" 
d="M350 324q0 -176 193 -177q65 0 110 23v369q-155 -15 -229 -61t-74 -154zM653 739q0 78 -47 109t-144 31t-267 -64v199q4 0 23 7q130 48 306 48q412 0 412 -383v-627q-150 -80 -410 -79q-457 0 -456 331q0 197 176 281q157 75 407 98v49zM680 1178q-57 0 -145 42
q-89 42 -141 42t-110 -43t-75 -82v180q74 102 176 102q59 0 144 -42t141 -42t112 43q57 43 74 84v-180q-74 -104 -176 -104z" />
    <glyph glyph-name="adieresis" unicode="&#xe4;" horiz-adv-x="1056" 
d="M350 324q0 -176 193 -177q65 0 110 23v369q-155 -15 -229 -61t-74 -154zM653 739q0 78 -47 109t-144 31t-267 -64v199q4 0 23 7q130 48 306 48q412 0 412 -383v-627q-150 -80 -410 -79q-457 0 -456 331q0 197 176 281q157 75 407 98v49zM485 1300q0 -51 -41 -87
q-41 -35 -99 -35t-99 36t-41 86t41 88t99 38t99 -38q41 -37 41 -88zM885 1300q0 -51 -42 -87q-41 -35 -99 -35t-99 36t-41 86t41 88t98 38t100 -37q42 -38 42 -89z" />
    <glyph glyph-name="aring" unicode="&#xe5;" horiz-adv-x="1056" 
d="M350 324q0 -176 193 -177q65 0 110 23v369q-155 -15 -229 -61t-74 -154zM627 1331q0 35 -25 60q-26 25 -60 25t-59 -26q-25 -24 -25 -59t26 -59q24 -24 59 -25q35 1 59 25t25 59zM653 739q0 78 -47 109t-144 31t-267 -64v199q4 0 23 7q130 48 306 48q412 0 412 -383v-627
q-150 -80 -410 -79q-457 0 -456 331q0 197 176 281q157 75 407 98v49zM723 1331q0 -76 -52 -128t-128 -52t-128 52t-53 128q0 76 52 128t129 52q76 0 128 -52t52 -128z" />
    <glyph glyph-name="ae" unicode="&#xe6;" horiz-adv-x="1615" 
d="M641 295v242q-147 -13 -224 -63t-77 -155q0 -170 154 -169q68 0 108 38t39 107zM1253 604q0 285 -170 285q-86 1 -130 -63t-56 -222h356zM905 453q-1 -109 61 -187t204 -78t311 70v-213q-168 -65 -369 -65t-313 155q-88 -156 -320 -155q-197 0 -303 85t-106 244
q0 191 164 275q164 83 409 106v47q0 141 -184 142q-49 0 -132 -22t-132 -44v201q150 55 319 55q205 0 283 -145q49 70 131 108t168 37q220 1 334 -167t102 -449h-627z" />
    <glyph glyph-name="ccedilla" unicode="&#xe7;" horiz-adv-x="937" 
d="M758 -254q0 -104 -154 -147t-420 -19l58 101q135 -14 224 5t89 57t-54 49t-192 3l53 88q215 18 306 -17q90 -36 90 -120zM590 -20q-229 0 -369 145q-139 145 -139 401t143 400t365 143q131 0 235 -41v-197q-70 33 -159 33q-121 0 -199 -91t-78 -245t81 -244
q80 -90 190 -91q110 0 165 40v-210q-80 -43 -235 -43z" />
    <glyph glyph-name="egrave" unicode="&#xe8;" horiz-adv-x="1091" 
d="M729 606q0 137 -44 211t-128 74t-129 -65t-55 -220h356zM381 455q0 -111 61 -190t203 -79t311 72v-215q-166 -63 -348 -63q-252 0 -389 147t-137 397t135 398t356 147q221 0 333 -171t102 -443h-627zM684 1161h-176l-262 287q20 51 124 52t173 -44z" />
    <glyph glyph-name="eacute" unicode="&#xe9;" horiz-adv-x="1091" 
d="M729 606q0 137 -44 211t-128 74t-129 -65t-55 -220h356zM381 455q0 -111 61 -190t203 -79t311 72v-215q-166 -63 -348 -63q-252 0 -389 147t-137 397t135 398t356 147q221 0 333 -171t102 -443h-627zM881 1448l-265 -287h-174l140 295q70 45 173 44t126 -52z" />
    <glyph glyph-name="ecircumflex" unicode="&#xea;" horiz-adv-x="1091" 
d="M729 606q0 137 -44 211t-128 74t-129 -65t-55 -220h356zM381 455q0 -111 61 -190t203 -79t311 72v-215q-166 -63 -348 -63q-252 0 -389 147t-137 397t135 398t356 147q221 0 333 -171t102 -443h-627zM552 1477q54 0 91 -37l215 -217l-86 -80l-219 155l-219 -155l-88 80
l215 217q37 37 91 37z" />
    <glyph glyph-name="edieresis" unicode="&#xeb;" horiz-adv-x="1091" 
d="M729 606q0 137 -44 211t-128 74t-129 -65t-55 -220h356zM381 455q0 -111 61 -190t203 -79t311 72v-215q-166 -63 -348 -63q-252 0 -389 147t-137 397t135 398t356 147q221 0 333 -171t102 -443h-627zM498 1300q0 -51 -42 -87q-42 -35 -100 -35t-98 36q-41 36 -41 86
t41 88t98 38t100 -37q42 -38 42 -89zM895 1300q0 -51 -42 -87q-42 -35 -99 -35t-99 35q-41 36 -41 87q0 50 41 88t99 38t99 -38q42 -37 42 -88z" />
    <glyph glyph-name="igrave" unicode="&#xec;" 
d="M430 0h-303v1047h303v-1047zM424 1159h-174l-264 287q20 51 124 52t175 -44z" />
    <glyph glyph-name="iacute" unicode="&#xed;" 
d="M430 0h-303v1047h303v-1047zM569 1446l-264 -287h-174l139 295q70 45 174 44t125 -52z" />
    <glyph glyph-name="icircumflex" unicode="&#xee;" 
d="M430 0h-303v1047h303v-1047zM278 1475q54 0 91 -37l215 -217l-86 -80l-219 155l-220 -155l-86 80l213 217q38 37 92 37z" />
    <glyph glyph-name="idieresis" unicode="&#xef;" 
d="M430 0h-303v1047h303v-1047zM219 1298q0 -51 -42 -87q-42 -35 -99 -35t-98 36t-41 86q0 51 41 88t98 37t99 -37t42 -88zM616 1298q0 -51 -41 -87q-41 -35 -99 -35t-99 36t-41 86q0 51 41 88t99 37t99 -37t41 -88z" />
    <glyph glyph-name="eth" unicode="&#xf0;" horiz-adv-x="1099" 
d="M709 550q0 188 -54 316q-47 14 -84 15q-102 0 -146 -85q-44 -86 -44 -262t39 -262t129 -86t125 88t35 276zM1010 532q0 -252 -120 -402t-339 -150t-344 148t-125 384t116 392q116 155 316 155q63 0 96 -10q-43 104 -102 200l-176 -57q-31 66 -78 113l170 55
q-53 66 -96 104l258 84q57 -57 92 -102l158 51q55 -70 79 -113l-157 -51q252 -391 252 -801z" />
    <glyph glyph-name="ntilde" unicode="&#xf1;" horiz-adv-x="1130" 
d="M1010 0h-303v733q0 145 -156 146q-70 0 -127 -21v-858h-303v989q176 80 425 80q248 0 356 -90t108 -244v-735zM711 1178q-57 0 -145 42t-141 42t-111 -43t-74 -82v180q74 102 176 102q59 0 144 -42t140 -42t113 43q57 43 74 84v-180q-74 -104 -176 -104z" />
    <glyph glyph-name="ograve" unicode="&#xf2;" horiz-adv-x="1085" 
d="M705 528q0 348 -162 349q-92 1 -127 -93t-35 -255t35 -251t127 -92q92 0 127 91t35 251zM1004 524q0 -242 -120 -394t-341 -150q-221 0 -341 152t-120 392q0 242 120 392t340 151q220 -1 341 -151t121 -392zM670 1159h-174l-265 287q21 51 125 52t174 -44z" />
    <glyph glyph-name="oacute" unicode="&#xf3;" horiz-adv-x="1085" 
d="M705 528q0 348 -162 349q-92 1 -127 -93t-35 -255t35 -251t127 -92q92 0 127 91t35 251zM1004 524q0 -242 -120 -394t-341 -150q-221 0 -341 152t-120 392q0 242 120 392t340 151q220 -1 341 -151t121 -392zM864 1446l-264 -287h-174l139 295q70 45 173 44t126 -52z" />
    <glyph glyph-name="ocircumflex" unicode="&#xf4;" horiz-adv-x="1085" 
d="M705 528q0 348 -162 349q-92 1 -127 -93t-35 -255t35 -251t127 -92q92 0 127 91t35 251zM1004 524q0 -242 -120 -394t-341 -150q-221 0 -341 152t-120 392q0 242 120 392t340 151q220 -1 341 -151t121 -392zM542 1475q54 0 91 -37l215 -217l-86 -80l-219 155l-219 -155
l-88 80l215 217q37 37 91 37z" />
    <glyph glyph-name="otilde" unicode="&#xf5;" horiz-adv-x="1085" 
d="M705 528q0 348 -162 349q-92 1 -127 -93t-35 -255t35 -251t127 -92q92 0 127 91t35 251zM1004 524q0 -242 -120 -394t-341 -150q-221 0 -341 152t-120 392q0 242 120 392t340 151q220 -1 341 -151t121 -392zM690 1176q-57 0 -145 42t-140 42q-53 0 -111 -43t-75 -82v180
q74 102 176 102q59 0 145 -42t140 -42q55 0 113 43q57 43 73 84v-180q-74 -104 -176 -104z" />
    <glyph glyph-name="odieresis" unicode="&#xf6;" horiz-adv-x="1085" 
d="M705 528q0 348 -162 349q-92 1 -127 -93t-35 -255t35 -251t127 -92q92 0 127 91t35 251zM1004 524q0 -242 -120 -394t-341 -150q-221 0 -341 152t-120 392q0 242 120 392t340 151q220 -1 341 -151t121 -392zM483 1298q0 -51 -42 -87q-42 -35 -100 -35t-98 36t-40 87
q0 53 41 89t98 36t99 -38q42 -37 42 -88zM883 1298q0 -51 -42 -87q-43 -35 -101 -35t-99 36t-41 86q0 51 41 88t99 37t100 -37t43 -88z" />
    <glyph glyph-name="divide" unicode="&#xf7;" horiz-adv-x="1155" 
d="M711 289q0 -55 -39 -95t-94 -40t-95 40q-39 40 -39 95t39 94t95 39t94 -39q39 -39 39 -94zM993 543h-831v153h831v-153zM711 952q0 -55 -39 -94t-94 -39t-95 39q-39 39 -39 94q0 54 39 94t95 40t94 -40q39 -39 39 -94z" />
    <glyph glyph-name="oslash" unicode="&#xf8;" horiz-adv-x="1085" 
d="M711 502q0 142 -17 215l-272 -471q45 -74 131 -74t122 94t36 236zM543 879q-96 -1 -132 -95t-36 -230t14 -210l270 469q-43 66 -116 66zM1004 524q0 -242 -120 -394t-341 -150q-135 0 -240 61l-88 -154l-68 39l95 164q-160 143 -160 434q0 242 120 394t339 151
q137 0 233 -59l86 149l68 -39l-90 -157q166 -136 166 -439z" />
    <glyph glyph-name="ugrave" unicode="&#xf9;" horiz-adv-x="1116" 
d="M121 1047h303v-723q0 -64 35 -102t111 -38t122 27v836h303v-984q-163 -83 -411 -83t-356 88t-107 276v703zM702 1159h-174l-264 287q20 51 124 52t175 -44z" />
    <glyph glyph-name="uacute" unicode="&#xfa;" horiz-adv-x="1116" 
d="M121 1047h303v-723q0 -64 35 -102t111 -38t122 27v836h303v-984q-163 -83 -411 -83t-356 88t-107 276v703zM881 1446l-265 -287h-174l140 295q70 45 174 44t125 -52z" />
    <glyph glyph-name="ucircumflex" unicode="&#xfb;" horiz-adv-x="1116" 
d="M121 1047h303v-723q0 -64 35 -102t111 -38t122 27v836h303v-984q-163 -83 -411 -83t-356 88t-107 276v703zM558 1475q54 0 91 -37l215 -217l-86 -80l-219 155l-219 -155l-86 80l213 217q37 37 91 37z" />
    <glyph glyph-name="udieresis" unicode="&#xfc;" horiz-adv-x="1116" 
d="M121 1047h303v-723q0 -64 35 -102t111 -38t122 27v836h303v-984q-163 -83 -411 -83t-356 88t-107 276v703zM500 1298q0 -51 -42 -87q-42 -35 -100 -35t-100 36q-41 36 -41 86q0 51 41 88t99 37q59 0 101 -37t42 -88zM897 1298q0 -51 -41 -87q-41 -35 -99 -35t-100 35
q-41 36 -41 87t41 88t99 37t100 -37q41 -37 41 -88z" />
    <glyph glyph-name="yacute" unicode="&#xfd;" horiz-adv-x="1056" 
d="M1010 1047l-478 -1487h-319l176 440l-340 1047h320l145 -605q18 -88 18 -143l3 -23h4q6 78 28 166l160 605h283zM860 1446l-264 -287h-174l139 295q71 45 175 44t124 -52z" />
    <glyph glyph-name="thorn" unicode="&#xfe;" horiz-adv-x="1118" 
d="M735 528q0 180 -51 270t-168 91q-51 0 -94 -17v-692q41 -12 82 -12q231 0 231 360zM520 1069q238 1 377 -139t139 -394t-128 -401t-335 -147q-92 0 -151 18v-446h-301v1919h301v-414q61 4 98 4z" />
    <glyph glyph-name="ydieresis" unicode="&#xff;" horiz-adv-x="1056" 
d="M1010 1047l-478 -1487h-319l176 440l-340 1047h320l145 -605q18 -88 18 -143l3 -23h4q6 78 28 166l160 605h283zM487 1298q0 -51 -42 -87q-42 -35 -99 -35t-98 36t-41 86q0 51 41 88t98 37t99 -37t42 -88zM887 1298q0 -51 -42 -87q-41 -35 -99 -35t-99 36t-41 86
q0 51 41 88t98 37t99 -37t43 -88z" />
    <glyph glyph-name="Amacron" unicode="&#x100;" horiz-adv-x="1294" 
d="M799 565l-131 455q-12 41 -21 84q-8 43 -12 63l-2 23h-4q-6 -72 -35 -170l-129 -455h334zM1290 0h-325l-107 367h-450l-105 -367h-299l479 1479h328zM973 1638h-668v166h668v-166z" />
    <glyph glyph-name="amacron" unicode="&#x101;" horiz-adv-x="1056" 
d="M350 324q0 -176 193 -177q65 0 110 23v369q-155 -15 -229 -61t-74 -154zM653 739q0 78 -47 109t-144 31t-267 -64v199q4 0 23 7q130 48 306 48q412 0 412 -383v-627q-150 -80 -410 -79q-457 0 -456 331q0 197 176 281q157 75 407 98v49zM887 1221h-668v165h668v-165z" />
    <glyph glyph-name="Abreve" unicode="&#x102;" horiz-adv-x="1294" 
d="M799 565l-131 455q-12 41 -21 84q-8 43 -12 63l-2 23h-4q-6 -72 -35 -170l-129 -455h334zM1290 0h-325l-107 367h-450l-105 -367h-299l479 1479h328zM637 1573q-217 0 -280 196q-15 47 -15 95l107 28q39 -156 182 -156t196 156l105 -28q0 -109 -72 -200t-223 -91z" />
    <glyph glyph-name="abreve" unicode="&#x103;" horiz-adv-x="1056" 
d="M350 324q0 -176 193 -177q65 0 110 23v369q-155 -15 -229 -61t-74 -154zM653 739q0 78 -47 109t-144 31t-267 -64v199q4 0 23 7q130 48 306 48q412 0 412 -383v-627q-150 -80 -410 -79q-457 0 -456 331q0 197 176 281q157 75 407 98v49zM553 1155q-218 0 -280 197
q-15 47 -15 94l107 29q39 -156 182 -156t196 156l105 -29q0 -109 -72 -200t-223 -91z" />
    <glyph glyph-name="Aogonek" unicode="&#x104;" horiz-adv-x="1294" 
d="M799 565l-131 455q-12 41 -21 84q-8 43 -12 63l-2 23h-4q-6 -72 -35 -170l-129 -455h334zM844 -238q0 131 207 238h-86l-107 367h-450l-105 -367h-299l479 1479h328l479 -1479h-61q-182 -100 -182 -188q0 -54 51 -68t159 27l33 -93q-94 -51 -196 -63t-176 25t-74 122z
" />
    <glyph glyph-name="aogonek" unicode="&#x105;" horiz-adv-x="1056" 
d="M350 324q0 -176 193 -177q65 0 110 23v369q-155 -15 -229 -61t-74 -154zM526 -20q-457 0 -456 331q0 197 176 281q157 75 407 98v49q0 78 -47 109t-144 31t-267 -64v199q4 0 23 7q130 48 306 48q412 0 412 -383v-627q-110 -43 -174 -115t-64 -129q0 -55 52 -69t159 25
l33 -93q-94 -51 -196 -63t-177 25q-74 37 -73 122q0 113 153 224q-61 -6 -123 -6z" />
    <glyph glyph-name="Cacute" unicode="&#x106;" horiz-adv-x="1146" 
d="M719 -20q-335 0 -488 227q-141 208 -141 543t170 542t455 207q182 0 317 -63v-236q-30 29 -100 47t-139 19q-199 0 -290 -129t-91 -407t160 -420q89 -79 230 -79t230 64v-252q-141 -63 -313 -63zM1001 1864l-264 -287h-174l139 295q70 45 174 44t125 -52z" />
    <glyph glyph-name="cacute" unicode="&#x107;" horiz-adv-x="937" 
d="M590 -20q-229 0 -369 145q-139 145 -139 401t143 400t365 143q131 0 235 -41v-197q-70 33 -159 33q-121 0 -199 -91t-78 -245t81 -244q80 -90 190 -91q110 0 165 40v-210q-80 -43 -235 -43zM870 1446l-264 -287h-174l139 295q71 45 175 44t124 -52z" />
    <glyph glyph-name="Ccircumflex" unicode="&#x108;" horiz-adv-x="1146" 
d="M719 -20q-335 0 -488 227q-141 208 -141 543t170 542t455 207q182 0 317 -63v-236q-30 29 -100 47t-139 19q-199 0 -290 -129t-91 -407t160 -420q89 -79 230 -79t230 64v-252q-141 -63 -313 -63zM696 1892q53 0 90 -37l215 -217l-86 -79l-219 155l-219 -155l-86 79
l215 217q37 37 90 37z" />
    <glyph glyph-name="ccircumflex" unicode="&#x109;" horiz-adv-x="937" 
d="M590 -20q-229 0 -369 145q-139 145 -139 401t143 400t365 143q131 0 235 -41v-197q-70 33 -159 33q-121 0 -199 -91t-78 -245t81 -244q80 -90 190 -91q110 0 165 40v-210q-80 -43 -235 -43zM582 1475q53 0 90 -37l215 -217l-86 -80l-219 155l-220 -155l-86 80l216 217
q37 37 90 37z" />
    <glyph glyph-name="Cdot" unicode="&#x10a;" horiz-adv-x="1146" 
d="M719 -20q-335 0 -488 227q-141 208 -141 543t170 542t455 207q182 0 317 -63v-236q-30 29 -100 47t-139 19q-199 0 -290 -129t-91 -407t160 -420q89 -79 230 -79t230 64v-252q-141 -63 -313 -63zM696 1927q62 0 106 -44t44 -106q0 -61 -44 -105t-106 -44t-105 43
q-44 43 -44 105t44 107q44 44 105 44z" />
    <glyph glyph-name="cdot" unicode="&#x10b;" horiz-adv-x="937" 
d="M590 -20q-229 0 -369 145q-139 145 -139 401t143 400t365 143q131 0 235 -41v-197q-70 33 -159 33q-121 0 -199 -91t-78 -245t81 -244q80 -90 190 -91q110 0 165 40v-210q-80 -43 -235 -43zM731 1359q0 -61 -44 -105t-105 -44t-106 43q-44 43 -44 105t44 107
q44 44 106 44t105 -44q44 -44 44 -106z" />
    <glyph glyph-name="Ccaron" unicode="&#x10c;" horiz-adv-x="1146" 
d="M719 -20q-335 0 -488 227q-141 208 -141 543t170 542t455 207q182 0 317 -63v-236q-30 29 -100 47t-139 19q-199 0 -290 -129t-91 -407t160 -420q89 -79 230 -79t230 64v-252q-141 -63 -313 -63zM696 1565q-56 0 -94 39l-215 217l84 75l225 -159l226 159l84 -75
l-215 -217q-39 -39 -95 -39z" />
    <glyph glyph-name="ccaron" unicode="&#x10d;" horiz-adv-x="937" 
d="M590 -20q-229 0 -369 145q-139 145 -139 401t143 400t365 143q131 0 235 -41v-197q-70 33 -159 33q-121 0 -199 -91t-78 -245t81 -244q80 -90 190 -91q110 0 165 40v-210q-80 -43 -235 -43zM565 1147q-55 0 -94 39l-215 217l84 76l225 -160l226 160l83 -76l-215 -217
q-39 -39 -94 -39z" />
    <glyph glyph-name="Dcaron" unicode="&#x10e;" horiz-adv-x="1314" 
d="M903 739q0 528 -336 529h-116v-1057h116q172 1 254 121t82 407zM1225 732q0 -340 -164 -536t-506 -196h-422v1479h406q346 0 516 -204t170 -543zM582 1565q-55 0 -95 39l-215 217l84 75l226 -159l225 159l84 -75l-215 -217q-39 -39 -94 -39z" />
    <glyph glyph-name="dcaron" unicode="&#x10f;" horiz-adv-x="1118" 
d="M383 530q0 -358 221 -358q63 0 92 14v688q-37 12 -84 13q-229 1 -229 -357zM82 510q0 254 128 400t335 147q86 0 151 -19v441h301v-1422q-143 -77 -391 -77t-386 138t-138 392zM1382 1364q0 -158 -133 -279h-202q119 166 118 263q0 127 -114 213h239q40 -21 66 -75
t26 -122z" />
    <glyph glyph-name="Dcroat" unicode="&#x110;" horiz-adv-x="1345" 
d="M940 741q0 526 -336 527h-117v-377h183v-201h-183v-479h117q170 -1 253 121t83 409zM575 1479q347 0 517 -204t170 -543q0 -340 -164 -536t-506 -196h-422v690h-109v201h109v588h405z" />
    <glyph glyph-name="dmacron" unicode="&#x111;" horiz-adv-x="1118" 
d="M383 530q0 -358 221 -358q63 0 92 14v688q-37 12 -84 13q-229 1 -229 -357zM1155 1157h-158v-1100q-143 -77 -391 -77t-386 138t-138 392t128 400t335 147q86 0 151 -19v119h-301v182h301v140h301v-140h158v-182z" />
    <glyph glyph-name="Emacron" unicode="&#x112;" horiz-adv-x="985" 
d="M901 0h-768v1479h768v-236h-450v-375h397v-229h-397v-403h450v-236zM860 1638h-667v166h667v-166z" />
    <glyph glyph-name="emacron" unicode="&#x113;" horiz-adv-x="1091" 
d="M729 606q0 137 -44 211t-128 74t-129 -65t-55 -220h356zM381 455q0 -111 61 -190t203 -79t311 72v-215q-166 -63 -348 -63q-252 0 -389 147t-137 397t135 398t356 147q221 0 333 -171t102 -443h-627zM907 1221h-667v165h667v-165z" />
    <glyph glyph-name="Ebreve" unicode="&#x114;" horiz-adv-x="985" 
d="M901 0h-768v1479h768v-236h-450v-375h397v-229h-397v-403h450v-236zM526 1573q-80 0 -141 29q-61 28 -92 74q-60 88 -62 188l107 28q39 -156 182 -156t197 156l104 -28q1 -109 -71 -200t-224 -91z" />
    <glyph glyph-name="ebreve" unicode="&#x115;" horiz-adv-x="1091" 
d="M729 606q0 137 -44 211t-128 74t-129 -65t-55 -220h356zM381 455q0 -111 61 -190t203 -79t311 72v-215q-166 -63 -348 -63q-252 0 -389 147t-137 397t135 398t356 147q221 0 333 -171t102 -443h-627zM573 1155q-217 0 -279 197q-15 47 -15 94l106 29q39 -156 182 -156
t197 156l104 -29q0 -109 -72 -200t-223 -91z" />
    <glyph glyph-name="Edot" unicode="&#x116;" horiz-adv-x="985" 
d="M901 0h-768v1479h768v-236h-450v-375h397v-229h-397v-403h450v-236zM526 1927q62 0 106 -44t44 -106q0 -61 -44 -105t-106 -44t-105 43q-44 43 -44 105t44 107q44 44 105 44z" />
    <glyph glyph-name="edot" unicode="&#x117;" horiz-adv-x="1091" 
d="M729 606q0 137 -44 211t-128 74t-129 -65t-55 -220h356zM381 455q0 -111 61 -190t203 -79t311 72v-215q-166 -63 -348 -63q-252 0 -389 147t-137 397t135 398t356 147q221 0 333 -171t102 -443h-627zM573 1509q61 0 105 -44t45 -106q0 -61 -44 -105q-43 -44 -105 -44
t-106 43t-44 105t44 107q44 44 105 44z" />
    <glyph glyph-name="Eogonek" unicode="&#x118;" horiz-adv-x="985" 
d="M133 0v1479h768v-236h-450v-375h397v-229h-397v-403h450v-236h-61q-182 -100 -183 -188q-1 -54 51 -68t160 27l33 -93q-94 -51 -196 -63t-177 25q-74 37 -73 122q0 131 207 238h-529z" />
    <glyph glyph-name="eogonek" unicode="&#x119;" horiz-adv-x="1091" 
d="M729 606q0 137 -44 211t-128 74t-129 -65t-55 -220h356zM381 455q0 -111 61 -190t203 -79t311 72v-215q-80 -23 -166 -86t-85 -145q0 -54 51 -68t159 27l33 -93q-94 -51 -196 -63t-177 25q-74 37 -73 122q0 119 157 220q-14 -2 -51 -2q-252 0 -389 147t-137 397t135 398
t356 147q221 0 333 -171t102 -443h-627z" />
    <glyph glyph-name="Ecaron" unicode="&#x11a;" horiz-adv-x="985" 
d="M901 0h-768v1479h768v-236h-450v-375h397v-229h-397v-403h450v-236zM526 1565q-56 0 -94 39l-215 217l84 75l225 -159l226 159l84 -75l-215 -217q-39 -39 -95 -39z" />
    <glyph glyph-name="ecaron" unicode="&#x11b;" horiz-adv-x="1091" 
d="M729 606q0 137 -44 211t-128 74t-129 -65t-55 -220h356zM381 455q0 -111 61 -190t203 -79t311 72v-215q-166 -63 -348 -63q-252 0 -389 147t-137 397t135 398t356 147q221 0 333 -171t102 -443h-627zM574 1147q-56 0 -95 39l-215 217l84 76l225 -160l226 160l84 -76
l-215 -217q-38 -39 -94 -39z" />
    <glyph glyph-name="Gcircumflex" unicode="&#x11c;" horiz-adv-x="1232" 
d="M90 738q0 356 173 558t468 203q184 0 328 -61v-246q-147 74 -287 74q-360 0 -360 -525q0 -256 81 -392t212 -136q41 0 114 18v609h293v-777q-139 -84 -389 -83q-311 0 -472 200q-161 202 -161 558zM729 1892q53 0 90 -37l215 -217l-86 -79l-219 155l-219 -155l-86 79
l215 217q37 37 90 37z" />
    <glyph glyph-name="gcircumflex" unicode="&#x11d;" horiz-adv-x="1122" 
d="M723 700q0 186 -180 187q-181 -1 -181 -187t183 -186q90 0 134 51t44 135zM408 266q0 -66 98 -65h160q182 0 284 -89t103 -221q0 -166 -129 -264t-359 -98q-231 0 -359 73t-128 199q0 43 20 111h267q-23 -37 -23 -92t67 -84t165 -29t155 44q57 43 57 109t-38 88
q-39 22 -132 21h-143q-121 0 -213 50t-92 164t104 208q-174 98 -174 309q0 168 111 268t334 101q84 0 178 -22h348v-160h-127q47 -84 47 -187q-1 -160 -109 -264t-335 -104l-94 2q-43 -31 -43 -68zM553 1475q53 0 90 -37l215 -217l-86 -80l-219 155l-219 -155l-86 80
l215 217q37 37 90 37z" />
    <glyph glyph-name="Gbreve" unicode="&#x11e;" horiz-adv-x="1232" 
d="M90 738q0 356 173 558t468 203q184 0 328 -61v-246q-147 74 -287 74q-360 0 -360 -525q0 -256 81 -392t212 -136q41 0 114 18v609h293v-777q-139 -84 -389 -83q-311 0 -472 200q-161 202 -161 558zM729 1573q-80 0 -141 29q-61 28 -92 74q-60 88 -62 188l107 28
q39 -156 182 -156t197 156l104 -28q0 -109 -72 -200t-223 -91z" />
    <glyph glyph-name="gbreve" unicode="&#x11f;" horiz-adv-x="1122" 
d="M723 700q0 186 -180 187q-181 -1 -181 -187t183 -186q90 0 134 51t44 135zM408 266q0 -66 98 -65h160q182 0 284 -89t103 -221q0 -166 -129 -264t-359 -98q-231 0 -359 73t-128 199q0 43 20 111h267q-23 -37 -23 -92t67 -84t165 -29t155 44q57 43 57 109t-38 88
q-39 22 -132 21h-143q-121 0 -213 50t-92 164t104 208q-174 98 -174 309q0 168 111 268t334 101q84 0 178 -22h348v-160h-127q47 -84 47 -187q-1 -160 -109 -264t-335 -104l-94 2q-43 -31 -43 -68zM573 1155q-217 0 -279 197q-15 47 -15 94l106 29q39 -156 182 -156t197 156
l104 -29q0 -109 -72 -200t-223 -91z" />
    <glyph glyph-name="Gdot" unicode="&#x120;" horiz-adv-x="1232" 
d="M90 738q0 356 173 558t468 203q184 0 328 -61v-246q-147 74 -287 74q-360 0 -360 -525q0 -256 81 -392t212 -136q41 0 114 18v609h293v-777q-139 -84 -389 -83q-311 0 -472 200q-161 202 -161 558zM729 1927q61 0 105 -44t45 -106q0 -61 -44 -105q-43 -44 -105 -44
t-106 43t-44 105t44 107q44 44 105 44z" />
    <glyph glyph-name="gdot" unicode="&#x121;" horiz-adv-x="1122" 
d="M723 700q0 186 -180 187q-181 -1 -181 -187t183 -186q90 0 134 51t44 135zM408 266q0 -66 98 -65h160q182 0 284 -89t103 -221q0 -166 -129 -264t-359 -98q-231 0 -359 73t-128 199q0 43 20 111h267q-23 -37 -23 -92t67 -84t165 -29t155 44q57 43 57 109t-38 88
q-39 22 -132 21h-143q-121 0 -213 50t-92 164t104 208q-174 98 -174 309q0 168 111 268t334 101q84 0 178 -22h348v-160h-127q47 -84 47 -187q-1 -160 -109 -264t-335 -104l-94 2q-43 -31 -43 -68zM702 1359q0 -61 -44 -105t-105 -44t-106 43q-44 43 -44 105t44 107
q43 44 105 44t106 -44t44 -106z" />
    <glyph glyph-name="Gcommaaccent" unicode="&#x122;" horiz-adv-x="1232" 
d="M889 -289q0 -119 -109 -195t-256 -81l-53 121q86 10 143 52q58 42 58 120t-135 180h249q43 -28 73 -82t30 -115zM90 738q0 356 173 558t468 203q184 0 328 -61v-246q-147 74 -287 74q-360 0 -360 -525q0 -256 81 -392t212 -136q41 0 114 18v609h293v-777
q-139 -84 -389 -83q-311 0 -472 200q-161 202 -161 558z" />
    <glyph glyph-name="gcommaaccent" unicode="&#x123;" horiz-adv-x="1122" 
d="M723 700q0 186 -180 187q-181 -1 -181 -187t183 -186q90 0 134 51t44 135zM408 266q0 -66 98 -65h160q182 0 284 -89t103 -221q0 -166 -129 -264t-359 -98q-231 0 -359 73t-128 199q0 43 20 111h267q-23 -37 -23 -92t67 -84t165 -29t155 44q57 43 57 109t-38 88
q-39 22 -132 21h-143q-121 0 -213 50t-92 164t104 208q-174 98 -174 309q0 168 111 268t334 101q84 0 178 -22h348v-160h-127q47 -84 47 -187q-1 -160 -109 -264t-335 -104l-94 2q-43 -31 -43 -68zM598 1340q0 -78 133 -179h-248q-43 27 -73 80q-31 53 -31 117
q1 120 109 194t257 82l52 -121q-199 -28 -199 -173z" />
    <glyph glyph-name="Hcircumflex" unicode="&#x124;" horiz-adv-x="1323" 
d="M1190 0h-318v641h-421v-641h-318v1479h318v-613h421v613h318v-1479zM662 1892q54 0 90 -37l215 -217l-86 -79l-219 155l-220 -155l-86 79l215 217q37 37 91 37z" />
    <glyph glyph-name="hcircumflex" unicode="&#x125;" horiz-adv-x="1130" 
d="M1010 0h-301v727q0 145 -156 145q-76 0 -129 -26v-846h-303v1479h303v-469q111 49 225 49q185 0 273 -91t88 -235v-733zM549 1892q53 0 90 -37l215 -217l-86 -79l-219 155l-219 -155l-86 79l215 217q37 37 90 37z" />
    <glyph glyph-name="Hbar" unicode="&#x126;" horiz-adv-x="1323" 
d="M872 866v142h-421v-142h421zM1307 1008h-117v-1008h-318v641h-421v-641h-318v1008h-117v200h117v271h318v-271h421v271h318v-271h117v-200z" />
    <glyph glyph-name="hbar" unicode="&#x127;" horiz-adv-x="1130" 
d="M1010 0h-301v727q0 145 -156 145q-76 0 -129 -26v-846h-303v1157h-158v182h158v140h303v-140h299v-182h-299v-147q111 49 225 49q185 0 273 -91t88 -235v-733z" />
    <glyph glyph-name="Itilde" unicode="&#x128;" horiz-adv-x="591" 
d="M455 0h-318v1479h318v-1479zM161 1673q-53 0 -111 -43t-75 -82v181q74 102 177 102q59 0 144 -42t140 -42t113 43q57 43 74 84v-180q-74 -104 -177 -105q-57 0 -145 42t-140 42z" />
    <glyph glyph-name="itilde" unicode="&#x129;" 
d="M430 0h-303v1047h303v-1047zM145 1255q-53 0 -111 -43t-75 -82v181q74 102 176 102q59 0 145 -42t140 -42q55 0 112 43t74 84v-180q-74 -104 -176 -105q-57 0 -145 42t-140 42z" />
    <glyph glyph-name="Imacron" unicode="&#x12a;" horiz-adv-x="591" 
d="M455 0h-318v1479h318v-1479zM631 1638h-668v166h668v-166z" />
    <glyph glyph-name="imacron" unicode="&#x12b;" 
d="M430 0h-303v1047h303v-1047zM612 1221h-667v165h667v-165z" />
    <glyph glyph-name="Ibreve" unicode="&#x12c;" horiz-adv-x="591" 
d="M455 0h-318v1479h318v-1479zM295 1573q-217 0 -280 196q-15 47 -15 95l106 28q38 -156 182 -156t197 156l105 -28q0 -109 -72 -200t-223 -91z" />
    <glyph glyph-name="ibreve" unicode="&#x12d;" 
d="M430 0h-303v1047h303v-1047zM285 1155q-218 0 -280 197q-15 47 -15 94l106 29q38 -156 182 -156t197 156l105 -29q0 -109 -72 -200t-223 -91z" />
    <glyph glyph-name="Iogonek" unicode="&#x12e;" horiz-adv-x="591" 
d="M137 0v1479h318v-1479q-184 -96 -185 -188q0 -54 52 -68t159 27l33 -93q-94 -51 -196 -63t-177 25q-74 37 -73 122q0 131 206 238h-137z" />
    <glyph glyph-name="iogonek" unicode="&#x12f;" 
d="M43 -238q0 131 207 238h-123v1047h303v-1047q-184 -96 -184 -188q0 -54 51 -68t160 27l32 -93q-94 -51 -196 -63t-176 25t-74 122zM444 1350q0 -68 -49 -116t-117 -48t-116 48q-49 48 -49 116t49 116t117 50q69 0 117 -49t48 -117z" />
    <glyph glyph-name="Idot" unicode="&#x130;" horiz-adv-x="591" 
d="M455 0h-318v1479h318v-1479zM444 1777q0 -61 -44 -105t-105 -44t-106 43q-44 43 -44 105t44 107q43 44 105 44t106 -44t44 -106z" />
    <glyph glyph-name="dotlessi" unicode="&#x131;" 
d="M430 0h-303v1047h303v-1047z" />
    <glyph glyph-name="IJ" unicode="&#x132;" horiz-adv-x="1183" 
d="M455 0h-318v1479h318v-1479zM1047 88q1 -254 -143 -387t-388 -145v229q92 16 153 89q60 73 60 194v1411h318v-1391z" />
    <glyph glyph-name="ij" unicode="&#x133;" horiz-adv-x="1114" 
d="M430 0h-303v1047h303v-1047zM989 111q0 -249 -134 -397t-345 -158v204q90 29 133 98t43 218v971h303v-936zM444 1350q0 -68 -49 -116t-117 -48t-116 48q-49 48 -49 116t49 116t117 50q69 0 117 -49t48 -117zM1004 1350q0 -68 -50 -116t-116 -48q-68 0 -117 48t-49 116
t49 116t117 50q68 0 117 -49t49 -117z" />
    <glyph glyph-name="Jcircumflex" unicode="&#x134;" horiz-adv-x="591" 
d="M455 88q1 -254 -143 -387t-388 -145v229q92 16 153 89q60 73 60 194v1411h318v-1391zM295 1892q53 0 90 -37l215 -217l-86 -79l-219 155l-219 -155l-86 79l215 217q37 37 90 37z" />
    <glyph glyph-name="jcircumflex" unicode="&#x135;" 
d="M432 111q0 -249 -134 -397t-345 -158v204q90 29 133 98t43 218v971h303v-936zM278 1475q54 0 91 -37l215 -217l-86 -80l-219 155l-220 -155l-86 80l213 217q38 37 92 37z" />
    <glyph glyph-name="Kcommaaccent" unicode="&#x136;" horiz-adv-x="1216" 
d="M848 -289q0 -119 -109 -195t-256 -81l-53 121q86 10 143 52t57 120t-134 180h249q43 -28 73 -82t30 -115zM451 733v-733h-318v1479h318v-670h4l374 670h340l-419 -682l446 -797h-373l-368 733h-4z" />
    <glyph glyph-name="kcommaaccent" unicode="&#x137;" horiz-adv-x="1089" 
d="M766 -289q0 -119 -109 -195t-256 -81l-53 121q86 10 144 52q57 42 57 120t-135 180h250q42 -28 72 -82t30 -115zM428 528v-528h-301v1479h301v-895h4l295 463h303l-328 -469l373 -578h-344l-299 528h-4z" />
    <glyph glyph-name="kgreenlantic" unicode="&#x138;" horiz-adv-x="1089" 
d="M428 528v-528h-301v1047h301v-463h4l295 463h303l-328 -469l373 -578h-344l-299 528h-4z" />
    <glyph glyph-name="Lacute" unicode="&#x139;" horiz-adv-x="907" 
d="M842 0h-709v1479h318v-1246h391v-233zM625 1864l-265 -287h-174l140 295q70 45 174 44t125 -52z" />
    <glyph glyph-name="lacute" unicode="&#x13a;" 
d="M430 0h-303v1479h303v-1479zM604 1864l-264 -287h-174l139 295q71 45 175 44t124 -52z" />
    <glyph glyph-name="Lcommaaccent" unicode="&#x13b;" horiz-adv-x="907" 
d="M684 -289q0 -119 -109 -195t-256 -81l-53 121q86 10 144 52q57 42 57 120t-135 180h250q42 -28 72 -82t30 -115zM842 0h-709v1479h318v-1246h391v-233z" />
    <glyph glyph-name="lcommaaccent" unicode="&#x13c;" 
d="M459 -289q0 -119 -109 -195t-256 -81l-53 121q86 10 143 52q58 42 58 120t-136 180h250q43 -28 73 -82t30 -115zM430 0h-303v1479h303v-1479z" />
    <glyph glyph-name="Lcaron" unicode="&#x13d;" horiz-adv-x="907" 
d="M842 0h-709v1479h318v-1246h391v-233zM868 1364q0 -133 -168 -277h-202q6 8 56 69q95 118 95 194q0 106 -160 213h252q47 -29 87 -83t40 -116z" />
    <glyph glyph-name="lcaron" unicode="&#x13e;" 
d="M430 0h-303v1479h303v-1479zM809 1364q0 -158 -133 -279h-203q119 166 119 263q0 127 -115 213h240q39 -21 65 -75t27 -122z" />
    <glyph glyph-name="Ldot" unicode="&#x13f;" horiz-adv-x="907" 
d="M842 0h-709v1479h318v-1246h391v-233zM518 785q0 63 44 107t106 44t105 -44q44 -44 44 -107q0 -62 -44 -105t-105 -43t-106 43q-44 43 -44 105z" />
    <glyph glyph-name="ldot" unicode="&#x140;" 
d="M430 0h-303v1479h303v-1479zM797 744q0 -62 -44 -105q-43 -43 -105 -43t-106 43t-44 105t44 106t105 45q61 0 106 -44q44 -45 44 -107z" />
    <glyph glyph-name="Lslash" unicode="&#x141;" horiz-adv-x="935" 
d="M870 0h-708v684l-113 -53v188l113 51v609h317v-461l166 72v-187l-166 -74v-596h391v-233z" />
    <glyph glyph-name="lslash" unicode="&#x142;" horiz-adv-x="663" 
d="M483 0h-303v635l-123 -64v187l123 61v660h303v-500l142 70v-187l-142 -69v-793z" />
    <glyph glyph-name="Nacute" unicode="&#x143;" horiz-adv-x="1392" 
d="M1260 0h-267l-491 829q-47 82 -68 136l-10 22h-4q8 -82 8 -164v-823h-295v1479h307l453 -760l76 -141h4q-8 70 -8 147v754h295v-1479zM1006 1864l-265 -287h-174l140 295q71 45 175 44t124 -52z" />
    <glyph glyph-name="nacute" unicode="&#x144;" horiz-adv-x="1130" 
d="M1010 0h-303v733q0 145 -156 146q-70 0 -127 -21v-858h-303v989q176 80 425 80q248 0 356 -90t108 -244v-735zM870 1446l-264 -287h-174l139 295q71 45 175 44t124 -52z" />
    <glyph glyph-name="Ncommaaccent" unicode="&#x145;" horiz-adv-x="1392" 
d="M889 -289q0 -119 -109 -195t-256 -81l-53 121q86 10 143 52q58 42 58 120t-135 180h249q43 -28 73 -82t30 -115zM1260 0h-267l-491 829q-47 82 -68 136l-10 22h-4q8 -82 8 -164v-823h-295v1479h307l453 -760l76 -141h4q-8 70 -8 147v754h295v-1479z" />
    <glyph glyph-name="ncommaaccent" unicode="&#x146;" horiz-adv-x="1130" 
d="M745 -289q-1 -119 -109 -195t-255 -81l-53 121q86 10 143 52t57 120t-135 180h250q43 -28 73 -82t29 -115zM1010 0h-303v733q0 145 -156 146q-70 0 -127 -21v-858h-303v989q176 80 425 80q248 0 356 -90t108 -244v-735z" />
    <glyph glyph-name="Ncaron" unicode="&#x147;" horiz-adv-x="1392" 
d="M1260 0h-267l-491 829q-47 82 -68 136l-10 22h-4q8 -82 8 -164v-823h-295v1479h307l453 -760l76 -141h4q-8 70 -8 147v754h295v-1479zM700 1565q-56 0 -94 39l-215 217l84 75l225 -159l226 159l84 -75l-215 -217q-39 -39 -95 -39z" />
    <glyph glyph-name="ncaron" unicode="&#x148;" horiz-adv-x="1130" 
d="M1010 0h-303v733q0 145 -156 146q-70 0 -127 -21v-858h-303v989q176 80 425 80q248 0 356 -90t108 -244v-735zM565 1147q-55 0 -94 39l-215 217l84 76l225 -160l226 160l83 -76l-215 -217q-39 -39 -94 -39z" />
    <glyph glyph-name="napostrophe" unicode="&#x149;" horiz-adv-x="1130" 
d="M1010 0h-303v733q0 145 -156 146q-70 0 -127 -21v-858h-303v989q176 80 425 80q248 0 356 -90t108 -244v-735zM461 1384q0 -158 -133 -278h-203q119 166 119 262q0 127 -115 213h240q39 -21 65 -75t27 -122z" />
    <glyph glyph-name="Eng" unicode="&#x14a;" horiz-adv-x="1392" 
d="M1260 20q0 -299 -163 -401q-77 -47 -151 -65t-170 -21v234q125 10 171 61t46 172l-491 829q-47 82 -68 136l-10 22h-4q8 -82 8 -164v-823h-295v1479h307l453 -760l76 -141h4q-8 70 -8 147v754h295v-1459z" />
    <glyph glyph-name="eng" unicode="&#x14b;" horiz-adv-x="1130" 
d="M1010 25q0 -242 -112 -363t-372 -129v234q123 10 152 59t29 199v708q0 145 -156 146q-70 0 -127 -21v-858h-303v989q176 80 425 80q248 0 356 -90t108 -244v-710z" />
    <glyph glyph-name="Omacron" unicode="&#x14c;" horiz-adv-x="1335" 
d="M924 753q0 529 -256 529t-256 -529t256 -530q256 1 256 530zM1245 739q0 -219 -56 -385q-55 -166 -189 -270t-332 -104t-332 104q-133 104 -190 270q-56 166 -56 385q0 336 142 548t436 212t435 -212q142 -212 142 -548zM1014 1638h-668v166h668v-166z" />
    <glyph glyph-name="omacron" unicode="&#x14d;" horiz-adv-x="1085" 
d="M705 524q0 346 -162 346q-92 0 -127 -93t-35 -253q0 -346 162 -346t162 346zM1004 524q0 -242 -120 -394t-341 -150q-221 0 -341 152t-120 392q0 242 120 394t340 152t341 -152t121 -394zM887 1221h-668v165h668v-165z" />
    <glyph glyph-name="Obreve" unicode="&#x14e;" horiz-adv-x="1335" 
d="M924 753q0 529 -256 529t-256 -529t256 -530q256 1 256 530zM1245 739q0 -219 -56 -385q-55 -166 -189 -270t-332 -104t-332 104q-133 104 -190 270q-56 166 -56 385q0 336 142 548t436 212t435 -212q142 -212 142 -548zM680 1573q-217 0 -280 196q-15 47 -15 95l107 28
q39 -156 182 -156t196 156l105 -28q0 -109 -72 -200t-223 -91z" />
    <glyph glyph-name="obreve" unicode="&#x14f;" horiz-adv-x="1085" 
d="M705 524q0 346 -162 346q-92 0 -127 -93t-35 -253q0 -346 162 -346t162 346zM1004 524q0 -242 -120 -394t-341 -150q-221 0 -341 152t-120 392q0 242 120 394t340 152t341 -152t121 -394zM553 1155q-218 0 -280 197q-15 47 -15 94l107 29q39 -156 182 -156t196 156
l105 -29q0 -109 -72 -200t-223 -91z" />
    <glyph glyph-name="Ohungarumlaut" unicode="&#x150;" horiz-adv-x="1335" 
d="M924 753q0 529 -256 529t-256 -529t256 -530q256 1 256 530zM1245 739q0 -219 -56 -385q-55 -166 -189 -270t-332 -104t-332 104q-133 104 -190 270q-56 166 -56 385q0 336 142 548t436 212t435 -212q142 -212 142 -548zM738 1888q73 0 79 -47l-239 -264h-113l143 262
q57 49 130 49zM1033 1888q73 0 83 -47l-242 -264h-110l143 262q53 49 126 49z" />
    <glyph glyph-name="ohungarumlaut" unicode="&#x151;" horiz-adv-x="1085" 
d="M705 524q0 346 -162 346q-92 0 -127 -93t-35 -253q0 -346 162 -346t162 346zM1004 524q0 -242 -120 -394t-341 -150q-221 0 -341 152t-120 392q0 242 120 394t340 152t341 -152t121 -394zM611 1470q73 0 79 -47l-239 -264h-113l143 262q57 49 130 49zM906 1470
q73 0 83 -47l-241 -264h-111l143 262q53 49 126 49z" />
    <glyph glyph-name="OE" unicode="&#x152;" horiz-adv-x="1677" 
d="M696 1280q-284 0 -284 -534t284 -533q93 0 138 10v1043q-51 14 -138 14zM1597 0h-714q-70 -20 -176 -20q-305 0 -461 202t-156 557q0 356 155 558t460 202q88 0 180 -20h712v-236h-450v-375h397v-229h-397v-403h450v-236z" />
    <glyph glyph-name="oe" unicode="&#x153;" horiz-adv-x="1675" 
d="M700 523q0 259 -75 321q-35 29 -88 28q-164 0 -164 -348t164 -348q104 0 137 112q26 88 26 235zM1311 606q0 137 -44 211t-129 74q-85 1 -130 -63t-58 -222h361zM958 455q0 -111 62 -190t208 -79q145 0 308 70v-213q-170 -63 -358 -63q-238 0 -334 178
q-104 -178 -314 -178t-329 150t-119 394q0 242 120 394t326 152t312 -165q47 78 130 121t181 43q201 0 326 -151q124 -152 114 -463h-633z" />
    <glyph glyph-name="Racute" unicode="&#x154;" horiz-adv-x="1234" 
d="M578 829q119 1 176 53t57 185t-58 185t-175 53h-129v-476h129zM449 645v-645h-316v1479h512q225 0 351 -113t126 -297q0 -135 -76 -231t-210 -138l358 -700h-344l-320 645h-81zM920 1864l-265 -287h-174l140 295q71 45 175 44t124 -52z" />
    <glyph glyph-name="racute" unicode="&#x155;" horiz-adv-x="718" 
d="M424 0h-303v987q203 84 416 84q71 0 145 -12l-51 -197q-123 27 -207 -8v-854zM727 1446l-264 -287h-174l139 295q70 45 174 44t125 -52z" />
    <glyph glyph-name="Rcommaaccent" unicode="&#x156;" horiz-adv-x="1234" 
d="M578 829q119 1 176 53t57 185t-58 185t-175 53h-129v-476h129zM848 -289q0 -119 -109 -195t-256 -81l-53 121q86 10 143 52t57 120t-134 180h249q43 -28 73 -82t30 -115zM449 645v-645h-316v1479h512q225 0 351 -113t126 -297q0 -135 -76 -231t-210 -138l358 -700h-344
l-320 645h-81z" />
    <glyph glyph-name="rcommaaccent" unicode="&#x157;" horiz-adv-x="718" 
d="M541 -289q0 -119 -109 -195t-256 -81l-53 121q86 10 143 52q58 42 58 120t-136 180h250q43 -28 73 -82t30 -115zM424 0h-303v987q203 84 416 84q71 0 145 -12l-51 -197q-123 27 -207 -8v-854z" />
    <glyph glyph-name="Rcaron" unicode="&#x158;" horiz-adv-x="1234" 
d="M578 829q119 1 176 53t57 185t-58 185t-175 53h-129v-476h129zM449 645v-645h-316v1479h512q225 0 351 -113t126 -297q0 -135 -76 -231t-210 -138l358 -700h-344l-320 645h-81zM594 1565q-55 0 -94 39l-215 217l84 75l225 -159l225 159l84 -75l-215 -217q-39 -39 -94 -39
z" />
    <glyph glyph-name="rcaron" unicode="&#x159;" horiz-adv-x="718" 
d="M424 0h-303v987q203 84 416 84q71 0 145 -12l-51 -197q-123 27 -207 -8v-854zM402 1147q-56 0 -95 39l-215 217l84 76l225 -160l226 160l84 -76l-215 -217q-38 -39 -94 -39z" />
    <glyph glyph-name="Sacute" unicode="&#x15a;" horiz-adv-x="1089" 
d="M999 446q0 -206 -134 -336t-361 -130t-389 77v277q178 -111 336 -111q113 1 170 55t57 130t-64 126t-196 103q-311 127 -312 407q0 188 127 322t353 133q82 0 152 -13q70 -14 90 -22q19 -8 81 -34v-242q-141 86 -255 86q-226 0 -226 -174q0 -89 68 -136q50 -37 159 -85
q201 -86 273 -190t71 -243zM858 1864l-264 -287h-174l139 295q71 45 175 44t124 -52z" />
    <glyph glyph-name="sacute" unicode="&#x15b;" horiz-adv-x="839" 
d="M762 313q0 -141 -109 -237t-288 -96q-121 0 -267 53v235q102 -80 226 -80q57 0 93 32t36 83t-30 85t-104 63q-236 92 -235 292q0 137 97 231t253 95q156 0 266 -59v-222q-106 84 -200 84q-55 0 -87 -30t-32 -78q0 -88 138 -148q139 -60 191 -131q52 -72 52 -172z
M743 1446l-264 -287h-174l139 295q70 45 174 44t125 -52z" />
    <glyph glyph-name="Scircumflex" unicode="&#x15c;" horiz-adv-x="1089" 
d="M999 446q0 -206 -134 -336t-361 -130t-389 77v277q178 -111 336 -111q113 1 170 55t57 130t-64 126t-196 103q-311 127 -312 407q0 188 127 322t353 133q82 0 152 -13q70 -14 90 -22q19 -8 81 -34v-242q-141 86 -255 86q-226 0 -226 -174q0 -89 68 -136q50 -37 159 -85
q201 -86 273 -190t71 -243zM573 1892q53 0 91 -37l215 -217l-86 -79l-220 155l-219 -155l-86 79l215 217q37 37 90 37z" />
    <glyph glyph-name="scircumflex" unicode="&#x15d;" horiz-adv-x="839" 
d="M762 313q0 -141 -109 -237t-288 -96q-121 0 -267 53v235q102 -80 226 -80q57 0 93 32t36 83t-30 85t-104 63q-236 92 -235 292q0 137 97 231t253 95q156 0 266 -59v-222q-106 84 -200 84q-55 0 -87 -30t-32 -78q0 -88 138 -148q139 -60 191 -131q52 -72 52 -172z
M442 1475q53 0 90 -37l216 -217l-86 -80l-220 155l-219 -155l-86 80l215 217q37 37 90 37z" />
    <glyph glyph-name="Scedilla" unicode="&#x15e;" horiz-adv-x="1089" 
d="M797 -254q0 -104 -154 -147t-420 -19l56 101q137 -14 225 5t88 57t-54 49t-190 3l53 88q215 18 306 -17q90 -36 90 -120zM999 446q0 -206 -134 -336t-361 -130t-389 77v277q178 -111 336 -111q113 1 170 55t57 130t-64 126t-196 103q-311 127 -312 407q0 188 127 322
t353 133q82 0 152 -13q70 -14 90 -22q19 -8 81 -34v-242q-141 86 -255 86q-226 0 -226 -174q0 -89 68 -136q50 -37 159 -85q201 -86 273 -190t71 -243z" />
    <glyph glyph-name="scedilla" unicode="&#x15f;" horiz-adv-x="839" 
d="M682 -254q0 -104 -154 -147t-419 -19l55 101q137 -14 225 5t88 57t-54 49t-190 3l54 88q215 19 305 -17t90 -120zM762 313q0 -141 -109 -237t-288 -96q-121 0 -267 53v235q102 -80 226 -80q57 0 93 32t36 83t-30 85t-104 63q-236 92 -235 292q0 137 97 231t253 95
q156 0 266 -59v-222q-106 84 -200 84q-55 0 -87 -30t-32 -78q0 -88 138 -148q139 -60 191 -131q52 -72 52 -172z" />
    <glyph glyph-name="Scaron" unicode="&#x160;" horiz-adv-x="1089" 
d="M999 446q0 -206 -134 -336t-361 -130t-389 77v277q178 -111 336 -111q113 1 170 55t57 130t-64 126t-196 103q-311 127 -312 407q0 188 127 322t353 133q82 0 152 -13q70 -14 90 -22q19 -8 81 -34v-242q-141 86 -255 86q-226 0 -226 -174q0 -89 68 -136q50 -37 159 -85
q201 -86 273 -190t71 -243zM562 1550q-56 0 -93 39l-215 217l84 76l225 -158l223 158l86 -76l-215 -217q-39 -39 -95 -39z" />
    <glyph glyph-name="scaron" unicode="&#x161;" horiz-adv-x="839" 
d="M762 313q0 -141 -109 -237t-288 -96q-121 0 -267 53v235q102 -80 226 -80q57 0 93 32t36 83t-30 85t-104 63q-236 92 -235 292q0 137 97 231t253 95q156 0 266 -59v-222q-106 84 -200 84q-55 0 -87 -30t-32 -78q0 -88 138 -148q139 -60 191 -131q52 -72 52 -172z
M423 1149q-56 0 -93 39l-215 217l84 76l225 -160l223 160l86 -76l-215 -217q-39 -39 -95 -39z" />
    <glyph glyph-name="Tcedilla" unicode="&#x162;" horiz-adv-x="1028" 
d="M725 -289q0 -119 -109 -195t-256 -81l-53 121q86 10 144 52q57 42 57 120t-135 180h250q43 -28 73 -82t29 -115zM965 1243h-291v-1243h-318v1243h-293v236h902v-236z" />
    <glyph glyph-name="tcedilla" unicode="&#x163;" horiz-adv-x="712" 
d="M602 -289q0 -119 -108 -195t-256 -81l-54 121q86 10 144 52q57 42 57 120t-135 180h250q42 -28 72 -82t30 -115zM180 281v569h-114v197h114v223l293 80v-303h166v-197h-166v-547q0 -121 100 -121q29 0 70 11v-185q-57 -29 -149 -28q-156 0 -235 86t-79 215z" />
    <glyph glyph-name="Tcaron" unicode="&#x164;" horiz-adv-x="1028" 
d="M965 1243h-291v-1243h-318v1243h-293v236h902v-236zM516 1565q-55 0 -94 39l-215 217l84 75l225 -159l225 159l84 -75l-215 -217q-39 -39 -94 -39z" />
    <glyph glyph-name="tcaron" unicode="&#x165;" horiz-adv-x="712" 
d="M180 281v569h-114v197h114v223l293 80v-303h166v-197h-166v-547q0 -121 100 -121q29 0 70 11v-185q-57 -29 -149 -28q-156 0 -235 86t-79 215zM932 1364q0 -158 -133 -279h-203q119 166 119 263q0 127 -115 213h240q40 -21 66 -75t26 -122z" />
    <glyph glyph-name="Tbar" unicode="&#x166;" horiz-adv-x="1028" 
d="M965 1243h-291v-452h215v-201h-215v-590h-318v590h-215v201h215v452h-293v236h902v-236z" />
    <glyph glyph-name="tbar" unicode="&#x167;" horiz-adv-x="712" 
d="M180 281v215h-114v182h114v172h-114v197h114v223l293 80v-303h166v-197h-166v-172h145v-182h-145v-193q0 -121 100 -121q29 0 70 11v-185q-57 -29 -149 -28q-156 0 -235 86t-79 215z" />
    <glyph glyph-name="Utilde" unicode="&#x168;" horiz-adv-x="1284" 
d="M1151 438q0 -209 -142 -334q-141 -124 -365 -124t-368 124q-143 125 -143 334v1041h318v-1047q0 -100 57 -154t145 -54q87 0 143 54t56 158v1043h299v-1041zM536 1673q-52 0 -110 -43t-76 -82v181q74 102 176 102q58 0 144 -42t141 -42t113 43q57 43 73 84v-180
q-74 -104 -176 -105q-57 0 -145 42t-140 42z" />
    <glyph glyph-name="utilde" unicode="&#x169;" horiz-adv-x="1116" 
d="M121 1047h303v-723q0 -64 35 -102t111 -38t122 27v836h303v-984q-163 -83 -411 -83t-356 88t-107 276v703zM442 1255q-52 0 -110 -43t-76 -82v181q74 102 176 102q58 0 144 -42t141 -42t112 43t74 84v-180q-74 -104 -176 -105q-57 0 -145 42t-140 42z" />
    <glyph glyph-name="Umacron" unicode="&#x16a;" horiz-adv-x="1284" 
d="M1151 438q0 -209 -142 -334q-141 -124 -365 -124t-368 124q-143 125 -143 334v1041h318v-1047q0 -100 57 -154t145 -54q87 0 143 54t56 158v1043h299v-1041zM989 1638h-667v166h667v-166z" />
    <glyph glyph-name="umacron" unicode="&#x16b;" horiz-adv-x="1116" 
d="M121 1047h303v-723q0 -64 35 -102t111 -38t122 27v836h303v-984q-163 -83 -411 -83t-356 88t-107 276v703zM895 1221h-668v165h668v-165z" />
    <glyph glyph-name="Ubreve" unicode="&#x16c;" horiz-adv-x="1284" 
d="M1151 438q0 -209 -142 -334q-141 -124 -365 -124t-368 124q-143 125 -143 334v1041h318v-1047q0 -100 57 -154t145 -54q87 0 143 54t56 158v1043h299v-1041zM655 1573q-80 0 -141 29q-61 28 -92 74q-60 88 -62 188l107 28q39 -156 182 -156t197 156l104 -28
q0 -109 -72 -200t-223 -91z" />
    <glyph glyph-name="ubreve" unicode="&#x16d;" horiz-adv-x="1116" 
d="M121 1047h303v-723q0 -64 35 -102t111 -38t122 27v836h303v-984q-163 -83 -411 -83t-356 88t-107 276v703zM561 1155q-217 0 -279 197q-15 47 -16 94l107 29q39 -156 182 -156t197 156l104 -29q0 -109 -72 -200t-223 -91z" />
    <glyph glyph-name="Uring" unicode="&#x16e;" horiz-adv-x="1284" 
d="M735 1747q-1 35 -25 59t-59 25q-35 0 -59 -25q-24 -26 -25 -60q0 -34 25 -58q26 -24 60 -25q34 1 58 25t25 59zM1151 438q0 -209 -142 -334q-141 -124 -365 -124t-368 124q-143 125 -143 334v1041h318v-1047q0 -100 57 -154t145 -54q87 0 143 54t56 158v1043h299v-1041z
M831 1747q0 -76 -52 -128t-128 -52t-128 52t-52 128t52 128t128 52t128 -52t52 -128z" />
    <glyph glyph-name="uring" unicode="&#x16f;" horiz-adv-x="1116" 
d="M645 1329q0 35 -24 60q-25 25 -60 25t-59 -26q-24 -24 -25 -59q0 -35 25 -59q26 -24 60 -25q34 1 58 25t25 59zM121 1047h303v-723q0 -64 35 -102t111 -38t122 27v836h303v-984q-163 -83 -411 -83t-356 88t-107 276v703zM741 1329q0 -76 -52 -128t-128 -52t-128 52
t-52 128t52 128t128 52t128 -52t52 -128z" />
    <glyph glyph-name="Uhungarumlaut" unicode="&#x170;" horiz-adv-x="1284" 
d="M1151 438q0 -209 -142 -334q-141 -124 -365 -124t-368 124q-143 125 -143 334v1041h318v-1047q0 -100 57 -154t145 -54q87 0 143 54t56 158v1043h299v-1041zM693 1888q73 0 79 -47l-240 -264h-112l143 262q57 49 130 49zM988 1888q73 0 83 -47l-242 -264h-110l143 262
q53 49 126 49z" />
    <glyph glyph-name="uhungarumlaut" unicode="&#x171;" horiz-adv-x="1116" 
d="M121 1047h303v-723q0 -64 35 -102t111 -38t122 27v836h303v-984q-163 -83 -411 -83t-356 88t-107 276v703zM599 1470q73 0 79 -47l-240 -264h-112l143 262q57 49 130 49zM894 1470q73 0 83 -47l-242 -264h-110l143 262q53 49 126 49z" />
    <glyph glyph-name="Uogonek" unicode="&#x172;" horiz-adv-x="1284" 
d="M1151 438q0 -221 -156 -344q-195 -156 -194 -272q0 -56 49 -74t162 23l32 -93q-102 -53 -204 -63t-172 31t-70 136t139 204q-55 -6 -94 -6q-223 0 -367 124q-143 125 -143 334v1041h318v-1047q0 -100 57 -154t145 -54q87 0 143 54t56 158v1043h299v-1041z" />
    <glyph glyph-name="uogonek" unicode="&#x173;" horiz-adv-x="1116" 
d="M557 -248q0 76 46 137t104 99q-61 -8 -148 -8q-223 0 -331 88t-107 276v703h303v-723q0 -64 35 -102t111 -38t122 27v836h303v-984q-236 -98 -235 -251q0 -54 51 -68t160 27l33 -93q-94 -51 -196 -63t-177 25q-74 36 -74 112z" />
    <glyph glyph-name="Wcircumflex" unicode="&#x174;" horiz-adv-x="1740" 
d="M1704 1479l-330 -1479h-293l-180 807l-24 149h-7q-6 -72 -24 -149l-180 -807h-295l-332 1479h328l153 -893l21 -160h4q8 80 26 160l195 893h238l190 -893l25 -160h4q6 82 20 160l160 893h301zM885 1892q53 0 90 -37l215 -217l-86 -79l-219 155l-219 -155l-86 79l215 217
q37 37 90 37z" />
    <glyph glyph-name="wcircumflex" unicode="&#x175;" horiz-adv-x="1595" 
d="M504 293h4q0 61 24 151l160 603h248l152 -603q13 -52 20 -129l2 -22h4q4 76 21 153l133 601h266l-287 -1047h-278l-150 567q-20 78 -20 125l-2 21h-2q-4 -76 -23 -146l-155 -567h-275l-289 1047h301l127 -603q10 -50 19 -133v-18zM813 1475q53 0 90 -37l215 -217l-86 -80
l-219 155l-219 -155l-86 80l215 217q37 37 90 37z" />
    <glyph glyph-name="Ycircumflex" unicode="&#x176;" horiz-adv-x="1126" 
d="M719 0h-318v604l-397 875h338l231 -578h5l231 578h307l-397 -875v-604zM575 1892q53 0 91 -37l215 -217l-86 -79l-220 155l-219 -155l-86 79l215 217q37 37 90 37z" />
    <glyph glyph-name="ycircumflex" unicode="&#x177;" horiz-adv-x="1056" 
d="M1010 1047l-478 -1487h-319l176 440l-340 1047h320l145 -605q18 -88 18 -143l3 -23h4q6 78 28 166l160 605h283zM561 1475q53 0 90 -37l215 -217l-86 -80l-219 155l-219 -155l-86 80l215 217q37 37 90 37z" />
    <glyph glyph-name="Ydieresis" unicode="&#x178;" horiz-adv-x="1126" 
d="M719 0h-318v604l-397 875h338l231 -578h5l231 578h307l-397 -875v-604zM518 1696q0 -51 -41 -87t-99 -36t-99 36t-41 87t41 88t99 37t99 -37t41 -88zM918 1696q0 -51 -42 -87t-100 -36t-98 36q-41 36 -41 87t41 88t98 37q58 0 100 -37t42 -88z" />
    <glyph glyph-name="Zacute" unicode="&#x179;" horiz-adv-x="999" 
d="M932 0h-901l471 1243h-424v236h846l-471 -1243h479v-236zM801 1864l-264 -287h-175l140 295q70 45 174 44t125 -52z" />
    <glyph glyph-name="zacute" unicode="&#x17a;" horiz-adv-x="866" 
d="M791 0h-738l355 850h-320v197h694l-336 -850h345v-197zM768 1446l-264 -287h-174l139 295q71 45 175 44t124 -52z" />
    <glyph glyph-name="Zdot" unicode="&#x17b;" horiz-adv-x="999" 
d="M932 0h-901l471 1243h-424v236h846l-471 -1243h479v-236zM516 1927q62 0 106 -44t44 -106q0 -61 -44 -105t-106 -44t-105 43q-44 43 -44 105t44 107q44 44 105 44z" />
    <glyph glyph-name="zdot" unicode="&#x17c;" horiz-adv-x="866" 
d="M791 0h-738l355 850h-320v197h694l-336 -850h345v-197zM442 1509q62 0 106 -44t44 -106q0 -61 -44 -105t-106 -44t-105 43q-44 43 -44 105t44 107q44 44 105 44z" />
    <glyph glyph-name="Zcaron" unicode="&#x17d;" horiz-adv-x="999" 
d="M932 0h-901l471 1243h-424v236h846l-471 -1243h479v-236zM501 1550q-54 0 -93 39l-218 217l86 76l226 -158l223 158l86 -76l-217 -217q-39 -39 -93 -39z" />
    <glyph glyph-name="zcaron" unicode="&#x17e;" horiz-adv-x="866" 
d="M791 0h-738l355 850h-320v197h694l-336 -850h345v-197zM431 1147q-54 0 -93 39l-217 217l86 76l225 -160l223 160l86 -76l-217 -217q-39 -39 -93 -39z" />
    <glyph glyph-name="longs" unicode="&#x17f;" horiz-adv-x="663" 
d="M481 1180v-1180h-301v850h-114v197h114v106q0 197 124 295t339 74v-191q-80 4 -121 -31t-41 -120z" />
    <glyph glyph-name="florin" unicode="&#x192;" horiz-adv-x="1241" 
d="M1026 1280q-123 0 -166 -213l-35 -172h219v-205h-260l-133 -682q-37 -196 -149 -318t-285 -122q-115 0 -209 45l39 221q49 -31 117 -31q68 -1 108 57t68 203l123 627h-215v205h256l37 182q41 207 128 315t283 107q126 0 226 -39l-37 -203q-55 23 -115 23z" />
    <glyph glyph-name="gacute" unicode="&#x1f5;" horiz-adv-x="1122" 
d="M723 700q0 186 -180 187q-181 -1 -181 -187t183 -186q90 0 134 51t44 135zM408 266q0 -66 98 -65h160q182 0 284 -89t103 -221q0 -166 -129 -264t-359 -98q-231 0 -359 73t-128 199q0 43 20 111h267q-23 -37 -23 -92t67 -84t165 -29t155 44q57 43 57 109t-38 88
q-39 22 -132 21h-143q-121 0 -213 50t-92 164t104 208q-174 98 -174 309q0 168 111 268t334 101q84 0 178 -22h348v-160h-127q47 -84 47 -187q-1 -160 -109 -264t-335 -104l-94 2q-43 -31 -43 -68zM870 1446l-264 -287h-174l139 295q71 45 175 44t124 -52z" />
    <glyph glyph-name="Aringacute" unicode="&#x1fa;" horiz-adv-x="1294" 
d="M799 565l-131 455q-12 41 -21 84q-8 43 -12 63l-2 23h-4q-6 -72 -35 -170l-129 -455h334zM643 1602q27 0 45 18t19 44q-1 26 -19 44t-45 18t-44 -18t-17 -44t17 -44t44 -18zM1290 0h-325l-107 367h-450l-105 -367h-299l473 1458h340zM823 1665q0 -74 -52 -126t-126 -52
t-126 52t-52 126t52 126t126 52t126 -52t52 -126zM874 2087l-172 -219h-178l135 219h215z" />
    <glyph glyph-name="aringacute" unicode="&#x1fb;" horiz-adv-x="1056" 
d="M350 324q0 -176 193 -177q65 0 110 23v369q-155 -15 -229 -61t-74 -154zM520 1225q26 0 44 18t18 44t-18 44q-18 19 -44 19q-27 0 -44 -18t-17 -45q0 -26 17 -44t44 -18zM653 739q0 78 -47 109t-144 31t-267 -64v199q4 0 23 7q130 48 306 48q412 0 412 -383v-627
q-150 -80 -410 -79q-457 0 -456 331q0 197 176 281q157 75 407 98v49zM698 1287q0 -75 -52 -126t-126 -51t-125 52t-51 126t51 126t126 52t126 -52t51 -127zM752 1726l-172 -219h-179l136 219h215z" />
    <glyph glyph-name="AEacute" unicode="&#x1fc;" horiz-adv-x="1615" 
d="M819 565l-88 479l-14 140h-4q-14 -68 -41 -140l-180 -479h327zM1567 0h-652l-73 367h-428l-144 -365h-299l619 1477h821v-236h-459l90 -375h373v-229h-323l98 -403h377v-236zM1290 1864l-264 -287h-174l139 295q71 45 175 44t124 -52z" />
    <glyph glyph-name="aeacute" unicode="&#x1fd;" horiz-adv-x="1615" 
d="M641 295v242q-147 -13 -224 -63t-77 -155q0 -170 154 -169q68 0 108 38t39 107zM1253 604q0 285 -170 285q-86 1 -130 -63t-56 -222h356zM905 453q-1 -109 61 -187t204 -78t311 70v-213q-168 -65 -369 -65t-313 155q-88 -156 -320 -155q-197 0 -303 85t-106 244
q0 191 164 275q164 83 409 106v47q0 141 -184 142q-49 0 -132 -22t-132 -44v201q150 55 319 55q205 0 283 -145q49 70 131 108t168 37q220 1 334 -167t102 -449h-627zM1128 1446l-264 -287h-174l139 295q71 45 175 44t124 -52z" />
    <glyph glyph-name="Oslashacute" unicode="&#x1fe;" horiz-adv-x="1335" 
d="M924 752q0 170 -27 282l-424 -676q63 -135 195 -135q256 1 256 529zM668 1282q-256 0 -256 -530q0 -156 20 -258l420 669q-63 119 -184 119zM1245 739q0 -219 -56 -385q-55 -166 -189 -270t-340 -104t-349 120l-108 -172l-90 58l125 198q-148 201 -148 546t142 557
t436 212q197 0 331 -102l99 155l90 -57l-111 -174q168 -203 168 -582zM965 1864l-265 -287h-174l140 295q70 45 174 44t125 -52z" />
    <glyph glyph-name="oslashacute" unicode="&#x1ff;" horiz-adv-x="1085" 
d="M711 502q0 142 -17 215l-272 -471q45 -74 131 -74t122 94t36 236zM543 879q-96 -1 -132 -95t-36 -230t14 -210l270 469q-43 66 -116 66zM1004 524q0 -242 -120 -394t-341 -150q-135 0 -240 61l-88 -154l-68 39l95 164q-160 143 -160 434q0 242 120 394t339 151
q137 0 233 -59l86 149l68 -39l-90 -157q166 -136 166 -439zM864 1446l-264 -287h-174l139 295q71 45 175 44t124 -52z" />
    <glyph glyph-name="Scommaaccent" unicode="&#x218;" horiz-adv-x="1089" 
d="M745 -289q-1 -119 -109 -195t-255 -81l-53 121q86 10 143 52t57 120t-135 180h250q43 -28 73 -82t29 -115zM999 446q0 -206 -134 -336t-361 -130t-389 77v277q178 -111 336 -111q113 1 170 55t57 130t-64 126t-196 103q-311 127 -312 407q0 188 127 322t353 133
q82 0 152 -13q70 -14 90 -22q19 -8 81 -34v-242q-141 86 -255 86q-226 0 -226 -174q0 -89 68 -136q50 -37 159 -85q201 -86 273 -190t71 -243z" />
    <glyph glyph-name="scommaaccent" unicode="&#x219;" horiz-adv-x="839" 
d="M602 -289q0 -119 -108 -195t-256 -81l-54 121q86 10 144 52q57 42 57 120t-135 180h250q42 -28 72 -82t30 -115zM762 313q0 -141 -109 -237t-288 -96q-121 0 -267 53v235q102 -80 226 -80q57 0 93 32t36 83t-30 85t-104 63q-236 92 -235 292q0 137 97 231t253 95
q156 0 266 -59v-222q-106 84 -200 84q-55 0 -87 -30t-32 -78q0 -88 138 -148q139 -60 191 -131q52 -72 52 -172z" />
    <glyph glyph-name="uni021A" unicode="&#x21a;" horiz-adv-x="1028" 
d="M725 -289q0 -119 -109 -195t-256 -81l-53 121q86 10 144 52q57 42 57 120t-135 180h250q43 -28 73 -82t29 -115zM965 1243h-291v-1243h-318v1243h-293v236h902v-236z" />
    <glyph glyph-name="uni021B" unicode="&#x21b;" horiz-adv-x="712" 
d="M602 -289q0 -119 -108 -195t-256 -81l-54 121q86 10 144 52q57 42 57 120t-135 180h250q42 -28 72 -82t30 -115zM180 281v569h-114v197h114v223l293 80v-303h166v-197h-166v-547q0 -121 100 -121q29 0 70 11v-185q-57 -29 -149 -28q-156 0 -235 86t-79 215z" />
    <glyph glyph-name="circumflex" unicode="&#x2c6;" 
d="M278 1475q54 0 91 -37l215 -217l-86 -80l-219 155l-220 -155l-86 80l215 217q36 37 90 37z" />
    <glyph glyph-name="caron" unicode="&#x2c7;" 
d="M279 1147q-55 0 -95 39l-215 217l84 76l226 -160l225 160l84 -76l-215 -217q-39 -39 -94 -39z" />
    <glyph glyph-name="breve" unicode="&#x2d8;" 
d="M279 1155q-218 0 -280 197q-15 47 -15 94l106 29q39 -156 182 -156t197 156l104 -29q1 -109 -71 -200t-223 -91z" />
    <glyph glyph-name="dotaccent" unicode="&#x2d9;" 
d="M428 1359q0 -61 -44 -105t-105 -44t-106 43q-44 43 -44 105t44 107q43 44 105 44t106 -44t44 -106z" />
    <glyph glyph-name="ring" unicode="&#x2da;" 
d="M362 1329q0 35 -24 60q-26 25 -60 25t-59 -26q-25 -24 -25 -59t26 -59q24 -24 59 -25q35 1 59 25t24 59zM459 1329q0 -76 -52 -128t-128 -52t-128 52t-53 128q0 76 52 128t129 52q76 0 128 -52t52 -128z" />
    <glyph glyph-name="ogonek" unicode="&#x2db;" 
d="M371 -188q0 -52 51 -66t160 25l32 -93q-94 -51 -196 -63t-176 25t-74 122q0 137 231 250h176q-204 -105 -204 -200z" />
    <glyph glyph-name="tilde" unicode="&#x2dc;" 
d="M138 1255q-52 0 -110 -43t-75 -82v181q74 102 176 102q59 0 144 -42t141 -42t112 43q57 43 74 84v-180q-74 -104 -176 -105q-57 0 -145 42q-89 42 -141 42z" />
    <glyph glyph-name="hungarumlaut" unicode="&#x2dd;" 
d="M255 1470q73 0 79 -47l-240 -264h-112l143 262q57 49 130 49zM550 1470q73 0 83 -47l-242 -264h-110l143 262q53 49 126 49z" />
    <glyph glyph-name="gravecmb" unicode="&#x300;" 
d="M453 1577h-174l-265 287q20 51 124 52t175 -44z" />
    <glyph glyph-name="acutecmb" unicode="&#x301;" 
d="M543 1864l-264 -287h-175l140 295q70 45 174 44t125 -52z" />
    <glyph glyph-name="circumflexcmb" unicode="&#x302;" 
d="M278 1892q54 0 91 -37l215 -217l-86 -79l-219 155l-220 -155l-86 79l215 217q36 37 90 37z" />
    <glyph glyph-name="tildecmb" unicode="&#x303;" 
d="M138 1673q-52 0 -110 -43t-75 -82v181q74 102 176 102q59 0 144 -42t141 -42t112 43q57 43 74 84v-180q-74 -104 -176 -105q-57 0 -145 42q-89 42 -141 42z" />
    <glyph glyph-name="macroncmb" unicode="&#x304;" 
d="M612 1638h-667v166h667v-166z" />
    <glyph glyph-name="brevecmb" unicode="&#x306;" 
d="M279 1573q-79 0 -141 29q-62 28 -93 74q-61 90 -61 188l106 28q39 -156 182 -156t197 156l104 -28q1 -109 -71 -200t-223 -91z" />
    <glyph glyph-name="dotaccentcmb" unicode="&#x307;" 
d="M428 1777q0 -61 -44 -105t-105 -44t-106 43q-44 43 -44 105t44 107q43 44 105 44t106 -44t44 -106z" />
    <glyph glyph-name="dieresiscmb" unicode="&#x308;" 
d="M219 1716q0 -51 -42 -87t-99 -36t-98 36t-41 87t41 88t98 37t99 -37t42 -88zM618 1716q0 -51 -42 -87t-100 -36t-99 36t-41 87t41 88t99 37t100 -37t42 -88z" />
    <glyph glyph-name="ringcmb" unicode="&#x309;" 
d="M362 1747q0 35 -24 59t-60 25q-34 0 -59 -25q-25 -26 -25 -60t26 -58q24 -24 59 -25q35 1 59 25t24 59zM459 1747q0 -76 -52 -128t-128 -52t-128 52t-53 128q0 76 52 128t129 52q76 0 128 -52t52 -128z" />
    <glyph glyph-name="hungarumlautcmb" unicode="&#x30b;" 
d="M255 1888q73 0 79 -47l-240 -264h-112l143 262q57 49 130 49zM550 1888q73 0 83 -47l-242 -264h-110l143 262q53 49 126 49z" />
    <glyph glyph-name="caroncmb" unicode="&#x30c;" 
d="M279 1565q-55 0 -95 39l-215 217l84 75l226 -159l225 159l84 -75l-215 -217q-39 -39 -94 -39z" />
    <glyph glyph-name="cedillacmb" unicode="&#x327;" 
d="M565 -254q1 -104 -153 -147t-420 -19l55 101q137 -14 225 5t88 57t-54 49t-189 3l53 88q215 19 305 -17t90 -120z" />
    <glyph glyph-name="ogonekcmb" unicode="&#x328;" 
d="M371 -188q0 -52 51 -66t160 25l32 -93q-94 -51 -196 -63t-176 25t-74 122q0 137 231 250h176q-204 -105 -204 -200z" />
    <glyph glyph-name="soliduslongoverlaycmb" unicode="&#x338;" horiz-adv-x="548" 
 />
    <glyph glyph-name="Delta" unicode="&#x394;" horiz-adv-x="1245" 
d="M856 236l-211 786l-33 143h-4q-27 -111 -35 -143l-217 -786h500zM1241 0h-1237l455 1479h327z" />
    <glyph glyph-name="Delta" unicode="&#x2206;" horiz-adv-x="1245" 
d="M856 236l-211 786l-33 143h-4q-27 -111 -35 -143l-217 -786h500zM1241 0h-1237l455 1479h327z" />
    <glyph glyph-name="Omega" unicode="&#x3a9;" horiz-adv-x="1411" 
d="M1333 0h-569q195 299 194 811q0 219 -61 345t-190 126t-191 -126t-63 -345q0 -506 194 -811h-569v223h241q-78 109 -134 277t-56 327q1 297 149 485t428 187q280 0 428 -187t148 -485q0 -161 -55 -327t-133 -277h239v-223z" />
    <glyph glyph-name="Omega" unicode="&#x2126;" horiz-adv-x="1411" 
d="M1333 0h-569q195 299 194 811q0 219 -61 345t-190 126t-191 -126t-63 -345q0 -506 194 -811h-569v223h241q-78 109 -134 277t-56 327q1 297 149 485t428 187q280 0 428 -187t148 -485q0 -161 -55 -327t-133 -277h239v-223z" />
    <glyph glyph-name="pi" unicode="&#x3c0;" horiz-adv-x="1323" 
d="M811 313v545h-283v-858h-303v858h-129v189h1147v-189h-129v-524q0 -45 6 -73q6 -27 37 -49t86 -17v-195q-70 -12 -124 -6t-104 13t-122 63q-29 20 -49 67q-33 74 -33 176z" />
    <glyph glyph-name="Wgrave" unicode="&#x1e80;" horiz-adv-x="1740" 
d="M1704 1479l-330 -1479h-293l-180 807l-24 149h-7q-6 -72 -24 -149l-180 -807h-295l-332 1479h328l153 -893l21 -160h4q8 80 26 160l195 893h238l190 -893l25 -160h4q6 82 20 160l160 893h301zM1047 1577h-175l-264 287q20 51 124 52t175 -44z" />
    <glyph glyph-name="wgrave" unicode="&#x1e81;" horiz-adv-x="1595" 
d="M504 293h4q0 61 24 151l160 603h248l152 -603q13 -52 20 -129l2 -22h4q4 76 21 153l133 601h266l-287 -1047h-278l-150 567q-20 78 -20 125l-2 21h-2q-4 -76 -23 -146l-155 -567h-275l-289 1047h301l127 -603q10 -50 19 -133v-18zM979 1159h-174l-264 287q21 51 125 52
t174 -44z" />
    <glyph glyph-name="Wacute" unicode="&#x1e82;" horiz-adv-x="1740" 
d="M1704 1479l-330 -1479h-293l-180 807l-24 149h-7q-6 -72 -24 -149l-180 -807h-295l-332 1479h328l153 -893l21 -160h4q8 80 26 160l195 893h238l190 -893l25 -160h4q6 82 20 160l160 893h301zM1178 1864l-265 -287h-174l140 295q71 45 175 44t124 -52z" />
    <glyph glyph-name="wacute" unicode="&#x1e83;" horiz-adv-x="1595" 
d="M504 293h4q0 61 24 151l160 603h248l152 -603q13 -52 20 -129l2 -22h4q4 76 21 153l133 601h266l-287 -1047h-278l-150 567q-20 78 -20 125l-2 21h-2q-4 -76 -23 -146l-155 -567h-275l-289 1047h301l127 -603q10 -50 19 -133v-18zM1110 1446l-264 -287h-174l139 295
q71 45 175 44t124 -52z" />
    <glyph glyph-name="Wdieresis" unicode="&#x1e84;" horiz-adv-x="1740" 
d="M1704 1479l-330 -1479h-293l-180 807l-24 149h-7q-6 -72 -24 -149l-180 -807h-295l-332 1479h328l153 -893l21 -160h4q8 80 26 160l195 893h238l190 -893l25 -160h4q6 82 20 160l160 893h301zM829 1716q0 -51 -42 -87t-99 -36t-98 36t-41 87t41 88t98 37t99 -37t42 -88z
M1229 1716q0 -51 -42 -87q-43 -36 -101 -36t-99 36t-41 87t41 88t99 37t100 -37t43 -88z" />
    <glyph glyph-name="wdieresis" unicode="&#x1e85;" horiz-adv-x="1595" 
d="M504 293h4q0 61 24 151l160 603h248l152 -603q13 -52 20 -129l2 -22h4q4 76 21 153l133 601h266l-287 -1047h-278l-150 567q-20 78 -20 125l-2 21h-2q-4 -76 -23 -146l-155 -567h-275l-289 1047h301l127 -603q10 -50 19 -133v-18zM758 1298q0 -51 -42 -87
q-42 -35 -100 -35t-98 36q-41 36 -41 86q0 51 41 88t98 37q58 0 100 -37t42 -88zM1157 1298q0 -51 -42 -87q-42 -35 -100 -35t-100 35q-41 36 -41 87t41 88t99 37t101 -37q42 -37 42 -88z" />
    <glyph glyph-name="Ygrave" unicode="&#x1ef2;" horiz-adv-x="1126" 
d="M719 0h-318v604l-397 875h338l231 -578h5l231 578h307l-397 -875v-604zM682 1577h-174l-264 287q20 51 124 52t175 -44z" />
    <glyph glyph-name="ygrave" unicode="&#x1ef3;" horiz-adv-x="1056" 
d="M1010 1047l-478 -1487h-319l176 440l-340 1047h320l145 -605q18 -88 18 -143l3 -23h4q6 78 28 166l160 605h283zM649 1159h-174l-264 287q21 51 125 52t174 -44z" />
    <glyph glyph-name="endash" unicode="&#x2013;" horiz-adv-x="860" 
d="M860 494h-860v188h860v-188z" />
    <glyph glyph-name="emdash" unicode="&#x2014;" horiz-adv-x="1720" 
d="M1720 508h-1720v160h1720v-160z" />
    <glyph glyph-name="quoteleft" unicode="&#x2018;" horiz-adv-x="632" 
d="M218 924q-108 0 -126 94l318 590h161l-182 -590q-63 -94 -171 -94z" />
    <glyph glyph-name="quoteright" unicode="&#x2019;" horiz-adv-x="632" 
d="M418 1622q108 0 123 -94l-316 -592h-164l183 592q66 94 174 94z" />
    <glyph glyph-name="quotesinglbase" unicode="&#x201a;" horiz-adv-x="632" 
d="M416 338q109 0 125 -94l-316 -590h-164l183 590q63 94 172 94z" />
    <glyph glyph-name="quotedblleft" unicode="&#x201c;" horiz-adv-x="1077" 
d="M218 924q-108 0 -126 94l318 590h161l-182 -590q-63 -94 -171 -94zM662 924q-110 0 -127 94l317 590h164l-185 -590q-59 -94 -169 -94z" />
    <glyph glyph-name="quotedblright" unicode="&#x201d;" horiz-adv-x="1077" 
d="M418 1622q108 0 123 -94l-316 -592h-164l183 592q66 94 174 94zM862 1622q108 0 123 -94l-317 -592h-164l184 592q66 94 174 94z" />
    <glyph glyph-name="quotedblbase" unicode="&#x201e;" horiz-adv-x="1077" 
d="M416 338q109 0 125 -94l-316 -590h-164l183 590q63 94 172 94zM860 338q109 0 125 -94l-317 -590h-164l184 590q63 94 172 94z" />
    <glyph glyph-name="dagger" unicode="&#x2020;" horiz-adv-x="1236" 
d="M1155 797l-399 24l26 -1261h-329l26 1261l-397 -24v319l397 -24l-26 516h329l-26 -516l399 24v-319z" />
    <glyph glyph-name="daggerdbl" unicode="&#x2021;" horiz-adv-x="1236" 
d="M1155 98l-403 17l22 -555h-311l20 555l-401 -17v256l401 -14l-2 262l2 268l-401 -16v258l401 -16l-20 512h311l-22 -512l403 16v-258l-403 16l2 -268l-2 -262l403 14v-256z" />
    <glyph glyph-name="bullet" unicode="&#x2022;" horiz-adv-x="802" 
d="M692 756q0 -121 -86 -206t-205 -85t-205 85t-85 206q0 121 86 206q87 85 205 85t204 -85t86 -206z" />
    <glyph glyph-name="ellipsis" unicode="&#x2026;" horiz-adv-x="1904" 
d="M498 160q0 -74 -54 -127t-127 -53q-74 0 -127 53t-53 127t53 127t127 53q73 0 127 -53t54 -127zM1133 160q1 -74 -53 -127t-128 -53t-127 53t-53 127t53 127t127 53t128 -53t53 -127zM1767 160q0 -74 -53 -127t-127 -53t-127 53t-53 127t53 127t127 53t127 -53t53 -127z
" />
    <glyph glyph-name="perthousand" unicode="&#x2030;" horiz-adv-x="2549" 
d="M537 1021q0 161 -22 252t-86 91t-86 -91q-21 -91 -21 -252t22 -250t86 -89t85 89q22 89 22 250zM1390 815q-64 0 -86 -91t-22 -252t22 -250t86 -89t86 89q21 89 22 250t-21 252q-23 91 -87 91zM2228 472q0 161 -21 251q-22 90 -87 90q-111 0 -107 -342q0 -160 22 -249
q23 -89 87 -89t85 89t21 250zM682 1335q59 -136 59 -323t-59 -321q-34 -75 -98 -119t-156 -44q-244 0 -298 317q-13 77 -13 168q0 186 58 322q32 76 96 120q65 44 157 44t157 -44t97 -120zM1315 1450l-658 -1499l-137 59l658 1497zM1702 465q0 -90 -13 -168
q-53 -317 -298 -317q-92 0 -157 44q-64 44 -96 120q-56 135 -58 319q-1 184 58 323q32 76 96 120q65 44 157 44q93 0 157 -44q154 -105 154 -441zM2120 -20q-307 0 -312 483q0 356 182 457q56 30 139 30t147 -44q156 -107 157 -443q0 -187 -59 -321q-33 -74 -98 -118
t-156 -44z" />
    <glyph glyph-name="guilsinglleft" unicode="&#x2039;" horiz-adv-x="673" 
d="M559 199l-174 -101l-303 484l305 485l172 -102l-240 -383z" />
    <glyph glyph-name="guilsinglright" unicode="&#x203a;" horiz-adv-x="673" 
d="M592 582l-303 -484l-174 101l239 383l-239 383l174 102z" />
    <glyph glyph-name="fraction" unicode="&#x2044;" horiz-adv-x="372" 
d="M596 1444l-659 -1499l-170 71l659 1497z" />
    <glyph glyph-name="fraction" unicode="&#x2215;" horiz-adv-x="372" 
d="M596 1444l-659 -1499l-170 71l659 1497z" />
    <glyph glyph-name="franc" unicode="&#x20a3;" horiz-adv-x="1200" 
d="M1044 1243h-450v-375h397v-229h-397v-203h242v-200h-242v-236h-318v236h-204v200h204v1043h768v-236z" />
    <glyph glyph-name="Euro" unicode="&#x20ac;" horiz-adv-x="1200" 
d="M791 -20q-225 0 -359 150q-133 151 -170 400h-174l39 144h121q-2 22 -2 68t2 69h-146l39 143h123q46 252 188 398t345 147q158 0 274 -63v-236q-66 66 -207 66q-252 0 -305 -312h381l-39 -143h-356q-2 -20 -2 -66t2 -71h329l-38 -144h-269q33 -135 107 -217t196 -82
t201 64v-252q-123 -63 -280 -63z" />
    <glyph glyph-name="afii61289" unicode="&#x2113;" horiz-adv-x="1136" 
d="M606 -23q-305 0 -373 293q0 10 -2 13q-16 -13 -49 -33t-49 -31l-80 164q123 86 172 123v452q1 250 105 375t266 125t248 -94q88 -94 88 -260t-99 -321t-313 -337v-26q0 -92 43 -139t119 -48q129 0 252 160l141 -137q-164 -279 -469 -279zM520 1001v-278q180 197 180 385
q0 145 -82 145q-98 0 -98 -252z" />
    <glyph glyph-name="trademark" unicode="&#x2122;" horiz-adv-x="1579" 
d="M600 1348h-176v-580h-166v580h-178v131h520v-131zM1403 768h-156v444l-147 -444h-121l-148 444v-444h-157v711h200l164 -502l164 502h201v-711z" />
    <glyph glyph-name="estimated" unicode="&#x212e;" horiz-adv-x="1673" 
d="M1323 696v377q0 25 -20 45q-195 195 -465 195t-465 -201q-20 -20 -21 -47v-369q0 -10 10 -10h951q10 0 10 10zM1602 647h-1240q-10 0 -10 -8v-375q0 -20 19 -43q190 -203 478 -203t482 228h113q-106 -125 -266 -197t-340 -72q-317 0 -542 202q-224 202 -224 487
q0 284 224 486t542 202t540 -202q223 -202 224 -486v-19z" />
    <glyph glyph-name="partialdiff" unicode="&#x2202;" horiz-adv-x="1200" 
d="M399 388q0 -192 133 -191q123 -1 193 155t70 379q-178 51 -287 -50t-109 -293zM1092 758q0 -401 -189 -613q-66 -73 -169 -119t-234 -46q-182 0 -289 103t-107 287t100 325q100 139 253 193q154 54 315 13q-25 156 -141 253q-117 97 -260 134l92 211q113 -20 219 -78
q250 -135 352 -385q58 -142 58 -278z" />
    <glyph glyph-name="product" unicode="&#x220f;" horiz-adv-x="1642" 
d="M967 901q0 147 -131 148h-60v-283h60q57 0 94 32t37 103zM1155 907q0 -119 -77 -187t-222 -69h-80v-332h-190v842h270q145 1 222 -67t77 -187zM1421 738q0 258 -175 448t-424 190t-425 -189t-176 -449t176 -447q176 -189 425 -189t424 188t175 448zM1548 739
q0 -311 -214 -535t-513 -224t-513 224t-214 535t214 535t513 225q299 -1 513 -225t214 -535z" />
    <glyph glyph-name="summation" unicode="&#x2211;" horiz-adv-x="1200" 
d="M1094 -440h-998l500 995l-500 924h975v-219h-524l373 -687l-381 -759h555v-254z" />
    <glyph glyph-name="minus" unicode="&#x2212;" horiz-adv-x="1155" 
d="M993 518h-831v205h831v-205z" />
    <glyph glyph-name="radical" unicode="&#x221a;" horiz-adv-x="1155" 
d="M37 834v186h397l166 -643l4 2l244 1229h278l-372 -1608h-285l-268 834h-164z" />
    <glyph glyph-name="infinity" unicode="&#x221e;" horiz-adv-x="1728" 
d="M477 793q-70 1 -117 -47t-47 -116t48 -115q48 -48 118 -48t122 36t126 128q-76 90 -128 126t-122 36zM1413 639q0 70 -48 118t-119 48t-121 -34t-124 -130q76 -92 127 -127t122 -35t117 45t46 115zM1614 637q0 -161 -100 -269t-265 -108q-119 0 -208 50t-177 163
q-96 -117 -178 -165t-201 -48q-166 0 -268 106t-102 268t102 272t268 110q115 0 197 -50t182 -169q96 117 177 168t204 51q165 0 267 -110t102 -269z" />
    <glyph glyph-name="integral" unicode="&#x222b;" horiz-adv-x="1200" 
d="M799 1241v-1278q-1 -207 -143 -317t-367 -84v205q193 -10 192 157v1278q-1 207 141 318t367 86v-205q-190 10 -190 -160z" />
    <glyph glyph-name="approxequal" unicode="&#x2248;" horiz-adv-x="1155" 
d="M756 244q-68 0 -182 59t-183 59q-135 0 -229 -94v207q88 88 229 88q73 0 185 -59t180 -60q145 0 237 101v-203q-90 -98 -237 -98zM756 674q-68 0 -182 59t-183 60q-137 0 -229 -93v205q88 88 229 88q73 0 185 -59t180 -60q145 0 237 101v-203q-90 -98 -237 -98z" />
    <glyph glyph-name="notequal" unicode="&#x2260;" horiz-adv-x="1155" 
d="M993 328h-495l-136 -238l-126 70l96 168h-170v188h272l123 211h-395v186h497l129 228l127 -68l-92 -160h170v-186h-272l-121 -211h393v-188z" />
    <glyph glyph-name="lessequal" unicode="&#x2264;" horiz-adv-x="1155" 
d="M993 109h-831v174h831v-174zM993 393l-831 297v160l831 297v-191l-579 -186l579 -186v-191z" />
    <glyph glyph-name="greaterequal" unicode="&#x2265;" horiz-adv-x="1155" 
d="M993 109h-831v174h831v-174zM993 690l-831 -297v191l579 186l-579 186v191l831 -297v-160z" />
    <glyph glyph-name="lozenge" unicode="&#x25ca;" horiz-adv-x="1294" 
d="M965 723l-332 469l-303 -436l332 -469zM1212 739l-565 -759l-565 759l565 760z" />
    <glyph glyph-name="apple" unicode="&#xf000;" horiz-adv-x="1601" 
d="M1079 -53q-43 1 -111 29t-136 28t-149 -31t-110 -30q-92 1 -186 113t-153 272q-58 160 -58 299q0 199 106 323t277 125q63 0 147 -31q84 -30 114 -30q28 0 115 33t155 32q190 0 296 -145q-90 -68 -128 -134t-38 -159q0 -94 55 -175q54 -81 150 -122q-78 -188 -169 -292
t-177 -105zM1094 1415q8 -143 -86 -249t-220 -105q2 147 84 242q83 94 222 112z" />
    <glyph glyph-name="dotlessj" unicode="&#xf6be;" 
d="M432 111q0 -249 -134 -397t-345 -158v204q90 29 133 98t43 218v971h303v-936z" />
    <glyph glyph-name="dotlessj" unicode="&#xfb0f;" 
d="M432 111q0 -249 -134 -397t-345 -158v204q90 29 133 98t43 218v971h303v-936z" />
    <glyph glyph-name="commaaccent" unicode="&#xf6c3;" 
d="M438 -289q0 -119 -108 -195t-256 -81l-54 121q86 10 144 52q57 42 57 120t-135 180h250q42 -28 72 -82t30 -115z" />
    <glyph glyph-name="fi" unicode="&#xfb01;" horiz-adv-x="1210" 
d="M627 850h-162v-850h-301v850h-115v197h115v106q0 197 124 295t339 74v-191q-80 4 -121 -31t-41 -120v-133h162v-197zM1083 0h-303v1047h303v-1047zM1098 1350q0 -68 -49 -116t-117 -48t-117 48t-49 116t49 116t117 50q68 0 117 -49t49 -117z" />
    <glyph glyph-name="fl" unicode="&#xfb02;" horiz-adv-x="1210" 
d="M627 850h-162v-850h-301v850h-115v197h115v106q0 197 124 295t339 74v-191q-80 4 -121 -31t-41 -120v-133h162v-197zM1083 0h-303v1479h303v-1479z" />
    <glyph glyph-name="Gcedilla" horiz-adv-x="1232" 
d="M995 -254q1 -104 -153 -147t-420 -19l55 101q137 -14 225 5t89 58q-1 37 -55 48t-189 3l53 88q215 19 305 -17t90 -120zM90 738q0 356 173 558t468 203q184 0 328 -61v-246q-147 74 -287 74q-360 0 -360 -525q0 -256 81 -392t212 -136q41 0 114 18v609h293v-777
q-139 -84 -389 -83q-311 0 -472 200q-161 202 -161 558z" />
    <glyph glyph-name="gcedilla" horiz-adv-x="1122" 
d="M723 700q0 186 -180 187q-181 -1 -181 -187t183 -186q90 0 134 51t44 135zM852 -684q0 -104 -154 -147t-419 -19l55 100q137 -14 225 6t88 57q0 38 -54 49t-190 3l54 88q215 19 305 -17t90 -120zM408 266q0 -66 98 -65h160q182 0 284 -89t103 -221q0 -166 -129 -264
t-359 -98q-231 0 -359 73t-128 199q0 43 20 111h267q-23 -37 -23 -92t67 -84t165 -29t155 44q57 43 57 109t-38 88q-39 22 -132 21h-143q-121 0 -213 50t-92 164t104 208q-174 98 -174 309q0 168 111 268t334 101q84 0 178 -22h348v-160h-127q47 -84 47 -187
q-1 -160 -109 -264t-335 -104l-94 2q-43 -31 -43 -68z" />
    <glyph glyph-name="Kcedilla" horiz-adv-x="1216" 
d="M606 -254q0 -104 -154 -147t-419 -19l55 101q137 -14 225 5t88 57t-54 49t-189 3l53 88q215 19 305 -17t90 -120zM451 733v-733h-318v1479h318v-670h4l374 670h340l-419 -682l446 -797h-373l-368 733h-4z" />
    <glyph glyph-name="kcedilla" horiz-adv-x="1089" 
d="M586 -254q0 -104 -154 -147t-420 -19l56 101q137 -14 225 5t88 57t-54 49t-190 3l53 88q215 18 306 -17q90 -36 90 -120zM428 528v-528h-301v1479h301v-895h4l295 463h303l-328 -469l373 -578h-344l-299 528h-4z" />
    <glyph glyph-name="Lcedilla" horiz-adv-x="907" 
d="M750 -254q0 -104 -154 -147t-420 -19l55 101q137 -14 225 5t89 57q-1 38 -55 49t-189 3l53 88q216 19 306 -17t90 -120zM842 0h-709v1479h318v-1246h391v-233z" />
    <glyph glyph-name="lcedilla" 
d="M565 -254q1 -104 -153 -147t-420 -19l55 101q137 -14 225 5t88 57t-54 49t-189 3l53 88q215 19 305 -17t90 -120zM430 0h-303v1479h303v-1479z" />
    <glyph glyph-name="Ncedilla" horiz-adv-x="1392" 
d="M586 -254q0 -104 -154 -147t-420 -19l56 101q137 -14 225 5t88 57t-54 49t-190 3l53 88q215 18 306 -17q90 -36 90 -120zM1260 0h-267l-491 829q-47 82 -68 136l-10 22h-4q8 -82 8 -164v-823h-295v1479h307l453 -760l76 -141h4q-8 70 -8 147v754h295v-1479z" />
    <glyph glyph-name="ncedilla" horiz-adv-x="1130" 
d="M586 -254q0 -104 -154 -147t-420 -19l56 101q137 -14 225 5t88 57t-54 49t-190 3l53 88q215 18 306 -17q90 -36 90 -120zM1010 0h-303v733q0 145 -156 146q-70 0 -127 -21v-858h-303v989q176 80 425 80q248 0 356 -90t108 -244v-735z" />
    <glyph glyph-name="Rcedilla" horiz-adv-x="1234" 
d="M578 829q119 1 176 53t57 185t-58 185t-175 53h-129v-476h129zM586 -254q0 -104 -154 -147t-420 -19l56 101q137 -14 225 5t88 57t-54 49t-190 3l53 88q215 18 306 -17q90 -36 90 -120zM449 645v-645h-316v1479h512q225 0 351 -113t126 -297q0 -135 -76 -231t-210 -138
l358 -700h-344l-320 645h-81z" />
    <glyph glyph-name="rcedilla" horiz-adv-x="718" 
d="M586 -254q0 -104 -154 -147t-420 -19l56 101q137 -14 225 5t88 57t-54 49t-190 3l53 88q215 18 306 -17q90 -36 90 -120zM424 0h-303v987q203 84 416 84q71 0 145 -12l-51 -197q-123 27 -207 -8v-854z" />
    <glyph glyph-name="Omegagreek" horiz-adv-x="548" 
 />
    </font>
</defs>
</svg>
