<?xml version="1.0" standalone="no"?>
<!DOCTYPE svg PUBLIC "-//W3C//DTD SVG 1.1//EN" "http://www.w3.org/Graphics/SVG/1.1/DTD/svg11.dtd" >
<svg xmlns="http://www.w3.org/2000/svg">
<metadata>
Created by FontPrep 20130207 at Mon May 18 12:43:14 2015
 By Nathan Crenshaw
Copyright (c) United Parcel Services, Inc, 2002. All rights reserved.
</metadata>
<defs>
<font id="372f6df4acee9144aea2076bc8613b33" horiz-adv-x='1024' >
  <font-face 
    font-family="UPSSans-BoldItalic"
    font-weight="700"
    font-style="italic"
    font-stretch="normal"
    units-per-em="2048"
    panose-1="2 11 8 3 6 0 0 9 0 4"
    ascent="1638"
    descent="-410"
    x-height="1047"
    cap-height="1479"
    bbox="-385 -858.597 2399.35 2087"
    underline-thickness="102"
    underline-position="-153"
    slope="-12"
    unicode-range="U+0009-FB02"
  />
<missing-glyph horiz-adv-x="548" 
 />
    <glyph glyph-name=".notdef" horiz-adv-x="548" 
 />
    <glyph glyph-name=".notdef" horiz-adv-x="548" 
 />
    <glyph glyph-name=".null" horiz-adv-x="0" 
 />
    <glyph glyph-name="nonmarkingreturn" horiz-adv-x="681" 
 />
    <glyph glyph-name="HT" unicode="&#x9;" horiz-adv-x="548" 
 />
    <glyph glyph-name="LF" unicode="&#xa;" horiz-adv-x="548" 
 />
    <glyph glyph-name="CR" unicode="&#xd;" horiz-adv-x="548" 
 />
    <glyph glyph-name="space" unicode=" " horiz-adv-x="548" 
 />
    <glyph glyph-name="exclam" unicode="!" horiz-adv-x="688" 
d="M184 -20q-76 0 -116 52t-25 128q13 76 77 128t140 52t118 -52t25 -128q-16 -76 -79 -128q-64 -52 -140 -52zM688 1479l-272 -975h-240l139 975h373z" />
    <glyph glyph-name="quotedbl" unicode="&#x22;" horiz-adv-x="905" 
d="M422 1523q88 0 125 -63l-180 -573h-162l67 573q62 63 150 63zM819 1523q88 0 125 -63l-180 -573h-164l68 573q63 63 151 63z" />
    <glyph glyph-name="numbersign" unicode="#" horiz-adv-x="1200" 
d="M770 922h-203l-127 -328h201zM1184 1075l-33 -153h-205l-127 -328h178l-32 -154h-205l-168 -440h-178l170 440h-201l-172 -440h-176l168 438h-176l34 156h203l125 326h-176l35 155h203l153 404h176l-153 -404h202l152 404h178l-153 -404h178z" />
    <glyph glyph-name="dollar" unicode="$" horiz-adv-x="1200" 
d="M803 1253q-76 0 -136 -47q-61 -47 -77 -123t22 -124t131 -95q141 -74 193 -171t19 -247q-31 -150 -151 -264q-120 -115 -276 -147l-49 -225h-178l45 213q-188 8 -285 75l56 262q2 0 16 -11q15 -11 21 -14t23 -14q100 -65 203 -65t166 49q62 49 78 126t-21 125
q-36 48 -134 95q-252 121 -197 379q35 158 152 273t276 145l41 186h172l-39 -180q142 -11 228 -74l-45 -219l-21 15q-20 12 -28 16t-30 16t-60 28q-39 16 -115 17z" />
    <glyph glyph-name="percent" unicode="%" horiz-adv-x="1818" 
d="M419 682q65 0 105 89t74 249q35 133 33 238q-3 106 -67 106t-106 -92t-75 -252q-35 -130 -32 -234t68 -104zM1408 815q-64 0 -106 -91t-75 -251q-35 -133 -32 -236t67 -103t105 87q40 88 75 252q35 133 33 237t-67 105zM592 1499q244 0 232 -318q-10 -270 -151 -490
q-48 -75 -122 -119t-166 -44q-306 0 -209 484q40 186 128 323q48 76 122 120t166 44zM1466 1450l-974 -1499l-125 59l974 1497zM1070 633q122 317 366 317t232 -317q-10 -266 -149 -490q-103 -163 -288 -163q-92 0 -148 44q-90 72 -84 255q5 183 71 354z" />
    <glyph glyph-name="ampersand" unicode="&#x26;" horiz-adv-x="1388" 
d="M743 727q-141 0 -245 -85t-133 -214q-51 -242 202 -242q104 0 150 19l110 522h-84zM534 -20q-294 0 -426 110t-88 316q33 156 145 254t263 149l2 6q-213 94 -166 318q35 166 179 266t341 100t308 -61l-50 -230q-115 70 -218 70q-102 0 -166 -47t-82 -131t32 -130
q51 -46 148 -46h612l-43 -197h-184l-140 -661q-172 -86 -467 -86z" />
    <glyph glyph-name="quotesingle" unicode="'" horiz-adv-x="509" 
d="M424 1523q90 0 125 -63l-180 -573h-162l65 573q62 63 152 63z" />
    <glyph glyph-name="parenleft" unicode="(" horiz-adv-x="815" 
d="M944 1552q-424 -460 -532 -968t120 -967l-165 -84q-211 281 -278 532t-9 520t230 519q173 250 503 532z" />
    <glyph glyph-name="parenright" unicode=")" horiz-adv-x="815" 
d="M674 586q-56 -270 -230 -520t-503 -533l-134 84q425 457 533 968t-121 967l168 84q211 -284 277 -532t10 -518z" />
    <glyph glyph-name="asterisk" unicode="*" horiz-adv-x="833" 
d="M889 1200l-260 -80l108 -200l-155 -101l-107 211l-188 -211l-117 101l195 200l-220 80l88 158l213 -90l54 256h164l-54 -256l256 90z" />
    <glyph glyph-name="plus" unicode="+" horiz-adv-x="1155" 
d="M991 723l-43 -205h-313l-70 -323h-205l70 323h-313l43 205h313l68 321h204l-67 -321h313z" />
    <glyph glyph-name="comma" unicode="," horiz-adv-x="620" 
d="M297 338q61 0 89 -26t24 -68l-451 -590h-186l315 590q84 94 209 94z" />
    <glyph glyph-name="hyphen" unicode="-" horiz-adv-x="729" 
d="M625 707l-50 -236h-532l49 236h533z" />
    <glyph glyph-name="hyphen" unicode="&#xad;" horiz-adv-x="729" 
d="M625 707l-50 -236h-532l49 236h533z" />
    <glyph glyph-name="period" unicode="." horiz-adv-x="600" 
d="M139 -20q-73 0 -115 53t-26 127t80 127t137 53t115 -53t27 -127t-79 -127t-139 -53z" />
    <glyph glyph-name="slash" unicode="/" horiz-adv-x="1191" 
d="M1348 1540l-1393 -2013l-174 94l1393 2013z" />
    <glyph glyph-name="zero" unicode="0" horiz-adv-x="1200" 
d="M719 1294q-61 0 -113 -44q-120 -102 -205 -511q-86 -409 -11 -511q32 -44 93 -44q124 0 202 172q62 138 103 321q40 183 51 272t8 173t-35 128t-93 44zM762 1499q385 0 377 -501q-4 -255 -110 -518q-125 -309 -327 -430q-119 -71 -262 -70q-386 0 -374 500q4 258 109 518
q202 501 587 501z" />
    <glyph glyph-name="one" unicode="1" horiz-adv-x="1200" 
d="M1014 1479l-314 -1479h-317l256 1208l-344 -151l45 211l453 211h221z" />
    <glyph glyph-name="two" unicode="2" horiz-adv-x="1200" 
d="M565 1266q-164 0 -278 -66l51 242q147 57 356 57t307 -95t96 -206q-2 -55 -10 -108q-39 -190 -299 -451l-372 -375h512l-56 -264h-864l39 180l500 533q195 207 217 315t-30 173t-169 65z" />
    <glyph glyph-name="three" unicode="3" horiz-adv-x="1200" 
d="M354 -20q-230 0 -348 45l53 254q113 -61 291 -62q119 0 211 66q93 66 111 153q18 86 -6 134q-57 115 -338 108l43 196q354 23 395 220q18 82 -34 130t-174 48t-265 -58l49 234q145 51 351 51q207 0 315 -101t73 -265q-25 -117 -111 -194t-188 -116v-4q122 -45 184 -129
t29 -239q-45 -207 -228 -339t-413 -132z" />
    <glyph glyph-name="four" unicode="4" horiz-adv-x="1200" 
d="M776 1188q-72 -111 -164 -230l-358 -454h371l100 467zM1141 1479l-207 -975h110l-40 -195h-111l-66 -309h-309l66 309h-588l41 195l772 975h332z" />
    <glyph glyph-name="five" unicode="5" horiz-adv-x="1200" 
d="M547 911q264 -1 378 -121q113 -120 69 -324t-229 -345t-421 -141t-338 59l53 254q123 -76 297 -76q111 0 204 72q93 73 116 183q22 110 -58 172t-221 63h-235l244 772h739l-55 -265h-510l-97 -303h64z" />
    <glyph glyph-name="six" unicode="6" horiz-adv-x="1200" 
d="M543 719q-63 0 -133 -25q-29 -63 -52 -172q-72 -346 136 -346q100 0 162 80t87 199q57 264 -200 264zM449 -20q-131 0 -221 46t-129 124q-85 175 -29 395q39 182 130 340t202 263q112 105 241 184q245 150 438 167l-49 -227q-350 -96 -528 -379q63 23 151 22
q197 -1 315 -117t72 -338t-206 -350q-160 -130 -387 -130z" />
    <glyph glyph-name="seven" unicode="7" horiz-adv-x="1200" 
d="M1210 1479l-36 -181l-181 -280q-180 -281 -348 -572t-242 -446h-346l791 1214h-625l56 265h931z" />
    <glyph glyph-name="eight" unicode="8" horiz-adv-x="1200" 
d="M345 242q48 -60 135 -60t156 58t86 140q17 83 -9 141q-27 58 -135 132q-140 -72 -194 -130t-70 -140t31 -141zM728 1315q-81 0 -143 -53q-61 -54 -77 -130t12 -124t121 -121q121 69 171 119t65 125q16 75 -26 129t-123 55zM764 1499q196 1 304 -105t73 -270
q-23 -110 -99 -188t-225 -158q131 -94 181 -187t26 -214q-37 -176 -200 -287q-163 -110 -381 -110t-338 106t-80 289q27 125 114 213q88 88 260 178q-113 82 -154 165q-42 83 -20 191q35 164 189 270t350 107z" />
    <glyph glyph-name="nine" unicode="9" horiz-adv-x="1200" 
d="M842 956q37 134 6 240t-136 106q-104 0 -166 -78q-62 -79 -90 -204t24 -193t179 -67q61 0 132 24q28 63 51 172zM545 563q-197 0 -315 117t-72 338t208 351q161 130 388 130q131 0 221 -46t128 -124q86 -177 30 -395q-39 -182 -131 -340t-204 -263t-240 -185
q-240 -149 -437 -166l47 227q350 96 530 379q-68 -23 -153 -23z" />
    <glyph glyph-name="colon" unicode=":" horiz-adv-x="600" 
d="M139 -20q-73 0 -115 53t-26 127t80 127t137 53t115 -53t27 -127t-79 -127t-139 -53zM276 629q-74 0 -116 53t-25 127q14 74 80 127q65 53 139 53t116 -53t27 -127t-81 -127t-140 -53z" />
    <glyph glyph-name="semicolon" unicode=";" horiz-adv-x="620" 
d="M295 340q63 0 91 -26t24 -70l-451 -590h-186l315 590q86 96 207 96zM309 629q-73 0 -115 53t-26 127q14 74 80 127t140 53t114 -53q42 -53 27 -127t-81 -127t-139 -53z" />
    <glyph glyph-name="semicolon" unicode="&#x37e;" horiz-adv-x="620" 
d="M295 340q63 0 91 -26t24 -70l-451 -590h-186l315 590q86 96 207 96zM309 629q-73 0 -115 53t-26 127q14 74 80 127t140 53t114 -53q42 -53 27 -127t-81 -127t-139 -53z" />
    <glyph glyph-name="less" unicode="&#x3c;" horiz-adv-x="1155" 
d="M1065 1067l-47 -223l-627 -219l533 -222l-47 -221l-758 348l41 189z" />
    <glyph glyph-name="equal" unicode="=" horiz-adv-x="1155" 
d="M946 510l-43 -205h-831l43 205h831zM1036 936l-43 -205h-831l43 205h831z" />
    <glyph glyph-name="greater" unicode="&#x3e;" horiz-adv-x="1155" 
d="M991 719l-41 -189l-905 -348l47 221l627 222l-533 219l47 223z" />
    <glyph glyph-name="question" unicode="?" horiz-adv-x="921" 
d="M264 -20q-74 0 -116 53t-25 127q15 74 79 127t138 53t116 -53t26 -127q-15 -74 -80 -127q-64 -53 -138 -53zM451 1284q-98 0 -258 -65l47 221q154 59 345 59t295 -92t70 -252q-26 -129 -140 -220t-230 -128l-88 -303h-234l49 395q119 23 203 80t100 134t-22 124
q-39 47 -137 47z" />
    <glyph glyph-name="at" unicode="@" horiz-adv-x="1777" 
d="M943 958q-77 0 -157 -76t-127 -170q-107 -211 -52 -309q30 -51 95 -51q120 0 224 142t133 272q20 86 -9 139q-30 53 -107 53zM616 199q-135 0 -185 98t-19 242q41 199 204 384q164 185 361 185q137 0 188 -125l39 88h178l-176 -407q-111 -259 -83 -299q7 -10 26 -11
q78 0 164 96t146 223q181 381 25 569q-103 124 -313 124q-326 0 -601 -252t-345 -579q-59 -277 81 -433t417 -155q219 0 388 75t343 222l64 -115q-188 -160 -383 -241t-445 -81q-352 0 -526 194t-103 538q84 391 421 675t732 285q276 0 414 -160t80 -428q-49 -235 -221 -462
q-82 -109 -194 -181t-224 -71q-73 -1 -105 33t-36 110q-141 -141 -312 -141z" />
    <glyph glyph-name="A" unicode="A" horiz-adv-x="1294" 
d="M725 1104q0 43 2 63l2 23h-4q-20 -72 -70 -170l-225 -455h334l-35 455q-4 41 -4 84zM1135 0h-326l-29 367h-450l-183 -367h-299l793 1479h328z" />
    <glyph glyph-name="B" unicode="B" horiz-adv-x="1251" 
d="M522 684h-84l-106 -498h149q254 0 305 236q29 134 -30 198t-234 64zM571 858q152 0 228 53q75 53 100 170q49 223 -186 224h-144l-94 -447h96zM442 0h-465l314 1479h465q238 1 364 -105t90 -268q-29 -131 -126 -216t-207 -112l-3 -4q111 -29 185 -127t47 -225
q-28 -127 -94 -209q-117 -144 -354 -193q-101 -20 -216 -20z" />
    <glyph glyph-name="C" unicode="C" horiz-adv-x="1146" 
d="M696 231q140 0 244 64l-55 -252q-152 -63 -325 -63q-172 0 -282 61t-157 165q-105 232 -29 533q74 346 288 553t499 207q184 0 303 -63l-49 -236q-27 29 -93 47t-135 19q-199 0 -317 -129t-172 -389q-23 -131 -16 -246t81 -193q75 -78 215 -78z" />
    <glyph glyph-name="D" unicode="D" horiz-adv-x="1314" 
d="M457 211q171 1 279 121t169 407q113 528 -223 529h-117l-225 -1057h117zM399 0h-422l314 1479h405q346 0 474 -204t55 -543q-74 -340 -279 -536t-547 -196z" />
    <glyph glyph-name="E" unicode="E" horiz-adv-x="985" 
d="M1059 1479l-49 -236h-451l-80 -375h398l-50 -229h-397l-86 -403h451l-50 -236h-768l314 1479h768z" />
    <glyph glyph-name="F" unicode="F" horiz-adv-x="976" 
d="M1059 1479l-49 -236h-451l-80 -375h398l-50 -229h-397l-135 -639h-318l314 1479h768z" />
    <glyph glyph-name="G" unicode="G" horiz-adv-x="1232" 
d="M885 1266q-360 0 -471 -525q-51 -266 -1 -397t181 -131q45 0 119 18l129 609h293l-164 -777q-158 -84 -408 -83q-311 0 -429 200t-43 558q75 356 292 558t512 203q184 0 313 -61l-51 -246q-131 74 -272 74z" />
    <glyph glyph-name="H" unicode="H" horiz-adv-x="1323" 
d="M1348 1479l-314 -1479h-317l137 641h-422l-137 -641h-318l314 1479h317l-129 -613h422l129 613h318z" />
    <glyph glyph-name="I" unicode="I" horiz-adv-x="591" 
d="M612 1479l-313 -1479h-317l313 1479h317z" />
    <glyph glyph-name="J" unicode="J" horiz-adv-x="591" 
d="M612 1479l-295 -1391q-53 -254 -224 -387t-419 -145l50 229q96 16 172 89t100 194l299 1411h317z" />
    <glyph glyph-name="K" unicode="K" horiz-adv-x="1216" 
d="M1327 1479l-563 -682l276 -797h-372l-213 733h-4l-156 -733h-318l314 1479h317l-141 -670h4l516 670h340z" />
    <glyph glyph-name="L" unicode="L" horiz-adv-x="907" 
d="M735 233l-49 -233h-709l314 1479h317l-264 -1246h391z" />
    <glyph glyph-name="M" unicode="M" horiz-adv-x="1781" 
d="M1808 1479l-313 -1479h-299l221 1040l-565 -1040h-231l-123 1040l-222 -1040h-299l314 1479h397l125 -1112l596 1112h399z" />
    <glyph glyph-name="N" unicode="N" horiz-adv-x="1392" 
d="M1417 1479l-313 -1479h-266l-316 829l-45 158h-4q-10 -82 -27 -164l-174 -823h-295l314 1479h307l293 -760l45 -141h4q6 70 23 147l159 754h295z" />
    <glyph glyph-name="O" unicode="O" horiz-adv-x="1335" 
d="M784 1282q-256 0 -368 -529t143 -530q256 1 369 530q112 529 -144 529zM831 1499q150 0 252 -60q103 -59 145 -163q93 -227 19 -537q-74 -340 -260 -550t-479 -209q-152 0 -253 59t-144 163q-95 229 -19 537q72 336 259 548t480 212z" />
    <glyph glyph-name="P" unicode="P" horiz-adv-x="1202" 
d="M578 772q108 0 190 60t110 196q28 135 -22 203t-166 67h-119l-112 -526h119zM575 588h-155l-125 -588h-318l314 1479h473q252 0 362 -118t65 -325q-44 -208 -204 -328t-412 -120z" />
    <glyph glyph-name="Q" unicode="Q" horiz-adv-x="1335" 
d="M784 1282q-256 0 -368 -529t143 -530q256 1 369 530q112 529 -144 529zM831 1499q150 0 251 -60q100 -61 144 -163q94 -222 21 -537q-55 -260 -180 -449t-315 -265q57 -33 243 -33l-45 -211q-451 12 -569 211q-145 28 -226 136t-90 264t27 347q72 338 259 549t480 211z
" />
    <glyph glyph-name="R" unicode="R" horiz-adv-x="1234" 
d="M598 829q120 1 188 53t97 185t-19 185t-166 53h-129l-100 -476h129zM803 1479q225 0 327 -113t64 -297q-29 -135 -126 -231t-239 -138l209 -700h-344l-182 645h-82l-137 -645h-316l314 1479h512z" />
    <glyph glyph-name="S" unicode="S" horiz-adv-x="1089" 
d="M752 1274q-209 0 -246 -174q-12 -56 14 -100t61 -66q36 -22 105 -55q184 -87 234 -189t18 -244q-43 -206 -205 -336t-389 -130t-373 77l60 277q154 -111 311 -111q114 0 182 53q68 52 84 130t-36 128t-175 103q-287 127 -225 407q39 188 196 322t382 133q82 0 148 -13
t86 -22t73 -34l-51 -242q-121 86 -254 86z" />
    <glyph glyph-name="T" unicode="T" horiz-adv-x="1028" 
d="M1122 1479l-49 -236h-291l-264 -1243h-317l264 1243h-293l49 236h901z" />
    <glyph glyph-name="U" unicode="U" horiz-adv-x="1284" 
d="M1309 1479l-222 -1041q-43 -209 -211 -334q-168 -124 -392 -124t-341 124t-73 334l221 1041h317l-221 -1047q-20 -100 25 -154t133 -54q89 0 155 54t88 158l222 1043h299z" />
    <glyph glyph-name="V" unicode="V" horiz-adv-x="1208" 
d="M1350 1479l-758 -1479h-289l-131 1479h336l37 -924l-4 -172h2q35 96 69 172l426 924h312z" />
    <glyph glyph-name="W" unicode="W" horiz-adv-x="1740" 
d="M1862 1479l-643 -1479h-293l-8 807l6 149h-6q-23 -72 -56 -149l-352 -807h-295l-18 1479h327l-35 -893l-14 -160h4q27 80 62 160l383 893h237l2 -893l-10 -160h4q25 82 55 160l349 893h301z" />
    <glyph glyph-name="X" unicode="X" horiz-adv-x="1167" 
d="M1282 1479l-520 -701l239 -778h-360l-119 494h-4l-340 -494h-332l560 754l-209 725h346l106 -457h4l320 457h309z" />
    <glyph glyph-name="Y" unicode="Y" horiz-adv-x="1126" 
d="M1274 1479l-582 -875l-129 -604h-317l129 604l-213 875h338l110 -578h4l353 578h307z" />
    <glyph glyph-name="Z" unicode="Z" horiz-adv-x="999" 
d="M1081 1479l-735 -1243h479l-49 -236h-901l735 1243h-424l50 236h845z" />
    <glyph glyph-name="bracketleft" unicode="[" horiz-adv-x="749" 
d="M860 1608l-39 -181h-262l-358 -1685h262l-39 -182h-543l436 2048h543z" />
    <glyph glyph-name="backslash" unicode="\" horiz-adv-x="1196" 
d="M944 -379l-217 -96l-539 2013l218 96z" />
    <glyph glyph-name="bracketright" unicode="]" horiz-adv-x="749" 
d="M805 1608l-436 -2048h-543l39 182h262l358 1685h-262l39 181h543z" />
    <glyph glyph-name="asciicircum" unicode="^" horiz-adv-x="1255" 
d="M1176 1137l-154 -123l-254 372l-416 -372l-100 123l420 432q66 67 148 67t120 -67z" />
    <glyph glyph-name="underscore" unicode="_" horiz-adv-x="1155" 
d="M965 -258l-41 -195h-1196l41 195h1196z" />
    <glyph glyph-name="grave" unicode="`" 
d="M543 1159h-174l-203 287q31 51 135 52t166 -44z" />
    <glyph glyph-name="a" unicode="a" horiz-adv-x="1056" 
d="M612 539q-156 -15 -240 -61t-108 -154q-39 -176 154 -177q66 0 117 23zM492 879q-98 0 -279 -64l41 199q199 55 342 55q410 0 330 -383l-133 -627q-165 -79 -409 -79t-342 83q-97 84 -62 248q27 129 130 212t230 117t305 50l10 49q16 78 -24 109q-41 31 -139 31z" />
    <glyph glyph-name="b" unicode="b" horiz-adv-x="1118" 
d="M692 532q39 154 13 253q-27 99 -140 100q-61 0 -112 -21l-148 -686q33 -16 90 -16q217 -1 297 370zM339 -20q-259 0 -362 77l302 1422h303l-97 -459q88 39 203 39q186 0 273 -138q85 -139 36 -368q-57 -277 -228 -425t-430 -148z" />
    <glyph glyph-name="c" unicode="c" horiz-adv-x="937" 
d="M679 864q-106 0 -203 -91t-130 -245q-34 -154 28 -244t172 -91q110 0 173 40l-45 -210q-86 -43 -244 -43q-229 0 -338 145q-108 145 -54 401t228 400t396 143q131 0 227 -41l-43 -197q-61 33 -167 33z" />
    <glyph glyph-name="d" unicode="d" horiz-adv-x="1118" 
d="M485 172q63 0 95 14l147 688q-33 12 -82 13q-231 0 -305 -359q-78 -356 145 -356zM1155 1479l-301 -1422q-160 -77 -408 -77t-358 138t-54 392q54 254 214 400t366 147q84 0 148 -19l92 441h301z" />
    <glyph glyph-name="e" unicode="e" horiz-adv-x="1091" 
d="M590 891q-84 0 -142 -65t-102 -220h356q29 137 0 211q-28 74 -112 74zM528 186q142 0 328 72l-47 -215q-178 -63 -360 -63q-252 0 -359 147q-106 147 -53 397t220 398t388 147q221 0 297 -171t6 -443h-626q-23 -111 21 -190q43 -79 185 -79z" />
    <glyph glyph-name="f" unicode="f" horiz-adv-x="690" 
d="M811 1522l-41 -191q-162 6 -195 -151l-26 -133h162l-43 -197h-162l-180 -850h-301l180 850h-115l43 197h115l22 106q40 197 186 295t355 74z" />
    <glyph glyph-name="g" unicode="g" horiz-adv-x="1122" 
d="M498 514q90 0 146 51t73 135q39 186 -142 187q-180 -1 -219 -187t142 -186zM393 201h160q182 0 265 -89t56 -221q-36 -166 -186 -264t-380 -98t-344 73t-85 199q8 43 45 111h266q-31 -37 -42 -92q-10 -55 50 -84t158 -29t165 44q67 43 80 109t-21 88q-35 22 -125 21h-144
q-121 0 -203 50t-58 163t151 209q-154 98 -109 309q35 168 167 268t355 101q84 0 174 -22h349l-35 -160h-127q29 -86 8 -187q-33 -160 -165 -264t-359 -104l-92 2q-51 -31 -57 -66t18 -51q25 -16 65 -16z" />
    <glyph glyph-name="h" unicode="h" horiz-adv-x="1130" 
d="M584 872q-76 0 -135 -26l-181 -846h-303l314 1479h303l-99 -469q121 49 236 49q184 1 253 -91t38 -235l-156 -733h-301l154 727q29 145 -123 145z" />
    <glyph glyph-name="i" unicode="i" 
d="M498 1047l-224 -1047h-303l224 1047h303zM375 1186q-68 0 -107 48t-24 116q14 68 73 116t127 50q68 0 106 -49t25 -117q-14 -68 -73 -116t-127 -48z" />
    <glyph glyph-name="j" unicode="j" 
d="M500 1047l-201 -936q-53 -249 -218 -397t-378 -158l43 204q96 29 154 98q57 69 90 218l207 971h303zM377 1186q-68 0 -107 48t-24 116q14 68 73 116t127 50q68 0 107 -49t25 -117t-74 -116t-127 -48z" />
    <glyph glyph-name="k" unicode="k" horiz-adv-x="1089" 
d="M1098 1047l-428 -469l250 -578h-345l-186 528h-4l-113 -528h-301l314 1479h301l-189 -895h4l394 463h303z" />
    <glyph glyph-name="l" unicode="l" 
d="M588 1479l-314 -1479h-303l314 1479h303z" />
    <glyph glyph-name="m" unicode="m" horiz-adv-x="1718" 
d="M1170 879q-80 0 -138 -52l-176 -827h-303l158 741q12 63 -22 101q-33 38 -105 37q-72 0 -133 -19l-183 -860h-303l211 991q193 78 426 78t324 -104q142 104 344 104q202 -1 281 -95t48 -237l-157 -737h-303l157 737q12 61 -17 102q-29 40 -109 40z" />
    <glyph glyph-name="n" unicode="n" horiz-adv-x="1130" 
d="M619 1069q248 0 336 -90t55 -244l-156 -735h-303l156 733q31 145 -125 146q-70 0 -131 -21l-183 -858h-303l211 989q195 80 443 80z" />
    <glyph glyph-name="o" unicode="o" horiz-adv-x="1085" 
d="M571 870q-92 0 -146 -93t-89 -253q-76 -346 88 -346q92 0 146 92t89 254q74 346 -88 346zM923 918q88 -152 36 -394q-51 -242 -203 -394t-373 -150q-221 0 -309 152t-36 392q52 242 204 394t372 152t309 -152z" />
    <glyph glyph-name="p" unicode="p" horiz-adv-x="1118" 
d="M385 170q231 0 307 360q85 361 -143 361q-51 0 -96 -17l-148 -694q47 -10 80 -10zM416 -10q-92 0 -148 18l-96 -448h-301l305 1431q170 78 412 78t351 -138t55 -392q-54 -253 -213 -401t-365 -148z" />
    <glyph glyph-name="q" unicode="q" horiz-adv-x="1118" 
d="M637 895q-221 0 -299 -375q-76 -348 133 -348q66 0 111 21l145 684q-31 18 -90 18zM350 -12q-188 0 -278 138t-38 383t217 403t424 157q259 0 378 -78l-305 -1431h-302l101 467q-88 -39 -197 -39z" />
    <glyph glyph-name="r" unicode="r" horiz-adv-x="718" 
d="M608 1071q74 0 144 -12l-95 -197q-115 27 -206 -8l-183 -854h-303l209 987q221 84 434 84z" />
    <glyph glyph-name="s" unicode="s" horiz-adv-x="839" 
d="M530 872q-57 0 -95 -30t-48 -78q-17 -88 107 -148t162 -131q38 -72 18 -172q-31 -141 -160 -237t-309 -96q-119 0 -256 53l51 235q84 -80 209 -80q57 0 99 32t52 83q12 51 -10 85q-23 34 -90 63q-123 53 -158 126t-16 166q31 137 147 232q117 94 273 94t254 -59l-47 -222
q-90 84 -183 84z" />
    <glyph glyph-name="t" unicode="t" horiz-adv-x="712" 
d="M457 182q27 0 71 11l-39 -185q-61 -29 -155 -28q-156 0 -217 86t-33 215l121 569h-115l43 197h115l47 223l309 80l-63 -303h166l-43 -197h-166l-117 -547q-25 -121 76 -121z" />
    <glyph glyph-name="u" unicode="u" horiz-adv-x="1116" 
d="M1063 1047l-209 -984q-186 -83 -432 -83t-334 88t-49 276l149 703h304l-154 -723q-29 -139 113 -140q78 0 131 27l178 836h303z" />
    <glyph glyph-name="v" unicode="v" horiz-adv-x="1052" 
d="M1075 1047l-555 -1047h-293l-112 1047h319l21 -603l-9 -159h5q20 78 59 159l281 603h284z" />
    <glyph glyph-name="w" unicode="w" horiz-adv-x="1595" 
d="M424 444q0 -88 -14 -151h4q14 61 57 151l289 603h248l22 -603q0 -66 -6 -129l-4 -22h4q18 76 53 153l262 601h267l-510 -1047h-279l-29 567q-5 77 7 125l2 21h-2q-20 -76 -54 -146l-276 -567h-275l-65 1047h301z" />
    <glyph glyph-name="x" unicode="x" horiz-adv-x="1011" 
d="M1030 1047l-403 -486l213 -561h-334l-94 338h-4l-242 -338h-307l442 541l-184 506h317l86 -304h4l228 304h278z" />
    <glyph glyph-name="y" unicode="y" horiz-adv-x="1056" 
d="M1077 1047l-794 -1487h-320l270 440l-116 1047h319l17 -605q0 -99 -11 -143l-4 -23h4q20 78 64 166l289 605h282z" />
    <glyph glyph-name="z" unicode="z" horiz-adv-x="866" 
d="M850 1047l-518 -850h344l-41 -197h-737l534 850h-319l43 197h694z" />
    <glyph glyph-name="braceleft" unicode="{" horiz-adv-x="829" 
d="M924 1608l-35 -160q-113 0 -170 -44t-80 -142l-72 -334q-43 -207 -245 -246q0 -2 -3 -4q86 -16 126 -80t16 -172l-72 -336q-20 -98 20 -142t152 -44l-35 -160q-159 0 -243 35t-118 76q-84 102 -46 254l61 290q41 193 -135 201l35 164q178 4 219 190l61 289
q79 365 564 365z" />
    <glyph glyph-name="bar" unicode="|" horiz-adv-x="509" 
d="M565 1608l-436 -2048h-248l436 2048h248z" />
    <glyph glyph-name="braceright" unicode="}" horiz-adv-x="829" 
d="M762 764l-35 -164q-182 -8 -223 -201l-62 -290q-78 -365 -561 -365l35 160q111 0 169 44t81 142l72 336q47 217 247 252q0 4 2 4q-186 39 -143 246l72 334q20 98 -21 142t-151 44l35 160q341 0 403 -186q25 -75 2 -179l-61 -289q-41 -186 139 -190z" />
    <glyph glyph-name="asciitilde" unicode="~" horiz-adv-x="1255" 
d="M1092 672q-82 -145 -277 -168q-92 -10 -212 62t-197 63q-133 -12 -220 -152l-47 199q111 164 275 178q106 10 213 -63q104 -76 188 -64q139 12 227 145z" />
    <glyph glyph-name="nbspace" unicode="&#xa0;" horiz-adv-x="548" 
 />
    <glyph glyph-name="exclamdown" unicode="&#xa1;" horiz-adv-x="688" 
d="M422 543l-139 -975h-373l272 975h240zM338 707q-76 0 -117 52t-24 128q14 76 78 128q65 52 141 52t116 -52t26 -128q-15 -76 -80 -128q-64 -52 -140 -52z" />
    <glyph glyph-name="cent" unicode="&#xa2;" horiz-adv-x="1200" 
d="M682 416q110 0 174 41l-43 -211q-90 -43 -246 -43l-43 -203h-172l49 227q-147 49 -207 185t-18 337q42 203 161 335q120 132 284 180l45 215h172l-39 -189q131 0 227 -41l-43 -196q-61 33 -152 32q-121 0 -218 -90q-97 -89 -130 -243t29 -245q60 -91 170 -91z" />
    <glyph glyph-name="sterling" unicode="&#xa3;" horiz-adv-x="1200" 
d="M893 1274q-227 0 -281 -254q-18 -84 -12 -162h287l-41 -190h-258q0 -159 -75 -293q-42 -76 -73 -111h541l-55 -264h-961q283 256 334 504q16 76 12 164h-209l41 190h156q-4 139 16 238q33 162 179 282t375 121q228 0 339 -82l-49 -229q-115 86 -266 86z" />
    <glyph glyph-name="currency" unicode="&#xa4;" horiz-adv-x="1200" 
d="M642 946q-87 0 -160 -63t-87 -151t36 -151t137 -63t160 62t88 152t-36 152t-138 62zM658 1157q120 0 212 -63l162 145l137 -141l-165 -150q51 -104 30 -224t-106 -214l137 -160l-164 -125l-119 144q-116 -61 -234 -61t-208 61l-162 -144l-137 142l166 145
q-53 114 -33 228t107 214l-138 162l166 123l119 -145q110 63 230 63z" />
    <glyph glyph-name="yen" unicode="&#xa5;" horiz-adv-x="1200" 
d="M1303 1479l-369 -543h194l-28 -135h-256l-94 -137h321l-29 -136h-333l-113 -528h-303l113 528h-336l28 136h324l-37 137h-258l29 135h196l-139 543h326l104 -592h4l365 592h291z" />
    <glyph glyph-name="brokenbar" unicode="&#xa6;" horiz-adv-x="509" 
d="M303 377l-174 -817h-248l174 817h248zM565 1608l-174 -817h-248l174 817h248z" />
    <glyph glyph-name="section" unicode="&#xa7;" horiz-adv-x="1155" 
d="M565 317q135 77 158 183t-57 188l-158 166q-137 -76 -159 -184t61 -193zM288 -379q-182 0 -294 82l49 234q131 -109 244 -109q63 0 111 31t59 80q16 76 -54 147l-186 188q-84 84 -107 166q-24 82 1 187q45 207 297 342q-82 106 -56 231t144 212q117 87 291 87t278 -78
l-45 -209q-23 23 -62 45q-39 23 -73 35t-92 14q-59 1 -103 -30t-53 -78q-10 -47 4 -82t66 -88l163 -170q82 -84 107 -159t4 -173q-41 -190 -303 -336q96 -115 67 -254t-151 -227q-124 -88 -306 -88z" />
    <glyph glyph-name="dieresis" unicode="&#xa8;" 
d="M225 1423q57 0 91 -37t24 -88t-60 -87q-50 -35 -108 -35t-90 36q-33 36 -23 86q9 51 59 88t107 37zM624 1423q58 0 92 -37t23 -88q-10 -51 -60 -87q-51 -35 -109 -35t-91 36t-22 86q10 51 59 88q50 37 108 37z" />
    <glyph glyph-name="copyright" unicode="&#xa9;" horiz-adv-x="1642" 
d="M963 1028q-205 0 -269 -285q-25 -115 9 -199q33 -84 127 -83q94 0 161 39l-35 -154q-94 -39 -194 -39q-178 0 -240 121q-61 120 -20 314t164 312t284 117q104 1 174 -38l-28 -148q-47 43 -133 43zM959 1376q-249 0 -465 -189t-272 -449q-54 -260 81 -447
q135 -189 385 -189t465 188t270 449t-80 449t-384 188zM662 -20q-299 0 -465 224t-101 535q66 311 328 535t561 225q299 -1 465 -225t100 -535t-328 -535t-560 -224z" />
    <glyph glyph-name="ordfeminine" unicode="&#xaa;" horiz-adv-x="776" 
d="M565 1145q-107 -12 -163 -43t-72 -105q-25 -109 106 -108q49 0 78 12zM414 768q-168 0 -238 57t-44 177t143 175q118 54 311 70l6 29q10 47 -15 69q-25 21 -107 21t-185 -43l30 137q127 39 244 39q287 0 232 -258l-91 -420q-118 -53 -286 -53z" />
    <glyph glyph-name="guillemotleft" unicode="&#xab;" horiz-adv-x="1120" 
d="M608 965l-321 -383l159 -383l-194 -101l-203 484l410 485zM1055 965l-324 -383l162 -383l-197 -101l-202 484l409 485z" />
    <glyph glyph-name="logicalnot" unicode="&#xac;" horiz-adv-x="1155" 
d="M1012 817l-109 -512h-213l66 307h-619l43 205h832z" />
    <glyph glyph-name="registered" unicode="&#xae;" horiz-adv-x="1642" 
d="M870 1051h-65l-53 -254h65q63 -1 99 27t52 100q15 72 -10 100t-88 27zM934 1161q128 -1 186 -65t35 -170q-35 -160 -203 -211l121 -396h-209l-100 363h-37l-78 -363h-188l180 842h293zM959 1376q-249 0 -465 -189t-272 -449q-54 -260 81 -447q135 -189 385 -189t465 188
t270 449t-80 449t-384 188zM662 -20q-299 0 -465 224t-101 535q66 311 328 535t561 225q299 -1 465 -225t100 -535t-328 -535t-560 -224z" />
    <glyph glyph-name="macron" unicode="&#xaf;" 
d="M752 1386l-35 -165h-668l35 165h668z" />
    <glyph glyph-name="macron" unicode="&#x2c9;" 
d="M752 1386l-35 -165h-668l35 165h668z" />
    <glyph glyph-name="degree" unicode="&#xb0;" horiz-adv-x="849" 
d="M484 1004q72 0 132 51q62 51 76 123t-24 122t-111 50q-72 0 -134 -50q-63 -50 -77 -122t26 -123t112 -51zM452 854q-132 0 -208 95t-47 229t144 227q116 94 249 94t207 -94t45 -227q-29 -132 -143 -228q-115 -96 -247 -96z" />
    <glyph glyph-name="plusminus" unicode="&#xb1;" horiz-adv-x="1155" 
d="M895 268l-41 -188h-831l40 188h832zM1022 870l-39 -186h-313l-66 -307h-205l66 307h-313l38 186h314l65 306h205l-65 -306h313z" />
    <glyph glyph-name="twosuperior" unicode="&#xb2;" horiz-adv-x="786" 
d="M544 1499q142 0 199 -74q57 -73 35 -183t-166 -249l-204 -198h288l-37 -183h-516l29 140l268 290q92 100 109 177q25 115 -115 114q-55 0 -133 -30l35 165q66 31 208 31z" />
    <glyph glyph-name="threesuperior" unicode="&#xb3;" horiz-adv-x="786" 
d="M326 600q-140 0 -209 29l39 178q59 -39 163 -39q137 0 162 113q16 73 -35 101t-145 26l25 122q197 18 217 123q8 41 -19 65q-28 24 -96 24t-141 -33l35 161q86 29 210 29t189 -58q65 -59 43 -165t-156 -172q141 -63 109 -221q-27 -127 -139 -205t-252 -78z" />
    <glyph glyph-name="acute" unicode="&#xb4;" 
d="M694 1446l-325 -287h-174l202 295q79 45 183 44t114 -52z" />
    <glyph glyph-name="mu" unicode="&#xb5;" horiz-adv-x="1130" 
d="M456 166q80 0 138 29l182 852h301l-209 -984q-168 -80 -370 -79q-125 0 -224 49l-100 -473h-303l317 1487h304l-181 -848q65 -33 145 -33z" />
    <glyph glyph-name="mu" unicode="&#x3bc;" horiz-adv-x="1130" 
d="M456 166q80 0 138 29l182 852h301l-209 -984q-168 -80 -370 -79q-125 0 -224 49l-100 -473h-303l317 1487h304l-181 -848q65 -33 145 -33z" />
    <glyph glyph-name="paragraph" unicode="&#xb6;" horiz-adv-x="1155" 
d="M1233 1479l-29 -142h-69l-363 -1708h-194l362 1708h-213l-362 -1708h-197l221 1049q-155 27 -229 130t-41 259q43 209 206 310t386 102h522z" />
    <glyph glyph-name="periodcentered" unicode="&#xb7;" horiz-adv-x="600" 
d="M233 426q-73 0 -115 53t-26 127q14 74 80 127t140 53t115 -53q42 -53 27 -127t-81 -127t-140 -53z" />
    <glyph glyph-name="periodcentered" unicode="&#x2219;" horiz-adv-x="600" 
d="M233 426q-73 0 -115 53t-26 127q14 74 80 127t140 53t115 -53q42 -53 27 -127t-81 -127t-140 -53z" />
    <glyph glyph-name="cedilla" unicode="&#xb8;" 
d="M56 -201q-68 0 -138 -4l72 88q219 18 302 -17q82 -36 64 -120q-20 -104 -184 -147t-426 -19l78 101q133 -14 224 5t102 58q4 18 -12 36q-14 18 -82 19z" />
    <glyph glyph-name="onesuperior" unicode="&#xb9;" horiz-adv-x="786" 
d="M729 1479l-184 -875h-219l145 690l-213 -94l31 148l280 131h160z" />
    <glyph glyph-name="ordmasculine" unicode="&#xba;" horiz-adv-x="776" 
d="M524 1366q-115 0 -162 -227q-26 -96 -12 -161t78 -65q112 -1 152 197q27 132 21 177q-5 43 -24 61t-53 18zM397 768q-157 0 -221 102t-30 264t143 264q109 101 263 101t218 -101t30 -263q-34 -163 -140 -265t-263 -102z" />
    <glyph glyph-name="guillemotright" unicode="&#xbb;" horiz-adv-x="1120" 
d="M561 582l-407 -484l-152 101l322 383l-160 383l196 102zM1006 582l-406 -484l-151 101l319 383l-158 383l197 102z" />
    <glyph glyph-name="onequarter" unicode="&#xbc;" horiz-adv-x="1740" 
d="M1333 668q-45 -68 -94 -129l-197 -246h209zM676 1479l-184 -875h-220l146 690l-213 -94l31 148l280 131h160zM1436 1444l-979 -1499l-154 71l977 1497zM1587 874l-125 -581h66l-27 -125h-65l-35 -168h-211l35 168h-338l28 131l461 575h211z" />
    <glyph glyph-name="onehalf" unicode="&#xbd;" horiz-adv-x="1740" 
d="M676 1479l-184 -875h-220l146 690l-213 -94l31 148l280 131h160zM1405 1444l-979 -1499l-154 71l977 1497zM1243 721q-59 0 -133 -31l35 166q66 31 207 31t199 -75q57 -76 35 -184t-165 -247l-204 -199h288l-39 -182h-516l29 139l270 291q92 100 109 176q25 115 -115 115
z" />
    <glyph glyph-name="threequarters" unicode="&#xbe;" horiz-adv-x="1740" 
d="M1343 668q-45 -68 -94 -129l-196 -246h209zM326 600q-140 0 -209 29l39 178q59 -39 163 -39q137 0 162 113q16 73 -35 101t-145 26l25 122q197 18 217 123q8 41 -19 65q-28 24 -96 24t-141 -33l35 161q86 29 210 29t189 -58q65 -59 43 -165t-156 -172q141 -63 109 -221
q-27 -127 -139 -205t-252 -78zM1499 1444l-979 -1499l-153 71l976 1497zM1597 874l-124 -581h65l-27 -125h-65l-35 -168h-211l35 168h-338l29 131l460 575h211z" />
    <glyph glyph-name="questiondown" unicode="&#xbf;" horiz-adv-x="921" 
d="M270 -444q-190 0 -295 92q-104 92 -69 252q27 129 139 220q113 91 231 128l86 303h234l-49 -395q-119 -23 -203 -80q-84 -56 -100 -134t22 -124t138 -48q98 0 258 66l-48 -221q-154 -59 -344 -59zM514 715q-74 0 -116 53t-25 127q14 74 80 127q65 53 139 53t116 -53
t26 -127q-15 -74 -81 -127q-65 -53 -139 -53z" />
    <glyph glyph-name="Agrave" unicode="&#xc0;" horiz-adv-x="1294" 
d="M725 1104q0 43 2 63l2 23h-4q-20 -72 -70 -170l-225 -455h334l-35 455q-4 41 -4 84zM1135 0h-326l-29 367h-450l-183 -367h-299l793 1479h328zM922 1565h-174l-203 284q31 51 136 53t165 -44z" />
    <glyph glyph-name="Aacute" unicode="&#xc1;" horiz-adv-x="1294" 
d="M725 1104q0 43 2 63l2 23h-4q-20 -72 -70 -170l-225 -455h334l-35 455q-4 41 -4 84zM1135 0h-326l-29 367h-450l-183 -367h-299l793 1479h328zM1206 1849l-323 -284h-176l204 293q77 46 181 44t114 -53z" />
    <glyph glyph-name="Acircumflex" unicode="&#xc2;" horiz-adv-x="1294" 
d="M725 1104q0 43 2 63l2 23h-4q-20 -72 -70 -170l-225 -455h334l-35 455q-4 41 -4 84zM1135 0h-326l-29 367h-450l-183 -367h-299l793 1479h328zM892 1880q52 0 81 -39l168 -217l-105 -78l-184 156l-254 -156l-68 78l261 217q49 39 101 39z" />
    <glyph glyph-name="Atilde" unicode="&#xc3;" horiz-adv-x="1294" 
d="M725 1104q0 43 2 63l2 23h-4q-20 -72 -70 -170l-225 -455h334l-35 455q-4 41 -4 84zM1135 0h-326l-29 367h-450l-183 -367h-299l793 1479h328zM969 1579q-57 0 -136 42t-131 42t-121 -43t-92 -82l37 180q98 102 199 103q59 0 135 -42t131 -42t121 43t92 84l-37 -181
q-100 -104 -198 -104z" />
    <glyph glyph-name="Adieresis" unicode="&#xc4;" horiz-adv-x="1294" 
d="M725 1104q0 43 2 63l2 23h-4q-20 -72 -70 -170l-225 -455h334l-35 455q-4 41 -4 84zM1135 0h-326l-29 367h-450l-183 -367h-299l793 1479h328zM625 1573q-57 0 -90 36t-23 87t59 88t107 37t91 -37q34 -37 24 -88q-11 -51 -61 -87t-107 -36zM1024 1573q-58 0 -90 36
q-33 36 -23 87q9 51 59 88t107 37t91 -37t24 -88t-60 -87t-108 -36z" />
    <glyph glyph-name="Aring" unicode="&#xc5;" horiz-adv-x="1294" 
d="M725 1104q0 43 2 63l2 23h-4q-20 -72 -70 -170l-225 -455h334l-35 455q-4 41 -4 84zM877 1817q-35 0 -65 -25q-30 -26 -38 -60t11 -59t55 -25t66 26q30 24 38 59t-12 59t-55 25zM1135 0h-326l-29 367h-450l-183 -367h-299l793 1479h328zM898 1913q74 0 116 -52t26 -128
t-81 -128q-65 -53 -139 -53t-117 52t-27 128q16 75 82 128t140 53z" />
    <glyph glyph-name="AE" unicode="&#xc6;" horiz-adv-x="1615" 
d="M813 1184h-4q-29 -68 -72 -140l-280 -479h327l13 479zM1569 1479l-49 -236h-459l10 -375h373l-49 -229h-324l12 -403h377l-49 -236h-651l4 367h-428l-221 -365h-299l932 1477h821z" />
    <glyph glyph-name="Ccedilla" unicode="&#xc7;" horiz-adv-x="1146" 
d="M390 -201q-68 0 -138 -4l72 88q219 18 303 -17q83 -36 65 -120q-20 -104 -185 -147t-425 -19l78 101q133 -14 224 5t101 58q4 18 -11 36q-16 18 -84 19zM696 231q140 0 244 64l-55 -252q-152 -63 -325 -63q-172 0 -282 61t-157 165q-105 232 -29 533q74 346 288 553
t499 207q184 0 303 -63l-49 -236q-27 29 -93 47t-135 19q-199 0 -317 -129t-172 -389q-23 -131 -16 -246t81 -193q75 -78 215 -78z" />
    <glyph glyph-name="Egrave" unicode="&#xc8;" horiz-adv-x="985" 
d="M1059 1479l-49 -236h-451l-80 -375h398l-50 -229h-397l-86 -403h451l-50 -236h-768l314 1479h768zM829 1565h-174l-202 284q31 51 136 53t165 -44z" />
    <glyph glyph-name="Eacute" unicode="&#xc9;" horiz-adv-x="985" 
d="M1059 1479l-49 -236h-451l-80 -375h398l-50 -229h-397l-86 -403h451l-50 -236h-768l314 1479h768zM1053 1849l-326 -284h-174l203 293q80 46 184 44t113 -53z" />
    <glyph glyph-name="Ecircumflex" unicode="&#xca;" horiz-adv-x="985" 
d="M1059 1479l-49 -236h-451l-80 -375h398l-50 -229h-397l-86 -403h451l-50 -236h-768l314 1479h768zM756 1880q52 0 82 -39l170 -217l-107 -78l-182 156l-254 -156l-70 78l260 217q49 39 101 39z" />
    <glyph glyph-name="Edieresis" unicode="&#xcb;" horiz-adv-x="985" 
d="M1059 1479l-49 -236h-451l-80 -375h398l-50 -229h-397l-86 -403h451l-50 -236h-768l314 1479h768zM490 1573q-58 0 -91 36t-22 87q10 51 59 88q48 37 106 37t92 -37t23 -88q-10 -51 -60 -87q-49 -36 -107 -36zM888 1573q-58 0 -91 36t-23 87t60 88t107 37q58 0 92 -37
t24 -88q-11 -51 -61 -87t-108 -36z" />
    <glyph glyph-name="Igrave" unicode="&#xcc;" horiz-adv-x="591" 
d="M612 1479l-313 -1479h-317l313 1479h317zM625 1565h-174l-203 284q31 51 136 53t165 -44z" />
    <glyph glyph-name="Iacute" unicode="&#xcd;" horiz-adv-x="591" 
d="M612 1479l-313 -1479h-317l313 1479h317zM834 1849l-326 -284h-174l203 293q79 46 183 44t114 -53z" />
    <glyph glyph-name="Icircumflex" unicode="&#xce;" horiz-adv-x="591" 
d="M612 1479l-313 -1479h-317l313 1479h317zM540 1878q54 0 81 -37l170 -217l-105 -78l-184 156l-254 -156l-68 78l260 217q46 37 100 37z" />
    <glyph glyph-name="Idieresis" unicode="&#xcf;" horiz-adv-x="591" 
d="M612 1479l-313 -1479h-317l313 1479h317zM272 1573q-58 0 -90 36q-33 36 -22 87q10 51 59 88t107 37t90 -37q34 -37 24 -88t-60 -87t-108 -36zM672 1573q-57 0 -90 36t-23 87t59 88q48 37 106 37t92 -37t24 -88t-60 -87t-108 -36z" />
    <glyph glyph-name="Eth" unicode="&#xd0;" horiz-adv-x="1345" 
d="M494 211q170 -1 278 121t170 409q113 526 -223 527h-117l-82 -377h182l-40 -201h-183l-102 -479h117zM436 0h-422l148 690h-109l41 201h109l125 588h405q347 0 475 -204t54 -543q-74 -340 -279 -536t-547 -196z" />
    <glyph glyph-name="Ntilde" unicode="&#xd1;" horiz-adv-x="1392" 
d="M1417 1479l-313 -1479h-266l-316 829l-45 158h-4q-10 -82 -27 -164l-174 -823h-295l314 1479h307l293 -760l45 -141h4q6 70 23 147l159 754h295zM1020 1579q-57 0 -136 42t-131 42t-121 -43t-91 -82l37 180q98 102 198 103q59 0 135 -42t131 -42q56 0 122 43t91 84
l-36 -181q-100 -104 -199 -104z" />
    <glyph glyph-name="Ograve" unicode="&#xd2;" horiz-adv-x="1335" 
d="M784 1282q-256 0 -368 -529t143 -530q256 1 369 530q112 529 -144 529zM831 1499q150 0 252 -60q103 -59 145 -163q93 -227 19 -537q-74 -340 -260 -550t-479 -209q-152 0 -253 59t-144 163q-95 229 -19 537q72 336 259 548t480 212zM985 1565h-176l-201 284
q31 51 135 53t164 -44z" />
    <glyph glyph-name="Oacute" unicode="&#xd3;" horiz-adv-x="1335" 
d="M784 1282q-256 0 -368 -529t143 -530q256 1 369 530q112 529 -144 529zM831 1499q150 0 252 -60q103 -59 145 -163q93 -227 19 -537q-74 -340 -260 -550t-479 -209q-152 0 -253 59t-144 163q-95 229 -19 537q72 336 259 548t480 212zM1198 1849l-326 -284h-174l203 293
q81 46 183 44t114 -53z" />
    <glyph glyph-name="Ocircumflex" unicode="&#xd4;" horiz-adv-x="1335" 
d="M784 1282q-256 0 -368 -529t143 -530q256 1 369 530q112 529 -144 529zM831 1499q150 0 252 -60q103 -59 145 -163q93 -227 19 -537q-74 -340 -260 -550t-479 -209q-152 0 -253 59t-144 163q-95 229 -19 537q72 336 259 548t480 212zM914 1880q52 0 81 -39l170 -217
l-106 -78l-182 156l-254 -156l-70 78l260 217q49 39 101 39z" />
    <glyph glyph-name="Otilde" unicode="&#xd5;" horiz-adv-x="1335" 
d="M784 1282q-256 0 -368 -529t143 -530q256 1 369 530q112 529 -144 529zM831 1499q150 0 252 -60q103 -59 145 -163q93 -227 19 -537q-74 -340 -260 -550t-479 -209q-152 0 -253 59t-144 163q-95 229 -19 537q72 336 259 548t480 212zM997 1579q-57 0 -136 42t-131 42
t-121 -43t-91 -82l37 180q98 102 199 103q59 0 135 -42t131 -42q56 0 122 43t91 84l-37 -181q-100 -104 -199 -104z" />
    <glyph glyph-name="Odieresis" unicode="&#xd6;" horiz-adv-x="1335" 
d="M784 1282q-256 0 -368 -529t143 -530q256 1 369 530q112 529 -144 529zM831 1499q150 0 252 -60q103 -59 145 -163q93 -227 19 -537q-74 -340 -260 -550t-479 -209q-152 0 -253 59t-144 163q-95 229 -19 537q72 336 259 548t480 212zM646 1573q-58 0 -91 36t-23 87t60 88
t107 37q58 0 92 -37t24 -88t-60 -87q-51 -36 -109 -36zM1046 1573q-58 0 -92 36q-33 36 -22 87q10 51 59 88t107 37t92 -37q32 -37 22 -88t-59 -87t-107 -36z" />
    <glyph glyph-name="multiply" unicode="&#xd7;" horiz-adv-x="1155" 
d="M1042 928l-354 -307l227 -308l-170 -137l-221 305l-352 -303l-106 135l350 308l-223 307l169 137l222 -305l352 305z" />
    <glyph glyph-name="Oslash" unicode="&#xd8;" horiz-adv-x="1335" 
d="M559 223q256 0 369 529q35 167 33 282l-568 -676q37 -135 166 -135zM784 1282q-256 0 -368 -530q-33 -154 -35 -258l563 669q-41 119 -160 119zM831 1499q197 0 310 -102l131 155l78 -57l-148 -174q125 -205 48 -563t-263 -569q-186 -210 -479 -209q-215 0 -332 120
l-143 -172l-78 58l166 198q-105 203 -31 547t261 556t480 212z" />
    <glyph glyph-name="Ugrave" unicode="&#xd9;" horiz-adv-x="1284" 
d="M1309 1479l-222 -1041q-43 -209 -211 -334q-168 -124 -392 -124t-341 124t-73 334l221 1041h317l-221 -1047q-20 -100 25 -154t133 -54q89 0 155 54t88 158l222 1043h299zM985 1565h-174l-203 284q31 51 136 53t165 -44z" />
    <glyph glyph-name="Uacute" unicode="&#xda;" horiz-adv-x="1284" 
d="M1309 1479l-222 -1041q-43 -209 -211 -334q-168 -124 -392 -124t-341 124t-73 334l221 1041h317l-221 -1047q-20 -100 25 -154t133 -54q89 0 155 54t88 158l222 1043h299zM1184 1849l-326 -284h-174l203 293q79 46 183 44t114 -53z" />
    <glyph glyph-name="Ucircumflex" unicode="&#xdb;" horiz-adv-x="1284" 
d="M1309 1479l-222 -1041q-43 -209 -211 -334q-168 -124 -392 -124t-341 124t-73 334l221 1041h317l-221 -1047q-20 -100 25 -154t133 -54q89 0 155 54t88 158l222 1043h299zM900 1880q52 0 81 -39l170 -217l-107 -78l-182 156l-254 -156l-69 78l260 217q49 39 101 39z" />
    <glyph glyph-name="Udieresis" unicode="&#xdc;" horiz-adv-x="1284" 
d="M1309 1479l-222 -1041q-43 -209 -211 -334q-168 -124 -392 -124t-341 124t-73 334l221 1041h317l-221 -1047q-20 -100 25 -154t133 -54q89 0 155 54t88 158l222 1043h299zM635 1573q-57 0 -90 36t-23 87t60 88t106 37q57 0 91 -37t24 -88q-11 -51 -61 -87t-107 -36z
M1034 1573q-58 0 -90 36q-33 36 -22 87q10 51 59 88t106 37t91 -37t24 -88t-60 -87t-108 -36z" />
    <glyph glyph-name="Yacute" unicode="&#xdd;" horiz-adv-x="1126" 
d="M1274 1479l-582 -875l-129 -604h-317l129 604l-213 875h338l110 -578h4l353 578h307zM1128 1849l-323 -284h-176l205 293q78 46 181 44t113 -53z" />
    <glyph glyph-name="Thorn" unicode="&#xde;" horiz-adv-x="1210" 
d="M520 504q109 0 191 60q81 61 110 196t-22 203t-166 67h-119l-113 -526h119zM518 319h-156l-67 -319h-318l314 1479h317l-55 -269h156q253 0 361 -118t64 -325q-44 -206 -204 -327t-412 -121z" />
    <glyph glyph-name="germandbls" unicode="&#xdf;" horiz-adv-x="1179" 
d="M584 -20q-104 0 -207 49l49 235q63 -63 149 -63q51 0 94 32q42 33 52 83t-6 85t-66 74q-117 94 -83 254t210 227q18 33 35 103q55 264 -98 264q-158 0 -230 -334l-211 -989h-303l205 965q53 249 203 405t368 156t310 -130t51 -327q-20 -100 -62 -174q-168 -31 -192 -150
q-10 -45 6 -79t70 -78q127 -109 93 -269q-34 -159 -158 -249t-279 -90z" />
    <glyph glyph-name="agrave" unicode="&#xe0;" horiz-adv-x="1056" 
d="M612 539q-156 -15 -240 -61t-108 -154q-39 -176 154 -177q66 0 117 23zM492 879q-98 0 -279 -64l41 199q199 55 342 55q410 0 330 -383l-133 -627q-165 -79 -409 -79t-342 83q-97 84 -62 248q27 129 130 212t230 117t305 50l10 49q16 78 -24 109q-41 31 -139 31z
M780 1161h-176l-203 287q33 51 137 52t162 -44z" />
    <glyph glyph-name="aacute" unicode="&#xe1;" horiz-adv-x="1056" 
d="M612 539q-156 -15 -240 -61t-108 -154q-39 -176 154 -177q66 0 117 23zM492 879q-98 0 -279 -64l41 199q199 55 342 55q410 0 330 -383l-133 -627q-165 -79 -409 -79t-342 83q-97 84 -62 248q27 129 130 212t230 117t305 50l10 49q16 78 -24 109q-41 31 -139 31z
M1026 1448l-324 -287h-174l201 295q79 45 183 44t114 -52z" />
    <glyph glyph-name="acircumflex" unicode="&#xe2;" horiz-adv-x="1056" 
d="M612 539q-156 -15 -240 -61t-108 -154q-39 -176 154 -177q66 0 117 23zM492 879q-98 0 -279 -64l41 199q199 55 342 55q410 0 330 -383l-133 -627q-165 -79 -409 -79t-342 83q-97 84 -62 248q27 129 130 212t230 117t305 50l10 49q16 78 -24 109q-41 31 -139 31z
M698 1477q55 0 82 -37l170 -217l-104 -80l-184 155l-252 -155l-72 80l260 217q45 37 100 37z" />
    <glyph glyph-name="atilde" unicode="&#xe3;" horiz-adv-x="1056" 
d="M612 539q-156 -15 -240 -61t-108 -154q-39 -176 154 -177q66 0 117 23zM492 879q-98 0 -279 -64l41 199q199 55 342 55q410 0 330 -383l-133 -627q-165 -79 -409 -79t-342 83q-97 84 -62 248q27 129 130 212t230 117t305 50l10 49q16 78 -24 109q-41 31 -139 31z
M774 1178q-57 0 -136 42t-131 42t-120 -43t-92 -82l39 180q92 102 196 102q58 0 136 -42t133 -42t121 43t92 84l-39 -180q-94 -104 -199 -104z" />
    <glyph glyph-name="adieresis" unicode="&#xe4;" horiz-adv-x="1056" 
d="M612 539q-156 -15 -240 -61t-108 -154q-39 -176 154 -177q66 0 117 23zM492 879q-98 0 -279 -64l41 199q199 55 342 55q410 0 330 -383l-133 -627q-165 -79 -409 -79t-342 83q-97 84 -62 248q27 129 130 212t230 117t305 50l10 49q16 78 -24 109q-41 31 -139 31z
M606 1300q-10 -51 -59 -87q-49 -35 -107 -35t-92 36q-33 36 -22 86q10 50 59 88t107 38t92 -37q32 -38 22 -89zM1006 1300q-10 -51 -60 -87q-50 -35 -108 -35q-57 0 -90 36t-23 86t59 88q48 38 106 38t92 -38q34 -37 24 -88z" />
    <glyph glyph-name="aring" unicode="&#xe5;" horiz-adv-x="1056" 
d="M612 539q-156 -15 -240 -61t-108 -154q-39 -176 154 -177q66 0 117 23zM651 1247q35 1 65 25t38 59t-12 60t-54 25t-64 -26q-30 -24 -38 -59t11 -59t54 -25zM492 879q-98 0 -279 -64l41 199q199 55 342 55q410 0 330 -383l-133 -627q-165 -79 -409 -79t-342 83
q-97 84 -62 248q27 129 130 212t230 117t305 50l10 49q16 78 -24 109q-41 31 -139 31zM630 1151q-76 0 -116 52q-41 52 -25 128q15 76 79 128t140 52t118 -52q40 -52 25 -128t-80 -128t-141 -52z" />
    <glyph glyph-name="ae" unicode="&#xe6;" horiz-adv-x="1615" 
d="M600 537q-150 -13 -238 -63t-110 -155q-35 -170 119 -169q67 0 115 38t63 107zM1116 889q-86 1 -143 -63t-103 -222h357q59 285 -111 285zM1054 188q142 0 326 70l-45 -213q-184 -65 -383 -65t-280 155q-121 -156 -353 -155q-197 0 -285 85t-57 227q30 142 128 225
q99 83 225 119t305 54l10 47q16 74 -25 108q-42 34 -111 34t-157 -22t-141 -44l43 201q162 55 332 55q205 0 252 -145q63 70 153 108t176 37q221 1 299 -167t7 -449h-627q-23 -109 22 -187q44 -78 186 -78z" />
    <glyph glyph-name="ccedilla" unicode="&#xe7;" horiz-adv-x="937" 
d="M227 -201q-47 0 -116 -4l71 88q219 19 302 -17t65 -120q-20 -104 -184 -147t-426 -19l79 101q132 -14 224 5t101 57t-42 50q-27 6 -74 6zM679 864q-106 0 -203 -91t-130 -245q-34 -154 28 -244t172 -91q110 0 173 40l-45 -210q-86 -43 -244 -43q-229 0 -338 145
q-108 145 -54 401t228 400t396 143q131 0 227 -41l-43 -197q-61 33 -167 33z" />
    <glyph glyph-name="egrave" unicode="&#xe8;" horiz-adv-x="1091" 
d="M590 891q-84 0 -142 -65t-102 -220h356q29 137 0 211q-28 74 -112 74zM528 186q142 0 328 72l-47 -215q-178 -63 -360 -63q-252 0 -359 147q-106 147 -53 397t220 398t388 147q221 0 297 -171t6 -443h-626q-23 -111 21 -190q43 -79 185 -79zM776 1161h-176l-203 287
q33 51 137 52t162 -44z" />
    <glyph glyph-name="eacute" unicode="&#xe9;" horiz-adv-x="1091" 
d="M590 891q-84 0 -142 -65t-102 -220h356q29 137 0 211q-28 74 -112 74zM528 186q142 0 328 72l-47 -215q-178 -63 -360 -63q-252 0 -359 147q-106 147 -53 397t220 398t388 147q221 0 297 -171t6 -443h-626q-23 -111 21 -190q43 -79 185 -79zM1032 1448l-323 -287h-174
l200 295q79 45 183 44t114 -52z" />
    <glyph glyph-name="ecircumflex" unicode="&#xea;" horiz-adv-x="1091" 
d="M590 891q-84 0 -142 -65t-102 -220h356q29 137 0 211q-28 74 -112 74zM528 186q142 0 328 72l-47 -215q-178 -63 -360 -63q-252 0 -359 147q-106 147 -53 397t220 398t388 147q221 0 297 -171t6 -443h-626q-23 -111 21 -190q43 -79 185 -79zM710 1477q56 0 83 -37
l170 -217l-103 -80l-186 155l-252 -155l-72 80l260 217q44 37 100 37z" />
    <glyph glyph-name="edieresis" unicode="&#xeb;" horiz-adv-x="1091" 
d="M590 891q-84 0 -142 -65t-102 -220h356q29 137 0 211q-28 74 -112 74zM528 186q142 0 328 72l-47 -215q-178 -63 -360 -63q-252 0 -359 147q-106 147 -53 397t220 398t388 147q221 0 297 -171t6 -443h-626q-23 -111 21 -190q43 -79 185 -79zM618 1300q-10 -51 -60 -87
q-50 -35 -107 -35t-91 35q-33 36 -22 87q10 50 59 88t107 38t91 -37q33 -38 23 -89zM1016 1300q-10 -51 -60 -87q-50 -35 -108 -35q-57 0 -90 36t-23 86q9 50 59 88t107 38t91 -38q34 -37 24 -88z" />
    <glyph glyph-name="igrave" unicode="&#xec;" 
d="M498 1047l-224 -1047h-303l224 1047h303zM514 1159h-174l-203 287q31 51 135 52t166 -44z" />
    <glyph glyph-name="iacute" unicode="&#xed;" 
d="M498 1047l-224 -1047h-303l224 1047h303zM721 1446l-326 -287h-174l203 295q80 45 184 44t113 -52z" />
    <glyph glyph-name="icircumflex" unicode="&#xee;" 
d="M498 1047l-224 -1047h-303l224 1047h303zM437 1475q54 0 81 -37l170 -217l-104 -80l-185 155l-254 -155l-67 80l258 217q47 37 101 37z" />
    <glyph glyph-name="idieresis" unicode="&#xef;" 
d="M498 1047l-224 -1047h-303l224 1047h303zM225 1423q57 0 91 -37t24 -88t-60 -87q-50 -35 -108 -35t-90 36q-33 36 -23 86q9 51 59 88t107 37zM624 1423q58 0 90 -37t23 -88q-10 -51 -59 -87q-50 -35 -108 -35t-91 36t-22 86q10 51 59 88q50 37 108 37z" />
    <glyph glyph-name="eth" unicode="&#xf0;" horiz-adv-x="1099" 
d="M684 866q-43 14 -82 15q-100 0 -162 -85t-102 -270q-39 -158 -17 -248q21 -90 111 -92q90 0 145 89q54 89 93 275t14 316zM584 1059q63 0 94 -10q-18 102 -60 200l-188 -57q-16 63 -55 113l182 55q-35 59 -74 104l277 84q47 -59 69 -102l168 51q42 -68 58 -113l-170 -51
q170 -389 82 -801q-53 -252 -205 -402t-371 -150t-312 148t-44 384t198 392q150 155 351 155z" />
    <glyph glyph-name="ntilde" unicode="&#xf1;" horiz-adv-x="1130" 
d="M619 1069q248 0 336 -90t55 -244l-156 -735h-303l156 733q31 145 -125 146q-70 0 -131 -21l-183 -858h-303l211 989q195 80 443 80zM805 1178q-57 0 -136 42t-131 42t-120 -43t-92 -82l39 180q92 102 196 102q59 0 136 -42t132 -42t121 43t92 84l-38 -180
q-94 -104 -199 -104z" />
    <glyph glyph-name="ograve" unicode="&#xf2;" horiz-adv-x="1085" 
d="M426 186q92 0 146 91t90 251q74 348 -89 349q-92 1 -146 -93t-89 -256q-76 -342 88 -342zM614 1067q220 -1 308 -151q89 -150 37 -392q-51 -242 -203 -394t-373 -150q-221 0 -309 152t-36 392q52 242 204 392t372 151zM760 1159h-174l-203 287q31 51 135 52t166 -44z" />
    <glyph glyph-name="oacute" unicode="&#xf3;" horiz-adv-x="1085" 
d="M426 186q92 0 146 91t90 251q74 348 -89 349q-92 1 -146 -93t-89 -256q-76 -342 88 -342zM614 1067q220 -1 308 -151q89 -150 37 -392q-51 -242 -203 -394t-373 -150q-221 0 -309 152t-36 392q52 242 204 392t372 151zM1016 1446l-326 -287h-174l203 295q81 45 183 44
t114 -52z" />
    <glyph glyph-name="ocircumflex" unicode="&#xf4;" horiz-adv-x="1085" 
d="M426 186q92 0 146 91t90 251q74 348 -89 349q-92 1 -146 -93t-89 -256q-76 -342 88 -342zM614 1067q220 -1 308 -151q89 -150 37 -392q-51 -242 -203 -394t-373 -150q-221 0 -309 152t-36 392q52 242 204 392t372 151zM699 1475q54 0 83 -37l170 -217l-104 -80l-184 155
l-254 -155l-70 80l260 217q45 37 99 37z" />
    <glyph glyph-name="otilde" unicode="&#xf5;" horiz-adv-x="1085" 
d="M426 186q92 0 146 91t90 251q74 348 -89 349q-92 1 -146 -93t-89 -256q-76 -342 88 -342zM614 1067q220 -1 308 -151q89 -150 37 -392q-51 -242 -203 -394t-373 -150q-221 0 -309 152t-36 392q52 242 204 392t372 151zM784 1176q-57 0 -136 42t-131 42t-121 -43t-91 -82
l37 180q98 102 199 102q59 0 135 -42t131 -42t121 43t94 84l-39 -180q-100 -104 -199 -104z" />
    <glyph glyph-name="odieresis" unicode="&#xf6;" horiz-adv-x="1085" 
d="M426 186q92 0 146 91t90 251q74 348 -89 349q-92 1 -146 -93t-89 -256q-76 -342 88 -342zM614 1067q220 -1 308 -151q89 -150 37 -392q-51 -242 -203 -394t-373 -150q-221 0 -309 152t-36 392q52 242 204 392t372 151zM488 1423q58 0 92 -37t24 -88t-60 -87
q-50 -35 -108 -35t-91 36q-32 36 -21 86q10 51 58 88t106 37zM888 1423q58 0 92 -37t24 -88t-60 -87q-50 -35 -109 -35q-58 0 -92 35q-33 36 -22 87q10 51 59 88q50 37 108 37z" />
    <glyph glyph-name="divide" unicode="&#xf7;" horiz-adv-x="1155" 
d="M455 154q-55 0 -86 40t-19 95t60 94t102 39q56 0 86 -39t18 -94t-59 -95t-102 -40zM985 696l-33 -153h-831l33 153h831zM596 819q-55 0 -86 39t-18 94q10 54 58 94t103 40t85 -40q30 -39 19 -94t-59 -94t-102 -39z" />
    <glyph glyph-name="oslash" unicode="&#xf8;" horiz-adv-x="1085" 
d="M424 172q170 0 242 352q26 127 24 193l-371 -471q29 -74 105 -74zM562 879q-87 1 -142 -95t-84 -229t-29 -211l369 469q-27 66 -114 66zM1010 1120l-123 -157q135 -133 71 -439q-52 -244 -204 -394t-371 -150q-137 0 -227 61l-121 -154l-60 39l129 164q-129 145 -67 434
q53 242 205 394t370 151q137 0 222 -59l116 149z" />
    <glyph glyph-name="ugrave" unicode="&#xf9;" horiz-adv-x="1116" 
d="M1063 1047l-209 -984q-186 -83 -432 -83t-334 88t-49 276l149 703h304l-154 -723q-29 -139 113 -140q78 0 131 27l178 836h303zM793 1159h-175l-202 287q31 51 135 52t166 -44z" />
    <glyph glyph-name="uacute" unicode="&#xfa;" horiz-adv-x="1116" 
d="M1063 1047l-209 -984q-186 -83 -432 -83t-334 88t-49 276l149 703h304l-154 -723q-29 -139 113 -140q78 0 131 27l178 836h303zM1032 1446l-325 -287h-175l203 295q79 45 183 44t114 -52z" />
    <glyph glyph-name="ucircumflex" unicode="&#xfb;" horiz-adv-x="1116" 
d="M1063 1047l-209 -984q-186 -83 -432 -83t-334 88t-49 276l149 703h304l-154 -723q-29 -139 113 -140q78 0 131 27l178 836h303zM716 1475q54 0 83 -37l170 -217l-105 -80l-184 155l-254 -155l-68 80l258 217q46 37 100 37z" />
    <glyph glyph-name="udieresis" unicode="&#xfc;" horiz-adv-x="1116" 
d="M1063 1047l-209 -984q-186 -83 -432 -83t-334 88t-49 276l149 703h304l-154 -723q-29 -139 113 -140q78 0 131 27l178 836h303zM504 1423q58 0 93 -37q34 -37 24 -88q-11 -51 -61 -87q-50 -35 -108 -35t-92 35q-33 36 -22 87q10 51 59 88t107 37zM904 1423q58 0 91 -37
t23 -88t-60 -87q-50 -35 -107 -35q-58 0 -91 36t-23 86q9 51 59 88t108 37z" />
    <glyph glyph-name="yacute" unicode="&#xfd;" horiz-adv-x="1056" 
d="M1077 1047l-794 -1487h-320l270 440l-116 1047h319l17 -605q0 -99 -11 -143l-4 -23h4q20 78 64 166l289 605h282zM1012 1446l-326 -287h-174l203 295q79 45 183 44t114 -52z" />
    <glyph glyph-name="thorn" unicode="&#xfe;" horiz-adv-x="1118" 
d="M383 168q231 0 309 360q84 361 -143 361q-51 0 -96 -17l-148 -692q37 -12 78 -12zM416 -12q-92 0 -148 18l-96 -446h-301l408 1919h301l-86 -414q61 4 98 4q238 1 347 -139t55 -394t-213 -401t-365 -147z" />
    <glyph glyph-name="ydieresis" unicode="&#xff;" horiz-adv-x="1056" 
d="M1077 1047l-794 -1487h-320l270 440l-116 1047h319l17 -605q0 -99 -11 -143l-4 -23h4q20 78 64 166l289 605h282zM494 1423q58 0 90 -37q34 -37 24 -88t-60 -87q-50 -35 -108 -35t-90 36q-33 36 -22 86q10 51 59 88t107 37zM892 1423q58 0 92 -37t24 -88t-60 -87
q-50 -35 -108 -35q-57 0 -90 36t-23 86q10 51 59 88q48 37 106 37z" />
    <glyph glyph-name="Amacron" unicode="&#x100;" horiz-adv-x="1294" 
d="M725 1104q0 43 2 63l2 23h-4q-20 -72 -70 -170l-225 -455h334l-35 455q-4 41 -4 84zM1135 0h-326l-29 367h-450l-183 -367h-299l793 1479h328zM1194 1804l-35 -166h-667l34 166h668z" />
    <glyph glyph-name="amacron" unicode="&#x101;" horiz-adv-x="1056" 
d="M612 539q-156 -15 -240 -61t-108 -154q-39 -176 154 -177q66 0 117 23zM492 879q-98 0 -279 -64l41 199q199 55 342 55q410 0 330 -383l-133 -627q-165 -79 -409 -79t-342 83q-97 84 -62 248q27 129 130 212t230 117t305 50l10 49q16 78 -24 109q-41 31 -139 31z
M1006 1386l-35 -165h-668l35 165h668z" />
    <glyph glyph-name="Abreve" unicode="&#x102;" horiz-adv-x="1294" 
d="M725 1104q0 43 2 63l2 23h-4q-20 -72 -70 -170l-225 -455h334l-35 455q-4 41 -4 84zM1135 0h-326l-29 367h-450l-183 -367h-299l793 1479h328zM809 1573q-80 0 -135 30t-76 72q-49 106 -23 189l113 28q6 -156 154 -155q137 0 225 155l98 -28q-23 -109 -113 -200t-243 -91
z" />
    <glyph glyph-name="abreve" unicode="&#x103;" horiz-adv-x="1056" 
d="M612 539q-156 -15 -240 -61t-108 -154q-39 -176 154 -177q66 0 117 23zM492 879q-98 0 -279 -64l41 199q199 55 342 55q410 0 330 -383l-133 -627q-165 -79 -409 -79t-342 83q-97 84 -62 248q27 129 130 212t230 117t305 50l10 49q16 78 -24 109q-41 31 -139 31z
M623 1155q-79 0 -135 30q-56 31 -76 73q-50 106 -23 188l113 29q6 -156 153 -156q137 0 226 156l98 -29q-23 -109 -114 -200t-242 -91z" />
    <glyph glyph-name="Aogonek" unicode="&#x104;" horiz-adv-x="1294" 
d="M725 1104q0 43 2 63l2 23h-4q-20 -72 -70 -170l-225 -455h334l-35 455q-4 41 -4 84zM887 -209q0 -59 94 -51q49 4 117 31l12 -103q-88 -43 -185 -54q-97 -10 -169 22t-72 106q0 137 229 258h-104l-29 367h-450l-183 -367h-299l793 1479h328l166 -1479h-43
q-205 -121 -205 -209z" />
    <glyph glyph-name="aogonek" unicode="&#x105;" horiz-adv-x="1056" 
d="M612 539q-156 -15 -240 -61t-108 -154q-39 -176 154 -177q66 0 117 23zM512 -211q0 -56 93 -49q50 4 118 31l12 -103q-88 -43 -185 -54q-97 -10 -169 22t-72 106q0 127 205 246q-59 -8 -147 -8q-227 0 -325 83q-97 84 -62 248q27 129 130 212t230 117t305 50l10 49
q16 78 -24 109q-41 31 -139 31t-279 -64l41 199q199 55 342 55q410 0 330 -383l-133 -627q-134 -66 -207 -140q-74 -74 -74 -130z" />
    <glyph glyph-name="Cacute" unicode="&#x106;" horiz-adv-x="1146" 
d="M696 231q140 0 244 64l-55 -252q-152 -63 -325 -63q-172 0 -282 61t-157 165q-105 232 -29 533q74 346 288 553t499 207q184 0 303 -63l-49 -236q-27 29 -93 47t-135 19q-199 0 -317 -129t-172 -389q-23 -131 -16 -246t81 -193q75 -78 215 -78zM1194 1864l-326 -287h-174
l203 295q79 45 183 44t114 -52z" />
    <glyph glyph-name="cacute" unicode="&#x107;" horiz-adv-x="937" 
d="M679 864q-106 0 -203 -91t-130 -245q-34 -154 28 -244t172 -91q110 0 173 40l-45 -210q-86 -43 -244 -43q-229 0 -338 145q-108 145 -54 401t228 400t396 143q131 0 227 -41l-43 -197q-61 33 -167 33zM981 1446l-326 -287h-174l203 295q80 45 184 44t113 -52z" />
    <glyph glyph-name="Ccircumflex" unicode="&#x108;" horiz-adv-x="1146" 
d="M696 231q140 0 244 64l-55 -252q-152 -63 -325 -63q-172 0 -282 61t-157 165q-105 232 -29 533q74 346 288 553t499 207q184 0 303 -63l-49 -236q-27 29 -93 47t-135 19q-199 0 -317 -129t-172 -389q-23 -131 -16 -246t81 -193q75 -78 215 -78zM916 1892q52 0 81 -37
l170 -217l-104 -79l-184 155l-254 -155l-68 79l260 217q47 37 99 37z" />
    <glyph glyph-name="ccircumflex" unicode="&#x109;" horiz-adv-x="937" 
d="M679 864q-106 0 -203 -91t-130 -245q-34 -154 28 -244t172 -91q110 0 173 40l-45 -210q-86 -43 -244 -43q-229 0 -338 145q-108 145 -54 401t228 400t396 143q131 0 227 -41l-43 -197q-61 33 -167 33zM699 1475q54 0 81 -37l170 -217l-104 -80l-184 155l-254 -155l-68 80
l260 217q45 37 99 37z" />
    <glyph glyph-name="Cdot" unicode="&#x10a;" horiz-adv-x="1146" 
d="M696 231q140 0 244 64l-55 -252q-152 -63 -325 -63q-172 0 -282 61t-157 165q-105 232 -29 533q74 346 288 553t499 207q184 0 303 -63l-49 -236q-27 29 -93 47t-135 19q-199 0 -317 -129t-172 -389q-23 -131 -16 -246t81 -193q75 -78 215 -78zM924 1927q62 0 96 -44
t20 -106q-14 -61 -66 -105t-114 -44t-97 44q-36 44 -22 106q13 62 67 105q54 44 116 44z" />
    <glyph glyph-name="cdot" unicode="&#x10b;" horiz-adv-x="937" 
d="M679 864q-106 0 -203 -91t-130 -245q-34 -154 28 -244t172 -91q110 0 173 40l-45 -210q-86 -43 -244 -43q-229 0 -338 145q-108 145 -54 401t228 400t396 143q131 0 227 -41l-43 -197q-61 33 -167 33zM706 1509q62 0 96 -44t21 -106q-14 -61 -66 -105q-51 -44 -113 -44
t-98 44t-22 106t68 105q52 44 114 44z" />
    <glyph glyph-name="Ccaron" unicode="&#x10c;" horiz-adv-x="1146" 
d="M696 231q140 0 244 64l-55 -252q-152 -63 -325 -63q-172 0 -282 61t-157 165q-105 232 -29 533q74 346 288 553t499 207q184 0 303 -63l-49 -236q-27 29 -93 47t-135 19q-199 0 -317 -129t-172 -389q-23 -131 -16 -246t81 -193q75 -78 215 -78zM826 1565q-56 0 -87 39
l-168 217l99 75l192 -159l258 159l70 -75l-262 -217q-46 -39 -102 -39z" />
    <glyph glyph-name="ccaron" unicode="&#x10d;" horiz-adv-x="937" 
d="M679 864q-106 0 -203 -91t-130 -245q-34 -154 28 -244t172 -91q110 0 173 40l-45 -210q-86 -43 -244 -43q-229 0 -338 145q-108 145 -54 401t228 400t396 143q131 0 227 -41l-43 -197q-61 33 -167 33zM612 1147q-56 0 -86 39l-168 217l99 76l192 -160l258 160l70 -76
l-262 -217q-47 -39 -103 -39z" />
    <glyph glyph-name="Dcaron" unicode="&#x10e;" horiz-adv-x="1314" 
d="M457 211q171 1 279 121t169 407q113 528 -223 529h-117l-225 -1057h117zM399 0h-422l314 1479h405q346 0 474 -204t55 -543q-74 -340 -279 -536t-547 -196zM711 1565q-55 0 -86 39l-168 217l98 75l193 -159l258 159l69 -75l-262 -217q-47 -39 -102 -39z" />
    <glyph glyph-name="dcaron" unicode="&#x10f;" horiz-adv-x="1118" 
d="M485 172q63 0 95 14l147 688q-33 12 -82 13q-231 0 -305 -359q-78 -356 145 -356zM1155 1479l-301 -1422q-160 -77 -408 -77t-358 138t-54 392q54 254 214 400t366 147q84 0 148 -19l92 441h301zM1520 1364q-25 -160 -174 -279h-203q143 166 155 263q18 127 -84 213h240
q34 -21 54 -75t12 -122z" />
    <glyph glyph-name="Dcroat" unicode="&#x110;" horiz-adv-x="1345" 
d="M494 211q170 -1 278 121t170 409q113 526 -223 527h-117l-82 -377h182l-40 -201h-183l-102 -479h117zM436 0h-422l148 690h-109l41 201h109l125 588h405q347 0 475 -204t54 -543q-74 -340 -279 -536t-547 -196z" />
    <glyph glyph-name="dmacron" unicode="&#x111;" horiz-adv-x="1118" 
d="M485 172q63 0 95 14l147 688q-33 12 -82 13q-231 0 -305 -359q-78 -356 145 -356zM1284 1339l-39 -182h-158l-233 -1100q-160 -77 -408 -77t-358 138t-54 392q54 254 214 400t366 147q84 0 148 -19l24 119h-301l39 182h301l29 140h301l-29 -140h158z" />
    <glyph glyph-name="Emacron" unicode="&#x112;" horiz-adv-x="985" 
d="M1059 1479l-49 -236h-451l-80 -375h398l-50 -229h-397l-86 -403h451l-50 -236h-768l314 1479h768zM1061 1804l-35 -166h-668l35 166h668z" />
    <glyph glyph-name="emacron" unicode="&#x113;" horiz-adv-x="1091" 
d="M590 891q-84 0 -142 -65t-102 -220h356q29 137 0 211q-28 74 -112 74zM528 186q142 0 328 72l-47 -215q-178 -63 -360 -63q-252 0 -359 147q-106 147 -53 397t220 398t388 147q221 0 297 -171t6 -443h-626q-23 -111 21 -190q43 -79 185 -79zM1026 1386l-35 -165h-667
l34 165h668z" />
    <glyph glyph-name="Ebreve" unicode="&#x114;" horiz-adv-x="985" 
d="M1059 1479l-49 -236h-451l-80 -375h398l-50 -229h-397l-86 -403h451l-50 -236h-768l314 1479h768zM678 1573q-80 0 -135 30t-76 72q-49 106 -23 189l113 28q6 -156 154 -155q137 0 225 155l98 -28q-24 -109 -114 -200t-242 -91z" />
    <glyph glyph-name="ebreve" unicode="&#x115;" horiz-adv-x="1091" 
d="M590 891q-84 0 -142 -65t-102 -220h356q29 137 0 211q-28 74 -112 74zM528 186q142 0 328 72l-47 -215q-178 -63 -360 -63q-252 0 -359 147q-106 147 -53 397t220 398t388 147q221 0 297 -171t6 -443h-626q-23 -111 21 -190q43 -79 185 -79zM643 1155q-80 0 -135 30
t-76 72q-50 108 -22 189l112 29q6 -156 154 -156q137 0 225 156l98 -29q-23 -109 -113 -200t-243 -91z" />
    <glyph glyph-name="Edot" unicode="&#x116;" horiz-adv-x="985" 
d="M1059 1479l-49 -236h-451l-80 -375h398l-50 -229h-397l-86 -403h451l-50 -236h-768l314 1479h768zM754 1927q62 0 96 -44t20 -106q-14 -61 -66 -105t-114 -44t-97 44q-36 44 -22 106q13 62 67 105q54 44 116 44z" />
    <glyph glyph-name="edot" unicode="&#x117;" horiz-adv-x="1091" 
d="M590 891q-84 0 -142 -65t-102 -220h356q29 137 0 211q-28 74 -112 74zM528 186q142 0 328 72l-47 -215q-178 -63 -360 -63q-252 0 -359 147q-106 147 -53 397t220 398t388 147q221 0 297 -171t6 -443h-626q-23 -111 21 -190q43 -79 185 -79zM656 1210q-62 0 -98 44
t-22 106t68 105q52 44 114 44t97 -44t21 -106q-14 -61 -66 -105t-114 -44z" />
    <glyph glyph-name="Eogonek" unicode="&#x118;" horiz-adv-x="985" 
d="M459 -209q0 -58 93 -51q50 4 118 31l12 -103q-88 -43 -185 -54q-97 -10 -169 22t-72 106q0 137 229 258h-508l314 1479h768l-49 -236h-451l-80 -375h398l-50 -229h-397l-86 -403h451l-50 -236h-83q-203 -121 -203 -209z" />
    <glyph glyph-name="eogonek" unicode="&#x119;" horiz-adv-x="1091" 
d="M590 891q-84 0 -142 -65t-102 -220h356q29 137 0 211q-28 74 -112 74zM449 -20q-252 0 -359 147q-106 147 -53 397t220 398t388 147q221 0 297 -171t6 -443h-626q-23 -111 21 -190q43 -79 185 -79t328 72l-47 -215q-100 -43 -189 -113t-90 -139q0 -59 95 -51q49 4 116 31
l15 -103q-88 -43 -186 -54q-98 -10 -171 22q-72 32 -71 106q0 123 198 242q-53 -4 -77 -4z" />
    <glyph glyph-name="Ecaron" unicode="&#x11a;" horiz-adv-x="985" 
d="M1059 1479l-49 -236h-451l-80 -375h398l-50 -229h-397l-86 -403h451l-50 -236h-768l314 1479h768zM676 1565q-55 0 -86 39l-168 217l98 75l193 -159l258 159l69 -75l-262 -217q-47 -39 -102 -39z" />
    <glyph glyph-name="ecaron" unicode="&#x11b;" horiz-adv-x="1091" 
d="M590 891q-84 0 -142 -65t-102 -220h356q29 137 0 211q-28 74 -112 74zM528 186q142 0 328 72l-47 -215q-178 -63 -360 -63q-252 0 -359 147q-106 147 -53 397t220 398t388 147q221 0 297 -171t6 -443h-626q-23 -111 21 -190q43 -79 185 -79zM641 1147q-55 0 -86 39
l-168 217l98 76l193 -160l258 160l70 -76l-263 -217q-47 -39 -102 -39z" />
    <glyph glyph-name="Gcircumflex" unicode="&#x11c;" horiz-adv-x="1232" 
d="M885 1266q-360 0 -471 -525q-51 -266 -1 -397t181 -131q45 0 119 18l129 609h293l-164 -777q-158 -84 -408 -83q-311 0 -429 200t-43 558q75 356 292 558t512 203q184 0 313 -61l-51 -246q-131 74 -272 74zM928 1892q52 0 82 -37l170 -217l-105 -79l-184 155l-254 -155
l-68 79l260 217q47 37 99 37z" />
    <glyph glyph-name="gcircumflex" unicode="&#x11d;" horiz-adv-x="1122" 
d="M498 514q90 0 146 51t73 135q39 186 -142 187q-180 -1 -219 -187t142 -186zM393 201h160q182 0 265 -89t56 -221q-36 -166 -186 -264t-380 -98t-344 73t-85 199q8 43 45 111h266q-31 -37 -42 -92q-10 -55 50 -84t158 -29t165 44q67 43 80 109t-21 88q-35 22 -125 21h-144
q-121 0 -203 50t-58 163t151 209q-154 98 -109 309q35 168 167 268t355 101q84 0 174 -22h349l-35 -160h-127q29 -86 8 -187q-33 -160 -165 -264t-359 -104l-92 2q-51 -31 -57 -66t18 -51q25 -16 65 -16zM672 1475q54 0 80 -37l170 -217l-105 -80l-184 155l-254 -155l-68 80
l260 217q47 37 101 37z" />
    <glyph glyph-name="Gbreve" unicode="&#x11e;" horiz-adv-x="1232" 
d="M885 1266q-360 0 -471 -525q-51 -266 -1 -397t181 -131q45 0 119 18l129 609h293l-164 -777q-158 -84 -408 -83q-311 0 -429 200t-43 558q75 356 292 558t512 203q184 0 313 -61l-51 -246q-131 74 -272 74zM819 1573q-80 0 -135 30t-76 72q-49 105 -22 189l112 28
q6 -156 154 -155q137 0 225 155l99 -28q-23 -109 -114 -200t-243 -91z" />
    <glyph glyph-name="gbreve" unicode="&#x11f;" horiz-adv-x="1122" 
d="M498 514q90 0 146 51t73 135q39 186 -142 187q-180 -1 -219 -187t142 -186zM393 201h160q182 0 265 -89t56 -221q-36 -166 -186 -264t-380 -98t-344 73t-85 199q8 43 45 111h266q-31 -37 -42 -92q-10 -55 50 -84t158 -29t165 44q67 43 80 109t-21 88q-35 22 -125 21h-144
q-121 0 -203 50t-58 163t151 209q-154 98 -109 309q35 168 167 268t355 101q84 0 174 -22h349l-35 -160h-127q29 -86 8 -187q-33 -160 -165 -264t-359 -104l-92 2q-51 -31 -57 -66t18 -51q25 -16 65 -16zM623 1155q-79 0 -135 30q-56 31 -76 73q-50 106 -23 188l113 29
q6 -156 153 -156q137 0 226 156l98 -29q-23 -109 -114 -200t-242 -91z" />
    <glyph glyph-name="Gdot" unicode="&#x120;" horiz-adv-x="1232" 
d="M885 1266q-360 0 -471 -525q-51 -266 -1 -397t181 -131q45 0 119 18l129 609h293l-164 -777q-158 -84 -408 -83q-311 0 -429 200t-43 558q75 356 292 558t512 203q184 0 313 -61l-51 -246q-131 74 -272 74zM915 1927q61 0 96 -44t21 -106q-14 -61 -66 -105t-114 -44
t-97 44q-36 44 -22 106q13 62 67 105q54 44 115 44z" />
    <glyph glyph-name="gdot" unicode="&#x121;" horiz-adv-x="1122" 
d="M498 514q90 0 146 51t73 135q39 186 -142 187q-180 -1 -219 -187t142 -186zM393 201h160q182 0 265 -89t56 -221q-36 -166 -186 -264t-380 -98t-344 73t-85 199q8 43 45 111h266q-31 -37 -42 -92q-10 -55 50 -84t158 -29t165 44q67 43 80 109t-21 88q-35 22 -125 21h-144
q-121 0 -203 50t-58 163t151 209q-154 98 -109 309q35 168 167 268t355 101q84 0 174 -22h349l-35 -160h-127q29 -86 8 -187q-33 -160 -165 -264t-359 -104l-92 2q-51 -31 -57 -66t18 -51q25 -16 65 -16zM698 1509q61 0 96 -44t21 -106q-14 -61 -66 -105q-51 -44 -113 -44
t-98 44t-22 106t68 105q54 44 114 44z" />
    <glyph glyph-name="Gcommaaccent" unicode="&#x122;" horiz-adv-x="1232" 
d="M711 -289q-15 -119 -135 -195t-271 -81l-35 121q88 10 151 52q61 42 73 120t-109 180h250q39 -28 61 -82t15 -115zM885 1266q-360 0 -471 -525q-51 -266 -1 -397t181 -131q45 0 119 18l129 609h293l-164 -777q-158 -84 -408 -83q-311 0 -429 200t-43 558q75 356 292 558
t512 203q184 0 313 -61l-51 -246q-131 74 -272 74z" />
    <glyph glyph-name="gcommaaccent" unicode="&#x123;" horiz-adv-x="1122" 
d="M498 514q90 0 146 51t73 135q39 186 -142 187q-180 -1 -219 -187t142 -186zM393 201h160q182 0 265 -89t56 -221q-36 -166 -186 -264t-380 -98t-344 73t-85 199q8 43 45 111h266q-31 -37 -42 -92q-10 -55 50 -84t158 -29t165 44q67 43 80 109t-21 88q-35 22 -125 21h-144
q-121 0 -203 50t-58 163t151 209q-154 98 -109 309q35 168 167 268t355 101q84 0 174 -22h349l-35 -160h-127q29 -86 8 -187q-33 -160 -165 -264t-359 -104l-92 2q-51 -31 -57 -66t18 -51q25 -16 65 -16zM897 1513q-89 -12 -151 -54q-62 -41 -73 -117t109 -181h-247
q-39 27 -63 80t-15 117q18 120 137 194t268 82z" />
    <glyph glyph-name="Hcircumflex" unicode="&#x124;" horiz-adv-x="1323" 
d="M1348 1479l-314 -1479h-317l137 641h-422l-137 -641h-318l314 1479h317l-129 -613h422l129 613h318zM901 1892q53 0 82 -37l170 -217l-104 -79l-185 155l-254 -155l-67 79l260 217q45 37 98 37z" />
    <glyph glyph-name="hcircumflex" unicode="&#x125;" horiz-adv-x="1130" 
d="M584 872q-76 0 -135 -26l-181 -846h-303l314 1479h303l-99 -469q121 49 236 49q184 1 253 -91t38 -235l-156 -733h-301l154 727q29 145 -123 145zM750 1892q54 0 79 -37l170 -217l-104 -79l-184 155l-254 -155l-68 79l260 217q47 37 101 37z" />
    <glyph glyph-name="Hbar" unicode="&#x126;" horiz-adv-x="1323" 
d="M932 1008h-422l-31 -142h422zM1407 1208l-43 -200h-117l-213 -1008h-317l137 641h-422l-137 -641h-318l213 1008h-116l43 200h116l58 271h317l-57 -271h422l57 271h318l-58 -271h117z" />
    <glyph glyph-name="hbar" unicode="&#x127;" horiz-adv-x="1130" 
d="M584 872q-76 0 -135 -26l-181 -846h-303l246 1157h-160l39 182h160l29 140h303l-29 -140h297l-39 -182h-297l-31 -147q121 49 236 49q184 1 253 -91t38 -235l-156 -733h-301l154 727q29 145 -123 145z" />
    <glyph glyph-name="Itilde" unicode="&#x128;" horiz-adv-x="591" 
d="M612 1479l-313 -1479h-317l313 1479h317zM353 1673q-52 0 -120 -43t-92 -82l39 181q92 102 199 102q59 0 135 -42t131 -42t121 43t92 84l-39 -180q-94 -104 -196 -105q-57 0 -137 42t-133 42z" />
    <glyph glyph-name="itilde" unicode="&#x129;" 
d="M498 1047l-224 -1047h-303l224 1047h303zM235 1255q-52 0 -120 -43t-92 -82l38 181q92 102 199 102q59 0 135 -42t131 -42q54 0 120 43t93 84l-39 -180q-94 -104 -196 -105q-57 0 -137 42t-132 42z" />
    <glyph glyph-name="Imacron" unicode="&#x12a;" horiz-adv-x="591" 
d="M612 1479l-313 -1479h-317l313 1479h317zM852 1804l-35 -166h-667l34 166h668z" />
    <glyph glyph-name="imacron" unicode="&#x12b;" 
d="M498 1047l-224 -1047h-303l224 1047h303zM737 1386l-35 -165h-667l35 165h667z" />
    <glyph glyph-name="Ibreve" unicode="&#x12c;" horiz-adv-x="591" 
d="M612 1479l-313 -1479h-317l313 1479h317zM467 1573q-80 0 -135 30t-76 72q-49 106 -23 189l113 28q6 -156 154 -155q137 0 225 155l98 -28q-23 -109 -113 -200t-243 -91z" />
    <glyph glyph-name="ibreve" unicode="&#x12d;" 
d="M498 1047l-224 -1047h-303l224 1047h303zM354 1155q-80 0 -135 30t-76 72q-49 106 -22 189l112 29q6 -156 154 -156q137 0 225 156l99 -29q-23 -109 -114 -200t-243 -91z" />
    <glyph glyph-name="Iogonek" unicode="&#x12e;" horiz-adv-x="591" 
d="M94 -209q0 -59 94 -51q49 4 117 31l12 -103q-88 -43 -185 -54q-97 -10 -169 22t-72 106q0 137 230 258h-139l313 1479h317l-313 -1479q-205 -121 -205 -209z" />
    <glyph glyph-name="iogonek" unicode="&#x12f;" 
d="M-133 -258q0 135 227 258h-123l224 1047h303l-224 -1047q-205 -121 -204 -209q0 -58 93 -51q50 4 118 31l12 -103q-88 -43 -185 -54q-97 -10 -169 22t-72 106zM375 1186q-68 0 -107 48t-24 116q14 68 73 116t127 50q68 0 106 -49t25 -117q-14 -68 -73 -116t-127 -48z" />
    <glyph glyph-name="Idot" unicode="&#x130;" horiz-adv-x="591" 
d="M612 1479l-313 -1479h-317l313 1479h317zM542 1927q62 0 96 -44t21 -106q-14 -61 -66 -105q-51 -44 -113 -44t-98 44t-22 106t68 105q52 44 114 44z" />
    <glyph glyph-name="dotlessi" unicode="&#x131;" 
d="M498 1047l-224 -1047h-303l224 1047h303z" />
    <glyph glyph-name="IJ" unicode="&#x132;" horiz-adv-x="1183" 
d="M612 1479l-313 -1479h-317l313 1479h317zM1204 1479l-295 -1391q-53 -254 -224 -387t-419 -145l49 229q96 16 172 89t101 194l299 1411h317z" />
    <glyph glyph-name="ij" unicode="&#x133;" horiz-adv-x="1114" 
d="M498 1047l-224 -1047h-303l224 1047h303zM1057 1047l-201 -936q-53 -249 -218 -397t-378 -158l43 204q96 29 154 98q57 69 90 218l207 971h303zM375 1186q-68 0 -107 48t-24 116q14 68 73 116t127 50q68 0 106 -49t25 -117q-14 -68 -73 -116t-127 -48zM934 1186
q-68 0 -107 48t-24 116q13 68 73 116t128 50q68 0 106 -49t25 -117t-73 -116t-128 -48z" />
    <glyph glyph-name="Jcircumflex" unicode="&#x134;" horiz-adv-x="591" 
d="M612 1479l-295 -1391q-53 -254 -224 -387t-419 -145l50 229q96 16 172 89t100 194l299 1411h317zM533 1892q52 0 81 -37l170 -217l-104 -79l-184 155l-254 -155l-68 79l260 217q47 37 99 37z" />
    <glyph glyph-name="jcircumflex" unicode="&#x135;" 
d="M500 1047l-201 -936q-53 -249 -218 -397t-378 -158l43 204q96 29 154 98q57 69 90 218l207 971h303zM432 1475q53 0 82 -37l170 -217l-104 -80l-185 155l-254 -155l-67 80l258 217q47 37 100 37z" />
    <glyph glyph-name="Kcommaaccent" unicode="&#x136;" horiz-adv-x="1216" 
d="M670 -289q-16 -119 -135 -195t-271 -81l-35 121q88 10 151 52q62 42 74 120t-110 180h250q40 -28 62 -82t14 -115zM1327 1479l-563 -682l276 -797h-372l-213 733h-4l-156 -733h-318l314 1479h317l-141 -670h4l516 670h340z" />
    <glyph glyph-name="kcommaaccent" unicode="&#x137;" horiz-adv-x="1089" 
d="M608 -289q-16 -119 -135 -195t-270 -81l-35 121q88 10 150 52t74 120t-109 180h249q40 -28 62 -82t14 -115zM1098 1047l-428 -469l250 -578h-345l-186 528h-4l-113 -528h-301l314 1479h301l-189 -895h4l394 463h303z" />
    <glyph glyph-name="kgreenlantic" unicode="&#x138;" horiz-adv-x="1089" 
d="M1098 1047l-428 -469l250 -578h-345l-186 528h-4l-113 -528h-301l222 1047h301l-97 -463h4l394 463h303z" />
    <glyph glyph-name="Lacute" unicode="&#x139;" horiz-adv-x="907" 
d="M735 233l-49 -233h-709l314 1479h317l-264 -1246h391zM838 1864l-326 -287h-174l203 295q79 45 183 44t114 -52z" />
    <glyph glyph-name="lacute" unicode="&#x13a;" 
d="M588 1479l-314 -1479h-303l314 1479h303zM817 1864l-325 -287h-175l203 295q80 45 184 44t113 -52z" />
    <glyph glyph-name="Lcommaaccent" unicode="&#x13b;" horiz-adv-x="907" 
d="M506 -289q-16 -119 -135 -195t-271 -81l-34 121q88 10 150 52t74 120t-110 180h250q40 -28 62 -82t14 -115zM735 233l-49 -233h-709l314 1479h317l-264 -1246h391z" />
    <glyph glyph-name="lcommaaccent" unicode="&#x13c;" 
d="M301 -289q-16 -119 -135 -195t-270 -81l-35 121q88 10 150 52q61 42 73 120t-109 180h250q39 -28 61 -82t15 -115zM588 1479l-314 -1479h-303l314 1479h303z" />
    <glyph glyph-name="Lcaron" unicode="&#x13d;" horiz-adv-x="907" 
d="M735 233l-49 -233h-709l314 1479h317l-264 -1246h391zM1001 1364q-25 -160 -174 -279h-202q143 166 155 263q18 127 -84 213h240q35 -21 54 -75t11 -122z" />
    <glyph glyph-name="lcaron" unicode="&#x13e;" 
d="M588 1479l-314 -1479h-303l314 1479h303zM934 1485q20 -53 9 -132t-63 -152t-108 -116h-203q139 164 156 263q16 127 -84 213h238q35 -23 55 -76z" />
    <glyph glyph-name="Ldot" unicode="&#x13f;" horiz-adv-x="907" 
d="M735 233l-49 -233h-709l314 1479h317l-264 -1246h391zM648 596q-62 0 -98 44t-22 105t68 105t114 45q62 0 97 -44q34 -45 20 -107t-66 -105q-51 -43 -113 -43z" />
    <glyph glyph-name="ldot" unicode="&#x140;" 
d="M588 1479l-314 -1479h-303l314 1479h303zM627 596q-61 0 -98 44q-36 44 -21 105q14 61 67 105t115 45q62 -1 96 -45q35 -44 21 -106q-15 -62 -67 -105t-113 -43z" />
    <glyph glyph-name="Lslash" unicode="&#x141;" horiz-adv-x="935" 
d="M764 233l-49 -233h-709l146 684l-125 -53l41 188l122 51l129 609h318l-96 -461l180 72l-39 -187l-182 -74l-127 -596h391z" />
    <glyph glyph-name="lslash" unicode="&#x142;" horiz-adv-x="663" 
d="M692 1049l-41 -187l-155 -69l-168 -793h-303l135 635l-137 -64l40 187l136 61l139 660h303l-104 -500z" />
    <glyph glyph-name="Nacute" unicode="&#x143;" horiz-adv-x="1392" 
d="M1417 1479l-313 -1479h-266l-316 829l-45 158h-4q-10 -82 -27 -164l-174 -823h-295l314 1479h307l293 -760l45 -141h4q6 70 23 147l159 754h295zM1219 1864l-326 -287h-174l203 295q80 45 184 44t113 -52z" />
    <glyph glyph-name="nacute" unicode="&#x144;" horiz-adv-x="1130" 
d="M619 1069q248 0 336 -90t55 -244l-156 -735h-303l156 733q31 145 -125 146q-70 0 -131 -21l-183 -858h-303l211 989q195 80 443 80zM981 1446l-326 -287h-174l203 295q80 45 184 44t113 -52z" />
    <glyph glyph-name="Ncommaaccent" unicode="&#x145;" horiz-adv-x="1392" 
d="M731 -289q-16 -119 -135 -195t-270 -81l-35 121q88 10 150 52q61 42 73 120t-108 180h249q39 -28 61 -82t15 -115zM1417 1479l-313 -1479h-266l-316 829l-45 158h-4q-10 -82 -27 -164l-174 -823h-295l314 1479h307l293 -760l45 -141h4q6 70 23 147l159 754h295z" />
    <glyph glyph-name="ncommaaccent" unicode="&#x146;" horiz-adv-x="1130" 
d="M588 -289q-16 -119 -135 -195t-271 -81l-35 121q88 10 151 52q62 42 74 120t-110 180h250q40 -28 62 -82t14 -115zM619 1069q248 0 336 -90t55 -244l-156 -735h-303l156 733q31 145 -125 146q-70 0 -131 -21l-183 -858h-303l211 989q195 80 443 80z" />
    <glyph glyph-name="Ncaron" unicode="&#x147;" horiz-adv-x="1392" 
d="M1417 1479l-313 -1479h-266l-316 829l-45 158h-4q-10 -82 -27 -164l-174 -823h-295l314 1479h307l293 -760l45 -141h4q6 70 23 147l159 754h295zM850 1565q-55 0 -86 39l-168 217l98 75l193 -159l258 159l69 -75l-262 -217q-47 -39 -102 -39z" />
    <glyph glyph-name="ncaron" unicode="&#x148;" horiz-adv-x="1130" 
d="M619 1069q248 0 336 -90t55 -244l-156 -735h-303l156 733q31 145 -125 146q-70 0 -131 -21l-183 -858h-303l211 989q195 80 443 80zM633 1147q-55 0 -86 39l-168 217l98 76l193 -160l258 160l69 -76l-262 -217q-47 -39 -102 -39z" />
    <glyph glyph-name="napostrophe" unicode="&#x149;" horiz-adv-x="1130" 
d="M619 1069q248 0 336 -90t55 -244l-156 -735h-303l156 733q31 145 -125 146q-70 0 -131 -21l-183 -858h-303l211 989q195 80 443 80zM592 1505q20 -53 9 -132t-63 -151t-108 -116h-203q139 164 156 262q16 127 -84 213h238q35 -23 55 -76z" />
    <glyph glyph-name="Eng" unicode="&#x14a;" horiz-adv-x="1392" 
d="M1417 1479l-309 -1459q-58 -282 -196 -386q-48 -36 -86 -54q-86 -41 -304 -47l49 234q131 12 185 54q53 42 82 179l-316 829l-45 158h-4q-8 -82 -27 -164l-174 -823h-295l314 1479h307l293 -760l45 -141h4q6 70 23 147l159 754h295z" />
    <glyph glyph-name="eng" unicode="&#x14b;" horiz-adv-x="1130" 
d="M619 1069q248 0 336 -90t55 -244l-150 -710q-57 -271 -180 -377t-408 -115l50 234q128 10 164 53t71 205l150 708q31 145 -125 146q-70 0 -131 -21l-183 -858h-303l211 989q195 80 443 80z" />
    <glyph glyph-name="Omacron" unicode="&#x14c;" horiz-adv-x="1335" 
d="M784 1282q-256 0 -368 -529t143 -530q256 1 369 530q112 529 -144 529zM831 1499q150 0 252 -60q103 -59 145 -163q93 -227 19 -537q-74 -340 -260 -550t-479 -209q-152 0 -253 59t-144 163q-95 229 -19 537q72 336 259 548t480 212zM1235 1804l-35 -166h-668l35 166h668
z" />
    <glyph glyph-name="omacron" unicode="&#x14d;" horiz-adv-x="1085" 
d="M571 870q-92 0 -146 -93t-89 -253q-76 -346 88 -346q92 0 146 92t89 254q74 346 -88 346zM923 918q88 -152 36 -394q-51 -242 -203 -394t-373 -150q-221 0 -309 152t-36 392q52 242 204 394t372 152t309 -152zM1006 1386l-35 -165h-668l35 165h668z" />
    <glyph glyph-name="Obreve" unicode="&#x14e;" horiz-adv-x="1335" 
d="M784 1282q-256 0 -368 -529t143 -530q256 1 369 530q112 529 -144 529zM831 1499q150 0 252 -60q103 -59 145 -163q93 -227 19 -537q-74 -340 -260 -550t-479 -209q-152 0 -253 59t-144 163q-95 229 -19 537q72 336 259 548t480 212zM852 1573q-80 0 -135 30t-76 72
q-49 106 -23 189l113 28q6 -156 154 -155q137 0 225 155l98 -28q-24 -109 -114 -200t-242 -91z" />
    <glyph glyph-name="obreve" unicode="&#x14f;" horiz-adv-x="1085" 
d="M571 870q-92 0 -146 -93t-89 -253q-76 -346 88 -346q92 0 146 92t89 254q74 346 -88 346zM923 918q88 -152 36 -394q-51 -242 -203 -394t-373 -150q-221 0 -309 152t-36 392q52 242 204 394t372 152t309 -152zM623 1155q-79 0 -135 30q-56 31 -76 73q-50 106 -23 188
l113 29q6 -156 153 -156q137 0 226 156l98 -29q-23 -109 -114 -200t-242 -91z" />
    <glyph glyph-name="Ohungarumlaut" unicode="&#x150;" horiz-adv-x="1335" 
d="M784 1282q-256 0 -368 -529t143 -530q256 1 369 530q112 529 -144 529zM831 1499q150 0 252 -60q103 -59 145 -163q93 -227 19 -537q-74 -340 -260 -550t-479 -209q-152 0 -253 59t-144 163q-95 229 -19 537q72 336 259 548t480 212zM955 1888q75 0 71 -47l-297 -264
h-113l201 262q63 49 138 49zM1251 1888q74 0 74 -47l-299 -264h-111l201 262q61 49 135 49z" />
    <glyph glyph-name="ohungarumlaut" unicode="&#x151;" horiz-adv-x="1085" 
d="M571 870q-92 0 -146 -93t-89 -253q-76 -346 88 -346q92 0 146 92t89 254q74 346 -88 346zM923 918q88 -152 36 -394q-51 -242 -203 -394t-373 -150q-221 0 -309 152t-36 392q52 242 204 394t372 152t309 -152zM726 1470q75 0 71 -47l-297 -264h-113l201 262q63 49 138 49
zM1022 1470q74 0 74 -47l-299 -264h-111l201 262q61 49 135 49z" />
    <glyph glyph-name="OE" unicode="&#x152;" horiz-adv-x="1677" 
d="M813 1280q-287 0 -399 -534t172 -533q94 0 139 10l221 1043q-47 14 -133 14zM547 -20q-305 0 -418 202t-37 557q76 356 274 558t502 202q86 0 174 -20h713l-49 -236h-451l-79 -375h397l-49 -229h-398l-86 -403h451l-49 -236h-715q-74 -20 -180 -20z" />
    <glyph glyph-name="oe" unicode="&#x153;" horiz-adv-x="1675" 
d="M418 176q98 0 151 95q76 136 109 381q17 144 -30 192q-28 29 -81 28q-169 0 -241 -348t92 -348zM1170 891q-85 1 -143 -63t-103 -222h360q29 137 0 211t-114 74zM1112 186q144 0 324 70l-47 -213q-182 -63 -371 -63q-238 0 -297 178q-141 -178 -352 -178t-298 150
t-35 394q52 242 205 394t359 152t277 -165q63 78 155 121t191 43q201 1 293 -151t16 -463h-633q-23 -111 23 -190t190 -79z" />
    <glyph glyph-name="Racute" unicode="&#x154;" horiz-adv-x="1234" 
d="M598 829q120 1 188 53t97 185t-19 185t-166 53h-129l-100 -476h129zM803 1479q225 0 327 -113t64 -297q-29 -135 -126 -231t-239 -138l209 -700h-344l-182 645h-82l-137 -645h-316l314 1479h512zM1092 1864l-326 -287h-174l203 295q79 45 183 44t114 -52z" />
    <glyph glyph-name="racute" unicode="&#x155;" horiz-adv-x="718" 
d="M608 1071q74 0 144 -12l-95 -197q-115 27 -206 -8l-183 -854h-303l209 987q221 84 434 84zM838 1446l-326 -287h-174l203 295q79 45 183 44t114 -52z" />
    <glyph glyph-name="Rcommaaccent" unicode="&#x156;" horiz-adv-x="1234" 
d="M598 829q120 1 188 53t97 185t-19 185t-166 53h-129l-100 -476h129zM670 -289q-16 -119 -135 -195t-271 -81l-35 121q88 10 151 52q62 42 74 120t-110 180h250q40 -28 62 -82t14 -115zM803 1479q225 0 327 -113t64 -297q-29 -135 -126 -231t-239 -138l209 -700h-344
l-182 645h-82l-137 -645h-316l314 1479h512z" />
    <glyph glyph-name="rcommaaccent" unicode="&#x157;" horiz-adv-x="718" 
d="M342 -289q-16 -119 -135 -195t-270 -81l-35 121q88 10 150 52t74 120t-110 180h250q40 -28 62 -82t14 -115zM608 1071q74 0 144 -12l-95 -197q-115 27 -206 -8l-183 -854h-303l209 987q221 84 434 84z" />
    <glyph glyph-name="Rcaron" unicode="&#x158;" horiz-adv-x="1234" 
d="M598 829q120 1 188 53t97 185t-19 185t-166 53h-129l-100 -476h129zM803 1479q225 0 327 -113t64 -297q-29 -135 -126 -231t-239 -138l209 -700h-344l-182 645h-82l-137 -645h-316l314 1479h512zM723 1565q-55 0 -86 39l-168 217l98 75l193 -159l258 159l69 -75
l-262 -217q-47 -39 -102 -39z" />
    <glyph glyph-name="rcaron" unicode="&#x159;" horiz-adv-x="718" 
d="M608 1071q74 0 144 -12l-95 -197q-115 27 -206 -8l-183 -854h-303l209 987q221 84 434 84zM469 1147q-55 0 -86 39l-168 217l98 76l193 -160l258 160l70 -76l-263 -217q-47 -39 -102 -39z" />
    <glyph glyph-name="Sacute" unicode="&#x15a;" horiz-adv-x="1089" 
d="M752 1274q-209 0 -246 -174q-12 -56 14 -100t61 -66q36 -22 105 -55q184 -87 234 -189t18 -244q-43 -206 -205 -336t-389 -130t-373 77l60 277q154 -111 311 -111q114 0 182 53q68 52 84 130t-36 128t-175 103q-287 127 -225 407q39 188 196 322t382 133q82 0 148 -13
t86 -22t73 -34l-51 -242q-121 86 -254 86zM1071 1864l-326 -287h-174l203 295q80 45 184 44t113 -52z" />
    <glyph glyph-name="sacute" unicode="&#x15b;" horiz-adv-x="839" 
d="M530 872q-57 0 -95 -30t-48 -78q-17 -88 107 -148t162 -131q38 -72 18 -172q-31 -141 -160 -237t-309 -96q-119 0 -256 53l51 235q84 -80 209 -80q57 0 99 32t52 83q12 51 -10 85q-23 34 -90 63q-123 53 -158 126t-16 166q31 137 147 232q117 94 273 94t254 -59l-47 -222
q-90 84 -183 84zM854 1446l-326 -287h-174l203 295q79 45 183 44t114 -52z" />
    <glyph glyph-name="Scircumflex" unicode="&#x15c;" horiz-adv-x="1089" 
d="M752 1274q-209 0 -246 -174q-12 -56 14 -100t61 -66q36 -22 105 -55q184 -87 234 -189t18 -244q-43 -206 -205 -336t-389 -130t-373 77l60 277q154 -111 311 -111q114 0 182 53q68 52 84 130t-36 128t-175 103q-287 127 -225 407q39 188 196 322t382 133q82 0 148 -13
t86 -22t73 -34l-51 -242q-121 86 -254 86zM815 1892q53 0 80 -37l170 -217l-104 -79l-185 155l-254 -155l-67 79l260 217q47 37 100 37z" />
    <glyph glyph-name="scircumflex" unicode="&#x15d;" horiz-adv-x="839" 
d="M530 872q-57 0 -95 -30t-48 -78q-17 -88 107 -148t162 -131q38 -72 18 -172q-31 -141 -160 -237t-309 -96q-119 0 -256 53l51 235q84 -80 209 -80q57 0 99 32t52 83q12 51 -10 85q-23 34 -90 63q-123 53 -158 126t-16 166q31 137 147 232q117 94 273 94t254 -59l-47 -222
q-90 84 -183 84zM582 1475q54 0 80 -37l169 -217l-104 -80l-184 155l-254 -155l-68 80l260 217q47 37 101 37z" />
    <glyph glyph-name="Scedilla" unicode="&#x15e;" horiz-adv-x="1089" 
d="M306 -201q-46 0 -116 -4l72 88q219 19 302 -17t65 -120q-21 -104 -185 -147t-426 -19l78 101q132 -14 224 5t101 57t-42 50q-27 6 -73 6zM752 1274q-209 0 -246 -174q-12 -56 14 -100t61 -66q36 -22 105 -55q184 -87 234 -189t18 -244q-43 -206 -205 -336t-389 -130
t-373 77l60 277q154 -111 311 -111q114 0 182 53q68 52 84 130t-36 128t-175 103q-287 127 -225 407q39 188 196 322t382 133q82 0 148 -13t86 -22t73 -34l-51 -242q-121 86 -254 86z" />
    <glyph glyph-name="scedilla" unicode="&#x15f;" horiz-adv-x="839" 
d="M171 -201q-46 0 -116 -4l72 88q219 19 302 -17t65 -120q-20 -104 -184 -147t-427 -19l78 101q133 -14 224 5t102 58q8 38 -43 49q-27 6 -73 6zM530 872q-57 0 -95 -30t-48 -78q-17 -88 107 -148t162 -131q38 -72 18 -172q-31 -141 -160 -237t-309 -96q-119 0 -256 53
l51 235q84 -80 209 -80q57 0 99 32t52 83q12 51 -10 85q-23 34 -90 63q-123 53 -158 126t-16 166q31 137 147 232q117 94 273 94t254 -59l-47 -222q-90 84 -183 84z" />
    <glyph glyph-name="Scaron" unicode="&#x160;" horiz-adv-x="1089" 
d="M752 1274q-209 0 -246 -174q-12 -56 14 -100t61 -66q36 -22 105 -55q184 -87 234 -189t18 -244q-43 -206 -205 -336t-389 -130t-373 77l60 277q154 -111 311 -111q114 0 182 53q68 52 84 130t-36 128t-175 103q-287 127 -225 407q39 188 196 322t382 133q82 0 148 -13
t86 -22t73 -34l-51 -242q-121 86 -254 86zM738 1550q-56 0 -87 39l-170 217l101 76l192 -158l256 158l70 -76l-260 -217q-46 -39 -102 -39z" />
    <glyph glyph-name="scaron" unicode="&#x161;" horiz-adv-x="839" 
d="M530 872q-57 0 -95 -30t-48 -78q-17 -88 107 -148t162 -131q38 -72 18 -172q-31 -141 -160 -237t-309 -96q-119 0 -256 53l51 235q84 -80 209 -80q57 0 99 32t52 83q12 51 -10 85q-23 34 -90 63q-123 53 -158 126t-16 166q31 137 147 232q117 94 273 94t254 -59l-47 -222
q-90 84 -183 84zM513 1149q-56 0 -87 39l-168 217l100 76l191 -160l258 160l70 -76l-263 -217q-45 -39 -101 -39z" />
    <glyph glyph-name="Tcedilla" unicode="&#x162;" horiz-adv-x="1028" 
d="M547 -289q-16 -119 -135 -195t-271 -81l-35 121q88 10 151 52q61 42 73 120t-109 180h250q39 -28 61 -82t15 -115zM1122 1479l-49 -236h-291l-264 -1243h-317l264 1243h-293l49 236h901z" />
    <glyph glyph-name="tcedilla" unicode="&#x163;" horiz-adv-x="712" 
d="M424 -289q-16 -119 -135 -195t-271 -81l-34 121q88 10 150 52t74 120t-110 180h250q40 -28 62 -82t14 -115zM457 182q27 0 71 11l-39 -185q-61 -29 -155 -28q-156 0 -217 86t-33 215l121 569h-115l43 197h115l47 223l309 80l-63 -303h166l-43 -197h-166l-117 -547
q-25 -121 76 -121z" />
    <glyph glyph-name="Tcaron" unicode="&#x164;" horiz-adv-x="1028" 
d="M1122 1479l-49 -236h-291l-264 -1243h-317l264 1243h-293l49 236h901zM666 1565q-55 0 -86 39l-168 217l98 75l192 -159l259 159l69 -75l-262 -217q-47 -39 -102 -39z" />
    <glyph glyph-name="tcaron" unicode="&#x165;" horiz-adv-x="712" 
d="M457 182q27 0 71 11l-39 -185q-61 -29 -155 -28q-156 0 -217 86t-33 215l121 569h-115l43 197h115l47 223l309 80l-63 -303h166l-43 -197h-166l-117 -547q-25 -121 76 -121zM1069 1364q-25 -160 -174 -279h-203q143 166 156 263q18 127 -84 213h240q35 -21 54 -75
t11 -122z" />
    <glyph glyph-name="Tbar" unicode="&#x166;" horiz-adv-x="1028" 
d="M1122 1479l-49 -236h-291l-96 -452h213l-43 -201h-213l-125 -590h-317l125 590h-217l43 201h217l96 452h-293l49 236h901z" />
    <glyph glyph-name="tbar" unicode="&#x167;" horiz-adv-x="712" 
d="M457 182q27 0 71 11l-39 -185q-61 -29 -155 -28q-156 0 -217 86t-33 215l45 215h-115l39 182h115l37 172h-115l43 197h115l47 223l309 80l-63 -303h166l-43 -197h-166l-37 -172h145l-39 -182h-145l-41 -193q-25 -121 76 -121z" />
    <glyph glyph-name="Utilde" unicode="&#x168;" horiz-adv-x="1284" 
d="M1309 1479l-222 -1041q-43 -209 -211 -334q-168 -124 -392 -124t-341 124t-73 334l221 1041h317l-221 -1047q-20 -100 25 -154t133 -54q89 0 155 54t88 158l222 1043h299zM708 1673q-52 0 -120 -43t-92 -82l39 181q92 102 198 102q59 0 135 -42t131 -42t121 43t92 84
l-38 -180q-94 -104 -197 -105q-57 0 -137 42t-132 42z" />
    <glyph glyph-name="utilde" unicode="&#x169;" horiz-adv-x="1116" 
d="M1063 1047l-209 -984q-186 -83 -432 -83t-334 88t-49 276l149 703h304l-154 -723q-29 -139 113 -140q78 0 131 27l178 836h303zM532 1255q-52 0 -120 -43t-93 -82l39 181q92 102 199 102q59 0 135 -42t131 -42t121 43t92 84l-39 -180q-94 -104 -196 -105q-57 0 -137 42
t-132 42z" />
    <glyph glyph-name="Umacron" unicode="&#x16a;" horiz-adv-x="1284" 
d="M1309 1479l-222 -1041q-43 -209 -211 -334q-168 -124 -392 -124t-341 124t-73 334l221 1041h317l-221 -1047q-20 -100 25 -154t133 -54q89 0 155 54t88 158l222 1043h299zM1190 1804l-35 -166h-668l35 166h668z" />
    <glyph glyph-name="umacron" unicode="&#x16b;" horiz-adv-x="1116" 
d="M1063 1047l-209 -984q-186 -83 -432 -83t-334 88t-49 276l149 703h304l-154 -723q-29 -139 113 -140q78 0 131 27l178 836h303zM1014 1386l-35 -165h-668l35 165h668z" />
    <glyph glyph-name="Ubreve" unicode="&#x16c;" horiz-adv-x="1284" 
d="M1309 1479l-222 -1041q-43 -209 -211 -334q-168 -124 -392 -124t-341 124t-73 334l221 1041h317l-221 -1047q-20 -100 25 -154t133 -54q89 0 155 54t88 158l222 1043h299zM807 1573q-80 0 -135 30t-76 72q-49 106 -23 189l113 28q6 -156 154 -155q137 0 225 155l98 -28
q-23 -109 -113 -200t-243 -91z" />
    <glyph glyph-name="ubreve" unicode="&#x16d;" horiz-adv-x="1116" 
d="M1063 1047l-209 -984q-186 -83 -432 -83t-334 88t-49 276l149 703h304l-154 -723q-29 -139 113 -140q78 0 131 27l178 836h303zM631 1155q-80 0 -135 30t-76 72q-50 107 -23 189l113 29q6 -156 154 -156q137 0 225 156l98 -29q-23 -109 -114 -200t-242 -91z" />
    <glyph glyph-name="Uring" unicode="&#x16e;" horiz-adv-x="1284" 
d="M872 1831q-36 0 -64 -25q-30 -26 -38 -60t11 -58t55 -25q36 1 64 25q30 24 38 59t-11 59t-55 25zM1309 1479l-222 -1041q-43 -209 -211 -334q-168 -124 -392 -124t-341 124t-73 334l221 1041h317l-221 -1047q-20 -100 25 -154t133 -54q89 0 155 54t88 158l222 1043h299z
M814 1567q-76 0 -116 52q-41 52 -24 128q14 76 79 128t141 52t116 -52t25 -128t-80 -128t-141 -52z" />
    <glyph glyph-name="uring" unicode="&#x16f;" horiz-adv-x="1116" 
d="M664 1245q36 1 64 25q30 24 38 59t-11 60t-55 25t-64 -26q-30 -24 -38 -59t11 -59t55 -25zM1063 1047l-209 -984q-186 -83 -432 -83t-334 88t-49 276l149 703h304l-154 -723q-29 -139 113 -140q78 0 131 27l178 836h303zM642 1149q-76 0 -116 52q-41 52 -24 128
q14 76 79 128t141 52t116 -52t25 -128t-80 -128t-141 -52z" />
    <glyph glyph-name="Uhungarumlaut" unicode="&#x170;" horiz-adv-x="1284" 
d="M1309 1479l-222 -1041q-43 -209 -211 -334q-168 -124 -392 -124t-341 124t-73 334l221 1041h317l-221 -1047q-20 -100 25 -154t133 -54q89 0 155 54t88 158l222 1043h299zM890 1888q75 0 71 -47l-297 -264h-113l201 262q63 49 138 49zM1186 1888q74 0 74 -47l-299 -264
h-111l201 262q61 49 135 49z" />
    <glyph glyph-name="uhungarumlaut" unicode="&#x171;" horiz-adv-x="1116" 
d="M1063 1047l-209 -984q-186 -83 -432 -83t-334 88t-49 276l149 703h304l-154 -723q-29 -139 113 -140q78 0 131 27l178 836h303zM734 1470q75 0 71 -47l-297 -264h-113l201 262q63 49 138 49zM1030 1470q74 0 74 -47l-299 -264h-111l201 262q61 49 135 49z" />
    <glyph glyph-name="Uogonek" unicode="&#x172;" horiz-adv-x="1284" 
d="M483 -20q-223 0 -340 124t-73 334l221 1041h317l-221 -1047q-20 -100 25 -154t133 -54q89 0 155 54t88 158l222 1043h299l-222 -1041q-51 -236 -249 -360q-144 -90 -206 -165t-63 -122q0 -59 94 -51q50 4 117 31l13 -103q-87 -43 -185 -54q-98 -10 -170 22t-71 106
q0 117 182 242q-29 -4 -66 -4z" />
    <glyph glyph-name="uogonek" unicode="&#x173;" horiz-adv-x="1116" 
d="M551 -207q0 -60 94 -53q49 4 117 31l12 -103q-88 -43 -185 -54q-97 -10 -169 22t-72 106q0 127 191 246q-74 -8 -140 -8q-223 0 -311 88t-49 276l149 703h304l-154 -723q-29 -139 113 -140q78 0 131 27l178 836h303l-209 -984q-60 -25 -118 -57t-122 -92
q-64 -61 -63 -121z" />
    <glyph glyph-name="Wcircumflex" unicode="&#x174;" horiz-adv-x="1740" 
d="M1862 1479l-643 -1479h-293l-8 807l6 149h-6q-23 -72 -56 -149l-352 -807h-295l-18 1479h327l-35 -893l-14 -160h4q27 80 62 160l383 893h237l2 -893l-10 -160h4q25 82 55 160l349 893h301zM1118 1892q53 0 82 -37l170 -217l-104 -79l-185 155l-254 -155l-67 79l260 217
q45 37 98 37z" />
    <glyph glyph-name="wcircumflex" unicode="&#x175;" horiz-adv-x="1595" 
d="M424 444q0 -88 -14 -151h4q14 61 57 151l289 603h248l22 -603q0 -66 -6 -129l-4 -22h4q18 76 53 153l262 601h267l-510 -1047h-279l-29 567q-5 77 7 125l2 21h-2q-20 -76 -54 -146l-276 -567h-275l-65 1047h301zM956 1475q53 0 84 -37l170 -217l-104 -80l-184 155
l-254 -155l-68 80l260 217q43 37 96 37z" />
    <glyph glyph-name="Ycircumflex" unicode="&#x176;" horiz-adv-x="1126" 
d="M1274 1479l-582 -875l-129 -604h-317l129 604l-213 875h338l110 -578h4l353 578h307zM815 1892q53 0 82 -37l170 -217l-104 -79l-185 155l-254 -155l-67 79l260 217q45 37 98 37z" />
    <glyph glyph-name="ycircumflex" unicode="&#x177;" horiz-adv-x="1056" 
d="M1077 1047l-794 -1487h-320l270 440l-116 1047h319l17 -605q0 -99 -11 -143l-4 -23h4q20 78 64 166l289 605h282zM692 1475q53 0 80 -37l170 -217l-104 -80l-185 155l-254 -155l-67 80l260 217q47 37 100 37z" />
    <glyph glyph-name="Ydieresis" unicode="&#x178;" horiz-adv-x="1126" 
d="M1274 1479l-582 -875l-129 -604h-317l129 604l-213 875h338l110 -578h4l353 578h307zM556 1573q-58 0 -91 36t-23 87t60 88t107 37q58 0 91 -37t23 -88t-59 -87q-50 -36 -108 -36zM954 1573q-58 0 -90 36q-33 36 -22 87q10 51 59 88t107 37t90 -37q34 -37 24 -88t-60 -87
t-108 -36z" />
    <glyph glyph-name="Zacute" unicode="&#x179;" horiz-adv-x="999" 
d="M1081 1479l-735 -1243h479l-49 -236h-901l735 1243h-424l50 236h845zM1014 1864l-326 -287h-174l203 295q79 45 183 44t114 -52z" />
    <glyph glyph-name="zacute" unicode="&#x17a;" horiz-adv-x="866" 
d="M850 1047l-518 -850h344l-41 -197h-737l534 850h-319l43 197h694zM858 1446l-326 -287h-174l203 295q79 45 183 44t114 -52z" />
    <glyph glyph-name="Zdot" unicode="&#x17b;" horiz-adv-x="999" 
d="M1081 1479l-735 -1243h479l-49 -236h-901l735 1243h-424l50 236h845zM743 1927q61 0 96 -44t21 -106q-14 -61 -66 -105t-114 -44t-97 44q-36 44 -22 106q13 62 67 105q54 44 115 44z" />
    <glyph glyph-name="zdot" unicode="&#x17c;" horiz-adv-x="866" 
d="M850 1047l-518 -850h344l-41 -197h-737l534 850h-319l43 197h694zM524 1210q-62 0 -97 44t-21 106t67 105q53 44 115 44t96 -44q35 -44 21 -106q-15 -61 -67 -105t-114 -44z" />
    <glyph glyph-name="Zcaron" unicode="&#x17d;" horiz-adv-x="999" 
d="M1081 1479l-735 -1243h479l-49 -236h-901l735 1243h-424l50 236h845zM675 1550q-54 0 -85 39l-172 217l102 76l193 -158l256 158l69 -76l-262 -217q-47 -39 -101 -39z" />
    <glyph glyph-name="zcaron" unicode="&#x17e;" horiz-adv-x="866" 
d="M850 1047l-518 -850h344l-41 -197h-737l534 850h-319l43 197h694zM520 1147q-54 0 -86 39l-170 217l101 76l192 -160l256 160l72 -76l-264 -217q-47 -39 -101 -39z" />
    <glyph glyph-name="longs" unicode="&#x17f;" horiz-adv-x="663" 
d="M811 1522l-41 -191q-160 6 -195 -151l-249 -1180h-301l180 850h-115l43 197h115l22 106q40 197 186 295t355 74z" />
    <glyph glyph-name="florin" unicode="&#x192;" horiz-adv-x="1241" 
d="M1143 1280q-125 0 -211 -213l-72 -172h219l-43 -205h-260l-278 -682q-80 -196 -218 -318t-311 -122q-117 0 -198 45l86 221q43 -31 111 -31q68 -1 119 57q52 58 112 203l256 627h-215l43 205h256l75 182q78 191 180 298q116 124 322 124q123 0 217 -39l-80 -203
q-51 23 -110 23z" />
    <glyph glyph-name="gacute" unicode="&#x1f5;" horiz-adv-x="1122" 
d="M498 514q90 0 146 51t73 135q39 186 -142 187q-180 -1 -219 -187t142 -186zM393 201h160q182 0 265 -89t56 -221q-36 -166 -186 -264t-380 -98t-344 73t-85 199q8 43 45 111h266q-31 -37 -42 -92q-10 -55 50 -84t158 -29t165 44q67 43 80 109t-21 88q-35 22 -125 21h-144
q-121 0 -203 50t-58 163t151 209q-154 98 -109 309q35 168 167 268t355 101q84 0 174 -22h349l-35 -160h-127q29 -86 8 -187q-33 -160 -165 -264t-359 -104l-92 2q-51 -31 -57 -66t18 -51q25 -16 65 -16zM981 1446l-326 -287h-174l203 295q80 45 184 44t113 -52z" />
    <glyph glyph-name="Aringacute" unicode="&#x1fa;" horiz-adv-x="1294" 
d="M725 1104q0 43 2 63l2 23h-4q-20 -72 -70 -170l-225 -455h334l-35 455q-4 41 -4 84zM855 1726q-27 0 -49 -18t-27 -44t9 -44t40 -18t49 18q22 18 27 44t-9 44t-40 18zM1135 0h-326l-29 367h-450l-183 -367h-299l783 1458h340zM805 1487q-74 0 -115 52t-24 126
q16 74 78 126t136 52t116 -52q40 -52 24 -126t-78 -126t-137 -52zM1163 2087l-219 -219h-178l182 219h215z" />
    <glyph glyph-name="aringacute" unicode="&#x1fb;" horiz-adv-x="1056" 
d="M612 539q-156 -15 -240 -61t-108 -154q-39 -176 156 -177q66 0 115 23zM626 1225q26 0 48 18t27 44t-9 44q-14 19 -40 19t-48 -18t-28 -45q-4 -26 10 -44t40 -18zM492 879q-98 0 -279 -64l43 199q4 0 74 22q103 33 266 33q412 0 332 -383l-133 -627q-167 -79 -411 -79
t-341 83q-96 84 -61 248q40 197 235 281q171 74 428 98l10 49q16 78 -24 109q-41 31 -139 31zM602 1110q-74 0 -115 52t-25 126t78 126q64 52 138 52t114 -52t25 -126q-17 -74 -79 -126t-136 -52zM963 1726l-218 -219h-178l183 219h213z" />
    <glyph glyph-name="AEacute" unicode="&#x1fc;" horiz-adv-x="1615" 
d="M813 1184h-4q-29 -68 -72 -140l-280 -479h327l13 479zM1569 1479l-49 -236h-459l10 -375h373l-49 -229h-324l12 -403h377l-49 -236h-651l4 367h-428l-221 -365h-299l932 1477h821zM1483 1864l-326 -287h-174l203 295q80 45 184 44t113 -52z" />
    <glyph glyph-name="aeacute" unicode="&#x1fd;" horiz-adv-x="1615" 
d="M600 537q-150 -13 -238 -63t-110 -155q-35 -170 119 -169q67 0 115 38t63 107zM1116 889q-86 1 -143 -63t-103 -222h357q59 285 -111 285zM1054 188q142 0 326 70l-45 -213q-184 -65 -383 -65t-280 155q-121 -156 -353 -155q-197 0 -285 85t-57 227q30 142 128 225
q99 83 225 119t305 54l10 47q16 74 -25 108q-42 34 -111 34t-157 -22t-141 -44l43 201q162 55 332 55q205 0 252 -145q63 70 153 108t176 37q221 1 299 -167t7 -449h-627q-23 -109 22 -187q44 -78 186 -78zM1280 1446l-326 -287h-174l203 295q79 45 183 44t114 -52z" />
    <glyph glyph-name="Oslashacute" unicode="&#x1fe;" horiz-adv-x="1335" 
d="M559 223q256 0 369 529q35 167 33 282l-568 -676q37 -135 166 -135zM784 1282q-256 0 -368 -530q-33 -154 -35 -258l563 669q-41 119 -160 119zM831 1499q197 0 310 -102l131 155l78 -57l-148 -174q125 -205 48 -563t-263 -569q-186 -210 -479 -209q-215 0 -332 120
l-143 -172l-78 58l166 198q-105 203 -31 547t261 556t480 212zM1208 1864l-325 -287h-176l202 295q79 45 183 44t116 -52z" />
    <glyph glyph-name="oslashacute" unicode="&#x1ff;" horiz-adv-x="1085" 
d="M424 172q170 0 242 352q26 127 24 193l-371 -471q29 -74 105 -74zM562 879q-87 1 -142 -95t-84 -229t-29 -211l369 469q-27 66 -114 66zM1010 1120l-123 -157q135 -133 71 -439q-52 -244 -204 -394t-371 -150q-137 0 -227 61l-121 -154l-60 39l129 164q-129 145 -67 434
q53 242 205 394t370 151q137 0 222 -59l116 149zM1016 1446l-326 -287h-174l203 295q79 45 183 44t114 -52z" />
    <glyph glyph-name="Scommaaccent" unicode="&#x218;" horiz-adv-x="1089" 
d="M588 -289q-16 -119 -135 -195t-271 -81l-35 121q88 10 151 52q62 42 74 120t-110 180h250q40 -28 62 -82t14 -115zM752 1274q-209 0 -246 -174q-12 -56 14 -100t61 -66q36 -22 105 -55q184 -87 234 -189t18 -244q-43 -206 -205 -336t-389 -130t-373 77l60 277
q154 -111 311 -111q114 0 182 53q68 52 84 130t-36 128t-175 103q-287 127 -225 407q39 188 196 322t382 133q82 0 148 -13t86 -22t73 -34l-51 -242q-121 86 -254 86z" />
    <glyph glyph-name="scommaaccent" unicode="&#x219;" horiz-adv-x="839" 
d="M444 -289q-16 -119 -135 -195t-270 -81l-35 121q88 10 151 52q62 42 73 120t-109 180h250q39 -28 61 -82t14 -115zM530 872q-57 0 -95 -30t-48 -78q-17 -88 107 -148t162 -131q38 -72 18 -172q-31 -141 -160 -237t-309 -96q-119 0 -256 53l51 235q84 -80 209 -80
q57 0 99 32t52 83q12 51 -10 85q-23 34 -90 63q-123 53 -158 126t-16 166q31 137 147 232q117 94 273 94t254 -59l-47 -222q-90 84 -183 84z" />
    <glyph glyph-name="uni021A" unicode="&#x21a;" horiz-adv-x="1028" 
d="M547 -289q-16 -119 -135 -195t-271 -81l-35 121q88 10 151 52q61 42 73 120t-109 180h250q39 -28 61 -82t15 -115zM1122 1479l-49 -236h-291l-264 -1243h-317l264 1243h-293l49 236h901z" />
    <glyph glyph-name="uni021B" unicode="&#x21b;" horiz-adv-x="712" 
d="M424 -289q-16 -119 -135 -195t-271 -81l-34 121q88 10 150 52t74 120t-110 180h250q40 -28 62 -82t14 -115zM457 182q27 0 71 11l-39 -185q-61 -29 -155 -28q-156 0 -217 86t-33 215l121 569h-115l43 197h115l47 223l309 80l-63 -303h166l-43 -197h-166l-117 -547
q-25 -121 76 -121z" />
    <glyph glyph-name="circumflex" unicode="&#x2c6;" 
d="M438 1475q53 0 80 -37l170 -217l-104 -80l-185 155l-254 -155l-67 80l260 217q47 37 100 37z" />
    <glyph glyph-name="caron" unicode="&#x2c7;" 
d="M367 1147q-55 0 -86 39l-168 217l98 76l192 -160l259 160l69 -76l-262 -217q-47 -39 -102 -39z" />
    <glyph glyph-name="breve" unicode="&#x2d8;" 
d="M369 1155q-79 0 -135 30q-56 31 -76 73q-50 106 -23 188l113 29q6 -156 153 -156q137 0 226 156l98 -29q-23 -109 -114 -200t-242 -91z" />
    <glyph glyph-name="dotaccent" unicode="&#x2d9;" 
d="M444 1509q61 0 96 -44t21 -106q-14 -61 -66 -105q-51 -44 -113 -44t-98 44t-22 106t68 105q54 44 114 44z" />
    <glyph glyph-name="ring" unicode="&#x2da;" 
d="M387 1245q35 1 65 25t37 59q8 35 -11 60t-54 25t-65 -26q-29 -24 -37 -59t11 -59t54 -25zM366 1149q-76 0 -116 52q-41 52 -25 128q14 76 79 128q64 52 140 52t117 -52t26 -128t-80 -128t-141 -52z" />
    <glyph glyph-name="ogonek" unicode="&#x2db;" 
d="M131 -209q0 -59 93 -51q50 4 118 31l12 -103q-88 -43 -185 -54q-97 -10 -169 22t-72 106q0 141 252 270h176q-225 -127 -225 -221z" />
    <glyph glyph-name="tilde" unicode="&#x2dc;" 
d="M249 1255q-52 0 -120 -43t-92 -82l39 181q92 102 198 102q60 0 136 -42t131 -42t121 43t92 84l-39 -180q-94 -104 -197 -105q-57 0 -137 42t-132 42z" />
    <glyph glyph-name="hungarumlaut" unicode="&#x2dd;" 
d="M410 1470q75 0 71 -47l-297 -264h-112l200 262q63 49 138 49zM706 1470q74 0 74 -47l-299 -264h-110l200 262q61 49 135 49z" />
    <glyph glyph-name="gravecmb" unicode="&#x300;" 
d="M625 1577h-174l-203 287q31 51 135 52t166 -44z" />
    <glyph glyph-name="acutecmb" unicode="&#x301;" 
d="M776 1864l-325 -287h-175l203 295q79 45 183 44t114 -52z" />
    <glyph glyph-name="circumflexcmb" unicode="&#x302;" 
d="M520 1892q53 0 80 -37l170 -217l-104 -79l-185 155l-254 -155l-67 79l260 217q47 37 100 37z" />
    <glyph glyph-name="tildecmb" unicode="&#x303;" 
d="M331 1673q-52 0 -120 -43t-92 -82l39 181q92 102 198 102q60 0 136 -42t130 -42t121 43q66 43 93 84l-39 -180q-94 -104 -197 -105q-57 0 -137 42t-132 42z" />
    <glyph glyph-name="macroncmb" unicode="&#x304;" 
d="M834 1804l-35 -166h-668l35 166h668z" />
    <glyph glyph-name="brevecmb" unicode="&#x306;" 
d="M451 1573q-79 0 -135 30q-56 31 -76 73q-50 105 -23 188l113 28q6 -156 153 -155q137 0 226 155l98 -28q-23 -109 -114 -200t-242 -91z" />
    <glyph glyph-name="dotaccentcmb" unicode="&#x307;" 
d="M526 1927q61 0 96 -44t21 -106q-14 -61 -66 -105q-51 -44 -113 -44t-98 44t-22 106t68 105q54 44 114 44z" />
    <glyph glyph-name="dieresiscmb" unicode="&#x308;" 
d="M254 1593q-57 0 -90 36t-23 87q9 51 59 88t107 37t91 -37t24 -88t-60 -87t-108 -36zM652 1593q-58 0 -91 36t-22 87q10 51 59 88q50 37 108 37t92 -37t23 -88q-10 -51 -60 -87q-51 -36 -109 -36z" />
    <glyph glyph-name="ringcmb" unicode="&#x309;" 
d="M506 1831q-35 0 -65 -25q-30 -26 -38 -60q-9 -34 11 -58t55 -25q35 1 65 25t37 59q8 35 -11 59t-54 25zM448 1567q-76 0 -116 52q-41 52 -25 128q14 76 79 128q64 52 140 52t117 -52t26 -128t-80 -128t-141 -52z" />
    <glyph glyph-name="hungarumlautcmb" unicode="&#x30b;" 
d="M492 1888q75 0 71 -47l-297 -264h-112l200 262q63 49 138 49zM788 1888q74 0 74 -47l-299 -264h-110l200 262q61 49 135 49z" />
    <glyph glyph-name="caroncmb" unicode="&#x30c;" 
d="M469 1565q-55 0 -86 39l-168 217l98 75l193 -159l258 159l70 -75l-263 -217q-47 -39 -102 -39z" />
    <glyph glyph-name="cedillacmb" unicode="&#x327;" 
d="M56 -201q-68 0 -138 -4l72 88q219 18 302 -17q82 -36 64 -120q-20 -104 -184 -147t-426 -19l78 101q133 -14 224 5t102 58q4 18 -12 36q-14 18 -82 19z" />
    <glyph glyph-name="ogonekcmb" unicode="&#x328;" 
d="M131 -209q0 -59 93 -51q50 4 118 31l12 -103q-88 -43 -185 -54q-97 -10 -169 22t-72 106q0 141 252 270h176q-225 -127 -225 -221z" />
    <glyph glyph-name="soliduslongoverlaycmb" unicode="&#x338;" horiz-adv-x="548" 
 />
    <glyph glyph-name="Delta" unicode="&#x394;" horiz-adv-x="1245" 
d="M750 236l-43 786l-2 143h-5q-49 -111 -65 -143l-385 -786h500zM1085 0h-1237l768 1479h328z" />
    <glyph glyph-name="Delta" unicode="&#x2206;" horiz-adv-x="1245" 
d="M750 236l-43 786l-2 143h-5q-49 -111 -65 -143l-385 -786h500zM1085 0h-1237l768 1479h328z" />
    <glyph glyph-name="Omega" unicode="&#x3a9;" horiz-adv-x="1411" 
d="M823 1282q-129 0 -218 -126t-136 -345q-104 -521 23 -811h-570l47 223h242q-53 109 -73 267t12 337q63 297 251 485t468 187q281 -1 389 -187t45 -485q-35 -161 -126 -327t-192 -277h240l-47 -223h-570q258 301 367 811q49 207 13 339t-165 132z" />
    <glyph glyph-name="Omega" unicode="&#x2126;" horiz-adv-x="1411" 
d="M823 1282q-129 0 -218 -126t-136 -345q-104 -521 23 -811h-570l47 223h242q-53 109 -73 267t12 337q63 297 251 485t468 187q281 -1 389 -187t45 -485q-35 -161 -126 -327t-192 -277h240l-47 -223h-570q258 301 367 811q49 207 13 339t-165 132z" />
    <glyph glyph-name="pi" unicode="&#x3c0;" horiz-adv-x="1323" 
d="M1311 1047l-41 -189h-129l-111 -524q-6 -39 -8 -71t24 -52t82 -16l-41 -195q-300 -32 -352 93q-25 61 -25 107t13 113l115 545h-283l-182 -858h-303l182 858h-129l41 189h1147z" />
    <glyph glyph-name="Wgrave" unicode="&#x1e80;" horiz-adv-x="1740" 
d="M1862 1479l-643 -1479h-293l-8 807l6 149h-6q-23 -72 -56 -149l-352 -807h-295l-18 1479h327l-35 -893l-14 -160h4q27 80 62 160l383 893h237l2 -893l-10 -160h4q25 82 55 160l349 893h301zM1137 1577h-174l-203 287q31 51 135 52t166 -44z" />
    <glyph glyph-name="wgrave" unicode="&#x1e81;" horiz-adv-x="1595" 
d="M424 444q0 -88 -14 -151h4q14 61 57 151l289 603h248l22 -603q0 -66 -6 -129l-4 -22h4q18 76 53 153l262 601h267l-510 -1047h-279l-29 567q-5 77 7 125l2 21h-2q-20 -76 -54 -146l-276 -567h-275l-65 1047h301zM987 1159h-174l-203 287q31 51 135 52t166 -44z" />
    <glyph glyph-name="Wacute" unicode="&#x1e82;" horiz-adv-x="1740" 
d="M1862 1479l-643 -1479h-293l-8 807l6 149h-6q-23 -72 -56 -149l-352 -807h-295l-18 1479h327l-35 -893l-14 -160h4q27 80 62 160l383 893h237l2 -893l-10 -160h4q25 82 55 160l349 893h301zM1391 1864l-326 -287h-174l203 295q80 45 184 44t113 -52z" />
    <glyph glyph-name="wacute" unicode="&#x1e83;" horiz-adv-x="1595" 
d="M424 444q0 -88 -14 -151h4q14 61 57 151l289 603h248l22 -603q0 -66 -6 -129l-4 -22h4q18 76 53 153l262 601h267l-510 -1047h-279l-29 567q-5 77 7 125l2 21h-2q-20 -76 -54 -146l-276 -567h-275l-65 1047h301zM1241 1446l-326 -287h-174l203 295q80 45 184 44t113 -52z
" />
    <glyph glyph-name="Wdieresis" unicode="&#x1e84;" horiz-adv-x="1740" 
d="M1862 1479l-643 -1479h-293l-8 807l6 149h-6q-23 -72 -56 -149l-352 -807h-295l-18 1479h327l-35 -893l-14 -160h4q27 80 62 160l383 893h237l2 -893l-10 -160h4q25 82 55 160l349 893h301zM850 1593q-57 0 -90 36t-23 87q9 51 59 88t107 37t91 -37t24 -88t-60 -87
t-108 -36zM1248 1593q-58 0 -91 36t-22 87q10 51 59 88q50 37 108 37t92 -37t23 -88q-10 -51 -60 -87q-51 -36 -109 -36z" />
    <glyph glyph-name="wdieresis" unicode="&#x1e85;" horiz-adv-x="1595" 
d="M424 444q0 -88 -14 -151h4q14 61 57 151l289 603h248l22 -603q0 -66 -6 -129l-4 -22h4q18 76 53 153l262 601h267l-510 -1047h-279l-29 567q-5 77 7 125l2 21h-2q-20 -76 -54 -146l-276 -567h-275l-65 1047h301zM743 1423q57 0 91 -37t24 -88t-60 -87q-50 -35 -108 -35
t-90 36q-33 36 -22 86q10 51 59 88t106 37zM1142 1423q58 0 92 -37t23 -88q-10 -51 -60 -87q-50 -35 -108 -35t-92 35q-33 36 -22 87q10 51 59 88q50 37 108 37z" />
    <glyph glyph-name="Ygrave" unicode="&#x1ef2;" horiz-adv-x="1126" 
d="M1274 1479l-582 -875l-129 -604h-317l129 604l-213 875h338l110 -578h4l353 578h307zM834 1577h-175l-202 287q31 51 135 52t166 -44z" />
    <glyph glyph-name="ygrave" unicode="&#x1ef3;" horiz-adv-x="1056" 
d="M1077 1047l-794 -1487h-320l270 440l-116 1047h319l17 -605q0 -99 -11 -143l-4 -23h4q20 78 64 166l289 605h282zM719 1159h-174l-203 287q31 51 135 52t166 -44z" />
    <glyph glyph-name="endash" unicode="&#x2013;" horiz-adv-x="860" 
d="M850 682l-41 -188h-860l41 188h860z" />
    <glyph glyph-name="emdash" unicode="&#x2014;" horiz-adv-x="1720" 
d="M1706 668l-33 -160h-1720l33 160h1720z" />
    <glyph glyph-name="quoteleft" unicode="&#x2018;" horiz-adv-x="632" 
d="M254 924q-59 0 -81 26t-19 68l442 590h162l-307 -590q-82 -94 -197 -94z" />
    <glyph glyph-name="quoteright" unicode="&#x2019;" horiz-adv-x="632" 
d="M604 1622q108 0 107 -94l-443 -592h-164l310 592q82 94 190 94z" />
    <glyph glyph-name="quotesinglbase" unicode="&#x201a;" horiz-adv-x="632" 
d="M330 338q110 0 106 -94l-440 -590h-164l307 590q81 94 191 94z" />
    <glyph glyph-name="quotedblleft" unicode="&#x201c;" horiz-adv-x="1077" 
d="M254 924q-59 0 -81 26t-19 68l442 590h162l-307 -590q-82 -94 -197 -94zM704 924q-112 0 -108 94l442 590h164l-309 -590q-77 -94 -189 -94z" />
    <glyph glyph-name="quotedblright" unicode="&#x201d;" horiz-adv-x="1077" 
d="M604 1622q108 0 107 -94l-443 -592h-164l310 592q82 94 190 94zM1048 1622q108 0 107 -94l-444 -592h-164l311 592q82 94 190 94z" />
    <glyph glyph-name="quotedblbase" unicode="&#x201e;" horiz-adv-x="1077" 
d="M330 338q110 0 106 -94l-440 -590h-164l307 590q81 94 191 94zM780 338q59 0 81 -26t20 -68l-443 -590h-164l310 590q82 94 196 94z" />
    <glyph glyph-name="dagger" unicode="&#x2020;" horiz-adv-x="1236" 
d="M1237 1116l-68 -319l-395 24l-242 -1261h-329l295 1261l-402 -24l68 319l391 -24l84 516h330l-138 -516z" />
    <glyph glyph-name="daggerdbl" unicode="&#x2021;" horiz-adv-x="1236" 
d="M1235 1112l-53 -258l-402 16l-112 -530l407 14l-55 -256l-399 17l-97 -555h-311l139 555l-405 -17l55 256l397 -14l113 530l-403 -16l53 258l399 -16l88 512h312l-132 -512z" />
    <glyph glyph-name="bullet" unicode="&#x2022;" horiz-adv-x="802" 
d="M345 465q-119 0 -187 85t-42 205t129 206t223 86t188 -85t41 -205q-26 -120 -129 -206t-223 -86z" />
    <glyph glyph-name="ellipsis" unicode="&#x2026;" horiz-adv-x="1904" 
d="M158 -20q-74 0 -116 53t-26 127t80 127t137 53q74 0 116 -53t27 -127t-80 -127q-64 -53 -138 -53zM792 -20q-74 0 -115 53q-42 53 -26 127q15 74 79 127t138 53t116 -53t27 -127t-80 -127t-139 -53zM1427 -20q-73 0 -115 53t-26 127t80 127t137 53q74 0 116 -53t27 -127
t-80 -127t-139 -53z" />
    <glyph glyph-name="perthousand" unicode="&#x2030;" horiz-adv-x="2549" 
d="M419 682q65 0 105 89t74 249q35 133 33 238q-3 106 -67 106t-106 -92t-75 -252q-35 -130 -32 -234t68 -104zM1409 815q-65 0 -107 -91t-75 -251q-35 -133 -32 -236t67 -103t106 88q41 89 76 251q76 342 -35 342zM2138 813q-64 0 -106 -91q-41 -91 -74 -251
q-35 -131 -32 -234t67 -104q67 0 107 89t73 249q35 133 32 237t-67 105zM592 1499q244 0 232 -318q-10 -270 -151 -490q-48 -75 -122 -119t-166 -44q-306 0 -209 484q40 186 128 323q48 76 122 120t166 44zM1466 1450l-974 -1499l-125 59l974 1497zM1438 950q304 0 207 -485
q-35 -175 -132 -330t-282 -155q-92 0 -148 44q-88 71 -82 254q6 184 71 355q122 317 366 317zM1960 -20q-306 0 -209 483q36 179 128 323q48 76 122 120t166 44q306 0 209 -487q-36 -181 -126 -321q-48 -74 -123 -118t-167 -44z" />
    <glyph glyph-name="guilsinglleft" unicode="&#x2039;" horiz-adv-x="673" 
d="M608 965l-321 -383l159 -383l-196 -101l-201 484l410 485z" />
    <glyph glyph-name="guilsinglright" unicode="&#x203a;" horiz-adv-x="673" 
d="M559 582l-405 -484l-152 101l320 383l-158 383l196 102z" />
    <glyph glyph-name="fraction" unicode="&#x2044;" horiz-adv-x="372" 
d="M748 1444l-979 -1499l-154 71l977 1497z" />
    <glyph glyph-name="fraction" unicode="&#x2215;" horiz-adv-x="372" 
d="M748 1444l-979 -1499l-154 71l977 1497z" />
    <glyph glyph-name="franc" unicode="&#x20a3;" horiz-adv-x="1200" 
d="M1202 1479l-49 -236h-451l-79 -375h397l-49 -229h-398l-43 -203h242l-43 -200h-242l-49 -236h-317l49 236h-205l43 200h205l221 1043h768z" />
    <glyph glyph-name="Euro" unicode="&#x20ac;" horiz-adv-x="1200" 
d="M763 231q122 0 216 64l-55 -252q-133 -63 -293 -63q-225 0 -326 150q-100 151 -86 400h-174l70 144h121q2 31 12 65q4 31 16 72h-145l69 143h123q99 252 273 398t377 147q160 0 260 -63l-50 -236q-23 29 -77 47t-117 19q-252 0 -371 -312h381l-69 -143h-357
q-25 -105 -29 -137h330l-69 -144h-269q4 -135 60 -217t179 -82z" />
    <glyph glyph-name="afii61289" unicode="&#x2113;" horiz-adv-x="1101" 
d="M500 -23q-143 0 -227 78q-83 78 -93 215v15q-53 -35 -102 -62l-58 160q6 4 80 49t109 70l82 456q45 248 163 373t277 125q127 0 198 -77t71 -199q-1 -235 -180 -428q-144 -156 -347 -306l-4 -28q-15 -90 21 -137t106 -48q119 0 264 160l113 -137q-180 -279 -473 -279z
M776 1157q0 94 -61 94q-93 0 -140 -252l-53 -276q254 231 254 434z" />
    <glyph glyph-name="trademark" unicode="&#x2122;" horiz-adv-x="1579" 
d="M762 1479l-29 -131h-176l-123 -580h-166l123 580h-178l29 131h520zM1565 1479l-152 -711h-156l95 444l-242 -444h-121l-53 444l-94 -444h-158l152 711h200l58 -502l270 502h201z" />
    <glyph glyph-name="estimated" unicode="&#x212e;" horiz-adv-x="1673" 
d="M1323 696v377q0 25 -20 45q-195 195 -465 195t-465 -201q-20 -20 -21 -47v-369q0 -10 10 -10h951q10 0 10 10zM1602 647h-1240q-10 0 -10 -8v-375q0 -20 19 -43q190 -203 478 -203t482 228h113q-106 -125 -266 -197t-340 -72q-317 0 -542 202q-224 202 -224 487
q0 284 224 486t542 202t540 -202q223 -202 224 -486v-19z" />
    <glyph glyph-name="partialdiff" unicode="&#x2202;" horiz-adv-x="1200" 
d="M795 731q-168 51 -298 -50t-170 -293t91 -191q122 -1 226 155t151 379zM1090 727q-60 -278 -232 -499q-88 -114 -222 -182t-306 -66q-172 0 -257 103t-46 287t169 325q130 139 294 193t319 13q6 156 -90 253t-230 134l138 211q223 -42 375 -236t88 -536z" />
    <glyph glyph-name="product" unicode="&#x220f;" horiz-adv-x="1642" 
d="M844 766q129 0 160 135q29 147 -101 148h-59l-60 -283h60zM840 651h-80l-72 -332h-190l180 842h270q145 1 207 -67t37 -187t-117 -187t-235 -69zM959 1376q-249 0 -465 -189t-272 -449q-54 -260 81 -447q135 -189 385 -189t465 188t270 449t-80 449t-384 188zM662 -20
q-299 0 -465 224t-101 535q66 311 328 535t561 225q299 -1 465 -225t100 -535t-328 -535t-560 -224z" />
    <glyph glyph-name="summation" unicode="&#x2211;" horiz-adv-x="1200" 
d="M1229 1479l-45 -219h-525l228 -687l-543 -759h555l-55 -254h-998l713 995l-305 924h975z" />
    <glyph glyph-name="minus" unicode="&#x2212;" horiz-adv-x="1155" 
d="M991 723l-43 -205h-831l43 205h831z" />
    <glyph glyph-name="radical" unicode="&#x221a;" horiz-adv-x="1155" 
d="M1313 1608l-715 -1608h-285l-90 834h-164l39 186h398l28 -643l4 2l506 1229h279z" />
    <glyph glyph-name="infinity" unicode="&#x221e;" horiz-adv-x="1728" 
d="M490 793q-70 1 -126 -47t-72 -116t22 -115q38 -48 108 -48t130 36t153 128q-57 90 -101 126t-114 36zM1262 805q-70 0 -127 -34t-152 -130q55 -90 99 -126t115 -36t127 45t69 115q16 70 -22 118q-39 48 -109 48zM1149 260q-119 0 -198 50t-142 163q-119 -117 -212 -165
t-212 -48q-166 0 -246 106t-45 268t160 272t291 110q115 0 187 -51t147 -168q121 117 212 168t214 51q167 0 245 -110t43 -270t-157 -268t-287 -108z" />
    <glyph glyph-name="integral" unicode="&#x222b;" horiz-adv-x="1200" 
d="M1176 1606l-46 -205q-188 10 -223 -160l-272 -1278q-45 -207 -210 -317t-384 -84l43 205q190 -10 225 157l273 1278q45 207 209 318t385 86z" />
    <glyph glyph-name="approxequal" unicode="&#x2248;" horiz-adv-x="1155" 
d="M651 244q-68 0 -168 59t-170 59q-135 0 -250 -94l43 207q109 88 248 88q72 0 172 -59t168 -60q143 1 260 101l-45 -203q-111 -98 -258 -98zM743 674q-68 0 -169 59t-171 60q-137 0 -247 -93l43 205q104 88 247 88q72 0 172 -59t168 -60q145 1 258 101l-43 -203
q-111 -98 -258 -98z" />
    <glyph glyph-name="notequal" unicode="&#x2260;" horiz-adv-x="1155" 
d="M1032 913l-41 -186h-272l-164 -211h393l-41 -188h-495l-187 -238l-110 70l131 168h-170l41 188h272l166 211h-395l41 186h497l176 228l113 -68l-125 -160h170z" />
    <glyph glyph-name="lessequal" unicode="&#x2264;" horiz-adv-x="1155" 
d="M897 283l-37 -174h-831l37 174h831zM1081 1147l-41 -191l-618 -186l541 -186l-41 -191l-768 297l32 160z" />
    <glyph glyph-name="greaterequal" unicode="&#x2265;" horiz-adv-x="1155" 
d="M897 283l-37 -174h-831l37 174h831zM1018 850l-33 -160l-895 -297l41 191l619 186l-541 186l41 191z" />
    <glyph glyph-name="lozenge" unicode="&#x25ca;" horiz-adv-x="1294" 
d="M963 723l-232 469l-397 -436l233 -469zM1214 739l-727 -759l-403 759l727 760z" />
    <glyph glyph-name="apple" unicode="&#xf000;" horiz-adv-x="1601" 
d="M1079 -53q-43 1 -111 29t-136 28t-149 -31t-110 -30q-92 1 -186 113t-153 272q-58 160 -58 299q0 199 106 323t277 125q63 0 147 -31q84 -30 114 -30q28 0 115 33t155 32q190 0 296 -145q-90 -68 -128 -134t-38 -159q0 -94 55 -175q54 -81 150 -122q-78 -188 -169 -292
t-177 -105zM1094 1415q8 -143 -86 -249t-220 -105q2 147 84 242q83 94 222 112z" />
    <glyph glyph-name="dotlessj" unicode="&#xf6be;" 
d="M500 1047l-201 -936q-53 -249 -218 -397t-378 -158l43 204q96 29 154 98q57 69 90 218l207 971h303z" />
    <glyph glyph-name="dotlessj" unicode="&#xfb0f;" 
d="M500 1047l-201 -936q-53 -249 -218 -397t-378 -158l43 204q96 29 154 98q57 69 90 218l207 971h303z" />
    <glyph glyph-name="commaaccent" unicode="&#xf6c3;" 
d="M403 -289q-16 -119 -135 -195t-270 -81l-35 121q88 10 151 52q62 42 73 120t-109 180h250q39 -28 61 -82t14 -115z" />
    <glyph glyph-name="fi" unicode="&#xfb01;" horiz-adv-x="1210" 
d="M795 1522l-41 -191q-162 6 -195 -151l-27 -133h162l-43 -197h-162l-180 -850h-301l180 850h-114l43 197h114l23 106q40 197 186 295t355 74zM1151 1047l-223 -1047h-303l223 1047h303zM1028 1186q-68 0 -106 48t-25 116t73 116t128 50q68 0 106 -49t25 -117t-73 -116
t-128 -48z" />
    <glyph glyph-name="fl" unicode="&#xfb02;" horiz-adv-x="1210" 
d="M795 1522l-41 -191q-162 6 -195 -151l-27 -133h162l-43 -197h-162l-180 -850h-301l180 850h-114l43 197h114l23 106q40 197 186 295t355 74zM1241 1479l-313 -1479h-303l313 1479h303z" />
    <glyph glyph-name="Gcedilla" horiz-adv-x="1232" 
d="M484 -201q-46 0 -115 -4l71 88q219 19 302 -17t65 -120q-20 -104 -184 -147t-426 -19l77 101q132 -14 224 5t101 57t-42 50q-27 6 -73 6zM885 1266q-360 0 -471 -525q-51 -266 -1 -397t181 -131q45 0 119 18l129 609h293l-164 -777q-158 -84 -408 -83q-311 0 -429 200
t-43 558q75 356 292 558t512 203q184 0 313 -61l-51 -246q-131 74 -272 74z" />
    <glyph glyph-name="gcedilla" horiz-adv-x="1122" 
d="M498 514q90 0 146 51t73 135q39 186 -142 187q-180 -1 -219 -187t142 -186zM259 -631q-46 0 -116 -4l72 88q219 19 302 -17t65 -120q-20 -104 -184 -147t-427 -19l78 100q133 -14 224 6t102 58q8 38 -43 49q-27 6 -73 6zM393 201h160q182 0 265 -89t56 -221
q-36 -166 -186 -264t-380 -98t-344 73t-85 199q8 43 45 111h266q-31 -37 -42 -92q-10 -55 50 -84t158 -29t165 44q67 43 80 109t-21 88q-35 22 -125 21h-144q-121 0 -203 50t-58 163t151 209q-154 98 -109 309q35 168 167 268t355 101q84 0 174 -22h349l-35 -160h-127
q29 -86 8 -187q-33 -160 -165 -264t-359 -104l-92 2q-51 -31 -57 -66t18 -51q25 -16 65 -16z" />
    <glyph glyph-name="Kcedilla" horiz-adv-x="1216" 
d="M96 -201q-68 0 -137 -4l72 88q219 18 302 -17q82 -36 64 -120q-20 -104 -184 -147t-426 -19l78 101q133 -14 224 5t101 58q4 18 -11 36t-83 19zM1327 1479l-563 -682l276 -797h-372l-213 733h-4l-156 -733h-318l314 1479h317l-141 -670h4l516 670h340z" />
    <glyph glyph-name="kcedilla" horiz-adv-x="1089" 
d="M54 -201q-46 0 -115 -4l71 88q219 19 302 -17t65 -120q-20 -104 -184 -147t-426 -19l77 101q132 -14 224 5t101 57t-42 50q-27 6 -73 6zM1098 1047l-428 -469l250 -578h-345l-186 528h-4l-113 -528h-301l314 1479h301l-189 -895h4l394 463h303z" />
    <glyph glyph-name="Lcedilla" horiz-adv-x="907" 
d="M218 -201q-46 0 -116 -4l72 88q219 19 302 -17t65 -120q-21 -104 -185 -147t-426 -19l78 101q133 -14 224 5t102 58q8 38 -43 49q-27 6 -73 6zM735 233l-49 -233h-709l314 1479h317l-264 -1246h391z" />
    <glyph glyph-name="lcedilla" 
d="M56 -201q-68 0 -138 -4l72 88q219 18 302 -17q82 -36 64 -120q-20 -104 -184 -147t-426 -19l78 101q133 -14 224 5t102 58q4 18 -12 36q-14 18 -82 19zM588 1479l-314 -1479h-303l314 1479h303z" />
    <glyph glyph-name="Ncedilla" horiz-adv-x="1392" 
d="M54 -201q-46 0 -115 -4l71 88q219 19 302 -17t65 -120q-20 -104 -184 -147t-426 -19l77 101q132 -14 224 5t101 57t-42 50q-27 6 -73 6zM1417 1479l-313 -1479h-266l-316 829l-45 158h-4q-10 -82 -27 -164l-174 -823h-295l314 1479h307l293 -760l45 -141h4q6 70 23 147
l159 754h295z" />
    <glyph glyph-name="ncedilla" horiz-adv-x="1130" 
d="M54 -201q-46 0 -115 -4l71 88q219 19 302 -17t65 -120q-20 -104 -184 -147t-426 -19l77 101q132 -14 224 5t101 57t-42 50q-27 6 -73 6zM619 1069q248 0 336 -90t55 -244l-156 -735h-303l156 733q31 145 -125 146q-70 0 -131 -21l-183 -858h-303l211 989q195 80 443 80z
" />
    <glyph glyph-name="Rcedilla" horiz-adv-x="1234" 
d="M598 829q120 1 188 53t97 185t-19 185t-166 53h-129l-100 -476h129zM54 -201q-46 0 -115 -4l71 88q219 19 302 -17t65 -120q-20 -104 -184 -147t-426 -19l77 101q132 -14 224 5t101 57t-42 50q-27 6 -73 6zM803 1479q225 0 327 -113t64 -297q-29 -135 -126 -231
t-239 -138l209 -700h-344l-182 645h-82l-137 -645h-316l314 1479h512z" />
    <glyph glyph-name="rcedilla" horiz-adv-x="718" 
d="M54 -201q-46 0 -115 -4l71 88q219 19 302 -17t65 -120q-20 -104 -184 -147t-426 -19l77 101q132 -14 224 5t101 57t-42 50q-27 6 -73 6zM608 1071q74 0 144 -12l-95 -197q-115 27 -206 -8l-183 -854h-303l209 987q221 84 434 84z" />
    <glyph glyph-name="Omegagreek" horiz-adv-x="548" 
 />
    </font>
</defs>
</svg>
