<?xml version="1.0" standalone="no"?>
<!DOCTYPE svg PUBLIC "-//W3C//DTD SVG 1.1//EN" "http://www.w3.org/Graphics/SVG/1.1/DTD/svg11.dtd" >
<svg xmlns="http://www.w3.org/2000/svg">
<metadata>
Created by FontPrep 20130207 at Mon May 18 12:43:27 2015
 By Nathan Crenshaw
Copyright (c) United Parcel Services, Inc, 2002. All rights reserved.
</metadata>
<defs>
<font id="45ec83dd1386437a6e59d75961406ae7" horiz-adv-x='1024' >
  <font-face 
    font-family="UPSSans-Regular"
    font-weight="400"
    font-stretch="normal"
    units-per-em="2048"
    panose-1="2 11 6 6 6 0 0 2 0 4"
    ascent="1638"
    descent="-410"
    x-height="1047"
    cap-height="1479"
    bbox="-246 -818.475 2284 2087"
    underline-thickness="102"
    underline-position="-153"
    unicode-range="U+0009-FB02"
  />
<missing-glyph horiz-adv-x="565" 
 />
    <glyph glyph-name=".notdef" horiz-adv-x="565" 
 />
    <glyph glyph-name=".notdef" horiz-adv-x="565" 
 />
    <glyph glyph-name=".null" horiz-adv-x="0" 
 />
    <glyph glyph-name="nonmarkingreturn" horiz-adv-x="681" 
 />
    <glyph glyph-name="HT" unicode="&#x9;" horiz-adv-x="565" 
 />
    <glyph glyph-name="LF" unicode="&#xa;" horiz-adv-x="565" 
 />
    <glyph glyph-name="CR" unicode="&#xd;" horiz-adv-x="565" 
 />
    <glyph glyph-name="space" unicode=" " horiz-adv-x="565" 
 />
    <glyph glyph-name="exclam" unicode="!" horiz-adv-x="600" 
d="M418 96q0 -49 -35 -83q-35 -33 -84 -33t-83 34t-34 82q0 49 34 83t83 34t84 -34t35 -83zM406 1479l-39 -1026h-136l-38 1026h213z" />
    <glyph glyph-name="quotedbl" unicode="&#x22;" horiz-adv-x="786" 
d="M228 1524q56 0 87 -43l-41 -512h-92l-41 512q31 43 87 43zM559 1524q55 0 86 -43l-41 -512h-94l-41 512q35 43 90 43z" />
    <glyph glyph-name="numbersign" unicode="#" horiz-adv-x="1122" 
d="M715 954h-242l-70 -391h240zM1051 954h-230l-71 -391h215v-94h-232l-80 -469h-106l82 469h-240l-86 -469h-104l84 469h-211v94h227l70 391h-211v93h227l76 432h106l-75 -432h239l76 432h106l-75 -432h213v-93z" />
    <glyph glyph-name="dollar" unicode="$" horiz-adv-x="1122" 
d="M924 430q0 -162 -96 -272t-246 -138v-210h-115v206q-182 6 -287 76v146q140 -88 276 -88t210 74t74 184q0 108 -59 172q-58 64 -192 114q-297 115 -296 373q0 151 91 261t236 128v178h111v-176q145 -10 239 -74v-131q-135 84 -255 84q-120 -1 -183 -69t-63 -178t60 -164
q60 -55 177 -103q318 -125 318 -393z" />
    <glyph glyph-name="percent" unicode="%" horiz-adv-x="1724" 
d="M418 629q151 0 153 395q1 395 -153 395t-154 -399q0 -282 71 -355q34 -36 83 -36zM1308 860q-156 0 -155 -394q3 -394 155 -394t154 394t-154 394zM692 1018q0 -481 -275 -481t-276 481t275 481t276 -481zM1260 1464l-703 -1495l-94 43l702 1493zM1032 458q0 482 276 482
t275 -481q0 -481 -276 -482q-275 -1 -275 481z" />
    <glyph glyph-name="ampersand" unicode="&#x26;" horiz-adv-x="1323" 
d="M860 764h-51q-264 0 -383 -101t-119 -249t90 -228q89 -82 239 -82t224 33v627zM1239 764h-203v-705q-131 -79 -380 -79t-397 112t-148 309q0 299 385 412v4q-135 37 -213 132t-78 229t106 228q105 94 273 93q168 0 290 -59v-142q-124 72 -244 72t-181 -56t-61 -169
t79 -181q80 -68 201 -69h571v-131z" />
    <glyph glyph-name="quotesingle" unicode="'" horiz-adv-x="458" 
d="M229 1524q57 0 88 -43l-43 -512h-92l-41 512q31 43 88 43z" />
    <glyph glyph-name="parenleft" unicode="(" horiz-adv-x="743" 
d="M139 586q0 260 108 511t339 535l88 -53q-340 -475 -340 -993t340 -996l-88 -53q-231 285 -339 537t-108 512z" />
    <glyph glyph-name="parenright" unicode=")" horiz-adv-x="743" 
d="M604 586q0 -260 -108 -512t-338 -537l-88 53q340 478 340 996t-340 993l88 53q230 -286 338 -536t108 -510z" />
    <glyph glyph-name="asterisk" unicode="*" horiz-adv-x="720" 
d="M303 1524h109v-232l219 82l41 -98l-223 -78l135 -186l-84 -64l-142 197l-133 -197l-92 64l133 186l-217 78l37 98l217 -82v232z" />
    <glyph glyph-name="plus" unicode="+" horiz-adv-x="1081" 
d="M934 565h-332v-358h-125v358h-330v123h330v359h125v-359h332v-123z" />
    <glyph glyph-name="comma" unicode="," horiz-adv-x="536" 
d="M316 213q72 0 81 -51l-266 -506h-106l174 506q45 51 117 51z" />
    <glyph glyph-name="hyphen" unicode="-" horiz-adv-x="704" 
d="M584 518h-463v144h463v-144z" />
    <glyph glyph-name="hyphen" unicode="&#xad;" horiz-adv-x="704" 
d="M584 518h-463v144h463v-144z" />
    <glyph glyph-name="period" unicode="." horiz-adv-x="512" 
d="M373 96q0 -49 -35 -83q-35 -33 -84 -33t-83 34t-34 82q0 49 34 83t83 34t84 -34t35 -83z" />
    <glyph glyph-name="slash" unicode="/" horiz-adv-x="1153" 
d="M1120 1573l-970 -2038l-117 57l971 2038z" />
    <glyph glyph-name="zero" unicode="0" horiz-adv-x="1122" 
d="M827 739q0 633 -266 633t-266 -633t266 -633t266 633zM1010 739q0 -283 -88 -502q-48 -118 -140 -188q-92 -69 -221 -69q-343 1 -428 498q-20 124 -20 261q0 287 88 503q47 118 139 188t221 70q348 -1 428 -500q21 -124 21 -261z" />
    <glyph glyph-name="one" unicode="1" horiz-adv-x="1122" 
d="M743 0h-182v1309l-313 -152v131l373 191h122v-1479z" />
    <glyph glyph-name="two" unicode="2" horiz-adv-x="1122" 
d="M948 0h-803v123l449 614q145 199 145 355q0 124 -83 198t-222 74t-266 -59v139q134 55 326 55t311 -115t119 -276q0 -197 -183 -430l-411 -528h618v-150z" />
    <glyph glyph-name="three" unicode="3" horiz-adv-x="1122" 
d="M776 426q0 317 -442 305v125q172 10 277 86t105 195t-72 174q-73 55 -185 55q-174 0 -283 -59v139q133 53 308 53t295 -90t120 -246q0 -187 -194 -305q-41 -25 -82 -39v-4q338 -78 338 -389q1 -201 -139 -324q-140 -122 -351 -122t-328 51v149q113 -66 280 -66t260 85
q93 84 93 227z" />
    <glyph glyph-name="four" unicode="4" horiz-adv-x="1122" 
d="M715 459v610l4 229q-96 -172 -123 -219l-356 -620h475zM1012 336h-119v-336h-178v336h-613v123l598 1020h193v-1020h119v-123z" />
    <glyph glyph-name="five" unicode="5" horiz-adv-x="1122" 
d="M471 889q231 0 363 -125q132 -124 133 -324q-1 -200 -137 -330t-338 -130t-332 53v145q119 -66 293 -65q125 0 227 85q102 86 102 236t-98 234t-283 84h-219l64 727h680v-150h-547l-39 -440h131z" />
    <glyph glyph-name="six" unicode="6" horiz-adv-x="1122" 
d="M834 436q0 336 -322 336q-119 0 -197 -39q-18 -94 -18 -205q0 -198 69 -312q70 -114 204 -114t199 98t65 236zM1006 448q0 -206 -113 -337t-328 -131t-325 150t-111 409q0 188 56 349q57 161 139 262t188 179q174 128 352 170v-139q-391 -133 -524 -510q102 39 203 39
q205 0 334 -117q129 -118 129 -324z" />
    <glyph glyph-name="seven" unicode="7" horiz-adv-x="1122" 
d="M127 1329v150h854v-123l-145 -338q-120 -276 -226 -568t-147 -450h-230l582 1329h-688z" />
    <glyph glyph-name="eight" unicode="8" horiz-adv-x="1122" 
d="M834 350q0 109 -56 185t-221 172q-164 -94 -219 -170t-55 -186q0 -109 81 -179q80 -70 198 -70t195 70t77 178zM807 1152q0 99 -69 167q-69 67 -175 67t-173 -66q-66 -66 -66 -167q0 -99 51 -163t190 -148q139 78 191 144q51 67 51 166zM1010 350q0 -164 -127 -267
t-317 -103t-322 98q-131 98 -131 270q0 127 73 223q74 96 250 199q-152 88 -214 174t-62 203q0 154 116 253q117 99 285 99t285 -98t117 -252q-1 -115 -63 -200t-214 -171q176 -104 250 -204t74 -224z" />
    <glyph glyph-name="nine" unicode="9" horiz-adv-x="1122" 
d="M823 950q0 199 -68 313q-69 113 -204 113t-200 -97t-64 -237q0 -336 321 -335q119 0 197 38q18 94 18 205zM991 940q0 -188 -56 -349t-138 -262q-83 -101 -189 -179q-175 -128 -352 -170v139q391 133 524 510q-102 -39 -202 -39q-205 0 -334 117t-129 323t112 338
q113 131 328 131t326 -149q110 -150 110 -410z" />
    <glyph glyph-name="colon" unicode=":" horiz-adv-x="512" 
d="M373 96q0 -49 -35 -83q-35 -33 -84 -33t-83 34t-34 82q0 49 34 83t83 34t84 -34t35 -83zM373 731q0 -49 -35 -83t-84 -34t-83 34t-34 83t34 83t83 34t84 -34t35 -83z" />
    <glyph glyph-name="semicolon" unicode=";" horiz-adv-x="536" 
d="M318 213q72 0 79 -55l-266 -506h-106l174 506q47 55 119 55zM397 731q0 -49 -35 -83q-36 -34 -84 -34t-82 34t-34 83t34 83t83 34t83 -34t35 -83z" />
    <glyph glyph-name="semicolon" unicode="&#x37e;" horiz-adv-x="536" 
d="M318 213q72 0 79 -55l-266 -506h-106l174 506q47 55 119 55zM397 731q0 -49 -35 -83q-36 -34 -84 -34t-82 34t-34 83t34 83t83 34t83 -34t35 -83z" />
    <glyph glyph-name="less" unicode="&#x3c;" horiz-adv-x="1081" 
d="M934 229l-787 344v119l787 346v-135l-639 -270l639 -271v-133z" />
    <glyph glyph-name="equal" unicode="=" horiz-adv-x="1081" 
d="M934 383h-787v123h787v-123zM934 745h-787v123h787v-123z" />
    <glyph glyph-name="greater" unicode="&#x3e;" horiz-adv-x="1081" 
d="M934 573l-787 -344v133l639 271l-639 270v135l787 -346v-119z" />
    <glyph glyph-name="question" unicode="?" horiz-adv-x="856" 
d="M512 96q0 -49 -35 -83q-35 -33 -84 -33t-83 34t-34 82q0 49 34 83t83 34t84 -34t35 -83zM778 1166q0 -146 -94 -239t-201 -124l-22 -350h-135l-29 407q115 26 204 98t89 176t-60 168q-60 62 -176 62q-115 0 -241 -70v140q111 66 281 66t276 -95q108 -93 108 -239z" />
    <glyph glyph-name="at" unicode="@" horiz-adv-x="1781" 
d="M901 987q-84 0 -156 -84q-131 -153 -131 -373q0 -94 45 -156t131 -62t158 81q72 82 104 181q75 242 -16 352q-51 62 -135 61zM1659 915q0 -147 -50 -306t-161 -283t-254 -125q-74 0 -111 42t-45 138q-117 -176 -309 -176q-125 0 -188 93t-63 221t46 254q48 126 148 221
t227 96q160 0 234 -172l28 137h125l-78 -361q-45 -206 -45 -270q1 -64 17 -90t57 -27q119 0 215 207q96 208 96 418t-139 346t-367 135q-228 0 -416 -128q-190 -128 -292 -331t-103 -430q1 -303 183 -470t481 -167q223 0 380 76t300 227l57 -71q-150 -160 -322 -240
t-417 -80q-350 0 -561 193t-211 536q0 393 273 682t661 289q270 0 437 -158t167 -426z" />
    <glyph glyph-name="A" unicode="A" horiz-adv-x="1198" 
d="M801 604l-164 535q-34 104 -41 170h-4q-8 -59 -43 -170l-168 -535h420zM1184 0h-195l-155 485h-488l-158 -485h-172l500 1479h168z" />
    <glyph glyph-name="B" unicode="B" horiz-adv-x="1177" 
d="M889 397q0 166 -108 242t-347 76h-98v-582h199q93 1 167 21t130 82t57 161zM842 1102q0 133 -90 188t-222 56h-194v-510h96q223 0 317 66q93 67 93 200zM1079 399q0 -399 -534 -399h-387v1479h368q240 -1 369 -93t129 -246t-87 -244q-87 -89 -202 -110v-4
q112 -19 228 -109t116 -274z" />
    <glyph glyph-name="C" unicode="C" horiz-adv-x="1157" 
d="M668 -20q-262 0 -410 213q-147 213 -147 539t147 547q147 220 414 220q112 -1 190 -25t160 -81v-148q-66 53 -154 84t-163 31q-139 0 -233 -89q-172 -163 -171 -538q0 -266 100 -436q101 -170 289 -170t332 98v-147q-121 -98 -354 -98z" />
    <glyph glyph-name="D" unicode="D" horiz-adv-x="1255" 
d="M954 751q0 291 -125 443t-292 152h-193v-1213h193q174 0 296 163q121 163 121 455zM526 1479q303 1 461 -189t158 -539t-152 -550t-456 -201h-379v1479h368z" />
    <glyph glyph-name="E" unicode="E" horiz-adv-x="937" 
d="M844 0h-686v1479h686v-133h-498v-517h451v-131h-451v-565h498v-133z" />
    <glyph glyph-name="F" unicode="F" horiz-adv-x="921" 
d="M842 1346h-496v-517h449v-131h-449v-698h-188v1479h684v-133z" />
    <glyph glyph-name="G" unicode="G" horiz-adv-x="1263" 
d="M111 738q0 364 180 562t442 199q193 0 330 -102v-146q-135 115 -309 115q-213 0 -333 -160t-120 -464t119 -468t311 -163q131 0 193 32v652h182v-734q-143 -82 -373 -81q-272 0 -447 198q-175 196 -175 560z" />
    <glyph glyph-name="H" unicode="H" horiz-adv-x="1267" 
d="M1110 0h-188v698h-576v-698h-188v1479h188v-650h576v650h188v-1479z" />
    <glyph glyph-name="I" unicode="I" horiz-adv-x="518" 
d="M352 0h-188v1479h188v-1479z" />
    <glyph glyph-name="J" unicode="J" horiz-adv-x="518" 
d="M352 63q0 -217 -127 -349t-315 -158v133q110 29 182 124t72 240v1426h188v-1416z" />
    <glyph glyph-name="K" unicode="K" horiz-adv-x="1087" 
d="M344 764v-764h-186v1479h186v-688h4l477 688h197l-506 -691l528 -788h-213l-483 764h-4z" />
    <glyph glyph-name="L" unicode="L" horiz-adv-x="870" 
d="M799 0h-641v1479h188v-1346h453v-133z" />
    <glyph glyph-name="M" unicode="M" horiz-adv-x="1601" 
d="M1444 0h-178v1290l-412 -1290h-123l-412 1290v-1290h-161v1479h245l398 -1248l397 1248h246v-1479z" />
    <glyph glyph-name="N" unicode="N" horiz-adv-x="1325" 
d="M1167 0h-163l-601 1087l-90 170h-4q6 -86 6 -174v-1083h-157v1479h198l656 -1198h4q-6 68 -6 155v1043h157v-1479z" />
    <glyph glyph-name="O" unicode="O" horiz-adv-x="1288" 
d="M987 739q0 434 -174 568q-70 53 -168 53t-169 -53q-175 -131 -175 -568q0 -621 344 -620q342 -1 342 620zM1178 766q0 -566 -289 -728q-104 -58 -244 -58q-186 0 -309 104t-174 269t-51 386q0 340 131 550t403 210q184 0 307 -104q226 -192 226 -629z" />
    <glyph glyph-name="P" unicode="P" horiz-adv-x="1116" 
d="M850 1042q0 154 -79 229t-249 75h-180v-609h180q170 -1 249 75t79 230zM1032 1042q0 -190 -123 -314t-368 -124h-199v-604h-184v1479h383q243 1 367 -123t124 -314z" />
    <glyph glyph-name="Q" unicode="Q" horiz-adv-x="1288" 
d="M987 739q0 434 -174 568q-70 53 -168 53t-169 -53q-175 -131 -175 -568q0 -621 344 -620q342 -1 342 620zM647 -20q-186 0 -309 103t-175 268t-52 357q0 568 289 732q106 59 246 59q400 0 502 -465q30 -135 30 -297q0 -461 -215 -647q57 -25 165 -34t164 -1v-118
q-272 -23 -493 63q-68 -20 -152 -20z" />
    <glyph glyph-name="R" unicode="R" horiz-adv-x="1153" 
d="M846 1077q0 268 -324 269h-178v-566h84q222 0 320 70t98 227zM344 659v-659h-186v1479h397q241 0 359 -120t118 -286q0 -165 -98 -277t-277 -130l453 -666h-223l-426 659h-117z" />
    <glyph glyph-name="S" unicode="S" horiz-adv-x="989" 
d="M879 418q0 -193 -126 -316q-126 -122 -331 -122t-334 81v164q160 -100 300 -100t218 78q78 77 78 189t-62 176t-204 122q-315 125 -316 395q0 174 115 294t300 120t319 -74v-149q-2 2 -26 14l-40 20q-137 60 -241 60q-103 0 -172 -74t-69 -185t67 -171q67 -59 190 -106
q334 -131 334 -416z" />
    <glyph glyph-name="T" unicode="T" horiz-adv-x="872" 
d="M829 1346h-299v-1346h-188v1346h-299v133h786v-133z" />
    <glyph glyph-name="U" unicode="U" horiz-adv-x="1239" 
d="M1081 424q0 -193 -127 -319q-127 -125 -336 -125q-208 0 -334 126t-126 318v1055h188v-1055q0 -137 83 -219t200 -82t199 82t81 219v1055h172v-1055z" />
    <glyph glyph-name="V" unicode="V" horiz-adv-x="1083" 
d="M1061 1479l-430 -1479h-164l-438 1479h200l281 -1061l41 -185h4q18 96 43 185l285 1061h178z" />
    <glyph glyph-name="W" unicode="W" horiz-adv-x="1673" 
d="M1620 1479l-338 -1479h-166l-246 1053l-32 157q-8 -72 -29 -157l-248 -1053h-166l-338 1479h195l211 -1088l26 -162q14 80 33 162l252 1088h144l249 -1088l31 -162q10 86 27 162l221 1088h174z" />
    <glyph glyph-name="X" unicode="X" horiz-adv-x="1062" 
d="M1032 0h-213l-291 618h-4l-301 -618h-190l399 760l-358 719h205l253 -568h5l284 568h176l-366 -697z" />
    <glyph glyph-name="Y" unicode="Y" horiz-adv-x="1024" 
d="M606 0h-188v659l-400 820h203l297 -672h4l307 672h181l-404 -820v-659z" />
    <glyph glyph-name="Z" unicode="Z" horiz-adv-x="915" 
d="M848 0h-799l543 1346h-510v133h752l-539 -1346h553v-133z" />
    <glyph glyph-name="bracketleft" unicode="[" horiz-adv-x="702" 
d="M602 -440h-442v2048h440v-107h-278v-1833h280v-108z" />
    <glyph glyph-name="backslash" unicode="\" horiz-adv-x="1163" 
d="M1130 -406l-120 -59l-977 2036l121 61z" />
    <glyph glyph-name="bracketright" unicode="]" horiz-adv-x="702" 
d="M543 -440h-443v108h279v1833h-279v107h443v-2048z" />
    <glyph glyph-name="asciicircum" unicode="^" horiz-adv-x="1183" 
d="M592 1636q57 0 96 -51l301 -393l-65 -68l-332 377l-332 -377l-65 68l301 393q39 51 96 51z" />
    <glyph glyph-name="underscore" unicode="_" horiz-adv-x="1081" 
d="M1102 -403h-1122v116h1122v-116z" />
    <glyph glyph-name="grave" unicode="`" 
d="M58 1483q62 0 118 -35l143 -281h-102l-233 279q12 37 74 37z" />
    <glyph glyph-name="a" unicode="a" horiz-adv-x="989" 
d="M262 293q0 -209 240 -209q115 0 172 35v456q-212 -27 -312 -86t-100 -196zM90 289q0 200 172 290q143 75 412 103v59q0 209 -232 209q-121 0 -252 -65v127q129 57 287 57t262 -81t105 -259v-674q-136 -75 -346 -75t-309 80t-99 229z" />
    <glyph glyph-name="b" unicode="b" horiz-adv-x="1050" 
d="M467 96q157 0 229 119t72 311t-70 310q-70 117 -206 116q-88 0 -166 -39v-790q55 -27 141 -27zM532 1069q184 0 300 -142t116 -391t-127 -403t-358 -153q-197 0 -318 77v1422h181v-455q86 45 206 45z" />
    <glyph glyph-name="c" unicode="c" horiz-adv-x="964" 
d="M540 -23q-194 1 -316 149t-122 400t123 398t314 145q191 0 295 -70v-129q-98 72 -246 72t-226 -112t-78 -299t82 -303q81 -116 219 -116t249 72v-139q-100 -68 -294 -68z" />
    <glyph glyph-name="d" unicode="d" horiz-adv-x="1050" 
d="M600 952q-168 0 -243 -124t-75 -312t76 -303q74 -115 222 -115q98 0 145 31v803q-72 20 -125 20zM102 521q0 253 126 401t335 147q86 0 162 -20v430h180v-1422q-129 -77 -344 -77t-337 144t-122 397z" />
    <glyph glyph-name="e" unicode="e" horiz-adv-x="1030" 
d="M528 952q-102 0 -180 -97t-80 -253h490q-2 168 -64 259q-64 91 -166 91zM596 111q158 0 272 65v-121q-114 -75 -312 -75t-326 140t-128 404t124 404t308 141q184 0 291 -154t99 -428h-652q4 -164 85 -270t239 -106z" />
    <glyph glyph-name="f" unicode="f" horiz-adv-x="589" 
d="M557 934h-192v-934h-181v934h-127v113h127v131q0 166 98 261t275 87v-115q-193 -10 -192 -213v-151h192v-113z" />
    <glyph glyph-name="g" unicode="g" horiz-adv-x="1032" 
d="M731 719q0 113 -55 179t-170 65q-115 0 -170 -66q-55 -67 -55 -179t55 -178t170 -65q115 -1 170 65t55 179zM979 950h-158q80 -68 80 -226t-95 -257q-95 -98 -298 -98l-84 4q-80 -51 -80 -127q0 -37 39 -45q10 -2 16 -4t64 -2h162q161 0 249 -83t89 -206
q0 -158 -115 -252q-114 -94 -316 -94t-321 78t-119 200q0 57 23 117h170q-23 -37 -23 -115t80 -126t199 -48t185 62t67 154q-1 91 -49 129t-148 38h-156q-190 0 -236 70q-24 35 -24 90q0 90 125 194q-193 84 -192 316q0 158 98 254t295 96q96 0 168 -22h305v-97z" />
    <glyph glyph-name="h" unicode="h" horiz-adv-x="1058" 
d="M913 0h-180v741q0 205 -209 205q-115 0 -198 -51v-895h-181v1479h181v-484q125 66 239 66q182 0 265 -91t83 -220v-750z" />
    <glyph glyph-name="i" unicode="i" horiz-adv-x="495" 
d="M338 0h-180v1047h180v-1047zM352 1364q0 -43 -32 -74q-32 -30 -74 -30q-43 0 -74 30t-31 74q0 43 31 74q31 30 74 30t75 -30q31 -31 31 -74z" />
    <glyph glyph-name="j" unicode="j" horiz-adv-x="495" 
d="M342 74q0 -224 -113 -362t-270 -156v118q203 74 203 387v986h180v-973zM356 1364q0 -43 -32 -74q-32 -30 -74 -30q-43 0 -74 30t-31 74q0 43 31 74q31 30 74 30t75 -30q31 -31 31 -74z" />
    <glyph glyph-name="k" unicode="k" horiz-adv-x="952" 
d="M332 543v-543h-176v1479h176v-916h2l375 484h188l-397 -488l440 -559h-205l-401 543h-2z" />
    <glyph glyph-name="l" unicode="l" horiz-adv-x="495" 
d="M338 0h-180v1479h180v-1479z" />
    <glyph glyph-name="m" unicode="m" horiz-adv-x="1638" 
d="M1501 0h-180v745q0 89 -46 145t-160 56t-202 -94v-852h-180v752q0 195 -219 194q-109 0 -188 -35v-911l-181 -6v995q164 80 377 80t318 -127q121 127 306 127t270 -92t85 -217v-760z" />
    <glyph glyph-name="n" unicode="n" horiz-adv-x="1050" 
d="M913 0h-180v748q0 199 -215 198q-113 0 -192 -35v-911h-181v989q157 80 375 80t306 -90t87 -221v-758z" />
    <glyph glyph-name="o" unicode="o" horiz-adv-x="1032" 
d="M750 524q0 428 -234 428t-233 -428q-1 -428 233 -428t234 428zM930 525q0 -247 -102 -397t-311 -148q-208 0 -311 150q-104 150 -104 396q0 244 104 394t311 150q205 0 309 -150q104 -148 104 -395z" />
    <glyph glyph-name="p" unicode="p" horiz-adv-x="1050" 
d="M467 96q153 0 227 118t74 322t-70 310t-227 106q-88 0 -145 -28v-801q66 -27 141 -27zM948 534q0 -251 -126 -403t-335 -151q-88 0 -161 18v-438h-181v1435q125 74 339 74t339 -142t125 -393z" />
    <glyph glyph-name="q" unicode="q" horiz-adv-x="1050" 
d="M283 512q0 -414 282 -414q88 0 160 39v787q-49 29 -141 28q-301 0 -301 -440zM905 -440h-180v460q-78 -41 -205 -40q-188 0 -303 143t-115 390t122 401t364 155q199 0 317 -76v-1433z" />
    <glyph glyph-name="r" unicode="r" horiz-adv-x="645" 
d="M326 0h-181v989q147 80 396 80q13 0 37 -1t28 -1l-41 -135q-145 41 -239 -21v-911z" />
    <glyph glyph-name="s" unicode="s" horiz-adv-x="800" 
d="M702 276q0 -114 -100 -205t-252 -91t-254 73v131q35 -28 103 -52q69 -24 143 -24t129 53q55 52 55 126q0 73 -41 115t-131 77q-143 55 -195 130q-53 75 -53 183t88 193q88 84 224 84q137 0 252 -53v-125q-27 21 -97 39q-71 18 -141 18t-115 -46t-45 -117t42 -109t132 -74
q144 -57 200 -135q56 -77 56 -191z" />
    <glyph glyph-name="t" unicode="t" horiz-adv-x="612" 
d="M444 -20q-133 0 -196 78t-64 188v688h-127v113h127v253l176 56v-309h193v-113h-193v-678q0 -68 33 -111t101 -43q27 0 63 9v-115q-55 -16 -113 -16z" />
    <glyph glyph-name="u" unicode="u" horiz-adv-x="1050" 
d="M543 -20q-209 0 -303 89t-95 253v725h181v-725q0 -96 53 -156t165 -60t181 41v900h180v-979q-152 -88 -362 -88z" />
    <glyph glyph-name="v" unicode="v" horiz-adv-x="999" 
d="M930 1047l-342 -1047h-162l-350 1047h192l215 -734l29 -135h4q4 59 27 135l219 734h168z" />
    <glyph glyph-name="w" unicode="w" horiz-adv-x="1579" 
d="M1497 1047l-307 -1047h-156l-215 731q-16 61 -24 127q-6 -59 -27 -127l-219 -731h-156l-305 1047h188l185 -728l24 -131q6 55 29 131l211 728h156l206 -728l27 -131q8 68 25 134l190 725h168z" />
    <glyph glyph-name="x" unicode="x" horiz-adv-x="933" 
d="M885 0h-199l-221 420h-4l-225 -420h-187l326 543l-289 504h188l199 -375h4l203 375h170l-291 -490z" />
    <glyph glyph-name="y" unicode="y" horiz-adv-x="999" 
d="M930 1047l-492 -1487h-194l184 440l-352 1047h192l211 -736q18 -59 27 -141h4q6 66 29 141l223 736h168z" />
    <glyph glyph-name="z" unicode="z" horiz-adv-x="825" 
d="M743 0h-682l439 934h-404v113h633l-430 -934h444v-113z" />
    <glyph glyph-name="braceleft" unicode="{" horiz-adv-x="757" 
d="M645 -264q-178 0 -279 76t-102 237v320q0 137 -37 194t-121 62v100q84 4 121 61t37 191v319q0 158 102 235t279 77v-99q-221 0 -221 -209v-376q0 -211 -170 -248v-4q170 -41 170 -250v-377q0 -209 221 -209v-100z" />
    <glyph glyph-name="bar" unicode="|" horiz-adv-x="466" 
d="M307 -440h-147v2048h147v-2048z" />
    <glyph glyph-name="braceright" unicode="}" horiz-adv-x="757" 
d="M494 49q0 -161 -102 -237t-279 -76v100q223 0 223 209v377q0 211 168 250v4q-168 37 -168 248v376q0 209 -223 209v99q176 0 278 -77t103 -235v-319q0 -133 36 -191q37 -57 121 -61v-100q-84 -3 -121 -61t-36 -195v-320z" />
    <glyph glyph-name="asciitilde" unicode="~" horiz-adv-x="1183" 
d="M1012 666q-45 -141 -211 -164q-65 -10 -133 26t-137 72q-69 37 -132 29q-111 -14 -163 -137l-64 104q33 74 78 117t122 51q76 8 146 -29t134 -73t126 -27q115 16 164 137z" />
    <glyph glyph-name="nbspace" unicode="&#xa0;" horiz-adv-x="565" 
 />
    <glyph glyph-name="exclamdown" unicode="&#xa1;" horiz-adv-x="600" 
d="M408 -430h-213l38 1026h136zM418 952q0 -49 -34 -83q-34 -33 -83 -33t-84 34t-35 82q0 49 35 83t84 34t83 -34t34 -83z" />
    <glyph glyph-name="cent" unicode="&#xa2;" horiz-adv-x="1122" 
d="M651 0h-114v207q-156 27 -256 172q-101 145 -101 369t100 366q100 141 257 172v193h114v-187q168 -10 260 -69v-129q-97 72 -245 72t-226 -112t-78 -299t81 -303t219 -116t249 72v-140q-94 -63 -260 -65v-203z" />
    <glyph glyph-name="sterling" unicode="&#xa3;" horiz-adv-x="1122" 
d="M1018 0h-877q211 250 211 508q0 92 -28 201h-207v110h176q-49 172 -49 291q0 166 118 278q120 112 300 112t309 -62v-148q-127 72 -275 72q-270 0 -270 -301q0 -106 39 -242h293v-110h-271q45 -216 -19 -400q-38 -109 -71 -153h621v-156z" />
    <glyph glyph-name="currency" unicode="&#xa4;" horiz-adv-x="1122" 
d="M852 731q0 121 -85 207t-207 86t-207 -86t-85 -207t85 -206t206 -85t207 85t86 206zM557 313q-135 0 -246 80l-151 -151l-90 90l151 151q-82 119 -82 251t82 247l-151 152l90 90l151 -154q119 84 245 84t253 -84l152 154l90 -90l-152 -152q80 -119 80 -249t-80 -249
l152 -151l-90 -90l-152 151q-117 -80 -252 -80z" />
    <glyph glyph-name="yen" unicode="&#xa5;" horiz-adv-x="1122" 
d="M1008 950v-92h-263l-86 -174h349v-94h-357v-590h-174v590h-360v94h350q-21 45 -61 131l-23 43h-266v92h221l-260 529h190l299 -688h4l310 688h168l-258 -529h217z" />
    <glyph glyph-name="brokenbar" unicode="&#xa6;" horiz-adv-x="466" 
d="M307 -440h-147v809h147v-809zM307 799h-147v809h147v-809z" />
    <glyph glyph-name="section" unicode="&#xa7;" horiz-adv-x="1081" 
d="M776 498q0 80 -25 136q-26 56 -102 122l-178 151q-174 -104 -174 -254q0 -80 32 -139t105 -123l166 -141q176 111 176 248zM928 520q0 -197 -244 -342q143 -127 143 -261t-94 -216q-95 -82 -249 -82t-261 74l49 112q82 -63 178 -63t153 43q56 43 56 107t-21 108
q-22 43 -93 104l-211 179q-102 87 -140 165t-38 181q0 199 239 350q-121 115 -121 240t86 203t231 77q145 0 243 -69l-46 -101q-84 55 -173 55t-136 -40t-47 -104q0 -66 29 -116t110 -118l166 -142q107 -92 149 -168t42 -176z" />
    <glyph glyph-name="dieresis" unicode="&#xa8;" 
d="M125 1292q0 -38 -28 -62q-29 -24 -67 -24t-65 26t-27 62t27 61t66 25t67 -26t27 -62zM461 1292q0 -38 -27 -62q-28 -24 -66 -24t-65 26t-27 62t27 61t66 25t65 -26t27 -62z" />
    <glyph glyph-name="copyright" unicode="&#xa9;" horiz-adv-x="1689" 
d="M530 739q0 187 83 311t237 124q113 0 203 -64v-96q-92 70 -194 70t-156 -97t-54 -245t54 -242q55 -94 157 -94t193 59v-94q-71 -59 -213 -59t-226 120q-84 121 -84 307zM1481 737q-1 279 -187 477t-449 197q-263 0 -449 -198q-186 -199 -187 -477q0 -278 186 -474
q185 -196 449 -196t450 196t187 475zM844 1497q299 -1 512 -223t213 -536t-213 -536t-512 -222t-511 222t-212 536t212 536t511 223z" />
    <glyph glyph-name="ordfeminine" unicode="&#xaa;" horiz-adv-x="722" 
d="M496 889v291q-152 -18 -221 -54t-68 -129q0 -129 174 -129q70 1 115 21zM376 793q-144 0 -216 55t-72 136t31 129q71 110 377 136v39q0 127 -154 127q-96 0 -186 -43v84q82 43 204 43q256 0 256 -221v-434q-96 -51 -240 -51z" />
    <glyph glyph-name="guillemotleft" unicode="&#xab;" horiz-adv-x="1052" 
d="M528 244l-96 -64l-309 447l309 446l96 -63l-262 -383zM905 244l-96 -64l-309 447l309 446l96 -63l-262 -383z" />
    <glyph glyph-name="logicalnot" unicode="&#xac;" horiz-adv-x="1081" 
d="M934 299h-129v328h-658v123h787v-451z" />
    <glyph glyph-name="registered" unicode="&#xae;" horiz-adv-x="1689" 
d="M993 928q0 145 -174 145h-94v-305h41q121 0 174 38t53 122zM725 688v-369h-117v840h230q136 -1 204 -69t68 -162t-53 -158t-152 -76l256 -375h-141l-240 369h-55zM1481 737q-1 279 -187 477t-449 197q-263 0 -449 -198q-186 -199 -187 -477q0 -278 186 -474
q185 -196 449 -196t450 196t187 475zM844 1497q299 -1 512 -223t213 -536t-213 -536t-512 -222t-511 222t-212 536t212 536t511 223z" />
    <glyph glyph-name="macron" unicode="&#xaf;" 
d="M492 1231h-582v104h582v-104z" />
    <glyph glyph-name="macron" unicode="&#x2c9;" 
d="M492 1231h-582v104h582v-104z" />
    <glyph glyph-name="degree" unicode="&#xb0;" horiz-adv-x="860" 
d="M641 1192q0 88 -61 149q-62 61 -150 61t-149 -60q-61 -62 -61 -150t60 -150q62 -62 150 -61q88 0 150 61q61 62 61 150zM737 1192q0 -127 -90 -217t-217 -90t-217 90t-90 217t90 217t217 90t217 -90t90 -217z" />
    <glyph glyph-name="plusminus" unicode="&#xb1;" horiz-adv-x="1081" 
d="M934 88h-787v119h787v-119zM934 688h-332v-354h-125v354h-330v119h330v350h125v-350h332v-119z" />
    <glyph glyph-name="twosuperior" unicode="&#xb2;" horiz-adv-x="753" 
d="M629 631h-475v71l258 353q76 102 75 194q0 147 -168 148q-76 0 -153 -43v104q74 41 194 41q120 1 192 -67q73 -68 73 -176t-107 -242l-217 -273h328v-110z" />
    <glyph glyph-name="threesuperior" unicode="&#xb3;" horiz-adv-x="753" 
d="M625 881q0 -119 -82 -192t-205 -73t-205 39v107q78 -41 170 -41t138 42t46 118q0 178 -237 168v81q98 8 153 50t56 104q0 117 -135 117q-88 0 -166 -39v98q74 39 183 39t179 -53t70 -148q0 -125 -137 -188q172 -59 172 -229z" />
    <glyph glyph-name="acute" unicode="&#xb4;" 
d="M343 1483q63 0 75 -37l-234 -279h-102l143 281q55 35 118 35z" />
    <glyph glyph-name="mu" unicode="&#xb5;" horiz-adv-x="1050" 
d="M326 -440h-181v1487h181v-902q92 -49 206 -49t193 37v914h180v-990q-139 -78 -342 -77q-125 0 -237 61v-481z" />
    <glyph glyph-name="mu" unicode="&#x3bc;" horiz-adv-x="1050" 
d="M326 -440h-181v1487h181v-902q92 -49 206 -49t193 37v914h180v-990q-139 -78 -342 -77q-125 0 -237 61v-481z" />
    <glyph glyph-name="paragraph" unicode="&#xb6;" horiz-adv-x="1081" 
d="M995 1386h-63v-1757h-129v1757h-277v-1757h-129v1106q-155 15 -247 115t-93 250q0 194 128 286t325 93h485v-93z" />
    <glyph glyph-name="periodcentered" unicode="&#xb7;" horiz-adv-x="512" 
d="M373 647q0 -49 -35 -83t-84 -34t-83 34t-34 83t34 83t83 34t84 -34t35 -83z" />
    <glyph glyph-name="periodcentered" unicode="&#x2219;" horiz-adv-x="512" 
d="M373 647q0 -49 -35 -83t-84 -34t-83 34t-34 83t34 83t83 34t84 -34t35 -83z" />
    <glyph glyph-name="cedilla" unicode="&#xb8;" 
d="M463 -254q0 -92 -138 -130t-386 -17l41 69q143 -12 245 7t103 69q0 84 -260 66l41 63q354 33 354 -127z" />
    <glyph glyph-name="onesuperior" unicode="&#xb9;" horiz-adv-x="753" 
d="M512 625h-131v733l-223 -107v92l266 136h88v-854z" />
    <glyph glyph-name="ordmasculine" unicode="&#xba;" horiz-adv-x="722" 
d="M522 1150q0 269 -161 269t-161 -269t162 -269q160 0 160 269zM362 1499q145 0 217 -97t72 -256q-1 -159 -73 -257t-216 -98t-218 98q-72 98 -72 257t72 256q73 97 218 97z" />
    <glyph glyph-name="guillemotright" unicode="&#xbb;" horiz-adv-x="1052" 
d="M555 627l-309 -447l-99 64l263 383l-263 383l99 63zM930 627l-307 -447l-97 64l260 383l-260 383l97 63z" />
    <glyph glyph-name="onequarter" unicode="&#xbc;" horiz-adv-x="1636" 
d="M1288 274v334l2 107q-27 -53 -57 -107l-197 -334h252zM461 625h-131v733l-224 -107v92l267 136h88v-854zM1227 1462l-711 -1493l-108 47l710 1491zM1481 190h-70v-190h-123v190h-346v84l348 582h121v-582h70v-84z" />
    <glyph glyph-name="onehalf" unicode="&#xbd;" horiz-adv-x="1636" 
d="M461 625h-131v733l-224 -107v92l267 136h88v-854zM1194 1462l-711 -1493l-108 47l710 1491zM1481 0h-475v72l258 352q76 102 75 194q0 147 -168 148q-76 0 -153 -43v104q74 41 194 41t192 -68q73 -68 73 -174q0 -108 -107 -243l-217 -272h328v-111z" />
    <glyph glyph-name="threequarters" unicode="&#xbe;" horiz-adv-x="1636" 
d="M1298 274v334l2 107q-27 -53 -57 -107l-196 -334h251zM625 881q0 -119 -82 -192t-205 -73t-205 39v107q78 -41 170 -41t138 42t46 118q0 178 -237 168v81q98 8 153 50t56 104q0 117 -135 117q-88 0 -166 -39v98q74 39 183 39t179 -53t70 -148q0 -125 -137 -188
q172 -59 172 -229zM1290 1462l-710 -1493l-109 47l711 1491zM1491 190h-70v-190h-123v190h-346v84l348 582h121v-582h70v-84z" />
    <glyph glyph-name="questiondown" unicode="&#xbf;" horiz-adv-x="856" 
d="M471 -451q-169 1 -277 95t-108 240t94 238q94 93 201 124l22 350h136l28 -408q-115 -26 -203 -98t-90 -176q0 -104 60 -166t176 -63q115 0 242 69v-139q-111 -66 -281 -66zM588 952q0 -49 -34 -83q-34 -33 -83 -33t-84 34t-35 82q0 49 35 83t84 34t83 -34t34 -83z" />
    <glyph glyph-name="Agrave" unicode="&#xc0;" horiz-adv-x="1198" 
d="M801 604l-164 535q-34 104 -41 170h-4q-8 -59 -43 -170l-168 -535h420zM1184 0h-195l-155 485h-488l-158 -485h-172l500 1479h168zM395 1901q61 0 117 -35l145 -281h-102l-233 279q12 37 73 37z" />
    <glyph glyph-name="Aacute" unicode="&#xc1;" horiz-adv-x="1198" 
d="M801 604l-164 535q-34 104 -41 170h-4q-8 -59 -43 -170l-168 -535h420zM1184 0h-195l-155 485h-488l-158 -485h-172l500 1479h168zM782 1901q62 0 76 -37l-233 -279h-103l144 281q54 35 116 35z" />
    <glyph glyph-name="Acircumflex" unicode="&#xc2;" horiz-adv-x="1198" 
d="M801 604l-164 535q-34 104 -41 170h-4q-8 -59 -43 -170l-168 -535h420zM1184 0h-195l-155 485h-488l-158 -485h-172l500 1479h168zM600 1864q39 0 70 -31l202 -207l-53 -43l-217 162l-221 -162l-51 43l202 207q29 31 68 31z" />
    <glyph glyph-name="Atilde" unicode="&#xc3;" horiz-adv-x="1198" 
d="M801 604l-164 535q-34 104 -41 170h-4q-8 -59 -43 -170l-168 -535h420zM1184 0h-195l-155 485h-488l-158 -485h-172l500 1479h168zM729 1612q-59 0 -135 40t-128 40t-98 -39t-59 -74v125q17 30 59 60t100 30t133 -40t129 -40t98 38t59 75v-125q-55 -90 -158 -90z" />
    <glyph glyph-name="Adieresis" unicode="&#xc4;" horiz-adv-x="1198" 
d="M801 604l-164 535q-34 104 -41 170h-4q-8 -59 -43 -170l-168 -535h420zM1184 0h-195l-155 485h-488l-158 -485h-172l500 1479h168zM524 1708q0 -36 -26 -62t-66 -26t-66 26t-26 62t27 62t65 26t66 -26q26 -26 26 -62zM862 1708q0 -36 -28 -62t-65 -26q-38 0 -66 26
q-27 26 -27 62t28 62t65 26t65 -26t28 -62z" />
    <glyph glyph-name="Aring" unicode="&#xc5;" horiz-adv-x="1198" 
d="M801 604l-164 535q-34 104 -41 170h-4q-8 -59 -43 -170l-168 -535h420zM696 1745q0 41 -28 69q-29 28 -68 28t-68 -28q-28 -28 -28 -69t28 -69t68 -28q39 0 68 28q28 28 28 69zM1184 0h-195l-155 485h-488l-158 -485h-172l500 1479h168zM766 1746q0 -69 -48 -117
t-117 -48t-117 48t-48 117t48 117t117 48t117 -48t48 -117z" />
    <glyph glyph-name="AE" unicode="&#xc6;" horiz-adv-x="1568" 
d="M842 606l-133 584l-21 131h-4q-12 -61 -41 -133l-229 -582h428zM1513 0h-538l-113 487h-495l-193 -487h-174l614 1479h746v-133h-537l131 -517h416v-131h-385l143 -565h385v-133z" />
    <glyph glyph-name="Ccedilla" unicode="&#xc7;" horiz-adv-x="1157" 
d="M862 -254q0 -92 -137 -130t-387 -17l43 69q143 -12 245 7t101 69q0 84 -260 66l41 63q354 33 354 -127zM668 -20q-262 0 -410 213q-147 213 -147 539t147 547q147 220 414 220q112 -1 190 -25t160 -81v-148q-66 53 -154 84t-163 31q-139 0 -233 -89q-172 -163 -171 -538
q0 -266 100 -436q101 -170 289 -170t332 98v-147q-121 -98 -354 -98z" />
    <glyph glyph-name="Egrave" unicode="&#xc8;" horiz-adv-x="937" 
d="M844 0h-686v1479h686v-133h-498v-517h451v-131h-451v-565h498v-133zM330 1901q62 0 116 -35l144 -281h-103l-233 279q14 37 76 37z" />
    <glyph glyph-name="Eacute" unicode="&#xc9;" horiz-adv-x="937" 
d="M844 0h-686v1479h686v-133h-498v-517h451v-131h-451v-565h498v-133zM668 1901q62 0 75 -37l-233 -279h-102l143 281q55 35 117 35z" />
    <glyph glyph-name="Ecircumflex" unicode="&#xca;" horiz-adv-x="937" 
d="M844 0h-686v1479h686v-133h-498v-517h451v-131h-451v-565h498v-133zM490 1864q38 0 69 -31l201 -207l-51 -43l-220 162l-219 -162l-51 43l201 207q32 31 70 31z" />
    <glyph glyph-name="Edieresis" unicode="&#xcb;" horiz-adv-x="937" 
d="M844 0h-686v1479h686v-133h-498v-517h451v-131h-451v-565h498v-133zM418 1708q0 -36 -28 -62t-66 -26t-66 26q-27 26 -27 62t27 62t66 26q38 0 66 -26t28 -62zM754 1708q0 -36 -28 -62t-66 -26t-65 26q-28 26 -28 62t28 62t66 26q37 0 65 -26t28 -62z" />
    <glyph glyph-name="Igrave" unicode="&#xcc;" horiz-adv-x="518" 
d="M354 0h-188v1409h188v-1409zM106 1831q61 0 117 -35l144 -280h-103l-233 278q14 37 75 37z" />
    <glyph glyph-name="Iacute" unicode="&#xcd;" horiz-adv-x="518" 
d="M352 0h-188v1409h188v-1409zM412 1831q62 0 75 -37l-235 -278h-100l143 280q55 35 117 35z" />
    <glyph glyph-name="Icircumflex" unicode="&#xce;" horiz-adv-x="518" 
d="M352 0h-188v1409h188v-1409zM258 1794q39 0 70 -31l200 -207l-51 -43l-217 162l-221 -162l-51 43l202 207q29 31 68 31z" />
    <glyph glyph-name="Idieresis" unicode="&#xcf;" horiz-adv-x="518" 
d="M352 0h-188v1409h188v-1409zM182 1638q0 -36 -26 -62t-66 -26t-66 26t-26 62t27 63q27 25 65 25t66 -25q26 -26 26 -63zM520 1638q0 -36 -28 -62t-65 -26q-38 0 -66 26q-27 26 -27 62t27 63q28 25 66 25t66 -25q27 -26 27 -63z" />
    <glyph glyph-name="Eth" unicode="&#xd0;" horiz-adv-x="1308" 
d="M1008 751q0 291 -125 443t-293 152h-193v-492h248v-106h-248v-615h193q174 0 296 163t122 455zM580 1479q302 1 460 -189t158 -539t-152 -550t-456 -201h-379v748h-131v106h131v625h369z" />
    <glyph glyph-name="Ntilde" unicode="&#xd1;" horiz-adv-x="1325" 
d="M1167 0h-163l-601 1087l-90 170h-4q6 -86 6 -174v-1083h-157v1479h198l656 -1198h4q-6 68 -6 155v1043h157v-1479zM793 1612q-59 0 -135 40t-129 40q-52 0 -98 -39t-58 -74v125q18 30 59 60t99 30q57 0 133 -40t130 -40t98 38t58 75v-125q-55 -90 -157 -90z" />
    <glyph glyph-name="Ograve" unicode="&#xd2;" horiz-adv-x="1288" 
d="M987 739q0 434 -174 568q-70 53 -168 53t-169 -53q-175 -131 -175 -568q0 -621 344 -620q342 -1 342 620zM1178 766q0 -566 -289 -728q-104 -58 -244 -58q-186 0 -309 104t-174 269t-51 386q0 340 131 550t403 210q184 0 307 -104q226 -192 226 -629zM478 1901
q62 0 118 -35l143 -281h-102l-234 279q13 37 75 37z" />
    <glyph glyph-name="Oacute" unicode="&#xd3;" horiz-adv-x="1288" 
d="M987 739q0 434 -174 568q-70 53 -168 53t-169 -53q-175 -131 -175 -568q0 -621 344 -620q342 -1 342 620zM1178 766q0 -566 -289 -728q-104 -58 -244 -58q-186 0 -309 104t-174 269t-51 386q0 340 131 550t403 210q184 0 307 -104q226 -192 226 -629zM798 1901
q62 0 76 -37l-233 -279h-102l143 281q54 35 116 35z" />
    <glyph glyph-name="Ocircumflex" unicode="&#xd4;" horiz-adv-x="1288" 
d="M987 739q0 434 -174 568q-70 53 -168 53t-169 -53q-175 -131 -175 -568q0 -621 344 -620q342 -1 342 620zM1178 766q0 -566 -289 -728q-104 -58 -244 -58q-186 0 -309 104t-174 269t-51 386q0 340 131 550t403 210q184 0 307 -104q226 -192 226 -629zM645 1864
q39 0 70 -31l200 -207l-51 -43l-219 162l-219 -162l-51 43l200 207q31 31 70 31z" />
    <glyph glyph-name="Otilde" unicode="&#xd5;" horiz-adv-x="1288" 
d="M987 739q0 434 -174 568q-70 53 -168 53t-169 -53q-175 -131 -175 -568q0 -621 344 -620q342 -1 342 620zM1178 766q0 -566 -289 -728q-104 -58 -244 -58q-186 0 -309 104t-174 269t-51 386q0 340 131 550t403 210q184 0 307 -104q226 -192 226 -629zM770 1612
q-59 0 -135 40t-128 40t-98 -39t-59 -74v125q18 30 60 60t99 30q58 0 133 -40t129 -40t98 38t59 75v-125q-55 -90 -158 -90z" />
    <glyph glyph-name="Odieresis" unicode="&#xd6;" horiz-adv-x="1288" 
d="M987 739q0 434 -174 568q-70 53 -168 53t-169 -53q-175 -131 -175 -568q0 -621 344 -620q342 -1 342 620zM1178 766q0 -566 -289 -728q-104 -58 -244 -58q-186 0 -309 104t-174 269t-51 386q0 340 131 550t403 210q184 0 307 -104q226 -192 226 -629zM569 1708
q1 -36 -27 -62t-67 -26t-65 26t-27 62q0 36 27 62q28 26 66 26t66 -26t27 -62zM905 1708q-1 -36 -27 -62t-65 -26t-65 26t-27 62q0 36 27 62q28 26 66 26t64 -26t27 -62z" />
    <glyph glyph-name="multiply" unicode="&#xd7;" horiz-adv-x="1081" 
d="M944 266l-86 -82l-317 353l-316 -351l-86 82l320 357l-322 358l86 82l318 -352l315 352l86 -82l-319 -358z" />
    <glyph glyph-name="Oslash" unicode="&#xd8;" horiz-adv-x="1288" 
d="M987 739q0 238 -55 394l-547 -857q88 -158 260 -157q342 -1 342 620zM301 739q0 -231 49 -379l543 852q-88 147 -248 148q-98 0 -169 -53q-175 -131 -175 -568zM645 -20q-225 0 -356 147l-111 -176l-63 41l125 196q-129 199 -129 545t131 556t403 210q211 0 344 -137
l113 178l63 -41l-127 -199q140 -201 140 -546t-122 -552q-62 -106 -166 -164t-245 -58z" />
    <glyph glyph-name="Ugrave" unicode="&#xd9;" horiz-adv-x="1239" 
d="M1081 424q0 -193 -127 -319q-127 -125 -336 -125q-208 0 -334 126t-126 318v1055h188v-1055q0 -137 83 -219t200 -82t199 82t81 219v1055h172v-1055zM485 1901q61 0 117 -35l143 -281h-102l-233 279q14 37 75 37z" />
    <glyph glyph-name="Uacute" unicode="&#xda;" horiz-adv-x="1239" 
d="M1081 424q0 -193 -127 -319q-127 -125 -336 -125q-208 0 -334 126t-126 318v1055h188v-1055q0 -137 83 -219t200 -82t199 82t81 219v1055h172v-1055zM782 1901q62 0 76 -37l-235 -279h-101l144 281q54 35 116 35z" />
    <glyph glyph-name="Ucircumflex" unicode="&#xdb;" horiz-adv-x="1239" 
d="M1081 424q0 -193 -127 -319q-127 -125 -336 -125q-208 0 -334 126t-126 318v1055h188v-1055q0 -137 83 -219t200 -82t199 82t81 219v1055h172v-1055zM625 1864q39 0 69 -31l201 -207l-51 -43l-219 162l-219 -162l-52 43l201 207q31 31 70 31z" />
    <glyph glyph-name="Udieresis" unicode="&#xdc;" horiz-adv-x="1239" 
d="M1081 424q0 -193 -127 -319q-127 -125 -336 -125q-208 0 -334 126t-126 318v1055h188v-1055q0 -137 83 -219t200 -82t199 82t81 219v1055h172v-1055zM555 1708q0 -36 -28 -62q-27 -26 -65 -26t-66 26t-28 62t28 62t66 26t66 -26t27 -62zM893 1708q0 -36 -28 -62
q-29 -26 -67 -26t-65 26t-27 62t28 62q26 26 65 26t67 -26t27 -62z" />
    <glyph glyph-name="Yacute" unicode="&#xdd;" horiz-adv-x="1024" 
d="M606 0h-188v659l-400 820h203l297 -672h4l307 672h181l-404 -820v-659zM692 1901q62 0 76 -37l-233 -279h-103l143 281q55 35 117 35z" />
    <glyph glyph-name="Thorn" unicode="&#xde;" horiz-adv-x="1122" 
d="M850 766q0 154 -79 228t-249 75h-180v-608h180q170 -1 249 75t79 230zM541 1202q243 0 367 -123t124 -315t-123 -314t-368 -122h-199v-328h-184v1479h184v-277h199z" />
    <glyph glyph-name="germandbls" unicode="&#xdf;" horiz-adv-x="1091" 
d="M1001 289q0 -129 -96 -219t-222 -90t-189 36v131q61 -41 146 -41t137 52t52 126q-1 72 -31 114t-108 91q-160 100 -160 250q0 93 58 155t153 89q14 49 15 129q0 297 -203 297q-221 0 -221 -389v-1020h-180v1014q0 257 123 400q99 112 276 112q178 0 275 -120t98 -294
q0 -92 -29 -182q-207 -29 -207 -180q0 -52 30 -92t109 -91q174 -110 174 -278z" />
    <glyph glyph-name="agrave" unicode="&#xe0;" horiz-adv-x="989" 
d="M262 293q0 -209 240 -209q115 0 172 35v456q-212 -27 -312 -86t-100 -196zM90 289q0 200 172 290q143 75 412 103v59q0 209 -232 209q-121 0 -252 -65v127q129 57 287 57t262 -81t105 -259v-674q-136 -75 -346 -75t-309 80t-99 229zM340 1485q62 0 117 -35l143 -281h-102
l-234 279q14 37 76 37z" />
    <glyph glyph-name="aacute" unicode="&#xe1;" horiz-adv-x="989" 
d="M262 293q0 -209 240 -209q115 0 172 35v456q-212 -27 -312 -86t-100 -196zM90 289q0 200 172 290q143 75 412 103v59q0 209 -232 209q-121 0 -252 -65v127q129 57 287 57t262 -81t105 -259v-674q-136 -75 -346 -75t-309 80t-99 229zM684 1485q62 0 76 -37l-234 -279h-102
l143 281q55 35 117 35z" />
    <glyph glyph-name="acircumflex" unicode="&#xe2;" horiz-adv-x="989" 
d="M262 293q0 -209 240 -209q115 0 172 35v456q-212 -27 -312 -86t-100 -196zM90 289q0 200 172 290q143 75 412 103v59q0 209 -232 209q-121 0 -252 -65v127q129 57 287 57t262 -81t105 -259v-674q-136 -75 -346 -75t-309 80t-99 229zM494 1448q39 0 67 -31l203 -205
l-51 -45l-219 162l-220 -162l-53 45l203 205q31 31 70 31z" />
    <glyph glyph-name="atilde" unicode="&#xe3;" horiz-adv-x="989" 
d="M262 293q0 -209 240 -209q115 0 172 35v456q-212 -27 -312 -86t-100 -196zM90 289q0 200 172 290q143 75 412 103v59q0 209 -232 209q-121 0 -252 -65v127q129 57 287 57t262 -81t105 -259v-674q-136 -75 -346 -75t-309 80t-99 229zM621 1194q-59 0 -135 40t-129 40
q-52 0 -98 -39t-58 -74v125q18 31 59 61q89 65 233 -11q75 -40 129 -40t98 38t58 75v-125q-57 -90 -157 -90z" />
    <glyph glyph-name="adieresis" unicode="&#xe4;" horiz-adv-x="989" 
d="M262 293q0 -209 240 -209q115 0 172 35v456q-212 -27 -312 -86t-100 -196zM90 289q0 200 172 290q143 75 412 103v59q0 209 -232 209q-121 0 -252 -65v127q129 57 287 57t262 -81t105 -259v-674q-136 -75 -346 -75t-309 80t-99 229zM426 1294q0 -38 -28 -62t-66 -24
t-65 26t-27 62t27 61q28 25 66 25q37 0 65 -26t28 -62zM764 1294q0 -38 -28 -62t-66 -24t-66 26q-26 26 -26 62t26 61q27 25 66 25q38 0 66 -26t28 -62z" />
    <glyph glyph-name="aring" unicode="&#xe5;" horiz-adv-x="989" 
d="M262 293q0 -209 240 -209q115 0 172 35v456q-212 -27 -312 -86t-100 -196zM596 1331q0 41 -28 69t-68 28t-69 -28q-28 -28 -28 -69t28 -69t69 -27q40 -1 68 27t28 69zM90 289q0 200 172 290q143 75 412 103v59q0 209 -232 209q-121 0 -252 -65v127q129 57 287 57t262 -81
t105 -259v-674q-136 -75 -346 -75t-309 80t-99 229zM501 1495q69 0 117 -48t48 -117t-48 -117t-118 -48q-68 0 -116 48t-48 117t48 117t117 48z" />
    <glyph glyph-name="ae" unicode="&#xe6;" horiz-adv-x="1574" 
d="M676 281v294q-218 -29 -316 -87t-98 -201q0 -203 211 -203q87 0 145 54t58 143zM1074 952q-102 0 -181 -97q-78 -97 -80 -253h490q-3 168 -65 259t-164 91zM817 487q0 -153 82 -265t241 -112t273 66v-121q-115 -76 -297 -75q-219 0 -344 192q-84 -193 -301 -192
q-190 0 -286 80q-95 81 -95 229q0 184 150 275t436 118v59q0 209 -238 209q-125 0 -252 -67v127q41 23 129 41q87 18 152 18q233 0 301 -188q27 68 112 128t195 60q188 0 294 -151q105 -152 99 -431h-651z" />
    <glyph glyph-name="ccedilla" unicode="&#xe7;" horiz-adv-x="964" 
d="M727 -254q0 -92 -138 -130t-386 -17l41 69q143 -12 245 7t103 69q0 84 -260 66l41 63q354 33 354 -127zM540 -23q-194 1 -316 149t-122 400t123 398t314 145q191 0 295 -70v-129q-98 72 -246 72t-226 -112t-78 -299t82 -303q81 -116 219 -116t249 72v-139
q-100 -68 -294 -68z" />
    <glyph glyph-name="egrave" unicode="&#xe8;" horiz-adv-x="1030" 
d="M528 952q-102 0 -180 -97t-80 -253h490q-2 168 -64 259q-64 91 -166 91zM596 111q158 0 272 65v-121q-114 -75 -312 -75t-326 140t-128 404t124 404t308 141q184 0 291 -154t99 -428h-652q4 -164 85 -270t239 -106zM352 1485q62 0 117 -35l143 -281h-102l-234 279
q14 37 76 37z" />
    <glyph glyph-name="eacute" unicode="&#xe9;" horiz-adv-x="1030" 
d="M528 952q-102 0 -180 -97t-80 -253h490q-2 168 -64 259q-64 91 -166 91zM596 111q158 0 272 65v-121q-114 -75 -312 -75t-326 140t-128 404t124 404t308 141q184 0 291 -154t99 -428h-652q4 -164 85 -270t239 -106zM700 1485q62 0 76 -37l-233 -279h-103l144 281
q54 35 116 35z" />
    <glyph glyph-name="ecircumflex" unicode="&#xea;" horiz-adv-x="1030" 
d="M528 952q-102 0 -180 -97t-80 -253h490q-2 168 -64 259q-64 91 -166 91zM596 111q158 0 272 65v-121q-114 -75 -312 -75t-326 140t-128 404t124 404t308 141q184 0 291 -154t99 -428h-652q4 -164 85 -270t239 -106zM520 1448q40 0 70 -31l203 -205l-54 -45l-217 162
l-221 -162l-51 45l203 205q27 31 67 31z" />
    <glyph glyph-name="edieresis" unicode="&#xeb;" horiz-adv-x="1030" 
d="M528 952q-102 0 -180 -97t-80 -253h490q-2 168 -64 259q-64 91 -166 91zM596 111q158 0 272 65v-121q-114 -75 -312 -75t-326 140t-128 404t124 404t308 141q184 0 291 -154t99 -428h-652q4 -164 85 -270t239 -106zM451 1294q0 -38 -28 -62t-67 -24q-40 0 -66 26t-26 62
t27 61t65 25t67 -26q28 -26 28 -62zM786 1294q0 -38 -26 -62t-66 -24t-66 26t-26 62t27 61t65 25t66 -25q26 -26 26 -63z" />
    <glyph glyph-name="igrave" unicode="&#xec;" horiz-adv-x="495" 
d="M338 0h-180v1047h180v-1047zM92 1483q62 0 117 -35l143 -281h-102l-234 279q14 37 76 37z" />
    <glyph glyph-name="iacute" unicode="&#xed;" horiz-adv-x="495" 
d="M338 0h-180v1047h180v-1047zM402 1483q62 0 75 -37l-233 -279h-103l144 281q55 35 117 35z" />
    <glyph glyph-name="icircumflex" unicode="&#xee;" horiz-adv-x="495" 
d="M338 0h-180v1047h180v-1047zM247 1446q38 0 68 -31l203 -205l-51 -45l-219 162l-219 -162l-54 45l203 205q31 31 69 31z" />
    <glyph glyph-name="idieresis" unicode="&#xef;" horiz-adv-x="495" 
d="M338 0h-180v1047h180v-1047zM172 1292q0 -38 -28 -62t-66 -24t-65 26t-27 62t27 61q28 25 66 25q37 0 65 -26t28 -62zM508 1292q0 -38 -28 -62t-66 -24t-65 26t-27 62t27 61q28 25 66 25q37 0 65 -26t28 -62z" />
    <glyph glyph-name="eth" unicode="&#xf0;" horiz-adv-x="1021" 
d="M733 524q0 233 -65 410q-55 18 -131 18q-254 0 -254 -428t235 -428q215 0 215 428zM913 520q0 -246 -99 -393t-297 -147q-199 0 -307 145t-108 375t92 392q46 81 127 129t170 48t144 -18q-59 141 -131 262l-178 -53l-43 67l174 55q-49 72 -92 115l147 47q45 -49 90 -112
l152 45l47 -68l-154 -47q266 -426 266 -842z" />
    <glyph glyph-name="ntilde" unicode="&#xf1;" horiz-adv-x="1050" 
d="M913 0h-180v748q0 199 -215 198q-113 0 -192 -35v-911h-181v989q157 80 375 80t306 -90t87 -221v-758zM653 1196q-59 0 -135 40t-128 40t-98 -39t-59 -74v125q17 31 59 61q42 29 100 29t133 -40t129 -40t99 38q44 38 58 75v-125q-57 -90 -158 -90z" />
    <glyph glyph-name="ograve" unicode="&#xf2;" horiz-adv-x="1032" 
d="M750 524q0 428 -234 428t-233 -428q-1 -428 233 -428t234 428zM930 525q0 -247 -102 -397t-311 -148q-208 0 -311 150q-104 150 -104 396q0 244 104 394t311 150q205 0 309 -150q104 -148 104 -395zM340 1485q62 0 117 -35l143 -281h-100l-236 279q14 37 76 37z" />
    <glyph glyph-name="oacute" unicode="&#xf3;" horiz-adv-x="1032" 
d="M750 524q0 428 -234 428t-233 -428q-1 -428 233 -428t234 428zM930 525q0 -247 -102 -397t-311 -148q-208 0 -311 150q-104 150 -104 396q0 244 104 394t311 150q205 0 309 -150q104 -148 104 -395zM694 1485q62 0 76 -37l-233 -279h-103l144 281q54 35 116 35z" />
    <glyph glyph-name="ocircumflex" unicode="&#xf4;" horiz-adv-x="1032" 
d="M750 524q0 428 -234 428t-233 -428q-1 -428 233 -428t234 428zM930 525q0 -247 -102 -397t-311 -148q-208 0 -311 150q-104 150 -104 396q0 244 104 394t311 150q205 0 309 -150q104 -148 104 -395zM516 1448q38 0 70 -31l202 -205l-53 -45l-217 162l-221 -162l-51 45
l203 205q29 31 67 31z" />
    <glyph glyph-name="otilde" unicode="&#xf5;" horiz-adv-x="1032" 
d="M750 524q0 428 -234 428t-233 -428q-1 -428 233 -428t234 428zM930 525q0 -247 -102 -397t-311 -148q-208 0 -311 150q-104 150 -104 396q0 244 104 394t311 150q205 0 309 -150q104 -148 104 -395zM643 1196q-59 0 -135 40t-128 40t-98 -39t-59 -74v125q17 31 59 61
q42 29 100 29t133 -40t129 -40t98 38t59 75v-125q-55 -90 -158 -90z" />
    <glyph glyph-name="odieresis" unicode="&#xf6;" horiz-adv-x="1032" 
d="M750 524q0 428 -234 428t-233 -428q-1 -428 233 -428t234 428zM930 525q0 -247 -102 -397t-311 -148q-208 0 -311 150q-104 150 -104 396q0 244 104 394t311 150q205 0 309 -150q104 -148 104 -395zM440 1294q0 -38 -28 -62t-65 -24t-65 26t-28 62t28 61t66 25t65 -25
q27 -26 27 -63zM778 1294q0 -38 -28 -62t-65 -24t-65 26t-28 62t28 61t66 25t65 -25q27 -26 27 -63z" />
    <glyph glyph-name="divide" unicode="&#xf7;" horiz-adv-x="1081" 
d="M641 300q0 -42 -30 -72q-29 -30 -71 -30t-72 30t-30 72t30 72t72 30t72 -30t29 -72zM934 573h-787v107h787v-107zM540 1053q42 0 72 -30t29 -72q0 -41 -30 -71q-29 -30 -71 -30t-72 30t-30 72t30 71q30 30 72 30z" />
    <glyph glyph-name="oslash" unicode="&#xf8;" horiz-adv-x="1032" 
d="M750 524q0 176 -37 279l-359 -621q55 -86 162 -86q234 0 234 428zM516 952q-233 0 -233 -428q0 -174 36 -274l359 618q-57 84 -162 84zM930 544q0 -266 -102 -416t-312 -148q-141 0 -237 73l-86 -149l-54 33l92 159q-129 146 -129 410t104 414t310 149q137 0 236 -72
l86 148l53 -33l-92 -158q131 -144 131 -410z" />
    <glyph glyph-name="ugrave" unicode="&#xf9;" horiz-adv-x="1050" 
d="M543 -20q-209 0 -303 89t-95 253v725h181v-725q0 -96 53 -156t165 -60t181 41v900h180v-979q-152 -88 -362 -88zM372 1483q62 0 117 -35l144 -281h-101l-235 279q13 37 75 37z" />
    <glyph glyph-name="uacute" unicode="&#xfa;" horiz-adv-x="1050" 
d="M543 -20q-209 0 -303 89t-95 253v725h181v-725q0 -96 53 -156t165 -60t181 41v900h180v-979q-152 -88 -362 -88zM706 1483q62 0 76 -37l-235 -279h-101l144 281q54 35 116 35z" />
    <glyph glyph-name="ucircumflex" unicode="&#xfb;" horiz-adv-x="1050" 
d="M543 -20q-209 0 -303 89t-95 253v725h181v-725q0 -96 53 -156t165 -60t181 41v900h180v-979q-152 -88 -362 -88zM526 1446q38 0 70 -31l201 -205l-52 -45l-219 162l-219 -162l-51 45l201 205q31 31 69 31z" />
    <glyph glyph-name="udieresis" unicode="&#xfc;" horiz-adv-x="1050" 
d="M543 -20q-209 0 -303 89t-95 253v725h181v-725q0 -96 53 -156t165 -60t181 41v900h180v-979q-152 -88 -362 -88zM449 1292q0 -38 -27 -62t-66 -24q-40 0 -66 26t-26 62t27 61t65 25t66 -26q27 -26 27 -62zM786 1292q0 -38 -28 -62t-65 -24t-65 26t-28 62t28 61t66 25
t65 -25q27 -26 27 -63z" />
    <glyph glyph-name="yacute" unicode="&#xfd;" horiz-adv-x="999" 
d="M930 1047l-492 -1487h-194l184 440l-352 1047h192l211 -736q18 -59 27 -141h4q6 66 29 141l223 736h168zM686 1483q62 0 76 -37l-236 -279h-100l143 281q55 35 117 35z" />
    <glyph glyph-name="thorn" unicode="&#xfe;" horiz-adv-x="1050" 
d="M467 96q153 0 227 118t74 322t-70 310t-227 106q-88 0 -145 -28v-801q66 -27 141 -27zM948 534q0 -251 -126 -403t-335 -151q-88 0 -161 18v-438h-181v1919h179v-428q51 18 155 18q219 0 344 -142t125 -393z" />
    <glyph glyph-name="ydieresis" unicode="&#xff;" horiz-adv-x="999" 
d="M930 1047l-492 -1487h-194l184 440l-352 1047h192l211 -736q18 -59 27 -141h4q6 66 29 141l223 736h168zM436 1292q0 -38 -28 -62t-66 -24q-39 0 -66 26q-26 26 -26 62t26 61q27 25 66 25t67 -25q27 -26 27 -63zM772 1292q0 -38 -27 -62t-65 -24t-66 26q-26 26 -26 62
t26 61q27 25 66 25q40 0 66 -26t26 -62z" />
    <glyph glyph-name="Amacron" unicode="&#x100;" horiz-adv-x="1198" 
d="M801 604l-164 535q-34 104 -41 170h-4q-8 -59 -43 -170l-168 -535h420zM1184 0h-195l-155 485h-488l-158 -485h-172l500 1479h168zM889 1649h-582v104h582v-104z" />
    <glyph glyph-name="amacron" unicode="&#x101;" horiz-adv-x="989" 
d="M262 293q0 -209 240 -209q115 0 172 35v456q-212 -27 -312 -86t-100 -196zM90 289q0 200 172 290q143 75 412 103v59q0 209 -232 209q-121 0 -252 -65v127q129 57 287 57t262 -81t105 -259v-674q-136 -75 -346 -75t-309 80t-99 229zM786 1231h-581v104h581v-104z" />
    <glyph glyph-name="Abreve" unicode="&#x102;" horiz-adv-x="1198" 
d="M801 604l-164 535q-34 104 -41 170h-4q-8 -59 -43 -170l-168 -535h420zM1184 0h-195l-155 485h-488l-158 -485h-172l500 1479h168zM598 1585q-131 0 -198 78t-66 166l63 22q35 -161 198 -161t206 161l61 -22q0 -88 -66 -166t-198 -78z" />
    <glyph glyph-name="abreve" unicode="&#x103;" horiz-adv-x="989" 
d="M262 293q0 -209 240 -209q115 0 172 35v456q-212 -27 -312 -86t-100 -196zM90 289q0 200 172 290q143 75 412 103v59q0 209 -232 209q-121 0 -252 -65v127q129 57 287 57t262 -81t105 -259v-674q-136 -75 -346 -75t-309 80t-99 229zM496 1167q-130 0 -198 78
q-67 78 -67 166l64 23q35 -162 198 -162t205 162l62 -23q0 -88 -67 -166t-197 -78z" />
    <glyph glyph-name="Aogonek" unicode="&#x104;" horiz-adv-x="1198" 
d="M801 604l-164 535q-34 104 -41 170h-4q-8 -59 -43 -170l-168 -535h420zM805 -225q0 119 199 225h-15l-155 485h-488l-158 -485h-172l500 1479h168l500 -1479h-51q-111 -61 -152 -104t-41 -89q0 -61 67 -74t173 25l18 -67q-94 -41 -184 -47t-150 27q-59 34 -59 104z" />
    <glyph glyph-name="aogonek" unicode="&#x105;" horiz-adv-x="989" 
d="M262 293q0 -209 240 -209q115 0 172 35v456q-212 -27 -312 -86t-100 -196zM487 -20q-199 0 -298 80t-99 229q0 200 172 290q143 75 412 103v59q0 209 -232 209q-121 0 -252 -65v127q129 57 287 57t262 -81t105 -259v-674q-113 -55 -187 -121q-73 -66 -73 -127t66 -74
t173 25l21 -67q-140 -63 -268 -41t-128 128q0 108 168 210q-61 -8 -129 -8z" />
    <glyph glyph-name="Cacute" unicode="&#x106;" horiz-adv-x="1157" 
d="M668 -20q-262 0 -410 213q-147 213 -147 539t147 547q147 220 414 220q112 -1 190 -25t160 -81v-148q-66 53 -154 84t-163 31q-139 0 -233 -89q-172 -163 -171 -538q0 -266 100 -436q101 -170 289 -170t332 98v-147q-121 -98 -354 -98zM802 1901q63 0 75 -37l-234 -279
h-102l143 281q55 35 118 35z" />
    <glyph glyph-name="cacute" unicode="&#x107;" horiz-adv-x="964" 
d="M540 -23q-194 1 -316 149t-122 400t123 398t314 145q191 0 295 -70v-129q-98 72 -246 72t-226 -112t-78 -299t82 -303q81 -116 219 -116t249 72v-139q-100 -68 -294 -68zM691 1483q63 0 75 -37l-234 -279h-102l143 281q55 35 118 35z" />
    <glyph glyph-name="Ccircumflex" unicode="&#x108;" horiz-adv-x="1157" 
d="M668 -20q-262 0 -410 213q-147 213 -147 539t147 547q147 220 414 220q112 -1 190 -25t160 -81v-148q-66 53 -154 84t-163 31q-139 0 -233 -89q-172 -163 -171 -538q0 -266 100 -436q101 -170 289 -170t332 98v-147q-121 -98 -354 -98zM660 1864q38 0 69 -31l201 -205
l-51 -45l-220 162l-219 -162l-51 45l201 205q32 31 70 31z" />
    <glyph glyph-name="ccircumflex" unicode="&#x109;" horiz-adv-x="964" 
d="M540 -23q-194 1 -316 149t-122 400t123 398t314 145q191 0 295 -70v-129q-98 72 -246 72t-226 -112t-78 -299t82 -303q81 -116 219 -116t249 72v-139q-100 -68 -294 -68zM545 1446q39 0 69 -31l201 -205l-51 -45l-219 162l-219 -162l-52 45l201 205q31 31 70 31z" />
    <glyph glyph-name="Cdot" unicode="&#x10a;" horiz-adv-x="1157" 
d="M668 -20q-262 0 -410 213q-147 213 -147 539t147 547q147 220 414 220q112 -1 190 -25t160 -81v-148q-66 53 -154 84t-163 31q-139 0 -233 -89q-172 -163 -171 -538q0 -266 100 -436q101 -170 289 -170t332 98v-147q-121 -98 -354 -98zM778 1776q0 -41 -28 -71t-70 -30
q-41 0 -70 30t-28 71q0 42 28 70t70 28t70 -28t28 -70z" />
    <glyph glyph-name="cdot" unicode="&#x10b;" horiz-adv-x="964" 
d="M540 -23q-194 1 -316 149t-122 400t123 398t314 145q191 0 295 -70v-129q-98 72 -246 72t-226 -112t-78 -299t82 -303q81 -116 219 -116t249 72v-139q-100 -68 -294 -68zM643 1358q0 -41 -29 -71q-30 -30 -70 -30t-69 30t-29 71q0 42 29 70t70 28t69 -28t29 -70z" />
    <glyph glyph-name="Ccaron" unicode="&#x10c;" horiz-adv-x="1157" 
d="M668 -20q-262 0 -410 213q-147 213 -147 539t147 547q147 220 414 220q112 -1 190 -25t160 -81v-148q-66 53 -154 84t-163 31q-139 0 -233 -89q-172 -163 -171 -538q0 -266 100 -436q101 -170 289 -170t332 98v-147q-121 -98 -354 -98zM659 1585q-39 0 -69 31l-203 207
l51 43l221 -164l222 164l51 -43l-203 -207q-31 -31 -70 -31z" />
    <glyph glyph-name="ccaron" unicode="&#x10d;" horiz-adv-x="964" 
d="M540 -23q-194 1 -316 149t-122 400t123 398t314 145q191 0 295 -70v-129q-98 72 -246 72t-226 -112t-78 -299t82 -303q81 -116 219 -116t249 72v-139q-100 -68 -294 -68zM528 1167q-39 0 -69 31l-203 207l51 43l221 -164l222 164l51 -43l-203 -207q-31 -31 -70 -31z" />
    <glyph glyph-name="Dcaron" unicode="&#x10e;" horiz-adv-x="1255" 
d="M954 751q0 291 -125 443t-292 152h-193v-1213h193q174 0 296 163q121 163 121 455zM526 1479q303 1 461 -189t158 -539t-152 -550t-456 -201h-379v1479h368zM524 1585q-39 0 -69 31l-203 207l51 43l221 -164l221 164l52 -43l-203 -207q-31 -31 -70 -31z" />
    <glyph glyph-name="dcaron" unicode="&#x10f;" horiz-adv-x="1050" 
d="M600 952q-168 0 -243 -124t-75 -312t76 -303q74 -115 222 -115q98 0 145 31v803q-72 20 -125 20zM102 521q0 253 126 401t335 147q86 0 162 -20v430h180v-1422q-129 -77 -344 -77t-337 144t-122 397zM1208 1351q0 -120 -106 -214h-127q94 129 94 218t-90 161h156
q73 -45 73 -165z" />
    <glyph glyph-name="Dcroat" unicode="&#x110;" horiz-adv-x="1308" 
d="M1008 751q0 291 -125 443t-293 152h-193v-492h248v-106h-248v-615h193q174 0 296 163t122 455zM580 1479q302 1 460 -189t158 -539t-152 -550t-456 -201h-379v748h-131v106h131v625h369z" />
    <glyph glyph-name="dmacron" unicode="&#x111;" horiz-adv-x="1050" 
d="M600 952q-168 0 -243 -124t-75 -312t76 -303q74 -115 222 -115q98 0 145 31v803q-72 20 -125 20zM1092 1188h-187v-1131q-129 -77 -344 -77t-337 144t-122 397t126 401t335 147q86 0 162 -20v139h-287v119h287v172h180v-172h187v-119z" />
    <glyph glyph-name="Emacron" unicode="&#x112;" horiz-adv-x="937" 
d="M844 0h-686v1479h686v-133h-498v-517h451v-131h-451v-565h498v-133zM801 1649h-582v104h582v-104z" />
    <glyph glyph-name="emacron" unicode="&#x113;" horiz-adv-x="1030" 
d="M528 952q-102 0 -180 -97t-80 -253h490q-2 168 -64 259q-64 91 -166 91zM596 111q158 0 272 65v-121q-114 -75 -312 -75t-326 140t-128 404t124 404t308 141q184 0 291 -154t99 -428h-652q4 -164 85 -270t239 -106zM827 1231h-581v104h581v-104z" />
    <glyph glyph-name="Ebreve" unicode="&#x114;" horiz-adv-x="937" 
d="M844 0h-686v1479h686v-133h-498v-517h451v-131h-451v-565h498v-133zM510 1585q-131 0 -198 78t-66 166l63 22q35 -161 198 -161t206 161l61 -22q0 -88 -66 -166t-198 -78z" />
    <glyph glyph-name="ebreve" unicode="&#x115;" horiz-adv-x="1030" 
d="M528 952q-102 0 -180 -97t-80 -253h490q-2 168 -64 259q-64 91 -166 91zM596 111q158 0 272 65v-121q-114 -75 -312 -75t-326 140t-128 404t124 404t308 141q184 0 291 -154t99 -428h-652q4 -164 85 -270t239 -106zM516 1167q-131 0 -198 78t-66 166l63 23
q35 -162 198 -162t206 162l61 -23q0 -88 -66 -166t-198 -78z" />
    <glyph glyph-name="Edot" unicode="&#x116;" horiz-adv-x="937" 
d="M844 0h-686v1479h686v-133h-498v-517h451v-131h-451v-565h498v-133zM608 1776q0 -41 -28 -71t-70 -30q-41 0 -70 30t-28 71q0 42 28 70t70 28t70 -28t28 -70z" />
    <glyph glyph-name="edot" unicode="&#x117;" horiz-adv-x="1030" 
d="M528 952q-102 0 -180 -97t-80 -253h490q-2 168 -64 259q-64 91 -166 91zM596 111q158 0 272 65v-121q-114 -75 -312 -75t-326 140t-128 404t124 404t308 141q184 0 291 -154t99 -428h-652q4 -164 85 -270t239 -106zM635 1358q0 -41 -29 -71q-30 -30 -70 -30t-69 30
t-29 71q0 42 29 70t70 28t69 -28t29 -70z" />
    <glyph glyph-name="Eogonek" unicode="&#x118;" horiz-adv-x="937" 
d="M844 0h-84q-111 -61 -152 -104t-41 -89q0 -61 67 -74t173 25l18 -67q-94 -41 -184 -47t-149 28t-60 103q0 119 199 225h-473v1479h686v-133h-498v-517h451v-131h-451v-565h498v-133z" />
    <glyph glyph-name="eogonek" unicode="&#x119;" horiz-adv-x="1030" 
d="M528 952q-102 0 -180 -97t-80 -253h490q-2 168 -64 259q-64 91 -166 91zM596 111q158 0 272 65v-121q-2 -2 -52 -29t-73 -45q-24 -18 -50 -38t-55 -58q-30 -39 -30 -78q0 -61 67 -74t173 25l18 -67q-94 -41 -184 -47t-150 27q-59 34 -59 104q0 115 158 207q-12 -2 -60 -2
q-213 0 -341 140t-128 404t124 404t308 141q184 0 291 -154t99 -428h-652q4 -164 85 -270t239 -106z" />
    <glyph glyph-name="Ecaron" unicode="&#x11a;" horiz-adv-x="937" 
d="M844 0h-686v1479h686v-133h-498v-517h451v-131h-451v-565h498v-133zM510 1585q-39 0 -70 31l-202 207l51 43l221 -164l221 164l51 -43l-202 -207q-31 -31 -70 -31z" />
    <glyph glyph-name="ecaron" unicode="&#x11b;" horiz-adv-x="1030" 
d="M528 952q-102 0 -180 -97t-80 -253h490q-2 168 -64 259q-64 91 -166 91zM596 111q158 0 272 65v-121q-114 -75 -312 -75t-326 140t-128 404t124 404t308 141q184 0 291 -154t99 -428h-652q4 -164 85 -270t239 -106zM536 1167q-38 0 -69 31l-203 207l51 43l222 -164
l221 164l51 -43l-203 -207q-32 -31 -70 -31z" />
    <glyph glyph-name="Gcircumflex" unicode="&#x11c;" horiz-adv-x="1263" 
d="M111 738q0 364 180 562t442 199q193 0 330 -102v-146q-135 115 -309 115q-213 0 -333 -160t-120 -464t119 -468t311 -163q131 0 193 32v652h182v-734q-143 -82 -373 -81q-272 0 -447 198q-175 196 -175 560zM713 1864q39 0 69 -31l201 -205l-51 -45l-219 162l-219 -162
l-52 45l201 205q31 31 70 31z" />
    <glyph glyph-name="gcircumflex" unicode="&#x11d;" horiz-adv-x="1032" 
d="M731 719q0 113 -55 179t-170 65q-115 0 -170 -66q-55 -67 -55 -179t55 -178t170 -65q115 -1 170 65t55 179zM979 950h-158q80 -68 80 -226t-95 -257q-95 -98 -298 -98l-84 4q-80 -51 -80 -127q0 -37 39 -45q10 -2 16 -4t64 -2h162q161 0 249 -83t89 -206
q0 -158 -115 -252q-114 -94 -316 -94t-321 78t-119 200q0 57 23 117h170q-23 -37 -23 -115t80 -126t199 -48t185 62t67 154q-1 91 -49 129t-148 38h-156q-190 0 -236 70q-24 35 -24 90q0 90 125 194q-193 84 -192 316q0 158 98 254t295 96q96 0 168 -22h305v-97zM516 1446
q39 0 70 -31l200 -205l-51 -45l-219 162l-219 -162l-51 45l200 205q31 31 70 31z" />
    <glyph glyph-name="Gbreve" unicode="&#x11e;" horiz-adv-x="1263" 
d="M111 738q0 364 180 562t442 199q193 0 330 -102v-146q-135 115 -309 115q-213 0 -333 -160t-120 -464t119 -468t311 -163q131 0 193 32v652h182v-734q-143 -82 -373 -81q-272 0 -447 198q-175 196 -175 560zM692 1585q-132 0 -198 78t-66 166l64 22q36 -161 198 -161
t205 161l61 -22q0 -88 -66 -166t-198 -78z" />
    <glyph glyph-name="gbreve" unicode="&#x11f;" horiz-adv-x="1032" 
d="M731 719q0 113 -55 179t-170 65q-115 0 -170 -66q-55 -67 -55 -179t55 -178t170 -65q115 -1 170 65t55 179zM979 950h-158q80 -68 80 -226t-95 -257q-95 -98 -298 -98l-84 4q-80 -51 -80 -127q0 -37 39 -45q10 -2 16 -4t64 -2h162q161 0 249 -83t89 -206
q0 -158 -115 -252q-114 -94 -316 -94t-321 78t-119 200q0 57 23 117h170q-23 -37 -23 -115t80 -126t199 -48t185 62t67 154q-1 91 -49 129t-148 38h-156q-190 0 -236 70q-24 35 -24 90q0 90 125 194q-193 84 -192 316q0 158 98 254t295 96q96 0 168 -22h305v-97zM516 1167
q-131 0 -198 78t-66 166l63 23q35 -162 198 -162t206 162l61 -23q0 -88 -66 -166t-198 -78z" />
    <glyph glyph-name="Gdot" unicode="&#x120;" horiz-adv-x="1263" 
d="M111 738q0 364 180 562t442 199q193 0 330 -102v-146q-135 115 -309 115q-213 0 -333 -160t-120 -464t119 -468t311 -163q131 0 193 32v652h182v-734q-143 -82 -373 -81q-272 0 -447 198q-175 196 -175 560zM831 1776q-1 -41 -29 -71t-69 -30t-69 30t-29 71q0 42 29 70
q30 28 70 28t68 -28t29 -70z" />
    <glyph glyph-name="gdot" unicode="&#x121;" horiz-adv-x="1032" 
d="M731 719q0 113 -55 179t-170 65q-115 0 -170 -66q-55 -67 -55 -179t55 -178t170 -65q115 -1 170 65t55 179zM979 950h-158q80 -68 80 -226t-95 -257q-95 -98 -298 -98l-84 4q-80 -51 -80 -127q0 -37 39 -45q10 -2 16 -4t64 -2h162q161 0 249 -83t89 -206
q0 -158 -115 -252q-114 -94 -316 -94t-321 78t-119 200q0 57 23 117h170q-23 -37 -23 -115t80 -126t199 -48t185 62t67 154q-1 91 -49 129t-148 38h-156q-190 0 -236 70q-24 35 -24 90q0 90 125 194q-193 84 -192 316q0 158 98 254t295 96q96 0 168 -22h305v-97zM614 1358
q0 -41 -28 -71t-70 -30q-41 0 -70 30t-28 71q0 42 28 70t70 28t70 -28t28 -70z" />
    <glyph glyph-name="Gcommaaccent" unicode="&#x122;" horiz-adv-x="1263" 
d="M834 -270q0 -96 -78 -148t-187 -57l-34 76q67 8 113 42q46 35 46 97t-108 141h164q84 -55 84 -151zM111 738q0 364 180 562t442 199q193 0 330 -102v-146q-135 115 -309 115q-213 0 -333 -160t-120 -464t119 -468t311 -163q131 0 193 32v652h182v-734q-143 -82 -373 -81
q-272 0 -447 198q-175 196 -175 560z" />
    <glyph glyph-name="gcommaaccent" unicode="&#x123;" horiz-adv-x="1032" 
d="M731 719q0 113 -55 179t-170 65q-115 0 -170 -66q-55 -67 -55 -179t55 -178t170 -65q115 -1 170 65t55 179zM979 950h-158q80 -68 80 -226t-95 -257q-95 -98 -298 -98l-84 4q-80 -51 -80 -127q0 -37 39 -45q10 -2 16 -4t64 -2h162q161 0 249 -83t89 -206
q0 -158 -115 -252q-114 -94 -316 -94t-321 78t-119 200q0 57 23 117h170q-23 -37 -23 -115t80 -126t199 -48t185 62t67 154q-1 91 -49 129t-148 38h-156q-190 0 -236 70q-24 35 -24 90q0 90 125 194q-193 84 -192 316q0 158 98 254t295 96q96 0 168 -22h305v-97zM524 1310
q0 -64 107 -141h-164q-82 53 -82 151t78 148q78 51 186 58l35 -76q-68 -8 -114 -42t-46 -98z" />
    <glyph glyph-name="Hcircumflex" unicode="&#x124;" horiz-adv-x="1267" 
d="M1110 0h-188v698h-576v-698h-188v1479h188v-650h576v650h188v-1479zM635 1864q39 0 70 -31l200 -205l-51 -45l-219 162l-219 -162l-51 45l200 205q31 31 70 31z" />
    <glyph glyph-name="hcircumflex" unicode="&#x125;" horiz-adv-x="1058" 
d="M913 0h-180v741q0 205 -209 205q-115 0 -198 -51v-895h-181v1479h181v-484q125 66 239 66q182 0 265 -91t83 -220v-750zM512 1864q39 0 70 -31l200 -205l-51 -45l-219 162l-219 -162l-51 45l200 205q31 31 70 31z" />
    <glyph glyph-name="Hbar" unicode="&#x126;" horiz-adv-x="1267" 
d="M922 829v179h-576v-179h576zM1227 1008h-117v-1008h-188v698h-576v-698h-188v1008h-117v131h117v340h188v-340h576v340h188v-340h117v-131z" />
    <glyph glyph-name="hbar" unicode="&#x127;" horiz-adv-x="1058" 
d="M913 0h-180v741q0 205 -209 205q-115 0 -198 -51v-895h-181v1188h-178v119h178v172h181v-172h315v-119h-315v-193q125 66 239 66q182 0 265 -91t83 -220v-750z" />
    <glyph glyph-name="Itilde" unicode="&#x128;" horiz-adv-x="518" 
d="M352 0h-188v1479h188v-1479zM389 1614q-59 0 -135 40t-128 40t-98 -39t-59 -74v125q17 30 59 60t100 30t133 -40t129 -40t98 38t59 75v-125q-55 -90 -158 -90z" />
    <glyph glyph-name="itilde" unicode="&#x129;" horiz-adv-x="495" 
d="M338 0h-180v1047h180v-1047zM379 1196q-59 0 -135 40t-128 40t-98 -39t-59 -74v125q18 31 59 61q42 29 100 29t133 -40t129 -40t98 38t59 75v-125q-55 -90 -158 -90z" />
    <glyph glyph-name="Imacron" unicode="&#x12a;" horiz-adv-x="518" 
d="M352 0h-188v1479h188v-1479zM549 1649h-582v104h582v-104z" />
    <glyph glyph-name="imacron" unicode="&#x12b;" horiz-adv-x="495" 
d="M338 0h-180v1047h180v-1047zM539 1231h-582v104h582v-104z" />
    <glyph glyph-name="Ibreve" unicode="&#x12c;" horiz-adv-x="518" 
d="M352 0h-188v1479h188v-1479zM258 1585q-131 0 -198 78t-66 166l63 22q35 -161 198 -161t206 161l61 -22q0 -88 -66 -166t-198 -78z" />
    <glyph glyph-name="ibreve" unicode="&#x12d;" horiz-adv-x="495" 
d="M338 0h-180v1047h180v-1047zM248 1167q-130 0 -198 78q-67 78 -66 166l63 23q35 -162 198 -162t206 162l61 -23q0 -88 -67 -166t-197 -78z" />
    <glyph glyph-name="Iogonek" unicode="&#x12e;" horiz-adv-x="518" 
d="M23 -225q0 119 198 225h-57v1479h188v-1479q-110 -59 -152 -103q-42 -43 -42 -97t66 -67t173 25l19 -67q-94 -41 -184 -47t-150 28q-59 34 -59 103z" />
    <glyph glyph-name="iogonek" unicode="&#x12f;" horiz-adv-x="495" 
d="M8 -218q0 112 201 218h-51v1047h180v-1047q-111 -61 -153 -104t-42 -89q0 -61 67 -74t173 25l20 -67q-141 -63 -268 -41q-127 20 -127 132zM352 1364q0 -43 -32 -74q-32 -30 -74 -30q-43 0 -74 30t-31 74q0 43 31 74q31 30 74 30t75 -30q31 -31 31 -74z" />
    <glyph glyph-name="Idot" unicode="&#x130;" horiz-adv-x="518" 
d="M352 0h-188v1479h188v-1479zM356 1776q0 -41 -28 -71t-70 -30q-41 0 -70 30t-28 71q0 42 28 70t70 28t70 -28t28 -70z" />
    <glyph glyph-name="dotlessi" unicode="&#x131;" horiz-adv-x="495" 
d="M338 0h-180v1047h180v-1047z" />
    <glyph glyph-name="IJ" unicode="&#x132;" horiz-adv-x="1036" 
d="M352 0h-188v1479h188v-1479zM870 63q0 -217 -127 -349t-315 -158v133q110 29 182 124t72 240v1426h188v-1416z" />
    <glyph glyph-name="ij" unicode="&#x133;" horiz-adv-x="991" 
d="M338 0h-180v1047h180v-1047zM838 74q0 -224 -113 -362t-270 -156v118q203 74 202 387v986h181v-973zM352 1364q0 -43 -32 -74q-32 -30 -74 -30q-43 0 -74 30t-31 74q0 43 31 74q31 30 74 30t75 -30q31 -31 31 -74zM852 1364q0 -43 -32 -74q-32 -30 -75 -30t-73 30t-31 74
q0 43 31 74q32 30 74 30t74 -30t32 -74z" />
    <glyph glyph-name="Jcircumflex" unicode="&#x134;" horiz-adv-x="518" 
d="M352 63q0 -217 -127 -349t-315 -158v133q110 29 182 124t72 240v1426h188v-1416zM258 1864q39 0 70 -31l200 -205l-51 -45l-219 162l-219 -162l-51 45l200 205q31 31 70 31z" />
    <glyph glyph-name="jcircumflex" unicode="&#x135;" horiz-adv-x="495" 
d="M342 74q0 -224 -113 -362t-270 -156v118q203 74 203 387v986h180v-973zM248 1446q39 0 69 -31l201 -205l-51 -45l-219 162l-219 -162l-52 45l201 205q31 31 70 31z" />
    <glyph glyph-name="Kcommaaccent" unicode="&#x136;" horiz-adv-x="1087" 
d="M725 -270q0 -96 -78 -148t-186 -57l-35 76q68 8 114 42q46 35 46 97t-109 141h164q84 -55 84 -151zM344 764v-764h-186v1479h186v-688h4l477 688h197l-506 -691l528 -788h-213l-483 764h-4z" />
    <glyph glyph-name="kcommaaccent" unicode="&#x137;" horiz-adv-x="952" 
d="M647 -270q0 -96 -78 -148t-186 -57l-35 76q68 8 114 42q46 35 46 97t-109 141h164q84 -55 84 -151zM332 543v-543h-176v1479h176v-916h2l375 484h188l-397 -488l440 -559h-205l-401 543h-2z" />
    <glyph glyph-name="kgreenlantic" unicode="&#x138;" horiz-adv-x="952" 
d="M332 543v-543h-176v1047h176v-484h2l375 484h188l-397 -488l440 -559h-205l-401 543h-2z" />
    <glyph glyph-name="Lacute" unicode="&#x139;" horiz-adv-x="870" 
d="M799 0h-641v1479h188v-1346h453v-133zM425 1901q63 0 75 -37l-234 -279h-102l143 281q55 35 118 35z" />
    <glyph glyph-name="lacute" unicode="&#x13a;" horiz-adv-x="495" 
d="M338 0h-180v1479h180v-1479zM425 1901q63 0 75 -37l-234 -279h-102l143 281q55 35 118 35z" />
    <glyph glyph-name="Lcommaaccent" unicode="&#x13b;" horiz-adv-x="870" 
d="M625 -270q0 -96 -78 -148t-187 -57l-34 76q68 8 114 42q46 35 45 97q0 62 -108 141h164q84 -55 84 -151zM799 0h-641v1479h188v-1346h453v-133z" />
    <glyph glyph-name="lcommaaccent" unicode="&#x13c;" horiz-adv-x="495" 
d="M381 -270q0 -96 -78 -148t-186 -57l-35 76q68 8 114 42q46 35 46 97t-109 141h164q84 -55 84 -151zM338 0h-180v1479h180v-1479z" />
    <glyph glyph-name="Lcaron" unicode="&#x13d;" horiz-adv-x="870" 
d="M799 0h-641v1479h188v-1346h453v-133zM713 1354q0 -100 -133 -217h-127q4 4 36 46q33 42 45 57q39 53 39 106q0 88 -127 170h166q101 -62 101 -162z" />
    <glyph glyph-name="lcaron" unicode="&#x13e;" horiz-adv-x="495" 
d="M338 0h-180v1479h180v-1479zM641 1351q0 -120 -106 -214h-127q94 129 94 218t-90 161h155q74 -45 74 -165z" />
    <glyph glyph-name="Ldot" unicode="&#x13f;" horiz-adv-x="870" 
d="M799 0h-641v1479h188v-1346h453v-133zM647 743q0 -41 -29 -71q-30 -30 -70 -29q-40 0 -69 30q-29 31 -29 71t29 69t70 29t69 -29t29 -70z" />
    <glyph glyph-name="ldot" unicode="&#x140;" horiz-adv-x="495" 
d="M338 0h-180v1479h180v-1479zM627 743q0 -41 -29 -71t-70 -29q-42 0 -70 30q-28 31 -28 71t29 69t69 29t70 -29q29 -29 29 -70z" />
    <glyph glyph-name="Lslash" unicode="&#x141;" horiz-adv-x="888" 
d="M829 0h-641v797l-129 -66v100l129 68v580h189v-486l149 76v-100l-149 -76v-760h452v-133z" />
    <glyph glyph-name="lslash" unicode="&#x142;" horiz-adv-x="600" 
d="M393 0h-188v754l-142 -74v106l142 72v621h188v-523l150 78v-106l-150 -76v-852z" />
    <glyph glyph-name="Nacute" unicode="&#x143;" horiz-adv-x="1325" 
d="M1167 0h-163l-601 1087l-90 170h-4q6 -86 6 -174v-1083h-157v1479h198l656 -1198h4q-6 68 -6 155v1043h157v-1479zM806 1901q63 0 75 -37l-234 -279h-102l143 281q55 35 118 35z" />
    <glyph glyph-name="nacute" unicode="&#x144;" horiz-adv-x="1050" 
d="M913 0h-180v748q0 199 -215 198q-113 0 -192 -35v-911h-181v989q157 80 375 80t306 -90t87 -221v-758zM670 1483q62 0 75 -37l-233 -279h-102l143 281q55 35 117 35z" />
    <glyph glyph-name="Ncommaaccent" unicode="&#x145;" horiz-adv-x="1325" 
d="M813 -269q0 -97 -78 -149t-186 -57l-35 76q70 8 115 42q45 33 45 97t-107 141h164q82 -53 82 -150zM1167 0h-163l-601 1087l-90 170h-4q6 -86 6 -174v-1083h-157v1479h198l656 -1198h4q-6 68 -6 155v1043h157v-1479z" />
    <glyph glyph-name="ncommaaccent" unicode="&#x146;" horiz-adv-x="1050" 
d="M680 -269q0 -97 -78 -149t-186 -57l-35 76q70 8 115 42q45 33 45 97t-107 141h164q82 -53 82 -150zM913 0h-180v748q0 199 -215 198q-113 0 -192 -35v-911h-181v989q157 80 375 80t306 -90t87 -221v-758z" />
    <glyph glyph-name="Ncaron" unicode="&#x147;" horiz-adv-x="1325" 
d="M1167 0h-163l-601 1087l-90 170h-4q6 -86 6 -174v-1083h-157v1479h198l656 -1198h4q-6 68 -6 155v1043h157v-1479zM664 1585q-38 0 -70 31l-203 207l51 43l222 -164l221 164l51 -43l-203 -207q-31 -31 -69 -31z" />
    <glyph glyph-name="ncaron" unicode="&#x148;" horiz-adv-x="1050" 
d="M913 0h-180v748q0 199 -215 198q-113 0 -192 -35v-911h-181v989q157 80 375 80t306 -90t87 -221v-758zM528 1167q-39 0 -69 31l-203 207l51 43l221 -164l222 164l51 -43l-203 -207q-31 -31 -70 -31z" />
    <glyph glyph-name="napostrophe" unicode="&#x149;" horiz-adv-x="1050" 
d="M913 0h-180v748q0 199 -215 198q-113 0 -192 -35v-911h-181v989q157 80 375 80t306 -90t87 -221v-758zM352 1351q0 -120 -106 -214h-127q94 129 94 218t-90 161h156q73 -45 73 -165z" />
    <glyph glyph-name="Eng" unicode="&#x14a;" horiz-adv-x="1325" 
d="M1167 0q1 -206 -107 -318t-304 -126v133q137 23 195 95t59 208l-607 1095l-90 170h-4q6 -86 6 -174v-1083h-157v1479h198l656 -1198h4q-6 68 -6 155v1043h157v-1479z" />
    <glyph glyph-name="eng" unicode="&#x14b;" horiz-adv-x="1050" 
d="M913 0q0 -418 -411 -438v133q139 18 185 84t46 221v748q0 199 -215 198q-113 0 -192 -35v-911h-181v989q157 80 375 80t306 -90t87 -221v-758z" />
    <glyph glyph-name="Omacron" unicode="&#x14c;" horiz-adv-x="1288" 
d="M987 739q0 434 -174 568q-70 53 -168 53t-169 -53q-175 -131 -175 -568q0 -621 344 -620q342 -1 342 620zM1178 766q0 -566 -289 -728q-104 -58 -244 -58q-186 0 -309 104t-174 269t-51 386q0 340 131 550t403 210q184 0 307 -104q226 -192 226 -629zM934 1649h-582v104
h582v-104z" />
    <glyph glyph-name="omacron" unicode="&#x14d;" horiz-adv-x="1032" 
d="M750 524q0 428 -234 428t-233 -428q-1 -428 233 -428t234 428zM930 525q0 -247 -102 -397t-311 -148q-208 0 -311 150q-104 150 -104 396q0 244 104 394t311 150q205 0 309 -150q104 -148 104 -395zM807 1231h-582v104h582v-104z" />
    <glyph glyph-name="Obreve" unicode="&#x14e;" horiz-adv-x="1288" 
d="M987 739q0 434 -174 568q-70 53 -168 53t-169 -53q-175 -131 -175 -568q0 -621 344 -620q342 -1 342 620zM1178 766q0 -566 -289 -728q-104 -58 -244 -58q-186 0 -309 104t-174 269t-51 386q0 340 131 550t403 210q184 0 307 -104q226 -192 226 -629zM643 1585
q-131 0 -198 78t-66 166l63 22q35 -161 198 -161t206 161l61 -22q-1 -88 -67 -166t-197 -78z" />
    <glyph glyph-name="obreve" unicode="&#x14f;" horiz-adv-x="1032" 
d="M750 524q0 428 -234 428t-233 -428q-1 -428 233 -428t234 428zM930 525q0 -247 -102 -397t-311 -148q-208 0 -311 150q-104 150 -104 396q0 244 104 394t311 150q205 0 309 -150q104 -148 104 -395zM516 1167q-131 0 -198 78t-66 166l63 23q35 -162 198 -162t206 162
l61 -23q0 -88 -66 -166t-198 -78z" />
    <glyph glyph-name="Ohungarumlaut" unicode="&#x150;" horiz-adv-x="1288" 
d="M987 739q0 434 -174 568q-70 53 -168 53t-169 -53q-175 -131 -175 -568q0 -621 344 -620q342 -1 342 620zM1178 766q0 -566 -289 -728q-104 -58 -244 -58q-186 0 -309 104t-174 269t-51 386q0 340 131 550t403 210q184 0 307 -104q226 -192 226 -629zM708 1878
q56 0 56 -33l-248 -262h-82l174 260q44 35 100 35zM976 1878q56 0 56 -33l-248 -262h-82l175 260q43 35 99 35z" />
    <glyph glyph-name="ohungarumlaut" unicode="&#x151;" horiz-adv-x="1032" 
d="M750 524q0 428 -234 428t-233 -428q-1 -428 233 -428t234 428zM930 525q0 -247 -102 -397t-311 -148q-208 0 -311 150q-104 150 -104 396q0 244 104 394t311 150q205 0 309 -150q104 -148 104 -395zM580 1460q56 0 57 -33l-248 -262h-82l174 260q43 35 99 35zM849 1460
q56 0 56 -33l-248 -262h-82l175 260q43 35 99 35z" />
    <glyph glyph-name="OE" unicode="&#x152;" horiz-adv-x="1630" 
d="M301 752q0 -465 227 -593q72 -40 166 -40t156 16v1204q-74 21 -174 21t-180 -60q-134 -96 -178 -352q-16 -98 -17 -196zM1536 0h-668q-70 -20 -176 -20q-287 0 -434 210t-147 550q0 341 146 550t433 209q92 0 178 -20h668v-133h-498v-517h451v-131h-451v-565h498v-133z
" />
    <glyph glyph-name="oe" unicode="&#x153;" horiz-adv-x="1654" 
d="M750 524q0 428 -234 428t-233 -428q-1 -428 233 -428t234 428zM1154 952q-102 0 -181 -97q-78 -97 -80 -253h489q-2 168 -64 259t-164 91zM1220 111q158 0 273 65v-121q-115 -76 -297 -75q-260 0 -369 239q-37 -109 -117 -175t-194 -64q-207 0 -310 150
q-104 150 -104 396q0 244 104 394t310 149q112 0 182 -54t125 -163q113 217 332 217q189 0 295 -154t98 -428h-651q4 -164 85 -270q80 -106 238 -106z" />
    <glyph glyph-name="Racute" unicode="&#x154;" horiz-adv-x="1153" 
d="M846 1077q0 268 -324 269h-178v-566h84q222 0 320 70t98 227zM344 659v-659h-186v1479h397q241 0 359 -120t118 -286q0 -165 -98 -277t-277 -130l453 -666h-223l-426 659h-117zM720 1901q63 0 75 -37l-234 -279h-102l143 281q55 35 118 35z" />
    <glyph glyph-name="racute" unicode="&#x155;" horiz-adv-x="645" 
d="M326 0h-181v989q147 80 396 80q13 0 37 -1t28 -1l-41 -135q-145 41 -239 -21v-911zM528 1483q62 0 74 -37l-233 -279h-103l144 281q56 35 118 35z" />
    <glyph glyph-name="Rcommaaccent" unicode="&#x156;" horiz-adv-x="1153" 
d="M846 1077q0 268 -324 269h-178v-566h84q222 0 320 70t98 227zM754 -269q0 -97 -78 -149t-187 -57l-34 76q71 8 115 42q44 33 44 97t-106 141h164q82 -53 82 -150zM344 659v-659h-186v1479h397q241 0 359 -120t118 -286q0 -165 -98 -277t-277 -130l453 -666h-223l-426 659
h-117z" />
    <glyph glyph-name="rcommaaccent" unicode="&#x157;" horiz-adv-x="645" 
d="M471 -270q0 -96 -78 -148t-186 -57l-35 76q68 8 114 42q46 35 46 97t-109 141h164q84 -55 84 -151zM326 0h-181v989q147 80 396 80q13 0 37 -1t28 -1l-41 -135q-145 41 -239 -21v-911z" />
    <glyph glyph-name="Rcaron" unicode="&#x158;" horiz-adv-x="1153" 
d="M846 1077q0 268 -324 269h-178v-566h84q222 0 320 70t98 227zM344 659v-659h-186v1479h397q241 0 359 -120t118 -286q0 -165 -98 -277t-277 -130l453 -666h-223l-426 659h-117zM536 1585q-38 0 -69 31l-203 207l51 43l222 -164l221 164l51 -43l-203 -207q-32 -31 -70 -31
z" />
    <glyph glyph-name="rcaron" unicode="&#x159;" horiz-adv-x="645" 
d="M326 0h-181v989q147 80 396 80q13 0 37 -1t28 -1l-41 -135q-145 41 -239 -21v-911zM344 1167q-39 0 -70 31l-202 207l51 43l221 -164l221 164l51 -43l-202 -207q-31 -31 -70 -31z" />
    <glyph glyph-name="Sacute" unicode="&#x15a;" horiz-adv-x="989" 
d="M879 418q0 -193 -126 -316q-126 -122 -331 -122t-334 81v164q160 -100 300 -100t218 78q78 77 78 189t-62 176t-204 122q-315 125 -316 395q0 174 115 294t300 120t319 -74v-149q-2 2 -26 14l-40 20q-137 60 -241 60q-103 0 -172 -74t-69 -185t67 -171q67 -59 190 -106
q334 -131 334 -416zM638 1901q63 0 75 -37l-234 -279h-102l143 281q55 35 118 35z" />
    <glyph glyph-name="sacute" unicode="&#x15b;" horiz-adv-x="800" 
d="M702 276q0 -114 -100 -205t-252 -91t-254 73v131q35 -28 103 -52q69 -24 143 -24t129 53q55 52 55 126q0 73 -41 115t-131 77q-143 55 -195 130q-53 75 -53 183t88 193q88 84 224 84q137 0 252 -53v-125q-27 21 -97 39q-71 18 -141 18t-115 -46t-45 -117t42 -109t132 -74
q144 -57 200 -135q56 -77 56 -191zM544 1483q62 0 74 -37l-233 -279h-102l143 281q56 35 118 35z" />
    <glyph glyph-name="Scircumflex" unicode="&#x15c;" horiz-adv-x="989" 
d="M879 418q0 -193 -126 -316q-126 -122 -331 -122t-334 81v164q160 -100 300 -100t218 78q78 77 78 189t-62 176t-204 122q-315 125 -316 395q0 174 115 294t300 120t319 -74v-149q-2 2 -26 14l-40 20q-137 60 -241 60q-103 0 -172 -74t-69 -185t67 -171q67 -59 190 -106
q334 -131 334 -416zM516 1864q39 0 70 -31l200 -205l-51 -45l-219 162l-219 -162l-51 45l200 205q31 31 70 31z" />
    <glyph glyph-name="scircumflex" unicode="&#x15d;" horiz-adv-x="800" 
d="M702 276q0 -114 -100 -205t-252 -91t-254 73v131q35 -28 103 -52q69 -24 143 -24t129 53q55 52 55 126q0 73 -41 115t-131 77q-143 55 -195 130q-53 75 -53 183t88 193q88 84 224 84q137 0 252 -53v-125q-27 21 -97 39q-71 18 -141 18t-115 -46t-45 -117t42 -109t132 -74
q144 -57 200 -135q56 -77 56 -191zM426 1446q39 0 70 -31l200 -205l-51 -45l-219 162l-219 -162l-51 45l200 205q31 31 70 31z" />
    <glyph glyph-name="Scedilla" unicode="&#x15e;" horiz-adv-x="989" 
d="M694 -254q0 -92 -138 -130t-386 -17l41 69q143 -12 245 7t103 69q0 84 -260 66l41 63q354 33 354 -127zM879 418q0 -193 -126 -316q-126 -122 -331 -122t-334 81v164q160 -100 300 -100t218 78q78 77 78 189t-62 176t-204 122q-315 125 -316 395q0 174 115 294t300 120
t319 -74v-149q-2 2 -26 14l-40 20q-137 60 -241 60q-103 0 -172 -74t-69 -185t67 -171q67 -59 190 -106q334 -131 334 -416z" />
    <glyph glyph-name="scedilla" unicode="&#x15f;" horiz-adv-x="800" 
d="M621 -254q-1 -92 -139 -130t-386 -17l41 69q143 -12 245 7t103 69q0 84 -260 66l41 63q355 33 355 -127zM702 276q0 -114 -100 -205t-252 -91t-254 73v131q35 -28 103 -52q69 -24 143 -24t129 53q55 52 55 126q0 73 -41 115t-131 77q-143 55 -195 130q-53 75 -53 183
t88 193q88 84 224 84q137 0 252 -53v-125q-27 21 -97 39q-71 18 -141 18t-115 -46t-45 -117t42 -109t132 -74q144 -57 200 -135q56 -77 56 -191z" />
    <glyph glyph-name="Scaron" unicode="&#x160;" horiz-adv-x="989" 
d="M879 418q0 -193 -126 -316q-126 -122 -331 -122t-334 81v164q160 -100 300 -100t218 78q78 77 78 189t-62 176t-204 122q-315 125 -316 395q0 174 115 294t300 120t319 -74v-149q-2 2 -26 14l-40 20q-137 60 -241 60q-103 0 -172 -74t-69 -185t67 -171q67 -59 190 -106
q334 -131 334 -416zM494 1585q-40 0 -68 31l-203 205l51 43l222 -162l221 162l51 -43l-203 -205q-31 -31 -71 -31z" />
    <glyph glyph-name="scaron" unicode="&#x161;" horiz-adv-x="800" 
d="M702 276q0 -114 -100 -205t-252 -91t-254 73v131q35 -28 103 -52q69 -24 143 -24t129 53q55 52 55 126q0 73 -41 115t-131 77q-143 55 -195 130q-53 75 -53 183t88 193q88 84 224 84q137 0 252 -53v-125q-27 21 -97 39q-71 18 -141 18t-115 -46t-45 -117t42 -109t132 -74
q144 -57 200 -135q56 -77 56 -191zM397 1169q-39 0 -69 31l-203 207l51 43l221 -164l221 164l52 -43l-203 -207q-31 -31 -70 -31z" />
    <glyph glyph-name="Tcedilla" unicode="&#x162;" horiz-adv-x="872" 
d="M600 -269q0 -97 -78 -149t-186 -57l-35 76q70 8 115 42q45 33 45 97t-107 141h164q82 -53 82 -150zM829 1346h-299v-1346h-188v1346h-299v133h786v-133z" />
    <glyph glyph-name="tcedilla" unicode="&#x163;" horiz-adv-x="612" 
d="M537 -269q0 -97 -78 -149t-187 -57l-34 76q70 8 114 42q44 33 45 97q0 64 -106 141h164q82 -53 82 -150zM444 -20q-133 0 -196 78t-64 188v688h-127v113h127v253l176 56v-309h193v-113h-193v-678q0 -68 33 -111t101 -43q27 0 63 9v-115q-55 -16 -113 -16z" />
    <glyph glyph-name="Tcaron" unicode="&#x164;" horiz-adv-x="872" 
d="M829 1346h-299v-1346h-188v1346h-299v133h786v-133zM438 1585q-39 0 -69 31l-203 207l51 43l221 -164l221 164l52 -43l-203 -207q-31 -31 -70 -31z" />
    <glyph glyph-name="tcaron" unicode="&#x165;" horiz-adv-x="612" 
d="M444 -20q-133 0 -196 78t-64 188v688h-127v113h127v253l176 56v-309h193v-113h-193v-678q0 -68 33 -111t101 -43q27 0 63 9v-115q-55 -16 -113 -16zM733 1351q0 -120 -106 -214h-127q94 129 94 218t-90 161h155q74 -45 74 -165z" />
    <glyph glyph-name="Tbar" unicode="&#x166;" horiz-adv-x="872" 
d="M829 1346h-299v-555h189v-132h-189v-659h-188v659h-195v132h195v555h-299v133h786v-133z" />
    <glyph glyph-name="tbar" unicode="&#x167;" horiz-adv-x="612" 
d="M444 -20q-133 0 -196 78t-64 188v319h-106v113h106v256h-127v113h127v253l176 56v-309h193v-113h-193v-256h172v-113h-172v-309q0 -68 33 -111t101 -43q27 0 63 9v-115q-55 -16 -113 -16z" />
    <glyph glyph-name="Utilde" unicode="&#x168;" horiz-adv-x="1239" 
d="M1081 424q0 -193 -127 -319q-127 -125 -336 -125q-208 0 -334 126t-126 318v1055h188v-1055q0 -137 83 -219t200 -82t199 82t81 219v1055h172v-1055zM750 1614q-60 0 -136 40t-128 40t-98 -39t-58 -74v125q18 30 59 60t99 30t134 -40t128 -40q54 0 99 38q44 38 58 75
v-125q-55 -90 -157 -90z" />
    <glyph glyph-name="utilde" unicode="&#x169;" horiz-adv-x="1050" 
d="M543 -20q-209 0 -303 89t-95 253v725h181v-725q0 -96 53 -156t165 -60t181 41v900h180v-979q-152 -88 -362 -88zM655 1196q-59 0 -135 40t-128 40t-98 -39t-58 -74v125q18 31 59 61q41 29 99 29t133 -40t129 -40t99 38q44 38 58 75v-125q-55 -90 -158 -90z" />
    <glyph glyph-name="Umacron" unicode="&#x16a;" horiz-adv-x="1239" 
d="M1081 424q0 -193 -127 -319q-127 -125 -336 -125q-208 0 -334 126t-126 318v1055h188v-1055q0 -137 83 -219t200 -82t199 82t81 219v1055h172v-1055zM909 1649h-581v104h581v-104z" />
    <glyph glyph-name="umacron" unicode="&#x16b;" horiz-adv-x="1050" 
d="M543 -20q-209 0 -303 89t-95 253v725h181v-725q0 -96 53 -156t165 -60t181 41v900h180v-979q-152 -88 -362 -88zM815 1231h-582v104h582v-104z" />
    <glyph glyph-name="Ubreve" unicode="&#x16c;" horiz-adv-x="1239" 
d="M1081 424q0 -193 -127 -319q-127 -125 -336 -125q-208 0 -334 126t-126 318v1055h188v-1055q0 -137 83 -219t200 -82t199 82t81 219v1055h172v-1055zM618 1585q-132 0 -198 78t-66 166l64 22q36 -161 198 -161t205 161l62 -22q0 -88 -67 -166t-198 -78z" />
    <glyph glyph-name="ubreve" unicode="&#x16d;" horiz-adv-x="1050" 
d="M543 -20q-209 0 -303 89t-95 253v725h181v-725q0 -96 53 -156t165 -60t181 41v900h180v-979q-152 -88 -362 -88zM524 1167q-132 0 -198 78t-66 166l64 23q36 -162 198 -162t205 162l61 -23q0 -88 -66 -166t-198 -78z" />
    <glyph glyph-name="Uring" unicode="&#x16e;" horiz-adv-x="1239" 
d="M713 1747q0 41 -28 69t-68 28q-39 0 -67 -30q-28 -28 -28 -67t28 -68t68 -29t67 28q28 28 28 69zM1081 424q0 -193 -127 -319q-127 -125 -336 -125q-208 0 -334 126t-126 318v1055h188v-1055q0 -137 83 -219t200 -82t199 82t81 219v1055h172v-1055zM782 1746
q0 -69 -48 -117t-117 -48t-117 48t-47 117q0 69 48 117q49 48 117 48t116 -48t48 -117z" />
    <glyph glyph-name="uring" unicode="&#x16f;" horiz-adv-x="1050" 
d="M618 1329q0 41 -27 69q-28 28 -68 28q-39 0 -67 -30q-28 -28 -28 -67t28 -67t68 -29t66 27q28 28 28 69zM543 -20q-209 0 -303 89t-95 253v725h181v-725q0 -96 53 -156t165 -60t181 41v900h180v-979q-152 -88 -362 -88zM688 1328q0 -69 -48 -117t-117 -48t-117 48
t-48 117t48 117t118 48q68 0 116 -48t48 -117z" />
    <glyph glyph-name="Uhungarumlaut" unicode="&#x170;" horiz-adv-x="1239" 
d="M1081 424q0 -193 -127 -319q-127 -125 -336 -125q-208 0 -334 126t-126 318v1055h188v-1055q0 -137 83 -219t200 -82t199 82t81 219v1055h172v-1055zM662 1878q56 0 57 -33l-248 -262h-82l174 260q43 35 99 35zM930 1878q56 0 57 -33l-248 -262h-82l174 260q43 35 99 35z
" />
    <glyph glyph-name="uhungarumlaut" unicode="&#x171;" horiz-adv-x="1050" 
d="M543 -20q-209 0 -303 89t-95 253v725h181v-725q0 -96 53 -156t165 -60t181 41v900h180v-979q-152 -88 -362 -88zM568 1460q56 0 57 -33l-248 -262h-82l174 260q43 35 99 35zM836 1460q56 0 57 -33l-248 -262h-82l174 260q43 35 99 35z" />
    <glyph glyph-name="Uogonek" unicode="&#x172;" horiz-adv-x="1239" 
d="M1081 424q0 -219 -157 -346q-96 -76 -134 -109q-100 -87 -100 -155t67 -81t173 25l18 -67q-94 -41 -184 -47t-150 27q-59 34 -59 104q0 121 147 211q-23 -6 -84 -6q-208 0 -334 126t-126 318v1055h188v-1055q0 -137 83 -219t200 -82t199 82t81 219v1055h172v-1055z" />
    <glyph glyph-name="uogonek" unicode="&#x173;" horiz-adv-x="1050" 
d="M514 -225q0 109 141 213q-74 -8 -129 -8q-192 0 -286 89t-95 253v725h181v-725q0 -96 53 -156t165 -60t181 41v900h180v-979q-256 -119 -256 -261q0 -61 67 -74t173 25l18 -67q-94 -41 -184 -47t-150 27q-59 34 -59 104z" />
    <glyph glyph-name="Wcircumflex" unicode="&#x174;" horiz-adv-x="1673" 
d="M1620 1479l-338 -1479h-166l-246 1053l-32 157q-8 -72 -29 -157l-248 -1053h-166l-338 1479h195l211 -1088l26 -162q14 80 33 162l252 1088h144l249 -1088l31 -162q10 86 27 162l221 1088h174zM836 1864q39 0 69 -31l201 -205l-51 -45l-219 162l-220 -162l-51 45l201 205
q31 31 70 31z" />
    <glyph glyph-name="wcircumflex" unicode="&#x175;" horiz-adv-x="1579" 
d="M1497 1047l-307 -1047h-156l-215 731q-16 61 -24 127q-6 -59 -27 -127l-219 -731h-156l-305 1047h188l185 -728l24 -131q6 55 29 131l211 728h156l206 -728l27 -131q8 68 25 134l190 725h168zM791 1446q39 0 69 -31l201 -205l-51 -45l-219 162l-220 -162l-51 45l201 205
q31 31 70 31z" />
    <glyph glyph-name="Ycircumflex" unicode="&#x176;" horiz-adv-x="1024" 
d="M606 0h-188v659l-400 820h203l297 -672h4l307 672h181l-404 -820v-659zM512 1864q39 0 70 -31l200 -205l-51 -45l-219 162l-219 -162l-51 45l200 205q31 31 70 31z" />
    <glyph glyph-name="ycircumflex" unicode="&#x177;" horiz-adv-x="999" 
d="M930 1047l-492 -1487h-194l184 440l-352 1047h192l211 -736q18 -59 27 -141h4q6 66 29 141l223 736h168zM500 1446q39 0 69 -31l201 -205l-51 -45l-219 162l-219 -162l-52 45l201 205q31 31 70 31z" />
    <glyph glyph-name="Ydieresis" unicode="&#x178;" horiz-adv-x="1024" 
d="M606 0h-188v659l-400 820h203l297 -672h4l307 672h181l-404 -820v-659zM444 1708q0 -36 -28 -62t-65 -26t-65 26t-28 62t28 62t66 26t64 -26q28 -26 28 -62zM782 1708q0 -36 -28 -62t-66 -26q-40 0 -66 26t-26 62t27 62t65 26t66 -26t28 -62z" />
    <glyph glyph-name="Zacute" unicode="&#x179;" horiz-adv-x="915" 
d="M848 0h-799l543 1346h-510v133h752l-539 -1346h553v-133zM601 1901q63 0 75 -37l-234 -279h-102l143 281q55 35 118 35z" />
    <glyph glyph-name="zacute" unicode="&#x17a;" horiz-adv-x="825" 
d="M743 0h-682l439 934h-404v113h633l-430 -934h444v-113zM568 1483q62 0 75 -37l-233 -279h-103l144 281q55 35 117 35z" />
    <glyph glyph-name="Zdot" unicode="&#x17b;" horiz-adv-x="915" 
d="M848 0h-799l543 1346h-510v133h752l-539 -1346h553v-133zM557 1776q0 -41 -29 -71q-30 -30 -70 -30t-69 30t-29 71q0 42 29 70t70 28t69 -28t29 -70z" />
    <glyph glyph-name="zdot" unicode="&#x17c;" horiz-adv-x="825" 
d="M743 0h-682l439 934h-404v113h633l-430 -934h444v-113zM524 1358q0 -41 -28 -71t-70 -30q-41 0 -70 30t-28 71q0 42 28 70t70 28t70 -28t28 -70z" />
    <glyph glyph-name="Zcaron" unicode="&#x17d;" horiz-adv-x="915" 
d="M848 0h-799l543 1346h-510v133h752l-539 -1346h553v-133zM452 1585q-38 0 -69 31l-203 205l51 43l224 -162l219 162l51 -43l-203 -205q-32 -31 -70 -31z" />
    <glyph glyph-name="zcaron" unicode="&#x17e;" horiz-adv-x="825" 
d="M743 0h-682l439 934h-404v113h633l-430 -934h444v-113zM408 1167q-38 0 -70 31l-203 207l51 43l224 -164l219 164l51 -43l-203 -207q-31 -31 -69 -31z" />
    <glyph glyph-name="longs" unicode="&#x17f;" horiz-adv-x="552" 
d="M365 0h-181v934h-127v113h127v131q0 166 98 261t275 87v-115q-193 -10 -192 -213v-1198z" />
    <glyph glyph-name="florin" unicode="&#x192;" horiz-adv-x="1153" 
d="M952 1374q-86 0 -138 -71q-43 -62 -79 -240l-37 -180h228v-109h-250l-144 -762q-86 -457 -378 -456q-70 0 -131 24l22 127q43 -16 82 -16q96 0 148 86t87 278l136 719h-224v109h246l37 188q38 199 106 304q80 124 255 124q89 1 155 -26l-24 -115q-49 16 -97 16z" />
    <glyph glyph-name="gacute" unicode="&#x1f5;" horiz-adv-x="1032" 
d="M731 719q0 113 -55 179t-170 65q-115 0 -170 -66q-55 -67 -55 -179t55 -178t170 -65q115 -1 170 65t55 179zM979 950h-158q80 -68 80 -226t-95 -257q-95 -98 -298 -98l-84 4q-80 -51 -80 -127q0 -37 39 -45q10 -2 16 -4t64 -2h162q161 0 249 -83t89 -206
q0 -158 -115 -252q-114 -94 -316 -94t-321 78t-119 200q0 57 23 117h170q-23 -37 -23 -115t80 -126t199 -48t185 62t67 154q-1 91 -49 129t-148 38h-156q-190 0 -236 70q-24 35 -24 90q0 90 125 194q-193 84 -192 316q0 158 98 254t295 96q96 0 168 -22h305v-97zM670 1483
q62 0 75 -37l-233 -279h-102l143 281q55 35 117 35z" />
    <glyph glyph-name="Aringacute" unicode="&#x1fa;" horiz-adv-x="1198" 
d="M801 604l-164 535q-34 104 -41 170h-4q-8 -59 -43 -170l-168 -535h420zM698 1675q0 41 -27 69q-28 28 -69 28q-40 0 -68 -28t-28 -69t28 -69t68 -27q40 -1 68 27t28 69zM1184 0h-195l-155 485h-488l-158 -485h-172l500 1479h168zM768 1676q0 -68 -48 -116t-117 -48
t-117 48t-48 116t48 117q48 48 117 48t117 -48t48 -117zM793 2087l-172 -219h-117l135 219h154z" />
    <glyph glyph-name="aringacute" unicode="&#x1fb;" horiz-adv-x="989" 
d="M262 293q0 -209 240 -209q115 0 172 35v456q-212 -27 -312 -86t-100 -196zM596 1276q0 40 -28 68t-68 28t-69 -29q-28 -29 -28 -67t28 -68q28 -28 69 -28q40 0 68 28t28 68zM90 289q0 200 172 290q143 75 412 103v59q0 209 -232 209q-121 0 -252 -65v127q129 57 287 57
t262 -81t105 -259v-674q-136 -75 -346 -75t-309 80t-99 229zM501 1440q69 0 117 -48t48 -117t-48 -117t-118 -48q-68 0 -116 48t-48 117t48 117t117 48zM709 1714l-187 -235h-100l135 235h152z" />
    <glyph glyph-name="AEacute" unicode="&#x1fc;" horiz-adv-x="1568" 
d="M842 606l-133 584l-21 131h-4q-12 -61 -41 -133l-229 -582h428zM1513 0h-538l-113 487h-495l-193 -487h-174l614 1479h746v-133h-537l131 -517h416v-131h-385l143 -565h385v-133zM1111 1901q63 0 75 -37l-234 -279h-102l143 281q55 35 118 35z" />
    <glyph glyph-name="aeacute" unicode="&#x1fd;" horiz-adv-x="1574" 
d="M676 281v294q-218 -29 -316 -87t-98 -201q0 -203 211 -203q87 0 145 54t58 143zM1074 952q-102 0 -181 -97q-78 -97 -80 -253h490q-3 168 -65 259t-164 91zM817 487q0 -153 82 -265t241 -112t273 66v-121q-115 -76 -297 -75q-219 0 -344 192q-84 -193 -301 -192
q-190 0 -286 80q-95 81 -95 229q0 184 150 275t436 118v59q0 209 -238 209q-125 0 -252 -67v127q41 23 129 41q87 18 152 18q233 0 301 -188q27 68 112 128t195 60q188 0 294 -151q105 -152 99 -431h-651zM929 1483q63 0 75 -37l-234 -279h-102l143 281q55 35 118 35z" />
    <glyph glyph-name="Oslashacute" unicode="&#x1fe;" horiz-adv-x="1288" 
d="M987 739q0 238 -55 394l-547 -857q88 -158 260 -157q342 -1 342 620zM301 739q0 -231 49 -379l543 852q-88 147 -248 148q-98 0 -169 -53q-175 -131 -175 -568zM645 -20q-225 0 -356 147l-111 -176l-63 41l125 196q-129 199 -129 545t131 556t403 210q211 0 344 -137
l113 178l63 -41l-127 -199q140 -201 140 -546t-122 -552q-62 -106 -166 -164t-245 -58zM806 1901q63 0 75 -37l-234 -279h-102l143 281q55 35 118 35z" />
    <glyph glyph-name="oslashacute" unicode="&#x1ff;" horiz-adv-x="1032" 
d="M750 524q0 176 -37 279l-359 -621q55 -86 162 -86q234 0 234 428zM516 952q-233 0 -233 -428q0 -174 36 -274l359 618q-57 84 -162 84zM930 544q0 -266 -102 -416t-312 -148q-141 0 -237 73l-86 -149l-54 33l92 159q-129 146 -129 410t104 414t310 149q137 0 236 -72
l86 148l53 -33l-92 -158q131 -144 131 -410zM679 1483q63 0 75 -37l-234 -279h-102l143 281q55 35 118 35z" />
    <glyph glyph-name="Scommaaccent" unicode="&#x218;" horiz-adv-x="989" 
d="M614 -269q0 -97 -77 -149q-78 -51 -187 -57l-35 76q70 8 115 42q45 33 45 97t-106 141h163q82 -53 82 -150zM879 418q0 -193 -126 -316q-126 -122 -331 -122t-334 81v164q160 -100 300 -100t218 78q78 77 78 189t-62 176t-204 122q-315 125 -316 395q0 174 115 294
t300 120t319 -74v-149q-2 2 -26 14l-40 20q-137 60 -241 60q-103 0 -172 -74t-69 -185t67 -171q67 -59 190 -106q334 -131 334 -416z" />
    <glyph glyph-name="scommaaccent" unicode="&#x219;" horiz-adv-x="800" 
d="M545 -269q0 -97 -78 -149t-186 -57l-35 76q68 8 114 42q46 33 46 97t-107 141h164q82 -53 82 -150zM702 276q0 -114 -100 -205t-252 -91t-254 73v131q35 -28 103 -52q69 -24 143 -24t129 53q55 52 55 126q0 73 -41 115t-131 77q-143 55 -195 130q-53 75 -53 183t88 193
q88 84 224 84q137 0 252 -53v-125q-27 21 -97 39q-71 18 -141 18t-115 -46t-45 -117t42 -109t132 -74q144 -57 200 -135q56 -77 56 -191z" />
    <glyph glyph-name="uni021A" unicode="&#x21a;" horiz-adv-x="872" 
d="M600 -269q0 -97 -78 -149t-186 -57l-35 76q70 8 115 42q45 33 45 97t-107 141h164q82 -53 82 -150zM829 1346h-299v-1346h-188v1346h-299v133h786v-133z" />
    <glyph glyph-name="uni021B" unicode="&#x21b;" horiz-adv-x="612" 
d="M537 -269q0 -97 -78 -149t-187 -57l-34 76q70 8 114 42q44 33 45 97q0 64 -106 141h164q82 -53 82 -150zM444 -20q-133 0 -196 78t-64 188v688h-127v113h127v253l176 56v-309h193v-113h-193v-678q0 -68 33 -111t101 -43q27 0 63 9v-115q-55 -16 -113 -16z" />
    <glyph glyph-name="circumflex" unicode="&#x2c6;" 
d="M201 1446q39 0 69 -31l201 -205l-51 -45l-219 162l-219 -162l-52 45l201 205q31 31 70 31z" />
    <glyph glyph-name="caron" unicode="&#x2c7;" 
d="M200 1167q-38 0 -69 31l-203 207l52 43l221 -164l221 164l51 -43l-203 -207q-32 -31 -70 -31z" />
    <glyph glyph-name="breve" unicode="&#x2d8;" 
d="M200 1167q-130 0 -197 78t-66 166l63 23q35 -162 198 -162t205 162l62 -23q0 -88 -67 -166q-68 -78 -198 -78z" />
    <glyph glyph-name="dotaccent" unicode="&#x2d9;" 
d="M299 1358q0 -41 -29 -71q-30 -30 -70 -30t-69 30t-29 71q0 42 29 70t70 28t69 -28t29 -70z" />
    <glyph glyph-name="ring" unicode="&#x2da;" 
d="M295 1329q0 41 -28 69q-27 28 -67 28t-68 -30q-28 -28 -28 -67t28 -67t68 -29t68 27t27 69zM200 1493q69 0 117 -48t48 -117q-1 -69 -49 -117t-116 -48t-117 48q-48 48 -48 117t48 117t117 48z" />
    <glyph glyph-name="ogonek" unicode="&#x2db;" 
d="M240 -200q0 -54 66 -67t173 25l19 -67q-94 -41 -184 -47t-150 28q-59 34 -60 103q0 129 220 235h127q-123 -66 -167 -110q-44 -46 -44 -100z" />
    <glyph glyph-name="tilde" unicode="&#x2dc;" 
d="M332 1196q-59 0 -135 40t-128 40q-53 0 -99 -39t-58 -74v125q18 31 59 61q41 29 99 29t134 -40q75 -40 129 -40t98 38t58 75v-125q-55 -90 -157 -90z" />
    <glyph glyph-name="hungarumlaut" unicode="&#x2dd;" 
d="M204 1460q56 0 56 -33l-248 -262h-82l174 260q44 35 100 35zM472 1460q56 0 56 -33l-247 -262h-82l174 260q43 35 99 35z" />
    <glyph glyph-name="gravecmb" unicode="&#x300;" 
d="M58 1901q62 0 118 -35l143 -281h-102l-233 279q12 37 74 37z" />
    <glyph glyph-name="acutecmb" unicode="&#x301;" 
d="M343 1901q63 0 75 -37l-234 -279h-102l143 281q55 35 118 35z" />
    <glyph glyph-name="circumflexcmb" unicode="&#x302;" 
d="M201 1864q39 0 69 -31l201 -205l-51 -45l-219 162l-219 -162l-52 45l201 205q31 31 70 31z" />
    <glyph glyph-name="tildecmb" unicode="&#x303;" 
d="M332 1614q-59 0 -135 40t-128 40q-53 0 -99 -39t-58 -74v125q18 30 59 60t99 30t134 -40q75 -40 129 -40t98 38t58 75v-125q-55 -90 -157 -90z" />
    <glyph glyph-name="macroncmb" unicode="&#x304;" 
d="M492 1649h-582v104h582v-104z" />
    <glyph glyph-name="brevecmb" unicode="&#x306;" 
d="M200 1585q-130 0 -197 78t-66 166l63 22q35 -161 198 -161t205 161l62 -22q0 -88 -67 -166q-68 -78 -198 -78z" />
    <glyph glyph-name="dotaccentcmb" unicode="&#x307;" 
d="M299 1776q0 -41 -29 -71q-30 -30 -70 -30t-69 30t-29 71q0 42 29 70t70 28t69 -28t29 -70z" />
    <glyph glyph-name="dieresiscmb" unicode="&#x308;" 
d="M125 1710q0 -38 -28 -62q-29 -24 -67 -24t-65 26t-27 62t27 61t66 25t67 -26t27 -62zM461 1710q0 -38 -27 -62q-28 -24 -66 -24t-65 26t-27 62t27 61t66 25t65 -26t27 -62z" />
    <glyph glyph-name="ringcmb" unicode="&#x309;" 
d="M295 1747q0 41 -28 69q-27 28 -67 28t-68 -30q-28 -28 -28 -67t28 -68t68 -29t68 28t27 69zM200 1911q69 0 117 -48t48 -117q-1 -69 -49 -117t-116 -48t-117 48q-48 48 -48 117t48 117t117 48z" />
    <glyph glyph-name="hungarumlautcmb" unicode="&#x30b;" 
d="M204 1878q56 0 56 -33l-248 -262h-82l174 260q44 35 100 35zM472 1878q56 0 56 -33l-247 -262h-82l174 260q43 35 99 35z" />
    <glyph glyph-name="caroncmb" unicode="&#x30c;" 
d="M200 1585q-38 0 -69 31l-203 207l52 43l221 -164l221 164l51 -43l-203 -207q-32 -31 -70 -31z" />
    <glyph glyph-name="cedillacmb" unicode="&#x327;" 
d="M463 -254q0 -92 -138 -130t-386 -17l41 69q143 -12 245 7t103 69q0 84 -260 66l41 63q354 33 354 -127z" />
    <glyph glyph-name="ogonekcmb" unicode="&#x328;" 
d="M240 -200q0 -54 66 -67t173 25l19 -67q-94 -41 -184 -47t-150 28q-59 34 -60 103q0 129 220 235h127q-123 -66 -167 -110q-44 -46 -44 -100z" />
    <glyph glyph-name="soliduslongoverlaycmb" unicode="&#x338;" horiz-adv-x="565" 
 />
    <glyph glyph-name="Delta" unicode="&#x394;" horiz-adv-x="1177" 
d="M924 133l-295 1006l-41 153h-4q-25 -88 -45 -153l-301 -1006h686zM1149 0h-1120l477 1479h170z" />
    <glyph glyph-name="Delta" unicode="&#x2206;" horiz-adv-x="1177" 
d="M924 133l-295 1006l-41 153h-4q-25 -88 -45 -153l-301 -1006h686zM1149 0h-1120l477 1479h170z" />
    <glyph glyph-name="Omega" unicode="&#x3a9;" horiz-adv-x="1333" 
d="M1237 0h-496q127 137 199 347t72 442t-74 392q-39 83 -109 131q-69 48 -163 48t-164 -48q-180 -123 -183 -528q0 -227 72 -436t199 -348h-496v127h273q-98 119 -168 303t-70 358q0 307 140 509q139 202 397 202t398 -202t140 -509q0 -170 -70 -355t-165 -306h268v-127z
" />
    <glyph glyph-name="Omega" unicode="&#x2126;" horiz-adv-x="1333" 
d="M1237 0h-496q127 137 199 347t72 442t-74 392q-39 83 -109 131q-69 48 -163 48t-164 -48q-180 -123 -183 -528q0 -227 72 -436t199 -348h-496v127h273q-98 119 -168 303t-70 358q0 307 140 509q139 202 397 202t398 -202t140 -509q0 -170 -70 -355t-165 -306h268v-127z
" />
    <glyph glyph-name="pi" unicode="&#x3c0;" horiz-adv-x="1277" 
d="M838 305v625h-400v-930h-180v930h-147v117h1052v-117h-145v-621q0 -148 64 -176q32 -14 81 -14v-119q-93 -8 -157 11t-96 48q-72 65 -72 246z" />
    <glyph glyph-name="Wgrave" unicode="&#x1e80;" horiz-adv-x="1673" 
d="M1620 1479l-338 -1479h-166l-246 1053l-32 157q-8 -72 -29 -157l-248 -1053h-166l-338 1479h195l211 -1088l26 -162q14 80 33 162l252 1088h144l249 -1088l31 -162q10 86 27 162l221 1088h174zM692 1901q62 0 119 -35l143 -281h-102l-234 279q12 37 74 37z" />
    <glyph glyph-name="wgrave" unicode="&#x1e81;" horiz-adv-x="1579" 
d="M1497 1047l-307 -1047h-156l-215 731q-16 61 -24 127q-6 -59 -27 -127l-219 -731h-156l-305 1047h188l185 -728l24 -131q6 55 29 131l211 728h156l206 -728l27 -131q8 68 25 134l190 725h168zM646 1483q62 0 118 -35l143 -281h-102l-234 279q13 37 75 37z" />
    <glyph glyph-name="Wacute" unicode="&#x1e82;" horiz-adv-x="1673" 
d="M1620 1479l-338 -1479h-166l-246 1053l-32 157q-8 -72 -29 -157l-248 -1053h-166l-338 1479h195l211 -1088l26 -162q14 80 33 162l252 1088h144l249 -1088l31 -162q10 86 27 162l221 1088h174zM978 1901q63 0 75 -37l-234 -279h-102l143 281q55 35 118 35z" />
    <glyph glyph-name="wacute" unicode="&#x1e83;" horiz-adv-x="1579" 
d="M1497 1047l-307 -1047h-156l-215 731q-16 61 -24 127q-6 -59 -27 -127l-219 -731h-156l-305 1047h188l185 -728l24 -131q6 55 29 131l211 728h156l206 -728l27 -131q8 68 25 134l190 725h168zM931 1483q63 0 75 -37l-234 -279h-102l143 281q55 35 118 35z" />
    <glyph glyph-name="Wdieresis" unicode="&#x1e84;" horiz-adv-x="1673" 
d="M1620 1479l-338 -1479h-166l-246 1053l-32 157q-8 -72 -29 -157l-248 -1053h-166l-338 1479h195l211 -1088l26 -162q14 80 33 162l252 1088h144l249 -1088l31 -162q10 86 27 162l221 1088h174zM760 1710q0 -38 -28 -62t-66 -24t-66 26q-27 26 -27 62t27 61t66 25
q38 0 66 -26t28 -62zM1096 1710q0 -38 -27 -62t-65 -24t-66 26q-27 26 -27 62t27 61t66 25q40 0 66 -26t26 -62z" />
    <glyph glyph-name="wdieresis" unicode="&#x1e85;" horiz-adv-x="1579" 
d="M1497 1047l-307 -1047h-156l-215 731q-16 61 -24 127q-6 -59 -27 -127l-219 -731h-156l-305 1047h188l185 -728l24 -131q6 55 29 131l211 728h156l206 -728l27 -131q8 68 25 134l190 725h168zM713 1292q0 -38 -28 -62t-67 -24q-40 0 -66 26t-26 62t27 61t65 25t67 -26
q28 -26 28 -62zM1049 1292q0 -38 -27 -62t-66 -24q-40 0 -66 26t-26 62t27 61t65 25t66 -26q27 -26 27 -62z" />
    <glyph glyph-name="Ygrave" unicode="&#x1ef2;" horiz-adv-x="1024" 
d="M606 0h-188v659l-400 820h203l297 -672h4l307 672h181l-404 -820v-659zM370 1901q62 0 117 -35l144 -281h-103l-233 279q13 37 75 37z" />
    <glyph glyph-name="ygrave" unicode="&#x1ef3;" horiz-adv-x="999" 
d="M930 1047l-492 -1487h-194l184 440l-352 1047h192l211 -736q18 -59 27 -141h4q6 66 29 141l223 736h168zM357 1483q62 0 118 -35l143 -281h-102l-233 279q12 37 74 37z" />
    <glyph glyph-name="endash" unicode="&#x2013;" horiz-adv-x="819" 
d="M819 567h-819v125h819v-125z" />
    <glyph glyph-name="emdash" unicode="&#x2014;" horiz-adv-x="1638" 
d="M1638 575h-1638v107h1638v-107z" />
    <glyph glyph-name="quoteleft" unicode="&#x2018;" horiz-adv-x="540" 
d="M192 1051q-64 0 -79 51l252 506h94l-164 -506q-39 -51 -103 -51z" />
    <glyph glyph-name="quoteright" unicode="&#x2019;" horiz-adv-x="540" 
d="M350 1622q66 0 78 -51l-252 -506h-94l164 506q38 51 104 51z" />
    <glyph glyph-name="quotesinglbase" unicode="&#x201a;" horiz-adv-x="540" 
d="M350 213q64 0 78 -51l-252 -506h-94l164 506q40 51 104 51z" />
    <glyph glyph-name="quotedblleft" unicode="&#x201c;" horiz-adv-x="899" 
d="M192 1051q-64 0 -79 51l252 506h94l-164 -506q-39 -51 -103 -51zM548 1051q-66 0 -77 51l252 506h94l-164 -506q-39 -51 -105 -51z" />
    <glyph glyph-name="quotedblright" unicode="&#x201d;" horiz-adv-x="899" 
d="M350 1622q66 0 78 -51l-252 -506h-94l164 506q38 51 104 51zM708 1622q66 0 78 -51l-254 -506h-92l164 506q38 51 104 51z" />
    <glyph glyph-name="quotedblbase" unicode="&#x201e;" horiz-adv-x="899" 
d="M350 213q64 0 78 -51l-252 -506h-94l164 506q40 51 104 51zM708 213q64 0 78 -51l-254 -506h-92l164 506q40 51 104 51z" />
    <glyph glyph-name="dagger" unicode="&#x2020;" horiz-adv-x="1132" 
d="M1030 936l-391 16l18 -1392h-184l19 1392l-390 -16v176l390 -16l-21 512h186l-18 -512l391 16v-176z" />
    <glyph glyph-name="daggerdbl" unicode="&#x2021;" horiz-adv-x="1132" 
d="M1030 111l-393 12l18 -563h-178l17 563l-392 -12v155l392 -14l-5 352l5 367l-392 -15v156l392 -14l-17 510h178l-18 -510l393 14v-156l-391 15l4 -365l-4 -354l391 14v-155z" />
    <glyph glyph-name="bullet" unicode="&#x2022;" horiz-adv-x="663" 
d="M524 754q0 -80 -56 -136t-136 -57q-80 0 -136 56q-56 57 -56 137t56 136t136 56t136 -56t56 -136z" />
    <glyph glyph-name="ellipsis" unicode="&#x2026;" horiz-adv-x="1714" 
d="M403 96q-1 -49 -35 -83q-34 -33 -83 -33t-83 34t-34 82q0 49 34 83t83 34t83 -34t35 -83zM975 96q0 -49 -35 -83q-35 -33 -84 -33t-83 34t-34 82q0 49 34 83t83 34t84 -34t35 -83zM1546 96q0 -49 -35 -83q-35 -33 -84 -33t-83 34t-33 82q0 49 34 83q35 34 83 34t83 -34
t35 -83z" />
    <glyph glyph-name="perthousand" unicode="&#x2030;" horiz-adv-x="2424" 
d="M418 629q151 0 153 395q1 395 -153 395t-154 -399q0 -282 71 -355q34 -36 83 -36zM1308 860q-156 0 -155 -394q3 -394 155 -394t154 394t-154 394zM2006 860q-157 0 -155 -395t155 -395t155 395t-155 395zM692 1018q0 -481 -275 -481t-276 481t275 481t276 -481z
M1260 1464l-703 -1495l-94 43l702 1493zM1032 458q0 482 276 482t275 -481q0 -481 -276 -482q-275 -1 -275 481zM1731 458q1 482 277 482t276 -479q0 -189 -52 -323q-62 -161 -225 -161q-276 -1 -276 481z" />
    <glyph glyph-name="guilsinglleft" unicode="&#x2039;" horiz-adv-x="675" 
d="M528 244l-96 -64l-309 447l309 446l96 -63l-262 -383z" />
    <glyph glyph-name="guilsinglright" unicode="&#x203a;" horiz-adv-x="675" 
d="M553 627l-309 -447l-97 64l261 383l-261 383l97 63z" />
    <glyph glyph-name="fraction" unicode="&#x2044;" horiz-adv-x="327" 
d="M573 1462l-710 -1493l-109 47l711 1491z" />
    <glyph glyph-name="fraction" unicode="&#x2215;" horiz-adv-x="327" 
d="M573 1462l-710 -1493l-109 47l711 1491z" />
    <glyph glyph-name="franc" unicode="&#x20a3;" horiz-adv-x="1122" 
d="M942 1346h-496v-517h449v-131h-449v-297h281v-131h-281v-270h-188v270h-225v131h225v1078h684v-133z" />
    <glyph glyph-name="Euro" unicode="&#x20ac;" horiz-adv-x="1122" 
d="M201 682v51q0 39 4 109h-135l28 108h119q41 246 165 398t301 152t312 -91v-147q-45 38 -123 68t-141 30q-137 0 -221 -111t-115 -299h492l-29 -108h-473q-4 -70 -4 -109v-51h444l-28 -109h-408q27 -203 111 -325t226 -121q142 0 269 82v-148q-119 -81 -311 -81t-316 164
q-126 164 -157 429h-154l29 109h115z" />
    <glyph glyph-name="afii61289" unicode="&#x2113;" horiz-adv-x="1032" 
d="M666 1147q0 190 -127 190q-61 0 -102 -71q-40 -72 -40 -217v-443q269 275 269 541zM225 1016q0 227 89 338q90 110 224 110t206 -86t71 -248q0 -323 -418 -696v-28q0 -274 209 -275q156 0 279 178l88 -82q-141 -248 -410 -247q-151 0 -235 90t-99 241q0 12 -2 17
q-51 -37 -112 -76l-54 100q123 86 164 121v543z" />
    <glyph glyph-name="trademark" unicode="&#x2122;" horiz-adv-x="1550" 
d="M578 1397h-181v-629h-106v629h-180v82h467v-82zM1311 768h-101v559l-180 -559h-69l-181 559v-559h-92v711h131l180 -566l181 566h131v-711z" />
    <glyph glyph-name="estimated" unicode="&#x212e;" horiz-adv-x="1673" 
d="M1323 696v377q0 25 -20 45q-195 195 -465 195t-465 -201q-20 -20 -21 -47v-369q0 -10 10 -10h951q10 0 10 10zM1602 647h-1240q-10 0 -10 -8v-375q0 -20 19 -43q190 -203 478 -203t482 228h113q-106 -125 -266 -197t-340 -72q-317 0 -542 202q-224 202 -224 487
q0 284 224 486t542 202t540 -202q223 -202 224 -486v-19z" />
    <glyph glyph-name="partialdiff" unicode="&#x2202;" horiz-adv-x="1122" 
d="M270 365q0 -258 205 -259q172 0 261 180t89 464q-251 76 -403 -43t-152 -342zM1004 730q0 -156 -31 -284q-113 -466 -533 -466q-158 0 -254 104q-94 104 -94 248q0 292 202 450q95 76 228 102t291 -22q-25 197 -151 330q-127 133 -283 182l53 125q98 -29 192 -86
q236 -145 326 -383q54 -144 54 -300z" />
    <glyph glyph-name="product" unicode="&#x220f;" horiz-adv-x="1689" 
d="M1026 909q0 164 -178 164h-94v-328h94q178 0 178 164zM1141 909q0 -111 -71 -181t-212 -71h-104v-338h-115v840h219q141 1 212 -69t71 -181zM1481 737q-1 279 -187 477t-449 197q-263 0 -449 -198q-186 -199 -187 -477q0 -278 186 -474q185 -196 449 -196t450 196
t187 475zM844 1497q299 -1 512 -223t213 -536t-213 -536t-512 -222t-511 222t-212 536t212 536t511 223z" />
    <glyph glyph-name="summation" unicode="&#x2211;" horiz-adv-x="1122" 
d="M1010 -440h-901l507 1034l-505 885h880v-133h-602l422 -725l-446 -906h645v-155z" />
    <glyph glyph-name="minus" unicode="&#x2212;" horiz-adv-x="1081" 
d="M934 563h-787v123h787v-123z" />
    <glyph glyph-name="radical" unicode="&#x221a;" horiz-adv-x="1081" 
d="M53 1026h312l208 -807h5l286 1389h158l-360 -1608h-164l-281 926l-164 2v98z" />
    <glyph glyph-name="infinity" unicode="&#x221e;" horiz-adv-x="1751" 
d="M477 854q-88 0 -151 -62q-64 -62 -64 -154t64 -158q64 -64 154 -64q91 0 158 48t161 171q-104 123 -169 171t-153 48zM1272 420q90 0 152 62t63 156q1 92 -63 156t-155 64t-153 -44t-162 -173q94 -121 161 -171t157 -50zM1604 637q0 -145 -94 -243t-227 -99
q-132 0 -219 56t-192 194q-106 -139 -188 -195t-215 -55q-133 0 -227 97q-94 96 -94 244t94 246t224 97q130 0 214 -55t197 -193q117 143 191 196q75 52 210 52q134 -1 230 -99t96 -243z" />
    <glyph glyph-name="integral" unicode="&#x222b;" horiz-adv-x="1122" 
d="M651 -90q1 -164 -107 -261t-290 -89v118q92 -2 157 48t64 159v1370q1 167 107 263t286 88v-117q-92 2 -154 -48t-63 -161v-1370z" />
    <glyph glyph-name="approxequal" unicode="&#x2248;" horiz-adv-x="1081" 
d="M354 563q70 1 182 -67t175 -68q131 0 223 100v-120q-78 -100 -221 -101q-65 0 -177 67t-182 66q-121 0 -207 -90v121q82 92 207 92zM713 676q-65 0 -177 68t-182 67q-121 0 -207 -90v121q82 90 207 90q68 0 181 -67t176 -66q135 0 223 100v-121q-80 -102 -221 -102z" />
    <glyph glyph-name="notequal" unicode="&#x2260;" horiz-adv-x="1081" 
d="M934 389h-479l-144 -235l-80 49l115 186h-199v119h269l143 235h-412v117h482l135 225l82 -47l-109 -178h197v-117h-264l-146 -235h410v-119z" />
    <glyph glyph-name="lessequal" unicode="&#x2264;" horiz-adv-x="1081" 
d="M934 158h-787v114h787v-114zM934 408l-787 301v108l787 301v-125l-639 -231l639 -232v-122z" />
    <glyph glyph-name="greaterequal" unicode="&#x2265;" horiz-adv-x="1081" 
d="M934 158h-787v114l787 -2v-112zM934 709l-787 -301v122l639 232l-639 231v125l787 -301v-108z" />
    <glyph glyph-name="lozenge" unicode="&#x25ca;" horiz-adv-x="1312" 
d="M1053 721l-410 582l-381 -547l410 -580zM1210 739l-555 -759l-553 759l553 760z" />
    <glyph glyph-name="apple" unicode="&#xf000;" horiz-adv-x="1601" 
d="M1079 -53q-43 1 -111 29t-136 28t-149 -31t-110 -30q-92 1 -186 113t-153 272q-58 160 -58 299q0 199 106 323t277 125q63 0 147 -31q84 -30 114 -30q28 0 115 33t155 32q190 0 296 -145q-90 -68 -128 -134t-38 -159q0 -94 55 -175q54 -81 150 -122q-78 -188 -169 -292
t-177 -105zM1094 1415q8 -143 -86 -249t-220 -105q2 147 84 242q83 94 222 112z" />
    <glyph glyph-name="dotlessj" unicode="&#xf6be;" horiz-adv-x="495" 
d="M342 74q0 -224 -113 -362t-270 -156v118q203 74 203 387v986h180v-973z" />
    <glyph glyph-name="dotlessj" unicode="&#xfb0f;" horiz-adv-x="495" 
d="M342 74q0 -224 -113 -362t-270 -156v118q203 74 203 387v986h180v-973z" />
    <glyph glyph-name="commaaccent" unicode="&#xf6c3;" 
d="M340 -269q0 -97 -78 -149t-186 -57l-35 76q68 8 114 42q46 33 46 97t-107 141h164q82 -53 82 -150z" />
    <glyph glyph-name="fi" unicode="&#xfb01;" horiz-adv-x="1056" 
d="M557 934h-192v-934h-181v934h-127v113h127v131q0 166 98 261t275 87v-115q-193 -10 -192 -213v-151h192v-113zM899 0h-180v1047h180v-1047zM913 1364q1 -43 -31 -74q-32 -30 -75 -30t-74 30t-31 74q0 43 31 74q31 30 74 30t75 -30q31 -31 31 -74z" />
    <glyph glyph-name="fl" unicode="&#xfb02;" horiz-adv-x="1056" 
d="M557 934h-192v-934h-181v934h-127v113h127v131q0 166 98 261t275 87v-115q-193 -10 -192 -213v-151h192v-113zM899 0h-180v1479h180v-1479z" />
    <glyph glyph-name="Gcedilla" horiz-adv-x="1263" 
d="M934 -254q0 -92 -138 -130t-386 -17l41 69q143 -12 245 7t103 69q0 84 -260 66l41 63q354 33 354 -127zM111 738q0 364 180 562t442 199q193 0 330 -102v-146q-135 115 -309 115q-213 0 -333 -160t-120 -464t119 -468t311 -163q131 0 193 32v652h182v-734
q-143 -82 -373 -81q-272 0 -447 198q-175 196 -175 560z" />
    <glyph glyph-name="gcedilla" horiz-adv-x="1032" 
d="M731 719q0 113 -55 179t-170 65q-115 0 -170 -66q-55 -67 -55 -179t55 -178t170 -65q115 -1 170 65t55 179zM770 -664q0 -92 -138 -130t-386 -17l41 70q143 -12 245 7t103 68q0 84 -260 66l41 63q354 33 354 -127zM979 950h-158q80 -68 80 -226t-95 -257
q-95 -98 -298 -98l-84 4q-80 -51 -80 -127q0 -37 39 -45q10 -2 16 -4t64 -2h162q161 0 249 -83t89 -206q0 -158 -115 -252q-114 -94 -316 -94t-321 78t-119 200q0 57 23 117h170q-23 -37 -23 -115t80 -126t199 -48t185 62t67 154q-1 91 -49 129t-148 38h-156q-190 0 -236 70
q-24 35 -24 90q0 90 125 194q-193 84 -192 316q0 158 98 254t295 96q96 0 168 -22h305v-97z" />
    <glyph glyph-name="Kcedilla" horiz-adv-x="1087" 
d="M504 -254q0 -92 -138 -130t-386 -17l40 69q144 -12 246 7t103 69q0 84 -260 66l41 63q354 33 354 -127zM344 764v-764h-186v1479h186v-688h4l477 688h197l-506 -691l528 -788h-213l-483 764h-4z" />
    <glyph glyph-name="kcedilla" horiz-adv-x="952" 
d="M504 -254q0 -92 -138 -130t-386 -17l40 69q144 -12 246 7t103 69q0 84 -260 66l41 63q354 33 354 -127zM332 543v-543h-176v1479h176v-916h2l375 484h188l-397 -488l440 -559h-205l-401 543h-2z" />
    <glyph glyph-name="Lcedilla" horiz-adv-x="870" 
d="M668 -254q0 -92 -138 -130t-387 -17l41 69q144 -12 246 7t102 69q0 84 -260 66l41 63q355 33 355 -127zM799 0h-641v1479h188v-1346h453v-133z" />
    <glyph glyph-name="lcedilla" horiz-adv-x="495" 
d="M483 -254q0 -92 -138 -130t-386 -17l41 69q144 -12 246 7t102 69q0 84 -260 66l41 63q354 33 354 -127zM338 0h-180v1479h180v-1479z" />
    <glyph glyph-name="Ncedilla" horiz-adv-x="1325" 
d="M504 -254q0 -92 -138 -130t-386 -17l40 69q144 -12 246 7t103 69q0 84 -260 66l41 63q354 33 354 -127zM1167 0h-163l-601 1087l-90 170h-4q6 -86 6 -174v-1083h-157v1479h198l656 -1198h4q-6 68 -6 155v1043h157v-1479z" />
    <glyph glyph-name="ncedilla" horiz-adv-x="1050" 
d="M504 -254q0 -92 -138 -130t-386 -17l40 69q144 -12 246 7t103 69q0 84 -260 66l41 63q354 33 354 -127zM913 0h-180v748q0 199 -215 198q-113 0 -192 -35v-911h-181v989q157 80 375 80t306 -90t87 -221v-758z" />
    <glyph glyph-name="Rcedilla" horiz-adv-x="1153" 
d="M846 1077q0 268 -324 269h-178v-566h84q222 0 320 70t98 227zM504 -254q0 -92 -138 -130t-386 -17l40 69q144 -12 246 7t103 69q0 84 -260 66l41 63q354 33 354 -127zM344 659v-659h-186v1479h397q241 0 359 -120t118 -286q0 -165 -98 -277t-277 -130l453 -666h-223
l-426 659h-117z" />
    <glyph glyph-name="rcedilla" horiz-adv-x="645" 
d="M504 -254q0 -92 -138 -130t-386 -17l40 69q144 -12 246 7t103 69q0 84 -260 66l41 63q354 33 354 -127zM326 0h-181v989q147 80 396 80q13 0 37 -1t28 -1l-41 -135q-145 41 -239 -21v-911z" />
    <glyph glyph-name="Omegagreek" horiz-adv-x="565" 
 />
    </font>
</defs>
</svg>
