<?xml version="1.0" encoding="utf-8"?>
<!-- Generator: Adobe Illustrator 19.2.1, SVG Export Plug-In . SVG Version: 6.00 Build 0)  -->
<svg version="1.1" id="Layer_1" xmlns="http://www.w3.org/2000/svg" xmlns:xlink="http://www.w3.org/1999/xlink" x="0px" y="0px"
	 viewBox="0 0 170 124.3" style="enable-background:new 0 0 170 124.3;" xml:space="preserve">
<g id="final">
	<path d="M162,98.1c0-0.1,0-0.2,0-0.3l0,0l-12.5-94c-0.1-0.5-0.5-0.8-1-0.9L8.8,0c0,0,0,0-0.1,0S8.5,0,8.4,0H8.3
		C8.2,0.1,8.1,0.2,8,0.3l0,0c0,0,0,0,0,0.1S7.9,0.5,7.9,0.6L0.1,16.7C0,16.8,0,17,0,17.2l6.3,97.3c0,0.5,0.5,0.9,1,0.9l0,0
		l140.9-0.2c0.3,0,0.6-0.1,0.8-0.4l12.8-16.4C161.9,98.3,161.9,98.2,162,98.1L162,98.1z M159.9,96.8L16.5,96.1L9.8,2l137.8,2.8
		L159.9,96.8z M2,17.3L8,4.6l6.6,92.3L8,110.6L2,17.3z M147.7,113.2L8.9,113.4L16.2,98L159,98.8L147.7,113.2z"/>
	<g>
		<path d="M11.5,122.6v-1h6.2v1H11.5z M20.7,122.5v-1h6.2v1H20.7z M30,122.5v-1h6.2v1H30z M39.2,122.5v-1h6.2v1H39.2z M48.4,122.5
			v-1h6.2v1H48.4z M57.6,122.5v-1h6.2v1H57.6z M66.9,122.5v-1h6.2v1H66.9z M76.1,122.5v-1h6.2v1H76.1z M85.3,122.5v-1h6.2v1H85.3z
			 M94.5,122.5v-1h6.2v1H94.5z M103.8,122.5v-1h6.2v1H103.8z M113,122.5v-1h6.2v1H113z M122.2,122.5v-1h6.2v1H122.2z M131.5,122.4
			v-1h6.2v1H131.5z M140.7,122.4v-1h2.9v1H140.7z"/>
		<g>
			<polygon points="7.5,122 13.1,124.3 11.8,122 13.1,119.8 			"/>
		</g>
		<g>
			<polygon points="147.5,121.9 141.9,124.2 143.3,121.9 141.9,119.6 			"/>
		</g>
	</g>
	<g>
		<path d="M153,117.9l-0.8-0.6l1.5-1.8l0.8,0.6L153,117.9z M156.4,113.7l-0.8-0.6l3.9-4.8l0.8,0.6L156.4,113.7z M162.2,106.5
			l-0.8-0.6l3.9-4.8l0.8,0.6L162.2,106.5z"/>
		<g>
			<polygon points="168.3,98.4 162.9,101.3 165.5,101.7 166.5,104.2 			"/>
		</g>
		<g>
			<polygon points="150.1,120.6 151.9,114.8 152.8,117.3 155.4,117.7 			"/>
		</g>
	</g>
	<g>
		<rect x="167.2" y="88.4" transform="matrix(0.991 -0.1339 0.1339 0.991 -10.5335 23.2664)" width="1" height="3.1"/>
		<path d="M166.6,85.4l-0.8-6.1l1-0.1l0.8,6.1L166.6,85.4z M165.4,76.2l-0.8-6.1l1-0.1l0.8,6.1L165.4,76.2z M164.1,67l-0.8-6.1
			l1-0.1l0.8,6.1L164.1,67z M162.9,57.8l-0.8-6.1l1-0.1l0.8,6.1L162.9,57.8z M161.6,48.6l-0.8-6.1l1-0.1l0.8,6.1L161.6,48.6z
			 M160.4,39.4l-0.8-6.1l1-0.1l0.8,6.1L160.4,39.4z M159.2,30.2l-0.8-6.1l1-0.1l0.8,6.1L159.2,30.2z M157.9,21l-0.8-6.1l1-0.1
			l0.8,6.1L157.9,21z"/>
		<rect x="156.5" y="8.7" transform="matrix(0.991 -0.1339 0.1339 0.991 4.288223e-02 21.1145)" width="1" height="3.1"/>
		<g>
			<polygon points="168.5,95.4 170,89.5 167.9,91.1 165.5,90.1 			"/>
		</g>
		<g>
			<polygon points="156.2,4.8 159.3,10 156.8,9 154.7,10.6 			"/>
		</g>
	</g>
</g>
</svg>
