<?xml version="1.0" encoding="utf-8"?>
<!-- Generator: Adobe Illustrator 19.2.1, SVG Export Plug-In . SVG Version: 6.00 Build 0)  -->
<svg version="1.1" id="Layer_1" xmlns="http://www.w3.org/2000/svg" xmlns:xlink="http://www.w3.org/1999/xlink" x="0px" y="0px"
	 viewBox="0 0 100 106" style="enable-background:new 0 0 100 106;" xml:space="preserve">
<g id="Layer_3">
	<path d="M100,53.9c0-0.2-0.1-0.4-0.1-0.6c0-0.1-0.1-0.2-0.1-0.3c-0.1-0.2-0.2-0.3-0.3-0.5c-0.1-0.1-0.1-0.2-0.2-0.2
		c-0.2-0.2-0.4-0.3-0.6-0.4c-0.1,0-0.1-0.1-0.2-0.1l0,0l-14.6-5.9c-0.3-0.1-0.6-0.2-0.9-0.2h-6.6V2.5c0-1.4-1.1-2.5-2.5-2.5H26.3
		c-1.4,0-2.5,1.1-2.5,2.5v43.2h-6.5c-0.3,0-0.6,0.1-0.9,0.2L1.6,51.8l0,0c-0.1,0-0.1,0.1-0.2,0.1C1.1,52,1,52.1,0.8,52.3
		c-0.1,0.1-0.1,0.2-0.2,0.3c-0.1,0.2-0.2,0.3-0.3,0.5c-0.1,0.1-0.1,0.2-0.1,0.3C0.1,53.6,0,53.7,0,53.9C0,54,0,54,0,54.1v49.4
		c0,1.4,1.1,2.5,2.5,2.5H50h47.5c1.4,0,2.5-1.1,2.5-2.5V54.1C100,54.1,100,54,100,53.9z M82.4,50.7l2.1,0.9h-8.2v-0.9H82.4z M28.8,5
		h16v8h10.4V5h16v46.5H50H28.8V5z M17.7,50.7h6v0.9h-8.2L17.7,50.7z M5,56.6h16v7.9h10.4v-7.9h16V101H5V56.6z M95,101H52.5V56.6h16
		v7.9H79v-7.9h16V101z"/>
</g>
</svg>
