<?xml version="1.0" encoding="utf-8"?>
<!-- Generator: Adobe Illustrator 19.2.1, SVG Export Plug-In . SVG Version: 6.00 Build 0)  -->
<svg version="1.1" id="Layer_1" xmlns="http://www.w3.org/2000/svg" xmlns:xlink="http://www.w3.org/1999/xlink" x="0px" y="0px"
	 viewBox="0 0 170 132.2" style="enable-background:new 0 0 170 132.2;" xml:space="preserve">
<g id="Layer_5">
	<g>
		<path d="M153.7,2v114.5H2V2H153.7 M155.7,0H0v118.5h155.7V0L155.7,0z"/>
	</g>
	<g>
		<path d="M151.4,130.2H145v-1.1h6.4V130.2z M141.6,130.2h-6.7v-1.1h6.7V130.2z M131.6,130.2h-6.7v-1.1h6.7V130.2z M121.5,130.2
			h-6.7v-1.1h6.7V130.2z M111.5,130.2h-6.7v-1.1h6.7V130.2z M101.4,130.2h-6.7v-1.1h6.7V130.2z M91.4,130.2h-6.7v-1.1h6.7V130.2z
			 M81.3,130.2h-6.7v-1.1h6.7V130.2z M71.3,130.2h-6.7v-1.1h6.7V130.2z M61.3,130.2h-6.7v-1.1h6.7V130.2z M51.2,130.2h-6.7v-1.1h6.7
			V130.2z M41.2,130.2h-6.7v-1.1h6.7V130.2z M31.1,130.2h-6.7v-1.1h6.7C31.1,129.1,31.1,130.2,31.1,130.2z M21.1,130.2h-6.7v-1.1
			h6.7V130.2z M11,130.2H4.3v-1.1H11V130.2z"/>
		<g>
			<polygon points="0,129.7 6.1,132.2 4.7,129.7 6.1,127.2 			"/>
		</g>
		<g>
			<polygon points="155.7,129.7 149.6,132.2 151,129.7 149.6,127.2 			"/>
		</g>
	</g>
	<g>
		<path d="M168.1,111.5H167v-6.7h1.1V111.5z M168.1,101.4H167v-6.7h1.1V101.4z M168.1,91.4H167v-6.7h1.1V91.4z M168.1,81.3H167v-6.7
			h1.1V81.3z M168.1,71.3H167v-6.7h1.1V71.3z M168.1,61.3H167v-6.7h1.1V61.3z M168.1,51.2H167v-6.7h1.1V51.2z M168.1,41.2H167v-6.7
			h1.1V41.2z M168.1,31.1H167v-6.7h1.1V31.1z M168.1,21.1H167v-6.7h1.1V21.1z M168.1,11H167V4.3h1.1V11z"/>
		<g>
			<polygon points="167.5,0 165,6.1 167.5,4.7 170,6.1 			"/>
		</g>
		<g>
			<polygon points="167.5,118.5 165,112.4 167.5,113.9 170,112.4 			"/>
		</g>
	</g>
</g>
</svg>
