<?xml version="1.0" encoding="utf-8"?>
<!-- Generator: Adobe Illustrator 19.2.1, SVG Export Plug-In . SVG Version: 6.00 Build 0)  -->
<svg version="1.1" id="Layer_1" xmlns="http://www.w3.org/2000/svg" xmlns:xlink="http://www.w3.org/1999/xlink" x="0px" y="0px"
	 viewBox="0 0 170 175.6" style="enable-background:new 0 0 170 175.6;" xml:space="preserve">
<style type="text/css">
	.st0{fill:none;}
	.st1{fill:#A7A9AC;}
	.st2{fill:#6D6E71;}
	.st3{fill:#58595B;}
	.st4{fill:#CCCCCC;}
	.st5{fill:#808285;}
	.st6{fill:#939598;}
</style>
<g id="Layer_3">
	<g>
		<path class="st0" d="M4.1,140.5L2.2,140L4.1,140.5z"/>
		<polygon points="146.5,136.6 146.1,136.5 146.1,136.5 		"/>
		<polygon points="23.4,134.1 20.8,137.2 57.8,146.8 57.8,143.2 		"/>
		<polygon points="138.5,156.7 130.8,154.7 130.8,154.7 		"/>
		<polygon points="153.5,138.7 153.5,138.7 153.5,141.2 		"/>
		<polygon points="132.9,163.4 125.2,161.2 123.2,163.6 132.9,166.2 		"/>
		<polygon points="153.3,138.7 153.3,138.7 148,145.1 		"/>
		<polygon points="140.5,143.1 138.7,145.3 148,147.8 148,145.1 		"/>
		<polygon points="130.8,165.8 123.1,163.8 123.1,163.8 		"/>
		<polygon points="148.2,134 146.3,136.3 155.5,138.7 155.5,136 161,129.4 160.9,129.4 155.5,136 		"/>
		<polygon points="163.1,126.8 155.9,124.9 154.1,127.1 163,129.5 163,126.8 		"/>
		<polygon points="4.1,140.5 8.9,141.8 8.9,141.8 		"/>
		<polygon points="110,168.6 110,168.6 68.8,157.7 		"/>
		<path d="M64.5,145.1L64.5,145.1L64.5,145.1z"/>
		<polygon points="72.4,147.2 70,150 110,160.4 110,157.4 		"/>
		<polygon points="132.9,152.1 131.1,154.3 140.6,156.8 140.6,154.2 		"/>
		<polygon points="125.2,172.6 117.4,170.6 117.4,170.6 		"/>
		<polygon class="st1" points="8.9,134.8 8.9,134.1 2.2,140 4.1,140.5 		"/>
		<polygon class="st1" points="117.4,170.6 117.4,170.6 125.2,172.6 130.8,165.8 123.1,163.8 		"/>
		<polygon class="st1" points="15.4,143.5 57.8,154.8 57.8,146.8 20.8,137.2 		"/>
		<polygon class="st1" points="70,150 64.5,156.5 64.5,156.3 64.5,156.5 68.8,157.7 110,168.6 110,160.4 		"/>
		<polygon class="st1" points="4.1,140.5 8.9,141.8 8.9,134.8 		"/>
		<polygon class="st2" points="125.2,175.6 130.8,168.8 130.8,168.6 125.2,175.5 		"/>
		<polygon class="st2" points="125.2,175.5 130.8,168.6 130.8,165.8 125.2,172.6 		"/>
		<polygon class="st1" points="128.7,157.2 128.6,157.2 128.6,157.2 125.2,161.2 132.9,163.4 138.5,156.7 130.8,154.7 		"/>
		<path class="st1" d="M128.6,157.2L128.6,157.2L128.6,157.2z"/>
		<polygon class="st2" points="132.9,163.4 132.9,163.4 132.9,166.2 138.5,159.5 138.5,156.7 133,163.4 		"/>
		<polygon class="st2" points="133,163.4 138.5,156.7 132.9,163.4 		"/>
		<polygon class="st1" points="146,147.5 146,147.5 146.1,147.5 138.5,145.5 138.5,145.5 		"/>
		<polygon class="st1" points="140.6,154.2 146,147.5 146,147.5 138.5,145.5 132.9,152.1 		"/>
		<polygon class="st2" points="146.1,150.3 140.6,156.8 146.1,150.3 146.1,147.5 146,147.5 		"/>
		<polygon class="st2" points="146,147.5 140.6,154.2 140.6,156.8 146.1,150.3 		"/>
		<polygon class="st1" points="153.5,138.4 146.5,136.6 153.3,138.7 		"/>
		<polygon class="st1" points="140.5,143.1 148,145.1 153.3,138.7 146.5,136.6 146.1,136.5 		"/>
		<polygon class="st2" points="153.5,138.4 153.3,138.7 153.5,138.7 		"/>
		<polygon class="st2" points="148,147.8 153.5,141.2 153.5,138.7 153.3,138.7 148,145.1 		"/>
		<polygon class="st1" points="160.9,129.4 161,129.3 153.8,127.4 153.8,127.5 		"/>
		<polygon class="st1" points="148.2,134 155.5,136 160.9,129.4 153.8,127.5 		"/>
		<polygon class="st2" points="161,132.1 161,129.3 161,129.4 161,129.4 		"/>
		<polygon class="st2" points="155.5,138.7 161,132.1 161,129.4 161,129.4 155.5,136 		"/>
		<polygon class="st1" points="161.4,118.3 156,124.8 163.1,126.8 168.5,120.1 168.5,120.1 168.6,120.1 		"/>
		<polygon class="st1" points="163.1,126.8 163.1,126.8 156,124.8 155.9,124.9 		"/>
		<polygon class="st2" points="163,129.5 168.5,122.9 168.5,120.1 163.1,126.8 		"/>
		<polygon class="st2" points="163.1,126.8 163,126.8 163,129.5 		"/>
		<polygon class="st2" points="163.1,126.8 163.1,126.8 168.5,120.1 168.5,120.1 		"/>
		<path class="st2" d="M163.1,126.8L163.1,126.8L163.1,126.8z"/>
		<polygon class="st3" points="123.1,163.8 123.1,163.8 123.2,163.6 123.2,163.6 		"/>
		<polygon class="st3" points="140.5,143.1 138.7,145.3 138.7,145.3 		"/>
		<ellipse class="st3" cx="130.8" cy="154.7" rx="0" ry="0"/>
		<polygon class="st3" points="125.2,161.2 125.2,161.3 117.3,159.2 117.3,162.3 123.1,163.8 123.1,163.8 123.1,163.8 123.2,163.6 
			123.2,163.6 		"/>
		<polygon class="st3" points="123.1,163.8 117.3,162.3 117.4,170.6 		"/>
		<polygon class="st3" points="125.2,161.2 125.2,161.2 128.6,157.2 128.4,157.2 		"/>
		<polygon class="st3" points="130.8,154.7 130.8,154.7 128.7,157.2 		"/>
		<polygon class="st3" points="64.5,145.1 64.5,145.1 64.5,148.6 70,150 72.4,147.2 		"/>
		<polygon class="st3" points="64.5,156.3 64.5,156.5 70,150 64.5,148.6 		"/>
		<polygon class="st3" points="23.4,134.1 15.4,131.9 15.4,135.8 20.8,137.2 		"/>
		<polygon class="st3" points="15.4,135.8 15.4,143.5 20.8,137.2 		"/>
		<polygon class="st1" points="15.3,126.1 5.1,123.4 5.1,123.1 2.2,125.7 11.8,128.2 		"/>
		<polygon class="st1" points="16,126.3 15.3,126.1 11.8,128.2 14,128.8 		"/>
		<polygon class="st1" points="74.4,144.8 119.6,156.8 121.2,155.2 76.1,142.8 		"/>
		<polygon class="st1" points="16,126.3 14,128.8 17.6,129.8 19.9,127.4 		"/>
		<polygon class="st1" points="68.7,140.8 27.4,129.4 25.4,131.8 66.7,142.8 		"/>
		<polygon class="st1" points="121.2,155.2 119.6,156.8 125.2,158.3 126.5,156.6 		"/>
		<polygon class="st1" points="68.7,140.8 66.7,142.8 74.4,144.8 76.1,142.8 		"/>
		<polygon class="st1" points="27.4,129.4 19.9,127.4 17.6,129.8 25.4,131.8 		"/>
		<polygon class="st2" points="125.2,161.3 125.2,161.2 125.2,161.2 		"/>
		<polygon class="st2" points="126.7,156.7 125.2,158.3 125.2,161.2 125.2,161.2 128.4,157.2 		"/>
		<polygon class="st2" points="125.2,158.3 126.7,156.7 126.5,156.6 		"/>
		<polygon class="st4" points="125.1,175.6 2.2,142.8 125.2,175.6 125.2,175.5 		"/>
		<polygon class="st4" points="13.1,129.8 10.3,129 11.8,128.2 2.2,125.7 2.2,128.4 8.9,130.2 8.9,134.1 9.4,134.3 		"/>
		<polygon class="st4" points="2.2,140 2.2,142.8 4.1,140.5 		"/>
		<polygon class="st4" points="15.4,131.9 16.6,130.8 13.1,129.8 9.4,134.3 15.4,135.8 		"/>
		<polygon class="st4" points="110.8,156.7 73.1,146.3 72.4,147.2 110,157.4 110,160.4 117.3,162.3 117.3,159.2 117.4,159.1 
			110.8,157.2 		"/>
		<polygon class="st4" points="64.5,145.1 64.5,145.1 64.5,145.1 65.4,144.2 24.4,132.9 23.4,134.1 57.8,143.2 57.8,146.8 
			64.5,148.6 64.4,145.1 		"/>
		<polygon class="st4" points="125.2,175.5 125.2,172.6 117.4,170.6 117.4,170.6 117.4,170.6 117.4,170.6 117.4,170.6 110,168.6 
			110,168.6 68.8,157.7 8.9,141.8 8.9,141.8 4.1,140.5 2.2,142.8 125.1,175.6 		"/>
		<polygon class="st4" points="9.4,134.3 8.9,134.1 8.9,134.8 		"/>
		<path class="st4" d="M117.4,170.6L117.4,170.6L117.4,170.6z"/>
		<polygon class="st4" points="110,160.4 110,168.6 117.4,170.6 117.3,162.3 		"/>
		<polygon class="st4" points="64.5,156.3 64.5,148.6 57.8,146.8 57.8,154.8 15.4,143.5 15.4,135.8 9.4,134.3 8.9,134.8 8.9,141.8 
			68.8,157.7 64.5,156.5 		"/>
		<polygon class="st4" points="11.8,128.2 10.3,129 13.1,129.8 14,128.8 		"/>
		<polygon class="st4" points="17.6,129.8 14,128.8 13.1,129.8 16.6,130.8 		"/>
		<polygon class="st4" points="74.4,144.8 73.1,146.3 110.8,156.7 110.8,157.2 117.4,159.1 119.6,156.8 		"/>
		<polygon class="st4" points="25.4,131.8 24.4,132.9 65.4,144.2 66.7,142.8 		"/>
		<polygon class="st4" points="117.4,159.1 117.3,159.2 117.3,162.3 117.3,162.3 117.3,159.2 125.2,161.3 125.2,161.2 		"/>
		<path class="st4" d="M117.4,170.6L117.4,170.6L117.4,170.6z"/>
		<polygon class="st4" points="117.4,170.6 117.4,170.6 117.4,170.6 117.3,162.3 117.3,162.3 		"/>
		<polygon class="st4" points="117.4,159.1 125.2,161.2 125.2,158.3 119.6,156.8 		"/>
		<polygon class="st4" points="64.5,145.1 72.4,147.2 73.1,146.3 65.4,144.2 		"/>
		<polygon class="st4" points="64.5,145.1 64.4,145.1 64.5,148.6 64.5,148.6 		"/>
		<path class="st4" d="M64.5,148.6v7.7V148.6z"/>
		<polygon class="st4" points="65.4,144.2 73.1,146.3 74.4,144.8 66.7,142.8 		"/>
		<polygon class="st4" points="24.4,132.9 16.6,130.8 15.4,131.9 23.4,134.1 		"/>
		<polygon class="st4" points="25.4,131.8 17.6,129.8 16.6,130.8 24.4,132.9 		"/>
		<g>
			<path class="st4" d="M3.5,75.3l57.2,13.4c0.3,0.1,0.6-0.2,0.6-0.5V40.1c0-0.2-0.2-0.5-0.4-0.5L0.6,28.8C0.3,28.7,0,29,0,29.3
				l3.1,45.6C3.1,75.1,3.3,75.3,3.5,75.3z"/>
		</g>
		<g>
			<path class="st4" d="M6.1,120.4L3.2,78.5c0-0.3,0.3-0.6,0.6-0.5l57,13.4c0.2,0.1,0.4,0.3,0.4,0.5l0.1,43.3c0,0.3-0.3,0.6-0.6,0.5
				L6.5,120.9C6.3,120.8,6.1,120.6,6.1,120.4z"/>
		</g>
		<g>
			<path class="st4" d="M129.1,53.9l-1.5,50.8c0,0.3-0.3,0.6-0.6,0.5L64.5,90c-0.2-0.1-0.4-0.3-0.4-0.5V40.9c0-0.3,0.3-0.6,0.6-0.5
				l63.9,13C128.9,53.4,129.1,53.6,129.1,53.9z"/>
		</g>
		<g>
			<path class="st4" d="M125.7,153l-61.1-16.4c-0.2-0.1-0.4-0.3-0.4-0.5l-0.1-43c0-0.3,0.3-0.6,0.6-0.5l62.3,15.7
				c0.2,0.1,0.4,0.3,0.4,0.5l-1.1,43.7C126.3,152.9,126,153.1,125.7,153z"/>
		</g>
		<g>
			<path class="st5" d="M169.2,20l-16,13.9c-0.1,0.1-0.2,0.2-0.2,0.4l-1.2,50.3c0,0.5,0.5,0.7,0.9,0.4L168,69.5
				c0.1-0.1,0.1-0.2,0.1-0.3l1.9-48.7C170,19.9,169.5,19.7,169.2,20z"/>
		</g>
		<g>
			<path class="st5" d="M131.1,150.6l18.1-21.9c0.1-0.1,0.1-0.2,0.1-0.3l-0.1-36c0-0.4-0.5-0.7-0.9-0.4l-16.9,16.3
				c-0.1,0.1-0.2,0.2-0.2,0.4l-1.1,41.6C130.2,150.8,130.8,151,131.1,150.6z"/>
		</g>
		<g>
			<path class="st5" d="M152.9,124.7l13.5-16.4c0.1-0.1,0.1-0.2,0.1-0.3l1.9-33.9c0-0.5-0.5-0.7-0.9-0.4l-15.4,15.4
				c-0.1,0.1-0.1,0.2-0.1,0.4v34.9C152,124.8,152.6,125,152.9,124.7z"/>
			<path class="st5" d="M149.5,37.3l-17,15.7c-0.1,0.1-0.2,0.2-0.2,0.4l-1.4,50.8c0,0.5,0.5,0.7,0.9,0.4L149,88
				c0.1-0.1,0.2-0.2,0.2-0.4l1.2-50C150.3,37.2,149.8,37,149.5,37.3z"/>
		</g>
		<g>
			<path class="st6" d="M49.1,0.1L29.6,10.5c-0.4,0.2-0.3,0.9,0.2,1L84.9,21c0.1,0,0.3,0,0.4-0.1l18.4-12.6c0.4-0.3,0.2-0.9-0.2-0.9
				L49.4,0C49.3,0,49.2,0,49.1,0.1z"/>
		</g>
		<g>
			<g>
				<polygon class="st0" points="64.5,38.7 131.1,51.7 150.3,33.6 86.8,23 				"/>
				<g>
					<path class="st6" d="M66.7,37.9l64.1,12.5c0.2,0,0.3,0,0.4-0.1l17.2-16.2c0.3-0.3,0.1-0.8-0.3-0.9L87,23.1
						c-0.1,0-0.3,0-0.4,0.1L66.5,37C66.1,37.3,66.3,37.8,66.7,37.9z"/>
				</g>
			</g>
		</g>
		<g>
			<path class="st6" d="M2.5,25.2l23.4-12.7c0.1-0.1,0.2-0.1,0.3-0.1l56,9.7c0.4,0.1,0.6,0.7,0.2,0.9L62.5,37
				c-0.1,0.1-0.3,0.1-0.4,0.1L2.6,26.2C2.1,26.1,2,25.5,2.5,25.2z"/>
		</g>
		<g>
			<path class="st6" d="M90.3,21.8l60.5,9.9c0.1,0,0.3,0,0.4-0.1l16.3-14.2c0.3-0.3,0.2-0.8-0.3-0.9l-57.9-8.3c-0.1,0-0.3,0-0.4,0.1
				L90.1,20.8C89.7,21.1,89.9,21.7,90.3,21.8z"/>
		</g>
	</g>
</g>
</svg>
