<?xml version="1.0" encoding="utf-8"?>
<!-- Generator: Adobe Illustrator 19.2.1, SVG Export Plug-In . SVG Version: 6.00 Build 0)  -->
<svg version="1.1" id="Layer_1" xmlns="http://www.w3.org/2000/svg" xmlns:xlink="http://www.w3.org/1999/xlink" x="0px" y="0px"
	 viewBox="0 0 170 91.7" style="enable-background:new 0 0 170 91.7;" xml:space="preserve">
<g id="Layer_6">
	<g>
		<path d="M12.4,83.4L0.1,58.8l1-1.4l13.3,1.8l0.9,1l-1,22.8L12.4,83.4z M2.7,59.6L12.5,79l0.8-18L2.7,59.6z"/>
		<path d="M13.3,83.9c-0.2,0-0.4-0.1-0.6-0.2c-0.3-0.2-0.4-0.5-0.4-0.8l1-22.8c0-0.4,0.3-0.8,0.7-0.9l145.1-49
			c0.3-0.1,0.6-0.1,0.9,0.1c0.3,0.2,0.4,0.5,0.4,0.8l-0.4,23c0,0.4-0.3,0.8-0.7,0.9L13.6,83.9C13.5,83.9,13.4,83.9,13.3,83.9z
			 M15.3,60.9l-0.9,20.6L158,33.4l0.4-20.9L15.3,60.9z"/>
		<path d="M14.3,61.2h-0.1L0.9,59.3c-0.5,0-0.9-0.4-0.9-0.9s0.2-0.9,0.7-1L145.4,8.1c0.2-0.1,0.3-0.1,0.5,0l13.7,2.1
			c0.5,0.1,0.8,0.4,0.8,0.9s-0.2,0.9-0.7,1l-145.1,49C14.5,61.1,14.4,61.2,14.3,61.2z M5.3,57.9l8.9,1.2l141-47.6l-9.5-1.5L5.3,57.9
			z"/>
	</g>
	<g>
		<path d="M20.2,90.7l-0.3-0.8l5-1.7l0.3,0.8L20.2,90.7z M27.7,88.1l-0.3-0.8l5-1.7l0.3,0.8L27.7,88.1z M35.3,85.6L35,84.7l5-1.7
			l0.3,0.8L35.3,85.6z M42.8,83l-0.3-0.8l5-1.7l0.3,0.8L42.8,83z M50.4,80.5l-0.3-0.8l5-1.7l0.3,0.8L50.4,80.5z M58,78l-0.3-0.8
			l5-1.7l0.3,0.8L58,78z M65.5,75.4l-0.3-0.8l5-1.7l0.3,0.8L65.5,75.4z M73.1,72.9l-0.3-0.8l5-1.7l0.3,0.8L73.1,72.9z M80.6,70.4
			l-0.3-0.8l5-1.7l0.3,0.8L80.6,70.4z M88.2,67.8L87.9,67l5-1.7l0.3,0.8L88.2,67.8z M95.8,65.3l-0.3-0.8l5-1.7l0.3,0.8L95.8,65.3z
			 M103.3,62.7l-0.3-0.8l5-1.7l0.3,0.8L103.3,62.7z M110.9,60.2l-0.3-0.8l5-1.7l0.3,0.8L110.9,60.2z M118.4,57.7l-0.3-0.8l5-1.7
			l0.3,0.8L118.4,57.7z M126,55.1l-0.3-0.8l5-1.7l0.3,0.8L126,55.1z M133.6,52.6l-0.3-0.8l5-1.7l0.3,0.8L133.6,52.6z M141.1,50.1
			l-0.3-0.8l5-1.7l0.3,0.8L141.1,50.1z M148.7,47.5l-0.3-0.8l5-1.7l0.3,0.8L148.7,47.5z M156.2,45l-0.3-0.8l0.7-0.2l0.3,0.8
			L156.2,45z"/>
		<g>
			<polygon points="16.8,91.3 22,91.7 20.3,90.2 20.7,87.9 			"/>
		</g>
		<g>
			<polygon points="160,43.2 156.1,46.7 156.5,44.4 154.8,42.9 			"/>
		</g>
	</g>
	<g>
		<path d="M158.2,3.3L156.5,3l0.2-0.9l1.7,0.3L158.2,3.3z M154.8,2.8l-3.5-0.6l0.2-0.9l3.5,0.6L154.8,2.8z"/>
		<g>
			<polygon points="148,1.1 152.4,3.9 151.6,1.8 153.1,0 			"/>
		</g>
		<g>
			<polygon points="161.7,3.5 156.6,4.6 158,2.9 157.3,0.7 			"/>
		</g>
	</g>
	<g>
		<rect x="166.5" y="29.7" transform="matrix(9.400877e-03 -1 1 9.400877e-03 136.1236 197.7244)" width="2.7" height="0.9"/>
		<path d="M168.3,26.8h-0.9v-4.2h0.9V26.8z M168.4,20.5h-0.9v-4.2h0.9V20.5z"/>
		<rect x="166.7" y="12.5" transform="matrix(9.400877e-03 -1 1 9.400877e-03 153.5117 180.8035)" width="2.7" height="0.9"/>
		<g>
			<polygon points="167.8,34.9 169.8,30.1 167.9,31.2 165.9,30.1 			"/>
		</g>
		<g>
			<polygon points="168.1,8.2 170,13.1 168,11.9 166,13 			"/>
		</g>
	</g>
</g>
</svg>
