<?xml version="1.0" encoding="utf-8"?>
<!-- Generator: Adobe Illustrator 19.2.1, SVG Export Plug-In . SVG Version: 6.00 Build 0)  -->
<svg version="1.1" id="Layer_1" xmlns="http://www.w3.org/2000/svg" xmlns:xlink="http://www.w3.org/1999/xlink" x="0px" y="0px"
	 viewBox="0 0 170 192.3" style="enable-background:new 0 0 170 192.3;" xml:space="preserve">
<g id="Layer_9">
	<g>
		<path d="M163.4,71.5c-3.2-10-7.2-19.3-12-27.7c0,0,0,0,0-0.1C142,26.4,130.6,16,121.7,9.9c-0.2-0.2-0.5-0.3-0.7-0.5
			c-0.1-0.1-0.3-0.2-0.4-0.3c-1.4-0.9-2.9-1.8-4.3-2.6c0,0,0,0-0.1,0c-0.3-0.2-0.6-0.3-0.8-0.5c-5.1-2.7-8.4-3.7-8.5-3.7
			s-0.1,0-0.2,0c-8.2-2.7-16.4-3.1-24.1-0.6l0,0L37,16.2c-0.2,0.1-0.3,0.1-0.5,0.2l0,0c-1.2,0.2-2.3,0.5-3.5,0.9
			C18.6,21.8,7.9,35.2,3,54.8c-4.9,19.5-3.6,43,3.6,66.1c13.2,42.2,43,71.5,70.1,71.5c3.6,0,7.2-0.5,10.7-1.6h0.1
			c0.4-0.1,2.7-0.4,5.9-1.9l43.5-13.7c14.4-4.5,25.1-17.9,30-37.5C172,118.1,170.7,94.6,163.4,71.5z M94.9,123.1
			c-8.4-6.8-15.9-18-20.2-31.7c-3.1-9.9-4.1-19.7-3.3-28.4c0.6,0.4,1.1,0.9,1.7,1.4c5.2,4.5,9.7,10.5,13.4,17.5c0,0.1,0,0.1,0,0.1
			s0,0,0,0.1c2,3.9,3.8,8.1,5.2,12.5C94.8,104.3,95.8,114.2,94.9,123.1z M59.2,54.9c-3.6-0.7-7.2-0.6-10.6,0.5
			c-8.1,2.5-14,10-16.8,20.9c-2.7,10.8-2,23.7,2,36.5c4,12.7,10.8,23.8,19.2,31.1c6.4,5.6,13.2,8.5,19.6,8.5c2.1,0,4.1-0.3,6.1-0.9
			c8.1-2.5,14-10,16.8-20.9c2.7-10.8,2-23.7-2-36.5c-1.4-4.3-3-8.4-5-12.3l4.4-5.2c2.6,5.2,4.8,10.7,6.6,16.4
			c11.3,36,2.9,70.8-18.8,77.6c-10.3,3.2-22.2-0.3-33.5-10.1c-11.5-10-20.9-25.2-26.4-42.8C9.6,81.6,18.1,46.8,39.8,40
			c6-1.9,12.4-1.5,19.1,1.1l0.3-0.8V54.9z M87.6,79.8c-1-2-3.1-5.8-6.3-9.9c-3.8-4.8-9.9-10.9-17.9-13.8c-0.7-0.3-1.5-0.5-2.2-0.7
			V21.5c3.2,1.6,6.6,3.5,9.9,5.9c6.9,4.9,13.8,11.4,20.1,19.4c3.8,5,7.4,10.5,10.5,16.4L87.6,79.8z M90.3,42.5
			C86.8,38.2,83,34.3,79,30.8c-5.3-4.6-10.7-8.2-16.2-10.7l43.8-15.8c1.8,0.6,3.6,1.4,5.4,2.2c2.4,1.2,5.5,2.9,8.9,5.2
			c10.4,7.3,20.2,18.3,28.2,32l-45.2,18.1C99.8,54.6,95.1,48.1,90.3,42.5z M83.1,3.5c6.5-2.1,13.4-2,20.3-0.2L60.3,18.9
			c-4.8-2.1-9.5-3.4-13.9-3.7L83.1,3.5z M8.5,120.2C1.3,97.5,0,74.4,4.8,55.2c4.8-19,15-31.8,28.7-36.1c3.3-1,6.8-1.6,10.3-1.6
			c5,0,10.2,1.1,15.4,3.1V37c-7.2-2.6-14.1-2.9-20.6-0.8c-23.8,7.5-33.4,44.5-21.4,82.6c5.7,18.3,15.5,34.1,27.6,44.6
			c9.3,8.1,19.1,12.3,28.3,12.3c3,0,6-0.4,8.9-1.4c23.8-7.5,33.4-44.5,21.4-82.6c-2-6.4-4.5-12.6-7.5-18.3l-0.4,0.2l7.2-8.5
			c3.6,7.1,6.8,14.6,9.3,22.6c3.6,11.5,5.7,22.9,6.3,33.7c0.2,10.6-0.5,23.3-3.7,35c-4.9,16.3-14.4,28.2-27.6,32.3
			C58.3,197.8,23.2,167,8.5,120.2z M165.2,137.1c-4.8,19-15,31.8-28.7,36.1l-36.3,11.4c1.4-1.1,2.9-2.5,4.3-4.1
			c6.2-6.8,10-15.9,12.4-25.4c2.8-9.9,3.9-21.2,3.3-33.3c0-0.2,0-0.4,0-0.6c-0.4-22.2-6.6-41.7-15.3-57.6l45.2-18.1
			c4.5,8.1,8.4,17,11.4,26.6C168.7,94.9,170,117.9,165.2,137.1z"/>
		<path d="M143.3,40.7c-0.1-0.1-5.6-8.8-14.4-17.9c-8.8-9.1-21.3-15.1-21.9-15.4c-0.2-0.1-0.5-0.1-0.8,0L72.4,19.7
			c-0.4,0.1-0.6,0.5-0.6,0.8c0,0.4,0.2,0.8,0.5,0.9c0.1,0.1,9,5.3,18.1,15.2c9.2,10,15.4,19.2,15.4,19.3c0.2,0.3,0.5,0.4,0.8,0.4
			c0.1,0,0.2,0,0.4-0.1L142.9,42c0.3-0.1,0.5-0.3,0.6-0.6C143.5,41.2,143.5,40.9,143.3,40.7z M107,54.2c-1.6-2.3-7.3-10.3-15.2-18.9
			c-7-7.6-13.8-12.5-16.9-14.5l31.6-11.4c2.1,1.1,13.2,6.8,20.9,14.8c6.9,7.1,11.8,14,13.5,16.5L107,54.2z"/>
		<polygon points="122.4,23.9 117.4,19 106.8,23.2 111.7,28 		"/>
		<polygon points="100.4,37.9 106.1,45.2 128.2,36.6 122.6,29.2 		"/>
	</g>
</g>
</svg>
