<?xml version="1.0" encoding="utf-8"?>
<!-- Generator: Adobe Illustrator 19.2.1, SVG Export Plug-In . SVG Version: 6.00 Build 0)  -->
<svg version="1.1" id="Layer_1" xmlns="http://www.w3.org/2000/svg" xmlns:xlink="http://www.w3.org/1999/xlink" x="0px" y="0px"
	 viewBox="0 0 195.5 162.6" style="enable-background:new 0 0 195.5 162.6;" xml:space="preserve">
<g id="Layer_4">
	<g>
		<path d="M178.5,75.1c-11-0.3-22.2-7.5-25.3-16.4l0,0c3.1,9.1-3.4,16.4-14.7,16.4c-11.2,0-21.2-7.4-22.3-16.5
			c1.1,9.1-7.2,16.5-18.5,16.5c-11.2,0-19.5-7.4-18.5-16.5c-1.1,9.1-11,16.5-22.3,16.5c-11.2,0-17.8-7.4-14.7-16.4l0,0
			C39.2,67.6,28,74.8,17,75.1v82.5c0,2.3,1.9,4.1,4.1,4.1h58v-66h37.3v66h58c2.3,0,4.1-1.8,4.1-4.1V75.1z M190.1,50.4
			c-8.8-15.2-14.2-24.6-21.4-37.1h1.6c2.3,0,4.1-1.8,4.1-4.1V5.1c0-2.3-1.9-4.1-4.1-4.1h-145c-2.3,0-4.1,1.8-4.1,4.1v4.1
			c0,2.3,1.9,4.1,4.1,4.1h1.6C19.6,25.8,14.2,35.2,5.4,50.4C3,54.5,2.7,58.3,4.2,61.2c1.7,3.5,5.9,5.7,12.1,5.7
			c0.2,0,0.5-0.1,0.7-0.1c7.3-0.2,14.6-3.4,19.7-8.2c2.6-2.4,4.6-5.2,5.7-8.2c5.3-15.2,8.5-24.6,12.8-37.1h28.4
			c-1.4,12.5-2.5,21.9-4.3,37.1c-0.2,1.7,0,3.2,0.4,4.7c0.3,1.2,0.8,2.4,1.5,3.5c3,4.9,9.1,8.2,16.6,8.2s13.6-3.3,16.6-8.2
			c0.7-1.1,1.2-2.3,1.5-3.5c0.4-1.5,0.6-3.1,0.4-4.7c-1.8-15.2-2.8-24.6-4.3-37.1h28.4c4.3,12.5,7.6,21.9,12.8,37.1
			c1.1,3,3.1,5.8,5.7,8.2c5.1,4.7,12.4,8,19.7,8.2c0.2,0,0.5,0.1,0.7,0.1c6.1,0,10.3-2.2,12.1-5.7C192.8,58.3,192.5,54.5,190.1,50.4
			z"/>
		<rect x="68.7" y="150.1" width="58" height="11.6"/>
	</g>
</g>
</svg>
