<?xml version="1.0" encoding="utf-8"?>
<!-- Generator: Adobe Illustrator 19.2.1, SVG Export Plug-In . SVG Version: 6.00 Build 0)  -->
<svg version="1.1" id="Layer_1" xmlns="http://www.w3.org/2000/svg" xmlns:xlink="http://www.w3.org/1999/xlink" x="0px" y="0px"
	 viewBox="0 0 195.5 162.6" style="enable-background:new 0 0 195.5 162.6;" xml:space="preserve">
<g id="Layer_4">
</g>
<g id="Layer_3">
</g>
<g id="Layer_1_1_">
	<g>
		<path d="M189.5,55.4h-16.8l-7.3-27.3c-0.9-3.5-4.3-5.6-7.5-4.8l-15,4L129,3.4c-1.8-3.1-5.6-4.3-8.5-2.7L2.9,68.6
			c-2.9,1.7-3.8,5.6-2,8.7c0,0,44.6,77.3,45.8,79.3c1.3,2.5,4,6,7,6h135.8c3.3,0,6.1-2.9,6.1-6.6V61.9
			C195.5,58.3,192.8,55.4,189.5,55.4z M187.3,64.3v13.5H55.9V64.3H187.3z M55.9,153.7v-61h131.4v61H55.9z"/>
		<path d="M176.4,126.7h-24.5c-1,0-1.9,0.9-1.9,2.1v4.5v6.8c0,1.1,0.8,2.1,1.9,2.1h24.5c1,0,1.9-0.9,1.9-2.1v-11.4
			C178.2,127.6,177.4,126.7,176.4,126.7z"/>
	</g>
</g>
</svg>
