<?xml version="1.0" encoding="utf-8"?>
<!-- Generator: Adobe Illustrator 19.2.1, SVG Export Plug-In . SVG Version: 6.00 Build 0)  -->
<svg version="1.1" id="bluebox_gradient" xmlns="http://www.w3.org/2000/svg" xmlns:xlink="http://www.w3.org/1999/xlink" x="0px"
	 y="0px" viewBox="0 0 323 299.3" style="enable-background:new 0 0 323 299.3;" xml:space="preserve">
<style type="text/css">
	.st0{fill:#1479BF;}
	.st1{fill:#FFFFFF;}
	.st2{fill:#0B7CC1;}
</style>
<g>
	<g>
		<path class="st0" d="M323,0H24.8v299.3H323v-98.8c1.2-1.7,1.8-3.9,1.8-6.6c0-3.1-0.6-4.9-1.8-6.5V0z"/>
		<path class="st1" d="M51.6,129.6l-5.7-14l-5.7,14H51.6z M178,124c-1.1,0.7-2.5,0.7-4.1,0.7h-10.2v-7.8H174c1.5,0,3,0.1,4,0.6
			c1.1,0.5,1.8,1.6,1.8,3.1C179.8,122.2,179.1,123.4,178,124 M250.7,129.6l-5.8-14l-5.8,14H250.7z M115.3,144.7h-8.6l-0.1-27.4
			l-12.1,27.4h-7.4l-12.2-27.5v27.5h-17l-3.2-7.8H37.2l-3.2,7.8h-9.1l15-35.1h12.5l14.2,33.2v-33.2h13.7l11,23.8l10.1-23.8h13.9
			V144.7z M149.5,144.7h-28v-35.1h28v7.3h-19.6v6.3H149v7.2h-19.1v7h19.6V144.7z M189,119.1c0,5.5-3.7,8.5-5.9,9.3
			c1.8,0.7,3.4,1.9,4.1,3c1.2,1.7,1.4,3.3,1.4,6.4v6.9h-8.5v-4.4c0-2.1,0.2-5.1-1.3-6.8c-1.2-1.3-3.1-1.5-6.1-1.5h-9v12.7h-8.4
			v-35.1h19.3c4.3,0,7.5,0.1,10.2,1.7C187.4,112.9,189,115.2,189,119.1 M202.4,144.7h-8.6v-35.1h8.6V144.7z M301.6,144.7h-11.9
			l-15.9-26.3v26.3h-17.1l-3.3-7.8h-17.4l-3.1,7.8h-9.8c-4.1,0-9.2-0.9-12.1-3.9c-3-3-4.5-7-4.5-13.4c0-5.2,0.9-10,4.5-13.7
			c2.7-2.8,7-4.1,12.7-4.1h8.1v7.5H224c-3.1,0-4.8,0.5-6.5,2.1c-1.4,1.5-2.4,4.3-2.4,7.9c0,3.8,0.7,6.5,2.3,8.2
			c1.3,1.4,3.6,1.8,5.8,1.8h3.8l11.8-27.6h12.5l14.2,33.2v-33.2h12.8l14.7,24.4v-24.4h8.6L301.6,144.7L301.6,144.7z M24.8,151.6
			h14.3l3.2-7.8h7.2l3.2,7.8h28.2v-6l2.5,6H98l2.5-6.1v6h70v-12.8h1.4c1,0,1.2,0.1,1.2,1.7v11.1h36.3v-3c2.9,1.6,7.5,3,13.4,3h15.3
			l3.2-7.8h7.2l3.2,7.8h29.4v-7.4l4.5,7.4h23.5v-48.9h-23.3v5.8l-3.2-5.8h-23.9v5.8l-3-5.8h-32.3c-5.4,0-10.2,0.7-14,2.9v-2.9h-22.3
			v2.9c-2.5-2.2-5.8-2.9-9.5-2.9H96.3l-5.5,12.6l-5.6-12.6H59.5v5.8l-2.8-5.8H34.9l-10.2,23.2L24.8,151.6L24.8,151.6z"/>
		<path class="st1" d="M323,177.4h-15.3c-1.5,0-2.5,0.1-3.4,0.6c-0.9,0.6-1.2,1.4-1.2,2.5c0,1.3,0.7,2.2,1.9,2.6
			c0.9,0.3,1.8,0.4,3.2,0.4l4.5,0.1c4.6,0.1,7.6,0.9,9.5,2.8c0.3,0.3,0.5,0.6,0.8,0.9V177.4z M323,200.6c-2.1,3-6,4.5-11.4,4.5
			h-16.2v-7.5h16.1c1.6,0,2.7-0.2,3.4-0.9c0.6-0.5,1-1.3,1-2.3s-0.4-1.9-1-2.3c-0.6-0.6-1.5-0.8-3-0.8c-7.9-0.3-17.7,0.2-17.7-10.9
			c0-5.1,3.2-10.4,12-10.4h16.7v-7h-15.5c-4.7,0-8.1,1.1-10.5,2.9V163h-23c-3.6,0-7.9,0.9-10,2.9V163h-41v2.9
			c-3.3-2.3-8.8-2.9-11.3-2.9h-27v2.9c-2.6-2.5-8.3-2.9-11.8-2.9h-30.3l-6.9,7.5l-6.5-7.5H84v48.9h44.5l7.2-7.6l6.7,7.6h27.3v-11.5
			h2.7c3.6,0,7.9-0.1,11.7-1.7v13.2h22.6v-12.8h1.1c1.4,0,1.5,0.1,1.5,1.4v11.3h68.5c4.3,0,8.8-1.1,11.4-3.1v3.1h21.7
			c4.5,0,8.9-0.6,12.3-2.3v-8.9H323z M289.5,186.6c1.7,1.7,2.5,3.8,2.5,7.4c0,7.6-4.7,11.1-13.2,11.1h-16.3v-7.5h16.3
			c1.6,0,2.7-0.2,3.4-0.9c0.6-0.5,1-1.3,1-2.3s-0.4-1.9-1-2.3c-0.7-0.6-1.5-0.8-3-0.8c-7.8-0.3-17.7,0.2-17.7-10.9
			c0-5.1,3.2-10.4,12-10.4h16.9v7.5h-15.3c-1.6,0-2.5,0.1-3.4,0.6c-0.9,0.6-1.2,1.4-1.2,2.5c0,1.3,0.8,2.2,1.8,2.6
			c0.9,0.3,1.8,0.4,3.2,0.4l4.5,0.1C284.6,183.9,287.6,184.6,289.5,186.6 M213.9,184.4c-1.1,0.6-2.5,0.7-4.1,0.7h-10.2v-7.9H210
			c1.5,0,3,0,4,0.6c1.1,0.6,1.7,1.6,1.7,3.2C215.7,182.5,215,183.7,213.9,184.4 M219,188.7c1.9,0.7,3.4,1.9,4.1,3
			c1.2,1.7,1.4,3.3,1.4,6.4v7h-8.4v-4.4c0-2.1,0.2-5.2-1.4-6.8c-1.2-1.3-3.1-1.6-6.2-1.6h-9v12.8h-8.4V170h19.3
			c4.3,0,7.4,0.2,10.1,1.7c2.6,1.6,4.3,3.8,4.3,7.8C224.9,185,221.2,187.9,219,188.7 M229.6,170h28v7.3H238v6.4h19.1v7.2H238v7h19.6
			v7.3h-28V170z M173,186.2h-10.8v-8.9h10.9c3,0,5.1,1.2,5.1,4.3C178.2,184.6,176.2,186.2,173,186.2 M153.8,201.9l-12.9-14.3
			l12.9-13.8V201.9z M120.6,197.7H100v-7h18.4v-7.2H100v-6.4h21l9.2,10.2L120.6,197.7z M187.2,181.5c0,9.7-7.3,11.8-14.6,11.8h-10.5
			v11.8h-16.3l-10.3-11.6l-10.7,11.6H91.6V170h33.8l10.3,11.5l10.7-11.5h26.8C179.8,170,187.2,171.8,187.2,181.5"/>
		<path class="st2" d="M20.1,292.6c0,3.2-2.5,5.8-5.8,5.8s-5.8-2.6-5.8-5.8s2.4-5.8,5.8-5.8C17.7,286.8,20.1,289.4,20.1,292.6
			 M21.1,292.6c0-3.7-3-6.8-6.8-6.8s-6.8,3-6.8,6.8s3.1,6.8,6.8,6.8C18.1,299.4,21.1,296.3,21.1,292.6 M15.9,291.2
			c0-0.8-0.5-0.9-0.9-0.9h-1.9v1.8h1.8C15.4,292.1,15.9,292,15.9,291.2 M17.3,295.7h-1.2c-0.2-0.5-0.2-1.4-0.2-1.7
			c0-0.5-0.1-0.9-0.9-0.9h-1.8v2.6h-1.1v-6.3H15c1,0,2.1,0.4,2.1,1.8c0,0.8-0.3,1.2-0.7,1.4c0.3,0.2,0.5,0.4,0.6,1.1v1.1
			c0,0.3,0,0.4,0.3,0.5C17.3,295.3,17.3,295.7,17.3,295.7z"/>
	</g>
</g>
</svg>
