<?xml version="1.0" encoding="utf-8"?>
<!-- Generator: Adobe Illustrator 19.2.0, SVG Export Plug-In . SVG Version: 6.00 Build 0)  -->
<svg version="1.1" id="Layer_1" xmlns="http://www.w3.org/2000/svg" xmlns:xlink="http://www.w3.org/1999/xlink" x="0px" y="0px"
	 width="325.963px" height="230.653px" viewBox="0 0 325.963 230.653" enable-background="new 0 0 325.963 230.653"
	 xml:space="preserve">
<g>
	<g>
		<path fill="#FFFFFF" d="M325.976,210.734c0,10.913-8.929,19.843-19.843,19.843H19.765c-10.913,0-19.843-8.929-19.843-19.843
			V19.919c0-10.913,8.929-19.843,19.843-19.843h286.369c10.913,0,19.843,8.929,19.843,19.843V210.734z"/>
	</g>
	<rect x="-0.078" y="0.076" fill="none" width="326.041" height="230.5"/>
	<g>
		<path d="M289.411,192.462v-3.727c0-0.541-0.337-0.812-1.011-0.812h-2.36c-0.739,0-1.188-0.136-1.348-0.409
			c-0.161-0.272-0.241-0.891-0.241-1.854v-14.014h3.949c0.256,0,0.481-0.097,0.674-0.291c0.192-0.194,0.289-0.421,0.289-0.68v-3.933
			c0-0.258-0.097-0.486-0.289-0.68c-0.193-0.194-0.418-0.291-0.674-0.291h-3.949v-5.105c0-0.256-0.08-0.457-0.24-0.602
			c-0.159-0.144-0.367-0.216-0.622-0.216h-0.144l-5.839,1.011c-0.256,0.065-0.479,0.177-0.67,0.337
			c-0.191,0.161-0.287,0.369-0.287,0.626v3.949h-3.852c-0.258,0-0.49,0.105-0.699,0.313c-0.209,0.209-0.313,0.442-0.313,0.698v3.179
			c0,0.257,0.104,0.474,0.313,0.65c0.209,0.177,0.441,0.297,0.699,0.361l3.852,0.626v13.966c0,1.702,0.176,3.09,0.526,4.165
			c0.351,1.076,0.862,1.919,1.532,2.529c0.67,0.61,1.507,1.019,2.513,1.228c1.005,0.208,2.162,0.313,3.472,0.313
			c0.705,0,1.331-0.033,1.878-0.096c0.545-0.064,1.187-0.159,1.926-0.287C289.105,193.322,289.411,193.003,289.411,192.462
			 M268.655,191.969v-4.286c0-0.257-0.089-0.458-0.265-0.602c-0.177-0.145-0.393-0.217-0.65-0.217h-0.096
			c-0.899,0.096-1.758,0.177-2.577,0.241c-0.818,0.064-1.918,0.096-3.298,0.096c-0.547,0-1.06-0.088-1.541-0.265
			c-0.482-0.176-0.9-0.481-1.253-0.915c-0.353-0.433-0.634-1.011-0.842-1.733c-0.21-0.723-0.313-1.614-0.313-2.673v-4.045
			c0-1.06,0.103-1.951,0.313-2.673c0.208-0.723,0.489-1.3,0.842-1.734c0.353-0.433,0.771-0.738,1.253-0.915
			c0.481-0.176,0.994-0.265,1.541-0.265c1.38,0,2.48,0.033,3.298,0.097c0.819,0.064,1.678,0.144,2.577,0.24h0.096
			c0.257,0,0.473-0.072,0.65-0.216c0.176-0.145,0.265-0.345,0.265-0.602v-4.286c0-0.353-0.08-0.602-0.241-0.747
			c-0.161-0.144-0.417-0.265-0.77-0.361c-0.674-0.16-1.55-0.32-2.625-0.482c-1.076-0.16-2.335-0.24-3.78-0.24
			c-3.404,0-6.124,1.043-8.163,3.13c-2.039,2.087-3.058,5.105-3.058,9.054v4.045c0,3.949,1.019,6.967,3.058,9.053
			c2.039,2.088,4.759,3.131,8.163,3.131c1.445,0,2.704-0.081,3.78-0.241c1.075-0.161,1.951-0.321,2.625-0.482
			c0.353-0.096,0.609-0.216,0.77-0.361C268.575,192.571,268.655,192.322,268.655,191.969 M237.305,186.864
			c-0.578,0.289-1.197,0.538-1.854,0.746c-0.659,0.21-1.357,0.313-2.095,0.313c-1.028,0-1.79-0.144-2.288-0.433
			s-0.746-0.947-0.746-1.974v-0.434c0-0.578,0.064-1.091,0.193-1.541c0.127-0.449,0.352-0.819,0.674-1.108
			c0.32-0.288,0.754-0.505,1.3-0.65c0.546-0.144,1.236-0.216,2.071-0.216h2.745V186.864z M244.962,175.21
			c0-1.765-0.265-3.267-0.795-4.503c-0.53-1.235-1.276-2.247-2.239-3.034c-0.963-0.786-2.143-1.364-3.54-1.733
			c-1.396-0.369-2.961-0.554-4.695-0.554c-1.606,0-3.171,0.113-4.695,0.337c-1.526,0.225-2.738,0.45-3.636,0.674
			c-0.611,0.161-0.915,0.514-0.915,1.059v3.901c0,0.322,0.079,0.547,0.24,0.674c0.161,0.129,0.369,0.193,0.626,0.193h0.241
			c0.386-0.032,0.867-0.072,1.445-0.12s1.228-0.088,1.95-0.121c0.723-0.031,1.477-0.055,2.264-0.072
			c0.786-0.016,1.565-0.024,2.335-0.024c1.124,0,2.007,0.209,2.649,0.626c0.642,0.418,0.963,1.317,0.963,2.697v1.734h-2.6
			c-4.142,0-7.152,0.65-9.03,1.95c-1.878,1.3-2.817,3.363-2.817,6.188v0.434c0,1.573,0.232,2.889,0.698,3.948
			c0.465,1.06,1.084,1.911,1.854,2.553c0.771,0.642,1.645,1.1,2.625,1.372c0.979,0.273,1.998,0.41,3.058,0.41
			c1.445,0,2.688-0.193,3.732-0.578c1.043-0.385,2.03-0.915,2.962-1.589v0.77c0,0.257,0.096,0.482,0.289,0.674
			c0.192,0.193,0.417,0.289,0.674,0.289h5.394c0.256,0,0.481-0.096,0.674-0.289c0.192-0.192,0.289-0.417,0.289-0.674V175.21z
			 M219.246,192.462v-3.727c0-0.541-0.337-0.812-1.011-0.812h-2.36c-0.739,0-1.188-0.136-1.348-0.409
			c-0.161-0.272-0.241-0.891-0.241-1.854v-14.014h3.949c0.256,0,0.481-0.097,0.674-0.291s0.289-0.421,0.289-0.68v-3.933
			c0-0.258-0.096-0.486-0.289-0.68s-0.418-0.291-0.674-0.291h-3.949v-5.105c0-0.256-0.08-0.457-0.239-0.602
			c-0.16-0.144-0.368-0.216-0.623-0.216h-0.143l-5.839,1.011c-0.256,0.065-0.48,0.177-0.671,0.337
			c-0.191,0.161-0.287,0.369-0.287,0.626v3.949h-3.852c-0.258,0-0.49,0.105-0.699,0.313c-0.209,0.209-0.313,0.442-0.313,0.698v3.179
			c0,0.257,0.104,0.474,0.313,0.65c0.209,0.177,0.441,0.297,0.699,0.361l3.852,0.626v13.966c0,1.702,0.176,3.09,0.526,4.165
			c0.351,1.076,0.862,1.919,1.532,2.529s1.508,1.019,2.513,1.228c1.005,0.208,2.162,0.313,3.472,0.313
			c0.705,0,1.332-0.033,1.878-0.096c0.545-0.064,1.187-0.159,1.926-0.287C218.941,193.322,219.246,193.003,219.246,192.462
			 M198.249,192.354v-16.037c0-1.508-0.121-2.929-0.361-4.261c-0.241-1.332-0.675-2.488-1.301-3.468
			c-0.626-0.979-1.493-1.758-2.6-2.335c-1.108-0.578-2.528-0.867-4.262-0.867c-1.541,0-2.906,0.186-4.094,0.558
			c-1.188,0.372-2.44,1.027-3.756,1.965v-1.167c0-0.258-0.096-0.485-0.289-0.679c-0.192-0.194-0.417-0.292-0.674-0.292h-5.394
			c-0.257,0-0.481,0.096-0.674,0.289c-0.192,0.193-0.289,0.418-0.289,0.674v25.62c0,0.257,0.104,0.49,0.313,0.698
			c0.209,0.209,0.441,0.313,0.699,0.313h5.827c0.256,0,0.481-0.104,0.674-0.312c0.192-0.208,0.289-0.44,0.289-0.697v-18.932
			c0.834-0.448,1.621-0.816,2.359-1.104c0.739-0.289,1.461-0.433,2.168-0.433c0.738,0,1.34,0.072,1.805,0.217
			c0.465,0.144,0.827,0.392,1.084,0.745c0.257,0.352,0.433,0.816,0.53,1.392c0.096,0.577,0.144,1.282,0.144,2.115v16
			c0,0.257,0.097,0.489,0.289,0.697c0.193,0.208,0.417,0.312,0.674,0.312h5.827c0.257,0,0.49-0.104,0.699-0.313
			C198.144,192.844,198.249,192.611,198.249,192.354 M161.794,181.278c0,3.949-1.421,5.923-4.262,5.923
			c-1.405,0-2.474-0.497-3.208-1.493c-0.735-0.995-1.102-2.472-1.102-4.43v-3.371c0-1.958,0.367-3.427,1.102-4.407
			c0.734-0.979,1.803-1.469,3.208-1.469c2.841,0,4.262,1.959,4.262,5.876V181.278z M169.596,177.907c0-1.927-0.266-3.66-0.797-5.201
			c-0.531-1.541-1.303-2.849-2.316-3.925c-1.013-1.075-2.268-1.91-3.763-2.504c-1.496-0.594-3.226-0.891-5.188-0.891
			c-1.962,0-3.691,0.297-5.187,0.891c-1.496,0.594-2.759,1.429-3.788,2.504c-1.03,1.076-1.81,2.384-2.34,3.925
			c-0.532,1.541-0.797,3.274-0.797,5.201v3.371c0,1.926,0.265,3.66,0.797,5.201c0.53,1.541,1.31,2.849,2.34,3.925
			c1.029,1.076,2.292,1.91,3.788,2.504c1.496,0.593,3.225,0.891,5.187,0.891c1.962,0,3.692-0.298,5.188-0.891
			c1.495-0.594,2.75-1.428,3.763-2.504s1.785-2.384,2.316-3.925c0.531-1.541,0.797-3.275,0.797-5.201V177.907z M142.868,191.969
			v-4.286c0-0.257-0.089-0.458-0.265-0.602c-0.177-0.145-0.394-0.217-0.65-0.217h-0.097c-0.899,0.096-1.757,0.177-2.576,0.241
			c-0.819,0.064-1.919,0.096-3.299,0.096c-0.546,0-1.059-0.088-1.541-0.265c-0.482-0.176-0.899-0.481-1.252-0.915
			c-0.354-0.433-0.634-1.011-0.843-1.733c-0.209-0.723-0.313-1.614-0.313-2.673v-4.045c0-1.06,0.104-1.951,0.313-2.673
			c0.209-0.723,0.489-1.3,0.843-1.734c0.353-0.433,0.77-0.738,1.252-0.915c0.482-0.176,0.995-0.265,1.541-0.265
			c1.38,0,2.48,0.033,3.299,0.097c0.819,0.064,1.677,0.144,2.576,0.24h0.097c0.256,0,0.473-0.072,0.65-0.216
			c0.176-0.145,0.265-0.345,0.265-0.602v-4.286c0-0.353-0.081-0.602-0.241-0.747c-0.161-0.144-0.418-0.265-0.771-0.361
			c-0.674-0.16-1.549-0.32-2.624-0.482c-1.076-0.16-2.336-0.24-3.781-0.24c-3.403,0-6.124,1.043-8.162,3.13
			c-2.039,2.087-3.058,5.105-3.058,9.054v4.045c0,3.949,1.019,6.967,3.058,9.053c2.038,2.088,4.759,3.131,8.162,3.131
			c1.445,0,2.705-0.081,3.781-0.241c1.075-0.161,1.95-0.321,2.624-0.482c0.353-0.096,0.61-0.216,0.771-0.361
			C142.787,192.571,142.868,192.322,142.868,191.969 M119.174,192.354v-16.037c0-1.508-0.12-2.929-0.361-4.261
			c-0.241-1.332-0.674-2.488-1.3-3.468c-0.626-0.979-1.493-1.758-2.601-2.335c-1.107-0.578-2.528-0.867-4.262-0.867
			c-1.541,0-2.906,0.186-4.093,0.558c-1.188,0.372-2.44,1.027-3.756,1.965v-1.167c0-0.258-0.097-0.485-0.289-0.679
			c-0.193-0.194-0.418-0.292-0.675-0.292h-5.393c-0.258,0-0.482,0.096-0.674,0.289c-0.193,0.193-0.289,0.418-0.289,0.674v25.62
			c0,0.257,0.103,0.49,0.313,0.698c0.208,0.209,0.441,0.313,0.698,0.313h5.827c0.257,0,0.482-0.104,0.674-0.312
			c0.193-0.208,0.289-0.44,0.289-0.697v-18.932c0.835-0.448,1.621-0.816,2.36-1.104c0.738-0.289,1.46-0.433,2.167-0.433
			c0.738,0,1.34,0.072,1.806,0.217c0.465,0.144,0.826,0.392,1.083,0.745c0.257,0.352,0.434,0.816,0.53,1.392
			c0.096,0.577,0.145,1.282,0.145,2.115v16c0,0.257,0.096,0.489,0.289,0.697c0.192,0.208,0.416,0.312,0.674,0.312h5.827
			c0.256,0,0.489-0.104,0.698-0.313C119.07,192.844,119.174,192.611,119.174,192.354 M82.045,186.864
			c-0.578,0.289-1.197,0.538-1.854,0.746c-0.659,0.21-1.357,0.313-2.095,0.313c-1.028,0-1.79-0.144-2.288-0.433
			s-0.746-0.947-0.746-1.974v-0.434c0-0.578,0.064-1.091,0.193-1.541c0.128-0.449,0.353-0.819,0.674-1.108
			c0.32-0.288,0.754-0.505,1.3-0.65c0.546-0.144,1.236-0.216,2.071-0.216h2.745V186.864z M89.702,175.21
			c0-1.765-0.265-3.267-0.795-4.503c-0.529-1.235-1.276-2.247-2.239-3.034c-0.963-0.786-2.143-1.364-3.54-1.733
			c-1.396-0.369-2.961-0.554-4.695-0.554c-1.606,0-3.171,0.113-4.695,0.337c-1.526,0.225-2.738,0.45-3.636,0.674
			c-0.61,0.161-0.915,0.514-0.915,1.059v3.901c0,0.322,0.08,0.547,0.241,0.674c0.16,0.129,0.368,0.193,0.626,0.193h0.24
			c0.386-0.032,0.867-0.072,1.445-0.12c0.578-0.048,1.228-0.088,1.951-0.121c0.722-0.031,1.476-0.055,2.263-0.072
			c0.786-0.016,1.565-0.024,2.336-0.024c1.123,0,2.006,0.209,2.648,0.626c0.642,0.418,0.963,1.317,0.963,2.697v1.734h-2.6
			c-4.142,0-7.152,0.65-9.03,1.95c-1.878,1.3-2.817,3.363-2.817,6.188v0.434c0,1.573,0.233,2.889,0.698,3.948
			c0.465,1.06,1.084,1.911,1.854,2.553c0.771,0.642,1.645,1.1,2.625,1.372c0.979,0.273,1.999,0.41,3.058,0.41
			c1.445,0,2.689-0.193,3.732-0.578c1.043-0.385,2.03-0.915,2.962-1.589v0.77c0,0.257,0.096,0.482,0.289,0.674
			c0.193,0.193,0.417,0.289,0.674,0.289h5.394c0.256,0,0.481-0.096,0.674-0.289c0.193-0.192,0.289-0.417,0.289-0.674V175.21z
			 M55.318,182.819c0,1.348-0.474,2.392-1.421,3.13c-0.947,0.739-2.657,1.108-5.129,1.108h-0.794c-0.37,0-0.755-0.008-1.156-0.024
			c-0.402-0.016-0.787-0.025-1.156-0.025H44.82v-9.005h5.393c1.926,0,3.258,0.426,3.997,1.276c0.738,0.851,1.108,1.854,1.108,3.01
			V182.819z M55.125,168.468c0,0.514-0.08,1.004-0.241,1.469c-0.161,0.465-0.425,0.866-0.794,1.204
			c-0.37,0.337-0.867,0.61-1.493,0.818c-0.626,0.209-1.421,0.313-2.384,0.313H44.82v-8.331c0.16,0,0.409-0.008,0.746-0.024
			c0.337-0.016,0.69-0.024,1.059-0.024h1.06h0.794c2.472,0,4.198,0.313,5.177,0.939c0.979,0.626,1.469,1.597,1.469,2.913V168.468z
			 M63.312,182.289c0-1.669-0.394-3.114-1.18-4.334c-0.787-1.22-1.822-2.151-3.106-2.793c1.284-0.642,2.279-1.59,2.986-2.842
			c0.706-1.252,1.059-2.664,1.059-4.237v-0.867c0-1.927-0.369-3.532-1.107-4.816c-0.739-1.284-1.775-2.312-3.107-3.082
			c-1.332-0.771-2.93-1.324-4.791-1.662c-1.863-0.337-3.933-0.505-6.213-0.505c-0.77,0-1.573,0.016-2.407,0.048
			c-0.836,0.032-1.646,0.072-2.432,0.12c-0.787,0.048-1.51,0.105-2.167,0.169c-0.659,0.065-1.197,0.129-1.614,0.192
			c-0.931,0.162-1.589,0.45-1.974,0.867c-0.385,0.418-0.578,1.173-0.578,2.264v29.28c0,1.091,0.2,1.846,0.602,2.263
			c0.401,0.418,1.083,0.706,2.047,0.867c0.481,0.096,1.059,0.176,1.733,0.241c0.674,0.064,1.404,0.12,2.191,0.168
			s1.597,0.088,2.432,0.121c0.835,0.031,1.653,0.048,2.456,0.048c2.087,0,4.053-0.161,5.9-0.482c1.845-0.32,3.45-0.891,4.815-1.71
			c1.365-0.818,2.448-1.926,3.251-3.322c0.802-1.397,1.204-3.155,1.204-5.274V182.289z"/>
		<g>
			<path d="M257.874,64.475h-72.238l-44.594,50.767H59.7l23.448-26.217H72.255H57.028h-8.53c-6.499,0-11.817,5.453-11.817,12.117
				v0.001v23.4v2.166c0,6.665,5.318,12.118,11.817,12.118h3.32h119.984h8.889c6.499,0,15.377-4.05,19.729-9l20.601-23.432
				L257.874,64.475z"/>
			<path d="M277.595,37.144H145.793c-6.499,0-15.389,4.039-19.756,8.976l-57.819,65.377h70.499l45.022-50.645h82.4l-22.849,26.094
				h34.306c6.499,0,11.817-5.454,11.817-12.118V49.262C289.412,42.597,284.094,37.144,277.595,37.144z"/>
		</g>
	</g>
</g>
</svg>
