<?xml version="1.0" standalone="no"?>
<!DOCTYPE svg PUBLIC "-//W3C//DTD SVG 20010904//EN"
 "http://www.w3.org/TR/2001/REC-SVG-20010904/DTD/svg10.dtd">
<svg version="1.0" xmlns="http://www.w3.org/2000/svg"
 width="450.000000pt" height="345.000000pt" viewBox="0 0 450.000000 345.000000"
 preserveAspectRatio="xMidYMid meet">
<metadata>
Created by potrace 1.13, written by Peter Selinger 2001-2015
</metadata>
<g transform="translate(0.000000,345.000000) scale(0.100000,-0.100000)"
fill="#000000" stroke="none">
<path d="M241 3434 c-30 -8 -69 -23 -86 -34 -51 -32 -110 -102 -131 -156 -18
-47 -19 -97 -19 -1524 l0 -1475 24 -53 c31 -68 113 -144 183 -169 51 -17 139
-18 2043 -18 l1990 0 62 29 c72 33 134 94 166 164 l22 47 0 1480 0 1480 -28
57 c-34 68 -108 139 -175 165 -45 17 -130 18 -2022 20 -1706 2 -1982 0 -2029
-13z m3992 -148 c50 -18 76 -42 98 -91 18 -38 19 -104 19 -1470 0 -1371 -1
-1432 -19 -1471 -22 -48 -60 -80 -111 -94 -25 -7 -695 -9 -1991 -8 -1839 3
-1956 4 -1986 20 -18 10 -45 35 -60 55 l-28 36 -3 1436 c-1 790 0 1450 3 1467
8 43 62 102 110 119 59 21 3910 21 3968 1z"/>
<path d="M973 2820 c-269 -30 -495 -215 -579 -475 -23 -69 -27 -102 -32 -248
-5 -186 6 -284 43 -383 71 -188 234 -345 435 -415 63 -23 76 -23 501 -27 492
-4 512 -2 654 68 236 115 385 353 385 614 l0 76 -505 0 c-498 0 -505 0 -505
20 0 20 7 20 505 20 l505 0 0 73 c-1 307 -209 574 -515 660 -63 18 -108 20
-445 23 -206 1 -407 -1 -447 -6z"/>
<path d="M2410 2450 l0 -380 678 0 c395 0 706 5 746 10 130 19 239 100 294
218 24 50 27 70 27 157 0 89 -3 106 -28 157 -39 79 -104 143 -185 181 l-67 32
-732 3 -733 3 0 -381z"/>
<path d="M2410 1650 l0 -381 728 3 727 3 57 23 c76 31 161 109 201 186 30 57
32 67 32 166 0 94 -3 111 -27 160 -31 63 -94 131 -153 165 -92 54 -102 55
-862 55 l-703 0 0 -380z"/>
<path d="M1430 955 c0 -19 -4 -35 -10 -35 -5 0 -10 -11 -10 -25 0 -14 5 -25
10 -25 6 0 10 -59 10 -157 0 -87 4 -163 8 -169 15 -23 53 -34 116 -34 64 0 66
1 66 25 0 24 -3 25 -58 25 -32 0 -63 5 -70 12 -8 8 -12 57 -12 155 l0 143 70
0 c68 0 70 1 70 25 0 24 -2 25 -70 25 l-70 0 0 35 c0 31 -3 35 -25 35 -22 0
-25 -4 -25 -35z"/>
<path d="M2380 750 l0 -240 25 0 c21 0 25 5 25 32 l0 31 23 -21 c60 -57 153
-67 236 -26 199 100 125 397 -99 397 -60 0 -90 -11 -132 -51 l-28 -26 0 72 c0
70 -1 72 -25 72 l-25 0 0 -240z m299 103 c47 -35 71 -81 71 -135 0 -100 -53
-159 -149 -166 -65 -4 -109 19 -148 77 -55 81 -9 212 83 241 43 14 112 5 143
-17z"/>
<path d="M2830 750 l0 -240 25 0 25 0 0 240 0 240 -25 0 -25 0 0 -240z"/>
<path d="M486 916 c-167 -62 -184 -314 -26 -393 83 -42 179 -21 231 50 35 48
36 57 6 57 -13 0 -37 -15 -56 -35 -37 -40 -65 -50 -123 -42 -122 16 -167 194
-72 284 62 58 149 53 202 -13 28 -35 72 -47 72 -19 0 20 -57 83 -90 100 -43
22 -101 27 -144 11z"/>
<path d="M903 920 c-58 -12 -81 -26 -103 -63 -28 -45 -26 -67 5 -67 18 0 26 7
31 25 11 44 49 65 119 65 72 0 102 -17 111 -66 9 -47 -12 -60 -117 -73 -106
-14 -150 -29 -173 -62 -20 -30 -21 -81 0 -120 38 -74 205 -81 268 -10 l19 21
18 -30 c15 -24 26 -30 54 -30 27 0 35 4 35 18 0 9 -10 22 -22 27 -22 10 -23
16 -28 156 -5 155 -9 168 -59 193 -36 19 -108 26 -158 16z m163 -276 c-8 -41
-64 -91 -112 -100 -113 -21 -195 84 -102 132 17 9 69 22 116 30 47 7 88 16 91
20 9 9 13 -45 7 -82z"/>
<path d="M1757 917 c-170 -54 -204 -288 -55 -380 91 -56 191 -45 265 30 49 48
55 73 19 73 -16 0 -32 -11 -45 -29 -43 -60 -133 -78 -201 -40 -34 20 -80 81
-80 108 0 8 56 11 185 11 l185 0 0 23 c0 134 -147 244 -273 204z m142 -64 c30
-23 71 -80 71 -99 0 -11 -32 -14 -156 -14 l-155 0 6 23 c12 36 51 83 87 101
41 21 110 16 147 -11z"/>
<path d="M3067 917 c-52 -16 -103 -60 -128 -109 -17 -33 -20 -55 -17 -108 5
-86 38 -138 111 -175 87 -43 174 -28 245 42 48 48 54 73 18 73 -16 0 -32 -11
-45 -29 -44 -61 -141 -79 -202 -38 -35 24 -79 81 -79 103 0 11 36 14 186 14
l187 0 -6 45 c-13 88 -69 156 -151 180 -58 17 -68 18 -119 2z m142 -64 c30
-23 71 -80 71 -99 0 -11 -31 -14 -155 -14 -85 0 -155 2 -155 5 0 3 9 23 20 45
18 35 54 68 90 83 27 12 102 0 129 -20z"/>
<path d="M3888 914 c-95 -29 -162 -148 -139 -247 22 -92 114 -167 206 -167 56
0 144 45 172 89 30 44 29 51 -4 51 -20 0 -33 -8 -44 -28 -9 -16 -32 -36 -51
-45 -92 -44 -200 3 -223 96 l-7 27 187 0 187 0 -7 47 c-9 62 -25 92 -73 135
-27 24 -56 39 -91 47 -61 13 -54 13 -113 -5z m151 -61 c30 -23 71 -80 71 -99
0 -11 -32 -14 -156 -14 -138 0 -155 2 -150 16 3 9 6 19 6 24 0 17 55 73 85 86
39 18 110 12 144 -13z"/>
<path d="M1210 715 l0 -205 30 0 30 0 0 144 c0 161 8 183 75 207 26 10 35 19
35 36 0 13 -4 23 -9 23 -21 0 -67 -22 -88 -42 l-23 -21 0 31 c0 27 -4 32 -25
32 l-25 0 0 -205z"/>
<path d="M3361 763 c4 -162 14 -194 72 -237 41 -30 173 -31 213 0 55 41 68 85
72 242 l4 142 -26 0 -26 0 0 -99 c0 -199 -31 -261 -130 -261 -40 0 -56 5 -80
28 -40 35 -49 78 -50 220 l0 112 -26 0 -26 0 3 -147z"/>
</g>
</svg>
