<?xml version="1.0" encoding="utf-8"?>
<!-- Generator: Adobe Illustrator 19.2.1, SVG Export Plug-In . SVG Version: 6.00 Build 0)  -->
<svg version="1.1" id="Calque_1" xmlns="http://www.w3.org/2000/svg" xmlns:xlink="http://www.w3.org/1999/xlink" x="0px" y="0px"
	 viewBox="0 0 53.3 39.3" style="enable-background:new 0 0 53.3 39.3;" xml:space="preserve">
<style type="text/css">
	.st0{fill:url(#SVGID_2_);}
	.st1{fill:#FFFFFF;}
</style>
<linearGradient id="SVGID_1_" gradientUnits="userSpaceOnUse" x1="0" y1="56.6904" x2="0.7071" y2="55.9833">
	<stop  offset="0" style="stop-color:#259E2E"/>
	<stop  offset="0.9831" style="stop-color:#1C381D"/>
</linearGradient>
<linearGradient id="SVGID_2_" gradientUnits="userSpaceOnUse" x1="-160.0515" y1="-139.5578" x2="-158.5959" y2="-139.5578" gradientTransform="matrix(0 26.9963 -0.8337 0 -89.6816 4320.7969)">
	<stop  offset="0" style="stop-color:#1B1F46"/>
	<stop  offset="0.3515" style="stop-color:#1B1F46"/>
	<stop  offset="0.4737" style="stop-color:#2E467E"/>
	<stop  offset="0.5515" style="stop-color:#3665A9"/>
	<stop  offset="0.5925" style="stop-color:#3665A8"/>
	<stop  offset="0.6315" style="stop-color:#3565A2"/>
	<stop  offset="0.6697" style="stop-color:#336699"/>
	<stop  offset="0.7074" style="stop-color:#30668C"/>
	<stop  offset="0.7448" style="stop-color:#2D667A"/>
	<stop  offset="0.7819" style="stop-color:#296663"/>
	<stop  offset="0.8181" style="stop-color:#256449"/>
	<stop  offset="0.8485" style="stop-color:#216230"/>
	<stop  offset="1" style="stop-color:#216230"/>
</linearGradient>
<rect x="0" class="st0" width="53.3" height="39.3"/>
<path class="st1" d="M16.4,18.8h11.4c-0.1-2.3-0.7-4.6-2.4-6.1c-2.1-1.8-5.7-2.4-9-2.4c-3.4,0-7.1,0.7-9.2,2.6
	C5.4,14.5,5,17.2,5,19.6c0,2.5,0.8,5.4,2.7,7.1c2.1,1.8,5.5,2.2,8.7,2.2c3.2,0,6.6-0.5,8.6-2.2c2.1-1.7,2.8-4.5,2.8-7.1c0,0,0,0,0,0
	H16.4V18.8z"/>
<path class="st1" d="M28.6,19.5v8.9h15.9v0c2.3-0.1,4.2-2,4.2-4.4c0-2.4-1.9-4.4-4.2-4.5v0H28.6z"/>
<path class="st1" d="M48.4,14.7c0-2.3-1.8-4.1-4.1-4.1c-0.2,0-0.3,0-0.5,0H28.6v8.2h16C46.7,18.6,48.4,16.8,48.4,14.7z"/>
</svg>
