<?xml version="1.0" standalone="no"?>
<!DOCTYPE svg PUBLIC "-//W3C//DTD SVG 20010904//EN"
 "http://www.w3.org/TR/2001/REC-SVG-20010904/DTD/svg10.dtd">
<svg version="1.0" xmlns="http://www.w3.org/2000/svg"
 width="800.000000pt" height="799.000000pt" viewBox="0 0 800.000000 799.000000"
 preserveAspectRatio="xMidYMid meet">
<metadata>
Created by potrace 1.13, written by Peter Selinger 2001-2015
</metadata>
<g transform="translate(0.000000,799.000000) scale(0.100000,-0.100000)"
fill="#000000" stroke="none">
<path d="M445 6426 c-125 -31 -229 -116 -287 -234 l-33 -67 -3 -2115 c-2
-2112 -2 -2114 18 -2176 41 -122 137 -222 257 -267 l58 -22 3540 0 c3412 0
3542 1 3595 18 125 43 227 145 269 269 l21 62 0 2096 c0 2078 0 2097 -20 2156
-50 146 -168 251 -318 283 -81 17 -7028 14 -7097 -3z m7167 -73 c81 -38 146
-102 185 -181 l28 -57 3 -1512 2 -1513 -3830 0 -3830 0 2 1513 3 1512 28 57
c51 104 155 187 261 208 22 4 1625 7 3561 6 l3520 -1 67 -32z m215 -4448 c-16
-114 -101 -224 -215 -278 l-67 -32 -3545 0 -3545 0 -67 32 c-114 54 -199 164
-215 278 l-6 45 3833 0 3833 0 -6 -45z"/>
<path d="M835 5953 c-126 -85 -272 -184 -324 -219 l-94 -63 309 -204 c170
-112 319 -209 332 -216 l22 -12 0 436 c0 239 -3 435 -7 434 -5 0 -111 -70
-238 -156z m191 -630 c-4 -4 -536 340 -536 347 0 3 121 85 268 182 l267 178 3
-352 c1 -193 1 -353 -2 -355z"/>
<path d="M2575 6070 c-123 -5 -160 -10 -205 -29 -224 -92 -380 -300 -380 -505
l0 -49 903 7 c981 8 996 8 1187 -46 136 -38 208 -77 298 -162 90 -86 156 -184
199 -296 18 -47 32 -76 33 -65 0 41 21 433 26 503 l6 72 524 0 c413 0 524 -3
524 -12 0 -7 -5 -44 -10 -83 -14 -111 -52 -587 -47 -592 5 -4 248 285 444 527
55 69 110 133 121 143 19 17 61 19 656 24 l636 6 0 41 c0 209 -195 444 -420
507 -35 10 -500 13 -2195 14 -1182 1 -2217 -1 -2300 -5z"/>
<path d="M1180 5930 c0 -18 8 -20 136 -22 l137 -3 -137 -85 c-110 -68 -136
-89 -136 -107 0 -23 0 -23 170 -23 162 0 170 1 170 20 0 18 -8 20 -132 22
l-133 3 130 80 c110 68 130 84 133 108 l3 27 -170 0 c-164 0 -171 -1 -171 -20z"/>
<path d="M1182 5537 c3 -76 8 -99 26 -124 61 -86 251 -82 297 7 10 20 15 58
15 120 l0 90 -171 0 -171 0 4 -93z m298 -21 c0 -59 -2 -66 -31 -90 -25 -22
-41 -26 -89 -26 -103 0 -140 34 -140 130 l0 50 130 0 130 0 0 -64z"/>
<path d="M7363 5372 c-132 -121 -572 -581 -573 -598 -1 -33 635 -835 689 -869
8 -4 11 230 11 784 0 435 -2 791 -5 791 -2 0 -57 -49 -122 -108z"/>
<path d="M1180 5181 l0 -129 50 -17 50 -17 0 -64 0 -64 -50 0 -50 0 0 -115 c0
-108 1 -115 20 -115 19 0 20 7 20 90 l0 90 60 0 60 0 0 -80 c0 -73 2 -80 20
-80 18 0 20 7 20 80 l0 80 50 0 50 0 0 -90 c0 -83 1 -90 20 -90 19 0 20 7 20
153 l0 152 -150 60 -150 60 0 88 0 87 150 0 150 0 0 25 0 25 -170 0 -170 0 0
-129z"/>
<path d="M753 4905 c-178 -119 -323 -221 -323 -226 0 -15 637 -435 646 -426 2
2 3 198 2 436 l-3 432 -322 -216z m273 -573 c-3 -2 -125 73 -271 168 -164 107
-262 177 -256 183 5 5 125 86 267 181 l259 173 3 -350 c1 -193 0 -352 -2 -355z"/>
<path d="M3021 4848 c-1 -35 -8 -128 -16 -208 -8 -79 -12 -146 -10 -148 1 -2
92 -4 201 -5 188 -1 202 0 259 22 77 31 159 110 175 171 27 100 -59 192 -204
219 -33 6 -137 11 -231 11 l-172 0 -2 -62z"/>
<path d="M5616 4679 c-6 -31 -24 -372 -33 -621 l-6 -198 -525 0 -524 0 6 43
c7 43 46 566 46 602 0 11 -15 -11 -32 -50 -49 -111 -108 -211 -165 -279 -107
-129 -276 -231 -468 -283 l-100 -27 -912 -4 -913 -3 0 -42 c1 -228 195 -461
434 -522 51 -13 334 -14 2305 -9 1848 5 2258 9 2316 20 210 41 385 217 430
432 8 37 15 82 15 100 l0 33 -642 -2 -642 -1 -19 23 c-11 13 -138 197 -284
409 -146 212 -269 389 -274 394 -4 5 -10 -2 -13 -15z"/>
<path d="M1245 4616 c-41 -18 -56 -39 -66 -89 -17 -95 26 -167 101 -167 52 0
83 37 99 121 15 73 25 89 56 89 33 0 55 -31 55 -78 0 -44 -26 -82 -55 -82 -8
0 -15 -9 -15 -20 0 -22 28 -27 61 -10 57 31 67 162 15 207 -35 30 -99 32 -123
3 -10 -11 -27 -55 -38 -98 -17 -67 -24 -78 -48 -86 -22 -8 -31 -6 -48 11 -42
42 -19 163 31 163 15 0 20 7 20 25 0 28 -3 29 -45 11z"/>
<path d="M1180 4310 c0 -18 8 -20 136 -22 l137 -3 -137 -85 c-122 -76 -136
-88 -134 -110 l3 -25 168 -3 167 -2 0 24 0 25 -131 3 -132 3 129 80 c109 68
129 85 132 108 l3 27 -170 0 c-164 0 -171 -1 -171 -20z"/>
<path d="M995 4070 c-38 -26 -184 -125 -324 -219 l-253 -170 308 -204 c170
-112 319 -209 332 -216 l22 -12 0 436 c0 239 -3 435 -7 435 -5 -1 -39 -23 -78
-50z m31 -737 c-7 -7 -534 342 -529 350 3 4 123 87 266 183 l262 174 3 -352
c1 -193 1 -353 -2 -355z"/>
<path d="M1180 3875 l0 -24 135 -3 135 -3 -135 -85 c-109 -68 -135 -89 -135
-107 l0 -23 170 0 c162 0 170 1 170 20 0 18 -8 20 -132 22 l-133 3 130 81
c118 73 130 83 133 112 l3 32 -170 0 -171 0 0 -25z"/>
<path d="M1250 3558 c-54 -37 -72 -69 -72 -128 0 -37 6 -60 21 -81 26 -35 26
-35 0 -42 -12 -3 -19 -12 -17 -19 3 -9 29 -13 94 -13 l89 0 3 73 c3 67 1 72
-18 72 -17 0 -20 -6 -20 -50 0 -48 -1 -50 -29 -50 -33 0 -80 42 -83 74 -3 48
5 82 25 104 56 61 203 47 235 -23 7 -14 12 -41 12 -59 0 -36 -32 -86 -56 -86
-8 0 -14 -10 -14 -25 0 -30 5 -31 48 -5 88 54 80 203 -14 257 -55 32 -158 32
-204 1z"/>
</g>
</svg>
