<?xml version="1.0" encoding="iso-8859-1"?>
<!-- Generator: Adobe Illustrator 16.0.0, SVG Export Plug-In . SVG Version: 6.00 Build 0)  -->
<!DOCTYPE svg PUBLIC "-//W3C//DTD SVG 1.1//EN" "http://www.w3.org/Graphics/SVG/1.1/DTD/svg11.dtd">
<svg version="1.1" id="Layer_1" xmlns="http://www.w3.org/2000/svg" xmlns:xlink="http://www.w3.org/1999/xlink" x="0px" y="0px"
	 width="192.756px" height="192.756px" viewBox="0 0 192.756 192.756" style="enable-background:new 0 0 192.756 192.756;"
	 xml:space="preserve">
<g>
	<polygon style="fill-rule:evenodd;clip-rule:evenodd;fill:#FFFFFF;" points="0,0 192.756,0 192.756,192.756 0,192.756 0,0 	"/>
	<path style="fill-rule:evenodd;clip-rule:evenodd;fill:#FFFFFF;" d="M179.695,154.777c5.316,0,9.627-4.309,9.627-9.627V47.605
		c0-5.316-4.311-9.627-9.627-9.627H13.061c-5.316,0-9.627,4.311-9.627,9.627v97.545c0,5.318,4.311,9.627,9.627,9.627H179.695
		L179.695,154.777z"/>
	<path d="M179.695,154.178c2.492,0,4.75-1.01,6.383-2.643c1.635-1.635,2.645-3.891,2.645-6.385V47.605
		c0-2.493-1.01-4.75-2.645-6.383c-1.633-1.633-3.891-2.644-6.383-2.644H13.061c-2.492,0-4.75,1.011-6.384,2.644
		c-1.633,1.633-2.644,3.891-2.644,6.383v97.545c0,2.494,1.01,4.75,2.644,6.385c1.634,1.633,3.892,2.643,6.384,2.643H179.695
		L179.695,154.178z M179.695,155.377H13.061c-2.823,0-5.38-1.145-7.231-2.994c-1.851-1.852-2.996-4.408-2.996-7.232V47.605
		c0-2.823,1.145-5.38,2.996-7.23c1.851-1.851,4.408-2.996,7.231-2.996h166.634c2.824,0,5.381,1.145,7.23,2.996
		c1.852,1.85,2.996,4.407,2.996,7.23v97.545c0,2.824-1.145,5.381-2.996,7.232C185.076,154.232,182.52,155.377,179.695,155.377
		L179.695,155.377z"/>
	<path style="fill-rule:evenodd;clip-rule:evenodd;fill:#CC2229;" d="M158.113,46.025c5.166,0.456,11.168-0.988,15.42,1.747
		c4.256,2.431,7.217,6.913,6.99,12.078l-30.613,0.076c-0.514,0.208-0.836,0.987-1.443,1.443
		c-4.254,5.242-8.508,10.559-12.914,15.648c0.531-5.622,0.777-11.414,1.537-17.035l-25.314-0.057
		c-0.17,5.051-0.455,10.027-0.76,14.813c-1.139-5.47-5.621-11.471-11.318-13.066c-2.658-0.835-5.165-1.443-7.976-1.595L47.966,60.23
		c0,0.076-0.152,0.076-0.152,0c-0.076-4.862,2.279-9.268,6.533-11.927c1.823-1.063,3.797-2.035,6.001-2.187L158.113,46.025
		L158.113,46.025z"/>
	<path style="fill-rule:evenodd;clip-rule:evenodd;" d="M25.937,66.307c-5.241-3.342-10.635-6.837-15.876-10.483l15.801-10.559
		l0.076,0.076V66.307L25.937,66.307z M11.694,55.919l13.18,8.565V47.088L11.694,55.919L11.694,55.919z"/>
	<path style="fill-rule:evenodd;clip-rule:evenodd;fill:#CC2229;" d="M180.523,98.744c0,0.076-0.076,0.076,0,0.15
		c-6.152-6.684-11.699-14.052-17.092-21.269l0.076-0.304c5.545-5.773,10.711-11.774,16.863-16.94l0.152,0.076V98.744L180.523,98.744
		z"/>
	<path style="fill-rule:evenodd;clip-rule:evenodd;fill:#CC2229;" d="M87.695,78.461c0.076,1.823-1.14,3.267-2.507,4.406
		c-3.495,2.659-8.622,1.387-13.142,1.595l0.835-10.331C77.421,74.473,86.157,72.574,87.695,78.461L87.695,78.461z"/>
	<path style="fill-rule:evenodd;clip-rule:evenodd;fill:#CC2229;" d="M148.617,98.061c0.494,1.67,1.92,1.291,3.268,1.291h28.562
		c0.229,5.316-3.039,10.635-8.053,12.762c-1.898,0.836-4.025,1.215-6.229,1.215h-47.934l-58.036,0.152
		c-4.786-0.381-9.571-4.025-11.395-8.584c-0.608-1.596-0.987-3.494-0.987-5.318l42.843-0.227c6.458-0.76,12.686-3.571,16.485-9.572
		c1.367-2.203,2.43-4.482,3.342-6.837c-0.455,5.47-0.684,11.091-1.291,16.635c8.127-0.076,25.145,0,25.145,0
		c0.15-6.835,0.531-13.977,0.986-20.737L148.617,98.061L148.617,98.061z"/>
	<polygon style="fill-rule:evenodd;clip-rule:evenodd;" points="189.078,145.441 189.078,118.031 3.286,118.031 3.286,145.441 
		189.078,145.441 	"/>
	<path style="fill-rule:evenodd;clip-rule:evenodd;" d="M25.937,90.235c-5.241-3.342-10.635-6.836-15.876-10.482l15.801-10.559
		l0.076,0.076V90.235L25.937,90.235z M11.694,79.848l13.18,8.565V71.017L11.694,79.848L11.694,79.848z"/>
	<path style="fill-rule:evenodd;clip-rule:evenodd;" d="M25.937,114.26c-5.241-3.344-10.635-6.838-15.876-10.484l15.801-10.558
		l0.076,0.076V114.26L25.937,114.26z M11.694,103.871l13.18,8.564V95.041L11.694,103.871L11.694,103.871z"/>
	<polygon style="fill-rule:evenodd;clip-rule:evenodd;" points="28.52,47.554 28.52,46.448 36.698,46.448 36.698,47.554 
		28.52,47.554 	"/>
	<polygon style="fill-rule:evenodd;clip-rule:evenodd;" points="36.697,54.464 36.697,55.538 28.521,55.538 28.521,54.292 
		35.123,50.129 35.123,50.106 28.521,50.106 28.521,49.033 36.697,49.033 36.697,50.346 30.095,54.441 30.095,54.464 36.697,54.464 
			"/>
	<path style="fill-rule:evenodd;clip-rule:evenodd;" d="M35.747,58.015v2.062c0,1.504-1.035,2.45-3.093,2.45
		c-2.059,0-3.184-0.935-3.184-2.37v-2.142H35.747L35.747,58.015z M28.521,56.91v3.271c0,2.688,2.371,3.486,4.201,3.486
		c2.354,0,3.975-1.31,3.975-3.441V56.91H28.521L28.521,56.91z"/>
	<polygon style="fill-rule:evenodd;clip-rule:evenodd;" points="29.501,65.768 29.501,69.915 28.521,69.915 28.521,64.662 
		36.698,64.662 36.698,65.768 29.501,65.768 	"/>
	<path style="fill-rule:evenodd;clip-rule:evenodd;" d="M31.874,74.712v-2.62l3.843,1.515v1.105H31.874L31.874,74.712z
		 M30.894,71.693v3.02h-2.373v5.629h0.98v-4.523h2.734v4.057h0.98v-4.057h2.5v4.444h0.98v-7.338l-8.176-3.327v1.197L30.894,71.693
		L30.894,71.693z"/>
	<path style="fill-rule:evenodd;clip-rule:evenodd;" d="M34.304,86.287c1.264-0.057,1.662-1.107,1.662-2.032
		c0-0.696-0.194-1.872-1.435-1.872c-0.694,0-0.922,0.491-1.035,0.97l-0.535,2.335c-0.25,1.061-0.888,1.86-2.185,1.86
		c-1.936,0-2.474-1.804-2.474-3.207c0-1.517,0.458-2.11,0.789-2.474c0.627-0.69,1.31-0.827,2.072-0.827v1.03
		c-1.479,0-1.912,1.209-1.912,2.259c0,0.798,0.205,2.144,1.377,2.144c0.854,0,1.127-0.399,1.445-1.741l0.387-1.678
		c0.125-0.536,0.501-1.747,1.923-1.747c1.275,0,2.531,0.834,2.531,2.82c0,2.859-1.712,3.142-2.611,3.187V86.287L34.304,86.287z"/>
	<polygon style="fill-rule:evenodd;clip-rule:evenodd;" points="36.697,93.504 36.697,94.579 28.521,94.579 28.521,93.333 
		35.123,89.17 35.123,89.147 28.521,89.147 28.521,88.074 36.697,88.074 36.697,89.387 30.095,93.482 30.095,93.504 36.697,93.504 	
		"/>
	<polygon style="fill-rule:evenodd;clip-rule:evenodd;" points="28.52,97.166 28.52,96.061 36.698,96.061 36.698,97.166 
		28.52,97.166 	"/>
	<polygon style="fill-rule:evenodd;clip-rule:evenodd;" points="36.697,104.076 36.697,105.148 28.521,105.148 28.521,103.904 
		35.123,99.74 35.123,99.719 28.521,99.719 28.521,98.645 36.697,98.645 36.697,99.957 30.095,104.053 30.095,104.076 
		36.697,104.076 	"/>
	<path style="fill-rule:evenodd;clip-rule:evenodd;" d="M32.904,110.035v3.586H28.52v-0.713l1.062-0.26
		c-0.777-0.559-1.28-1.586-1.28-2.705c0-1.404,0.515-2.088,0.926-2.51c1.187-1.254,2.589-1.289,3.458-1.289
		c1.988,0,4.229,1.209,4.229,3.879c0,1.529-0.867,3.225-2.695,3.461v-1.064c1.419-0.354,1.714-1.553,1.714-2.453
		c0-1.473-1.169-2.682-3.305-2.682c-1.667,0-3.378,0.547-3.378,2.727c0,0.41,0.046,1.072,0.524,1.678
		c0.571,0.719,1.3,0.902,2.179,0.902v-2.557H32.904L32.904,110.035z"/>
	<path style="fill-rule:evenodd;clip-rule:evenodd;fill:#FFFFFF;" d="M181.084,60.336c0,0.1-0.4,0.299-0.299,0H181.084
		L181.084,60.336z"/>
	<polygon style="fill-rule:evenodd;clip-rule:evenodd;fill:#FFFFFF;" points="18.68,154.688 18.78,154.688 18.78,154.588 
		18.68,154.588 18.68,154.688 	"/>
</g>
</svg>
