<?xml version="1.0" encoding="utf-8"?>
<!-- Generator: Adobe Illustrator 19.2.1, SVG Export Plug-In . SVG Version: 6.00 Build 0)  -->
<svg version="1.1"
	 id="svg2" xmlns:cc="http://creativecommons.org/ns#" xmlns:dc="http://purl.org/dc/elements/1.1/" xmlns:rdf="http://www.w3.org/1999/02/22-rdf-syntax-ns#" xmlns:svg="http://www.w3.org/2000/svg"
	 xmlns="http://www.w3.org/2000/svg" xmlns:xlink="http://www.w3.org/1999/xlink" x="0px" y="0px" viewBox="0 0 495.9 144.4"
	 style="enable-background:new 0 0 495.9 144.4;" xml:space="preserve">
<style type="text/css">
	.st0{fill:#9D191E;}
	.st1{fill:#231F20;}
</style>
<g id="g10" transform="matrix(1.25,0,0,-1.25,0,237.95)">
	<g id="g12" transform="scale(0.1,0.1)">
		<path id="path14" class="st0" d="M490.5,1101.4H340.8c-122.3,0-181.4,70.1-181.4,217.1c0,138.8,64.6,207.5,192.4,207.5h138.8
			C490.5,1526,490.5,1101.4,490.5,1101.4z M490.5,1648.3H328.4c-92.1,0-162.1-19.2-211.6-57.7C42.6,1532.9,0,1429.8,0,1308.9
			c0-108.6,33-199.2,92.1-255.6c57.7-55,120.9-74.2,248.7-74.2h305v916.5H490.5V1648.3"/>
		<path id="path16" class="st0" d="M1453.3,1648.3H1331V1526h122.3v-322.9c0-96.2,13.7-142.9,50.8-180c35.7-33,74.2-44,158-44h131.9
			v122.3h-75.6c-93.4,0-109.9,17.9-109.9,122.3V1526h185.5v122.3h-185.5v247.3h-155.3L1453.3,1648.3"/>
		<path id="path18" class="st1" d="M1989.7,1526.2h127.8c130.5,0,192.4-65.9,192.4-204.7c0-78.3-17.9-140.2-50.8-174.5
			c-27.5-30.2-78.3-45.3-148.4-45.3h-120.9L1989.7,1526.2L1989.7,1526.2z M1834.5,1648.5V748.2h155.3v231.1h142.9
			c127.8,0,186.9,17.8,243.2,71.4c59.1,57.7,94.8,153.9,94.8,259.7c0,116.8-33,208.8-97.6,267.9c-59.1,53.6-114.1,70.1-243.2,70.1
			L1834.5,1648.5L1834.5,1648.5"/>
		<path id="path20" class="st1" d="M2984.6,1264.9v-163.5h-218.5c-83.8,0-116.8,22-116.8,79.7c0,37.1,16.5,64.6,44,75.6
			c16.5,6.9,31.6,8.2,72.8,8.2L2984.6,1264.9L2984.6,1264.9L2984.6,1264.9z M2752.4,1387.2c-76.9,0-126.4-6.9-158-22
			c-64.6-28.8-104.4-100.3-104.4-185.5c0-67.3,26.1-125,72.8-160.8c44-33,81.1-39.8,217.1-39.8h360v402.6
			c0,105.8-12.4,153.9-50.9,199.2c-44,52.2-94.8,67.3-235,67.3h-328.4V1526H2839c77,0,105.8-9.6,126.4-38.5
			c16.5-23.4,19.2-42.6,19.2-100.3H2752.4L2752.4,1387.2"/>
		<path id="path22" class="st1" d="M3620.6,1101.4h-160.8c-96.2,0-123.7,35.7-123.7,164.9v382h-155.3v-371
			c0-131.9,8.2-171.8,46.7-219.9c46.7-56.3,107.2-78.3,217.1-78.3h175.9c-2.8-55.2-6.9-70.3-27.5-84.1
			c-17.9-15.1-38.5-17.9-105.8-17.9h-306.4V754.9h310.5c122.3,0,175.9,15.1,219.8,59.1c44,45.3,64.6,120.9,64.6,231.1v603.2h-155.3
			V1101.4"/>
		<path id="path24" class="st0" d="M1076.6,1459.1H958.9c-3.3,0-6.3-1.3-9.1-4.2c-2.7-2.8-4.5-6.9-4.5-11.6v-99.6h144.7v99.6
			c0,4.7-1.8,8.8-4.5,11.6C1082.9,1457.7,1079.9,1459,1076.6,1459.1"/>
		<path id="path26" class="st0" d="M1167.3,1158.1c0-25.3-20.7-45.9-45.9-45.9H909.2c-25.3,0-45.9,20.7-45.9,45.9v137.8
			c0,18.9,11.6,35.2,28,42.3v103.3c0.1,36,27.9,66.8,64.9,67.1h117.6c36.9-0.3,64.8-31.1,64.9-67.1v-103
			c16.8-6.9,28.6-23.3,28.6-42.5L1167.3,1158.1L1167.3,1158.1z M1018.1,1643.8c-183.1,0-331.6-148.5-331.6-331.6
			c0-183.1,148.5-331.6,331.6-331.6c183.1,0,331.6,148.5,331.6,331.6C1349.6,1495.3,1201.1,1643.8,1018.1,1643.8"/>
		<path id="path28" class="st1" d="M3857.1,1804.3h10.3c12,0,21.7,4,21.7,13.7c0,8.6-6.3,14.3-20,14.3c-5.7,0-9.7-0.6-12-1.2
			L3857.1,1804.3L3857.1,1804.3z M3856.6,1751.7h-21.7v93.2c8.6,1.7,20.6,3.4,36,3.4c17.7,0,25.7-2.9,32.6-7.4
			c5.1-4,9.1-11.4,9.1-20c0-10.9-8-18.9-19.4-22.3v-1.2c9.1-2.8,14.3-10.3,17.1-22.9c2.9-14.3,4.6-20,6.9-22.9h-23.5
			c-2.9,3.4-4.6,11.4-7.4,22.3c-1.7,10.3-7.4,14.9-19.4,14.9h-10.3V1751.7z M3870.9,1875.2c-41.2,0-72-33.7-72-74.9
			c0-41.7,30.9-74.9,73.2-74.9c41.2-0.6,71.5,33.2,71.5,74.9c0,41.2-30.3,74.9-72,74.9H3870.9L3870.9,1875.2z M3872,1894
			c53.7,0,95.5-41.7,95.5-93.8c0-53.2-41.7-94.3-96-94.3c-53.7,0-96.6,41.2-96.6,94.3c0,52,42.9,93.8,96.6,93.8H3872"/>
	</g>
</g>
</svg>
