<?xml version="1.0" encoding="utf-8"?>
<!-- Generator: Adobe Illustrator 19.2.1, SVG Export Plug-In . SVG Version: 6.00 Build 0)  -->
<svg version="1.1" id="Layer_1" xmlns="http://www.w3.org/2000/svg" xmlns:xlink="http://www.w3.org/1999/xlink" x="0px" y="0px"
	 viewBox="0 0 200 92" style="enable-background:new 0 0 200 92;" xml:space="preserve">
<g>
	<path d="M0,46v46h100h100V46V0H100H0V46L0,46z M105,46v35H60.4H15.8l-2.9-2.9L10,75.2V46V16.8l2.9-2.9l2.9-2.9h44.6H105V46L105,46z
		 M117,37c0,1.9,0.1,1.9,1.6,0.4c4.4-4.4,12.3-2.2,14.4,4c1.7,5.1,0.6,9.9-3.1,12.9c-3.5,2.9-6.5,3.2-9.7,1c-2.2-1.6-2.2-1.6-2.2,4
		v5.6l-3.8-0.3l-3.8-0.3l-0.3-13.4c-0.2-7.4-0.1-14,0.2-14.8c0.3-0.7,1.9-1.3,3.5-1.3C116.3,35,117,35.4,117,37L117,37z M155.3,37.8
		c1.8,1.8,2.2,3.5,2.5,10.1l0.4,8h-3.6c-2,0-3.6-0.4-3.6-0.9s-1.3-0.2-2.8,0.6c-4.9,2.8-11.2-0.3-11.2-5.6c0-3.8,2.9-6.1,8.9-6.8
		c4.3-0.5,4.9-0.8,3.9-2.1c-0.9-1.1-2.5-1.3-6-0.9c-4.3,0.5-4.8,0.3-4.8-1.4c0-2.6,3.5-4,9.4-3.5C151.7,35.6,153.9,36.4,155.3,37.8
		L155.3,37.8z M169.5,41.7c1.1,3.4,2.3,6.2,2.5,6.2s1.4-2.9,2.5-6.2c1.8-5.8,2.2-6.3,5.2-6.5c1.8-0.2,3.2,0.1,3.2,0.7
		c0,3-9.5,24.9-11.6,26.8c-3.2,2.9-10.4,3.3-10.4,0.6c0-2.4,1.6-4.7,2.7-4c0.5,0.3,1.8,0,2.8-0.7c1.8-1.3,1.7-1.7-1.8-10.7
		c-2-5.1-4-10.2-4.4-11.1c-0.6-1.6-0.2-1.8,3.2-1.5C167.4,35.5,167.5,35.6,169.5,41.7L169.5,41.7z"/>
	<path d="M48,29.5c0,2.2,0.4,2.5,3.5,2.5s3.5-0.3,3.5-2.5S54.6,27,51.5,27S48,27.3,48,29.5L48,29.5z"/>
	<path d="M24.8,36.5c-5.6,3.1-6,14.2-0.6,17.9c2.8,2,8.2,2,9.8,0.1c1.9-2.2,2.8-1.8,2.2,1c-0.7,3.4-3.7,4.8-8.9,4.1
		c-4-0.6-4.3-0.4-4.3,1.8c0,2.7,2.1,3.6,8.3,3.6c4.9,0,9-2.1,10.5-5.5C42.5,58,43,52.4,43,46.4V36h-3c-2.1,0-3,0.5-3,1.6
		c0,1.6-0.1,1.6-1.8,0C32.5,35.3,27.9,34.8,24.8,36.5L24.8,36.5z M35.2,42.4c0.4,0.6,0.8,2.3,0.8,3.8c0,2-0.7,3.1-2.6,4
		c-2.3,1.1-2.8,0.9-4.5-1.1c-2.4-3-2.4-4.6,0.1-7.1C31,40,33.7,40.2,35.2,42.4L35.2,42.4z"/>
	<path d="M68.6,37.1c-2.2,1.7-2.6,1.8-2.6,0.5c0-1.1-0.9-1.6-3-1.6h-3v10v10h3.5H67v-5.3c0-6.2,2-9.7,5.6-9.7c2,0,2.4-0.5,2.4-3
		C75,34.3,72.6,34,68.6,37.1L68.6,37.1z"/>
	<path d="M82.4,36.5c-4.2,1.8-6.4,5.1-6.4,9.6c0,9.7,13,14,20.7,6.8c1.8-1.7,2.3-3.3,2.3-6.9c0-5.1-2.1-8-7.3-9.9
		C88.1,34.7,86.2,34.8,82.4,36.5L82.4,36.5z M90.8,41.2c1.6,1.6,1.6,8,0,9.6c-4.4,4.4-10-2.9-6.8-8.9C85.2,39.7,88.9,39.3,90.8,41.2
		L90.8,41.2z"/>
	<polygon points="48,46 48,56 51.5,56 55,56 55,46 55,36 51.5,36 48,36 	"/>
	<path d="M119.1,42.4c-3,3.6,0.9,10.3,4.6,8c2-1.3,2.7-3.7,1.9-7C124.9,40.6,121.1,40,119.1,42.4L119.1,42.4z"/>
	<path d="M144.3,48.5c-0.7,1.8,0.4,3.5,2.2,3.5c1.5,0,4.5-2.7,4.5-4.1C151,46.4,145,46.9,144.3,48.5L144.3,48.5z"/>
</g>
</svg>
