<?xml version="1.0" encoding="utf-8"?>
<!-- Generator: Adobe Illustrator 19.2.1, SVG Export Plug-In . SVG Version: 6.00 Build 0)  -->
<svg version="1.1" id="svg" xmlns="http://www.w3.org/2000/svg" xmlns:xlink="http://www.w3.org/1999/xlink" x="0px" y="0px"
	 viewBox="0 0 399.7 308.2" style="enable-background:new 0 0 399.7 308.2;" xml:space="preserve">
<style type="text/css">
	.st0{fill:#373737;}
	.st1{fill:#FFFFFF;}
</style>
<g id="svgg">
	<path id="path0" class="st0" d="M59.5,21.6C40.8,25,27.6,37.4,23.2,55.6c-1.2,5.2-1.3,6.7-1.3,62c0,57.5,0,58.7,1.7,58.7
		c0.5,0,1.7,0.4,2.6,0.8c2.7,1.4,6.3,2.9,7,2.9c0.4,0,1.5,0.4,2.6,0.9c1.1,0.5,3.2,1.2,4.7,1.5c1.5,0.3,3.9,0.9,5.2,1.3
		c15.9,4.2,31.2-0.1,36.2-10.3l2-4.2l0.2-28.4l0.2-28.4l1.3-0.4c3.2-0.8,35.4-0.4,36.1,0.5c1.5,1.9,0.6,59.8-1.1,63.8
		c-4,9.5-11.6,16-22.9,19.5c-1.9,0.6-4.2,1.3-5.2,1.6c-11.5,3.6-48.7,2.2-65.8-2.4c-2.3-0.6-3.8-0.8-4.2-0.4
		c-0.4,0.4-0.5,17.4-0.4,46.8l0.2,46.2l33.3,0.2c38.6,0.2,40.6,0,50.8-4.8c8.4-3.9,16.5-12,20.2-20.1c0.8-1.7,1.7-3.6,2-4.2
		c0.8-1.4,1.7-5.6,2.4-11.2c0.7-5.2,0.8-225.1,0.2-225.5C130.1,21.4,62.8,21,59.5,21.6 M182.1,21.7c-16.8,3.5-29.4,14.1-34.9,29.5
		c-2.2,6.1-2.4,9.3-2.4,40.1c0,34.4-0.3,32.5,4.7,29c16.8-11.4,51.3-14.3,84.9-7.1c2.2,0.5,4.8,1,5.7,1.2l1.7,0.4v8.6
		c0,10.5-0.1,10.6-8.9,6.1c-0.6-0.3-2.6-1-4.3-1.5c-1.7-0.5-5.2-1.5-7.8-2.2c-15-4.3-34.5-1.2-42.6,6.9
		c-13.2,13.2-10.7,37.9,4.9,47.7c4.9,3.1,17.7,5.9,23.3,5.1c1.3-0.2,4.7-0.6,7.5-1c2.8-0.3,6-0.9,7.1-1.2c1.1-0.3,4-1.2,6.3-1.9
		c2.4-0.7,5.1-1.7,6.2-2.1c8.7-3.9,8.4-4.1,8.2,6.5l-0.2,8.2l-2.8,0.8c-28.6,8.5-73.2,5.3-89.9-6.6c-1-0.7-2.4-1.3-3.1-1.3h-1.3
		v49.3c0,32.8,0.2,49.7,0.6,50.5c0.9,1.7,64.5,1.9,72.6,0.2c15.4-3.1,27.6-12.6,32.8-25.5c0.7-1.9,1.8-4.4,2.4-5.5
		c1.3-2.6,1.9-231.3,0.7-233.6C252.9,20.8,188.4,20.4,182.1,21.7 M299.2,23.5c-3.7,1.2-6.6,2.4-10.5,4.6c-4.6,2.5-13.2,12-15.5,16.9
		c-0.5,1.2-1.5,3.2-2.1,4.4c-1,2.2-1.5,4-2.8,10.4c-0.6,3.1-0.8,48.2-0.2,50.4l0.4,1.4l36.7-0.2c34-0.2,36.9-0.1,38.8,0.9
		c1.2,0.6,2.5,1.1,3.1,1.1c1.3,0,8.5,5,9.3,6.5c1.4,2.6,2.2,3.9,3,4.8c1.2,1.5,1.1,13.7-0.2,15.1c-0.5,0.6-1,1.6-1,2.1
		c0,2.5-8.7,9.3-14.2,11.1c-0.5,0.2,0,0.3,1.1,0.4c3.4,0.1,11,3.7,14.1,6.7c2.4,2.3,5.1,6,5.1,7.1c0,0.4,0.4,1.3,0.9,1.9
		c0.6,0.8,0.9,2.7,0.9,5.6s-0.3,4.8-0.9,5.6c-0.5,0.7-0.9,1.8-0.9,2.5c0,1.4-4.3,7.6-5.3,7.7c-0.3,0-1.1,0.6-1.7,1.3
		c-0.6,0.7-1.4,1.2-1.9,1.2c-0.5,0-1,0.4-1.2,0.9c-0.2,0.5-1,0.9-1.8,0.9c-0.8,0-1.8,0.4-2.3,0.9c-0.4,0.5-1.8,0.9-3.1,0.9
		c-1.3,0-3.1,0.3-4.1,0.7c-1.3,0.5-11.3,0.7-38.4,0.8l-36.7,0v44.5c0,24.5,0.2,44.6,0.4,44.9c1.7,1.7,74.4-1.2,78-3
		c1-0.5,2.3-0.9,2.9-0.9c0.6,0,1.5-0.4,2-0.9c0.5-0.5,1.5-0.9,2.1-0.9c0.7,0,1.4-0.4,1.6-0.9c0.2-0.5,0.6-0.9,1-0.9
		c0.7,0,1.1-0.3,6.8-5.6c2.3-2.2,4.2-4.2,4.2-4.4c0-0.3,0.8-1.6,1.8-2.8c1-1.3,2-3,2.2-3.9s0.7-1.7,1-1.7c0.3,0,0.7-1.1,0.9-2.5
		c0.2-1.3,0.8-2.8,1.2-3.2c0.7-0.6,0.8-19,0.8-116.7V23l-16.7-0.4C324.8,21.8,303.8,22.1,299.2,23.5 M290.3,126.5
		c-0.2,0.4-0.2,4.9-0.1,10l0.2,9.2h13.3c12.5,0,13.4-0.1,15.3-1.3c7.5-4.8,5.4-16.9-3.2-18.2C309.8,125.4,290.6,125.6,290.3,126.5
		 M290.3,161c-0.2,0.5-0.2,5.4-0.2,11l0.2,10.1l11.4,0.2c18.1,0.3,22.2-0.8,23.7-6.1c0.2-0.8,0.7-2.1,1.1-2.8
		c1.2-2.4-2.1-10.7-4.2-10.7c-0.2,0-1-0.5-1.6-1.1C319,160.2,290.8,159.6,290.3,161"/>
	<path id="path1" class="st1" d="M46.5,0.6c0,0.3-1.2,0.6-2.8,0.6c-2.1,0-2.8,0.2-2.8,0.9c0,0.7-0.8,0.9-3.1,0.9
		c-2.3,0-3.1,0.2-3.1,0.9c0,0.6-0.6,0.9-1.9,0.9c-1,0-2,0.4-2.2,0.9c-0.2,0.5-1.1,1-2.1,1.2c-1.1,0.2-1.8,0.8-1.8,1.3
		c0,0.5-0.4,0.9-0.9,0.9c-0.5,0-0.9,0.4-0.9,0.9c0,0.6-0.6,0.9-1.9,0.9c-1.1,0-2,0.4-2.2,0.9c-0.2,0.5-0.7,0.9-1.2,0.9
		s-0.9,0.4-0.9,0.9c0,0.5-0.4,0.9-0.9,0.9c-0.5,0-0.9,0.5-0.9,1.2c0,0.8-0.4,1.2-1.2,1.2c-0.7,0-1.2,0.4-1.2,0.9
		c0,0.5-0.4,0.9-0.9,0.9c-0.5,0-0.9,0.4-0.9,0.9s-0.4,1-0.9,1.2c-0.5,0.2-0.9,1.1-0.9,2.2c0,1.2-0.3,1.9-0.9,1.9
		c-0.5,0-0.9,0.4-0.9,0.9s-0.6,1-1.2,1.2c-0.8,0.2-1.2,0.8-1.2,1.9c0,0.8-0.4,1.7-0.9,1.9c-0.5,0.2-0.9,1.1-0.9,2.2
		c0,1.2-0.3,1.9-0.9,1.9c-0.6,0-0.9,0.6-0.9,1.8c0,1-0.4,1.9-0.9,2.1c-0.7,0.3-0.9,1.3-0.9,4.1c0,2.1-0.3,3.7-0.6,3.7
		c-0.4,0-0.6,44-0.6,130.7v130.7h177.5c117.9,0,177.5-0.2,177.5-0.6c0-0.3,1.4-0.6,3.1-0.6c2.3,0,3.1-0.2,3.1-0.9
		c0-0.6,0.6-0.9,1.8-0.9s1.8-0.3,1.8-0.9c0-0.6,0.7-0.9,2.2-0.9c1.5,0,2.2-0.3,2.2-0.9c0-0.6,0.6-0.9,1.6-0.9c1.1,0,1.7-0.4,1.9-1.2
		c0.2-0.7,0.7-1.2,1.2-1.2s0.9-0.4,0.9-0.9c0-0.6,0.6-0.9,1.9-0.9c1.1,0,2-0.4,2.2-0.9c0.2-0.5,0.7-0.9,1.2-0.9
		c0.5,0,0.9-0.4,0.9-0.9c0-0.5,0.4-0.9,0.9-0.9c0.5,0,0.9-0.5,0.9-1.2c0-0.8,0.4-1.2,1.2-1.2c0.7,0,1.2-0.4,1.2-0.9
		c0-0.5,0.4-0.9,0.9-0.9c0.5,0,0.9-0.4,0.9-0.9c0-0.5,0.4-1,0.9-1.2c0.5-0.2,0.9-1.1,0.9-2.2c0-1.2,0.3-1.9,0.9-1.9
		c0.5,0,0.9-0.4,0.9-0.9s0.6-1,1.2-1.2c0.8-0.2,1.2-0.8,1.2-1.9c0-1,0.3-1.6,0.9-1.6c0.6,0,0.9-0.7,0.9-2.2c0-1.5,0.3-2.2,0.9-2.2
		c0.6,0,0.9-0.6,0.9-1.8c0-1,0.4-1.9,0.9-2.1c0.7-0.3,0.9-1.3,0.9-4.1c0-2.1,0.3-3.7,0.6-3.7c0.4,0,0.6-44,0.6-130.7V0H223.1
		C105.8,0,46.5,0.2,46.5,0.6 M131.1,22c0.7,0.4,0.5,220.3-0.2,225.5c-0.7,5.6-1.6,9.8-2.4,11.2c-0.3,0.6-1.2,2.5-2,4.2
		c-3.7,8.1-11.8,16.1-20.2,20.1c-10.3,4.8-12.3,5-50.8,4.8l-33.3-0.2L22,241.3c-0.1-29.4,0.1-46.4,0.4-46.8c0.4-0.4,1.9-0.3,4.2,0.4
		c17.2,4.7,54.4,6,65.8,2.4c1-0.3,3.4-1.1,5.2-1.6c11.3-3.5,18.9-10,22.9-19.5c1.6-3.9,2.6-61.9,1.1-63.8c-0.7-0.9-33-1.3-36.1-0.5
		l-1.3,0.4L84,140.7l-0.2,28.4l-2,4.2c-5,10.2-20.3,14.5-36.2,10.3c-1.4-0.4-3.7-0.9-5.2-1.3c-1.5-0.3-3.6-1-4.7-1.5
		c-1.1-0.5-2.2-0.9-2.6-0.9c-0.7,0-4.3-1.5-7-2.9c-0.9-0.5-2-0.8-2.6-0.8c-1.6,0-1.7-1.2-1.7-58.7c0-55.3,0-56.9,1.3-62
		C27.6,37.4,40.8,25,59.5,21.6C62.8,21,130.1,21.4,131.1,22 M253.6,22.2c1.2,2.3,0.5,231-0.7,233.6c-0.6,1.2-1.6,3.7-2.4,5.5
		c-5.2,13-17.4,22.4-32.8,25.5c-8,1.6-71.7,1.4-72.6-0.2c-0.4-0.8-0.6-17.7-0.6-50.5v-49.3h1.3c0.7,0,2.1,0.6,3.1,1.3
		c16.6,11.9,61.2,15.1,89.9,6.6l2.8-0.8l0.2-8.2c0.2-10.6,0.5-10.4-8.2-6.5c-1,0.5-3.8,1.4-6.2,2.1c-2.4,0.7-5.2,1.6-6.3,1.9
		c-1.1,0.3-4.3,0.9-7.1,1.2c-2.8,0.3-6.2,0.8-7.5,1c-5.5,0.8-18.4-2.1-23.3-5.1c-10.8-6.8-15.8-20.7-12.3-34.2
		c2.8-10.9,7.9-16.3,19.5-20.7c4.7-1.8,24-1.6,30.5,0.3c2.5,0.7,6,1.7,7.8,2.2c1.7,0.5,3.7,1.1,4.3,1.5c8.8,4.5,8.9,4.5,8.9-6.1
		v-8.6l-1.7-0.4c-0.9-0.2-3.5-0.7-5.7-1.2c-33.6-7.1-68.1-4.2-84.9,7.1c-5.1,3.4-4.8,5.4-4.7-29c0-30.8,0.2-33.9,2.4-40.1
		c5.5-15.4,18-26,34.9-29.5C188.4,20.4,252.9,20.8,253.6,22.2 M358.3,22.6l16.7,0.4v116c0,97.7-0.1,116.1-0.8,116.7
		c-0.5,0.4-1,1.8-1.2,3.2c-0.2,1.4-0.6,2.5-0.9,2.5c-0.3,0-0.7,0.7-1,1.7s-1.2,2.7-2.2,3.9c-1,1.3-1.8,2.5-1.8,2.8
		c0,0.3-1.9,2.3-4.2,4.4c-5.7,5.4-6,5.6-6.8,5.6c-0.4,0-0.8,0.4-1,0.9c-0.2,0.5-0.9,0.9-1.6,0.9c-0.7,0-1.6,0.4-2.1,0.9
		c-0.5,0.5-1.4,0.9-2,0.9c-0.6,0-1.9,0.4-2.9,0.9c-3.6,1.9-76.3,4.7-78,3c-0.2-0.2-0.4-20.4-0.4-44.9v-44.5l36.7,0
		c27.1,0,37.1-0.2,38.4-0.8c1-0.4,2.8-0.7,4.1-0.7c1.3,0,2.7-0.4,3.1-0.9c0.4-0.5,1.4-0.9,2.3-0.9c0.8,0,1.6-0.4,1.8-0.9
		c0.2-0.5,0.7-0.9,1.2-0.9c0.5,0,1.3-0.6,1.9-1.2c0.6-0.7,1.3-1.2,1.7-1.3c1,0,5.3-6.2,5.3-7.7c0-0.7,0.4-1.8,0.9-2.5
		c0.6-0.8,0.9-2.7,0.9-5.6s-0.3-4.8-0.9-5.6c-0.5-0.7-0.9-1.5-0.9-1.9c-0.1-4.6-12.7-13.6-19.2-13.8c-1.1,0-1.6-0.2-1.1-0.4
		c5.4-1.8,14.2-8.6,14.2-11.1c0-0.6,0.4-1.6,1-2.1c1.3-1.4,1.4-13.7,0.2-15.1c-0.8-0.9-1.6-2.2-3-4.8c-0.8-1.5-8-6.5-9.3-6.5
		c-0.5,0-1.9-0.5-3.1-1.1c-1.9-1-4.8-1.1-38.8-0.9l-36.7,0.2l-0.4-1.4c-0.6-2.2-0.4-47.3,0.2-50.4c1.3-6.4,1.8-8.2,2.8-10.4
		c0.6-1.2,1.5-3.2,2.1-4.4c2.2-5,10.9-14.4,15.5-16.9C300.1,21.9,306.7,21.3,358.3,22.6 M315.7,126.3c8.6,1.2,10.8,13.3,3.2,18.2
		c-1.9,1.2-2.8,1.3-15.3,1.3h-13.3l-0.2-9.2c-0.1-5.1,0-9.6,0.1-10C290.6,125.6,309.8,125.4,315.7,126.3 M320.6,161.6
		c0.7,0.6,1.4,1.1,1.6,1.1c2.1,0,5.4,8.3,4.2,10.7c-0.4,0.8-0.9,2-1.1,2.8c-1.5,5.3-5.6,6.4-23.7,6.1l-11.4-0.2l-0.2-10.1
		c-0.1-5.6,0-10.5,0.2-11C290.8,159.6,319,160.2,320.6,161.6"/>
</g>
</svg>
