<?xml version="1.0" encoding="utf-8"?>
<!-- Generator: Adobe Illustrator 19.2.1, SVG Export Plug-In . SVG Version: 6.00 Build 0)  -->
<svg version="1.1"
	 id="svg3062" inkscape:version="0.48.5 r10040" sodipodi:docname="Mastercard-logo.svg" xmlns:cc="http://creativecommons.org/ns#" xmlns:dc="http://purl.org/dc/elements/1.1/" xmlns:inkscape="http://www.inkscape.org/namespaces/inkscape" xmlns:rdf="http://www.w3.org/1999/02/22-rdf-syntax-ns#" xmlns:sodipodi="http://sodipodi.sourceforge.net/DTD/sodipodi-0.dtd" xmlns:svg="http://www.w3.org/2000/svg"
	 xmlns="http://www.w3.org/2000/svg" xmlns:xlink="http://www.w3.org/1999/xlink" x="0px" y="0px" viewBox="0 0 1200 933.4"
	 style="enable-background:new 0 0 1200 933.4;" xml:space="preserve">
<style type="text/css">
	.st0{fill:#737373;}
	.st1{fill:#747474;}
	.st2{fill:#545454;}
	.st3{fill:#0F0F0F;}
	.st4{fill:#212121;}
</style>
<sodipodi:namedview  bordercolor="#666666" borderopacity="1.0" fit-margin-bottom="0" fit-margin-left="0" fit-margin-right="0" fit-margin-top="0" id="base" inkscape:current-layer="layer1" inkscape:cx="792.17587" inkscape:cy="-107.57996" inkscape:document-units="px" inkscape:pageopacity="0.0" inkscape:pageshadow="2" inkscape:window-height="706" inkscape:window-maximized="1" inkscape:window-width="1366" inkscape:window-x="-8" inkscape:window-y="-8" inkscape:zoom="0.12374369" pagecolor="#ffffff" showgrid="false">
	</sodipodi:namedview>
<g id="layer1" transform="translate(-1837.7412,-490.13076)" inkscape:groupmode="layer" inkscape:label="Layer 1">
	<g id="g5486" transform="matrix(18.862408,0,0,18.862408,-19155.272,-12316.066)">
		<g id="g5463">
			<g id="g3550" transform="matrix(1.25,0,0,-1.25,1175.9598,710.77105)">
				<path id="path3552" inkscape:connector-curvature="0" class="st0" d="M0,0v0.6h-0.2l-0.2-0.4l-0.2,0.4h-0.2V0h0.1v0.5l0.2-0.4
					h0.1l0.2,0.4l0-0.5H0z M-1,0v0.5h0.2v0.1h-0.5V0.5h0.2V0H-1z"/>
			</g>
			<g id="g5456">
				<path id="path3554" inkscape:connector-curvature="0" class="st1" d="M1153.4,714h-17.2v-30.9h17.2V714z"/>
				<g id="g3556" transform="matrix(1.25,0,0,-1.25,1137.2551,698.58818)">
					<path id="path3558" inkscape:connector-curvature="0" class="st2" d="M0,0c0,5,2.3,9.5,6,12.4c-2.7,2.1-6.1,3.4-9.7,3.4
						c-8.7,0-15.7-7-15.7-15.7s7-15.7,15.7-15.7c3.7,0,7,1.3,9.7,3.4C2.3-9.5,0-5,0,0"/>
				</g>
				<g id="g3560" transform="matrix(1.25,0,0,-1.25,1176.5737,698.58818)">
					<path id="path3562" inkscape:connector-curvature="0" class="st0" d="M0,0c0-8.7-7-15.7-15.7-15.7c-3.7,0-7,1.3-9.7,3.4
						c3.7,2.9,6,7.3,6,12.4s-2.3,9.5-6,12.4c2.7,2.1,6.1,3.4,9.7,3.4C-7,15.7,0,8.7,0,0"/>
				</g>
			</g>
		</g>
		<g id="g5404">
			<g id="g3564" transform="matrix(1.25,0,0,-1.25,1159.1861,722.78068)">
				<path id="path3566" inkscape:connector-curvature="0" class="st3" d="M0,0c0.2,0,0.4,0,0.6-0.1L0.4-1C0.2-0.9,0-0.9-0.2-0.9
					c-0.6,0-0.9-0.4-0.9-1.1v-2.3H-2v4.2h0.9v-0.5C-0.9-0.2-0.5,0,0,0 M-3.4-0.9h-1.5v-1.9c0-0.4,0.1-0.7,0.6-0.7
					c0.2,0,0.5,0.1,0.8,0.2l0.3-0.8c-0.3-0.2-0.7-0.3-1.1-0.3c-1.1,0-1.4,0.6-1.4,1.5v1.9h-0.8v0.8h0.8v1.3h0.9v-1.3h1.5L-3.4-0.9
					L-3.4-0.9z M-15-1.8c0.1,0.6,0.5,1,1.1,1c0.6,0,1-0.4,1.1-1H-15z M-11.9-2.2c0,1.3-0.8,2.2-2,2.2c-1.2,0-2.1-0.9-2.1-2.2
					c0-1.3,0.9-2.2,2.1-2.2c0.6,0,1.2,0.2,1.7,0.6l-0.4,0.7c-0.3-0.3-0.8-0.4-1.2-0.4c-0.6,0-1.1,0.3-1.2,1h3.1
					C-11.9-2.4-11.9-2.3-11.9-2.2 M-7.9-1.2C-8.1-1-8.7-0.8-9.2-0.8C-9.7-0.8-10-1-10-1.3c0-0.3,0.3-0.4,0.7-0.4l0.4-0.1
					C-7.9-1.9-7.4-2.3-7.4-3c0-0.8-0.7-1.4-1.9-1.4c-0.7,0-1.3,0.2-1.8,0.5l0.4,0.7c0.3-0.2,0.8-0.4,1.4-0.4c0.6,0,1,0.2,1,0.5
					c0,0.2-0.2,0.4-0.7,0.4l-0.4,0.1c-0.9,0.1-1.4,0.6-1.4,1.2c0,0.8,0.7,1.3,1.7,1.3c0.7,0,1.3-0.1,1.7-0.4L-7.9-1.2L-7.9-1.2z
					 M3.3-0.9C3.1-0.9,3-0.9,2.8-1C2.6-1,2.5-1.1,2.4-1.2C2.3-1.4,2.2-1.5,2.1-1.7S2-2,2-2.2c0-0.2,0-0.4,0.1-0.5
					c0.1-0.2,0.2-0.3,0.3-0.4s0.3-0.2,0.4-0.3C3-3.5,3.1-3.6,3.3-3.6c0.2,0,0.4,0,0.5,0.1C4-3.4,4.1-3.3,4.3-3.2
					c0.1,0.1,0.2,0.3,0.3,0.4c0.1,0.2,0.1,0.3,0.1,0.5c0,0.2,0,0.4-0.1,0.5C4.5-1.5,4.4-1.4,4.3-1.2C4.1-1.1,4-1,3.8-1
					C3.7-0.9,3.5-0.9,3.3-0.9 M3.3,0c0.3,0,0.6-0.1,0.9-0.2c0.3-0.1,0.5-0.3,0.7-0.5c0.2-0.2,0.4-0.4,0.5-0.7
					c0.1-0.3,0.2-0.6,0.2-0.9S5.5-2.8,5.4-3.1C5.3-3.4,5.1-3.6,4.9-3.8C4.7-4,4.5-4.1,4.2-4.2C3.9-4.4,3.6-4.4,3.3-4.4
					S2.7-4.4,2.4-4.2C2.1-4.1,1.9-4,1.7-3.8S1.4-3.4,1.2-3.1C1.1-2.8,1.1-2.5,1.1-2.2s0.1,0.6,0.2,0.9c0.1,0.3,0.3,0.5,0.5,0.7
					s0.4,0.4,0.7,0.5C2.7-0.1,3,0,3.3,0 M-20.3-2.2c0,0.7,0.5,1.3,1.3,1.3c0.8,0,1.3-0.6,1.3-1.3s-0.5-1.3-1.3-1.3
					C-19.8-3.5-20.3-2.9-20.3-2.2 M-16.9-2.2v2.1h-0.9v-0.5C-18.1-0.2-18.5,0-19.1,0c-1.2,0-2.1-0.9-2.1-2.2c0-1.3,0.9-2.2,2.1-2.2
					c0.6,0,1,0.2,1.3,0.6v-0.5h0.9L-16.9-2.2L-16.9-2.2z M-22-4.3v2.6c0,1-0.6,1.7-1.6,1.7c-0.5,0-1.1-0.2-1.5-0.7
					C-25.4-0.3-25.9,0-26.5,0c-0.4,0-0.9-0.1-1.2-0.6v0.5h-0.9v-4.2h0.9V-2c0,0.7,0.4,1.1,1,1.1c0.6,0,0.9-0.4,0.9-1.1v-2.3h0.9V-2
					c0,0.7,0.4,1.1,1,1.1c0.6,0,0.9-0.4,0.9-1.1v-2.3H-22L-22-4.3z"/>
			</g>
			<g id="g3568" transform="matrix(1.25,0,0,-1.25,1167.4397,727.73918)">
				<path id="path3570" inkscape:connector-curvature="0" class="st4" d="M0,0v-0.1h0.1c0,0,0,0,0.1,0c0,0,0,0,0,0s0,0,0,0
					C0.1,0,0.1,0,0,0L0,0z M0.1,0.1c0,0,0.1,0,0.1,0s0-0.1,0-0.1c0,0,0-0.1,0-0.1c0,0-0.1,0-0.1,0l0.1-0.1H0.2L0-0.2h0v-0.1h-0.1
					v0.4C-0.1,0.1,0.1,0.1,0.1,0.1z M0.1-0.4c0,0,0.1,0,0.1,0c0,0,0.1,0,0.1,0.1s0.1,0.1,0.1,0.1c0,0,0,0.1,0,0.1s0,0.1,0,0.1
					c0,0,0,0.1-0.1,0.1c0,0-0.1,0.1-0.1,0.1c0,0-0.1,0-0.1,0s-0.1,0-0.1,0c0,0-0.1,0-0.1-0.1S-0.2,0-0.2,0c0,0,0-0.1,0-0.1
					s0-0.1,0-0.1c0,0,0-0.1,0.1-0.1c0,0,0.1-0.1,0.1-0.1C0-0.4,0-0.4,0.1-0.4 M0.1,0.3c0.1,0,0.1,0,0.2,0c0.1,0,0.1-0.1,0.1-0.1
					c0,0,0.1-0.1,0.1-0.1c0-0.1,0-0.1,0-0.2s0-0.1,0-0.2c0-0.1-0.1-0.1-0.1-0.1c0,0-0.1-0.1-0.1-0.1c-0.1,0-0.1,0-0.2,0
					c-0.1,0-0.1,0-0.2,0c-0.1,0-0.1,0.1-0.1,0.1c0,0-0.1,0.1-0.1,0.1s0,0.1,0,0.2s0,0.1,0,0.2c0,0.1,0.1,0.1,0.1,0.1
					c0,0,0.1,0.1,0.1,0.1C0,0.3,0,0.3,0.1,0.3"/>
			</g>
		</g>
	</g>
</g>
</svg>
