<?xml version="1.0" encoding="utf-8"?>
<!-- Generator: Adobe Illustrator 19.2.1, SVG Export Plug-In . SVG Version: 6.00 Build 0)  -->
<svg version="1.1" id="Layer_1" xmlns="http://www.w3.org/2000/svg" xmlns:xlink="http://www.w3.org/1999/xlink" x="0px" y="0px"
	 viewBox="0 0 122 90.6" style="enable-background:new 0 0 122 90.6;" xml:space="preserve">
<style type="text/css">
	.st0{fill:none;}
	.st1{fill:#FF5F00;}
	.st2{fill:#EB001B;}
	.st3{fill:#F79E1B;}
</style>
<g>
	<rect x="-13.4" y="-14.9" class="st0" width="146.8" height="120.4"/>
	<g>
		<g>
			<path id="XMLID_1775_" d="M22.9,90.3v-6c0-2.3-1.4-3.8-3.8-3.8c-1.2,0-2.5,0.4-3.4,1.7c-0.7-1.1-1.7-1.7-3.2-1.7
				c-1,0-2,0.3-2.8,1.4v-1.2H7.8v9.6h2.1V85c0-1.7,0.9-2.5,2.3-2.5c1.4,0,2.1,0.9,2.1,2.5v5.3h2.1V85c0-1.7,1-2.5,2.3-2.5
				c1.4,0,2.1,0.9,2.1,2.5v5.3H22.9z M54,80.8h-3.4v-2.9h-2.1v2.9h-1.9v1.9h1.9V87c0,2.2,0.9,3.5,3.3,3.5c0.9,0,1.9-0.3,2.6-0.7
				l-0.6-1.8c-0.6,0.4-1.3,0.5-1.8,0.5c-1,0-1.4-0.6-1.4-1.6v-4.3H54V80.8z M71.7,80.5c-1.2,0-2,0.6-2.5,1.4v-1.2h-2.1v9.6h2.1V85
				c0-1.6,0.7-2.5,2-2.5c0.4,0,0.9,0.1,1.3,0.2l0.6-2C72.8,80.6,72.2,80.5,71.7,80.5L71.7,80.5z M44.9,81.5c-1-0.7-2.4-1-3.9-1
				c-2.4,0-4,1.2-4,3.1c0,1.6,1.2,2.5,3.3,2.8l1,0.1c1.1,0.2,1.7,0.5,1.7,1c0,0.7-0.8,1.2-2.2,1.2c-1.4,0-2.5-0.5-3.2-1l-1,1.6
				c1.1,0.8,2.6,1.2,4.1,1.2c2.8,0,4.4-1.3,4.4-3.1c0-1.7-1.3-2.6-3.3-2.9l-1-0.1c-0.9-0.1-1.6-0.3-1.6-0.9c0-0.7,0.7-1.1,1.8-1.1
				c1.2,0,2.4,0.5,3,0.8L44.9,81.5z M100.6,80.5c-1.2,0-2,0.6-2.5,1.4v-1.2h-2.1v9.6h2.1V85c0-1.6,0.7-2.5,2-2.5
				c0.4,0,0.9,0.1,1.3,0.2l0.6-2C101.7,80.6,101.1,80.5,100.6,80.5L100.6,80.5z M73.8,85.6c0,2.9,2,5,5.1,5c1.4,0,2.4-0.3,3.4-1.1
				l-1-1.7c-0.8,0.6-1.6,0.9-2.5,0.9c-1.7,0-2.9-1.2-2.9-3.1c0-1.8,1.2-3,2.9-3.1c0.9,0,1.7,0.3,2.5,0.9l1-1.7c-1-0.8-2-1.1-3.4-1.1
				C75.9,80.5,73.8,82.7,73.8,85.6L73.8,85.6z M93.3,85.6v-4.8h-2.1v1.2c-0.7-0.9-1.7-1.4-3-1.4c-2.7,0-4.8,2.1-4.8,5
				c0,2.9,2.1,5,4.8,5c1.4,0,2.4-0.5,3-1.4v1.2h2.1V85.6z M85.6,85.6c0-1.7,1.1-3.1,2.9-3.1c1.7,0,2.9,1.3,2.9,3.1
				c0,1.7-1.2,3.1-2.9,3.1C86.7,88.6,85.6,87.2,85.6,85.6L85.6,85.6z M60.5,80.5c-2.8,0-4.8,2-4.8,5c0,3,2,5,4.9,5
				c1.4,0,2.8-0.4,3.9-1.3l-1-1.5c-0.8,0.6-1.8,1-2.8,1c-1.3,0-2.6-0.6-2.9-2.3H65c0-0.3,0-0.5,0-0.8C65,82.6,63.2,80.5,60.5,80.5
				L60.5,80.5z M60.4,82.4c1.3,0,2.2,0.8,2.4,2.3h-5C58.1,83.3,59,82.4,60.4,82.4L60.4,82.4z M112.6,85.6v-8.6h-2.1v5
				c-0.7-0.9-1.7-1.4-3-1.4c-2.7,0-4.8,2.1-4.8,5c0,2.9,2.1,5,4.8,5c1.4,0,2.4-0.5,3-1.4v1.2h2.1V85.6z M104.9,85.6
				c0-1.7,1.1-3.1,2.9-3.1c1.7,0,2.9,1.3,2.9,3.1c0,1.7-1.2,3.1-2.9,3.1C106,88.6,104.9,87.2,104.9,85.6L104.9,85.6z M34.6,85.6
				v-4.8h-2.1v1.2c-0.7-0.9-1.7-1.4-3-1.4c-2.7,0-4.8,2.1-4.8,5c0,2.9,2.1,5,4.8,5c1.4,0,2.4-0.5,3-1.4v1.2h2.1V85.6z M26.9,85.6
				c0-1.7,1.1-3.1,2.9-3.1c1.7,0,2.9,1.3,2.9,3.1c0,1.7-1.2,3.1-2.9,3.1C28,88.6,26.9,87.2,26.9,85.6z"/>
		</g>
		<g id="XMLID_328_">
			<rect x="44.2" y="7.9" class="st1" width="31.5" height="56.6"/>
			<path id="XMLID_330_" class="st2" d="M46.2,36.2c0-11.5,5.4-21.7,13.7-28.3c-6.1-4.8-13.8-7.7-22.2-7.7c-19.9,0-36,16.1-36,36
				c0,19.9,16.1,36,36,36c8.4,0,16.1-2.9,22.2-7.7C51.6,58,46.2,47.7,46.2,36.2z"/>
			<path class="st3" d="M118.2,36.2c0,19.9-16.1,36-36,36c-8.4,0-16.1-2.9-22.2-7.7c8.4-6.6,13.7-16.8,13.7-28.3S68.4,14.5,60,7.9
				c6.1-4.8,13.8-7.7,22.2-7.7C102.1,0.2,118.2,16.4,118.2,36.2z"/>
		</g>
	</g>
</g>
</svg>
