<?xml version="1.0" encoding="utf-8"?>
<!-- Generator: Adobe Illustrator 21.0.2, SVG Export Plug-In . SVG Version: 6.00 Build 0)  -->
<svg version="1.1" id="Layer_1" xmlns="http://www.w3.org/2000/svg" xmlns:xlink="http://www.w3.org/1999/xlink" x="0px" y="0px"
	 viewBox="0 0 179.8 114" style="enable-background:new 0 0 179.8 114;" xml:space="preserve">
<style type="text/css">
	.st0{fill:#FFFFFF;}
	.st1{fill:#716F74;}
	.st2{fill:#666666;}
	.st3{fill:#333333;}
	.st4{fill:#003087;}
	.st5{fill:#191919;}
</style>
<g>
	<rect x="0.5" y="0.4" class="st0" width="178.8" height="113.2"/>
	<path class="st1" d="M179,0.8v112.4H0.9V0.8H179 M179.7,0H0.2v113.9h179.5V0L179.7,0z"/>
</g>
<path class="st2" d="M106,83.8c-0.4,2.5-2.3,2.5-4.1,2.5h-1l0.7-4.7c0-0.3,0.3-0.5,0.6-0.5h0.5c1.3,0,2.4,0,3.1,0.7
	C106.1,82.3,106.2,82.9,106,83.8L106,83.8z M105.2,77.3h-6.9c-0.5,0-0.9,0.3-1,0.8l-2.8,17.8c-0.1,0.4,0.2,0.7,0.6,0.7h3.6
	c0.3,0,0.6-0.2,0.7-0.6l0.8-5.1c0.1-0.5,0.5-0.8,1-0.8h2.2c4.6,0,7.2-2.2,7.9-6.6c0.3-1.9,0-3.4-0.9-4.5
	C109.3,77.9,107.6,77.3,105.2,77.3L105.2,77.3z"/>
<path class="st3" d="M56.5,83.8c-0.4,2.5-2.3,2.5-4.1,2.5h-1l0.7-4.7c0-0.3,0.3-0.5,0.6-0.5h0.5c1.3,0,2.4,0,3.1,0.7
	C56.5,82.3,56.6,82.9,56.5,83.8L56.5,83.8z M55.7,77.3h-6.9c-0.5,0-0.9,0.3-1,0.8L45,95.9c-0.1,0.4,0.2,0.7,0.6,0.7h3.3
	c0.5,0,0.9-0.3,1-0.8l0.8-4.8c0.1-0.5,0.5-0.8,1-0.8h2.2c4.6,0,7.2-2.2,7.9-6.6c0.3-1.9,0-3.4-0.9-4.5C59.8,77.9,58,77.3,55.7,77.3
	L55.7,77.3z"/>
<path class="st3" d="M71.8,90.2c-0.3,1.9-1.8,3.2-3.8,3.2c-1,0-1.7-0.3-2.2-0.9c-0.5-0.6-0.7-1.4-0.5-2.3c0.3-1.9,1.8-3.2,3.7-3.2
	c0.9,0,1.7,0.3,2.2,0.9C71.8,88.4,72,89.3,71.8,90.2L71.8,90.2z M76.5,83.7h-3.3c-0.3,0-0.5,0.2-0.6,0.5l-0.1,0.9l-0.2-0.3
	c-0.7-1-2.3-1.4-3.9-1.4c-3.7,0-6.8,2.8-7.4,6.7c-0.3,1.9,0.1,3.8,1.2,5.1c1,1.2,2.5,1.7,4.2,1.7c3,0,4.6-1.9,4.6-1.9l-0.1,0.9
	c-0.1,0.4,0.2,0.7,0.6,0.7h3c0.5,0,0.9-0.3,1-0.8L77,84.4C77.1,84,76.8,83.7,76.5,83.7L76.5,83.7z"/>
<path class="st2" d="M121.4,90.2c-0.3,1.9-1.8,3.2-3.8,3.2c-1,0-1.7-0.3-2.2-0.9c-0.5-0.6-0.7-1.4-0.5-2.3c0.3-1.9,1.8-3.2,3.7-3.2
	c0.9,0,1.7,0.3,2.2,0.9C121.3,88.4,121.5,89.3,121.4,90.2L121.4,90.2z M126,83.7h-3.3c-0.3,0-0.5,0.2-0.6,0.5l-0.1,0.9l-0.2-0.3
	c-0.7-1-2.3-1.4-3.9-1.4c-3.7,0-6.8,2.8-7.4,6.7c-0.3,1.9,0.1,3.8,1.2,5.1c1,1.2,2.5,1.7,4.2,1.7c3,0,4.6-1.9,4.6-1.9l-0.1,0.9
	c-0.1,0.4,0.2,0.7,0.6,0.7h3c0.5,0,0.9-0.3,1-0.8l1.8-11.4C126.6,84,126.4,83.7,126,83.7L126,83.7z"/>
<path class="st3" d="M94.2,83.7h-3.3c-0.3,0-0.6,0.2-0.8,0.4l-4.6,6.8l-2-6.5c-0.1-0.4-0.5-0.7-0.9-0.7h-3.3c-0.4,0-0.7,0.4-0.5,0.8
	l3.7,10.8l-3.5,4.9c-0.3,0.4,0,0.9,0.5,0.9h3.3c0.3,0,0.6-0.2,0.8-0.4l11.1-16.1C94.9,84.2,94.6,83.7,94.2,83.7L94.2,83.7z"/>
<path class="st2" d="M129.9,77.8l-2.9,18.1c-0.1,0.4,0.2,0.7,0.6,0.7h2.9c0.5,0,0.9-0.3,1-0.8l2.8-17.8c0.1-0.4-0.2-0.7-0.6-0.7
	h-3.2C130.2,77.3,130,77.5,129.9,77.8L129.9,77.8z"/>
<path class="st4" d="M80.7,70.6h9.4c1,0,1.9-0.7,2-1.7l0.1-0.5L94,57.2l0.1-0.6c0.2-1.2,1.2-2.1,2.4-2.1h1.4c4.8,0,8.7-1.1,11.6-3.1
	c3.3-2.3,5.5-6.1,6.4-11.1c0.9-4.6,0.3-8.2-1.8-10.6c-0.7-0.8-1.5-1.4-2.5-1.9l-0.1-0.1l0-0.1c0.7-4.5,0-7.5-2.4-10.2
	c-2.5-2.9-7.1-4.3-13.6-4.3h-18c-1.2,0-2.2,0.8-2.3,2l-7.5,47.5c-0.1,0.4,0.1,0.8,0.3,1.1c0.3,0.3,0.6,0.5,1,0.5h11.3l-0.8,5.1
	c-0.1,0.3,0,0.7,0.3,0.9C80.1,70.5,80.4,70.6,80.7,70.6L80.7,70.6z"/>
<path class="st3" d="M85.9,27.7c0.1-0.8,0.6-1.4,1.3-1.7c0.3-0.1,0.6-0.2,1-0.2h14.1c1.7,0,3.2,0.1,4.7,0.3c0.4,0.1,0.8,0.1,1.2,0.2
	c0.4,0.1,0.8,0.2,1.1,0.3c0.2,0.1,0.4,0.1,0.5,0.2c0.7,0.2,1.4,0.5,2,0.8c0.7-4.5,0-7.6-2.4-10.4c-2.7-3.1-7.5-4.4-13.7-4.4h-18
	c-1.3,0-2.3,0.9-2.5,2.2l-7.5,47.5c-0.1,0.9,0.6,1.8,1.5,1.8h11.1l2.8-17.7L85.9,27.7L85.9,27.7z"/>
<path class="st2" d="M111.7,27.6L111.7,27.6L111.7,27.6c-0.1,0.3-0.1,0.7-0.2,1.1c-2.4,12.2-10.5,16.4-20.9,16.4h-5.3
	c-1.3,0-2.3,0.9-2.5,2.2l0,0l0,0l-2.7,17.2l-0.8,4.9c-0.1,0.8,0.5,1.6,1.3,1.6h9.4c1.1,0,2.1-0.8,2.2-1.9l0.1-0.5l1.8-11.2l0.1-0.6
	c0.2-1.1,1.1-1.9,2.2-1.9h1.4c9.1,0,16.2-3.7,18.3-14.4c0.9-4.5,0.4-8.2-1.9-10.8C113.6,28.8,112.7,28.1,111.7,27.6L111.7,27.6z"/>
<path class="st5" d="M109.3,26.6c-0.4-0.1-0.7-0.2-1.1-0.3c-0.4-0.1-0.8-0.2-1.2-0.2c-1.4-0.2-3-0.3-4.7-0.3H88.2
	c-0.3,0-0.7,0.1-1,0.2c-0.7,0.3-1.1,0.9-1.3,1.7l-3,19l-0.1,0.6c0.2-1.3,1.3-2.2,2.5-2.2h5.3c10.4,0,18.5-4.2,20.9-16.4
	c0.1-0.4,0.1-0.7,0.2-1.1c-0.6-0.3-1.3-0.6-2-0.8C109.6,26.7,109.4,26.7,109.3,26.6L109.3,26.6z"/>
</svg>
