<?xml version="1.0" encoding="utf-8"?>
<!-- Generator: Adobe Illustrator 19.2.1, SVG Export Plug-In . SVG Version: 6.00 Build 0)  -->
<svg version="1.1" id="Layer_1" xmlns="http://www.w3.org/2000/svg" xmlns:xlink="http://www.w3.org/1999/xlink" x="0px" y="0px"
	 viewBox="0 0 600 121.3" style="enable-background:new 0 0 600 121.3;" xml:space="preserve">
<g transform="translate(0.000000,177.000000) scale(0.100000,-0.100000)">
	<path d="M2654,1761.8c-45-13-63-39-76-107c-10-55-14-61-41-66c-16-3-46-6-67-6c-40,0-50-11-50-56c0-22,4-24,48-24c62,0,76-10,69-46
		c-7-33-31-144-47-219c-6-27-17-84-26-125s-20-91-25-111c-19-76-5-121,48-148c30-15,185-14,205,2c17,14,29,52,22,72c-4,9-18,11-42,8
		c-26-3-47,2-69,16c-28,18-33,26-33,60c0,22,4,51,10,66c5,14,14,49,19,78c11,57,34,171,54,258c17,80,26,88,110,91c71,3,71,3,81,36
		c5,18,7,35,4,38c-3,2-35,6-71,7c-37,1-71,7-76,12c-6,6-5,28,4,61c23,88,23,109,0,111C2694,1770.8,2671,1766.8,2654,1761.8z"/>
	<path d="M4748,1597.8c-66-14-119-38-164-71c-34-27-89-118-79-134c3-5,46-10,95-10h89l28,42c37,56,87,76,144,59c48-14,63-46,55-110
		c-3-25-8-46-10-48s-41-6-87-8c-203-12-348-85-404-201c-21-45-29-132-16-182c21-75,115-113,244-97c40,5,73,19,123,51
		c70,45,92,46,75,2c-5-14-7-29-4-32c4-3,46-6,94-6h87l7,68c3,37,12,94,20,127c41,182,44,199,67,336c10,60,9,70-11,112
		c-27,56-72,84-161,103C4864,1614.8,4826,1614.8,4748,1597.8z M4876,1187.8c6-15-20-93-45-135c-52-86-148-117-204-65
		c-57,53-25,145,66,189C4755,1206.8,4866,1213.8,4876,1187.8z"/>
	<path d="M4075,1591.8c-65-6-93-18-142-63c-38-35-57-27-50,20c3,19,2,34-4,35c-5,0-47,0-94,0s-89,0-94,0c-5-1-11-16-14-33
		c-3-18-10-55-16-83c-6-27-18-84-27-125s-21-102-29-135c-7-33-20-96-30-140c-9-44-22-107-30-140c-7-33-20-96-30-140
		c-9-44-24-106-32-138c-22-89-20-92,92-92h95l15,46c15,44,20,67,48,223c15,81,37,104,65,70c29-36,84-54,163-54c65,0,82,4,147,37
		c89,44,143,102,193,204c53,108,60,134,66,240c5,89,3,101-20,152C4303,1571.8,4223,1606.8,4075,1591.8z M4100,1456.8
		c58-35,75-130,44-242c-35-128-90-204-171-235c-38-15-46-15-87-1c-64,22-86,61-86,150c0,107,49,234,112,290
		C3969,1470.8,4048,1486.8,4100,1456.8z"/>
	<path d="M550,1572.8c-30-11-70-33-90-49s-45-31-56-33c-20-3-22,10-8,65l6,27h-65h-66l-6-47c-6-53-9-68-31-163c-8-36-21-96-29-135
		c-8-38-21-101-30-140c-9-38-23-104-31-145c-9-41-22-106-31-145c-8-38-20-97-27-130s-16-68-21-78c-12-27,5-37,64-38c58-2,71,8,71,53
		c0,14,6,53,14,85c7,32,19,85,27,118c7,33,16,68,22,79c8,17,11,16,40-12c76-73,211-82,337-24c128,60,221,189,251,352
		c38,201,4,305-116,360C718,1598.8,623,1598.8,550,1572.8z M689,1486.8c17-8,42-30,56-48c22-29,25-42,25-122c0-95-11-136-63-243
		c-42-83-101-136-172-152c-117-26-204,17-224,112c-12,52-1,163,21,224c40,110,116,209,169,220c16,4,31,11,34,16
		C545,1508.8,654,1503.8,689,1486.8z"/>
	<path d="M1260,1586.8c-8-3-44-20-79-37c-69-35-154-119-186-184c-10-21-21-45-26-54c-4-9-15-46-24-82c-75-299,85-454,398-388
		c60,13,175,88,213,138c15,21,31,40,35,43c3,3,21,36,38,74c78,165,65,366-28,441c-57,46-91,54-211,54
		C1327,1591.8,1268,1588.8,1260,1586.8z M1476,1477.8c47-36,74-93,74-155c0-50-26-157-52-215c-58-131-189-210-305-185
		c-55,13-67,21-102,75c-23,36-26,50-25,130c0,100,16,156,70,241C1217,1497.8,1381,1549.8,1476,1477.8z"/>
	<path d="M1935,1575.8c-106-43-171-119-182-212c-9-81,8-114,80-149c34-17,80-34,102-37c64-11,138-37,169-58c26-18,28-24,23-66
		c-4-38-12-52-46-82c-46-41-101-55-174-44c-56,9-85,32-101,80c-14,40-15,40-70,43c-51,3-57,1-65-21c-12-31,2-103,25-128
		c10-11,34-30,53-42c32-20,49-22,166-22c127,0,132,1,197,33c66,33,101,67,141,139c25,46,23,142-4,177c-23,29-82,61-132,71
		c-18,4-52,13-77,20c-25,8-57,16-72,19c-41,9-88,54-88,83c0,30,40,87,73,105c97,52,237,16,237-62c0-22,5-30,18-31c9-1,36-3,58-5
		c54-5,68,12,61,72c-6,53-33,87-94,115C2178,1598.8,1996,1599.8,1935,1575.8z"/>
	<path d="M3120,1586.8c-101-38-192-113-236-197c-51-99-74-190-74-301c0-84,4-108,21-140c11-22,26-44,32-50c30-29,88-55,148-66
		c145-26,315,40,389,152c45,69,44,82-4,86c-61,5-81-4-112-53c-34-55-73-81-140-95c-77-16-140,4-181,58c-30,40-33,49-33,116
		c0,111-12,106,287,106c214,0,252,2,263,16c8,9,15,55,18,118c4,92,2,109-17,147c-12,24-41,57-64,74c-41,29-46,30-162,32
		C3189,1590.8,3128,1589.8,3120,1586.8z M3323,1486.8c53-39,76-146,40-186c-14-16-34-18-193-18c-113,0-180,4-187,11
		c-28,28,50,148,121,187c51,28,68,31,132,28C3277,1506.8,3307,1498.8,3323,1486.8z"/>
	<path d="M5187,1580.8c-7-4-7-27,2-75c7-37,19-106,27-153c7-47,20-123,29-170c63-361,61-337,32-390c-13-25-41-76-62-115
		c-20-38-41-74-46-80c-5-5-9-16-9-25c0-24,186-19,205,7c7,10,44,79,82,153c37,74,74,141,81,148c6,7,12,18,12,23c0,6,11,25,24,42
		c14,18,30,43,35,57c6,14,20,39,31,55c11,17,24,39,30,50s19,34,30,50c11,17,24,39,30,50c15,29,34,59,42,65c4,3,12,17,18,30
		c5,14,19,39,30,55c11,17,24,39,30,50s19,34,30,50c11,17,23,37,27,45s16,27,27,42s17,31,13,34c-8,8-183,8-195,0c-4-2-25-40-47-83
		s-43-80-46-83s-19-32-36-65c-109-216-139-263-154-248c-8,9-26,152-43,345c-6,69-14,129-17,133C5390,1585.8,5200,1589.8,5187,1580.8
		z"/>
</g>
</svg>
