<?xml version="1.0" encoding="utf-8"?>
<!-- Generator: Adobe Illustrator 19.2.1, SVG Export Plug-In . SVG Version: 6.00 Build 0)  -->
<svg version="1.1" id="Layer_1" xmlns="http://www.w3.org/2000/svg" xmlns:xlink="http://www.w3.org/1999/xlink" x="0px" y="0px"
	 viewBox="0 0 920 191.7" style="enable-background:new 0 0 920 191.7;" xml:space="preserve">
<style type="text/css">
	.st0{fill:#4B4B4B;}
	.st1{fill:url(#SVGID_1_);}
	.st2{fill:url(#SVGID_2_);}
	.st3{fill:url(#SVGID_3_);}
	.st4{fill:#787878;}
	.st5{fill:url(#SVGID_4_);}
	.st6{display:none;}
	.st7{display:inline;}
	.st8{clip-path:url(#SVGID_6_);}
</style>
<g id="vector">
	<polygon class="st0" points="155.1,60.7 221.1,60.7 221.1,77.6 178.9,77.6 178.9,91.3 215.4,91.3 215.4,107.2 178.9,107.2 
		178.9,139.3 155.1,139.3 	"/>
	<polygon class="st0" points="299.1,77.6 299.1,60.7 233,60.7 233,60.7 233,60.7 233,139.3 233,139.3 256.8,139.3 299,139.3 
		299,122.4 256.8,122.4 256.8,107.2 284.7,107.2 284.7,91.3 256.8,91.3 256.8,77.6 	"/>
	
		<linearGradient id="SVGID_1_" gradientUnits="userSpaceOnUse" x1="843.65" y1="54.6" x2="843.65" y2="133.2" gradientTransform="matrix(1 0 0 -1 0 194)">
		<stop  offset="0.3681" style="stop-color:#474747"/>
		<stop  offset="0.7791" style="stop-color:#787878"/>
	</linearGradient>
	<polygon class="st1" points="857.6,60.8 843.7,87.4 829.8,60.8 806.2,60.8 831.7,106.5 831.7,139.4 855.5,139.4 855.5,106.5 
		881.1,60.8 	"/>
	<polygon class="st0" points="388,60.6 411.6,60.6 425.6,87.1 439.4,60.6 462.9,60.6 437.3,106.2 437.3,139.2 413.5,139.2 
		413.5,106.2 	"/>
	
		<linearGradient id="SVGID_2_" gradientUnits="userSpaceOnUse" x1="706.8" y1="54.6" x2="706.8" y2="133.2" gradientTransform="matrix(1 0 0 -1 0 194)">
		<stop  offset="0.3681" style="stop-color:#474747"/>
		<stop  offset="0.7791" style="stop-color:#787878"/>
	</linearGradient>
	<path class="st2" d="M733.2,67.1c-4.4-4.2-11-6.3-19.9-6.3h-6.7h-32.8v78.6h23.4v-29.2h9.4h4c9.9,0,17.2-2.2,22-6.7
		s7.2-10.7,7.2-18.6C739.8,77.2,737.6,71.2,733.2,67.1z M713.2,91.9c-1.4,1.2-3.6,2-6.5,2.3c-1,0.1-2.1,0.2-3.4,0.2h-6V76.8h7
		c0.9,0,1.7,0,2.4,0.1c3.3,0.2,5.5,1.1,6.9,2.5c1.7,1.7,2.5,3.8,2.5,6.3C716,88.1,715.1,90.2,713.2,91.9z"/>
	<polygon class="st0" points="309.2,60.8 381.6,60.8 381.6,77.6 357.2,77.6 357.3,139.4 333.5,139.4 333.4,77.6 309,77.6 	"/>
	<path class="st0" d="M122.5,60.7h-6.6h-5H99.3l-25.9,78.6h23.9l3.3-12.9H111h1.3h8.8l3.4,12.9h23.8L122.5,60.7z M112.9,109.3H111
		h-5.7l5.4-28.2l0.3,1.4l0,0l0.6,2.7v0.1l0,0l5.1,24.1L112.9,109.3L112.9,109.3z"/>
	
		<linearGradient id="SVGID_3_" gradientUnits="userSpaceOnUse" x1="772.5" y1="54.6" x2="772.5001" y2="133.2" gradientTransform="matrix(1 0 0 -1 0 194)">
		<stop  offset="0.3681" style="stop-color:#474747"/>
		<stop  offset="0.7791" style="stop-color:#787878"/>
	</linearGradient>
	<path class="st3" d="M784,60.8h-11.5h-11.6L735,139.4h23.8l3.4-13h10.3h10.2l3.4,13H810L784,60.8z M772.5,109.4h-5.7l5.5-28.2
		l0.3,1.4l5.7,26.9L772.5,109.4L772.5,109.4z"/>
	<path class="st0" d="M0,112.3h22.9c0.5,3.6,1.4,5.6,2.9,7.6c2.5,3.1,6,4.6,10.7,4.6c3.4,0,6.1-0.8,8-2.3c1.9-1.6,2.8-3.4,2.8-5.5
		c0-2-0.9-3.7-2.6-5.3c-1.8-1.5-5.9-3-12.4-4.4c-10.6-2.3-18.2-5.4-22.7-9.2C5,93.8,2.7,89,2.7,83.1c0-4,1.2-7.6,3.5-11.1
		s5.8-6.2,10.5-8.2c4.7-2,11.1-3,19.3-3c10,0,17.7,1.8,22.9,5.4c5.3,3.6,8.4,9.7,9.4,17.6h-23c-0.6-3.4-1.7-4.9-3.6-6.5
		c-1.9-1.5-4.6-2.3-8-2.3c-2.9,0-5,0.6-6.4,1.7c-1.4,1.2-2.1,2.6-2.1,4.2c0,1.2,0.6,2.3,1.8,3.3c1.1,1,3.9,1.9,8.1,2.8
		c10.6,2.2,18.2,4.5,22.7,6.7c4.6,2.3,7.9,5.1,10,8.4c2.1,3.4,3.1,7.1,3.1,11.3c0,4.9-1.4,9.4-4.2,13.5c-2.8,4.1-6.7,7.3-11.7,9.4
		c-5,2.1-11.3,3.2-18.9,3.2c-13.3,0-22.6-2.5-27.7-7.5C3.3,126.9,0.7,120,0,112.3"/>
	<polygon class="st4" points="886.8,61.7 901,61.7 901,65.5 896.2,65.5 896.2,76.9 891.6,76.9 891.6,65.5 886.8,65.5 	"/>
	<polygon class="st4" points="903.1,61.7 909.2,61.7 911.6,70.9 913.9,61.7 920,61.7 920,76.9 916.2,76.9 916.2,65.3 913.3,76.9 
		909.8,76.9 906.9,65.3 906.9,76.9 903.1,76.9 	"/>
	
		<linearGradient id="SVGID_4_" gradientUnits="userSpaceOnUse" x1="559.8" y1="2.4" x2="559.8" y2="194" gradientTransform="matrix(1 0 0 -1 0 194)">
		<stop  offset="0.4417" style="stop-color:#474747"/>
		<stop  offset="0.6564" style="stop-color:#787878"/>
	</linearGradient>
	<path class="st5" d="M559.9,0L464,95.8l95.8,95.8l95.8-95.8L559.9,0z M541.2,154.2L513,125.9l29.3-29.4L513,67.2L541.2,39
		l29.4,29.4l28.3,28.3L541.2,154.2z M627.5,106.5L580,154l-10.8-10.8l47.5-47.5l-47.5-47.5L580,37.5l58.3,58.3L627.5,106.5
		L627.5,106.5z"/>
</g>
<g id="raster" class="st6">
	<g class="st7">
		<g>
			<g>
				<defs>
					<rect id="SVGID_5_" x="-4.5" y="-326.9" width="944" height="207.2"/>
				</defs>
				<clipPath id="SVGID_6_">
					<use xlink:href="#SVGID_5_"  style="overflow:visible;"/>
				</clipPath>
				<g class="st8">
				</g>
			</g>
		</g>
	</g>
</g>
</svg>
