<?xml version="1.0" standalone="no"?>
<!DOCTYPE svg PUBLIC "-//W3C//DTD SVG 20010904//EN"
 "http://www.w3.org/TR/2001/REC-SVG-20010904/DTD/svg10.dtd">
<svg version="1.0" xmlns="http://www.w3.org/2000/svg"
 width="1299.000000pt" height="472.000000pt" viewBox="0 0 1299.000000 472.000000"
 preserveAspectRatio="xMidYMid meet">
<metadata>
Created by potrace 1.13, written by Peter Selinger 2001-2015
</metadata>
<g transform="translate(0.000000,472.000000) scale(0.100000,-0.100000)"
fill="#000000" stroke="none">
<path d="M6790 2861 l0 -1721 460 0 460 0 0 443 0 444 563 6 c588 7 686 13
825 53 334 97 517 339 574 759 18 137 18 776 0 895 -47 299 -150 492 -342 637
-69 52 -194 115 -284 142 -167 51 -220 53 -1273 58 l-983 5 0 -1721z m1778
930 c67 -30 127 -98 147 -164 24 -81 38 -261 31 -401 -8 -155 -20 -215 -54
-279 -57 -106 -133 -120 -632 -121 l-345 -1 -3 498 -2 498 402 -3 c400 -3 403
-3 456 -27z"/>
<path d="M10336 4563 c-5 -16 -1009 -3360 -1022 -3405 -5 -17 22 -18 473 -18
l479 0 74 263 c40 144 77 277 82 295 l9 32 619 0 619 0 9 -32 c5 -18 44 -151
87 -295 l78 -263 469 0 c442 0 469 1 464 18 -3 9 -237 779 -521 1710 -283 931
-517 1697 -520 1702 -4 6 -270 10 -700 10 -652 0 -694 -1 -699 -17z m1144
-2155 c0 -5 -189 -8 -419 -8 -231 0 -422 3 -424 8 -2 4 90 336 204 737 114
402 208 732 209 735 1 6 430 -1461 430 -1472z"/>
<path d="M1307 4550 c-396 -20 -577 -58 -748 -160 -249 -147 -339 -375 -339
-853 1 -450 84 -679 298 -818 183 -120 347 -153 967 -199 521 -38 572 -45 634
-90 77 -56 110 -173 91 -322 -16 -128 -75 -203 -190 -240 -52 -16 -627 -23
-704 -8 -167 33 -232 114 -243 308 l-6 92 -428 0 -429 0 0 -62 c0 -121 21
-354 40 -447 32 -157 112 -298 222 -388 145 -119 327 -172 698 -205 196 -17
908 -17 1055 0 383 45 613 156 747 361 99 152 133 332 132 716 0 370 -26 490
-134 637 -127 172 -346 268 -705 308 -55 6 -287 24 -515 40 -437 31 -495 40
-550 87 -61 51 -75 93 -75 233 0 117 2 129 28 183 52 104 141 134 432 144 198
6 322 -5 409 -38 100 -37 136 -101 144 -252 l5 -97 431 2 431 3 3 145 c8 369
-98 618 -324 763 -130 83 -271 124 -514 146 -156 15 -657 21 -863 11z"/>
<path d="M5250 4550 c-477 -59 -912 -303 -1195 -670 -62 -80 -162 -246 -195
-322 l-25 -58 -192 0 c-142 0 -194 -3 -200 -12 -12 -20 -222 -468 -228 -489
-6 -18 5 -19 242 -21 l248 -3 2 -137 2 -138 -122 0 -122 0 -112 -243 c-62
-133 -115 -250 -119 -259 -6 -17 13 -18 302 -18 l309 -1 39 -80 c85 -175 246
-385 394 -512 272 -234 571 -372 922 -423 159 -23 461 -15 605 16 202 43 400
121 568 223 l67 42 0 324 0 324 -94 -91 c-158 -152 -334 -252 -546 -310 -87
-24 -112 -26 -290 -26 -179 0 -203 2 -292 27 -125 33 -264 94 -364 159 -77 50
-268 230 -313 296 l-22 32 628 0 629 0 120 258 120 257 -851 5 -850 5 -5 80
c-3 44 -3 106 -2 137 l4 58 920 2 919 3 119 255 119 255 -949 3 c-523 1 -950
5 -950 8 0 18 105 149 175 219 372 368 927 456 1390 220 122 -62 205 -124 313
-233 51 -52 94 -92 96 -90 1 1 49 104 106 227 l104 224 -54 49 c-232 207 -552
358 -880 415 -105 17 -389 25 -490 13z m361 -30 c216 -22 401 -73 587 -160
119 -57 299 -173 381 -247 l54 -49 -88 -190 c-48 -104 -89 -191 -91 -193 -2
-2 -45 36 -96 85 -144 138 -272 216 -463 280 -356 119 -740 68 -1063 -142
-109 -70 -279 -240 -351 -349 l-53 -80 955 -5 956 -5 -106 -227 -106 -228
-922 0 -923 0 -7 -66 c-6 -61 1 -217 11 -256 5 -17 56 -18 843 -20 l837 -3
-106 -227 -105 -228 -648 0 -648 0 43 -62 c62 -90 220 -245 312 -308 147 -98
332 -172 505 -201 36 -6 125 -11 196 -11 313 0 604 114 834 327 l61 57 0 -275
0 -275 -78 -46 c-167 -98 -353 -168 -548 -206 -138 -28 -389 -37 -532 -21
-573 67 -1072 407 -1329 908 l-58 113 -292 0 c-161 0 -293 3 -293 8 0 4 47
106 103 227 l103 220 133 3 c115 2 132 5 127 18 -3 9 -6 85 -6 170 l0 154
-240 0 c-132 0 -240 3 -240 8 0 4 47 106 103 227 l103 220 196 3 196 2 22 53
c12 28 45 92 72 140 331 582 993 924 1659 857z"/>
<path d="M339 882 c-91 -47 -122 -139 -78 -230 29 -58 78 -89 201 -124 115
-32 145 -48 154 -82 14 -56 -40 -99 -126 -100 -70 -1 -104 19 -135 80 l-20 39
-55 -5 c-55 -5 -55 -5 -54 -37 5 -90 83 -164 194 -183 129 -22 240 12 295 89
26 37 30 51 30 109 0 119 -51 166 -235 217 -118 33 -140 46 -140 85 0 41 38
64 105 64 62 0 97 -19 115 -64 13 -32 14 -32 71 -28 32 2 61 7 64 10 15 15
-19 95 -54 128 -47 45 -97 60 -199 60 -68 0 -88 -4 -133 -28z"/>
<path d="M2350 575 l0 -325 60 0 60 0 0 325 0 325 -60 0 -60 0 0 -325z"/>
<path d="M3450 575 l0 -325 250 0 250 0 0 50 0 50 -185 0 -185 0 0 95 0 95
165 0 165 0 0 50 0 50 -165 0 -165 0 0 75 0 75 175 0 175 0 0 55 0 55 -240 0
-240 0 0 -325z"/>
<path d="M5930 575 l0 -325 65 0 65 0 0 118 0 119 110 6 c153 9 205 33 241
112 36 77 17 199 -39 248 -42 38 -90 46 -269 47 l-173 0 0 -325z m320 202 c13
-7 30 -29 38 -49 30 -78 -31 -128 -155 -128 l-73 0 0 95 0 95 83 0 c45 0 93
-6 107 -13z"/>
<path d="M10946 892 c-6 -10 -246 -632 -246 -638 0 -2 31 -4 69 -4 l68 0 28
75 27 76 131 -3 131 -3 29 -72 29 -73 69 0 c38 0 69 1 69 3 0 2 -58 147 -129
323 l-130 319 -69 3 c-39 2 -73 -1 -76 -6z m122 -265 c23 -62 42 -116 42 -120
0 -4 -41 -7 -91 -7 -69 0 -90 3 -87 13 3 6 22 60 44 120 21 59 41 107 44 107
3 0 24 -51 48 -113z"/>
<path d="M9673 847 c-52 -31 -53 -33 -53 -79 0 -47 -1 -48 -30 -48 -29 0 -30
-1 -30 -50 0 -49 1 -50 29 -50 l30 0 3 -164 c3 -185 8 -197 79 -216 36 -10
106 -5 126 9 5 3 7 26 5 51 l-4 46 -35 -4 c-23 -3 -38 0 -44 9 -5 8 -9 71 -9
141 l0 127 43 3 42 3 3 48 3 47 -45 0 -46 0 0 80 c0 44 -3 80 -7 80 -5 -1 -32
-15 -60 -33z"/>
<path d="M1365 714 c-16 -8 -40 -25 -52 -36 l-23 -21 0 31 0 32 -60 0 -60 0 0
-235 0 -235 60 0 60 0 0 123 c1 151 10 202 44 235 33 34 87 35 119 4 21 -21
22 -32 25 -192 l3 -170 60 0 59 0 0 180 c0 213 -9 249 -71 280 -46 24 -122 26
-164 4z"/>
<path d="M1840 708 c-74 -40 -110 -111 -110 -218 0 -100 34 -173 99 -217 64
-43 182 -24 228 36 10 13 12 5 13 -47 0 -54 -4 -66 -25 -87 -20 -21 -34 -25
-79 -25 -46 0 -57 4 -73 24 -15 20 -31 25 -87 31 l-69 7 7 -34 c9 -46 35 -79
82 -103 31 -16 59 -20 139 -20 88 0 105 3 142 24 29 16 50 39 63 66 18 38 20
62 20 308 l0 267 -55 0 c-55 0 -55 0 -55 -30 l0 -31 -40 32 c-56 45 -135 51
-200 17z m165 -82 c50 -21 68 -64 63 -149 -3 -63 -7 -72 -36 -98 -54 -48 -129
-35 -161 28 -16 32 -14 139 5 174 8 17 30 37 47 44 40 18 41 18 82 1z"/>
<path d="M2711 708 c-112 -55 -156 -236 -89 -366 37 -71 98 -105 191 -106 61
0 80 4 117 26 37 21 90 87 90 110 0 3 -25 8 -56 12 -53 6 -57 5 -84 -24 -39
-42 -81 -41 -126 4 -21 21 -34 44 -34 60 l0 26 155 0 155 0 0 38 c0 56 -27
136 -57 173 -58 68 -176 90 -262 47z m167 -102 c12 -12 24 -35 25 -52 l2 -29
-90 0 -90 0 2 29 c5 76 95 107 151 52z"/>
<path d="M4845 718 c-11 -6 -30 -23 -42 -37 l-22 -26 -1 33 0 32 -55 0 -55 0
0 -235 0 -235 59 0 59 0 4 148 c3 114 8 154 21 179 20 38 57 51 98 36 26 -10
28 -9 47 42 l19 53 -24 11 c-31 14 -82 14 -108 -1z"/>
<path d="M5175 715 c-53 -21 -111 -79 -131 -132 -24 -62 -16 -187 16 -237 96
-157 345 -146 429 18 33 65 35 170 4 231 -25 48 -66 91 -108 113 -42 22 -160
26 -210 7z m163 -110 c62 -52 64 -178 3 -239 -91 -91 -218 26 -180 166 24 92
112 128 177 73z"/>
<path d="M6655 719 c-37 -14 -72 -45 -91 -81 -21 -41 -18 -45 38 -52 48 -7 53
-5 74 21 42 53 154 29 154 -33 0 -21 -9 -25 -102 -46 -117 -26 -155 -48 -181
-101 -67 -136 114 -252 250 -160 28 19 38 22 44 11 5 -7 9 -16 9 -20 0 -5 27
-8 61 -8 55 0 60 2 53 18 -4 9 -10 98 -13 197 -7 196 -11 214 -64 242 -39 20
-188 28 -232 12z m175 -284 c0 -92 -88 -148 -147 -93 -46 43 -18 89 67 112 79
21 80 20 80 -19z"/>
<path d="M7831 719 c-13 -5 -36 -18 -52 -30 l-29 -20 0 25 c0 25 -2 26 -60 26
l-60 0 0 -235 0 -235 65 0 65 0 0 155 c0 179 8 206 64 225 39 13 69 3 86 -30
6 -10 10 -91 10 -184 l0 -166 59 0 59 0 4 153 c3 83 10 164 16 180 7 15 27 35
47 44 34 16 36 16 63 -4 l27 -20 3 -177 2 -176 66 0 66 0 -3 193 c-3 165 -7
197 -22 220 -53 81 -175 90 -250 19 l-27 -26 -16 22 c-32 46 -120 66 -183 41z"/>
<path d="M8580 715 c-79 -36 -121 -104 -128 -210 -7 -117 28 -200 102 -241
109 -61 259 -24 311 77 8 15 12 30 7 32 -4 3 -33 8 -64 12 -40 5 -58 4 -58 -4
0 -39 -76 -65 -121 -41 -22 12 -49 61 -49 90 0 19 5 20 156 20 l157 0 -7 63
c-8 80 -41 144 -94 182 -36 24 -54 30 -110 32 -45 2 -79 -2 -102 -12z m153
-103 c19 -19 39 -77 29 -86 -3 -3 -45 -6 -94 -6 -86 0 -88 1 -88 24 0 28 34
74 64 86 27 12 66 3 89 -18z"/>
<path d="M9215 714 c-16 -8 -40 -25 -52 -36 l-23 -21 0 31 0 32 -60 0 -60 0 0
-235 0 -235 60 0 60 0 0 123 c1 151 10 202 44 235 33 34 87 35 119 4 21 -21
22 -32 25 -192 l3 -170 60 0 59 0 0 180 c0 213 -9 249 -71 280 -46 24 -122 26
-164 4z"/>
<path d="M10012 718 c-42 -14 -89 -68 -98 -112 -7 -42 18 -101 56 -128 14 -9
68 -29 120 -44 105 -29 120 -38 120 -65 0 -50 -112 -68 -155 -24 -14 13 -25
29 -25 36 0 9 -17 10 -62 5 -34 -3 -63 -8 -66 -10 -9 -10 41 -83 72 -104 47
-32 138 -46 211 -33 102 19 163 89 152 174 -9 69 -49 96 -206 139 -93 25 -117
46 -89 75 12 11 34 17 68 17 45 1 55 -3 76 -27 23 -27 27 -28 76 -20 28 4 53
13 55 18 6 19 -36 74 -69 91 -40 21 -187 29 -236 12z"/>
<path d="M11595 697 l-35 -35 0 29 c0 29 0 29 -60 29 l-60 0 0 -235 0 -235 64
0 65 0 3 154 c3 140 5 157 24 183 19 25 27 28 72 26 l50 -2 16 46 c19 57 14
64 -53 71 -47 4 -53 2 -86 -31z"/>
<path d="M11930 715 c-79 -36 -121 -104 -128 -210 -7 -117 28 -200 102 -241
109 -61 259 -24 311 77 8 15 12 30 7 32 -4 3 -33 8 -64 12 -40 5 -58 4 -58 -4
0 -39 -76 -65 -121 -41 -22 12 -49 61 -49 90 0 19 5 20 156 20 l157 0 -7 63
c-8 80 -41 144 -94 182 -36 24 -54 30 -110 32 -45 2 -79 -2 -102 -12z m153
-103 c19 -19 39 -77 29 -86 -3 -3 -45 -6 -94 -6 -86 0 -88 1 -88 24 0 28 34
74 64 86 27 12 66 3 89 -18z"/>
<path d="M12455 715 c-22 -8 -41 -15 -42 -15 -1 0 -14 -17 -28 -37 -38 -57
-34 -70 25 -78 46 -6 51 -5 74 22 20 23 32 28 70 27 54 -1 76 -17 76 -55 0
-31 -1 -31 -109 -54 -95 -20 -139 -41 -162 -79 -36 -60 -15 -153 43 -189 55
-35 150 -28 209 14 34 24 39 24 39 -1 0 -18 7 -20 65 -20 l65 0 -12 28 c-6 16
-12 95 -12 193 -1 180 -7 199 -62 236 -37 24 -184 29 -239 8z m175 -291 c0
-37 -5 -51 -29 -75 -50 -49 -131 -30 -131 31 0 37 21 57 73 70 23 6 47 13 52
15 29 10 35 3 35 -41z"/>
<path d="M890 485 l0 -235 60 0 60 0 0 235 0 235 -60 0 -60 0 0 -235z"/>
<path d="M4090 535 c0 -208 7 -242 61 -274 69 -42 152 -34 214 20 l35 31 0
-31 0 -31 60 0 60 0 0 235 0 235 -64 0 -65 0 -3 -170 c-3 -193 -9 -207 -86
-217 -34 -5 -44 -1 -66 20 -26 26 -26 27 -26 197 l0 170 -60 0 -60 0 0 -185z"/>
<path d="M7050 712 c0 -5 39 -112 86 -237 59 -158 83 -236 79 -253 -10 -42
-50 -72 -95 -72 -40 0 -40 0 -40 -38 0 -21 5 -43 12 -50 15 -15 80 -16 129 -2
68 19 84 48 199 362 l107 293 -60 3 c-33 2 -63 -1 -68 -5 -4 -4 -28 -75 -54
-158 -26 -82 -50 -153 -54 -157 -4 -4 -31 66 -61 157 l-54 165 -63 0 c-35 0
-63 -4 -63 -8z"/>
</g>
</svg>
