<?xml version="1.0" encoding="utf-8"?>
<!-- Generator: Adobe Illustrator 19.2.1, SVG Export Plug-In . SVG Version: 6.00 Build 0)  -->
<svg version="1.1" id="svg4722" xmlns:svg="http://www.w3.org/2000/svg"
	 xmlns="http://www.w3.org/2000/svg" xmlns:xlink="http://www.w3.org/1999/xlink" x="0px" y="0px" viewBox="0 0 807.3 146.2"
	 style="enable-background:new 0 0 807.3 146.2;" xml:space="preserve">
<style type="text/css">
	.st0{fill:#929292;}
</style>
<g id="layer1" transform="translate(85.788367,-282.23124)">
	<path id="path66" class="st0" d="M181.2,282.2c-11,0-21.7,2.5-31.8,7.3c-14.4,6.8-27.4,18.1-38,33.2c-6.9,9.8-12.8,21.1-17.5,33.8
		c-8.7,23.9-8.6,43.3,0.3,56.1c5.1,7.2,15.6,15.9,37,15.9h0.1c39,0,68.1-25.5,86.5-75.9c4.9-13.3,11.3-38.2-0.4-55
		C210.2,287.4,198.1,282.2,181.2,282.2L181.2,282.2z M416.3,282.2c-11,0-21.7,2.5-31.8,7.3c-14.4,6.8-27.4,18.1-38,33.2
		c-6.9,9.8-12.8,21.1-17.5,33.8c-8.7,23.9-8.6,43.3,0.3,56.1c5.1,7.2,15.6,15.9,37,15.9h0.1c39,0,68.1-25.5,86.5-75.9
		c4.9-13.3,11.3-38.2-0.4-55C445.3,287.4,433.2,282.2,416.3,282.2z M56.1,284.3c-12.8,0-25.3,0-36.4,5.7c-11.2,5.7-21,17-28.6,39.7
		c-1.6,4.9-2.5,9.1-2.6,12.7c-0.1,3.7,0.5,6.8,1.9,9.5c1.7,3.3,4.5,6.4,7.9,9c3.5,2.6,7.6,4.7,12.1,6.1c0.2,0,2.5,0.7,5.4,1.5
		c2.8,0.8,6.1,1.8,8.2,2.4c1.2,0.4,2.6,0.9,3.8,1.6c1.2,0.7,2.3,1.7,3,3.1c0.5,0.9,0.7,1.9,0.7,2.9c0,1.1-0.1,2.2-0.6,3.4
		c-1,3.1-2.6,5.1-5.6,6.3c-3,1.2-7.4,1.6-14.1,1.7h-83.7l-13.2,36.3H3.8c8.4,0,23.8,0,38.7-6.3c14.8-6.3,29-18.9,35-44
		c2.3-9.5,1.6-17.2-2.1-23.2S65,342.3,55.2,339.5c0,0-2.2-0.6-4.8-1.4c-2.6-0.7-5.5-1.6-7-2c-2.5-0.7-4.4-2.2-5.6-4
		c-1.1-1.8-1.5-4.1-0.8-6.4c0.7-2.4,2.3-4.3,4.6-5.6c2.4-1.3,5.5-2,9.1-2h52.1c0.4-0.5,0.7-1.1,1.1-1.6c9.5-13.5,21-24.3,33.6-32
		H56.1V284.3z M290.1,284.3c-23.2,0-40.4,11.7-48.6,33.7l-39.4,108.2h43.1l20.2-55.6h38.1l10.8-29.8h-38l6.1-17.2
		c1.3-3.1,4.3-5.5,8.8-5.5c2.5,0,30.5,0,44.9,0c0.4-0.5,0.7-1.1,1.1-1.6c9.5-13.5,23-24.3,35.6-32L290.1,284.3L290.1,284.3z
		 M490.2,284.3l-51.6,141.8h43.9l18.8-49.9c0.9,2.1,12,49.9,12,49.9h46.1c0,0-8.4-35.2-14.6-49.4c-1.6-3.7-3.2-7.7-5.5-11.2
		c13-4.8,31.9-15.2,39.7-36.3c4.8-12.9,4.5-23.4-0.8-31.1c-6.5-9.3-19.6-13.9-40.3-13.9h-47.7V284.3z M580.2,284.3
		c2.8,2.2,5.2,4.7,7.2,7.6c5.1,7.4,7.1,16.1,5.9,26.1h26.1L580,426.2h39.3L658.7,318h50.5l12.3-33.7H580.2z M519.1,313.6h7.2
		c13.2,0,18.2,3.9,13.7,16c-4.2,11.3-11.8,18.3-26.2,18.3h-0.1h-7.4L519.1,313.6L519.1,313.6z M170.9,314.3L170.9,314.3
		c13.5,0,16.6,7.8,4.7,40.2l0,0c-12.2,33.3-21,41.6-34.3,41.6l0,0c-12.9,0-17.5-8.2-5.4-41.3C145,330.1,156.7,314.3,170.9,314.3
		L170.9,314.3z M406,314.3L406,314.3c13.5,0,16.6,7.8,4.7,40.2c-12.1,33.3-21,41.6-34.2,41.6l0,0c-12.9,0-17.5-8.2-5.4-41.3
		C380.1,330.1,391.8,314.3,406,314.3L406,314.3z"/>
</g>
</svg>
