<?xml version="1.0" encoding="utf-8"?>
<!-- Generator: Adobe Illustrator 19.2.1, SVG Export Plug-In . SVG Version: 6.00 Build 0)  -->
<svg version="1.1" id="Layer_1" xmlns="http://www.w3.org/2000/svg" xmlns:xlink="http://www.w3.org/1999/xlink" x="0px" y="0px"
	 viewBox="0 0 236.4 151" style="enable-background:new 0 0 236.4 151;" xml:space="preserve">
<style type="text/css">
	.st0{fill:none;}
	.st1{fill:#727272;}
	.st2{fill:#5C5C5C;}
	.st3{fill:#4C4C4C;}
	.st4{fill:#585858;}
	.st5{fill:#6F6F6F;}
	.st6{fill:#FFFFFF;}
</style>
<g>
	<path class="st0" d="M101.8,0H48.1h53.4C101.6,0,101.7,0,101.8,0z"/>
	<path class="st0" d="M0,140.9V151h11.4C5,150.9,0.5,146.7,0,140.9z"/>
	<path class="st1" d="M166.5,0h-23.3h23.1C166.4,0,166.5,0,166.5,0z"/>
	<path class="st2" d="M54.1,136.4L81.6,14.6c1.8-8,11.9-14.4,19.9-14.6H48.1C40,0,29.7,6.5,27.9,14.6L0.3,136.4
		c-0.2,0.7-0.3,1.5-0.3,2.2v2.3c0.5,5.8,5,10.1,11.4,10.2h53.7C57.2,150.9,52.2,144.4,54.1,136.4z"/>
	<path class="st3" d="M143.2,0h-41.4c-0.1,0-0.2,0-0.3,0H143.2z"/>
	<path class="st4" d="M119.1,136.4l27.5-121.8c1.8-7.9,11.8-14.3,19.8-14.6h-23.1h-41.7c-8,0.2-18.1,6.6-19.9,14.6L54.1,136.4
		c-1.8,8,3.1,14.5,11.1,14.6h65C122.2,150.9,117.3,144.4,119.1,136.4z"/>
	<path class="st5" d="M224.7,0h-58.2l0,0h-0.1c-8,0.2-18,6.7-19.8,14.6l-27.5,121.8c-1.8,8,3.1,14.5,11.1,14.6h7.9h36.1h17.2
		c7.8-0.4,15.4-6.7,17.2-14.5L236,14.7C237.8,6.6,232.8,0,224.7,0z"/>
	<path class="st6" d="M102.6,88.8h1c0.9,0,1.6-0.3,1.8-0.9L108,84h7l-1.5,2.6h8.4l-1.1,4h-10c-1.2,1.7-2.6,2.6-4.3,2.5h-5.2
		L102.6,88.8 M101.5,94.5H120l-1.2,4.3h-7.4l-1.1,4.2h7.2l-1.2,4.3H109l-1.7,6.1c-0.4,1,0.1,1.5,1.6,1.4h5.9l-1.1,4h-11.3
		c-2.1,0-2.9-1.2-2.2-3.7l2.1-7.8h-4.6l1.2-4.3h4.6l1.1-4.2h-4.4L101.5,94.5z M131,83.9l-0.3,2.5c0,0,3.5-2.6,6.7-2.6H149l-4.5,16.2
		c-0.4,1.9-2,2.8-4.8,2.8h-13.3l-3.1,11.4c-0.2,0.6,0.1,0.9,0.7,0.9h2.6l-1,3.5H119c-2.5,0-3.6-0.8-3.2-2.3l8.8-32.4H131z
		 M140.9,88.5h-10.4l-1.2,4.4c0,0,1.7-1.3,4.6-1.3c2.9,0,6.2,0,6.2,0L140.9,88.5z M137.1,98.6c0.8,0.1,1.2-0.2,1.3-0.9l0.6-2.3
		h-10.5l-0.9,3.2C127.6,98.6,137.1,98.6,137.1,98.6z M130.1,103.8h6l-0.1,2.6h1.6c0.8,0,1.2-0.3,1.2-0.8l0.5-1.7h5l-0.7,2.5
		c-0.6,2.1-2.1,3.1-4.5,3.2h-3.2v4.5c-0.1,0.7,0.6,1.1,1.9,1.1h3l-1,3.5h-7.2c-2,0.1-3-0.9-3-2.9L130.1,103.8z"/>
	<path class="st6" d="M155.7,89l1.4-4.9h7.1l-0.3,1.8c0,0,3.6-1.8,6.2-1.8c2.6,0,8.7,0,8.7,0l-1.4,4.9H176l-6.6,23.2h1.4l-1.3,4.6
		h-1.4l-0.6,2h-6.8l0.6-2h-13.5l1.3-4.6h1.4L157,89H155.7 M163.3,89l-1.8,6.3c0,0,3.1-1.2,5.7-1.5c0.6-2.2,1.4-4.8,1.4-4.8H163.3z
		 M160.7,98.2l-1.8,6.6c0,0,3.4-1.7,5.8-1.8c0.7-2.5,1.4-4.8,1.4-4.8S160.7,98.2,160.7,98.2z M162,112.2l1.4-4.8h-5.3l-1.4,4.8H162z
		 M179.1,83.7h6.6l0.3,2.5c0,0.6,0.3,0.9,1.1,0.9h1.2l-1.2,4.2h-4.9c-1.9,0.1-2.8-0.6-2.9-2.2L179.1,83.7z M177.1,92.6h21.5
		l-1.3,4.5h-6.9l-1.2,4.1h6.8l-1.3,4.5h-7.6l-1.7,2.6h3.7l0.9,5.2c0.1,0.5,0.6,0.8,1.4,0.8h1.2l-1.2,4.3h-4.1
		c-2.1,0.1-3.2-0.6-3.3-2.1l-1-4.8l-3.4,5.1c-0.8,1.4-2,2.1-3.7,2h-6.3l1.2-4.3h2c0.8,0,1.5-0.4,2.1-1.1l5.3-7.7h-6.9l1.3-4.5h7.4
		l1.2-4.1h-7.4L177.1,92.6z"/>
	<path class="st6" d="M57,62.3c-0.8,4-2.7,7.1-5.7,9.3c-2.9,2.1-6.7,3.2-11.3,3.2c-4.3,0-7.5-1.1-9.5-3.3c-1.4-1.6-2.1-3.6-2.1-6
		c0-1,0.1-2.1,0.4-3.2l4.9-23.6h7.4L36.3,62c-0.1,0.6-0.2,1.2-0.2,1.8c0,1.2,0.3,2.2,0.9,2.9c0.9,1.1,2.3,1.7,4.3,1.7
		c2.3,0,4.2-0.6,5.6-1.7c1.5-1.1,2.4-2.7,2.8-4.8l4.9-23.4H62L57,62.3"/>
	<path class="st6" d="M63.8,53H69l-0.6,3l0.8-0.9c1.7-1.8,3.8-2.7,6.2-2.7c2.2,0,3.8,0.6,4.8,1.9c1,1.3,1.2,3.1,0.8,5.3L78.1,74
		h-5.4l2.6-13c0.3-1.3,0.2-2.3-0.2-3c-0.4-0.6-1.2-1-2.3-1c-1.4,0-2.5,0.4-3.5,1.3c-1,0.9-1.6,2.1-1.9,3.6L65,74.1h-5.4L63.8,53"/>
	<path class="st6" d="M123.8,53h5.2l-0.6,3l0.7-0.9c1.7-1.8,3.8-2.7,6.2-2.7c2.2,0,3.8,0.6,4.8,1.9c1,1.3,1.3,3.1,0.8,5.3L138,74.1
		h-5.4l2.6-13c0.3-1.3,0.2-2.3-0.2-3c-0.4-0.6-1.2-1-2.3-1c-1.4,0-2.5,0.4-3.5,1.3c-1,0.9-1.6,2.1-1.9,3.6L125,74.1h-5.4L123.8,53"
		/>
	<path class="st6" d="M88.1,53h5.8l-4.5,21.1h-5.8L88.1,53 M89.9,45.3h5.8l-1.1,5.1h-5.8L89.9,45.3z"/>
	<path class="st6" d="M99,72.5c-1.5-1.4-2.3-3.4-2.3-5.9c0-0.4,0-0.9,0.1-1.4s0.1-1.1,0.2-1.5c0.7-3.4,2.2-6.1,4.4-8.2
		c2.3-2,5-3,8.1-3c2.6,0,4.7,0.7,6.2,2.2s2.3,3.4,2.3,6c0,0.4,0,0.9-0.1,1.5c-0.1,0.5-0.1,1.1-0.2,1.6c-0.7,3.4-2.1,6.1-4.4,8
		c-2.3,2-5,3-8.1,3C102.6,74.6,100.5,73.9,99,72.5 M110.1,68.3c1-1.1,1.8-2.8,2.2-5c0.1-0.3,0.1-0.7,0.2-1.1c0-0.4,0.1-0.7,0.1-1
		c0-1.3-0.3-2.3-1-3s-1.6-1.1-2.8-1.1c-1.6,0-2.9,0.6-3.9,1.7c-1,1.1-1.8,2.8-2.2,5.1c-0.1,0.3-0.1,0.7-0.2,1c0,0.3,0,0.7,0,1
		c0,1.3,0.3,2.3,1,3s1.6,1.1,2.8,1.1C107.7,70,109.1,69.4,110.1,68.3"/>
	<path class="st6" d="M149.7,39.9h15.2c2.9,0,5.2,0.7,6.7,2s2.3,3.2,2.3,5.7v0.1c0,0.5,0,1-0.1,1.6s-0.2,1.1-0.3,1.7
		c-0.7,3.3-2.2,5.9-4.6,7.9c-2.4,2-5.3,3-8.5,3h-8.1l-2.5,12.4h-7.1L149.7,39.9 M153.5,55.8h6.8c1.8,0,3.2-0.4,4.2-1.2
		s1.7-2.1,2.1-3.8c0.1-0.3,0.1-0.6,0.1-0.9c0-0.2,0.1-0.5,0.1-0.7c0-1.2-0.4-2.1-1.3-2.6c-0.9-0.6-2.2-0.8-4.1-0.8h-5.7L153.5,55.8z
		"/>
	<path class="st6" d="M205.5,78.2c-2.2,4.7-4.4,7.5-5.6,8.8c-1.2,1.3-3.7,4.2-9.7,4l0.5-3.6c5-1.5,7.7-8.5,9.3-11.6l-1.8-22.7
		L202,53h3.3l0.3,14.2l6.1-14.2h6.2L205.5,78.2"/>
	<path class="st6" d="M188.2,54.7l-2.5,1.7c-2.6-2-4.9-3.2-9.4-1.2C170.2,58.1,165,80,182,72.8l1,1.1l6.7,0.2l4.4-19.9L188.2,54.7
		 M184.4,65.6c-1.1,3.2-3.5,5.2-5.3,4.7c-1.9-0.6-2.5-3.6-1.5-6.8c1.1-3.2,3.5-5.2,5.3-4.7C184.8,59.4,185.5,62.4,184.4,65.6"/>
</g>
</svg>
