<?xml version="1.0" standalone="no"?>
<!DOCTYPE svg PUBLIC "-//W3C//DTD SVG 20010904//EN"
 "http://www.w3.org/TR/2001/REC-SVG-20010904/DTD/svg10.dtd">
<svg version="1.0" xmlns="http://www.w3.org/2000/svg"
 width="200.000000pt" height="65.000000pt" viewBox="0 0 200.000000 65.000000"
 preserveAspectRatio="xMidYMid meet">
<metadata>
Created by potrace 1.13, written by Peter Selinger 2001-2015
</metadata>
<g transform="translate(0.000000,65.000000) scale(0.100000,-0.100000)"
fill="#000000" stroke="none">
<path d="M1165 617 c-110 -54 -156 -143 -117 -230 21 -47 55 -77 140 -123 59
-31 77 -54 67 -85 -7 -23 -60 -49 -98 -49 -22 0 -114 22 -148 35 -12 5 -18 -7
-28 -61 -6 -36 -10 -68 -8 -70 2 -3 37 -12 78 -20 178 -38 339 29 368 154 24
98 -11 155 -139 223 -36 19 -67 43 -73 57 -10 21 -8 27 13 44 22 17 35 20 100
15 41 -2 82 -8 92 -11 13 -6 19 3 31 56 18 80 16 81 -123 86 -95 3 -110 1
-155 -21z"/>
<path d="M10 623 c0 -5 33 -18 73 -30 39 -12 80 -28 90 -35 13 -10 36 -81 77
-240 32 -124 64 -244 70 -267 l11 -41 83 0 84 0 56 133 c31 72 89 211 129 307
l74 175 -80 3 c-44 2 -83 -1 -87 -5 -4 -4 -43 -98 -86 -207 l-79 -199 -12 59
c-7 32 -23 117 -37 188 -15 77 -32 136 -42 147 -15 17 -33 19 -171 19 -84 0
-153 -3 -153 -7z"/>
<path d="M825 618 c-7 -23 -125 -584 -125 -596 0 -8 24 -12 80 -12 44 0 80 3
80 8 0 6 110 526 125 590 5 21 3 22 -75 22 -56 0 -82 -4 -85 -12z"/>
<path d="M1678 613 c-12 -13 -206 -462 -255 -590 -4 -10 16 -13 80 -13 l85 0
14 43 15 42 106 3 106 3 8 -43 9 -43 72 -3 c64 -3 72 -1 72 15 0 11 -27 147
-60 303 -33 157 -60 288 -60 293 0 4 -40 7 -88 7 -72 0 -92 -3 -104 -17z m96
-250 c10 -49 20 -98 23 -110 5 -22 3 -23 -62 -23 -49 0 -66 3 -63 13 3 6 20
56 39 109 19 54 36 98 39 98 3 0 14 -39 24 -87z"/>
</g>
</svg>
