<?xml version="1.0" encoding="utf-8"?>
<!-- Generator: Adobe Illustrator 19.2.1, SVG Export Plug-In . SVG Version: 6.00 Build 0)  -->
<svg version="1.1" id="Layer_1" xmlns="http://www.w3.org/2000/svg" xmlns:xlink="http://www.w3.org/1999/xlink" x="0px" y="0px"
	 viewBox="0 0 28 38" style="enable-background:new 0 0 28 38;" xml:space="preserve">
<style type="text/css">
	.st0{fill:#FFFFFF;}
	.st1{filter:url(#Adobe_OpacityMaskFilter);}
	.st2{mask:url(#mask-2);fill:#351C15;}
	.st3{fill:#351C15;}
</style>
<title>icon-FMD-package-car</title>
<desc>Created with Sketch.</desc>
<g id="Page-1">
	<g id="icon-FMD-package-car" transform="translate(0.000000, -1.000000)">
		<path id="Fill-1" class="st0" d="M20.8,31.2c-3.1,3.9-6.2,6.7-6.5,7c-0.2,0.2-0.3,0.2-0.5,0c-0.3-0.3-3.4-3.1-6.5-7
			c-4.3-5.5-6.5-10.4-6.5-14.6C0.7,12.7,2,9,4.5,6.2C7,3.3,10.4,1.7,14,1.7c3.6,0,7,1.6,9.5,4.5c1.2,1.4,2.1,3,2.8,4.8
			c0.7,1.8,1,3.7,1,5.7C27.3,20.8,25.1,25.7,20.8,31.2"/>
		<g id="Group-5" transform="translate(0.000000, 0.163900)">
			<g id="Clip-4">
			</g>
			<defs>
				<filter id="Adobe_OpacityMaskFilter" filterUnits="userSpaceOnUse" x="0" y="0.8" width="28" height="38">
					<feColorMatrix  type="matrix" values="1 0 0 0 0  0 1 0 0 0  0 0 1 0 0  0 0 0 1 0"/>
				</filter>
			</defs>
			<mask maskUnits="userSpaceOnUse" x="0" y="0.8" width="28" height="38" id="mask-2">
				<g class="st1">
					<polygon id="path-1" class="st0" points="0,0.8 0,38.8 28,38.8 28,0.8 					"/>
				</g>
			</mask>
			<path id="Fill-3" class="st2" d="M14,3.1c-3.2,0-6.2,1.4-8.4,4c-2.2,2.5-3.4,5.9-3.4,9.4c0,7.9,9.2,17.2,11.8,19.7
				c2.6-2.5,11.8-11.8,11.8-19.7c0-3.5-1.2-6.9-3.4-9.4C20.2,4.5,17.2,3.1,14,3.1 M14,38.8c-0.3,0-0.5-0.1-0.7-0.3
				c-0.1-0.1-3.3-3-6.6-7.1C2.3,25.9,0,20.8,0,16.5c0-4.1,1.4-8,4-10.9c2.6-3,6.2-4.7,10-4.7c3.8,0,7.4,1.7,10,4.8
				c1.2,1.4,2.2,3.1,2.9,5c0.7,1.9,1,3.9,1,5.9c0,4.4-2.3,9.4-6.7,15c-3.2,4.1-6.5,6.9-6.6,7.1C14.5,38.7,14.3,38.8,14,38.8"/>
		</g>
		<path id="Fill-6" class="st3" d="M7.9,19.7c0,0.5-0.4,1-1,1c-0.5,0-1-0.4-1-1c0-0.5,0.4-1,1-1C7.5,18.7,7.9,19.2,7.9,19.7"/>
		<path id="Fill-8" class="st3" d="M19.4,19.7c0,0.5-0.4,1-1,1c-0.5,0-1-0.4-1-1c0-0.5,0.4-1,1-1C19,18.7,19.4,19.2,19.4,19.7"/>
		<path id="Fill-10" class="st3" d="M10,15.6H7.7l0.6-2H10V15.6z M22.2,18.9V12H9.4c-0.9,0-1.5,1.3-1.5,1.3l-1,2.3l-1.9,1l-0.2,3.1
			l0.6,0c0-0.8,0.6-1.5,1.4-1.5c0.8,0,1.4,0.7,1.4,1.5c0,0,0,0,0,0l8.7,0.1c0,0,0-0.1,0-0.1c0-0.8,0.6-1.5,1.4-1.5s1.4,0.7,1.4,1.5
			c0,0,0,0.1,0,0.1l3.2,0v-1H22.2z"/>
	</g>
</g>
</svg>
