<?xml version="1.0" encoding="utf-8"?>
<!-- Generator: Adobe Illustrator 19.2.1, SVG Export Plug-In . SVG Version: 6.00 Build 0)  -->
<svg version="1.1" id="Layer_1" xmlns="http://www.w3.org/2000/svg" xmlns:xlink="http://www.w3.org/1999/xlink" x="0px" y="0px"
	 viewBox="0 0 31 30" style="enable-background:new 0 0 31 30;" xml:space="preserve">
<style type="text/css">
	.st0{fill:#351C15;}
	.st1{fill:#FFFFFF;}
</style>
<title>UPS_FMD_HouseIcon</title>
<polygon class="st0" points="31,15.6 15.5,0 15.5,0 15.5,0 0,15.6 2.1,15.6 2.1,15.6 3.3,15.6 3.3,28.2 3.3,29.8 3.3,30 27.8,30 
	27.8,29.8 27.8,28.2 27.8,15.6 28.9,15.6 28.9,15.6 "/>
<polygon class="st1" points="26,28.2 18.7,28.2 18.7,17.5 12.5,17.5 12.5,28.2 5,28.2 5,14.1 5,14.1 4,14.1 15.5,2.5 27,14.1 
	26,14.1 26,15.6 "/>
</svg>
