<?xml version="1.0" encoding="utf-8"?>
<!-- Generator: Adobe Illustrator 19.2.1, SVG Export Plug-In . SVG Version: 6.00 Build 0)  -->
<svg version="1.1" id="Layer_1" xmlns="http://www.w3.org/2000/svg" xmlns:xlink="http://www.w3.org/1999/xlink" x="0px" y="0px"
	 viewBox="0 0 192 58.3" style="enable-background:new 0 0 192 58.3;" xml:space="preserve">
<style type="text/css">
	.st0{fill:#FFFFFF;}
	.st1{fill:#FFFDEB;}
	.st2{fill:#2794CE;}
	.st3{fill:#FFB10D;}
	.st4{fill:#3CB849;}
	.st5{fill:#F56B61;}
	.st6{fill:#C16B61;}
	.st7{fill:#D9D7CB;}
	.st8{fill:#E9F6E8;}
</style>
<path d="M180,58.3H12c-6.6,0-12-5.4-12-12V12C0,5.4,5.4,0,12,0h168c6.6,0,12,5.4,12,12v34.3C192,52.9,186.6,58.3,180,58.3z"/>
<g>
	<path class="st0" d="M70.5,18.9l-1.1,3.4H68l3.7-10.8h1.7l3.7,10.8h-1.5l-1.2-3.4H70.5z M74,17.9l-1.1-3.1c-0.2-0.7-0.4-1.3-0.6-2
		l0,0c-0.2,0.6-0.3,1.3-0.5,2l-1.1,3.1H74z"/>
	<path class="st0" d="M85,11v9.4c0,0.7,0,1.5,0.1,2h-1.3l-0.1-1.3l0,0c-0.4,0.9-1.4,1.5-2.6,1.5c-1.9,0-3.3-1.6-3.3-3.9
		c0-2.6,1.6-4.2,3.5-4.2c1.2,0,2,0.6,2.3,1.2l0,0V11H85z M83.6,17.7c0-0.2,0-0.4-0.1-0.6c-0.2-0.9-1-1.6-2-1.6c-1.5,0-2.3,1.3-2.3,3
		c0,1.6,0.8,2.9,2.3,2.9c0.9,0,1.8-0.6,2.1-1.7c0-0.2,0.1-0.4,0.1-0.6v-1.4H83.6z"/>
	<path class="st0" d="M94,11v9.4c0,0.7,0,1.5,0.1,2h-1.3l-0.1-1.3l0,0c-0.4,0.9-1.4,1.5-2.6,1.5c-1.9,0-3.3-1.6-3.3-3.9
		c0-2.6,1.6-4.2,3.5-4.2c1.2,0,2,0.6,2.3,1.2l0,0V11H94z M92.6,17.7c0-0.2,0-0.4-0.1-0.6c-0.2-0.9-1-1.6-2-1.6c-1.5,0-2.3,1.3-2.3,3
		c0,1.6,0.8,2.9,2.3,2.9c0.9,0,1.8-0.6,2.1-1.7c0-0.2,0.1-0.4,0.1-0.6v-1.4H92.6z"/>
	<path class="st0" d="M101.4,12.4v2.2h2v1.1h-2v4.2c0,1,0.3,1.5,1.1,1.5c0.4,0,0.6,0,0.8-0.1l0.1,1.1c-0.3,0.1-0.7,0.2-1.2,0.2
		c-0.7,0-1.2-0.2-1.5-0.6c-0.4-0.4-0.5-1.1-0.5-2v-4.2H99v-1.1h1.2v-1.9L101.4,12.4z"/>
	<path class="st0" d="M111.9,18.4c0,2.9-2,4.1-3.9,4.1c-2.1,0-3.7-1.5-3.7-4c0-2.6,1.7-4.1,3.8-4.1C110.4,14.4,111.9,16,111.9,18.4z
		 M105.8,18.5c0,1.7,1,3,2.4,3c1.3,0,2.4-1.3,2.4-3c0-1.3-0.7-3-2.3-3C106.5,15.5,105.8,17,105.8,18.5z"/>
	<path class="st0" d="M71.6,38.7l-1.5,4.7h-2l5-14.8h2.3l5.1,14.8h-2l-1.6-4.7H71.6z M76.4,37.2l-1.5-4.3c-0.3-1-0.6-1.8-0.8-2.7
		l0,0c-0.2,0.9-0.5,1.8-0.7,2.7l-1.5,4.3H76.4z"/>
	<path class="st0" d="M82.3,36.2c0-1.4,0-2.5-0.1-3.5h1.7l0.1,1.8l0,0c0.8-1.3,2-2.1,3.8-2.1c2.6,0,4.5,2.2,4.5,5.4
		c0,3.8-2.3,5.7-4.8,5.7c-1.4,0-2.6-0.6-3.3-1.7l0,0v5.8h-1.9V36.2z M84.2,39c0,0.3,0,0.5,0.1,0.8c0.4,1.3,1.5,2.3,2.9,2.3
		c2,0,3.2-1.7,3.2-4.1c0-2.1-1.1-4-3.2-4c-1.3,0-2.6,0.9-2.9,2.4c-0.1,0.2-0.1,0.5-0.1,0.8V39z"/>
	<path class="st0" d="M94.6,36.2c0-1.4,0-2.5-0.1-3.5h1.7l0.1,1.8l0,0c0.8-1.3,2-2.1,3.8-2.1c2.6,0,4.5,2.2,4.5,5.4
		c0,3.8-2.3,5.7-4.8,5.7c-1.4,0-2.6-0.6-3.3-1.7l0,0v5.8h-1.9V36.2z M96.5,39c0,0.3,0,0.5,0.1,0.8c0.4,1.3,1.5,2.3,2.9,2.3
		c2,0,3.2-1.7,3.2-4.1c0-2.1-1.1-4-3.2-4c-1.3,0-2.6,0.9-2.9,2.4c-0.1,0.2-0.1,0.5-0.1,0.8V39z"/>
	<path class="st0" d="M106.9,27.7h1.9v15.6h-1.9V27.7z"/>
	<path class="st0" d="M112.9,38.4c0,2.6,1.7,3.7,3.7,3.7c1.4,0,2.2-0.2,2.9-0.5l0.3,1.4c-0.7,0.3-1.8,0.7-3.5,0.7
		c-3.3,0-5.2-2.2-5.2-5.4s1.9-5.7,5-5.7c3.5,0,4.4,3.1,4.4,5c0,0.4,0,0.7-0.1,0.9L112.9,38.4L112.9,38.4z M118.6,37
		c0-1.2-0.5-3.1-2.7-3.1c-2,0-2.8,1.8-3,3.1H118.6z"/>
	<path class="st0" d="M128.8,43.3L125,28.5h2l1.8,7.5c0.4,1.8,0.8,3.7,1.1,5.1l0,0c0.2-1.5,0.7-3.2,1.2-5.1l2-7.5h2l1.8,7.5
		c0.4,1.8,0.8,3.5,1,5.1l0,0c0.3-1.6,0.7-3.3,1.2-5.1l2-7.5h2l-4.2,14.8h-2l-1.9-7.7c-0.5-1.9-0.8-3.3-1-4.8l0,0
		c-0.3,1.5-0.6,2.9-1.1,4.8l-2.1,7.7H128.8z"/>
	<path class="st0" d="M149.9,43.3l-0.2-1.3h-0.1c-0.6,0.8-1.7,1.6-3.3,1.6c-2.2,0-3.3-1.5-3.3-3.1c0-2.6,2.3-4,6.4-4v-0.2
		c0-0.9-0.2-2.5-2.4-2.5c-1,0-2,0.3-2.8,0.8l-0.4-1.3c0.9-0.6,2.2-0.9,3.5-0.9c3.3,0,4,2.2,4,4.4v4c0,0.9,0,1.8,0.2,2.6h-1.6V43.3z
		 M149.6,37.9c-2.1,0-4.5,0.3-4.5,2.4c0,1.3,0.8,1.8,1.8,1.8c1.4,0,2.3-0.9,2.6-1.8c0.1-0.2,0.1-0.4,0.1-0.6V37.9z"/>
	<path class="st0" d="M154.4,27.7h1.9v15.6h-1.9V27.7z"/>
	<path class="st0" d="M159.3,27.7h1.9v15.6h-1.9V27.7z"/>
	<path class="st0" d="M165.4,38.4c0,2.6,1.7,3.7,3.7,3.7c1.4,0,2.2-0.2,2.9-0.5l0.3,1.4c-0.7,0.3-1.8,0.7-3.5,0.7
		c-3.3,0-5.2-2.2-5.2-5.4s1.9-5.7,5-5.7c3.5,0,4.4,3.1,4.4,5c0,0.4,0,0.7-0.1,0.9L165.4,38.4L165.4,38.4z M171.1,37
		c0-1.2-0.5-3.1-2.7-3.1c-2,0-2.8,1.8-3,3.1H171.1z"/>
	<path class="st0" d="M177.4,29.6v3.1h2.8v1.5h-2.8v5.7c0,1.3,0.4,2.1,1.5,2.1c0.5,0,0.9-0.1,1.1-0.1l0.1,1.5
		c-0.4,0.2-1,0.3-1.7,0.3c-0.9,0-1.6-0.3-2.1-0.8c-0.5-0.6-0.7-1.5-0.7-2.8v-5.8H174v-1.5h1.6v-2.6L177.4,29.6z"/>
</g>
<path class="st1" d="M53,45.6H18.4c-2.9,0-5.2-2.3-5.2-5.2V16.8c0-2.9,2.3-5.2,5.2-5.2H53c2.9,0,5.2,2.3,5.2,5.2v23.6
	C58.2,43.2,55.8,45.6,53,45.6z"/>
<path class="st2" d="M56.5,29.2V17.4c0-2.2-1.8-3.9-3.9-3.9H18.8c-2.2,0-3.9,1.8-3.9,3.9v11.8H56.5z"/>
<path class="st3" d="M56.5,32.2V20.4c0-2.2-1.8-3.9-3.9-3.9H18.8c-2.2,0-3.9,1.8-3.9,3.9v11.8H56.5z"/>
<path class="st4" d="M56.5,35.3V23.5c0-2.2-1.8-3.9-3.9-3.9H18.8c-2.2,0-3.9,1.8-3.9,3.9v11.8H56.5z"/>
<path class="st5" d="M56.5,38.4V26.6c0-2.2-1.8-3.9-3.9-3.9H18.8c-2.2,0-3.9,1.8-3.9,3.9v11.8H56.5z"/>
<polygon class="st6" points="43.3,26.7 39.7,31.1 32.5,31.1 29.3,26.7 14.9,26.7 14.9,27.6 28.9,27.6 32.2,32.1 40,32.1 43.6,27.6 
	56.5,27.6 56.5,26.7 "/>
<path class="st7" d="M14.9,27.6v11.8c0,2.2,1.8,3.9,3.9,3.9h33.7c2.2,0,3.9-1.8,3.9-3.9V27.6H43.2L39.6,32h-7.1l-3.2-4.4H14.9z"/>
<polygon class="st8" points="43.3,27.2 39.7,31.7 32.5,31.7 29.3,27.2 14.9,27.2 14.9,28.2 28.9,28.2 32.2,32.6 40,32.6 43.6,28.2 
	56.5,28.2 56.5,27.2 "/>
</svg>
